<?xml version="1.0" standalone="no"?>
<!DOCTYPE svg PUBLIC "-//W3C//DTD SVG 1.1//EN" "http://www.w3.org/Graphics/SVG/1.1/DTD/svg11.dtd" >
<svg xmlns="http://www.w3.org/2000/svg" xmlns:xlink="http://www.w3.org/1999/xlink" version="1.1">
<metadata>
Created by FontForge 20170731 at Wed Oct  7 16:37:51 2020
 By Aleksey,,,
Copyright (c) 2012 by [29 Arabic Letters] - Pascal Zoghbi. All rights reserved.
</metadata>
<defs>
<font id="29LTBukra-BoldItalic" horiz-adv-x="0" >
  <font-face 
    font-family="29LT Bukra Bold Italic"
    font-weight="800"
    font-style="italic"
    font-stretch="normal"
    units-per-em="2048"
    panose-1="0 11 9 3 2 2 4 2 2 4"
    ascent="1690"
    descent="-358"
    x-height="1180"
    cap-height="1688"
    bbox="-344 -725 3101 2169"
    underline-thickness="102"
    underline-position="-204"
    unicode-range="U+001D-FEFC"
  />
<missing-glyph horiz-adv-x="1024" 
 />
    <glyph glyph-name="uniFEF5" unicode="&#xfedf;&#xfe82;" horiz-adv-x="1527" arabic-form="isolated" 
d="M82 313h614q64 0 121 17q54 16 94 47q35 30 56 77q20 44 20 115v1270h473v-340h-133v-919q0 -133 -40 -253q-41 -124 -122 -200q-96 -85 -226 -119q-134 -35 -302 -35h-514zM377 1495h340v-1133h-340v1133zM193 1796h612v-186h-612v186z" />
    <glyph glyph-name="uniFEF6" unicode="&#xfee0;&#xfe82;" horiz-adv-x="1531" arabic-form="final" 
d="M82 313h614q64 0 121 17q54 16 94 47q35 30 56 77q20 44 20 115v1270h473v-340h-133v-919q0 -102 -20 -181q77 -86 292 -86v-340q-123 0 -192 20q-67 19 -116 50q-47 29 -77 69q-28 37 -28 35q1 0 -0.5 -1t-8 -7t-12.5 -12q-96 -85 -226 -119q-134 -35 -302 -35h-514z
M377 1495h340v-1133h-340v1133zM197 1796h612v-186h-612v186z" />
    <glyph glyph-name="uniFEF7" unicode="&#xfedf;&#xfe84;" horiz-adv-x="1527" arabic-form="isolated" 
d="M82 313h614q64 0 121 17q54 16 94 47q35 30 56 77q20 44 20 115v1270h473v-340h-133v-919q0 -133 -40 -253q-41 -124 -122 -200q-96 -85 -226 -119q-134 -35 -302 -35h-514zM377 1495h340v-1133h-340v1133zM258 1731q0 151 77 216q76 64 208 64h129v-145h-113
q-47 0 -66 -19q-18 -18 -18 -30h262v-207h-479v121z" />
    <glyph glyph-name="uniFEF8" unicode="&#xfee0;&#xfe84;" horiz-adv-x="1531" arabic-form="final" 
d="M82 313h614q64 0 121 17q54 16 94 47q35 30 56 77q20 44 20 115v1270h473v-340h-133v-919q0 -102 -20 -181q77 -86 292 -86v-340q-123 0 -192 20q-67 19 -116 50q-47 29 -77 69q-28 37 -28 35q1 0 -0.5 -1t-8 -7t-12.5 -12q-96 -85 -226 -119q-134 -35 -302 -35h-514z
M377 1495h340v-1133h-340v1133zM258 1731q0 151 77 216q76 64 208 64h129v-145h-113q-47 0 -66 -19q-18 -18 -18 -30h262v-207h-479v121z" />
    <glyph glyph-name="uniFEF9" unicode="&#xfedf;&#xfe88;" horiz-adv-x="1527" arabic-form="isolated" 
d="M543 -532q-132 0 -208 64q-77 65 -77 216v121h479v-207h-262q0 -13 18 -31t66 -18h113v-145h-129zM82 313h614q64 0 121 17q54 16 94 47q35 30 56 77q20 44 20 115v1270h473v-340h-133v-919q0 -133 -40 -253q-41 -124 -122 -200q-96 -85 -226 -119q-134 -35 -302 -35
h-514zM377 1495h340v-1133h-340v1133z" />
    <glyph glyph-name="uniFEFA" unicode="&#xfee0;&#xfe88;" horiz-adv-x="1531" arabic-form="final" 
d="M82 313h614q64 0 121 17q54 16 94 47q35 30 56 77q20 44 20 115v1270h473v-340h-133v-919q0 -102 -20 -181q77 -86 292 -86v-340q-123 0 -192 20q-67 19 -116 50q-47 29 -77 69q-28 37 -28 35q1 0 -0.5 -1t-8 -7t-12.5 -12q-96 -85 -226 -119q-134 -35 -302 -35h-514z
M377 1495h340v-1133h-340v1133zM543 -553q-131 0 -208 65t-77 216v120h479v-206h-262q0 -13 18 -31q19 -19 66 -19h113v-145h-129z" />
    <glyph glyph-name="uniFEFB" unicode="&#xfedf;&#xfe8e;" horiz-adv-x="1527" arabic-form="isolated" 
d="M82 313h614q64 0 121 17q54 16 94 47q35 30 56 77q20 44 20 115v1270h473v-340h-133v-919q0 -133 -40 -253q-41 -124 -122 -200q-96 -85 -226 -119q-134 -35 -302 -35h-514zM377 1495h340v-1133h-340v1133z" />
    <glyph glyph-name="uniFEFC" unicode="&#xfee0;&#xfe8e;" horiz-adv-x="1531" arabic-form="final" 
d="M82 313h614q64 0 121 17q54 16 94 47q35 30 56 77q20 44 20 115v1270h473v-340h-133v-919q0 -102 -20 -181q77 -86 292 -86v-340q-123 0 -192 20q-67 19 -116 50q-47 29 -77 69q-28 37 -28 35q1 0 -0.5 -1t-8 -7t-12.5 -12q-96 -85 -226 -119q-134 -35 -302 -35h-514z
M377 1495h340v-1133h-340v1133z" />
    <glyph glyph-name="uni06440671" unicode="&#xfedf;&#xfb51;" horiz-adv-x="1472" 
d="M82 313h614q64 0 121 17q54 16 94 47q35 30 56 77q20 44 20 115v1270h473v-340h-133v-919q0 -133 -40 -253q-41 -124 -122 -200q-96 -85 -226 -119q-134 -35 -302 -35h-514zM377 1495h340v-1133h-340v1133zM231 1724h142q0 18 14 54q14 37 42 68q27 30 68 48q43 19 89 19
q114 0 186 -63t72 -185v-106h-613v165zM583 1767q-34 0 -49 -19q-16 -21 -16 -24h129q0 2 -15 23q-14 20 -49 20z" />
    <glyph glyph-name="uni06440671.fina" unicode="&#xfee0;&#xfb51;" horiz-adv-x="1527" 
d="M82 313h614q64 0 121 17q54 16 94 47q35 30 56 77q20 44 20 115v1270h473v-340h-133v-919q0 -102 -20 -181q77 -86 292 -86v-340q-123 0 -192 20q-67 19 -116 50q-47 29 -77 69q-28 37 -28 35q1 0 -0.5 -1t-8 -7t-12.5 -12q-96 -85 -226 -119q-134 -35 -302 -35h-514z
M377 1495h340v-1133h-340v1133zM231 1724h142q0 18 14 54q14 37 42 68q27 30 68 48q43 19 89 19q114 0 186 -63t72 -185v-106h-613v165zM583 1767q-34 0 -49 -19q-16 -21 -16 -24h129q0 2 -15 23q-14 20 -49 20z" />
    <glyph glyph-name="uni0621" unicode="&#x621;" horiz-adv-x="1112" arabic-form="isolated" 
d="M123 391q0 322 159 481q160 160 441 160h211v-340h-270q-90 0 -146 -63q-55 -62 -55 -183v-133h561v-340h-901v418z" />
    <glyph glyph-name="uni0622" unicode="&#x622;" horiz-adv-x="708" arabic-form="isolated" 
d="M248 1440h340v-1467h-340v1467zM117 1726h612v-186h-612v186z" />
    <glyph glyph-name="uni0623" unicode="&#x623;" horiz-adv-x="731" arabic-form="isolated" 
d="M270 1440h340v-1467h-340v1467zM199 1661q0 152 76 216q77 65 208 65h129v-146h-112q-49 0 -67 -18q-17 -17 -17 -31h262v-207h-479v121z" />
    <glyph glyph-name="uni0624" unicode="&#x624;" horiz-adv-x="1230" arabic-form="isolated" 
d="M1163 78q0 -124 -26 -222q-27 -101 -92 -177q-64 -75 -172 -115q-109 -41 -263 -41q-43 0 -79 3q-35 3 -70 9q-15 3 -72 14l-102 29l-25 346q113 -36 189 -49q69 -12 139 -12q52 0 99 5q43 5 69 19q28 15 42 41q16 28 17 45h-2q-154 0 -284 34q-131 34 -231 107t-157 188
t-57 276q0 142 55 252q56 113 153 190q99 79 230 119q135 41 291 41h350zM426 578q0 -66 24 -115q25 -51 63 -82q39 -32 96 -50t122 -18h94v527h-94q-58 0 -116 -20q-57 -20 -98 -53q-42 -35 -66 -82q-25 -50 -25 -107zM680 1460q0 151 77 216t208 65h149v-146h-133
q-49 0 -67 -18q-17 -17 -17 -57v-29h283v-207h-500v176z" />
    <glyph glyph-name="uni0625" unicode="&#x625;" horiz-adv-x="720" arabic-form="isolated" 
d="M483 -516q-132 0 -208 64t-76 216v121h479v-207h-262q0 -13 17 -30q19 -19 67 -19h112v-145h-129zM270 1688h340v-1715h-340v1715z" />
    <glyph glyph-name="uni0626" unicode="&#x626;" horiz-adv-x="2217" arabic-form="isolated" 
d="M57 1079q0 151 77 216t208 65h150v-146h-134q-48 0 -66 -18t-18 -57v-29h283v-207h-500v176zM821 -283q-86 0 -171 10q-76 9 -142 30q-63 20 -121 56q-53 33 -104 81q-83 77 -114 194q-32 120 -32 248v475h340v-440q0 -88 18 -148t58 -94q50 -41 124 -56q80 -16 165 -16
h272v551q0 150 44 265t142 192q77 60 181 87q109 28 227 28h414v-1207h-340v867h-105q-47 0 -88 -11q-38 -10 -68 -34q-29 -23 -48 -72t-19 -96v-910h-633z" />
    <glyph glyph-name="uni0627" unicode="&#x627;" horiz-adv-x="706" arabic-form="isolated" 
d="M240 1688h340v-1715h-340v1715z" />
    <glyph glyph-name="uni0628" unicode="&#x628;" horiz-adv-x="1767" arabic-form="isolated" 
d="M762 -27q-86 0 -171 10q-76 9 -142 30q-63 20 -121 56q-56 35 -105 81q-82 76 -113 194q-32 120 -32 248v414h340v-379q0 -91 17 -148q18 -59 59 -94q51 -42 123 -56q80 -16 165 -16h547v867h340v-1207h-907zM967 -463q-77 0 -136 46t-59 134q0 80 56 129q58 50 139 50
q80 0 138 -50q56 -49 56 -129q0 -88 -59 -134t-135 -46z" />
    <glyph glyph-name="uni0629" unicode="&#x629;" horiz-adv-x="1255" arabic-form="isolated" 
d="M813 -27q-158 0 -290 36t-229 112q-99 77 -153 189q-55 113 -55 265q0 132 49 242q49 111 144 192t229 126q135 45 305 45h14v102h340v-1309h-354zM827 313v527h-84q-56 0 -116 -19t-103 -52q-44 -34 -71 -82t-27 -112q0 -63 25 -113q24 -48 66 -81q40 -32 97 -50
q56 -18 115 -18h98zM969 1380q-75 0 -131 45t-56 129q0 78 55 125t132 47q80 0 133 -47t53 -125q0 -84 -55 -129q-56 -45 -131 -45zM524 1380q-76 0 -131 45t-55 129q0 78 54 125q55 47 132 47t132 -47t55 -125q0 -84 -56 -129q-55 -45 -131 -45z" />
    <glyph glyph-name="uni062A" unicode="&#x62a;" horiz-adv-x="1767" arabic-form="isolated" 
d="M762 -27q-86 0 -171 10q-76 9 -142 30q-63 20 -121 56q-56 35 -105 81q-82 76 -113 194q-32 120 -32 248v414h340v-379q0 -91 17 -148q18 -59 59 -94q51 -42 123 -56q80 -16 165 -16h547v867h340v-1207h-907zM662 1192q-76 0 -132 45q-55 45 -55 129q0 78 54 125
q55 47 133 47q77 0 132 -47q54 -47 54 -125q0 -84 -55 -129t-131 -45zM1106 1192q-76 0 -131 45t-55 129q0 78 54 125q55 47 132 47q80 0 133 -47t53 -125q0 -84 -55 -129t-131 -45z" />
    <glyph glyph-name="uni062B" unicode="&#x62b;" horiz-adv-x="1767" arabic-form="isolated" 
d="M762 -27q-86 0 -171 10q-76 9 -142 30q-63 20 -121 56q-56 35 -105 81q-82 76 -113 194q-32 120 -32 248v414h340v-379q0 -91 17 -148q18 -59 59 -94q51 -42 123 -56q80 -16 165 -16h547v867h340v-1207h-907zM666 1184q-70 0 -125 43q-56 44 -56 127q0 75 53 122
q52 46 128 46q77 0 129 -46q53 -47 53 -122q0 -84 -56 -127t-126 -43zM883 1509q-62 0 -113 39t-51 113q0 67 47 109t117 42q69 0 116 -42q48 -43 48 -109q0 -73 -51 -113q-49 -39 -113 -39zM1100 1184q-70 0 -125 43t-55 127q0 76 52 122t128 46q78 0 130 -46t52 -122
q0 -84 -55 -127t-127 -43z" />
    <glyph glyph-name="uni062C" unicode="&#x62c;" horiz-adv-x="1224" arabic-form="isolated" 
d="M207 -483q-92 130 -137 261q-45 132 -45 302q0 119 22 233h760q10 41 19 124q10 88 10 143q0 56 -22 122q-22 64 -71 105q-80 72 -223 72q-74 0 -142 -19q-64 -18 -165 -84l-143 299q125 72 238 108q114 36 247 36t240 -43q108 -44 186 -123q87 -87 139 -210
q54 -128 54 -286q0 -80 -11 -165q-13 -99 -24 -155q-15 -75 -33 -138q-6 -21 -18.5 -63t-18.5 -63h-700v-4q0 -72 21 -144q20 -68 85 -183zM748 -463q-77 0 -136 46t-59 134q0 80 56 129q58 50 139 50q80 0 138 -50q56 -49 56 -129q0 -88 -59 -134t-135 -46z" />
    <glyph glyph-name="uni062D" unicode="&#x62d;" horiz-adv-x="1224" arabic-form="isolated" 
d="M207 -483q-92 130 -137 261q-45 132 -45 302q0 119 22 233h760q10 41 19 124q10 88 10 143q0 56 -22 122q-22 64 -71 105q-80 72 -223 72q-74 0 -142 -19q-64 -18 -165 -84l-143 299q125 72 238 108q114 36 247 36t240 -43q108 -44 186 -123q87 -87 139 -210
q54 -128 54 -286q0 -80 -11 -165q-13 -99 -24 -155q-15 -75 -33 -138q-6 -21 -18.5 -63t-18.5 -63h-700v-4q0 -72 21 -144q20 -68 85 -183z" />
    <glyph glyph-name="uni062E" unicode="&#x62e;" horiz-adv-x="1224" arabic-form="isolated" 
d="M502 1325q-76 0 -135 46q-60 47 -60 134q0 79 57 129q56 49 138 49t138 -49t56 -129q0 -88 -59 -134t-135 -46zM207 -483q-92 130 -137 261q-45 132 -45 302q0 119 22 233h760q10 41 19 124q10 88 10 143q0 56 -22 122q-22 64 -71 105q-80 72 -223 72q-74 0 -142 -19
q-64 -18 -165 -84l-143 299q125 72 238 108q114 36 247 36t240 -43q108 -44 186 -123q87 -87 139 -210q54 -128 54 -286q0 -80 -11 -165q-13 -99 -24 -155q-15 -75 -33 -138q-6 -21 -18.5 -63t-18.5 -63h-700v-4q0 -72 21 -144q20 -68 85 -183z" />
    <glyph glyph-name="uni062F" unicode="&#x62f;" horiz-adv-x="1177" arabic-form="isolated" 
d="M45 313h715v287q0 57 -12 99t-37 73q-23 31 -64 49q-43 19 -90 19h-149v340h120q142 0 253 -38q108 -37 192 -124q72 -76 99 -188q28 -115 28 -242v-615h-1055v340z" />
    <glyph glyph-name="uni0630" unicode="&#x630;" horiz-adv-x="1177" arabic-form="isolated" 
d="M586 1278q-76 0 -135 46q-60 46 -60 134q0 80 56 129t139 49q82 0 138 -49t56 -129q0 -88 -59 -134t-135 -46zM45 313h715v287q0 57 -12 99t-37 73q-23 31 -64 49q-43 19 -90 19h-149v340h120q142 0 253 -38q108 -37 192 -124q72 -76 99 -188q28 -115 28 -242v-615h-1055
v340z" />
    <glyph glyph-name="uni0631" unicode="&#x631;" horiz-adv-x="759" arabic-form="isolated" 
d="M227 -477q-39 0 -84 5q-44 5 -86 19l-24 342q69 -17 103 -22q27 -4 61 -4q72 0 99 38q28 39 28 136v1143h340v-1102q0 -141 -24 -246q-24 -104 -77 -174q-52 -69 -137 -102q-84 -33 -199 -33z" />
    <glyph glyph-name="uni0632" unicode="&#x632;" horiz-adv-x="776" arabic-form="isolated" 
d="M227 -477q-39 0 -84 5q-44 5 -86 19l-24 342q69 -17 103 -22q27 -4 61 -4q72 0 99 38q28 39 28 136v1143h340v-1102q0 -141 -24 -246q-24 -104 -77 -174q-52 -69 -137 -102q-84 -33 -199 -33zM485 1300q-74 0 -135 47q-59 46 -59 134q0 80 56 129t138 49q83 0 139 -49
t56 -129q0 -88 -59 -134q-61 -47 -136 -47z" />
    <glyph glyph-name="uni0633" unicode="&#x633;" horiz-adv-x="2912" arabic-form="isolated" 
d="M2277 -47q-61 0 -121 9q-56 8 -117 34q-57 24 -106 64t-67 73q-55 -59 -169 -110q-112 -50 -235 -50h-184v-256h-498q-86 0 -171 10q-76 9 -142 30q-63 20 -121 56q-53 33 -104 81q-83 77 -114 194q-32 120 -32 248v696h340v-661q0 -88 18 -148t58 -94q50 -41 124 -56
q80 -16 165 -16h137v1123h340v-867h184q39 0 85 11q47 11 80 36q36 27 57 70q22 46 22 113v534h340v-534q5 -131 64 -190q60 -60 167 -60q111 0 165 61q55 63 55 170v799h337v-762q0 -308 -138 -458t-419 -150z" />
    <glyph glyph-name="uni0634" unicode="&#x634;" horiz-adv-x="2912" arabic-form="isolated" 
d="M2277 -47q-61 0 -121 9q-56 8 -117 34q-57 24 -106 64t-67 73q-55 -59 -169 -110q-112 -50 -235 -50h-184v-256h-498q-86 0 -171 10q-76 9 -142 30q-63 20 -121 56q-53 33 -104 81q-83 77 -114 194q-32 120 -32 248v696h340v-661q0 -88 18 -148t58 -94q50 -41 124 -56
q80 -16 165 -16h137v1123h340v-867h184q39 0 85 11q47 11 80 36q36 27 57 70q22 46 22 113v534h340v-522q0 -138 62 -200t169 -62q111 0 165 61q55 63 55 170v799h337v-762q0 -308 -138 -458t-419 -150zM2095 1313q-70 0 -125 43t-55 127q0 76 52 122t128 46q78 0 130 -46
t52 -122q0 -84 -55 -127t-127 -43zM1661 1313q-70 0 -125 43t-55 127q0 76 52 122t128 46q77 0 129 -46q53 -47 53 -122q0 -84 -56 -127t-126 -43zM1878 1638q-62 0 -113 39t-51 113q0 68 47 110t117 42q71 0 117 -42q47 -42 47 -110q0 -74 -50 -113q-49 -39 -114 -39z" />
    <glyph glyph-name="uni0635" unicode="&#x635;" horiz-adv-x="2535" arabic-form="isolated" 
d="M782 -283q-86 0 -171 10q-76 9 -142 30q-63 20 -121 56q-53 33 -104 81q-83 77 -114 194q-32 120 -32 248v696h340v-661q0 -88 18 -148t58 -94q50 -41 124 -56q80 -16 165 -16h137v1162h340v-142h606q142 0 253 -38q108 -37 192 -124q72 -77 99 -187q28 -115 28 -243
v-512h-1178v-256h-498zM1280 739v-426h838v185q0 54 -13 99q-12 42 -37 73q-23 31 -63 50q-39 19 -90 19h-635z" />
    <glyph glyph-name="uni0636" unicode="&#x636;" horiz-adv-x="2535" arabic-form="isolated" 
d="M782 -283q-86 0 -171 10q-76 9 -142 30q-63 20 -121 56q-53 33 -104 81q-83 77 -114 194q-32 120 -32 248v696h340v-661q0 -88 18 -148t58 -94q50 -41 124 -56q80 -16 165 -16h137v1162h340v-142h606q142 0 253 -38q108 -37 192 -124q72 -77 99 -187q28 -115 28 -243
v-512h-1178v-256h-498zM1280 739v-426h838v185q0 54 -13 99q-12 42 -37 73q-23 31 -63 50q-39 19 -90 19h-635zM1683 1208q-76 0 -135 46t-59 135q0 80 56 129t138 49q83 0 139 -49t56 -129q0 -89 -59 -135t-136 -46z" />
    <glyph glyph-name="uni0637" unicode="&#x637;" horiz-adv-x="1800" arabic-form="isolated" 
d="M10 313h201v1375h340v-611h598q142 0 253 -38q107 -36 191 -124q74 -78 100 -187q27 -111 27 -243v-512h-1710v340zM551 739v-426h829v185q0 57 -12 99t-37 73q-23 31 -63 50q-39 19 -90 19h-627z" />
    <glyph glyph-name="uni0638" unicode="&#x638;" horiz-adv-x="1800" arabic-form="isolated" 
d="M10 313h201v1375h340v-611h598q142 0 253 -38q107 -36 191 -124q74 -78 100 -187q27 -111 27 -243v-512h-1710v340zM551 739v-426h829v185q0 57 -12 99t-37 73q-23 31 -63 50q-39 19 -90 19h-627zM967 1208q-77 0 -136 46t-59 135q0 80 56 129t139 49q82 0 138 -49
t56 -129q0 -89 -59 -135t-135 -46z" />
    <glyph glyph-name="uni0639" unicode="&#x639;" horiz-adv-x="1249" arabic-form="isolated" 
d="M219 -483q-92 130 -137 261q-45 132 -45 302q0 119 22 233h134q-14 30 -43 124q-27 89 -27 192q0 153 60 269t155 194q78 64 175 95q101 32 214 32q115 0 225 -31q106 -30 234 -96l-115 -312q-95 54 -166 76q-80 25 -143 25q-129 0 -207 -64q-49 -43 -70 -95
q-20 -50 -20 -116q0 -94 27 -169t67 -124h664v-340h-842v-4q0 -72 21 -144q20 -68 85 -183z" />
    <glyph glyph-name="uni063A" unicode="&#x63a;" horiz-adv-x="1249" arabic-form="isolated" 
d="M219 -483q-92 130 -137 261q-45 132 -45 302q0 119 22 233h134q-14 30 -43 124q-27 89 -27 192q0 153 60 269t155 194q78 64 175 95q101 32 214 32q115 0 225 -31q106 -30 234 -96l-115 -312q-95 54 -166 76q-80 25 -143 25q-129 0 -207 -64q-49 -43 -70 -95
q-20 -50 -20 -116q0 -94 27 -169t67 -124h664v-340h-842v-4q0 -72 21 -144q20 -68 85 -183zM700 1337q-76 0 -135 46t-59 135q0 80 56 129t138 49q83 0 139 -49t56 -129q0 -89 -59 -135t-136 -46z" />
    <glyph glyph-name="uni0641" unicode="&#x641;" horiz-adv-x="2166" arabic-form="isolated" 
d="M762 -27q-86 0 -171 10q-76 9 -142 30q-63 20 -121 56q-56 35 -105 81q-82 76 -113 194q-32 120 -32 248v414h340v-379q0 -91 17 -148q18 -59 59 -94q51 -42 123 -56q80 -16 165 -16h281q-18 23 -44 97q-28 79 -28 168q0 142 52 252t148 191q92 77 226 119q129 40 289 40
h365v-1207h-1309zM1331 578q0 -88 39 -156q41 -70 98 -109h263v527h-95q-56 0 -113 -18q-59 -19 -99 -50q-42 -33 -67 -82q-26 -50 -26 -112zM1649 1300q-75 0 -136 47q-59 46 -59 134q0 80 56 129t139 49q82 0 138 -49t56 -129q0 -88 -59 -134q-61 -47 -135 -47z" />
    <glyph glyph-name="uni0642" unicode="&#x642;" horiz-adv-x="1796" arabic-form="isolated" 
d="M764 -477q-94 0 -171 9q-71 8 -142 31q-67 21 -121 55q-56 34 -105 81q-81 75 -113 195t-32 247v475h340v-440q0 -90 17 -147q18 -60 59 -95q50 -41 124 -56q75 -15 164 -15h570v110h-11q-153 0 -283 34q-132 35 -232 107q-99 72 -156 188q-58 118 -58 276q0 140 56 252
q57 114 152 190q99 79 231 119q135 41 290 41h351v-1657h-930zM954 578q0 -66 24 -115q25 -51 63 -82q39 -32 97 -50q57 -18 122 -18h94v527h-94q-58 0 -116 -20q-57 -20 -98 -53q-44 -36 -67 -82q-25 -50 -25 -107zM1493 1300q-74 0 -131 46q-55 45 -55 129q0 77 54 124
q56 48 132 48q79 0 133 -48q53 -47 53 -124q0 -84 -55 -129q-57 -46 -131 -46zM1049 1300q-74 0 -131 46q-56 45 -56 129q0 77 54 124q56 48 133 48q76 0 132 -48q54 -47 54 -124q0 -84 -55 -129q-57 -46 -131 -46z" />
    <glyph glyph-name="uni0643" unicode="&#x643;" horiz-adv-x="1921" arabic-form="isolated" 
d="M840 -27q-86 0 -171 10q-77 9 -143 30q-61 19 -120 56q-56 35 -105 81q-83 77 -114 194t-31 248v414h340v-379q0 -91 17 -148q18 -60 58 -94q50 -41 124 -56q80 -16 165 -16h547v1375h340v-1715h-907zM719 864q0 151 77 216t208 65h149v-146h-133q-49 0 -67 -18
q-17 -17 -17 -57v-29h283v-207h-500v176z" />
    <glyph glyph-name="uni0644" unicode="&#x644;" horiz-adv-x="1458" arabic-form="isolated" 
d="M770 -283q-86 0 -171 10q-76 9 -142 30q-63 20 -121 56q-56 35 -105 81q-82 76 -113 194q-32 120 -32 248v696h340v-661q0 -91 17 -148q18 -59 59 -94q50 -41 124 -56q80 -16 165 -16h137v1631h475v-340h-135v-1631h-498z" />
    <glyph glyph-name="uni0645" unicode="&#x645;" horiz-adv-x="1871" arabic-form="isolated" 
d="M1171 -252q-107 0 -203 34q-99 35 -177 94q-81 61 -140 142q-60 82 -82 158q-82 -6 -129 -70q-31 -42 -43 -106q-12 -66 -12 -143v-334h-340v338q0 162 38 285q38 122 120 212q34 38 80 69q43 29 93 49q44 18 98 31q45 11 71 11q17 96 71 193q56 101 140 173t190 114
t225 42q133 0 253 -50q118 -50 207 -138q90 -90 139 -207q51 -122 51 -258t-53 -254q-52 -117 -142 -202q-88 -84 -207 -134q-116 -49 -248 -49zM1171 88q63 0 121 23q59 23 100 63q40 39 65 96q24 55 24 121q0 65 -23 123t-63 98t-99 65q-55 23 -125 23q-65 0 -119 -24
q-52 -23 -95 -66q-39 -39 -62 -98q-23 -58 -23 -121q0 -62 23 -120q22 -56 62 -96q38 -38 96 -63q55 -24 118 -24z" />
    <glyph glyph-name="uni0646" unicode="&#x646;" horiz-adv-x="1366" arabic-form="isolated" 
d="M770 -283q-86 0 -171 10q-76 9 -142 30q-63 20 -121 56q-56 35 -105 81q-82 76 -113 194q-32 120 -32 248v696h340v-661q0 -91 17 -148q18 -59 59 -94q50 -41 124 -56q80 -16 165 -16h137v975h340v-1315h-498zM686 1161q-76 0 -135 46t-59 134q0 80 56 129q58 50 138 50
t138 -50q57 -50 57 -129q0 -87 -60 -134q-59 -46 -135 -46z" />
    <glyph glyph-name="uni0648" unicode="&#x648;" horiz-adv-x="1261" arabic-form="isolated" 
d="M1163 78q0 -124 -26 -222q-27 -101 -92 -177q-64 -75 -172 -115q-109 -41 -263 -41q-43 0 -79 3q-35 3 -70 9q-15 3 -72 14l-102 29l-25 346q113 -36 189 -49q69 -12 139 -12q52 0 99 5q43 5 69 19q28 15 42 41q16 28 17 45h-2q-154 0 -284 34q-131 34 -231 107t-157 188
t-57 276q0 142 55 252q56 113 153 190q99 79 230 119q135 41 291 41h350zM426 578q0 -66 24 -115q25 -51 63 -82q39 -32 96 -50t122 -18h94v527h-94q-58 0 -116 -20q-57 -20 -98 -53q-42 -35 -66 -82q-25 -50 -25 -107z" />
    <glyph glyph-name="uni0649" unicode="&#x649;" horiz-adv-x="2156" arabic-form="isolated" 
d="M760 -283q-86 0 -171 10q-77 9 -143 30q-61 19 -120 56q-56 35 -105 81q-82 76 -113 194q-32 120 -32 248v475h340v-440q0 -91 17 -148q18 -59 59 -94q51 -42 123 -56q80 -16 165 -16h273v551q0 150 44 265t142 192q77 61 180 87q109 28 228 28h413v-1207h-340v867h-104
q-47 0 -88 -11q-40 -11 -69 -34t-48 -72q-18 -47 -18 -96v-910h-633z" />
    <glyph glyph-name="uni064A" unicode="&#x64a;" horiz-adv-x="2015" arabic-form="isolated" 
d="M631 -283q-104 0 -189 8q-86 8 -148 23q-70 17 -130 43q-66 29 -154 78l137 301q126 -71 209 -91q90 -22 183 -22h372v551q0 150 44 265q43 113 143 192q77 61 180 87q109 28 227 28h414v-1207h-340v867h-104q-48 0 -89 -11q-38 -10 -68 -34q-29 -23 -48 -72t-19 -96
v-910h-620zM588 164q-76 0 -135 46q-60 47 -60 134q0 80 57 129q56 49 138 49t138 -49t56 -129q0 -88 -59 -134t-135 -46zM588 598q-76 0 -135 46q-60 46 -60 134q0 80 57 129q56 49 138 49t138 -49t56 -129q0 -88 -59 -134t-135 -46z" />
    <glyph glyph-name="uni066E.init" unicode="&#x66e;" horiz-adv-x="663" 
d="M-27 313h254v867h340v-1207h-594v340z" />
    <glyph glyph-name="uni066E.medi" unicode="&#x66e;" horiz-adv-x="720" 
d="M-27 313h254v867h340v-867h219v-340h-813v340z" />
    <glyph glyph-name="uni066E.fina" unicode="&#x66e;" horiz-adv-x="1824" 
d="M762 -27q-86 0 -171 10q-76 9 -142 30q-63 20 -121 56q-56 35 -105 81q-82 76 -113 194q-32 120 -32 248v414h340v-379q0 -91 17 -148q18 -59 59 -94q51 -42 123 -56q80 -16 165 -16h547v867h340v-867h221v-340h-1128z" />
    <glyph glyph-name="uni066F.init" unicode="&#x66f;" horiz-adv-x="1294" 
d="M-27 313h248q-18 23 -44 97q-27 76 -27 168q0 142 52 252q53 112 147 191q92 77 226 119q129 40 289 40h365v-1207h-1256v340zM489 578q0 -88 39 -156q40 -69 99 -109h262v527h-94q-57 0 -114 -18t-98 -50q-43 -34 -68 -82q-26 -50 -26 -112z" />
    <glyph glyph-name="uni066F.medi" unicode="&#x66f;" horiz-adv-x="1351" 
d="M-27 313h248q-18 23 -44 97q-27 76 -27 168q0 142 52 252q53 112 147 191q92 77 226 119q129 40 289 40h365v-867h190v-340h-1446v340zM489 578q0 -88 39 -156q40 -69 99 -109h262v527h-94q-57 0 -114 -18t-98 -50q-43 -34 -68 -82q-26 -50 -26 -112z" />
    <glyph glyph-name="uni066F.fina" unicode="&#x66f;" horiz-adv-x="1849" 
d="M764 -477q-94 0 -171 9q-71 8 -142 31q-67 21 -121 55q-56 34 -105 81q-81 75 -113 195t-32 247v475h340v-440q0 -90 17 -147q18 -60 59 -95q50 -41 124 -56q75 -15 164 -15h570v110h-11q-153 0 -283 34q-132 35 -232 107q-99 72 -156 188q-58 118 -58 276q0 140 56 252
q57 114 152 190q99 79 231 119q135 41 290 41h351v-867h221v-340h-221v-450h-930zM954 578q0 -66 24 -115q25 -51 63 -82q39 -32 97 -50q57 -18 122 -18h94v527h-94q-58 0 -116 -20q-57 -20 -98 -53q-44 -36 -67 -82q-25 -50 -25 -107z" />
    <glyph glyph-name="uni0671" unicode="&#x671;" horiz-adv-x="702" arabic-form="isolated" 
d="M248 1440h340v-1467h-340v1467zM117 1686h141q0 17 14 53q14 37 42 68q27 30 68 48q43 19 89 19q114 0 186 -63t72 -185v-106h-612v166zM468 1729q-34 0 -49 -20q-16 -21 -16 -23h129q0 1 -15 22t-49 21z" />
    <glyph glyph-name="uni0679" unicode="&#x679;" horiz-adv-x="1632" arabic-form="isolated" 
d="M762 -27q-86 0 -171 10q-76 9 -142 30q-63 20 -121 56q-56 35 -105 81q-82 76 -113 194q-32 120 -32 248v414h340v-379q0 -91 17 -148q18 -59 59 -94q51 -42 123 -56q80 -16 165 -16h547v867h340v-1207h-907zM776 1442h78q114 0 186 -63t72 -185v-107h-612v166h102v303
h174v-114zM776 1296v-43h139q0 2 -15 23q-14 20 -44 20h-80z" />
    <glyph glyph-name="uni067E" unicode="&#x67e;" horiz-adv-x="1767" arabic-form="isolated" 
d="M762 -27q-86 0 -171 10q-76 9 -142 30q-63 20 -121 56q-56 35 -105 81q-82 76 -113 194q-32 120 -32 248v414h340v-379q0 -91 17 -148q18 -59 59 -94q51 -42 123 -56q80 -16 165 -16h547v867h340v-1207h-907zM782 -449q-70 0 -125 43t-55 127q0 74 52 120t128 46
q77 0 129 -46q54 -48 54 -120q0 -83 -57 -127q-56 -43 -126 -43zM999 -725q-61 0 -112 39t-51 113q0 67 47 109t116 42q71 0 117 -42q47 -42 47 -109q0 -74 -50 -113q-49 -39 -114 -39zM1217 -449q-70 0 -125 43q-56 44 -56 127q0 73 53 120q52 46 128 46q78 0 130 -46
t52 -120q0 -83 -56 -127q-55 -43 -126 -43z" />
    <glyph glyph-name="uni0686" unicode="&#x686;" horiz-adv-x="1132" arabic-form="isolated" 
d="M51 -27q-12 27 -18 58q-4 18 -6 40q-2 28 -2 46q0 36 1 51q2 22 3 42q1 19 6 40q6 27 12 63h760q10 41 19 124q10 88 10 143q0 56 -22 122q-22 64 -71 105q-80 72 -223 72q-74 0 -142 -19q-64 -18 -165 -84l-143 299q125 72 238 108q114 36 247 36t240 -43
q108 -44 186 -123q87 -87 139 -210q54 -128 54 -286q0 -80 -11 -165q-13 -99 -24 -155q-15 -75 -33 -138q-6 -21 -18.5 -63t-18.5 -63h-1018zM354 -360q-70 0 -125 43t-55 127q0 73 52 119t128 46q77 0 129 -46q54 -48 54 -119q0 -84 -57 -127q-56 -43 -126 -43zM571 -637
q-61 0 -112 39t-51 113q0 67 47 109t116 42q71 0 117 -42q47 -42 47 -109q0 -74 -50 -113t-114 -39zM788 -360q-69 0 -124 43q-56 44 -56 127q0 73 52 119t128 46q79 0 131 -46t52 -119q0 -83 -56 -127q-55 -43 -127 -43z" />
    <glyph glyph-name="uni0688" unicode="&#x688;" horiz-adv-x="1091" arabic-form="isolated" 
d="M45 313h715v287q0 57 -12 99t-37 73q-23 31 -64 49q-43 19 -90 19h-149v340h120q142 0 253 -38q108 -37 192 -124q72 -76 99 -188q28 -115 28 -242v-615h-1055v340zM516 1649h78q114 0 186 -63t72 -185v-107h-612v166h102v303h174v-114zM516 1503v-43h139q0 2 -15 23
q-14 20 -44 20h-80z" />
    <glyph glyph-name="uni0691" unicode="&#x691;" horiz-adv-x="755" arabic-form="isolated" 
d="M227 -477q-39 0 -84 5q-44 5 -86 19l-24 342q69 -17 103 -22q27 -4 61 -4q72 0 99 38q28 39 28 136v1143h340v-1102q0 -141 -24 -246q-24 -104 -77 -174q-52 -69 -137 -102q-84 -33 -199 -33zM467 1649h78q114 0 186 -63t72 -185v-107h-613v166h103v303h174v-114z
M467 1503v-43h139q0 2 -15 23q-14 20 -44 20h-80z" />
    <glyph glyph-name="uni0698" unicode="&#x698;" horiz-adv-x="774" arabic-form="isolated" 
d="M229 -477q-39 0 -84 5q-43 5 -86 19l-24 342q69 -17 103 -22q27 -4 61 -4q72 0 99 38q28 39 28 136v1143h340v-1102q0 -141 -24 -246q-24 -104 -77 -174q-52 -69 -137 -102q-84 -33 -199 -33zM281 1313q-70 0 -125 43q-56 44 -56 127q0 75 53 122q52 46 128 46
q77 0 129 -46q53 -47 53 -122q0 -84 -56 -127t-126 -43zM498 1638q-62 0 -113 39t-51 113q0 68 47 110q46 42 117 42q70 0 116 -42q48 -43 48 -110q0 -73 -51 -113q-49 -39 -113 -39zM715 1313q-70 0 -125 43t-55 127q0 76 52 122t128 46q78 0 130 -46t52 -122
q0 -84 -55 -127t-127 -43z" />
    <glyph glyph-name="uni06A1.init" unicode="&#x6a1;" horiz-adv-x="1294" 
d="M-27 313h248q-18 23 -44 97q-27 76 -27 168q0 142 52 252q53 112 147 191q92 77 226 119q129 40 289 40h365v-1207h-1256v340zM489 578q0 -88 39 -156q40 -69 99 -109h262v527h-94q-57 0 -114 -18t-98 -50q-43 -34 -68 -82q-26 -50 -26 -112z" />
    <glyph glyph-name="uni06A1.medi" unicode="&#x6a1;" horiz-adv-x="1351" 
d="M-27 313h248q-18 23 -44 97q-27 76 -27 168q0 142 52 252q53 112 147 191q92 77 226 119q129 40 289 40h365v-867h190v-340h-1446v340zM489 578q0 -88 39 -156q40 -69 99 -109h262v527h-94q-57 0 -114 -18t-98 -50q-43 -34 -68 -82q-26 -50 -26 -112z" />
    <glyph glyph-name="uni06A1.fina" unicode="&#x6a1;" horiz-adv-x="2351" 
d="M838 -27q-86 0 -171 10q-77 9 -143 30q-63 20 -121 56q-53 33 -104 81q-83 77 -114 194t-31 248v414h340v-379q0 -91 17 -148q18 -60 58 -94q50 -41 124 -56q80 -16 165 -16h281q-18 23 -44 97q-28 79 -28 168q0 142 52 252t148 191q92 77 226 119q129 40 289 40h364
v-867h221v-340h-1529zM1407 578q0 -88 39 -156q41 -70 98 -109h262v527h-94q-57 0 -114 -18t-98 -50q-42 -33 -67 -82q-26 -50 -26 -112z" />
    <glyph glyph-name="uni06A4" unicode="&#x6a4;" horiz-adv-x="2166" arabic-form="isolated" 
d="M762 -27q-86 0 -171 10q-76 9 -142 30q-63 20 -121 56q-56 35 -105 81q-82 76 -113 194q-32 120 -32 248v414h340v-379q0 -91 17 -148q18 -59 59 -94q51 -42 123 -56q80 -16 165 -16h281q-18 23 -44 97q-28 79 -28 168q0 142 52 252t148 191q92 77 226 119q129 40 289 40
h365v-1207h-1309zM1331 578q0 -88 39 -156q41 -70 98 -109h263v527h-95q-56 0 -113 -18q-59 -19 -99 -50q-42 -33 -67 -82q-26 -50 -26 -112zM1868 1313q-70 0 -125 43t-55 127q0 76 52 122t128 46q78 0 130 -46t52 -122q0 -84 -55 -127t-127 -43zM1434 1313q-70 0 -125 43
q-56 44 -56 127q0 75 53 122q52 46 128 46q77 0 129 -46q53 -47 53 -122q0 -84 -56 -127t-126 -43zM1651 1638q-62 0 -113 39t-51 113q0 68 47 110q46 42 117 42q69 0 116 -42q48 -43 48 -110q0 -73 -51 -113q-50 -39 -113 -39z" />
    <glyph glyph-name="uni06A9" unicode="&#x6a9;" horiz-adv-x="2119" arabic-form="isolated" 
d="M762 -27q-188 0 -311 46q-127 47 -218 137q-80 78 -117 193q-38 117 -38 247v412h340v-377q0 -167 86 -236q48 -39 122 -61q72 -21 158 -21h914v211q0 50 -9 87q-9 36 -34 68q-22 28 -66 49q-42 20 -86 20h-643q-51 67 -81 140q-29 71 -34 179l324 621h406l-334 -601h321
q140 0 238 -36q104 -38 180 -113q158 -150 158 -446v-519h-1276z" />
    <glyph glyph-name="uni06AF" unicode="&#x6af;" horiz-adv-x="1976" arabic-form="isolated" 
d="M678 1034h-234l326 656h234zM762 -27q-188 0 -311 46q-127 47 -218 137q-80 78 -117 193q-38 117 -38 247v412h340v-377q0 -167 86 -236q48 -39 122 -61q72 -21 158 -21h914v211q0 50 -9 87q-9 36 -34 68q-22 28 -66 49q-42 20 -86 20h-643q-51 67 -81 140
q-29 71 -34 179l324 621h406l-334 -601h321q140 0 238 -36q104 -38 180 -113q158 -150 158 -446v-519h-1276z" />
    <glyph glyph-name="uni06BA" unicode="&#x6ba;" horiz-adv-x="1366" arabic-form="isolated" 
d="M770 -283q-86 0 -171 10q-76 9 -142 30q-63 20 -121 56q-56 35 -105 81q-82 76 -113 194q-32 120 -32 248v696h340v-661q0 -91 17 -148q18 -59 59 -94q50 -41 124 -56q80 -16 165 -16h137v975h340v-1315h-498z" />
    <glyph glyph-name="uni06BE" unicode="&#x6be;" horiz-adv-x="1742" arabic-form="isolated" 
d="M147 313h228q0 -1 -6 39q-7 47 -7 82q0 240 120 370t331 130q98 0 182 -36q87 -37 145 -101q59 -65 94 -158q34 -90 34 -203q0 -36 -5 -83q-1 -8 -2 -15t-1.5 -11.5t-1 -8t-0.5 -4.5l-1 -1h132q2 11 8 79q4 43 4 89q0 115 -25 210q-23 86 -78 173q-67 100 -173 149
q-109 50 -275 50q-126 0 -234 -42q-115 -45 -215 -101l-114 311q159 81 320 128q157 46 317 46q115 0 214 -26t177 -70q77 -44 142 -107q60 -59 112 -131q87 -127 130 -289q42 -159 42 -350q0 -56 -7 -111q-8 -59 -18 -117q-13 -75 -24 -114q-19 -70 -35 -117h-1510v340z
M672 440q0 -39 5 -82t5 -45h266q0 2 5 45t5 82q0 90 -37 137q-37 48 -108 48t-106 -47t-35 -138z" />
    <glyph glyph-name="uni06C0" unicode="&#x6c0;" horiz-adv-x="1171" arabic-form="isolated" 
d="M813 -27q-158 0 -290 36t-229 112q-99 77 -153 189q-55 113 -55 265q0 132 49 242q49 111 144 192t229 126q135 45 305 45h14v102h340v-1309h-354zM827 313v527h-84q-56 0 -116 -19t-103 -52q-44 -34 -71 -82t-27 -112q0 -63 25 -113q24 -48 66 -81q40 -32 97 -50
q56 -18 115 -18h98zM666 1511q0 152 76 216q77 65 208 65h150v-145h-133q-48 0 -67 -19q-17 -17 -17 -57v-29h282v-207h-499v176z" />
    <glyph glyph-name="uni06C1" unicode="&#x6c1;" horiz-adv-x="1171" arabic-form="isolated" 
d="M813 -27q-158 0 -290 36t-229 112q-99 77 -153 189q-55 113 -55 265q0 132 49 242q49 111 144 192t229 126q135 45 305 45h14v102h340v-1309h-354zM827 313v527h-84q-56 0 -116 -19t-103 -52q-44 -34 -71 -82t-27 -112q0 -63 25 -113q24 -48 66 -81q40 -32 97 -50
q56 -18 115 -18h98z" />
    <glyph glyph-name="uni06CC" unicode="&#x6cc;" horiz-adv-x="2138" arabic-form="isolated" 
d="M877 -283q-86 0 -171 10q-77 9 -143 30q-63 20 -121 56q-53 33 -104 81q-83 77 -114 194t-31 248v475h339v-440q0 -88 18 -148t58 -94q50 -41 124 -56q80 -16 165 -16h272v551q0 150 44 265q43 113 143 192q77 61 180 87q109 28 227 28h414v-1207h-340v867h-104
q-47 0 -88 -11q-40 -11 -69 -34t-48 -72t-19 -96v-910h-632z" />
    <glyph glyph-name="uni06D2" unicode="&#x6d2;" horiz-adv-x="2019" arabic-form="isolated" 
d="M55 -27v433q0 270 133 421q78 87 189 130q108 42 254 42h88q42 0 65 20t23 62v113h340v-127q0 -108 -29 -189q-28 -78 -84 -128q-55 -49 -131 -70q-77 -21 -170 -21h-135q-51 0 -91 -17q-44 -19 -67 -48t-34 -74q-11 -46 -11 -98v-109h1422v-340h-1762z" />
    <glyph glyph-name="uni06D3" unicode="&#x6d3;" horiz-adv-x="1861" arabic-form="isolated" 
d="M55 -27v433q0 270 133 421q78 87 189 130q108 42 254 42h88q42 0 65 20t23 62v113h340v-127q0 -108 -29 -189q-28 -78 -84 -128q-55 -49 -131 -70q-77 -21 -170 -21h-135q-51 0 -91 -17q-44 -19 -67 -48t-34 -74q-11 -46 -11 -98v-109h1422v-340h-1762zM266 1378
q0 151 77 216t208 65h149v-146h-133q-48 0 -66 -18t-18 -57v-29h283v-207h-500v176z" />
    <glyph glyph-name="uni06D5.fina" unicode="&#x6d5;" horiz-adv-x="1288" 
d="M1356 313v-340h-543q-158 0 -290 36t-229 112q-99 77 -153 189q-55 113 -55 265q0 132 49 242q49 111 144 192t229 126q135 45 305 45h14v102h340v-969h189zM827 313v527h-84q-56 0 -116 -19t-103 -52q-44 -34 -71 -82t-27 -112q0 -63 25 -113q24 -48 66 -81
q40 -32 97 -50q56 -18 115 -18h98z" />
    <glyph glyph-name="uniFB51" unicode="&#x671;" horiz-adv-x="786" arabic-form="final" 
d="M252 1440h340v-1127h262v-340h-602v1467zM117 1686h141q0 17 14 53q14 37 42 68q27 30 68 48q43 19 89 19q114 0 186 -63t72 -185v-106h-612v166zM468 1729q-34 0 -49 -20q-16 -21 -16 -23h129q0 1 -15 22t-49 21z" />
    <glyph glyph-name="uniFB57" unicode="&#x67e;" horiz-adv-x="1824" arabic-form="final" 
d="M762 -27q-86 0 -171 10q-76 9 -142 30q-63 20 -121 56q-56 35 -105 81q-82 76 -113 194q-32 120 -32 248v414h340v-379q0 -91 17 -148q18 -59 59 -94q51 -42 123 -56q80 -16 165 -16h547v867h340v-867h221v-340h-1128zM1202 -449q-70 0 -125 43t-55 127q0 74 52 120
t128 46q78 0 130 -46t52 -120q0 -84 -55 -127t-127 -43zM768 -449q-70 0 -125 43t-55 127q0 74 52 120t128 46q77 0 129 -46q53 -47 53 -120q0 -84 -56 -127t-126 -43zM985 -725q-62 0 -113 39t-51 113q0 67 47 109q46 42 117 42t117 -42q47 -42 47 -109q0 -74 -50 -113
q-49 -39 -114 -39z" />
    <glyph glyph-name="uniFB58" unicode="&#x67e;" horiz-adv-x="868" arabic-form="initial" 
d="M246 -449q-70 0 -125 43t-55 127q0 74 52 120t128 46q77 0 129 -46q53 -47 53 -120q0 -84 -56 -127t-126 -43zM463 -725q-62 0 -113 39t-51 113q0 67 47 109q46 42 117 42t117 -42q47 -42 47 -109q0 -74 -50 -113t-114 -39zM680 -449q-70 0 -125 43t-55 127q0 74 52 120
t128 46q78 0 130 -46t52 -120q0 -84 -55 -127t-127 -43zM-27 313h428v867h340v-1207h-768v340z" />
    <glyph glyph-name="uniFB59" unicode="&#x67e;" horiz-adv-x="1050" arabic-form="medial" 
d="M-27 313h428v867h340v-867h377v-340h-1145v340zM780 -449q-70 0 -125 43t-55 127q0 74 52 120t128 46q78 0 130 -46q53 -47 53 -120q0 -83 -56 -127q-55 -43 -127 -43zM346 -449q-70 0 -125 43t-55 127q0 74 52 120t128 46q77 0 129 -46q53 -47 53 -120q0 -84 -56 -127
t-126 -43zM563 -725q-61 0 -112 39q-52 40 -52 113q0 67 47 109q46 42 117 42t117 -42q47 -42 47 -109q0 -74 -50 -113q-49 -39 -114 -39z" />
    <glyph glyph-name="uniFB67" unicode="&#x679;" horiz-adv-x="1712" arabic-form="final" 
d="M762 -27q-86 0 -171 10q-76 9 -142 30q-63 20 -121 56q-56 35 -105 81q-82 76 -113 194q-32 120 -32 248v414h340v-379q0 -91 17 -148q18 -59 59 -94q51 -42 123 -56q80 -16 165 -16h547v867h340v-867h219v-340h-1126zM840 1442h78q114 0 186 -63t72 -185v-107h-613v166
h103v303h174v-114zM840 1296v-43h139q0 2 -15 23q-14 20 -44 20h-80z" />
    <glyph glyph-name="uniFB68" unicode="&#x679;" horiz-adv-x="868" arabic-form="initial" 
d="M-27 313h428v867h340v-1207h-768v340zM516 1649h78q114 0 186 -63t72 -185v-107h-612v166h102v303h174v-114zM516 1503v-43h139q0 2 -15 23q-14 20 -44 20h-80z" />
    <glyph glyph-name="uniFB69" unicode="&#x679;" horiz-adv-x="993" arabic-form="medial" 
d="M-27 313h428v867h340v-867h375v-340h-1143v340zM516 1649h78q114 0 186 -63t72 -185v-107h-612v166h102v303h174v-114zM516 1503v-43h139q0 2 -15 23q-14 20 -44 20h-80z" />
    <glyph glyph-name="uniFB6B" unicode="&#x6a4;" horiz-adv-x="2224" arabic-form="final" 
d="M762 -27q-86 0 -171 10q-76 9 -142 30q-63 20 -121 56q-56 35 -105 81q-82 76 -113 194q-32 120 -32 248v414h340v-379q0 -91 17 -148q18 -59 59 -94q51 -42 123 -56q80 -16 165 -16h281q-18 23 -44 97q-28 79 -28 168q0 142 52 252t148 191q92 77 226 119q129 40 289 40
h365v-867h219v-340h-1528zM1331 578q0 -88 39 -156q41 -70 98 -109h263v527h-95q-56 0 -113 -18q-59 -19 -99 -50q-42 -33 -67 -82q-26 -50 -26 -112zM1870 1313q-70 0 -125 43t-55 127q0 76 52 122t128 46q78 0 130 -46t52 -122q0 -84 -55 -127t-127 -43zM1436 1313
q-70 0 -125 43q-56 44 -56 127q0 75 53 122q52 46 128 46q77 0 129 -46q53 -47 53 -122q0 -84 -56 -127t-126 -43zM1653 1638q-62 0 -113 39t-51 113q0 68 47 110q46 42 117 42q69 0 116 -42q48 -43 48 -110q0 -73 -51 -113q-50 -39 -113 -39z" />
    <glyph glyph-name="uniFB6C" unicode="&#x6a4;" horiz-adv-x="1294" arabic-form="initial" 
d="M-27 313h248q-18 23 -44 97q-27 76 -27 168q0 142 52 252q53 112 147 191q92 77 226 119q129 40 289 40h365v-1207h-1256v340zM489 578q0 -88 39 -156q40 -69 99 -109h262v527h-94q-57 0 -114 -18t-98 -50q-43 -34 -68 -82q-26 -50 -26 -112zM999 1313q-70 0 -125 43
t-55 127q0 76 52 122t128 46q78 0 130 -46q53 -47 53 -122q0 -83 -56 -127q-55 -43 -127 -43zM565 1313q-70 0 -125 43t-55 127q0 76 52 122t128 46q77 0 129 -46q54 -48 54 -122q0 -83 -57 -127q-56 -43 -126 -43zM782 1638q-61 0 -112 39q-52 40 -52 113q0 67 48 110
q46 42 116 42t117 -42t47 -110q0 -74 -50 -113t-114 -39z" />
    <glyph glyph-name="uniFB6D" unicode="&#x6a4;" horiz-adv-x="1349" arabic-form="medial" 
d="M-27 313h248q-18 23 -44 97q-27 76 -27 168q0 142 52 252q53 112 147 191q92 77 226 119q129 40 289 40h365v-867h188v-340h-1444v340zM489 578q0 -88 39 -156q40 -69 99 -109h262v527h-94q-57 0 -114 -18t-98 -50q-43 -34 -68 -82q-26 -50 -26 -112zM997 1313
q-70 0 -125 43t-55 127q0 76 52 122t128 46q78 0 130 -46q53 -47 53 -122q0 -83 -56 -127q-55 -43 -127 -43zM563 1313q-70 0 -125 43t-55 127q0 76 52 122t128 46q77 0 129 -46q53 -47 53 -122q0 -84 -56 -127t-126 -43zM780 1638q-61 0 -112 39q-52 40 -52 113
q0 67 48 110q46 42 116 42t117 -42t47 -110q0 -74 -50 -113t-114 -39z" />
    <glyph glyph-name="uniFB7B" unicode="&#x686;" horiz-adv-x="1204" arabic-form="final" 
d="M51 -27q-12 27 -18 58q-4 18 -6 40q-2 28 -2 46q0 36 1 51q2 22 3 42q1 19 6 40q6 27 12 63h760q10 41 19 124q10 88 10 143q0 56 -22 122q-22 64 -71 105q-80 72 -223 72q-74 0 -142 -19q-64 -18 -165 -84l-143 299q125 72 238 108q114 36 247 36t240 -43
q108 -44 186 -123q87 -87 139 -210q54 -128 54 -286q0 -66 -8 -140q-8 -78 -13 -104h107v-340h-1209zM827 -360q-70 0 -125 43t-55 127q0 73 52 119t128 46q78 0 130 -46q53 -47 53 -119q0 -83 -56 -127q-55 -43 -127 -43zM393 -360q-70 0 -125 43t-55 127q0 73 52 119
t128 46q77 0 129 -46q53 -47 53 -119q0 -84 -56 -127t-126 -43zM610 -637q-61 0 -112 39q-52 40 -52 113q0 66 48 109q47 42 116 42q70 0 117 -42t47 -109q0 -74 -50 -113q-49 -39 -114 -39z" />
    <glyph glyph-name="uniFB7C" unicode="&#x686;" horiz-adv-x="1191" arabic-form="initial" 
d="M-27 313h856q12 50 20 124q9 80 9 143q0 59 -21 122q-21 64 -71 105q-79 72 -223 72q-75 0 -143 -19q-63 -18 -164 -84l-144 299q124 72 239 108q114 36 247 36q132 0 239 -43q110 -44 187 -123q87 -87 139 -210q53 -126 53 -286q0 -88 -10 -165q-11 -85 -25 -155
q-15 -75 -33 -138l-36 -126h-1119v340zM332 -360q-70 0 -125 43t-55 127q0 73 52 119t128 46q77 0 129 -46q53 -47 53 -119q0 -84 -56 -127t-126 -43zM549 -637q-62 0 -113 39t-51 113q0 67 47 109t117 42q71 0 117 -42q47 -42 47 -109q0 -74 -50 -113q-49 -39 -114 -39z
M766 -360q-70 0 -125 43t-55 127q0 73 52 119t128 46q78 0 130 -46t52 -119q0 -84 -55 -127t-127 -43z" />
    <glyph glyph-name="uniFB7D" unicode="&#x686;" horiz-adv-x="1263" arabic-form="medial" 
d="M-27 313h856q12 50 20 124q9 80 9 143q0 59 -21 122q-21 64 -71 105q-79 72 -223 72q-75 0 -143 -19q-63 -18 -164 -84l-144 299q124 72 239 108q114 36 247 36q132 0 239 -43q110 -44 187 -123q87 -87 139 -210q53 -126 53 -286q0 -76 -7 -140q-8 -78 -13 -104h135v-340
h-1338v340zM766 -360q-70 0 -125 43t-55 127q0 73 52 119t128 46q78 0 130 -46t52 -119q0 -84 -55 -127t-127 -43zM332 -360q-70 0 -125 43t-55 127q0 73 52 119t128 46q77 0 129 -46q53 -47 53 -119q0 -84 -56 -127t-126 -43zM549 -637q-62 0 -113 39t-51 113q0 67 47 109
t117 42q71 0 117 -42q47 -42 47 -109q0 -74 -50 -113q-49 -39 -114 -39z" />
    <glyph glyph-name="uniFB89" unicode="&#x688;" horiz-adv-x="1191" arabic-form="final" 
d="M45 313h715v287q0 57 -12 99t-37 73q-23 31 -64 49q-43 19 -90 19h-149v340h120q142 0 253 -38q108 -37 192 -124q72 -76 99 -188q28 -115 28 -242v-275h225v-340h-1280v340zM516 1649h78q114 0 186 -63t72 -185v-107h-612v166h102v303h174v-114zM516 1503v-43h139
q0 2 -15 23q-14 20 -44 20h-80z" />
    <glyph glyph-name="uniFB8B" unicode="&#x698;" horiz-adv-x="823" arabic-form="final" 
d="M229 -477q-39 0 -84 5q-43 5 -86 19l-24 342q69 -17 103 -22q27 -4 61 -4q72 0 99 38q28 39 28 136v1143h340v-867h225v-340h-229q-11 -221 -114 -335q-104 -115 -319 -115zM715 1313q-70 0 -125 43t-55 127q0 76 52 122t128 46q78 0 130 -46t52 -122q0 -84 -55 -127
t-127 -43zM281 1313q-70 0 -125 43q-56 44 -56 127q0 75 53 122q52 46 128 46q77 0 129 -46q53 -47 53 -122q0 -84 -56 -127t-126 -43zM498 1638q-62 0 -113 39t-51 113q0 68 47 110q46 42 117 42q70 0 116 -42q48 -43 48 -110q0 -73 -51 -113q-49 -39 -113 -39z" />
    <glyph glyph-name="uniFB8D" unicode="&#x691;" horiz-adv-x="821" arabic-form="final" 
d="M227 -477q-39 0 -84 5q-44 5 -86 19l-24 342q69 -17 103 -22q27 -4 61 -4q72 0 99 38q28 39 28 136v1143h340v-867h225v-340h-230q-11 -222 -113 -335q-104 -115 -319 -115zM467 1649h78q114 0 186 -63t72 -185v-107h-613v166h103v303h174v-114zM467 1503v-43h139
q0 2 -15 23q-14 20 -44 20h-80z" />
    <glyph glyph-name="uniFB8F" unicode="&#x6a9;" horiz-adv-x="2076" arabic-form="final" 
d="M762 -27q-188 0 -311 46q-127 47 -218 137q-80 78 -117 193q-38 117 -38 247v412h340v-377q0 -167 86 -236q48 -39 122 -61q72 -21 158 -21h914v211q0 50 -9 87q-9 36 -34 68q-22 28 -66 49q-42 20 -86 20h-643q-51 67 -81 140q-29 71 -34 179l324 621h406l-334 -601h321
q140 0 238 -36q104 -38 180 -113q158 -150 158 -446v-179h221v-340h-1497z" />
    <glyph glyph-name="uniFB90" unicode="&#x6a9;" horiz-adv-x="1671" arabic-form="initial" 
d="M-27 313h1276v193q0 57 -12 99t-37 73q-23 31 -63 50q-42 20 -90 20h-869q-49 65 -79 139q-28 69 -33 178l342 623h368l-317 -603h559q145 0 253 -37q107 -36 191 -124q73 -78 100 -188q27 -111 27 -242v-521h-1616v340z" />
    <glyph glyph-name="uniFB91" unicode="&#x6a9;" horiz-adv-x="1742" arabic-form="medial" 
d="M-27 313h1276v193q0 57 -12 99t-37 73q-23 31 -63 50q-42 20 -90 20h-869q-49 65 -79 139q-28 69 -33 178l342 623h368l-317 -603h559q145 0 253 -37q107 -36 191 -124q73 -78 100 -188q27 -111 27 -242v-181h219v-340h-1835v340z" />
    <glyph glyph-name="uniFB93" unicode="&#x6af;" horiz-adv-x="2076" arabic-form="final" 
d="M762 -27q-188 0 -311 46q-127 47 -218 137q-80 78 -117 193q-38 117 -38 247v412h340v-377q0 -167 86 -236q48 -39 122 -61q72 -21 158 -21h914v211q0 50 -9 87q-9 36 -34 68q-22 28 -66 49q-42 20 -86 20h-643q-51 67 -81 140q-29 71 -34 179l324 621h406l-334 -601h321
q140 0 238 -36q104 -38 180 -113q158 -150 158 -446v-179h221v-340h-1497zM678 1034h-234l326 656h234z" />
    <glyph glyph-name="uniFB94" unicode="&#x6af;" horiz-adv-x="1763" arabic-form="initial" 
d="M195 1034h-234l326 656h233zM-27 313h1440v193q0 57 -12 99t-37 73q-23 30 -64 50q-42 20 -90 20h-868q-49 65 -79 139q-29 72 -34 178l342 623h369l-317 -603h559q145 0 253 -37q107 -36 191 -124q72 -76 99 -188q28 -115 28 -242v-521h-1780v340z" />
    <glyph glyph-name="uniFB95" unicode="&#x6af;" horiz-adv-x="1863" arabic-form="medial" 
d="M-27 313h1440v193q0 57 -12 99t-37 73q-23 30 -64 50q-42 20 -90 20h-868q-49 65 -79 139q-29 72 -34 178l342 623h369l-317 -603h559q145 0 253 -37q107 -36 191 -124q72 -76 99 -188q28 -115 28 -242v-181h221v-340h-2001v340zM197 1034h-234l326 656h233z" />
    <glyph glyph-name="uniFB9F" unicode="&#x6ba;" horiz-adv-x="1423" arabic-form="final" 
d="M770 -283q-86 0 -171 10q-76 9 -142 30q-63 20 -121 56q-56 35 -105 81q-82 76 -113 194q-32 120 -32 248v696h340v-661q0 -91 17 -148q18 -59 59 -94q50 -41 124 -56q80 -16 165 -16h137v975h340v-719h221v-340h-221v-256h-498z" />
    <glyph glyph-name="uniFBA5" unicode="&#x6c0;" horiz-adv-x="1288" arabic-form="final" 
d="M813 -27q-158 0 -290 36t-229 112q-99 77 -153 189q-55 113 -55 265q0 132 49 242q49 111 144 192t229 126q135 45 305 45h14v102h340v-969h189v-340h-543zM827 313v527h-84q-56 0 -116 -19t-103 -52q-44 -34 -71 -82t-27 -112q0 -63 25 -113q24 -48 66 -81
q40 -32 97 -50q56 -18 115 -18h98zM672 1470q0 152 77 217q76 64 207 64h150v-145h-133q-48 0 -67 -19q-17 -17 -17 -57v-29h282v-207h-499v176z" />
    <glyph glyph-name="uniFBA7" unicode="&#x6c1;" horiz-adv-x="1212" arabic-form="final" 
d="M733 -27v869h-102q-47 0 -88 -11q-40 -11 -69 -34q-30 -24 -48 -65q-18 -40 -18 -87v-369h-340v330q0 156 45 267q46 114 143 190q77 62 179 90q105 29 227 29h411v-869h207v-340h-547z" />
    <glyph glyph-name="uniFBA8" unicode="&#x6c1;" horiz-adv-x="663" arabic-form="initial" 
d="M96 -475l121 409l367 -16l-230 -407zM-27 313h254v867h340v-1207h-594v340z" />
    <glyph glyph-name="uniFBA9" unicode="&#x6c1;" horiz-adv-x="1712" arabic-form="medial" 
d="M1188 -477l121 409h366l-227 -409h-260zM748 -477q-126 0 -235 25t-187 83q-70 53 -117 138t-47 188v16h-189v340h189v555h340v-870q0 -46 18 -87q18 -40 49 -65q57 -45 154 -45h65v512h992v-340h-652v-450h-380z" />
    <glyph glyph-name="uniFBAB" unicode="&#x6be;" horiz-adv-x="1820" arabic-form="final" 
d="M147 313h228q0 -1 -6 39q-7 47 -7 82q0 240 120 370t331 130q98 0 182 -36q87 -37 145 -101q59 -65 94 -158q34 -90 34 -203q0 -36 -5 -83q-1 -8 -2 -15t-1.5 -11.5t-1 -8t-0.5 -4.5l-1 -1h132q2 11 8 79q4 43 4 89q0 115 -25 210q-23 86 -78 173q-67 100 -173 149
q-109 50 -275 50q-126 0 -234 -42q-115 -45 -215 -101l-114 311q159 81 320 128q157 46 317 46q115 0 214 -26t177 -70q77 -44 142 -107q60 -59 112 -131q87 -127 130 -289q42 -159 42 -350q0 -69 -8 -119h213v-340h-1799v340zM672 440q0 -39 5 -82t5 -45h266q0 2 5 45t5 82
q0 90 -37 137q-37 48 -108 48t-106 -47t-35 -138z" />
    <glyph glyph-name="uniFBAC" unicode="&#x6be;" horiz-adv-x="1568" arabic-form="initial" 
d="M-27 313h228q0 -1 -6 39q-7 47 -7 82q0 240 120 370t331 130q98 0 182 -36q87 -37 145 -101q59 -65 94 -158q34 -90 34 -203q0 -36 -5 -83q-1 -8 -2 -15t-1.5 -11.5t-1 -8t-0.5 -4.5l-1 -1h131q4 28 9 79q4 43 4 89q0 115 -25 210q-23 86 -78 173q-67 100 -173 149
q-109 50 -275 50q-126 0 -234 -42q-115 -45 -215 -101l-114 311q159 81 320 128q157 46 317 46q115 0 214 -26t177 -70q77 -44 142 -107q60 -59 112 -131q87 -127 130 -289q42 -159 42 -350q0 -56 -7 -111q-8 -59 -18 -117q-13 -75 -24 -114q-19 -70 -35 -117h-1510v340z
M498 440q0 -39 5 -82t5 -45h266q0 2 5 45t5 82q0 88 -38 137q-37 48 -107 48q-72 0 -107 -47q-34 -46 -34 -138z" />
    <glyph glyph-name="uniFBAD" unicode="&#x6be;" horiz-adv-x="1646" arabic-form="medial" 
d="M-27 313h228q0 -1 -6 39q-7 47 -7 82q0 240 120 370t331 130q98 0 182 -36q87 -37 145 -101q59 -65 94 -158q34 -90 34 -203q0 -36 -5 -83q-1 -8 -2 -15t-1.5 -11.5t-1 -8t-0.5 -4.5l-1 -1h131q4 28 9 79q4 43 4 89q0 115 -25 210q-23 86 -78 173q-67 100 -173 149
q-109 50 -275 50q-126 0 -234 -42q-115 -45 -215 -101l-114 311q159 81 320 128q157 46 317 46q115 0 214 -26t177 -70q77 -44 142 -107q60 -59 112 -131q87 -127 130 -289q42 -159 42 -350q0 -69 -8 -119h215v-340h-1801v340zM498 440q0 -39 5 -82t5 -45h266q0 2 5 45t5 82
q0 88 -38 137q-37 48 -107 48q-72 0 -107 -47q-34 -46 -34 -138z" />
    <glyph glyph-name="uniFBAF" unicode="&#x6d2;" horiz-adv-x="1601" arabic-form="final" 
d="M1667 -27h-1235q0 -14 10 -47q11 -36 43 -59q27 -21 60 -33t88 -12h635v-299h-660q-144 0 -255 41q-109 40 -187 129q-69 79 -95 185q-28 112 -28 241v194h1624v-340z" />
    <glyph glyph-name="uniFBB1" unicode="&#x6d3;" horiz-adv-x="1341" arabic-form="final" 
d="M1667 -27h-1235q0 -14 10 -47q11 -36 43 -59q27 -21 60 -33t88 -12h635v-299h-660q-144 0 -255 41q-109 40 -187 129q-69 79 -95 185q-28 112 -28 241v194h1624v-340zM31 592q0 151 77 216q76 64 207 64h150v-145h-133q-49 0 -67 -18q-17 -17 -17 -58v-28h282v-207h-499
v176z" />
    <glyph glyph-name="uniFBE8" unicode="&#x649;" horiz-adv-x="663" arabic-form="initial" 
d="M-27 313h254v867h340v-1207h-594v340z" />
    <glyph glyph-name="uniFBE9" unicode="&#x649;" horiz-adv-x="720" arabic-form="medial" 
d="M-27 313h254v867h340v-867h219v-340h-813v340z" />
    <glyph glyph-name="uniFBFD" unicode="&#x6cc;" horiz-adv-x="2217" arabic-form="final" 
d="M877 -283q-86 0 -171 10q-77 9 -143 30q-63 20 -121 56q-53 33 -104 81q-83 77 -114 194t-31 248v475h339v-440q0 -88 18 -148t58 -94q50 -41 124 -56q80 -16 165 -16h272v551q0 150 44 265q43 113 143 192q77 61 180 87q109 28 227 28h414v-867h221v-340h-561v867h-104
q-47 0 -88 -11q-40 -11 -69 -34t-48 -72t-19 -96v-910h-632z" />
    <glyph glyph-name="uniFBFE" unicode="&#x6cc;" horiz-adv-x="872" arabic-form="initial" 
d="M229 -463q-72 0 -130 44q-56 43 -56 128q0 78 54 126t132 48t132 -48q55 -49 55 -126q0 -85 -57 -128q-58 -44 -130 -44zM674 -463q-72 0 -130 44q-57 43 -57 128q0 77 55 126q54 48 132 48q80 0 133 -48t53 -126q0 -85 -56 -128q-58 -44 -130 -44zM-25 313h428v867h340
v-1207h-768v340z" />
    <glyph glyph-name="uniFBFF" unicode="&#x6cc;" horiz-adv-x="1050" arabic-form="medial" 
d="M-27 313h428v867h340v-867h377v-340h-1145v340zM778 -463q-72 0 -130 44q-56 43 -56 128q0 78 54 126t132 48q80 0 133 -48q54 -49 54 -126q0 -85 -57 -128q-58 -44 -130 -44zM334 -463q-72 0 -130 44q-57 43 -57 128q0 77 55 126q54 48 132 48t132 -48t54 -126
q0 -85 -56 -128q-58 -44 -130 -44z" />
    <glyph glyph-name="uniFC5E" unicode="&#xfc5e;" arabic-form="isolated" 
d="M-344 571l147 60l54 -150l41 6q-2 6 -2 43q0 78 46 140q46 63 150 63q80 0 129 -54q49 -53 49 -138q0 -16 -2 -60q-1 -28 -14 -92l-496 -78zM-80 -27q-58 0 -108 35q-50 34 -66 117l-27 141l152 31l27 -135q6 -26 13 -31q7 -6 17 -6q17 0 26 12t9 45q0 21 -4 45l-14 84
l155 23l25 -137q6 -29 29 -29q30 0 30 33q0 25 -6 56t-33 97l160 37q1 -5 19 -86l8 -49q4 -24 4 -45q0 -93 -51 -142q-53 -51 -140 -51q-36 0 -53 11q-18 11 -24 24q-5 -13 -44 -46q-40 -34 -104 -34zM39 537v-2v-2v-2v-2v-3v-2v-2v-2v-8l96 14q-15 -49 -16 9q0 20 -9 32
q-10 13 -32 13q-16 0 -28 -12q-11 -11 -11 -31z" />
    <glyph glyph-name="uniFC5F" unicode="&#xfc5f;" arabic-form="isolated" 
d="M-111 303q-58 0 -108 35q-49 34 -66 117l-26 141l151 31l27 -135q6 -26 13 -31q8 -6 18 -6q16 0 25 12t9 45q0 21 -4 45l-14 84l156 23l24 -138q6 -28 29 -28q31 0 31 32q0 20 -7 57q-7 35 -32 97l159 37q1 -5 19 -86l8 -49q4 -24 4 -45q0 -93 -51 -143q-52 -50 -139 -50
q-38 0 -54 10q-17 11 -24 25q-5 -13 -44 -46q-40 -34 -104 -34zM-201 119l512 74v-150l-512 -74v150zM-203 287l512 73v-149l-512 -74v150z" />
    <glyph glyph-name="uniFC60" unicode="&#xfc60;" arabic-form="isolated" 
d="M-106 -27q-59 0 -109 35q-49 34 -66 117l-26 141l151 31l27 -135q6 -26 13 -31q8 -6 18 -6q16 0 25 12q10 13 10 45q0 15 -5 45l-14 84l156 23l24 -137q6 -29 29 -29q31 0 31 33q0 25 -6 56t-33 97l160 37q10 -50 18 -86l8 -49q4 -24 4 -45q0 -93 -51 -142
q-53 -51 -139 -51q-36 0 -53 11q-19 12 -25 24q-5 -13 -44 -46q-40 -34 -103 -34zM-283 526l512 74v-156l-512 -73v155z" />
    <glyph glyph-name="uniFC61" unicode="&#xfc61;" arabic-form="isolated" 
d="M-276 479l153 25q-2 6 -2 43q0 76 45 139q46 64 150 64q81 0 131 -55q49 -53 49 -138q0 -15 -2 -59q-1 -22 -15 -92l-493 -76zM-106 -27q-59 0 -109 35q-49 34 -66 117l-26 141l151 31l27 -135q6 -26 13 -31q8 -6 18 -6q16 0 25 12q10 13 10 45q0 15 -5 45l-14 84l156 23
l24 -137q6 -29 29 -29q31 0 31 33q0 25 -6 56t-33 97l160 37q10 -50 18 -86l8 -49q4 -24 4 -45q0 -93 -51 -142q-53 -51 -139 -51q-36 0 -53 11q-19 12 -25 24q-5 -13 -44 -46q-40 -34 -103 -34zM16 549v-2v-2v-3v-2v-2v-10l82 13v0v10q0 21 -9 33t-32 12q-18 0 -29 -11
q-12 -12 -12 -36z" />
    <glyph glyph-name="uniFC62" unicode="&#xfc62;" arabic-form="isolated" 
d="M-109 160q-58 0 -108 35t-66 116l-26 142l151 30l27 -135q6 -26 13 -31q8 -6 18 -6q15 0 25 13q9 12 9 45q0 21 -4 45l-14 84l156 22l24 -137q6 -29 29 -29q31 0 31 33q0 25 -6 56q-6 32 -33 98l159 37q1 -5 19 -86l8 -50q4 -24 4 -45q0 -93 -51 -142q-52 -50 -139 -50
q-38 0 -54 10q-17 11 -24 25q-5 -13 -44 -46q-40 -34 -104 -34zM-203 125l512 74v-156l-512 -74v156z" />
    <glyph glyph-name="uniFC63" unicode="&#xfc63;" arabic-form="isolated" 
d="M-106 -27q-59 0 -109 35q-49 34 -66 117l-26 141l151 31l27 -135q6 -26 13 -31q8 -6 18 -6q16 0 25 12q10 13 10 45q0 15 -5 45l-14 84l156 23l24 -137q6 -29 29 -29q31 0 31 33q0 25 -6 56t-33 97l160 37q10 -50 18 -86l8 -49q4 -24 4 -45q0 -93 -51 -142
q-53 -51 -139 -51q-36 0 -53 11q-19 12 -25 24q-5 -13 -44 -46q-40 -34 -103 -34zM-100 834h168v-431l-168 -24v455z" />
    <glyph glyph-name="uniFE70" unicode="&#xfe70;" arabic-form="isolated" 
d="M-59 1593l512 74v-149l-512 -74v149zM-61 1761l512 74v-149l-512 -74v149z" />
    <glyph glyph-name="uniFE72" unicode="&#xfe72;" arabic-form="isolated" 
d="M-90 1686l147 59l54 -150l41 7q-2 6 -2 43q0 77 46 139q46 63 150 63q80 0 129 -54q49 -53 49 -138q0 -16 -2 -60q-1 -28 -14 -92l-496 -78zM293 1651v-2v-2v-2v-2v-3v-2v-2v-2v-8l96 14q-15 -49 -16 9q0 20 -9 32q-10 13 -32 13q-16 0 -28 -12q-11 -11 -11 -31z" />
    <glyph glyph-name="uniFE74" unicode="&#xfe74;" arabic-form="isolated" 
d="M-59 -344l512 74v-150l-512 -74v150zM-61 -176l512 74v-150l-512 -74v150z" />
    <glyph glyph-name="uniFE76" unicode="&#xfe76;" arabic-form="isolated" 
d="M-49 1548l512 74v-156l-512 -73v155z" />
    <glyph glyph-name="uniFE78" unicode="&#xfe78;" arabic-form="isolated" 
d="M-66 1577l154 25q-2 6 -2 43q0 76 45 139t150 63q81 0 131 -54q49 -53 49 -138q0 -16 -2 -60q-1 -22 -15 -92l-493 -76zM227 1647v-2v-2v-3v-2v-2v-10l82 12v0v1v1v9q0 20 -9 32q-10 13 -32 13q-17 0 -29 -12t-12 -35z" />
    <glyph glyph-name="uniFE7A" unicode="&#xfe7a;" arabic-form="isolated" 
d="M-49 -338l512 74v-156l-512 -74v156z" />
    <glyph glyph-name="uniFE7C" unicode="&#xfe7c;" arabic-form="isolated" 
d="M88 1403q-58 0 -108 35t-66 116l-27 142l152 30l27 -135q6 -25 13 -30q9 -7 17 -7q16 0 26 13q9 12 9 45q0 21 -4 45q-1 5 -3 20t-5 31t-6 33l155 22l25 -137q6 -29 29 -29q30 0 30 33q0 26 -6 57t-33 97l160 37q1 -5 19 -86l8 -49q4 -24 4 -46q0 -92 -51 -142
q-52 -50 -140 -50q-37 0 -53 10q-17 11 -24 25q-4 -11 -45 -46q-40 -34 -103 -34z" />
    <glyph glyph-name="uniFE7E" unicode="&#xfe7e;" arabic-form="isolated" 
d="M131 1409q-85 0 -138 51q-52 51 -52 158q0 99 57 156t145 57q93 0 144 -58q51 -59 51 -156q0 -98 -59 -153t-148 -55zM137 1559q21 0 35 10t14 47q0 35 -14 49t-35 14q-15 0 -29 -11q-16 -13 -16 -48q0 -43 12 -52t33 -9z" />
    <glyph glyph-name="uniFE82" unicode="&#x622;" horiz-adv-x="788" arabic-form="final" 
d="M254 1440h340v-1127h262v-340h-602v1467zM117 1726h612v-186h-612v186z" />
    <glyph glyph-name="uniFE84" unicode="&#x623;" horiz-adv-x="804" arabic-form="final" 
d="M199 1661q0 152 76 216q77 65 208 65h129v-146h-112q-49 0 -67 -18q-17 -17 -17 -31h262v-207h-479v121zM270 1440h340v-1127h262v-340h-602v1467z" />
    <glyph glyph-name="uniFE86" unicode="&#x624;" horiz-adv-x="1288" arabic-form="final" 
d="M1163 313h191v-340h-197q-6 -80 -39 -167q-34 -88 -98 -150q-67 -64 -167 -98q-103 -35 -243 -35q-43 0 -79 3q-35 3 -70 9q-15 3 -72 14l-102 29l-25 346q113 -36 189 -49q69 -12 139 -12q52 0 99 5q43 5 69 19q28 15 42 41q16 28 17 45h-2q-154 0 -284 34
q-131 34 -231 107t-157 188t-57 276q0 142 55 252q56 113 153 190q99 79 230 119q135 41 291 41h350zM426 578q0 -66 24 -115q25 -51 63 -82q39 -32 96 -50t122 -18h94v527h-94q-58 0 -116 -20q-57 -20 -98 -53q-42 -35 -66 -82q-25 -50 -25 -107zM680 1462q0 151 77 216
t208 65h149v-146h-133q-49 0 -67 -18q-17 -17 -17 -57v-29h283v-207h-500v176z" />
    <glyph glyph-name="uniFE88" unicode="&#x625;" horiz-adv-x="796" arabic-form="final" 
d="M483 -516q-132 0 -208 64t-76 216v121h479v-207h-262q0 -13 17 -30q19 -19 67 -19h112v-145h-129zM262 1688h340v-1375h262v-340h-602v1715z" />
    <glyph glyph-name="uniFE8A" unicode="&#x626;" horiz-adv-x="2275" arabic-form="final" 
d="M821 -283q-86 0 -171 10q-76 9 -142 30q-63 20 -121 56q-53 33 -104 81q-83 77 -114 194q-32 120 -32 248v475h340v-440q0 -88 18 -148t58 -94q50 -41 124 -56q80 -16 165 -16h272v551q0 150 44 265t142 192q77 60 181 87q109 28 227 28h414v-867h219v-340h-559v867h-105
q-47 0 -88 -11q-38 -10 -68 -34q-29 -23 -48 -72t-19 -96v-910h-633zM57 1079q0 151 77 216t208 65h150v-146h-134q-48 0 -66 -18t-18 -57v-29h283v-207h-500v176z" />
    <glyph glyph-name="uniFE8B" unicode="&#x626;" horiz-adv-x="663" arabic-form="initial" 
d="M141 1460q0 151 77 216t208 65h149v-146h-133q-48 0 -66 -18t-18 -57v-29h283v-207h-500v176zM-27 313h254v867h340v-1207h-594v340z" />
    <glyph glyph-name="uniFE8C" unicode="&#x626;" horiz-adv-x="720" arabic-form="medial" 
d="M-27 313h254v867h340v-867h219v-340h-813v340zM137 1460q0 151 77 216t208 65h149v-146h-133q-48 0 -66 -18t-18 -57v-29h283v-207h-500v176z" />
    <glyph glyph-name="uniFE8E" unicode="&#x627;" horiz-adv-x="774" arabic-form="final" 
d="M240 1688h340v-1375h262v-340h-602v1715z" />
    <glyph glyph-name="uniFE90" unicode="&#x628;" horiz-adv-x="1824" arabic-form="final" 
d="M762 -27q-86 0 -171 10q-76 9 -142 30q-63 20 -121 56q-56 35 -105 81q-82 76 -113 194q-32 120 -32 248v414h340v-379q0 -91 17 -148q18 -59 59 -94q51 -42 123 -56q80 -16 165 -16h547v867h340v-867h221v-340h-1128zM981 -463q-76 0 -135 46q-60 47 -60 134
q0 79 57 129q58 50 138 50t138 -50q57 -50 57 -129q0 -87 -60 -134q-59 -46 -135 -46z" />
    <glyph glyph-name="uniFE91" unicode="&#x628;" horiz-adv-x="663" arabic-form="initial" 
d="M401 -463q-76 0 -135 46t-59 134q0 80 56 129q58 50 138 50q81 0 139 -50q56 -49 56 -129q0 -88 -59 -134t-136 -46zM-27 313h254v867h340v-1207h-594v340z" />
    <glyph glyph-name="uniFE92" unicode="&#x628;" horiz-adv-x="720" arabic-form="medial" 
d="M-27 313h254v867h340v-867h219v-340h-813v340zM397 -463q-76 0 -135 46t-59 134q0 80 56 129q58 50 138 50q81 0 139 -50q56 -49 56 -129q0 -87 -60 -134q-59 -46 -135 -46z" />
    <glyph glyph-name="uniFE94" unicode="&#x629;" horiz-adv-x="1290" arabic-form="final" 
d="M1356 313v-340h-543q-158 0 -290 36t-229 112q-99 77 -153 189q-55 113 -55 265q0 132 49 242q49 111 144 192t229 126q135 45 305 45h14v102h340v-969h189zM827 313v527h-84q-56 0 -116 -19t-103 -52q-44 -34 -71 -82t-27 -112q0 -63 25 -113q24 -48 66 -81
q40 -32 97 -50q56 -18 115 -18h98zM969 1380q-75 0 -131 45t-56 129q0 78 55 125t132 47q80 0 133 -47t53 -125q0 -84 -55 -129q-56 -45 -131 -45zM524 1380q-76 0 -131 45t-55 129q0 78 54 125q55 47 132 47t132 -47t55 -125q0 -84 -56 -129q-55 -45 -131 -45z" />
    <glyph glyph-name="uniFE96" unicode="&#x62a;" horiz-adv-x="1824" arabic-form="final" 
d="M762 -27q-86 0 -171 10q-76 9 -142 30q-63 20 -121 56q-56 35 -105 81q-82 76 -113 194q-32 120 -32 248v414h340v-379q0 -91 17 -148q18 -59 59 -94q51 -42 123 -56q80 -16 165 -16h547v867h340v-867h221v-340h-1128zM1120 1192q-76 0 -131 45t-55 129q0 78 54 125
q55 47 132 47q80 0 133 -47q54 -48 54 -125q0 -84 -56 -129q-55 -45 -131 -45zM676 1192q-76 0 -131 45q-56 45 -56 129q0 78 55 125t132 47t132 -47q54 -47 54 -125q0 -84 -55 -129t-131 -45z" />
    <glyph glyph-name="uniFE97" unicode="&#x62a;" horiz-adv-x="868" arabic-form="initial" 
d="M-27 313h428v867h340v-1207h-768v340zM338 1300q-74 0 -131 46q-55 45 -55 129q0 77 54 124q56 48 132 48t132 -48q54 -47 54 -124q0 -84 -55 -129q-57 -46 -131 -46zM782 1300q-74 0 -131 46q-55 45 -55 129q0 77 54 124q56 48 132 48q79 0 133 -48t54 -124
q0 -84 -56 -129q-57 -46 -131 -46z" />
    <glyph glyph-name="uniFE98" unicode="&#x62a;" horiz-adv-x="1050" arabic-form="medial" 
d="M-27 313h428v867h340v-867h377v-340h-1145v340zM780 1300q-74 0 -131 46q-55 45 -55 129q0 77 54 124q56 48 132 48q79 0 133 -48t54 -124q0 -84 -56 -129q-57 -46 -131 -46zM336 1300q-74 0 -131 46q-55 45 -55 129q0 77 54 124q56 48 132 48t132 -48q54 -47 54 -124
q0 -84 -55 -129q-57 -46 -131 -46z" />
    <glyph glyph-name="uniFE9A" unicode="&#x62b;" horiz-adv-x="1824" arabic-form="final" 
d="M762 -27q-86 0 -171 10q-76 9 -142 30q-63 20 -121 56q-56 35 -105 81q-82 76 -113 194q-32 120 -32 248v414h340v-379q0 -91 17 -148q18 -59 59 -94q51 -42 123 -56q80 -16 165 -16h547v867h340v-867h221v-340h-1128zM1118 1204q-70 0 -125 43t-55 127q0 76 52 122
t128 46q78 0 130 -46t52 -122q0 -84 -55 -127t-127 -43zM684 1204q-70 0 -125 43t-55 127q0 76 52 122t128 46q77 0 129 -46q53 -47 53 -122q0 -84 -56 -127t-126 -43zM901 1530q-62 0 -113 39t-51 112q0 68 47 110q46 42 117 42t117 -42q47 -42 47 -110q0 -73 -50 -112
q-49 -39 -114 -39z" />
    <glyph glyph-name="uniFE9B" unicode="&#x62b;" horiz-adv-x="868" arabic-form="initial" 
d="M332 1313q-70 0 -125 43t-55 127q0 76 52 122t128 46q77 0 129 -46q53 -47 53 -122q0 -84 -56 -127t-126 -43zM549 1638q-62 0 -113 39t-51 113q0 68 47 110t117 42q71 0 117 -42q47 -42 47 -110q0 -74 -50 -113q-49 -39 -114 -39zM766 1313q-70 0 -125 43t-55 127
q0 76 52 122t128 46q78 0 130 -46t52 -122q0 -84 -55 -127t-127 -43zM-27 313h428v867h340v-1207h-768v340z" />
    <glyph glyph-name="uniFE9C" unicode="&#x62b;" horiz-adv-x="1050" arabic-form="medial" 
d="M-27 313h428v867h340v-867h377v-340h-1145v340zM768 1313q-70 0 -125 43t-55 127q0 76 52 122t128 46q78 0 130 -46t52 -122q0 -84 -55 -127t-127 -43zM334 1313q-70 0 -125 43t-55 127q0 76 52 122t128 46q77 0 129 -46q53 -47 53 -122q0 -84 -56 -127t-126 -43z
M551 1638q-62 0 -113 39t-51 113q0 68 47 110q46 42 117 42t117 -42q47 -42 47 -110q0 -74 -50 -113q-49 -39 -114 -39z" />
    <glyph glyph-name="uniFE9E" unicode="&#x62c;" horiz-adv-x="1284" arabic-form="final" 
d="M207 -483q-92 130 -137 261q-45 132 -45 302q0 119 22 233h760q10 41 19 124q10 88 10 143q0 56 -22 122q-22 64 -71 105q-80 72 -223 72q-74 0 -142 -19q-64 -18 -165 -84l-143 299q125 72 238 108q114 36 247 36t240 -43q108 -44 186 -123q87 -87 139 -210
q54 -128 54 -286q0 -66 -8 -140q-8 -78 -13 -104h197v-340h-981v-4q0 -72 21 -144q20 -68 85 -183zM770 -463q-76 0 -135 46q-60 47 -60 134q0 79 57 129q58 50 138 50t138 -50q57 -50 57 -129q0 -87 -60 -134q-59 -46 -135 -46z" />
    <glyph glyph-name="uniFE9F" unicode="&#x62c;" horiz-adv-x="1263" arabic-form="initial" 
d="M-27 313h856q12 50 20 124q9 80 9 143q0 59 -21 122q-21 64 -71 105q-79 72 -223 72q-75 0 -143 -19q-63 -18 -164 -84l-144 299q124 72 239 108q114 36 247 36q132 0 239 -43q110 -44 187 -123q87 -87 139 -210q53 -126 53 -286q0 -88 -10 -165q-11 -85 -25 -155
q-15 -75 -33 -138l-36 -126h-1119v340zM561 -463q-76 0 -135 46t-59 134q0 80 56 129q58 50 138 50t138 -50q57 -50 57 -129q0 -87 -60 -134q-59 -46 -135 -46z" />
    <glyph glyph-name="uniFEA0" unicode="&#x62c;" horiz-adv-x="1325" arabic-form="medial" 
d="M-27 313h856q12 50 20 124q9 80 9 143q0 59 -21 122q-21 64 -71 105q-79 72 -223 72q-75 0 -143 -19q-63 -18 -164 -84l-144 299q124 72 239 108q114 36 247 36q132 0 239 -43q110 -44 187 -123q87 -87 139 -210q53 -126 53 -286q0 -76 -7 -140q-8 -78 -13 -104h215v-340
h-1418v340zM561 -463q-76 0 -135 46t-59 134q0 80 56 129q58 50 138 50t138 -50q57 -50 57 -129q0 -87 -60 -134q-59 -46 -135 -46z" />
    <glyph glyph-name="uniFEA2" unicode="&#x62d;" horiz-adv-x="1284" arabic-form="final" 
d="M369 -31q0 -72 21 -144q20 -68 85 -183l-268 -125q-92 130 -137 261q-45 132 -45 302q0 119 22 233h760q10 41 19 124q10 88 10 143q0 56 -22 122q-22 64 -71 105q-80 72 -223 72q-74 0 -142 -19q-64 -18 -165 -84l-143 299q125 72 238 108q114 36 247 36t240 -43
q108 -44 186 -123q87 -87 139 -210q54 -128 54 -286q0 -66 -8 -140q-8 -78 -13 -104h197v-340h-981v-4z" />
    <glyph glyph-name="uniFEA3" unicode="&#x62d;" horiz-adv-x="1263" arabic-form="initial" 
d="M-27 313h856q12 50 20 124q9 80 9 143q0 59 -21 122q-21 64 -71 105q-79 72 -223 72q-75 0 -143 -19q-63 -18 -164 -84l-144 299q124 72 239 108q114 36 247 36q132 0 239 -43q110 -44 187 -123q87 -87 139 -210q53 -126 53 -286q0 -88 -10 -165q-11 -85 -25 -155
q-15 -75 -33 -138l-36 -126h-1119v340z" />
    <glyph glyph-name="uniFEA4" unicode="&#x62d;" horiz-adv-x="1325" arabic-form="medial" 
d="M-27 313h856q12 50 20 124q9 80 9 143q0 59 -21 122q-21 64 -71 105q-79 72 -223 72q-75 0 -143 -19q-63 -18 -164 -84l-144 299q124 72 239 108q114 36 247 36q132 0 239 -43q110 -44 187 -123q87 -87 139 -210q53 -126 53 -286q0 -76 -7 -140q-8 -78 -13 -104h215v-340
h-1418v340z" />
    <glyph glyph-name="uniFEA6" unicode="&#x62e;" horiz-adv-x="1232" arabic-form="final" 
d="M319 -31q0 -69 22 -144q20 -68 85 -183l-268 -125q-94 133 -138 261q-45 132 -45 302q0 113 23 233h760q10 41 19 124q9 80 9 143q0 59 -21 122q-21 64 -71 105q-79 72 -223 72q-74 0 -142 -19q-65 -18 -165 -84l-144 299q124 72 239 108q114 36 247 36q132 0 239 -43
q110 -44 187 -123q87 -87 139 -210q53 -126 53 -286q0 -76 -7 -140q-8 -78 -13 -104h196v-340h-981v-4zM451 1325q-77 0 -136 46t-59 134q0 80 56 129t139 49q82 0 138 -49t56 -129q0 -88 -59 -134t-135 -46z" />
    <glyph glyph-name="uniFEA7" unicode="&#x62e;" horiz-adv-x="1263" arabic-form="initial" 
d="M-27 313h856q12 50 20 124q9 80 9 143q0 59 -21 122q-21 64 -71 105q-79 72 -223 72q-75 0 -143 -19q-63 -18 -164 -84l-144 299q124 72 239 108q114 36 247 36q132 0 239 -43q110 -44 187 -123q87 -87 139 -210q53 -126 53 -286q0 -88 -10 -165q-11 -85 -25 -155
q-15 -75 -33 -138l-36 -126h-1119v340zM541 1337q-76 0 -135 46q-60 47 -60 135q0 80 56 129t139 49q82 0 138 -49t56 -129q0 -89 -59 -135t-135 -46z" />
    <glyph glyph-name="uniFEA8" unicode="&#x62e;" horiz-adv-x="1243" arabic-form="medial" 
d="M-109 313h857q10 41 19 124q9 80 9 143q0 59 -21 122q-21 64 -71 105q-80 72 -223 72q-75 0 -143 -19q-63 -18 -164 -84l-144 299q124 72 239 108q114 36 247 36q132 0 239 -43q110 -44 187 -123q87 -87 139 -210q53 -126 53 -286q0 -76 -7 -140q-8 -78 -13 -104h215
v-340h-1418v340zM459 1337q-76 0 -135 46q-60 47 -60 135q0 80 57 129q56 49 138 49t138 -49t56 -129q0 -89 -59 -135t-135 -46z" />
    <glyph glyph-name="uniFEAA" unicode="&#x62f;" horiz-adv-x="1255" arabic-form="final" 
d="M45 313h715v287q0 57 -12 99t-37 73q-23 31 -64 49q-43 19 -90 19h-149v340h120q142 0 253 -38q108 -37 192 -124q72 -76 99 -188q28 -115 28 -242v-275h221v-340h-1276v340z" />
    <glyph glyph-name="uniFEAC" unicode="&#x630;" horiz-adv-x="1255" arabic-form="final" 
d="M45 313h715v287q0 57 -12 99t-37 73q-23 31 -64 49q-43 19 -90 19h-149v340h120q142 0 253 -38q108 -37 192 -124q72 -76 99 -188q28 -115 28 -242v-275h221v-340h-1276v340zM586 1278q-76 0 -135 46q-60 46 -60 134q0 80 56 129t139 49q82 0 138 -49t56 -129
q0 -88 -59 -134t-135 -46z" />
    <glyph glyph-name="uniFEAE" unicode="&#x631;" horiz-adv-x="817" arabic-form="final" 
d="M227 -477q-39 0 -84 5q-44 5 -86 19l-24 342q69 -17 103 -22q27 -4 61 -4q72 0 99 38q28 39 28 136v1143h340v-867h221v-340h-226q-11 -222 -113 -335q-104 -115 -319 -115z" />
    <glyph glyph-name="uniFEB0" unicode="&#x632;" horiz-adv-x="817" arabic-form="final" 
d="M227 -477q-39 0 -84 5q-44 5 -86 19l-24 342q69 -17 103 -22q27 -4 61 -4q72 0 99 38q28 39 28 136v1143h340v-867h221v-340h-226q-11 -222 -113 -335q-104 -115 -319 -115zM487 1300q-74 0 -135 47q-59 46 -59 134q0 80 56 129t138 49q83 0 139 -49t56 -129
q0 -88 -59 -134q-61 -47 -136 -47z" />
    <glyph glyph-name="uniFEB2" unicode="&#x633;" horiz-adv-x="3020" arabic-form="final" 
d="M2046 555q0 -138 62 -200t169 -62q111 0 165 61q55 63 55 170v799h337v-762q0 -113 -16 -184q33 -27 108 -45q79 -19 175 -19v-340q-112 0 -179 16q-61 14 -109 41q-45 25 -76 57q-30 31 -30 30q-113 -164 -430 -164q-61 0 -121 9q-56 8 -117 34q-57 24 -106 64t-67 73
q-55 -59 -169 -110q-112 -50 -235 -50h-184v-256h-498q-86 0 -171 10q-76 9 -142 30q-63 20 -121 56q-53 33 -104 81q-83 77 -114 194q-32 120 -32 248v696h340v-661q0 -88 18 -148t58 -94q50 -41 124 -56q80 -16 165 -16h137v1123h340v-867h184q39 0 85 11q47 11 80 36
q36 27 57 70q22 46 22 113v534h340v-522z" />
    <glyph glyph-name="uniFEB3" unicode="&#x633;" horiz-adv-x="2392" arabic-form="initial" 
d="M-27 313h447v764h340v-764h182q39 0 85 11q47 11 80 36q36 27 57 70q22 46 22 113v534h340v-534q5 -131 64 -190q60 -60 167 -60q111 0 165 61t54 170v799h338v-762q0 -308 -138 -458t-419 -150q-62 0 -122 9q-55 8 -116 34q-57 24 -106 64t-67 73q-55 -59 -169 -110
q-112 -50 -235 -50h-969v340z" />
    <glyph glyph-name="uniFEB4" unicode="&#x633;" horiz-adv-x="2519" arabic-form="medial" 
d="M1528 555q0 -138 62 -200t169 -62q111 0 165 61t54 170v799h338v-762q0 -56 -4 -96q-6 -64 -8 -74q74 -78 285 -78v-340q-109 0 -179 16q-64 14 -111 42q-49 29 -77 59q-4 4 -8 8.5t-7 7.5l-5.5 5.5t-4 4.5t-2.5 3l-1 1l-1 1q-113 -168 -434 -168q-62 0 -122 9
q-55 8 -116 34q-57 24 -106 64t-67 73q-55 -59 -169 -110q-112 -50 -235 -50h-969v340h447v764h340v-764h182q39 0 85 11q47 11 80 36q36 27 57 70q22 46 22 113v534h340v-522z" />
    <glyph glyph-name="uniFEB6" unicode="&#x634;" horiz-adv-x="3020" arabic-form="final" 
d="M2046 555v-12v-2q5 -129 65 -188q61 -60 166 -60q111 0 165 61q55 63 55 170v799h337v-762q0 -113 -16 -184q33 -27 108 -45q79 -19 175 -19v-340q-112 0 -179 16q-61 14 -109 41q-45 25 -76 57q-30 31 -30 30q-113 -164 -430 -164q-61 0 -121 9q-56 8 -117 34
q-57 24 -106 64t-67 73q-55 -59 -169 -110q-112 -50 -235 -50h-184v-256h-498q-86 0 -171 10q-76 9 -142 30q-63 20 -121 56q-53 33 -104 81q-83 77 -114 194q-32 120 -32 248v696h340v-661q0 -88 18 -148t58 -94q50 -41 124 -56q80 -16 165 -16h137v1123h340v-867h184
q39 0 85 11q47 11 80 36q36 27 57 70q22 46 22 113v534h340v-522zM2095 1313q-70 0 -125 43t-55 127q0 76 52 122t128 46q78 0 130 -46t52 -122q0 -84 -55 -127t-127 -43zM1661 1313q-70 0 -125 43t-55 127q0 76 52 122t128 46q77 0 129 -46q53 -47 53 -122q0 -84 -56 -127
t-126 -43zM1878 1638q-62 0 -113 39t-51 113q0 68 47 110t117 42q71 0 117 -42q47 -42 47 -110q0 -74 -50 -113q-49 -39 -114 -39z" />
    <glyph glyph-name="uniFEB7" unicode="&#x634;" horiz-adv-x="2392" arabic-form="initial" 
d="M-27 313h447v764h340v-764h182q39 0 85 11q47 11 80 36q36 27 57 70q22 46 22 113v534h340v-522q0 -138 62 -200t169 -62q111 0 165 61t54 170v799h338v-762q0 -308 -138 -458t-419 -150q-62 0 -122 9q-55 8 -116 34q-57 24 -106 64t-67 73q-55 -59 -169 -110
q-112 -50 -235 -50h-969v340zM1573 1313q-70 0 -125 43t-55 127q0 76 52 122t128 46q78 0 130 -46t52 -122q0 -84 -55 -127t-127 -43zM1139 1313q-70 0 -125 43q-56 44 -56 127q0 75 53 122q52 46 128 46q77 0 129 -46q53 -47 53 -122q0 -84 -56 -127t-126 -43zM1356 1638
q-62 0 -113 39t-51 113q0 68 47 110t117 42t117 -42t47 -110q0 -73 -51 -113q-49 -39 -113 -39z" />
    <glyph glyph-name="uniFEB8" unicode="&#x634;" horiz-adv-x="2516" arabic-form="medial" 
d="M1528 543v-2q5 -129 65 -188q61 -60 166 -60q111 0 165 61t54 170v799h338v-762q0 -60 -4 -103q-5 -53 -10 -77q28 -26 108 -47q78 -21 179 -21v-340q-109 0 -179 16q-65 15 -112 42q-52 30 -78 59q-4 4 -8 8.5t-7 7.5l-5.5 5.5t-4 4.5t-2.5 3l-1 1l-1 1
q-111 -168 -432 -168q-62 0 -122 9q-55 8 -116 34q-57 24 -106 64t-67 73q-55 -59 -169 -110q-112 -50 -235 -50h-969v340h447v764h340v-764h182q39 0 85 11q47 11 80 36q36 27 57 70q22 46 22 113v534h340v-534zM1571 1313q-70 0 -125 43t-55 127q0 76 52 122t128 46
q78 0 130 -46t52 -122q0 -84 -55 -127t-127 -43zM1137 1313q-70 0 -125 43q-56 44 -56 127q0 75 53 122q52 46 128 46q77 0 129 -46q53 -47 53 -122q0 -84 -56 -127t-126 -43zM1354 1638q-62 0 -113 39t-51 113q0 68 47 110t117 42t116 -42q48 -43 48 -110q0 -73 -51 -113
q-49 -39 -113 -39z" />
    <glyph glyph-name="uniFEBA" unicode="&#x635;" horiz-adv-x="2611" arabic-form="final" 
d="M782 -283q-86 0 -171 10q-76 9 -142 30q-63 20 -121 56q-53 33 -104 81q-83 77 -114 194q-32 120 -32 248v696h340v-661q0 -88 18 -148t58 -94q50 -41 124 -56q80 -16 165 -16h137v1162h340v-142h606q142 0 253 -38q108 -37 192 -124q72 -77 99 -187q28 -115 28 -243
v-172h221v-340h-1399v-256h-498zM1280 739v-426h838v185q0 54 -13 99q-12 42 -37 73q-23 31 -63 50q-39 19 -90 19h-635z" />
    <glyph glyph-name="uniFEBB" unicode="&#x635;" horiz-adv-x="1761" arabic-form="initial" 
d="M-27 313h201v867h340v-103h598q142 0 253 -38q107 -36 191 -124q74 -78 100 -187q27 -111 27 -243v-512h-1710v340zM514 739v-426h829v185q0 57 -12 99t-37 73q-23 31 -63 50q-39 19 -90 19h-627z" />
    <glyph glyph-name="uniFEBC" unicode="&#x635;" horiz-adv-x="1839" arabic-form="medial" 
d="M-27 313h201v867h340v-103h598q142 0 253 -38q107 -36 191 -124q74 -78 100 -187q27 -111 27 -243v-172h222v-340h-1932v340zM514 739v-426h829v185q0 57 -12 99t-37 73q-23 31 -63 50q-39 19 -90 19h-627z" />
    <glyph glyph-name="uniFEBE" unicode="&#x636;" horiz-adv-x="2611" arabic-form="final" 
d="M782 -283q-86 0 -171 10q-76 9 -142 30q-63 20 -121 56q-53 33 -104 81q-83 77 -114 194q-32 120 -32 248v696h340v-661q0 -88 18 -148t58 -94q50 -41 124 -56q80 -16 165 -16h137v1162h340v-142h606q142 0 253 -38q108 -37 192 -124q72 -77 99 -187q28 -115 28 -243
v-172h221v-340h-1399v-256h-498zM1280 739v-426h838v185q0 54 -13 99q-12 42 -37 73q-23 31 -63 50q-39 19 -90 19h-635zM1677 1208q-76 0 -135 46t-59 135q0 80 56 129t138 49q83 0 139 -49t56 -129q0 -89 -60 -135q-59 -46 -135 -46z" />
    <glyph glyph-name="uniFEBF" unicode="&#x636;" horiz-adv-x="1761" arabic-form="initial" 
d="M-27 313h201v867h340v-103h598q142 0 253 -38q107 -36 191 -124q74 -78 100 -187q27 -111 27 -243v-512h-1710v340zM514 739v-426h829v185q0 57 -12 99t-37 73q-23 31 -63 50q-39 19 -90 19h-627zM922 1208q-77 0 -136 46t-59 135q0 80 56 129t139 49q82 0 138 -49
t56 -129q0 -89 -59 -135t-135 -46z" />
    <glyph glyph-name="uniFEC0" unicode="&#x636;" horiz-adv-x="1839" arabic-form="medial" 
d="M-27 313h201v867h340v-103h598q142 0 253 -38q107 -36 191 -124q74 -78 100 -187q27 -111 27 -243v-172h222v-340h-1932v340zM514 739v-426h829v185q0 57 -12 99t-37 73q-23 31 -63 50q-39 19 -90 19h-627zM922 1208q-77 0 -136 46t-59 135q0 80 56 129t139 49
q82 0 138 -49t56 -129q0 -89 -59 -135t-135 -46z" />
    <glyph glyph-name="uniFEC2" unicode="&#x637;" horiz-adv-x="1875" arabic-form="final" 
d="M10 313h201v1375h340v-611h598q142 0 253 -38q107 -36 191 -124q74 -78 100 -187q27 -111 27 -243v-172h224v-340h-1934v340zM551 739v-426h829v185q0 57 -12 99t-37 73q-23 31 -63 50q-39 19 -90 19h-627z" />
    <glyph glyph-name="uniFEC3" unicode="&#x637;" horiz-adv-x="1761" arabic-form="initial" 
d="M-27 313h201v1375h340v-611h598q142 0 253 -38q107 -36 191 -124q74 -78 100 -187q27 -111 27 -243v-512h-1710v340zM514 739v-426h829v185q0 57 -12 99t-37 73q-23 31 -63 50q-39 19 -90 19h-627z" />
    <glyph glyph-name="uniFEC4" unicode="&#x637;" horiz-adv-x="1839" arabic-form="medial" 
d="M-27 313h201v1375h340v-611h598q142 0 253 -38q107 -36 191 -124q74 -78 100 -187q27 -111 27 -243v-172h222v-340h-1932v340zM514 739v-426h829v185q0 57 -12 99t-37 73q-23 31 -63 50q-39 19 -90 19h-627z" />
    <glyph glyph-name="uniFEC6" unicode="&#x638;" horiz-adv-x="1875" arabic-form="final" 
d="M10 313h201v1375h340v-611h598q142 0 253 -38q107 -36 191 -124q74 -78 100 -187q27 -111 27 -243v-172h224v-340h-1934v340zM551 739v-426h829v185q0 57 -12 99t-37 73q-23 31 -63 50q-39 19 -90 19h-627zM967 1208q-77 0 -136 46t-59 135q0 80 56 129t139 49
q82 0 138 -49t56 -129q0 -89 -59 -135t-135 -46z" />
    <glyph glyph-name="uniFEC7" unicode="&#x638;" horiz-adv-x="1761" arabic-form="initial" 
d="M-27 313h201v1375h340v-611h598q142 0 253 -38q107 -36 191 -124q74 -78 100 -187q27 -111 27 -243v-512h-1710v340zM514 739v-426h829v185q0 57 -12 99t-37 73q-23 31 -63 50q-39 19 -90 19h-627zM928 1208q-76 0 -135 46q-60 46 -60 135q0 79 57 129q56 49 138 49
t138 -49t56 -129q0 -89 -59 -135t-135 -46z" />
    <glyph glyph-name="uniFEC8" unicode="&#x638;" horiz-adv-x="1839" arabic-form="medial" 
d="M-27 313h201v1375h340v-611h598q142 0 253 -38q107 -36 191 -124q74 -78 100 -187q27 -111 27 -243v-172h222v-340h-1932v340zM514 739v-426h829v185q0 57 -12 99t-37 73q-23 31 -63 50q-39 19 -90 19h-627zM928 1208q-76 0 -135 46q-60 46 -60 135q0 79 57 129
q56 49 138 49t138 -49t56 -129q0 -89 -59 -135t-135 -46z" />
    <glyph glyph-name="uniFECA" unicode="&#x639;" horiz-adv-x="1497" arabic-form="final" 
d="M238 -483q-94 133 -138 261q-45 132 -45 302q0 113 23 233h287l-246 633q90 78 164 130q79 56 154 94q81 41 164 63q84 22 177 22q184 0 345 -84q164 -86 317 -227l-238 -631h363v-340h-1166v-4q0 -69 22 -144q20 -68 85 -183zM778 899q-80 0 -149 -26t-127 -68l174 -492
h209l172 494q-67 45 -130 69q-62 23 -149 23z" />
    <glyph glyph-name="uniFECB" unicode="&#x639;" horiz-adv-x="1261" arabic-form="initial" 
d="M-27 313h207q-14 30 -43 124q-26 85 -26 192q0 153 60 269t155 194q78 64 175 95q101 32 214 32q115 0 225 -31q106 -30 234 -96l-115 -312q-95 54 -166 76q-80 25 -143 25q-129 0 -207 -64q-49 -43 -70 -95q-20 -50 -20 -116q0 -97 26 -169q26 -73 68 -124h663v-340
h-1237v340z" />
    <glyph glyph-name="uniFECC" unicode="&#x639;" horiz-adv-x="1441" arabic-form="medial" 
d="M-27 313h334l-246 633q90 78 164 130q77 54 155 94q81 41 164 63q84 22 177 22q185 0 345 -84q162 -85 316 -227l-237 -631h364v-340h-1536v340zM721 899q-81 0 -150 -26t-127 -68l174 -492h209l172 494q-67 45 -130 69q-62 23 -148 23z" />
    <glyph glyph-name="uniFECE" unicode="&#x63a;" horiz-adv-x="1497" arabic-form="final" 
d="M238 -483q-94 133 -138 261q-45 132 -45 302q0 113 23 233h287l-246 633q90 78 164 130q79 56 154 94q81 41 164 63q84 22 177 22q184 0 345 -84q164 -86 317 -227l-238 -631h363v-340h-1166v-4q0 -69 22 -144q20 -68 85 -183zM778 899q-80 0 -149 -26t-127 -68l174 -492
h209l172 494q-67 45 -130 69q-62 23 -149 23zM766 1337q-76 0 -135 46q-60 47 -60 135q0 80 57 129q56 49 138 49t138 -49q57 -49 57 -129q0 -88 -60 -135q-59 -46 -135 -46z" />
    <glyph glyph-name="uniFECF" unicode="&#x63a;" horiz-adv-x="1261" arabic-form="initial" 
d="M-27 313h207q-14 30 -43 124q-26 85 -26 192q0 153 60 269t155 194q78 64 175 95q101 32 214 32q115 0 225 -31q106 -30 234 -96l-115 -312q-95 54 -166 76q-80 25 -143 25q-129 0 -207 -64q-49 -43 -70 -95q-20 -50 -20 -116q0 -97 26 -169q26 -73 68 -124h663v-340
h-1237v340zM676 1337q-76 0 -135 46q-60 47 -60 135q0 80 57 129q56 49 138 49t138 -49t56 -129q0 -89 -59 -135t-135 -46z" />
    <glyph glyph-name="uniFED0" unicode="&#x63a;" horiz-adv-x="1441" arabic-form="medial" 
d="M-27 313h334l-246 633q90 78 164 130q77 54 155 94q81 41 164 63q84 22 177 22q185 0 345 -84q162 -85 316 -227l-237 -631h364v-340h-1536v340zM721 899q-81 0 -150 -26t-127 -68l174 -492h209l172 494q-67 45 -130 69q-62 23 -148 23zM717 1337q-76 0 -135 46
q-60 47 -60 135q0 80 57 129q56 49 138 49t138 -49t56 -129q0 -89 -59 -135t-135 -46z" />
    <glyph glyph-name="uniFED2" unicode="&#x641;" horiz-adv-x="2224" arabic-form="final" 
d="M762 -27q-86 0 -171 10q-76 9 -142 30q-63 20 -121 56q-56 35 -105 81q-82 76 -113 194q-32 120 -32 248v414h340v-379q0 -91 17 -148q18 -59 59 -94q51 -42 123 -56q80 -16 165 -16h281q-18 23 -44 97q-28 79 -28 168q0 142 52 252t148 191q92 77 226 119q129 40 289 40
h365v-867h219v-340h-1528zM1331 578q0 -88 39 -156q41 -70 98 -109h263v527h-95q-56 0 -113 -18q-59 -19 -99 -50q-42 -33 -67 -82q-26 -50 -26 -112zM1649 1300q-75 0 -136 47q-59 46 -59 134q0 80 56 129t139 49q82 0 138 -49t56 -129q0 -88 -59 -134q-61 -47 -135 -47z
" />
    <glyph glyph-name="uniFED3" unicode="&#x641;" horiz-adv-x="1294" arabic-form="initial" 
d="M-27 313h248q-18 23 -44 97q-27 76 -27 168q0 142 52 252q53 112 147 191q92 77 226 119q129 40 289 40h365v-1207h-1256v340zM489 578q0 -88 39 -156q40 -69 99 -109h262v527h-94q-57 0 -114 -18t-98 -50q-43 -34 -68 -82q-26 -50 -26 -112zM778 1300q-74 0 -135 47
q-59 46 -59 134q0 80 56 129t138 49t138 -49q57 -50 57 -129q0 -87 -60 -134q-61 -47 -135 -47z" />
    <glyph glyph-name="uniFED4" unicode="&#x641;" horiz-adv-x="1351" arabic-form="medial" 
d="M-27 313h248q-18 23 -44 97q-27 76 -27 168q0 142 52 252q53 112 147 191q92 77 226 119q129 40 289 40h365v-867h190v-340h-1446v340zM489 578q0 -88 39 -156q40 -69 99 -109h262v527h-94q-57 0 -114 -18t-98 -50q-43 -34 -68 -82q-26 -50 -26 -112zM776 1300
q-74 0 -135 47q-59 46 -59 134q0 80 56 129t138 49t138 -49q57 -50 57 -129q0 -87 -60 -134q-61 -47 -135 -47z" />
    <glyph glyph-name="uniFED6" unicode="&#x642;" horiz-adv-x="1849" arabic-form="final" 
d="M764 -477q-94 0 -171 9q-71 8 -142 31q-67 21 -121 55q-56 34 -105 81q-81 75 -113 195t-32 247v475h340v-440q0 -90 17 -147q18 -60 59 -95q50 -41 124 -56q75 -15 164 -15h570v110h-11q-153 0 -283 34q-132 35 -232 107q-99 72 -156 188q-58 118 -58 276q0 140 56 252
q57 114 152 190q99 79 231 119q135 41 290 41h351v-867h221v-340h-221v-450h-930zM954 578q0 -66 24 -115q25 -51 63 -82q39 -32 97 -50q57 -18 122 -18h94v527h-94q-58 0 -116 -20q-57 -20 -98 -53q-44 -36 -67 -82q-25 -50 -25 -107zM1499 1300q-74 0 -131 46
q-55 45 -55 129q0 77 54 124q56 48 132 48q79 0 133 -48t54 -124q0 -84 -56 -129q-57 -46 -131 -46zM1055 1300q-74 0 -131 46q-56 45 -56 129q0 77 55 124q56 48 132 48t132 -48q54 -47 54 -124q0 -84 -55 -129q-57 -46 -131 -46z" />
    <glyph glyph-name="uniFED7" unicode="&#x642;" horiz-adv-x="1294" arabic-form="initial" 
d="M-27 313h248q-18 23 -44 97q-27 76 -27 168q0 142 52 252q53 112 147 191q92 77 226 119q129 40 289 40h365v-1207h-1256v340zM489 578q0 -88 39 -156q40 -69 99 -109h262v527h-94q-57 0 -114 -18t-98 -50q-43 -34 -68 -82q-26 -50 -26 -112zM1004 1300q-75 0 -132 46
q-55 45 -55 129q0 77 54 124q56 48 133 48q79 0 133 -48q53 -47 53 -124q0 -84 -55 -129q-57 -46 -131 -46zM559 1300q-74 0 -131 46q-55 45 -55 129q0 77 54 124q56 48 132 48t132 -48q54 -47 54 -124q0 -84 -55 -129q-57 -46 -131 -46z" />
    <glyph glyph-name="uniFED8" unicode="&#x642;" horiz-adv-x="1349" arabic-form="medial" 
d="M-27 313h248q-18 23 -44 97q-27 76 -27 168q0 142 52 252q53 112 147 191q92 77 226 119q129 40 289 40h365v-867h188v-340h-1444v340zM489 578q0 -88 39 -156q40 -69 99 -109h262v527h-94q-57 0 -114 -18t-98 -50q-43 -34 -68 -82q-26 -50 -26 -112zM1004 1300
q-75 0 -132 46q-55 45 -55 129q0 77 54 124q56 48 133 48q79 0 133 -48q53 -47 53 -124q0 -84 -55 -129q-57 -46 -131 -46zM559 1300q-74 0 -131 46q-55 45 -55 129q0 77 54 124q56 48 132 48t132 -48q54 -47 54 -124q0 -84 -55 -129q-57 -46 -131 -46z" />
    <glyph glyph-name="uniFEDA" unicode="&#x643;" horiz-adv-x="1951" arabic-form="final" 
d="M840 -27q-86 0 -171 10q-77 9 -143 30q-61 19 -120 56q-56 35 -105 81q-83 77 -114 194t-31 248v414h340v-379q0 -91 17 -148q18 -60 58 -94q50 -41 124 -56q80 -16 165 -16h547v1375h340v-1375h221v-340h-1128zM719 864q0 151 77 216t208 65h149v-146h-133
q-49 0 -67 -18q-17 -17 -17 -57v-29h283v-207h-500v176z" />
    <glyph glyph-name="uniFEDB" unicode="&#x643;" horiz-adv-x="1671" arabic-form="initial" 
d="M-27 313h1276v193q0 57 -12 99t-37 73q-23 31 -63 50q-42 20 -90 20h-869q-49 65 -79 139q-28 69 -33 178l342 623h368l-317 -603h559q145 0 253 -37q107 -36 191 -124q73 -78 100 -188q27 -111 27 -242v-521h-1616v340z" />
    <glyph glyph-name="uniFEDC" unicode="&#x643;" horiz-adv-x="1742" arabic-form="medial" 
d="M-27 313h1276v193q0 57 -12 99t-37 73q-23 31 -63 50q-42 20 -90 20h-869q-49 65 -79 139q-28 69 -33 178l342 623h368l-317 -603h559q145 0 253 -37q107 -36 191 -124q73 -78 100 -188q27 -111 27 -242v-181h219v-340h-1835v340z" />
    <glyph glyph-name="uniFEDE" unicode="&#x644;" horiz-adv-x="1462" arabic-form="final" 
d="M770 -283q-86 0 -171 10q-76 9 -142 30q-63 20 -121 56q-56 35 -105 81q-82 76 -113 194q-32 120 -32 248v696h340v-661q0 -91 17 -148q18 -59 59 -94q50 -41 124 -56q80 -16 165 -16h137v1631h475v-340h-135v-1035h262v-340h-262v-256h-498z" />
    <glyph glyph-name="uniFEDF" unicode="&#x644;" horiz-adv-x="702" arabic-form="initial" 
d="M-27 313h201v1375h473v-340h-133v-1375h-541v340z" />
    <glyph glyph-name="uniFEE0" unicode="&#x644;" horiz-adv-x="708" arabic-form="medial" 
d="M-27 313h201v1375h340v-1375h262v-340h-803v340z" />
    <glyph glyph-name="uniFEE2" unicode="&#x645;" horiz-adv-x="1970" arabic-form="final" 
d="M1171 -252q-107 0 -203 34q-99 35 -177 94q-81 61 -140 142q-60 82 -82 158q-82 -6 -129 -70q-31 -42 -43 -106q-12 -66 -12 -143v-334h-340v338q0 162 38 285q38 122 120 212q34 38 80 69q43 29 93 49q44 18 98 31q45 11 71 11q17 96 71 193q56 101 140 173t190 114
t225 42q133 0 253 -50q118 -50 207 -138q90 -90 139 -207q51 -122 51 -258q0 -20 -2 -54l-2 -20h221v-340h-373q-81 -97 -213 -161q-133 -64 -281 -64zM1171 88q63 0 121 23q59 23 100 63q40 39 65 96q24 55 24 121q0 65 -23 123t-63 98t-99 65q-55 23 -125 23
q-65 0 -119 -24q-52 -23 -95 -66q-39 -39 -62 -98q-23 -58 -23 -121q0 -62 23 -120q22 -56 62 -96q38 -38 96 -63q55 -24 118 -24z" />
    <glyph glyph-name="uniFEE3" unicode="&#x645;" horiz-adv-x="1495" arabic-form="initial" 
d="M-27 313h191l-3 34q-3 34 -3 71q0 135 50 255q49 117 136 207q86 89 203 140t250 51t253 -50q117 -49 206 -138q92 -92 140 -207q50 -120 50 -258t-52 -254q-52 -115 -143 -202q-88 -84 -207 -134q-116 -49 -247 -49q-137 0 -257 54q-118 53 -202 140h-365v340zM797 119
q64 0 120 22q57 22 100 64q40 39 65 96q24 56 24 121t-23 123t-63 98q-41 41 -98 65q-55 23 -125 23q-66 0 -120 -24q-50 -22 -94 -66q-40 -40 -63 -98q-22 -56 -22 -121q0 -64 22 -120q22 -55 63 -96q40 -40 95 -64q53 -23 119 -23z" />
    <glyph glyph-name="uniFEE4" unicode="&#x645;" horiz-adv-x="1593" arabic-form="medial" 
d="M-27 313h191l-3 34q-3 34 -3 71q0 135 50 255q49 117 136 207q86 89 203 140t250 51t253 -50q117 -49 206 -138q92 -92 140 -207q50 -120 50 -258q0 -40 -4 -71l-4 -34h223v-340h-397q-83 -89 -205 -141q-124 -53 -262 -53q-137 0 -257 54q-118 53 -202 140h-365v340z
M797 119q64 0 120 22q57 22 100 64q40 39 65 96q24 56 24 121t-23 123t-63 98q-41 41 -98 65q-55 23 -125 23q-66 0 -120 -24q-50 -22 -94 -66q-40 -40 -63 -98q-22 -56 -22 -121q0 -64 22 -120q22 -55 63 -96q40 -40 95 -64q53 -23 119 -23z" />
    <glyph glyph-name="uniFEE6" unicode="&#x646;" horiz-adv-x="1423" arabic-form="final" 
d="M770 -283q-86 0 -171 10q-76 9 -142 30q-63 20 -121 56q-56 35 -105 81q-82 76 -113 194q-32 120 -32 248v696h340v-661q0 -91 17 -148q18 -59 59 -94q50 -41 124 -56q80 -16 165 -16h137v975h340v-719h221v-340h-221v-256h-498zM692 1161q-76 0 -135 46t-59 134
q0 80 56 129q58 50 138 50t138 -50q57 -50 57 -129q0 -87 -60 -134q-59 -46 -135 -46z" />
    <glyph glyph-name="uniFEE7" unicode="&#x646;" horiz-adv-x="663" arabic-form="initial" 
d="M391 1300q-74 0 -135 47q-59 46 -59 134q0 80 56 129t138 49t138 -49q57 -50 57 -129q0 -87 -60 -134q-61 -47 -135 -47zM-27 313h254v867h340v-1207h-594v340z" />
    <glyph glyph-name="uniFEE8" unicode="&#x646;" horiz-adv-x="720" arabic-form="medial" 
d="M-27 313h254v867h340v-867h219v-340h-813v340zM389 1300q-74 0 -135 47q-59 46 -59 134q0 80 56 129t138 49t138 -49q57 -50 57 -129q0 -87 -60 -134q-61 -47 -135 -47z" />
    <glyph glyph-name="uniFEE9" unicode="&#x647;" horiz-adv-x="1265" arabic-form="isolated" 
d="M813 -27q-158 0 -290 36t-229 112q-99 77 -153 189q-55 113 -55 265q0 132 49 242q49 111 144 192t229 126q135 45 305 45h14v102h340v-1309h-354zM827 313v527h-84q-56 0 -116 -19t-103 -52q-44 -34 -71 -82t-27 -112q0 -63 25 -113q24 -48 66 -81q40 -32 97 -50
q56 -18 115 -18h98z" />
    <glyph glyph-name="uniFEEA" unicode="&#x647;" horiz-adv-x="1290" arabic-form="final" 
d="M1356 313v-340h-543q-158 0 -290 36t-229 112q-99 77 -153 189q-55 113 -55 265q0 132 49 242q49 111 144 192t229 126q135 45 305 45h14v102h340v-969h189zM827 313v527h-84q-56 0 -116 -19t-103 -52q-44 -34 -71 -82t-27 -112q0 -63 25 -113q24 -48 66 -81
q40 -32 97 -50q56 -18 115 -18h98z" />
    <glyph glyph-name="uniFEEB" unicode="&#x647;" horiz-adv-x="1650" arabic-form="initial" 
d="M-27 313h228q0 -1 -6 39q-7 47 -7 82q0 240 120 370t331 130q98 0 182 -36q87 -37 145 -101q59 -65 94 -158q34 -90 34 -203q0 -36 -5 -83q-1 -8 -2 -15t-1.5 -11.5t-1 -8t-0.5 -4.5l-1 -1h131q4 28 9 79q4 43 4 89q0 115 -25 210q-23 86 -78 173q-67 100 -173 149
q-109 50 -275 50q-126 0 -234 -42q-115 -45 -215 -101l-114 311q159 81 320 128q157 46 317 46q115 0 214 -26t177 -70q77 -44 142 -107q60 -59 112 -131q87 -127 130 -289q42 -159 42 -350q0 -56 -7 -111q-8 -59 -18 -117q-13 -75 -24 -114q-19 -70 -35 -117h-1510v340z
M498 440q0 -39 5 -82t5 -45h266q0 2 5 45t5 82q0 88 -38 137q-37 48 -107 48q-72 0 -107 -47q-34 -46 -34 -138z" />
    <glyph glyph-name="uniFEEC" unicode="&#x647;" horiz-adv-x="1683" arabic-form="medial" 
d="M-27 313h228q0 -1 -6 39q-7 47 -7 82q0 240 120 370t331 130q98 0 182 -36q87 -37 145 -101q59 -65 94 -158q34 -90 34 -203q0 -36 -5 -83q-1 -8 -2 -15t-1.5 -11.5t-1 -8t-0.5 -4.5l-1 -1h131q4 28 9 79q4 43 4 89q0 115 -25 210q-23 86 -78 173q-67 100 -173 149
q-109 50 -275 50q-126 0 -234 -42q-115 -45 -215 -101l-114 311q159 81 320 128q157 46 317 46q115 0 214 -26t177 -70q77 -44 142 -107q60 -59 112 -131q87 -127 130 -289q42 -159 42 -350q0 -69 -8 -119h192v-340h-1778v340zM498 440q0 -39 5 -82t5 -45h266q0 2 5 45t5 82
q0 88 -38 137q-37 48 -107 48q-72 0 -107 -47q-34 -46 -34 -138z" />
    <glyph glyph-name="uniFEEE" unicode="&#x648;" horiz-adv-x="1288" arabic-form="final" 
d="M1163 313h191v-340h-197q-6 -80 -39 -167q-34 -88 -98 -150q-67 -64 -167 -98q-103 -35 -243 -35q-43 0 -79 3q-35 3 -70 9q-15 3 -72 14l-102 29l-25 346q113 -36 189 -49q69 -12 139 -12q52 0 99 5q43 5 69 19q28 15 42 41q16 28 17 45h-2q-154 0 -284 34
q-131 34 -231 107t-157 188t-57 276q0 142 55 252q56 113 153 190q99 79 230 119q135 41 291 41h350zM426 578q0 -66 24 -115q25 -51 63 -82q39 -32 96 -50t122 -18h94v527h-94q-58 0 -116 -20q-57 -20 -98 -53q-42 -35 -66 -82q-25 -50 -25 -107z" />
    <glyph glyph-name="uniFEF0" unicode="&#x649;" horiz-adv-x="2213" arabic-form="final" 
d="M760 -283q-86 0 -171 10q-77 9 -143 30q-61 19 -120 56q-56 35 -105 81q-82 76 -113 194q-32 120 -32 248v475h340v-440q0 -91 17 -148q18 -59 59 -94q51 -42 123 -56q80 -16 165 -16h273v551q0 150 44 265t142 192q77 61 180 87q109 28 228 28h413v-867h219v-340h-559
v867h-104q-47 0 -88 -11q-40 -11 -69 -34t-48 -72q-18 -47 -18 -96v-910h-633z" />
    <glyph glyph-name="uniFEF2" unicode="&#x64a;" horiz-adv-x="2072" arabic-form="final" 
d="M1579 840h-104q-48 0 -89 -11q-38 -10 -68 -34q-29 -23 -48 -72t-19 -96v-910h-620q-104 0 -189 8q-86 8 -148 23q-70 17 -130 43q-66 29 -154 78l137 301q126 -71 209 -91q90 -22 183 -22h372v551q0 150 44 265q43 113 143 192q77 61 180 87q109 28 227 28h414v-867h219
v-340h-559v867zM588 164q-76 0 -135 46q-60 47 -60 134q0 80 57 129q56 49 138 49t138 -49t56 -129q0 -88 -59 -134t-135 -46zM588 598q-76 0 -135 46q-60 46 -60 134q0 80 57 129q56 49 138 49t138 -49t56 -129q0 -88 -59 -134t-135 -46z" />
    <glyph glyph-name="uniFEF3" unicode="&#x64a;" horiz-adv-x="872" arabic-form="initial" 
d="M229 -463q-72 0 -130 44q-56 43 -56 128q0 78 54 126t132 48t132 -48q55 -49 55 -126q0 -85 -57 -128q-58 -44 -130 -44zM674 -463q-72 0 -130 44q-57 43 -57 128q0 77 55 126q54 48 132 48q80 0 133 -48t53 -126q0 -85 -56 -128q-58 -44 -130 -44zM-25 313h428v867h340
v-1207h-768v340z" />
    <glyph glyph-name="uniFEF4" unicode="&#x64a;" horiz-adv-x="1050" arabic-form="medial" 
d="M-27 313h428v867h340v-867h377v-340h-1145v340zM778 -463q-72 0 -130 44q-56 43 -56 128q0 78 54 126t132 48q80 0 133 -48q54 -49 54 -126q0 -85 -57 -128q-58 -44 -130 -44zM334 -463q-72 0 -130 44q-57 43 -57 128q0 77 55 126q54 48 132 48t132 -48t54 -126
q0 -85 -56 -128q-58 -44 -130 -44z" />
    <glyph glyph-name=".notdef" horiz-adv-x="1024" 
 />
    <glyph glyph-name=".null" horiz-adv-x="1024" 
 />
    <glyph glyph-name=".null" horiz-adv-x="1024" 
 />
    <glyph glyph-name="nonmarkingreturn" horiz-adv-x="1024" 
 />
    <glyph glyph-name="space" unicode=" " horiz-adv-x="614" 
 />
    <glyph glyph-name="space" unicode="&#xa0;" horiz-adv-x="614" 
 />
    <glyph glyph-name="exclam" unicode="!" horiz-adv-x="714" 
d="M356 -49q-40 0 -78 12q-39 12 -69 38q-31 27 -50 61q-20 37 -20 79t20 80t50 62q29 23 69 39q35 14 78 14q42 0 78 -14q40 -15 68 -39t48 -62q19 -37 19 -80q0 -44 -19 -79q-19 -36 -49 -61q-31 -26 -68 -38t-77 -12zM184 1688h340v-1229h-340v1229z" />
    <glyph glyph-name="quotedbl" unicode="&#x22;" horiz-adv-x="989" 
d="M68 1688h364l-57 -709h-248zM557 1688h363l-58 -709h-246z" />
    <glyph glyph-name="numbersign" unicode="#" horiz-adv-x="1691" 
d="M481 1270l58 418h272l-57 -418h303l57 418h270l-57 -418h336l-49 -273h-324l-43 -321h334l-49 -273h-322l-57 -430h-272l57 430h-303l-57 -430h-271l58 430h-336l49 273h323l43 321h-333l49 273h321zM674 676h303l43 321h-303z" />
    <glyph glyph-name="dollar" unicode="$" horiz-adv-x="1474" 
d="M592 -45q-129 7 -275 47q-142 39 -260 111l140 309q67 -43 122 -67t119 -39q57 -13 129 -25q63 -10 129 -10q79 0 134 11q61 12 104 36q41 23 66 60q24 36 24 85q0 46 -19 78q-19 33 -57 57q-40 25 -93 45t-126 37l-137 35q-234 57 -356 191q-121 133 -121 331
q0 193 136 313q135 119 341 146v223h293v-219q109 -12 236 -51q125 -39 239 -107l-139 -309q-114 73 -239 108q-119 33 -241 33q-53 0 -103 -9t-87 -27q-35 -17 -57 -45q-21 -27 -21 -62q0 -70 55 -112q54 -41 189 -76l139 -35q102 -27 203 -73q98 -44 170 -109
q74 -66 117 -157q43 -90 43 -208q0 -109 -39 -197q-38 -86 -110 -152q-73 -66 -168 -106q-98 -41 -187 -51v-233h-293v223z" />
    <glyph glyph-name="percent" unicode="%" horiz-adv-x="2205" 
d="M494 682q-104 0 -183 38t-131 106q-54 71 -79 163q-25 93 -25 211t25 211q25 92 79 163q52 68 131 106t183 38q102 0 183 -38q80 -38 132 -106q53 -68 79 -163q25 -93 25 -211t-25 -211q-25 -92 -79 -163q-52 -68 -132 -106q-81 -38 -183 -38zM494 969q56 0 94 50
q37 49 37 181t-37 182q-38 52 -94 52q-57 0 -95 -52q-37 -50 -37 -182t37 -181q38 -50 95 -50zM326 -25l1198 1713h358l-1198 -1713h-358zM1710 -53q-103 0 -182 38t-131 106q-53 68 -79 163q-26 96 -26 211t26 211q25 92 79 163q52 68 131 106t182 38q102 0 183 -38
q80 -38 132 -106q54 -71 79 -163q26 -96 26 -211t-26 -211q-25 -92 -79 -163q-52 -68 -132 -106q-81 -38 -183 -38zM1710 233q55 0 94 51q37 49 37 181t-37 182q-38 51 -94 51t-94 -51q-37 -50 -37 -182t37 -181q39 -51 94 -51z" />
    <glyph glyph-name="ampersand" unicode="&#x26;" horiz-adv-x="1800" 
d="M682 -51q-144 0 -263 36q-117 36 -203 105t-132 168q-47 100 -47 221q0 184 106 311t299 195q-51 58 -104 154q-49 89 -49 194q0 86 39 158q40 73 107 123q69 51 164 78q91 26 208 26q128 0 221 -29q98 -31 165 -86t102 -135q34 -77 34 -172q0 -62 -20 -122
q-22 -65 -66 -124q-47 -63 -113 -114q-68 -53 -131 -80l230 -248q27 47 61 135q31 80 53 199h353q-29 -182 -93 -325t-147 -250l365 -394h-437l-153 162q-100 -79 -242 -132q-144 -54 -307 -54zM690 268q100 0 188 32q86 31 136 69l-361 383q-139 -39 -202 -105
q-60 -63 -60 -149q0 -52 22 -96q21 -41 61 -71t95 -46q57 -17 121 -17zM641 1317q0 -59 46 -115q54 -66 101 -117q109 35 157 92t48 111q0 67 -52 101t-125 34q-75 0 -124 -26q-51 -27 -51 -80z" />
    <glyph glyph-name="quotesingle" unicode="'" horiz-adv-x="499" 
d="M68 1688h364l-57 -709h-248z" />
    <glyph glyph-name="parenleft" unicode="(" horiz-adv-x="667" 
d="M66 608q0 165 27 321q26 152 73 295q47 145 101 254q59 119 118 210h344q-80 -134 -139 -262q-56 -122 -96 -251q-42 -136 -65 -276q-23 -138 -23 -291q0 -152 23 -290q23 -139 65 -277q40 -133 96 -255q58 -127 139 -263h-344q-60 93 -118 211q-55 113 -101 257
q-47 148 -73 298q-27 157 -27 319z" />
    <glyph glyph-name="parenright" unicode=")" horiz-adv-x="665" 
d="M600 608q0 -156 -28 -319q-26 -153 -71 -298q-41 -132 -100 -257q-57 -121 -116 -211h-346q78 131 140 263q53 112 96 255q42 138 65 277q24 144 24 290q0 148 -24 290q-23 139 -65 276q-41 135 -95 252q-57 124 -141 262h346q58 -89 116 -210t100 -254q44 -140 71 -295
q28 -162 28 -321z" />
    <glyph glyph-name="asterisk" unicode="*" horiz-adv-x="978" 
d="M600 1411l274 94l78 -213l-276 -94l168 -231l-182 -136l-175 236l-163 -236l-189 132l166 233l-274 96l75 215l271 -96v277h227v-277z" />
    <glyph glyph-name="plus" unicode="+" horiz-adv-x="1382" 
d="M520 424h-452v319h452v437h342v-437h451v-319h-451v-451h-342v451z" />
    <glyph glyph-name="comma" unicode="," horiz-adv-x="616" 
d="M209 307h364l-288 -674h-287z" />
    <glyph glyph-name="hyphen" unicode="-" horiz-adv-x="835" 
d="M68 743h700v-319h-700v319z" />
    <glyph glyph-name="period" unicode="." horiz-adv-x="589" 
d="M295 -49q-41 0 -79 12q-36 12 -68 37q-29 23 -49 60q-19 35 -19 79q0 46 19 81q20 38 48 61q26 22 68 38q39 15 80 15t80 -15q40 -15 67 -38q28 -23 48 -61q20 -37 20 -81q0 -42 -20 -79t-49 -60q-32 -26 -67 -37q-38 -12 -79 -12z" />
    <glyph glyph-name="slash" unicode="/" horiz-adv-x="1263" 
d="M1036 1688h334l-1137 -2022h-339z" />
    <glyph glyph-name="zero" unicode="0" horiz-adv-x="1409" 
d="M705 285q128 0 193 107q67 110 67 310q0 201 -67 311q-65 107 -193 107t-195 -107q-68 -109 -68 -311q0 -201 68 -310q67 -107 195 -107zM705 -49q-153 0 -267 57q-113 57 -192 158t-116 237q-38 138 -38 299t38 299q38 137 116 238q79 101 192 158q114 57 267 57
q150 0 264 -57q113 -57 192 -158q78 -100 117 -238q39 -137 39 -299t-39 -299t-117 -237q-79 -101 -192 -158q-114 -57 -264 -57z" />
    <glyph glyph-name="one" unicode="1" horiz-adv-x="819" 
d="M336 1038l-322 -71v315l662 148v-1457h-340v1065z" />
    <glyph glyph-name="two" unicode="2" horiz-adv-x="1241" 
d="M547 1120q-89 0 -161 -30q-69 -29 -167 -105l-156 301q116 87 247 127q134 41 272 41q108 0 209 -26q97 -25 173 -78q72 -50 119 -137q45 -83 45 -193q0 -111 -39 -203q-41 -96 -115 -190q-76 -96 -183 -188q-106 -92 -181 -146h533v-320h-1075v297l266 195
q121 92 223 183q95 85 157 169q58 79 58 146q0 40 -17 68q-18 30 -47 49q-30 20 -72 30q-40 10 -89 10z" />
    <glyph glyph-name="three" unicode="3" horiz-adv-x="1251" 
d="M547 -49q-71 0 -137 10q-75 11 -138 31q-68 21 -129 48t-125 77l152 305q96 -77 174 -107q80 -30 168 -30q58 0 110 9q51 9 90 29q37 19 58 46t21 63t-20 61q-17 21 -57 37q-37 15 -97 21q-59 6 -128 6h-73v324h69q68 0 128 5q53 4 86 17q31 12 44 31q13 20 13 51
q0 60 -65 98q-64 37 -173 37q-88 0 -167 -30q-74 -28 -173 -105l-151 303q115 85 251 125q138 41 271 41q116 0 222 -28q99 -26 176 -80q74 -52 117 -133q42 -80 42 -177q0 -60 -14 -109q-15 -54 -40 -96q-24 -40 -50 -65q-27 -26 -39 -31q50 -18 115 -107t65 -233
q0 -106 -45 -190q-44 -82 -125 -140q-78 -56 -189 -85q-110 -29 -237 -29z" />
    <glyph glyph-name="four" unicode="4" horiz-adv-x="1384" 
d="M752 291h-703v299l637 817h406v-797h208v-319h-208v-318h-340v318zM752 610v428l-330 -428h330z" />
    <glyph glyph-name="five" unicode="5" horiz-adv-x="1331" 
d="M633 -49q-152 0 -288 40q-139 41 -277 124l155 309q61 -50 101 -69q50 -24 90 -37q49 -16 94 -23q50 -8 92 -8q51 0 105 8q47 7 88 30q36 20 58 53q21 32 21 81q0 47 -18 79q-17 30 -53 52q-34 21 -85 30q-49 9 -110 9q-51 0 -101 -7q-59 -8 -108 -18q-65 -13 -103 -23
q-54 -15 -130 -42l104 868h879v-320h-600l-19 -151q11 2 55 5q47 3 91 3q102 0 197 -22q99 -23 177 -79t127 -152q48 -95 48 -236q0 -123 -48 -217t-129 -159q-81 -64 -188 -96q-108 -32 -225 -32z" />
    <glyph glyph-name="six" unicode="6" horiz-adv-x="1282" 
d="M641 -49q-111 0 -214 39t-182 109q-77 69 -125 170q-46 98 -46 218q0 157 55 279q56 125 145 240l308 401h438l-318 -383q-32 4 -31 6q0 1 4 1q10 1 30 1q91 0 181 -38t161 -109q72 -71 115 -172q44 -102 44 -226q0 -119 -46 -217q-47 -100 -125 -169t-181 -110
q-101 -40 -213 -40zM641 285q101 0 158 61q57 62 57 152q0 88 -57 149q-57 62 -158 62q-103 0 -160 -62q-57 -61 -57 -149q0 -90 57 -152q57 -61 160 -61z" />
    <glyph glyph-name="seven" unicode="7" horiz-adv-x="1214" 
d="M754 1090h-705v317h1100v-299l-680 -1135h-406z" />
    <glyph glyph-name="eight" unicode="8" horiz-adv-x="1380" 
d="M690 1454q102 0 196 -24t172 -76t124 -129q47 -79 47 -185q0 -51 -16 -107q-14 -49 -41 -95q-25 -42 -45 -64q-19 -21 -40 -31q6 -2 45 -34q40 -33 70 -79q31 -49 50 -106q20 -62 20 -131q0 -119 -54 -203t-139 -137q-88 -55 -185 -78q-102 -24 -204 -24t-204 24
q-97 23 -185 78q-83 52 -138 137q-54 84 -54 203q0 71 18 131q17 58 50 106q31 45 72 79q40 33 44 34q-21 10 -40 31q-20 22 -45 64q-27 46 -41 95q-15 53 -15 107q0 106 47 185q46 77 124 129t172 76q95 24 195 24zM690 586q-107 0 -167 -42t-60 -110q0 -65 61 -107
q62 -42 166 -42t166 42t62 107q0 67 -61 110q-60 42 -167 42zM690 1120q-84 0 -138 -33t-54 -86q0 -43 48 -81q47 -37 144 -37q98 0 144 36q47 36 47 82q0 52 -54 86q-53 33 -137 33z" />
    <glyph glyph-name="nine" unicode="9" horiz-adv-x="1282" 
d="M641 1454q111 0 213 -39t181 -109q77 -69 125 -170q46 -98 46 -218q0 -159 -56 -278q-60 -129 -140 -241l-308 -426h-436l303 398q13 4 35 4h-29q-89 0 -179 38q-87 37 -160 107q-72 69 -117 170q-45 100 -45 228q0 119 46 217q47 100 125 169t181 110q101 40 215 40z
M641 1120q-103 0 -160 -60t-57 -151q0 -89 57 -151t160 -62q101 0 158 62t57 151q0 92 -56 151q-57 60 -159 60z" />
    <glyph glyph-name="colon" unicode=":" horiz-adv-x="608" 
d="M305 -49q-41 0 -79 12q-35 11 -67 37q-29 23 -49 60t-20 79q0 44 20 81q20 38 48 61q27 23 67 38q39 15 80 15q39 0 78 -15q42 -16 68 -38q28 -23 48 -61q19 -35 19 -81q0 -44 -19 -79q-20 -37 -49 -60q-32 -25 -68 -37q-38 -12 -77 -12zM305 752q-41 0 -79 12
q-36 11 -67 38q-30 25 -49 61q-20 37 -20 81q0 42 20 79q20 36 48 60q29 24 67 39q39 15 80 15q39 0 78 -15q40 -15 68 -39q29 -24 48 -60q19 -35 19 -79q0 -46 -19 -81q-19 -36 -49 -61q-31 -26 -68 -38q-38 -12 -77 -12z" />
    <glyph glyph-name="semicolon" unicode=";" horiz-adv-x="645" 
d="M209 307h364l-288 -674h-287zM371 752q-41 0 -79 12q-37 12 -68 38q-30 25 -49 61q-19 35 -19 81q0 44 19 79q19 36 48 60q28 24 68 39q39 15 80 15q39 0 76 -15q41 -16 69 -39q31 -25 50 -60q20 -37 20 -79q0 -44 -20 -81q-19 -34 -50 -61q-30 -26 -69 -38
q-38 -12 -76 -12z" />
    <glyph glyph-name="less" unicode="&#x3c;" horiz-adv-x="1386" 
d="M1319 1219v-330l-842 -316l842 -309v-332l-1251 488v311z" />
    <glyph glyph-name="equal" unicode="=" horiz-adv-x="1247" 
d="M68 1008h1112v-320h-1112v320zM68 481h1112v-321h-1112v321z" />
    <glyph glyph-name="greater" unicode="&#x3e;" horiz-adv-x="1386" 
d="M1319 731v-311l-1251 -488v349l837 292l-837 301v345z" />
    <glyph glyph-name="question" unicode="?" horiz-adv-x="1163" 
d="M469 -51q-42 0 -80 13q-41 14 -70 39q-32 27 -50 62q-19 37 -19 82t19 82q20 38 49 63t70 40q38 14 81 14q42 0 80 -13q41 -14 71 -40q32 -27 51 -64t19 -82q0 -46 -19 -83q-20 -38 -51 -62q-32 -25 -71 -38q-38 -13 -80 -13zM463 1384q-95 0 -184 -22q-94 -23 -220 -78
l45 358q86 35 176 56q84 20 212 20t238 -37q115 -39 196 -107q84 -71 131 -170q47 -100 47 -222q0 -116 -39 -204q-40 -91 -103 -157q-62 -65 -152 -110q-87 -43 -161 -60v-192h-340v456h51q75 0 153 13q73 12 125 42q53 30 82 74q30 45 30 111q0 51 -25 95q-23 40 -66 72
q-39 29 -92 46q-49 16 -104 16z" />
    <glyph glyph-name="at" unicode="@" horiz-adv-x="1923" 
d="M1405 336q-102 0 -174 60q-71 59 -76 96q-18 -33 -112 -92q-92 -58 -228 -58q-71 0 -140 27q-70 28 -119 82q-52 59 -81 139q-31 87 -31 196q0 105 34 206q35 103 100 183q66 81 158 130t212 49q102 0 181 -54q78 -55 85 -75q-19 -110 -22 -109q-2 0 1 38q8 94 17 161
h220l-72 -539q-6 -51 -6 -90q0 -72 18 -100q18 -29 60 -29q36 0 71 24q38 26 64 72q28 49 45 122q16 70 16 169q0 140 -45 245q-46 107 -126 175t-197 106q-114 37 -254 37q-154 0 -286 -53q-127 -51 -221 -145q-93 -93 -142 -219q-50 -129 -50 -277q0 -138 41 -255
q41 -116 120 -200q80 -85 191 -132q112 -48 256 -48q105 0 224 24q118 24 241 87l86 -215q-87 -39 -152 -60q-66 -22 -137 -37q-53 -12 -136 -21q-62 -7 -126 -7q-192 0 -346 65q-156 66 -267 183q-112 118 -173 276t-61 346q0 193 72 359q70 162 200 286q127 121 299 190
q170 68 371 68q174 0 327 -45q154 -45 272 -141q117 -95 184 -242q67 -148 67 -342q0 -144 -38 -260q-37 -111 -103 -193q-64 -79 -145 -121t-167 -42zM950 1126q-57 0 -103 -27q-45 -26 -79 -74q-33 -46 -51 -110q-19 -67 -19 -133q0 -114 43 -164q43 -51 127 -51
q61 0 109 28q46 27 81 77q32 47 51 113q17 61 17 139q0 101 -46 151q-46 51 -130 51z" />
    <glyph glyph-name="A" unicode="A" horiz-adv-x="1628" 
d="M1647 -27h-367l-141 392h-652l-139 -392h-366l634 1715h396zM604 694h418l-209 584z" />
    <glyph glyph-name="B" unicode="B" horiz-adv-x="1564" 
d="M1403 1243q0 -111 -61 -215q-60 -103 -119 -129q21 -7 82 -52q63 -47 104 -104q41 -58 60 -122q20 -68 20 -134q0 -137 -55 -235q-54 -97 -145 -160q-88 -61 -202 -90t-229 -29h-680v1715h598q162 0 277 -34q116 -34 194 -94q77 -59 117 -142q39 -81 39 -175zM1130 494
q0 61 -20 95q-21 36 -59 58q-40 23 -101 32q-62 9 -141 9h-283v-387h291q167 0 240 46t73 147zM1044 1192q0 75 -62 121q-64 47 -224 47h-232v-342h232q156 0 221 43t65 131z" />
    <glyph glyph-name="C" unicode="C" horiz-adv-x="1585" 
d="M965 1384q-112 0 -205 -32q-98 -34 -169 -102q-73 -70 -116 -172t-43 -244q0 -143 43 -245q44 -104 116 -173q73 -70 169 -103q93 -32 205 -32q121 0 220 32q102 33 216 105l135 -312q-128 -79 -275 -118t-309 -39q-202 0 -366 66t-280 187q-115 120 -178 281
q-62 159 -62 351q0 191 62 350q63 161 178 281q116 121 280 187t366 66q164 0 309 -40q148 -41 275 -119l-135 -310q-115 71 -215 103q-99 32 -221 32z" />
    <glyph glyph-name="D" unicode="D" horiz-adv-x="1699" 
d="M637 301q144 0 265 29q117 28 199 92q81 63 125 166t44 252q0 138 -45 237q-44 97 -125 161q-77 61 -196 92q-116 30 -257 30h-121v-1059h111zM178 1688h465q205 0 392 -54q181 -52 315 -159q131 -104 209 -267q75 -156 75 -368q0 -207 -72 -369q-71 -160 -204 -273
q-130 -110 -310 -168q-179 -57 -393 -57h-477v1715z" />
    <glyph glyph-name="E" unicode="E" horiz-adv-x="1402" 
d="M178 1688h1114v-328h-766v-342h695v-332h-695v-385h770v-328h-1118v1715z" />
    <glyph glyph-name="F" unicode="F" horiz-adv-x="1325" 
d="M178 -27v1715h1112v-328h-764v-342h691v-332h-691v-713h-348z" />
    <glyph glyph-name="G" unicode="G" horiz-adv-x="1804" 
d="M952 -51q-202 0 -366 66t-280 187q-115 120 -178 281q-62 159 -62 351q0 191 62 350q63 161 178 281q116 121 280 187t366 66q186 0 347 -40q165 -41 292 -119l-133 -310q-116 71 -232 103t-261 32q-112 0 -205 -32q-98 -34 -169 -102q-73 -70 -116 -172t-43 -244
q0 -143 43 -245q44 -104 116 -173q73 -70 169 -103q93 -32 205 -32q90 0 171 17q88 19 142 44v256h-371v332h719v-817q-76 -48 -155 -76q-84 -29 -168 -48q-88 -19 -179 -30q-86 -10 -172 -10z" />
    <glyph glyph-name="H" unicode="H" horiz-adv-x="1798" 
d="M178 -27v1715h348v-670h744v670h350v-1715h-350v713h-744v-713h-348z" />
    <glyph glyph-name="I" unicode="I" horiz-adv-x="704" 
d="M178 -27v1715h348v-1715h-348z" />
    <glyph glyph-name="J" unicode="J" horiz-adv-x="1060" 
d="M96 360q74 -43 136 -62q57 -17 130 -17q82 0 127 46q46 48 46 167v1194h348v-1207q0 -138 -33 -240q-33 -101 -93 -166t-148 -95q-90 -31 -191 -31q-145 0 -252 29q-113 30 -201 79z" />
    <glyph glyph-name="K" unicode="K" horiz-adv-x="1568" 
d="M178 -27v1715h348v-779l609 779h428l-689 -850l732 -865h-441l-639 781v-781h-348z" />
    <glyph glyph-name="L" unicode="L" horiz-adv-x="1306" 
d="M528 301h764v-328h-1114v1715h350v-1387z" />
    <glyph glyph-name="M" unicode="M" horiz-adv-x="2134" 
d="M864 -27l-338 1246v-1246h-348v1715h547l342 -1319l346 1319h543v-1715h-348v1244l-336 -1244h-408z" />
    <glyph glyph-name="N" unicode="N" horiz-adv-x="1759" 
d="M522 1257v-1284h-344v1715h498l563 -1285v1285h342v-1715h-496z" />
    <glyph glyph-name="O" unicode="O" horiz-adv-x="1908" 
d="M1843 834q0 -192 -65 -350q-65 -159 -185 -280t-280 -188q-161 -67 -359 -67q-197 0 -358 67q-162 68 -281 188q-118 119 -184 280q-65 158 -65 350q0 188 65 348q66 162 184 280q119 119 281 188q160 68 358 68q199 0 359 -68t280 -188t185 -280t65 -348zM1479 834
q0 127 -40 228q-39 99 -110 173q-68 71 -166 111q-94 38 -209 38q-112 0 -206 -38q-98 -40 -166 -111q-71 -74 -110 -173q-40 -101 -40 -228q0 -128 40 -229q39 -99 110 -173q67 -70 166 -110q96 -39 206 -39q113 0 209 39q99 40 166 110q71 74 110 173q40 101 40 229z" />
    <glyph glyph-name="P" unicode="P" horiz-adv-x="1476" 
d="M526 594v-621h-348v1715h649q161 0 284 -46q122 -46 198 -119q77 -74 115 -171t38 -199q0 -108 -39 -210q-39 -101 -118 -179q-78 -77 -200 -124q-119 -46 -278 -46h-301zM526 1360v-438h238q82 0 140 11q64 12 106 37q43 25 65 68q23 44 23 109q0 109 -79 161t-255 52
h-238z" />
    <glyph glyph-name="Q" unicode="Q" horiz-adv-x="1908" 
d="M1843 834q0 -206 -76 -377q-77 -175 -194 -275l258 -272l-180 -182l-291 309q-172 -88 -406 -88q-197 0 -358 67q-162 68 -281 188q-118 119 -184 280q-65 158 -65 350q0 188 65 348q66 162 184 280q119 119 281 188q160 68 358 68q199 0 359 -68t280 -188t185 -280
t65 -348zM1479 834q0 127 -40 228q-39 99 -110 173q-68 71 -166 111q-94 38 -209 38q-112 0 -206 -38q-98 -40 -166 -111q-71 -74 -110 -173q-40 -101 -40 -228q0 -128 40 -229q39 -99 110 -173q66 -69 166 -111q95 -40 206 -40q105 0 156 18l-164 178l182 174l205 -215
q58 54 102 159q44 106 44 239z" />
    <glyph glyph-name="R" unicode="R" horiz-adv-x="1601" 
d="M778 629h-252v-656h-348v1715h649q165 0 286 -44q119 -43 198 -119q76 -73 113 -170q36 -95 36 -196q0 -78 -19 -148q-20 -72 -62 -139q-41 -65 -110 -117q-68 -52 -132 -73l440 -709h-393zM526 1360v-422h236q80 0 143 9t105 34q39 23 63 66q23 41 23 106q0 111 -79 159
t-255 48h-236z" />
    <glyph glyph-name="S" unicode="S" horiz-adv-x="1474" 
d="M197 422q67 -43 122 -67t119 -39q57 -13 129 -25q63 -10 129 -10q79 0 134 11q61 12 104 36q41 23 66 60q24 36 24 85q0 44 -19 75t-57 55q-36 23 -93 41t-126 36l-137 35q-234 57 -356 191q-121 133 -121 331q0 108 46 197q47 91 130 153t198 97q112 34 254 34
q87 0 163 -11q85 -12 160 -33q76 -21 147 -48q68 -26 147 -74l-139 -309q-114 73 -239 108q-119 33 -241 33q-59 0 -106 -10q-49 -10 -86 -31q-36 -20 -56 -48t-20 -64q0 -70 55 -113t189 -76l139 -34q105 -28 203 -71q96 -42 170 -107q73 -64 117 -153q43 -87 43 -206
q0 -123 -54 -225q-52 -97 -144 -164q-88 -64 -216 -99q-123 -34 -270 -34q-96 0 -177 11q-95 13 -170 32q-86 22 -153 47q-69 26 -148 74z" />
    <glyph glyph-name="T" unicode="T" horiz-adv-x="1484" 
d="M567 1360h-553v328h1456v-328h-552v-1387h-351v1387z" />
    <glyph glyph-name="U" unicode="U" horiz-adv-x="1794" 
d="M897 -51q-198 0 -339 54q-137 53 -230 150q-89 93 -130 224q-40 127 -40 274v1037h348v-969q0 -115 20 -194q21 -84 66 -136q47 -54 119 -81q73 -27 186 -27q111 0 184 27q72 27 119 81q46 54 67 136t21 194v969h348v-1037q0 -147 -40 -274q-41 -131 -130 -224
q-93 -97 -230 -150q-141 -54 -339 -54z" />
    <glyph glyph-name="V" unicode="V" horiz-adv-x="1599" 
d="M4 1688h383l412 -1297l415 1297h381l-583 -1715h-424z" />
    <glyph glyph-name="W" unicode="W" horiz-adv-x="2195" 
d="M1538 487l246 1201h383l-395 -1715h-455l-219 1254l-219 -1254h-455l-395 1715h381l245 -1201l213 1201h457z" />
    <glyph glyph-name="X" unicode="X" horiz-adv-x="1644" 
d="M1020 864l635 -891h-408l-432 607l-432 -607h-393l628 881l-593 834h409l389 -549l391 549h396z" />
    <glyph glyph-name="Y" unicode="Y" horiz-adv-x="1536" 
d="M1147 1688h403l-606 -1072v-643h-350v643l-608 1072h403l379 -717z" />
    <glyph glyph-name="Z" unicode="Z" horiz-adv-x="1544" 
d="M158 1688h1257v-310l-889 -1077h912v-328h-1352v310l891 1077h-819v328z" />
    <glyph glyph-name="bracketleft" unicode="[" horiz-adv-x="688" 
d="M139 1688h545v-261h-205v-1644h205v-260h-545v2165z" />
    <glyph glyph-name="backslash" unicode="\" horiz-adv-x="1263" 
d="M1370 -334h-340l-1136 2022h333z" />
    <glyph glyph-name="bracketright" unicode="]" horiz-adv-x="688" 
d="M549 -477h-545v260h205v1644h-205v261h545v-2165z" />
    <glyph glyph-name="asciicircum" unicode="^" horiz-adv-x="1138" 
d="M1169 811h-311l-289 590l-290 -590h-310l449 877h301z" />
    <glyph glyph-name="underscore" unicode="_" horiz-adv-x="1241" 
d="M68 27h1108v-322h-1108v322z" />
    <glyph glyph-name="grave" unicode="`" horiz-adv-x="587" 
d="M-35 1688h365l284 -340h-301z" />
    <glyph glyph-name="a" unicode="a" horiz-adv-x="1294" 
d="M838 479q-8 2 -71 11q-56 8 -97 8q-51 0 -99 -8q-49 -8 -77 -21q-34 -16 -50 -37q-16 -22 -16 -55q0 -62 62 -89q65 -28 163 -28q49 0 105 8q39 6 80 17v194zM649 -51q-111 0 -214 21q-98 20 -182 69q-78 46 -128 126q-49 79 -49 193q0 104 43 183q44 81 119 132
q77 53 178 78q100 25 223 25q47 0 104 -3q53 -3 107 -11q-12 68 -76 99q-63 30 -176 30q-40 0 -94 -8q-45 -7 -105 -22q-48 -12 -103 -32q-49 -18 -136 -59l45 356q88 42 196 68q111 27 236 27q112 0 213 -26q97 -25 172 -83t115 -150q41 -94 41 -225v-690
q-128 -51 -264 -75q-128 -23 -265 -23z" />
    <glyph glyph-name="b" unicode="b" horiz-adv-x="1368" 
d="M479 299q74 -16 152 -16q163 0 253 71q91 72 91 228q0 155 -92 230q-91 75 -252 75q-35 0 -80 -5q-29 -3 -72 -14v-569zM479 1208q29 4 80 9q44 4 92 4q151 0 277 -50q127 -51 214 -136q90 -88 137 -202q48 -115 48 -251q0 -135 -47 -250q-47 -116 -137 -201
q-91 -87 -220 -134q-131 -48 -294 -48q-258 0 -490 65v1674h340v-480z" />
    <glyph glyph-name="c" unicode="c" horiz-adv-x="1142" 
d="M41 584q0 138 48 253t135 201q88 87 205 134q121 49 257 49q121 0 222 -26q98 -25 212 -83l-137 -307q-79 45 -144 63q-68 19 -141 19q-66 0 -126 -22q-56 -21 -95 -61q-40 -41 -60 -95q-22 -58 -22 -125t22 -125q21 -55 60 -94q41 -41 95 -61q57 -21 126 -21
q80 0 141 17q66 18 144 67l137 -312q-116 -59 -212 -82q-99 -24 -222 -24q-138 0 -257 48t-205 133q-87 86 -135 201t-48 253z" />
    <glyph glyph-name="d" unicode="d" horiz-adv-x="1370" 
d="M395 582q0 -156 91 -228q90 -71 253 -71q78 0 152 16v569q-43 11 -73 14q-47 5 -79 5q-161 0 -252 -75q-92 -75 -92 -230zM891 1688h340v-1674q-233 -65 -490 -65q-163 0 -294 48q-130 48 -221 133q-92 86 -138 201q-47 117 -47 251q0 136 48 251t138 202q89 86 215 136
t277 50q47 0 91 -4q53 -5 81 -9v480z" />
    <glyph glyph-name="e" unicode="e" horiz-adv-x="1333" 
d="M739 283q40 0 91 8q47 7 93 20q45 12 80 30q37 19 82 62l154 -311q-114 -64 -241 -104q-124 -39 -298 -39q-140 0 -262 48t-210 133q-89 86 -138 202t-49 252q0 138 50 256q48 114 137 201q88 87 203 133q117 47 249 47q138 0 256 -50q117 -49 201 -144q85 -95 128 -231
q44 -138 38 -333h-906q16 -75 101 -128q83 -52 211 -52h30zM676 913q-110 0 -181 -55q-72 -56 -87 -104h534q-15 64 -86 111q-72 48 -180 48z" />
    <glyph glyph-name="f" unicode="f" horiz-adv-x="1042" 
d="M25 1180h217v84q0 220 117 321q120 103 368 103h301v-320h-299q-52 0 -79 -9q-28 -9 -43 -27q-16 -19 -20 -47q-5 -33 -5 -75v-30h438v-320h-438v-887h-340v887h-217v320z" />
    <glyph glyph-name="g" unicode="g" horiz-adv-x="1370" 
d="M891 868q-7 1 -69 12q-41 7 -83 7q-161 0 -253 -69q-91 -69 -91 -218q0 -148 91 -218q92 -71 253 -71q32 0 79 5q28 3 73 12v540zM41 600q0 132 47 247q46 113 138 196q96 86 221 131q132 47 294 47q253 0 490 -68v-1065q0 -154 -31 -267q-30 -111 -106 -179
q-78 -70 -195 -100q-115 -29 -295 -29q-42 0 -81 4q-61 6 -89 11q-60 10 -89 16q-41 8 -95 26l-76 364q83 -36 139 -53q34 -10 106 -26q64 -14 105 -19q51 -6 92 -6q66 0 115 10q50 10 87 32q36 21 54 51q19 32 19 73v-6q-29 -6 -81 -9q-70 -4 -91 -4q-150 0 -277 49
q-124 48 -215 131q-90 83 -138 196q-48 114 -48 247z" />
    <glyph glyph-name="h" unicode="h" horiz-adv-x="1359" 
d="M479 1200q23 4 95 13q64 8 110 8q107 0 214 -22q99 -20 178 -79q78 -58 122 -154q45 -98 45 -245v-748h-340v666q0 146 -57 197t-174 51q-46 0 -100 -6q-31 -3 -93 -13v-895h-340v1715h340v-488z" />
    <glyph glyph-name="i" unicode="i" horiz-adv-x="616" 
d="M139 1180h340v-1207h-340v1207zM309 1307q-76 0 -135 46t-59 134q0 80 56 129t138 49t137 -49q56 -50 56 -129q0 -81 -55 -131q-53 -49 -138 -49z" />
    <glyph glyph-name="j" unicode="j" horiz-adv-x="659" 
d="M55 -487q-27 0 -55 3q-29 3 -74 15l-39 322q80 -20 103 -22q28 -3 55 -3q79 0 107 49t28 186v1117h340v-1082q0 -158 -20 -264q-21 -111 -75 -183q-55 -74 -145 -106q-89 -32 -225 -32zM350 1307q-76 0 -135 46t-59 134q0 80 56 129t138 49t137 -49q56 -50 56 -129
q0 -81 -55 -131q-53 -49 -138 -49z" />
    <glyph glyph-name="k" unicode="k" horiz-adv-x="1247" 
d="M139 -27v1715h340v-1022l389 514h406l-453 -598l482 -609h-412l-412 521v-521h-340z" />
    <glyph glyph-name="l" unicode="l" horiz-adv-x="618" 
d="M139 -27v1715h340v-1715h-340z" />
    <glyph glyph-name="m" unicode="m" horiz-adv-x="2004" 
d="M1548 641q0 147 -47 197q-46 49 -153 49q-50 0 -101 -11q-54 -12 -92 -30q19 -37 20 -39q0 -1 1 -5t2 -13.5t2 -17.5q5 -32 6 -64q2 -44 2 -58v-676h-340v668q0 76 -12 124q-12 49 -36 74q-23 25 -63 37q-36 11 -96 11q-42 0 -84 -8l-78 -13v-893h-340v1180
q150 27 288 48q131 20 218 20q93 0 188 -20q92 -19 142 -60q84 32 186 55q113 25 197 25q104 0 206 -22q96 -21 170 -79q73 -58 113 -154q41 -99 41 -245v-748h-340v668z" />
    <glyph glyph-name="n" unicode="n" horiz-adv-x="1359" 
d="M139 1157q60 11 162 28q46 8 141 18q68 7 131 12q82 6 111 6q107 0 214 -22q99 -20 178 -79q78 -58 122 -154q45 -98 45 -245v-748h-340v666q0 146 -57 197t-174 51q-46 0 -100 -6q-31 -3 -93 -13v-895h-340v1184z" />
    <glyph glyph-name="o" unicode="o" horiz-adv-x="1384" 
d="M692 -51q-140 0 -257 49q-118 49 -206 133q-89 84 -138 201q-50 118 -50 252q0 135 50 250q49 114 138 201q88 87 206 136q120 50 257 50t257 -50q118 -49 206 -136q89 -87 138 -201q50 -115 50 -250q0 -134 -50 -252q-49 -117 -138 -201q-88 -84 -206 -133
q-117 -49 -257 -49zM692 283q72 0 124 23q55 24 93 64q40 41 60 95q20 53 20 119q0 65 -20 118q-21 56 -60 96q-38 40 -93 64q-56 25 -124 25t-124 -25q-55 -24 -93 -64q-37 -39 -59 -96q-21 -56 -21 -118q0 -64 21 -119q21 -56 59 -95q38 -40 93 -64q52 -23 124 -23z" />
    <glyph glyph-name="p" unicode="p" horiz-adv-x="1370" 
d="M479 299q34 -7 73 -11q47 -5 81 -5q162 0 252 74q92 75 92 229q0 156 -92 228q-93 73 -252 73q-44 0 -85 -7q-62 -11 -69 -12v-569zM479 -477h-340v1630q125 37 246 52q126 16 244 16q162 0 294 -50q130 -49 221 -133q92 -85 138 -200q47 -118 47 -252q0 -136 -48 -251
q-48 -116 -137 -202q-88 -85 -215 -135q-125 -49 -278 -49q-39 0 -91 3t-81 9v-438z" />
    <glyph glyph-name="q" unicode="q" horiz-adv-x="1370" 
d="M395 586q0 -154 92 -229q90 -74 252 -74q32 0 79 5q39 4 73 11v569q-7 1 -69 12q-41 7 -83 7q-159 0 -252 -73q-92 -72 -92 -228zM891 -39q-29 -6 -81 -9q-53 -3 -91 -3q-154 0 -277 49q-127 51 -215 134q-90 86 -138 202q-48 117 -48 252q0 134 47 252q46 115 138 200
q91 84 221 133q132 50 294 50q253 0 490 -68v-1630h-340v438z" />
    <glyph glyph-name="r" unicode="r" horiz-adv-x="897" 
d="M862 870h-190q-27 0 -47 -1q-45 -2 -65 -4t-94 -11q-26 -3 -27 -0.5t27 12.5q6 2 13 4v-897h-340v1172q59 12 137 23q82 12 122 16q32 3 118 10q51 4 102 4h244v-328z" />
    <glyph glyph-name="s" unicode="s" horiz-adv-x="1226" 
d="M606 283q85 0 136 16q53 17 53 47t-32 50q-31 19 -136 40l-92 17q-203 39 -322 131t-119 254q0 175 137 279t371 104q134 0 271 -28q133 -27 251 -93l-123 -316q-66 34 -111 50q-43 15 -99 28q-58 14 -105 19q-53 6 -100 6q-154 0 -154 -49q0 -24 33 -45t135 -39l90 -17
q244 -47 352 -143q109 -97 109 -264q0 -82 -36 -153t-105 -122q-71 -52 -173 -79q-103 -27 -239 -27q-66 0 -143 8q-61 6 -142 24q-73 16 -132 37t-132 64l129 332q104 -69 209 -100t219 -31z" />
    <glyph glyph-name="t" unicode="t" horiz-adv-x="1083" 
d="M14 1180h217v422h340v-422h439v-320h-439v-391q0 -51 10 -89q8 -32 27 -51q17 -17 54 -27q34 -9 88 -9h268v-320h-299q-120 0 -214 20q-91 19 -154 66q-62 46 -91 123q-29 78 -29 185v493h-217v320z" />
    <glyph glyph-name="u" unicode="u" horiz-adv-x="1314" 
d="M836 1180h340v-1139q-66 -22 -139 -43q-56 -16 -117 -28q-56 -11 -124 -16q-72 -5 -141 -5q-115 0 -214 24q-98 24 -175 84q-75 59 -118 155q-42 95 -42 237v731h340v-650q0 -147 47 -197t154 -50q45 0 96 6q57 7 93 16v875z" />
    <glyph glyph-name="v" unicode="v" horiz-adv-x="1228" 
d="M399 -27l-415 1207h356l274 -824l275 824h356l-416 -1207h-430z" />
    <glyph glyph-name="w" unicode="w" horiz-adv-x="1851" 
d="M1100 -27l-174 795l-176 -795h-426l-328 1207h369l190 -789l176 789h387l178 -789l189 789h370l-321 -1207h-434z" />
    <glyph glyph-name="x" unicode="x" horiz-adv-x="1300" 
d="M854 592l477 -619h-403l-277 357l-278 -357h-404l480 621l-453 586h405l250 -324l250 324h408z" />
    <glyph glyph-name="y" unicode="y" horiz-adv-x="1316" 
d="M121 -66q83 -36 139 -53q34 -10 106 -26q64 -14 105 -19q51 -6 92 -6q66 0 115 10q50 10 87 32q36 21 54 51l19 30l12 37q-100 -21 -215 -21q-108 0 -210 22q-95 20 -169 79q-72 57 -111 154q-39 98 -39 245v713h343v-631q0 -76 12 -124q12 -47 35 -75q21 -26 60 -38
q34 -11 93 -11q45 0 95 6q45 5 94 19v854h340v-1094q0 -154 -31 -267q-30 -110 -107 -179q-78 -71 -194 -100q-115 -29 -295 -29q-42 0 -81 4q-61 6 -89 11q-60 10 -89 16q-41 8 -95 26z" />
    <glyph glyph-name="z" unicode="z" horiz-adv-x="1193" 
d="M104 1180h994v-301l-588 -586h608v-320h-1063v303l598 584h-549v320z" />
    <glyph glyph-name="braceleft" unicode="{" horiz-adv-x="747" 
d="M596 -477q-110 0 -183 16q-74 16 -123 61t-67 116q-18 72 -18 180v348q0 52 -6 95q-6 45 -21 73t-42 45q-27 16 -101 18v262q72 1 101 19q27 17 42 46q15 31 21 72q6 44 6 97v344q0 107 18 179q18 73 67 117q48 43 123 60q77 17 183 17h147v-261h-92q-42 0 -65 -5
q-20 -4 -28 -14q-7 -8 -10 -35q-3 -26 -3 -70v-361q0 -85 -16 -151q-15 -61 -45 -105q-30 -43 -69 -65q-43 -24 -79 -35v45q38 -12 79 -36q39 -23 69 -67t45 -104q16 -66 16 -152v-364q0 -46 3 -71q3 -27 10 -35q8 -10 28 -14q23 -5 65 -5h92v-260h-147z" />
    <glyph glyph-name="bar" unicode="|" horiz-adv-x="616" 
d="M139 1688h340v-2165h-340v2165z" />
    <glyph glyph-name="braceright" unicode="}" horiz-adv-x="747" 
d="M150 -477h-146v260h74q42 0 69 5q25 5 35 15t15 35q4 21 4 70v364q0 90 15 152q15 60 45 104q30 43 70 67q41 24 79 36v-45q-36 11 -79 35q-41 23 -70 65q-30 44 -45 105q-15 62 -15 151v361q0 48 -4 69q-5 25 -15 35t-35 15q-27 5 -69 5h-74v261h146q106 0 183 -17
q75 -17 123 -60t66 -117q19 -76 19 -179v-344q0 -53 6 -97q6 -41 21 -72q14 -28 43 -46t102 -19v-262q-75 -2 -102 -18q-28 -17 -43 -45t-21 -73q-6 -43 -6 -95v-348q0 -104 -19 -180q-18 -73 -66 -116q-49 -45 -123 -61q-73 -16 -183 -16z" />
    <glyph glyph-name="asciitilde" unicode="~" horiz-adv-x="1269" 
d="M848 655q45 0 72 27q25 25 36 133h258q-2 -236 -79 -352q-78 -117 -240 -117q-72 0 -139 26q-57 22 -125 56q-60 30 -111 54t-96 24q-47 0 -74 -27q-26 -27 -37 -133h-256q0 233 79 351t239 118q81 0 149 -25q57 -21 129 -57l111 -55q46 -23 84 -23z" />
    <glyph glyph-name="exclamdown" unicode="&#xa1;" horiz-adv-x="714" 
d="M352 1282q42 0 79 -12q39 -12 69 -38t50 -62q19 -35 19 -78t-19 -80q-20 -38 -50 -62q-29 -23 -69 -39q-35 -14 -79 -14q-42 0 -77 14q-38 15 -68 39q-31 25 -49 62q-19 40 -19 80t19 78q18 35 49 62q31 26 68 38t77 12zM524 -477h-340v1251h340v-1251z" />
    <glyph glyph-name="cent" unicode="&#xa2;" horiz-adv-x="1142" 
d="M608 -47q-103 6 -212 57q-108 50 -188 135q-79 84 -123 197q-44 114 -44 242q0 125 44 239q43 113 123 198q79 85 188 136q113 53 212 60v198h150v-196q79 -4 170 -29q79 -21 192 -78l-137 -307q-72 40 -130 58q-59 19 -95 20v-598q103 6 225 82l137 -312
q-109 -54 -192 -77q-82 -22 -170 -27v-201h-150v203zM395 584q0 -123 66 -202t147 -91v586q-79 -12 -147 -93q-66 -80 -66 -200z" />
    <glyph glyph-name="sterling" unicode="&#xa3;" horiz-adv-x="1464" 
d="M829 1718q140 0 282 -34q146 -35 273 -103l-137 -305q-97 58 -191 83q-96 25 -196 25q-53 0 -117 -8q-59 -7 -104 -27q-46 -20 -73 -53t-27 -82q0 -37 13 -69q12 -30 35 -69q17 -29 49 -70q29 -37 46 -64h475v-319h-371q-2 -32 -27 -84t-64 -101q-38 -47 -85 -88
q-42 -36 -86 -67l-20 41q40 13 90 20q45 6 86 6q61 0 104 -11q69 -18 93 -25q13 -4 28 -8t33.5 -8.5t28.5 -7.5q41 -11 94 -11q64 0 119 11q63 13 151 56l105 -311q-106 -45 -196 -66q-87 -20 -198 -20q-69 0 -127 13q-62 14 -116 31q-48 15 -115 31q-55 13 -121 13
q-63 0 -145 -15q-81 -15 -209 -81l-127 305q80 38 143 78q60 38 105 84t72 105l28 58l12 52h-366v319h227l-22 37q-31 45 -49 82q-19 40 -35 92q-15 49 -15 107q0 120 61 210q61 89 153 143q94 54 208 80q112 25 225 25z" />
    <glyph glyph-name="currency" unicode="&#xa4;" horiz-adv-x="1183" 
d="M592 1153q100 0 179 -28q77 -27 110 -54l127 119l190 -189l-127 -116q25 -35 47 -107q23 -74 23 -164q0 -89 -23 -163q-22 -72 -47 -107l127 -117l-190 -188l-127 119q-35 -28 -110 -55q-77 -27 -179 -27t-179 27q-75 27 -110 55l-127 -119l-190 188l127 117
q-25 35 -47 107q-23 74 -23 163q0 90 23 164q22 72 47 107l-127 116l190 189l127 -119q33 27 110 54q79 28 179 28zM592 326q63 0 117 22t95 63q39 39 63 92q24 52 24 111q0 63 -23 117q-22 54 -61 91q-42 40 -94 60q-56 21 -121 21q-68 0 -122 -21q-51 -20 -93 -60
q-39 -38 -62 -91q-22 -51 -22 -117q0 -61 22 -112q23 -53 63 -92q42 -41 95 -62q54 -22 119 -22z" />
    <glyph glyph-name="yen" unicode="&#xa5;" horiz-adv-x="1536" 
d="M182 745h348l-546 943h370l414 -736l414 736h370l-544 -943h344v-249h-412v-90h412v-269h-412v-164h-342v164h-416v269h416v90h-416v249z" />
    <glyph glyph-name="brokenbar" unicode="&#xa6;" horiz-adv-x="616" 
d="M139 1688h340v-873h-340v873zM139 395h340v-872h-340v872z" />
    <glyph glyph-name="section" unicode="&#xa7;" horiz-adv-x="1495" 
d="M203 1321q0 99 43 172q45 76 116 124q77 52 167 75q93 24 200 24q145 0 272 -33q130 -34 242 -100l-123 -289q-100 64 -190 94q-93 31 -193 31t-151 -25q-54 -26 -54 -69q0 -37 36 -73q37 -37 134 -87l332 -168q95 -50 159 -90q73 -46 125 -96q51 -49 82 -115
q30 -63 30 -141q0 -68 -23 -128q-23 -59 -60 -108q-37 -48 -87 -88q-48 -38 -72 -49q32 -29 64 -99t32 -153q0 -103 -43 -182q-44 -81 -117 -133q-77 -55 -172 -81q-103 -28 -213 -28q-145 0 -271 33q-127 33 -245 99l127 288q108 -70 198 -95q93 -26 185 -26q40 0 89 9
q41 8 70 25q31 18 45 40q15 23 15 53q0 46 -48 93q-49 47 -173 110l-291 146q-176 89 -274 192q-100 104 -100 258q0 121 79 215t158 135q-33 28 -67 97q-33 66 -33 143zM893 383q18 -8 37 -17q16 -8 24 -14q54 28 96 73q40 43 40 97q0 30 -10 60q-9 28 -32 52
q-25 27 -64 54q-44 31 -99 57l-344 173q-56 -28 -97 -70q-41 -41 -41 -94q0 -68 41 -115q42 -48 146 -100z" />
    <glyph glyph-name="dieresis" unicode="&#xa8;" horiz-adv-x="915" 
d="M182 1665q76 0 128 -45t52 -119q0 -80 -57 -125q-49 -43 -123 -43q-69 0 -124 44q-54 43 -54 124q0 74 51 119t127 45zM733 1665q76 0 127 -45t51 -119q0 -82 -55 -125q-49 -43 -123 -43q-72 0 -125 44t-53 124q0 74 51 119t127 45z" />
    <glyph glyph-name="copyright" unicode="&#xa9;" horiz-adv-x="1902" 
d="M66 829q0 200 68 361q69 163 190 281t281 184q158 65 347 65q187 0 344 -65q161 -67 281 -184q121 -118 190 -281q70 -166 70 -361q0 -194 -70 -360t-190 -280q-121 -115 -281 -180q-158 -64 -344 -64q-185 0 -346 64q-160 64 -282 181q-121 117 -190 280
q-68 161 -68 359zM287 829q0 -151 51 -277q51 -127 139 -216q88 -90 211 -139q124 -50 264 -50q141 0 265 50q121 49 210 139q90 92 139 216q50 127 50 277q0 153 -50 280q-49 124 -139 216q-89 90 -210 139q-122 49 -265 49q-142 0 -264 -49q-123 -49 -211 -139
q-88 -89 -139 -216q-51 -126 -51 -280zM455 837q0 113 38 209q37 93 107 163q67 67 165 106q93 37 210 37q95 0 184 -25q86 -24 172 -80l-92 -229q-78 51 -135 69q-60 19 -125 19q-51 0 -100 -19q-47 -18 -81 -52q-35 -35 -54 -83t-19 -114t19 -114q20 -51 54 -85
q35 -35 81 -53q49 -19 100 -19q65 0 125 19q54 17 133 65l94 -223q-86 -56 -172 -80q-85 -24 -184 -24q-117 0 -210 37q-96 38 -165 107q-70 70 -107 162q-38 94 -38 207z" />
    <glyph glyph-name="ordfeminine" unicode="&#xaa;" horiz-adv-x="935" 
d="M561 1194q-6 2 -43 6q-33 4 -57 4q-68 0 -107 -13q-41 -14 -41 -42q0 -33 36 -48q38 -16 100 -16q58 0 112 13v96zM444 852q-79 0 -143 14q-74 16 -124 48q-54 34 -88 88q-34 53 -34 135q0 69 30 126q29 55 81 93q49 36 121 55q73 19 151 19q9 0 65 -4q47 -3 70 -7
q-12 31 -51 44q-40 14 -108 14q-46 0 -120 -19q-69 -18 -181 -63l26 252q68 28 146 48q75 19 151 19q82 0 146 -17q68 -18 117 -58q51 -42 80 -102q30 -63 30 -153v-452q-106 -38 -187 -58q-89 -22 -178 -22z" />
    <glyph glyph-name="guillemotleft" unicode="&#xab;" horiz-adv-x="1249" 
d="M23 590l335 551h363l-326 -549l324 -555h-359zM549 590l336 551h358l-323 -549l321 -555h-356z" />
    <glyph glyph-name="logicalnot" unicode="&#xac;" horiz-adv-x="1458" 
d="M979 653h-911v320h1251v-772h-340v452z" />
    <glyph glyph-name="registered" unicode="&#xae;" horiz-adv-x="1902" 
d="M66 829q0 200 68 361q69 163 190 281t281 184q158 65 347 65q187 0 344 -65q161 -67 281 -184q121 -118 190 -281q70 -166 70 -361q0 -194 -70 -360t-190 -280q-121 -115 -281 -180q-158 -64 -344 -64q-185 0 -346 64q-160 64 -282 181q-121 117 -190 280
q-68 161 -68 359zM287 829q0 -151 51 -277q51 -127 139 -216q88 -90 211 -139q124 -50 264 -50q141 0 265 50q121 49 210 139q90 92 139 216q50 127 50 277q0 153 -50 280q-49 124 -139 216q-89 90 -210 139q-122 49 -265 49q-142 0 -264 -49q-123 -49 -211 -139
q-88 -89 -139 -216q-51 -126 -51 -280zM836 723v-344h-250v964h344q93 0 168 -13q77 -13 139 -48t96 -97q35 -64 35 -155q0 -111 -52 -176q-51 -65 -108 -86l222 -389h-283l-193 344h-12h-106zM1114 1030q0 46 -33 67t-100 21h-145v-170h147q75 0 103 22t28 60z" />
    <glyph glyph-name="macron" unicode="&#xaf;" horiz-adv-x="663" 
d="M4 1395v229h655v-229h-655z" />
    <glyph glyph-name="degree" unicode="&#xb0;" horiz-adv-x="899" 
d="M35 1298q0 88 33 164q33 77 88 133q58 59 131 91q74 32 162 32q89 0 163 -32q73 -32 131 -91q55 -56 88 -133q33 -76 33 -164q0 -85 -33 -160t-89 -131t-131 -89t-162 -33q-86 0 -161 33t-131 89t-89 131t-33 160zM264 1298q0 -85 51 -142q50 -56 134 -56t136 56t52 142
q0 90 -52 146q-53 57 -136 57t-134 -57t-51 -146z" />
    <glyph glyph-name="plusminus" unicode="&#xb1;" horiz-adv-x="1384" 
d="M522 588h-454v268h454v324h340v-324h453v-268h-453v-332h-340v332zM68 244h1245v-271h-1245v271z" />
    <glyph glyph-name="uni00B2" unicode="&#xb2;" horiz-adv-x="688" 
d="M324 1520q-41 0 -77 -14q-34 -13 -91 -60l-80 147q69 55 128 73q65 20 132 20q104 0 186 -54q80 -53 80 -164q0 -110 -81 -201q-80 -90 -165 -151h256v-160h-536v144l143 104q72 57 111 93q46 43 72 81t26 68q0 38 -30 56t-74 18z" />
    <glyph glyph-name="uni00B3" unicode="&#xb3;" horiz-adv-x="702" 
d="M334 944q-65 0 -133 20q-66 20 -133 70l79 150q59 -48 95 -61t80 -13q56 0 94 18q37 18 37 52q0 36 -36 50q-35 13 -108 13h-45v162h43q75 0 102 12t27 41t-28 45q-29 17 -82 17q-42 0 -79 -14q-36 -14 -93 -60l-80 149q66 49 132 70q64 21 130 21q114 0 194 -54
q78 -52 78 -153q0 -64 -25 -101q-25 -36 -53 -49q38 -11 66 -47q31 -39 31 -115q0 -113 -84 -168q-83 -55 -209 -55z" />
    <glyph glyph-name="acute" unicode="&#xb4;" horiz-adv-x="587" 
d="M274 1348h-301l287 340h363z" />
    <glyph glyph-name="mu" unicode="&#xb5;" horiz-adv-x="1382" 
d="M117 -467q13 83 20 171q6 75 6 171v1305h340v-559q0 -174 54 -259q52 -81 153 -81q103 0 158 85t55 255v559h340v-1207h-309v101q8 18 -73 -49q-82 -68 -216 -74q-99 -2 -146 38q-46 39 -46 36v-123q0 -77 -6 -191q-5 -91 -19 -178h-311z" />
    <glyph glyph-name="paragraph" unicode="&#xb6;" horiz-adv-x="1323" 
d="M41 1221q0 109 43 195q44 89 120 148q78 61 184 92q110 32 241 32h555v-1885h-248v1647h-197v-1647h-247v959q-61 5 -143 33q-81 28 -151 86t-113 141q-44 85 -44 199z" />
    <glyph glyph-name="periodcentered" unicode="&#xb7;" horiz-adv-x="645" 
d="M324 385q-82 0 -141 57q-58 57 -58 140q0 80 58 137q59 57 141 57q80 0 137 -57t57 -137q0 -83 -57 -140t-137 -57z" />
    <glyph glyph-name="cedilla" unicode="&#xb8;" horiz-adv-x="516" 
d="M12 -270q60 -28 108 -39q46 -10 87 -10q45 0 74 10q30 11 30 35q0 26 -31 36q-33 11 -81 11q-34 0 -72 -5q-29 -4 -115 -20l168 281h174l-75 -127q60 4 73 4q6 0 46 -21q41 -21 67 -57q27 -37 27 -94q0 -58 -24 -100q-23 -41 -64 -68q-39 -26 -89 -38q-45 -11 -100 -11
q-45 0 -88 5q-37 4 -102 29z" />
    <glyph glyph-name="uni00B9" unicode="&#xb9;" horiz-adv-x="471" 
d="M227 1491l-151 -35v158l319 72v-730h-168v535z" />
    <glyph glyph-name="ordmasculine" unicode="&#xba;" horiz-adv-x="956" 
d="M477 850q-96 0 -174 34q-80 35 -139 92q-58 56 -93 136q-34 77 -34 170q0 91 34 168q35 79 93 137t139 93q78 34 174 34t174 -34q85 -37 141 -93q60 -60 94 -137t34 -168q0 -93 -34 -171q-34 -79 -94 -136q-58 -55 -141 -91q-78 -34 -174 -34zM477 1094q88 0 137 52
q50 53 50 136q0 77 -50 133q-49 55 -137 55q-86 0 -135 -55t-49 -133q0 -84 49 -136t135 -52z" />
    <glyph glyph-name="guillemotright" unicode="&#xbb;" horiz-adv-x="1249" 
d="M889 37h-359l324 555l-326 549h363l336 -551zM365 37h-357l322 555l-324 549h359l335 -551z" />
    <glyph glyph-name="onequarter" unicode="&#xbc;" horiz-adv-x="2021" 
d="M1843 336v-199h-106v-164h-238v164h-440v115l459 719h219v-635h106zM1499 664h45l-188 -328h143v328zM1493 1540l-852 -1638l-190 94l854 1636zM178 1362v209h381v-979h-250v770h-131z" />
    <glyph glyph-name="onehalf" unicode="&#xbd;" horiz-adv-x="2021" 
d="M1399 1540l-852 -1638l-191 94l854 1636zM178 1362v209h381v-979h-250v770h-131zM1843 184v-211h-760l293 340l64 74q29 34 69 90q35 49 56 90q22 43 22 76q0 57 -25 91t-77 34q-27 0 -43 -11q-20 -13 -31 -31q-12 -20 -18 -43q-6 -25 -2 -75h-265q6 99 32 162
q25 61 71 108q43 44 108 72q63 27 148 27q69 0 136 -25q66 -25 113 -67q48 -44 75 -103q28 -62 28 -129q0 -110 -55 -195q-55 -84 -127 -161l-105 -113h293z" />
    <glyph glyph-name="threequarters" unicode="&#xbe;" horiz-adv-x="2021" 
d="M1843 336v-199h-106v-164h-238v164h-440v115l459 719h219v-635h106zM1499 664h45l-188 -328h143v328zM1599 1540l-851 -1638l-191 94l854 1636zM213 1292q17 161 103 240q88 80 233 80q138 0 227 -77q88 -76 88 -210q0 -61 -25 -120q-26 -61 -40 -68q32 -15 65 -88
t33 -144q0 -72 -28 -134q-27 -60 -75 -102q-49 -43 -115 -64t-142 -21q-75 0 -138 24q-61 23 -111 67q-50 43 -77 101q-29 61 -35 154h250q6 -73 36 -104t82 -31t81 38q28 37 28 82q0 22 -8 46q-7 21 -22 39t-35 28q-19 10 -47 8l-66 -4v185h49q50 0 75 26q26 28 26 76
q0 35 -23 63q-22 27 -65 27q-38 0 -60 -28q-19 -25 -24 -89h-240z" />
    <glyph glyph-name="questiondown" unicode="&#xbf;" horiz-adv-x="1163" 
d="M700 1282q42 0 80 -13q41 -14 70 -39q31 -26 50 -63q20 -38 20 -82q0 -43 -20 -81t-49 -63t-70 -40q-38 -14 -81 -14q-41 0 -79 13q-41 14 -71 40q-32 27 -51 64q-20 38 -20 81q0 45 20 83q21 40 51 63q32 25 71 38q38 13 79 13zM891 -131q91 23 219 78l-45 -359
q-81 -33 -175 -55q-84 -20 -212 -20q-132 0 -239 36q-111 37 -195 108t-131 170q-47 100 -47 222q0 118 38 204q39 89 104 157q64 67 151 109q91 44 161 61v192h340v-457h-51q-82 0 -154 -12q-71 -12 -124 -42q-50 -29 -81 -75q-30 -45 -30 -110q0 -53 24 -95q24 -41 65 -72
q40 -30 92 -46q54 -17 106 -17q90 0 184 23z" />
    <glyph glyph-name="Agrave" unicode="&#xc0;" horiz-adv-x="1628" 
d="M1647 -27h-367l-141 392h-652l-139 -392h-366l634 1715h396zM604 694h418l-209 584zM336 2044h364l285 -340h-301z" />
    <glyph glyph-name="Aacute" unicode="&#xc1;" horiz-adv-x="1628" 
d="M1647 -27h-367l-141 392h-652l-139 -392h-366l634 1715h396zM604 694h418l-209 584zM909 1704h-301l287 340h362z" />
    <glyph glyph-name="Acircumflex" unicode="&#xc2;" horiz-adv-x="1628" 
d="M1647 -27h-367l-141 392h-652l-139 -392h-366l634 1715h396zM604 694h418l-209 584zM1298 1704h-311l-170 162l-176 -162h-313l327 340h322z" />
    <glyph glyph-name="Atilde" unicode="&#xc3;" horiz-adv-x="1628" 
d="M1647 -27h-367l-141 392h-652l-139 -392h-366l634 1715h396zM604 694h418l-209 584zM954 1923q39 0 56 22q16 20 28 89h191q-12 -172 -83 -246t-175 -74q-55 0 -101 19q-35 15 -77 40q-32 20 -65 36q-32 16 -60 16q-38 0 -53 -21t-27 -90h-193q12 160 83 240t177 80
q55 0 101 -19q35 -15 77 -40q53 -32 62 -37q29 -15 59 -15z" />
    <glyph glyph-name="Adieresis" unicode="&#xc4;" horiz-adv-x="1628" 
d="M1647 -27h-367l-141 392h-652l-139 -392h-366l634 1715h396zM604 694h418l-209 584zM537 2040q75 0 128 -45q52 -45 52 -119q0 -79 -58 -125q-49 -43 -122 -43q-69 0 -124 44t-55 124q0 73 52 119q51 45 127 45zM1087 2040q76 0 127 -45q52 -46 52 -119q0 -81 -56 -125
q-49 -43 -123 -43q-71 0 -124 44q-54 45 -54 124q0 73 52 119q51 45 126 45z" />
    <glyph glyph-name="Aring" unicode="&#xc5;" horiz-adv-x="1628" 
d="M1647 -27h-367l-141 392h-652l-139 -392h-366l634 1715h396zM604 694h418l-209 584zM813 2169q100 0 171 -65t71 -167q0 -104 -70 -169q-68 -64 -172 -64q-103 0 -174 64q-72 64 -72 169q0 103 72 167q73 65 174 65zM813 2025q-37 0 -64 -24q-28 -25 -28 -64t28 -64
q27 -24 64 -24t63 24q25 24 25 64t-25 64q-26 24 -63 24z" />
    <glyph glyph-name="AE" unicode="&#xc6;" horiz-adv-x="2238" 
d="M2128 1688v-328h-766v-342h694v-332h-694v-385h770v-328h-1118v392h-430l-240 -392h-414l1096 1715h1102zM788 694h226v365z" />
    <glyph glyph-name="Ccedilla" unicode="&#xc7;" horiz-adv-x="1585" 
d="M598 -270q60 -28 108 -39q46 -10 87 -10q44 0 73 10q31 11 31 35q0 25 -32 36q-33 11 -81 11q-33 0 -71 -5q-28 -4 -113 -20l129 223q-125 23 -255 99q-129 76 -221 190q-90 113 -139 260q-48 145 -48 314q0 191 62 350q63 161 178 281q116 121 280 187t366 66
q164 0 309 -40q148 -41 275 -119l-135 -310q-115 71 -215 103q-99 32 -221 32q-112 0 -205 -32q-98 -34 -169 -102q-73 -70 -116 -172t-43 -244q0 -143 43 -245q44 -104 116 -173q73 -70 169 -103q93 -32 205 -32q121 0 220 32q102 33 216 105l135 -311q-131 -81 -275 -119
q-147 -39 -309 -39q-25 0 -39 1l-20 1l-29 -49q60 4 74 4q6 0 46 -21q41 -21 67 -57t26 -94q0 -60 -23 -100q-23 -41 -64 -68q-39 -26 -89 -38q-45 -11 -100 -11q-45 0 -88 5q-39 4 -103 29z" />
    <glyph glyph-name="Egrave" unicode="&#xc8;" horiz-adv-x="1402" 
d="M178 1688h1114v-328h-766v-342h695v-332h-695v-385h770v-328h-1118v1715zM279 2044h364l285 -340h-301z" />
    <glyph glyph-name="Eacute" unicode="&#xc9;" horiz-adv-x="1402" 
d="M178 1688h1114v-328h-766v-342h695v-332h-695v-385h770v-328h-1118v1715zM823 1704h-301l287 340h362z" />
    <glyph glyph-name="Ecircumflex" unicode="&#xca;" horiz-adv-x="1402" 
d="M178 1688h1114v-328h-766v-342h695v-332h-695v-385h770v-328h-1118v1715zM1221 1704h-312l-170 162l-176 -162h-313l328 340h321z" />
    <glyph glyph-name="Edieresis" unicode="&#xcb;" horiz-adv-x="1402" 
d="M178 1688h1114v-328h-766v-342h695v-332h-695v-385h770v-328h-1118v1715zM451 2040q75 0 128 -45q52 -45 52 -119q0 -79 -58 -125q-49 -43 -122 -43q-69 0 -124 44t-55 124q0 73 52 119q51 45 127 45zM1001 2040q76 0 127 -45q52 -46 52 -119q0 -81 -56 -125
q-49 -43 -123 -43q-71 0 -124 44q-54 45 -54 124q0 74 51 119t127 45z" />
    <glyph glyph-name="Igrave" unicode="&#xcc;" horiz-adv-x="704" 
d="M178 -27v1715h348v-1715h-348zM-123 2044h365l284 -340h-301z" />
    <glyph glyph-name="Iacute" unicode="&#xcd;" horiz-adv-x="704" 
d="M178 -27v1715h348v-1715h-348zM440 1704h-301l287 340h362z" />
    <glyph glyph-name="Icircumflex" unicode="&#xce;" horiz-adv-x="704" 
d="M178 -27v1715h348v-1715h-348zM840 1704h-312l-170 162l-176 -162h-313l328 340h321z" />
    <glyph glyph-name="Idieresis" unicode="&#xcf;" horiz-adv-x="704" 
d="M178 -27v1715h348v-1715h-348zM76 2040q76 0 128 -45t52 -119q0 -80 -57 -125q-49 -43 -123 -43q-69 0 -124 44q-54 44 -54 124q0 74 51 119t127 45zM627 2040q76 0 127 -45t51 -119q0 -82 -55 -125q-49 -43 -123 -43q-72 0 -125 44t-53 124q0 74 51 119t127 45z" />
    <glyph glyph-name="Eth" unicode="&#xd0;" horiz-adv-x="1755" 
d="M233 690h-245v328h245v670h465q206 0 393 -54q180 -52 314 -159q131 -104 209 -267q76 -158 76 -368q0 -205 -73 -369q-71 -160 -204 -273q-131 -111 -309 -168t-391 -57h-480v717zM694 301q142 0 263 29q117 28 199 92q81 63 125 166t44 252q0 138 -45 237
q-44 97 -125 161q-77 61 -194 92q-114 30 -256 30h-121v-342h387v-328h-387v-389h110z" />
    <glyph glyph-name="Ntilde" unicode="&#xd1;" horiz-adv-x="1759" 
d="M522 1257v-1284h-344v1715h498l563 -1285v1285h342v-1715h-496zM1026 1923q38 0 55 22t29 89h190q-12 -173 -82 -246q-71 -74 -176 -74q-54 0 -100 19q-38 16 -78 40q-37 22 -64 36q-32 16 -61 16q-37 0 -52 -21q-16 -23 -28 -90h-192q12 160 83 240t177 80q54 0 100 -19
q35 -15 77 -40q47 -28 63 -37q28 -15 59 -15z" />
    <glyph glyph-name="Ograve" unicode="&#xd2;" horiz-adv-x="1908" 
d="M1843 834q0 -192 -65 -350q-65 -159 -185 -280t-280 -188q-161 -67 -359 -67q-197 0 -358 67q-162 68 -281 188q-118 119 -184 280q-65 158 -65 350q0 188 65 348q66 162 184 280q119 119 281 188q160 68 358 68q199 0 359 -68t280 -188t185 -280t65 -348zM1479 834
q0 127 -40 228q-39 99 -110 173q-68 71 -166 111q-94 38 -209 38q-112 0 -206 -38q-98 -40 -166 -111q-71 -74 -110 -173q-40 -101 -40 -228q0 -128 40 -229q39 -99 110 -173q67 -70 166 -110q96 -39 206 -39q113 0 209 39q99 40 166 110q71 74 110 173q40 101 40 229z
M475 2044h365l284 -340h-301z" />
    <glyph glyph-name="Oacute" unicode="&#xd3;" horiz-adv-x="1908" 
d="M1843 834q0 -192 -65 -350q-65 -159 -185 -280t-280 -188q-161 -67 -359 -67q-197 0 -358 67q-162 68 -281 188q-118 119 -184 280q-65 158 -65 350q0 188 65 348q66 162 184 280q119 119 281 188q160 68 358 68q199 0 359 -68t280 -188t185 -280t65 -348zM1479 834
q0 127 -40 228q-39 99 -110 173q-68 71 -166 111q-94 38 -209 38q-112 0 -206 -38q-98 -40 -166 -111q-71 -74 -110 -173q-40 -101 -40 -228q0 -128 40 -229q39 -99 110 -173q67 -70 166 -110q96 -39 206 -39q113 0 209 39q99 40 166 110q71 74 110 173q40 101 40 229z
M1073 1704h-301l287 340h362z" />
    <glyph glyph-name="Ocircumflex" unicode="&#xd4;" horiz-adv-x="1908" 
d="M1843 834q0 -192 -65 -350q-65 -159 -185 -280t-280 -188q-161 -67 -359 -67q-197 0 -358 67q-162 68 -281 188q-118 119 -184 280q-65 158 -65 350q0 188 65 348q66 162 184 280q119 119 281 188q160 68 358 68q199 0 359 -68t280 -188t185 -280t65 -348zM1479 834
q0 127 -40 228q-39 99 -110 173q-68 71 -166 111q-94 38 -209 38q-112 0 -206 -38q-98 -40 -166 -111q-71 -74 -110 -173q-40 -101 -40 -228q0 -128 40 -229q39 -99 110 -173q67 -70 166 -110q96 -39 206 -39q113 0 209 39q99 40 166 110q71 74 110 173q40 101 40 229z
M1440 1702h-312l-170 162l-176 -162h-313l328 340h321z" />
    <glyph glyph-name="Otilde" unicode="&#xd5;" horiz-adv-x="1908" 
d="M1843 834q0 -192 -65 -350q-65 -159 -185 -280t-280 -188q-161 -67 -359 -67q-197 0 -358 67q-162 68 -281 188q-118 119 -184 280q-65 158 -65 350q0 188 65 348q66 162 184 280q119 119 281 188q160 68 358 68q199 0 359 -68t280 -188t185 -280t65 -348zM1479 834
q0 127 -40 228q-39 99 -110 173q-68 71 -166 111q-94 38 -209 38q-112 0 -206 -38q-98 -40 -166 -111q-71 -74 -110 -173q-40 -101 -40 -228q0 -128 40 -229q39 -99 110 -173q67 -70 166 -110q96 -39 206 -39q113 0 209 39q99 40 166 110q71 74 110 173q40 101 40 229z
M1092 1923q38 0 55 22t29 89h190q-12 -172 -83 -246t-175 -74q-54 0 -100 19q-38 16 -78 40q-32 20 -65 36q-32 16 -60 16q-37 0 -52 -21q-16 -23 -28 -90h-193q12 160 83 240t178 80q54 0 100 -19q35 -15 77 -40q53 -32 62 -37q28 -15 60 -15z" />
    <glyph glyph-name="Odieresis" unicode="&#xd6;" horiz-adv-x="1908" 
d="M1843 834q0 -192 -65 -350q-65 -159 -185 -280t-280 -188q-161 -67 -359 -67q-197 0 -358 67q-162 68 -281 188q-118 119 -184 280q-65 158 -65 350q0 188 65 348q66 162 184 280q119 119 281 188q160 68 358 68q199 0 359 -68t280 -188t185 -280t65 -348zM1479 834
q0 127 -40 228q-39 99 -110 173q-68 71 -166 111q-94 38 -209 38q-112 0 -206 -38q-98 -40 -166 -111q-71 -74 -110 -173q-40 -101 -40 -228q0 -128 40 -229q39 -99 110 -173q67 -70 166 -110q96 -39 206 -39q113 0 209 39q99 40 166 110q71 74 110 173q40 101 40 229z
M676 2040q76 0 128 -45t52 -119q0 -80 -57 -125q-49 -43 -123 -43q-69 0 -124 44q-54 44 -54 124q0 74 51 119t127 45zM1227 2040q76 0 127 -45t51 -119q0 -82 -55 -125q-49 -43 -123 -43q-72 0 -125 44t-53 124q0 74 51 119t127 45z" />
    <glyph glyph-name="multiply" unicode="&#xd7;" horiz-adv-x="1202" 
d="M2 190l393 392l-393 393l209 207l389 -394l393 394l207 -207l-391 -393l391 -392l-207 -206l-393 391l-389 -391z" />
    <glyph glyph-name="Oslash" unicode="&#xd8;" horiz-adv-x="1908" 
d="M264 260q-85 98 -142 250q-56 149 -56 324q0 188 65 348q66 162 184 280q119 119 281 188q160 68 358 68q142 0 266 -36q126 -36 210 -91l212 242l201 -164l-215 -246q96 -102 155 -256q60 -156 60 -333q0 -192 -65 -350q-65 -159 -185 -280t-280 -188q-161 -67 -359 -67
q-149 0 -278 39q-131 40 -217 98l-203 -231l-203 165zM1479 834q0 101 -28 191q-27 86 -58 128l-705 -803q98 -67 266 -67q113 0 209 39q99 40 166 110q71 74 110 173q40 101 40 229zM432 834q0 -99 24 -180q23 -79 48 -119l696 794q-95 55 -246 55q-112 0 -206 -38
q-98 -40 -166 -111q-71 -74 -110 -173q-40 -101 -40 -228z" />
    <glyph glyph-name="Ugrave" unicode="&#xd9;" horiz-adv-x="1794" 
d="M897 -51q-198 0 -339 54q-137 53 -230 150q-89 93 -130 224q-40 127 -40 274v1037h348v-969q0 -115 20 -194q21 -84 66 -136q47 -54 119 -81q73 -27 186 -27q111 0 184 27q72 27 119 81q46 54 67 136t21 194v969h348v-1037q0 -147 -40 -274q-41 -131 -130 -224
q-93 -97 -230 -150q-141 -54 -339 -54zM498 2044h364l285 -340h-301z" />
    <glyph glyph-name="Uacute" unicode="&#xda;" horiz-adv-x="1794" 
d="M897 -51q-198 0 -339 54q-137 53 -230 150q-89 93 -130 224q-40 127 -40 274v1037h348v-969q0 -115 20 -194q21 -84 66 -136q47 -54 119 -81q73 -27 186 -27q111 0 184 27q72 27 119 81q46 54 67 136t21 194v969h348v-1037q0 -147 -40 -274q-41 -131 -130 -224
q-93 -97 -230 -150q-141 -54 -339 -54zM971 1704h-301l286 340h363z" />
    <glyph glyph-name="Ucircumflex" unicode="&#xdb;" horiz-adv-x="1794" 
d="M897 -51q-198 0 -339 54q-137 53 -230 150q-89 93 -130 224q-40 127 -40 274v1037h348v-969q0 -115 20 -194q21 -84 66 -136q47 -54 119 -81q73 -27 186 -27q111 0 184 27q72 27 119 81q46 54 67 136t21 194v969h348v-1037q0 -147 -40 -274q-41 -131 -130 -224
q-93 -97 -230 -150q-141 -54 -339 -54zM1384 1704h-311l-170 162l-176 -162h-313l327 340h322z" />
    <glyph glyph-name="Udieresis" unicode="&#xdc;" horiz-adv-x="1794" 
d="M897 -51q-198 0 -339 54q-137 53 -230 150q-89 93 -130 224q-40 127 -40 274v1037h348v-969q0 -115 20 -194q21 -84 66 -136q47 -54 119 -81q73 -27 186 -27q111 0 184 27q72 27 119 81q46 54 67 136t21 194v969h348v-1037q0 -147 -40 -274q-41 -131 -130 -224
q-93 -97 -230 -150q-141 -54 -339 -54zM623 2040q75 0 128 -45q52 -45 52 -119q0 -79 -58 -125q-49 -43 -122 -43q-69 0 -124 44t-55 124q0 73 52 119q51 45 127 45zM1174 2040q75 0 126 -45q52 -46 52 -119q0 -81 -56 -125q-49 -43 -123 -43q-71 0 -124 44q-54 45 -54 124
q0 73 52 119q51 45 127 45z" />
    <glyph glyph-name="Yacute" unicode="&#xdd;" horiz-adv-x="1536" 
d="M1147 1688h403l-606 -1072v-643h-350v643l-608 1072h403l379 -717zM844 1704h-301l286 340h363z" />
    <glyph glyph-name="Thorn" unicode="&#xde;" horiz-adv-x="1517" 
d="M526 285v-312h-348v1715h348v-310h301q164 0 284 -45t198 -120q77 -74 115 -171t38 -198q0 -108 -39 -210q-39 -101 -118 -179q-78 -77 -200 -124q-119 -46 -278 -46h-301zM526 1051v-439h238q77 0 140 12q66 13 106 36q42 25 65 69t23 109q0 108 -79 160q-80 53 -255 53
h-238z" />
    <glyph glyph-name="germandbls" unicode="&#xdf;" horiz-adv-x="1597" 
d="M139 -27v1086q0 171 44 297q43 123 130 207q82 80 210 118q123 37 282 37q132 0 241 -28q110 -28 193 -87q81 -57 130 -148q48 -89 48 -206q0 -57 -15 -110q-16 -55 -42 -99q-27 -45 -49 -67q-23 -23 -47 -35q9 -1 66 -39q59 -39 102 -95q45 -59 72 -136q28 -81 28 -176
q0 -141 -51 -246q-50 -102 -139 -170q-88 -66 -203 -96q-121 -31 -250 -31q-68 0 -146 7q-82 7 -182 24l66 333q58 -14 122 -23q49 -7 103 -7q69 0 126 10q61 11 104 36q46 27 70 68q26 44 26 111q0 60 -28 102q-27 41 -79 65q-48 22 -123 35q-66 11 -155 11h-80v317h69
q146 0 213 40q68 41 68 126q0 84 -76 133t-196 49q-92 0 -150 -19q-60 -20 -94 -59q-34 -40 -52 -106t-18 -155v-1074h-338z" />
    <glyph glyph-name="agrave" unicode="&#xe0;" horiz-adv-x="1294" 
d="M838 479q-8 2 -71 11q-56 8 -97 8q-51 0 -99 -8q-49 -8 -77 -21q-34 -16 -50 -37q-16 -22 -16 -55q0 -62 62 -89q65 -28 163 -28q49 0 105 8q39 6 80 17v194zM649 -51q-111 0 -214 21q-98 20 -182 69q-78 46 -128 126q-49 79 -49 193q0 104 43 183q44 81 119 132
q77 53 178 78q100 25 223 25q47 0 104 -3q53 -3 107 -11q-12 68 -76 99q-63 30 -176 30q-40 0 -94 -8q-45 -7 -105 -22q-48 -12 -103 -32q-49 -18 -136 -59l45 356q88 42 196 68q111 27 236 27q112 0 213 -26q97 -25 172 -83t115 -150q41 -94 41 -225v-690
q-128 -51 -264 -75q-128 -23 -265 -23zM238 1688h364l285 -340h-301z" />
    <glyph glyph-name="aacute" unicode="&#xe1;" horiz-adv-x="1294" 
d="M838 479q-8 2 -71 11q-56 8 -97 8q-51 0 -99 -8q-49 -8 -77 -21q-34 -16 -50 -37q-16 -22 -16 -55q0 -62 62 -89q65 -28 163 -28q49 0 105 8q39 6 80 17v194zM649 -51q-111 0 -214 21q-98 20 -182 69q-78 46 -128 126q-49 79 -49 193q0 104 43 183q44 81 119 132
q77 53 178 78q100 25 223 25q47 0 104 -3q53 -3 107 -11q-12 68 -76 99q-63 30 -176 30q-40 0 -94 -8q-45 -7 -105 -22q-48 -12 -103 -32q-49 -18 -136 -59l45 356q88 42 196 68q111 27 236 27q112 0 213 -26q97 -25 172 -83t115 -150q41 -94 41 -225v-690
q-128 -51 -264 -75q-128 -23 -265 -23zM752 1348h-301l286 340h363z" />
    <glyph glyph-name="acircumflex" unicode="&#xe2;" horiz-adv-x="1294" 
d="M838 479q-8 2 -71 11q-56 8 -97 8q-51 0 -99 -8q-49 -8 -77 -21q-34 -16 -50 -37q-16 -22 -16 -55q0 -62 62 -89q65 -28 163 -28q49 0 105 8q39 6 80 17v194zM649 -51q-111 0 -214 21q-98 20 -182 69q-78 46 -128 126q-49 79 -49 193q0 104 43 183q44 81 119 132
q77 53 178 78q100 25 223 25q47 0 104 -3q53 -3 107 -11q-12 68 -76 99q-63 30 -176 30q-40 0 -94 -8q-45 -7 -105 -22q-48 -12 -103 -32q-49 -18 -136 -59l45 356q88 42 196 68q111 27 236 27q112 0 213 -26q97 -25 172 -83t115 -150q41 -94 41 -225v-690
q-128 -51 -264 -75q-128 -23 -265 -23zM1151 1348h-311l-170 161l-176 -161h-314l328 340h321z" />
    <glyph glyph-name="atilde" unicode="&#xe3;" horiz-adv-x="1294" 
d="M838 479q-8 2 -71 11q-56 8 -97 8q-51 0 -99 -8q-49 -8 -77 -21q-34 -16 -50 -37q-16 -22 -16 -55q0 -62 62 -89q65 -28 163 -28q49 0 105 8q39 6 80 17v194zM649 -51q-111 0 -214 21q-98 20 -182 69q-78 46 -128 126q-49 79 -49 193q0 104 43 183q44 81 119 132
q77 53 178 78q100 25 223 25q47 0 104 -3q53 -3 107 -11q-12 68 -76 99q-63 30 -176 30q-40 0 -94 -8q-45 -7 -105 -22q-48 -12 -103 -32q-49 -18 -136 -59l45 356q88 42 196 68q111 27 236 27q112 0 213 -26q97 -25 172 -83t115 -150q41 -94 41 -225v-690
q-128 -51 -264 -75q-128 -23 -265 -23zM821 1563q40 0 56 21q16 20 28 89h191q-12 -172 -83 -246q-70 -73 -175 -73q-58 0 -101 18q-38 16 -78 40q-46 28 -64 37q-30 15 -60 15q-39 0 -53 -20q-15 -21 -27 -90h-193q12 159 83 239t177 80q58 0 101 -18q32 -13 76 -40
q47 -28 63 -37q28 -15 59 -15z" />
    <glyph glyph-name="adieresis" unicode="&#xe4;" horiz-adv-x="1294" 
d="M838 479q-8 2 -71 11q-56 8 -97 8q-51 0 -99 -8q-49 -8 -77 -21q-34 -16 -50 -37q-16 -22 -16 -55q0 -62 62 -89q65 -28 163 -28q49 0 105 8q39 6 80 17v194zM649 -51q-111 0 -214 21q-98 20 -182 69q-78 46 -128 126q-49 79 -49 193q0 104 43 183q44 81 119 132
q77 53 178 78q100 25 223 25q47 0 104 -3q53 -3 107 -11q-12 68 -76 99q-63 30 -176 30q-40 0 -94 -8q-45 -7 -105 -22q-48 -12 -103 -32q-49 -18 -136 -59l45 356q88 42 196 68q111 27 236 27q112 0 213 -26q97 -25 172 -83t115 -150q41 -94 41 -225v-690
q-128 -51 -264 -75q-128 -23 -265 -23zM412 1665q76 0 128 -45t52 -119q0 -80 -57 -125q-49 -43 -123 -43q-69 0 -124 44t-55 124q0 73 52 119q51 45 127 45zM963 1665q76 0 127 -45t51 -119q0 -81 -56 -125q-49 -43 -122 -43q-72 0 -125 44q-54 45 -54 124q0 73 52 119
q51 45 127 45z" />
    <glyph glyph-name="aring" unicode="&#xe5;" horiz-adv-x="1294" 
d="M838 479q-8 2 -71 11q-56 8 -97 8q-51 0 -99 -8q-49 -8 -77 -21q-34 -16 -50 -37q-16 -22 -16 -55q0 -62 62 -89q65 -28 163 -28q49 0 105 8q39 6 80 17v194zM649 -51q-111 0 -214 21q-98 20 -182 69q-78 46 -128 126q-49 79 -49 193q0 104 43 183q44 81 119 132
q77 53 178 78q100 25 223 25q47 0 104 -3q53 -3 107 -11q-12 68 -76 99q-63 30 -176 30q-40 0 -94 -8q-45 -7 -105 -22q-48 -12 -103 -32q-49 -18 -136 -59l45 356q88 42 196 68q111 27 236 27q112 0 213 -26q97 -25 172 -83t115 -150q41 -94 41 -225v-690
q-128 -51 -264 -75q-128 -23 -265 -23zM680 1763q101 0 171 -64q71 -65 71 -167q0 -104 -70 -169t-172 -65q-101 0 -174 65q-72 65 -72 169q0 102 72 167q71 64 174 64zM680 1620q-37 0 -65 -25q-27 -24 -27 -63q0 -41 27 -65q26 -23 65 -23q38 0 62 23q26 24 26 65
q0 39 -26 63q-27 25 -62 25z" />
    <glyph glyph-name="ae" unicode="&#xe6;" horiz-adv-x="2088" 
d="M1495 283q40 0 91 8q45 7 92 20q45 12 80 30q39 20 83 62l154 -311q-114 -64 -241 -104q-125 -39 -298 -39q-113 0 -203 28t-153 74q-92 -42 -205 -71q-121 -31 -246 -31q-111 0 -214 21q-98 20 -182 69q-78 46 -128 126q-49 79 -49 193q0 104 43 183q44 81 119 132
q77 53 178 78q100 25 223 25q47 0 104 -3q53 -3 107 -11q-12 68 -76 99q-63 30 -176 30q-40 0 -94 -8q-45 -7 -105 -22q-51 -13 -103 -32q-49 -18 -136 -59l45 356q88 42 196 68q111 27 236 27q141 0 248 -39q106 -39 153 -107q58 59 162 102q108 44 236 44q138 0 256 -50
q115 -49 200 -144t128 -231q44 -138 38 -333h-905q16 -76 100 -128q83 -52 211 -52h31zM838 479q-8 2 -71 11q-56 8 -97 8q-51 0 -99 -8q-49 -8 -77 -21q-34 -16 -50 -37q-16 -22 -16 -55q0 -62 63 -89q65 -28 162 -28q49 0 105 8q39 6 80 17v194zM1432 913q-111 0 -182 -55
q-72 -56 -87 -104h535q-15 64 -86 111q-72 48 -180 48z" />
    <glyph glyph-name="ccedilla" unicode="&#xe7;" horiz-adv-x="1142" 
d="M354 -270q60 -28 108 -39q46 -10 87 -10q45 0 74 10q30 11 30 35q0 26 -31 36q-33 11 -81 11q-34 0 -72 -5q-29 -4 -115 -20l135 225q-70 17 -160 74q-91 57 -154 136q-64 80 -99 184q-35 103 -35 217q0 138 48 253t135 201q88 87 205 134q121 49 257 49q121 0 222 -26
q98 -25 212 -83l-137 -307q-79 45 -144 63q-68 19 -141 19q-66 0 -126 -22q-56 -21 -95 -61q-40 -41 -60 -95q-22 -58 -22 -125t22 -125q21 -55 60 -94q41 -41 95 -61q57 -21 126 -21q80 0 141 17q66 18 144 67l137 -312q-116 -59 -212 -82q-99 -24 -222 -24q-22 0 -102 7
q-60 5 4 7h69l-36 -61q60 4 73 4q6 0 46 -21q41 -21 67 -57q27 -38 27 -94q0 -58 -24 -100q-23 -41 -64 -68q-39 -26 -89 -38q-45 -11 -100 -11q-45 0 -88 5q-37 4 -102 29z" />
    <glyph glyph-name="egrave" unicode="&#xe8;" horiz-adv-x="1333" 
d="M739 283q40 0 91 8q47 7 93 20q45 12 80 30q37 19 82 62l154 -311q-114 -64 -241 -104q-124 -39 -298 -39q-140 0 -262 48t-210 133q-89 86 -138 202t-49 252q0 138 50 256q48 114 137 201q88 87 203 133q117 47 249 47q138 0 256 -50q117 -49 201 -144q85 -95 128 -231
q44 -138 38 -333h-906q16 -75 101 -128q83 -52 211 -52h30zM676 913q-110 0 -181 -55q-72 -56 -87 -104h534q-15 64 -86 111q-72 48 -180 48zM256 1688h365l284 -340h-301z" />
    <glyph glyph-name="eacute" unicode="&#xe9;" horiz-adv-x="1333" 
d="M739 283q40 0 91 8q47 7 93 20q45 12 80 30q37 19 82 62l154 -311q-114 -64 -241 -104q-124 -39 -298 -39q-140 0 -262 48t-210 133q-89 86 -138 202t-49 252q0 138 50 256q48 114 137 201q88 87 203 133q117 47 249 47q138 0 256 -50q117 -49 201 -144q85 -95 128 -231
q44 -138 38 -333h-906q16 -75 101 -128q83 -52 211 -52h30zM676 913q-110 0 -181 -55q-72 -56 -87 -104h534q-15 64 -86 111q-72 48 -180 48zM776 1348h-301l287 340h362z" />
    <glyph glyph-name="ecircumflex" unicode="&#xea;" horiz-adv-x="1333" 
d="M739 283q40 0 91 8q47 7 93 20q45 12 80 30q37 19 82 62l154 -311q-114 -64 -241 -104q-124 -39 -298 -39q-140 0 -262 48t-210 133q-89 86 -138 202t-49 252q0 138 50 256q48 114 137 201q88 87 203 133q117 47 249 47q138 0 256 -50q117 -49 201 -144q85 -95 128 -231
q44 -138 38 -333h-906q16 -75 101 -128q83 -52 211 -52h30zM1165 1348h-311l-170 161l-176 -161h-313l327 340h322zM676 913q-110 0 -181 -55q-72 -56 -87 -104h534q-15 64 -86 111q-72 48 -180 48z" />
    <glyph glyph-name="edieresis" unicode="&#xeb;" horiz-adv-x="1333" 
d="M739 283q40 0 91 8q47 7 93 20q45 12 80 30q37 19 82 62l154 -311q-114 -64 -241 -104q-124 -39 -298 -39q-140 0 -262 48t-210 133q-89 86 -138 202t-49 252q0 138 50 256q48 114 137 201q88 87 203 133q117 47 249 47q138 0 256 -50q117 -49 201 -144q85 -95 128 -231
q44 -138 38 -333h-906q16 -75 101 -128q83 -52 211 -52h30zM676 913q-110 0 -181 -55q-72 -56 -87 -104h534q-15 64 -86 111q-72 48 -180 48zM426 1665q76 0 128 -45t52 -119q0 -80 -57 -125q-49 -43 -123 -43q-69 0 -124 44q-54 43 -54 124q0 74 51 119t127 45zM977 1665
q76 0 127 -45t51 -119q0 -82 -55 -125q-49 -43 -123 -43q-72 0 -125 44t-53 124q0 74 51 119t127 45z" />
    <glyph glyph-name="igrave" unicode="&#xec;" horiz-adv-x="616" 
d="M139 -27v1207h340v-1207h-340zM-104 1688h364l285 -340h-301z" />
    <glyph glyph-name="iacute" unicode="&#xed;" horiz-adv-x="616" 
d="M139 -27v1207h340v-1207h-340zM365 1348h-302l287 340h363z" />
    <glyph glyph-name="icircumflex" unicode="&#xee;" horiz-adv-x="616" 
d="M139 -27v1207h340v-1207h-340zM793 1348h-312l-170 161l-176 -161h-313l328 340h321z" />
    <glyph glyph-name="idieresis" unicode="&#xef;" horiz-adv-x="616" 
d="M139 -27v1207h340v-1207h-340zM33 1665q75 0 128 -45q52 -45 52 -119q0 -80 -57 -125q-49 -43 -123 -43q-69 0 -124 44q-54 43 -54 124q0 74 51 119t127 45zM584 1665q76 0 127 -45t51 -119q0 -82 -55 -125q-49 -43 -123 -43q-72 0 -125 44t-53 124q0 74 51 119t127 45z
" />
    <glyph glyph-name="eth" unicode="&#xf0;" horiz-adv-x="1462" 
d="M438 1241l195 100l94 -116q56 -9 -2 -12l-55 -1q-132 0 -239 -52q-106 -52 -186 -139q-79 -87 -123 -201q-44 -115 -44 -236q0 -136 52 -249q53 -116 142 -197q92 -84 209 -130q120 -47 250 -47q131 0 248 46q119 47 209 129q90 83 143 197q53 115 53 251q0 167 -59 301
q-61 140 -164 276l-246 328l199 100l-84 131l-209 -108l-45 63h-405l164 -211l-181 -92zM502 374q-42 44 -64 99q-22 56 -22 121q0 64 22 120q21 54 64 98q42 44 99 67q59 24 130 24q69 0 128 -24q57 -23 99 -67q43 -44 64 -98q22 -56 22 -121q0 -64 -21 -121
q-20 -55 -62 -98q-41 -43 -100 -67t-130 -24t-130 24q-57 23 -99 67z" />
    <glyph glyph-name="ntilde" unicode="&#xf1;" horiz-adv-x="1359" 
d="M139 1157q60 11 162 28q46 8 141 18q68 7 131 12q82 6 111 6q107 0 214 -22q99 -20 178 -79q78 -58 122 -154q45 -98 45 -245v-748h-340v666q0 146 -57 197t-174 51q-46 0 -100 -6q-31 -3 -93 -13v-895h-340v1184zM819 1563q38 0 55 21q17 22 29 89h191
q-12 -172 -83 -246q-70 -73 -175 -73q-58 0 -101 18q-38 16 -78 40q-46 28 -64 37q-30 15 -61 15q-38 0 -52 -20q-15 -21 -27 -90h-193q12 159 83 239t177 80q58 0 101 -18q32 -13 76 -40q47 -28 63 -37q28 -15 59 -15z" />
    <glyph glyph-name="ograve" unicode="&#xf2;" horiz-adv-x="1384" 
d="M692 -51q-140 0 -257 49q-118 49 -206 133q-89 84 -138 201q-50 118 -50 252q0 135 50 250q49 114 138 201q88 87 206 136q120 50 257 50t257 -50q118 -49 206 -136q89 -87 138 -201q50 -115 50 -250q0 -134 -50 -252q-49 -117 -138 -201q-88 -84 -206 -133
q-117 -49 -257 -49zM692 283q72 0 124 23q55 24 93 64q40 41 60 95q20 53 20 119q0 65 -20 118q-21 56 -60 96q-38 40 -93 64q-56 25 -124 25t-124 -25q-55 -24 -93 -64q-37 -39 -59 -96q-21 -56 -21 -118q0 -64 21 -119q21 -56 59 -95q38 -40 93 -64q52 -23 124 -23z
M254 1688h364l285 -340h-301z" />
    <glyph glyph-name="oacute" unicode="&#xf3;" horiz-adv-x="1384" 
d="M692 -51q-140 0 -257 49q-118 49 -206 133q-89 84 -138 201q-50 118 -50 252q0 135 50 250q49 114 138 201q88 87 206 136q120 50 257 50t257 -50q118 -49 206 -136q89 -87 138 -201q50 -115 50 -250q0 -134 -50 -252q-49 -117 -138 -201q-88 -84 -206 -133
q-117 -49 -257 -49zM692 283q72 0 124 23q55 24 93 64q40 41 60 95q20 53 20 119q0 65 -20 118q-21 56 -60 96q-38 40 -93 64q-56 25 -124 25t-124 -25q-55 -24 -93 -64q-37 -39 -59 -96q-21 -56 -21 -118q0 -64 21 -119q21 -56 59 -95q38 -40 93 -64q52 -23 124 -23z
M834 1348h-302l287 340h363z" />
    <glyph glyph-name="ocircumflex" unicode="&#xf4;" horiz-adv-x="1384" 
d="M692 -51q-140 0 -257 49q-118 49 -206 133q-89 84 -138 201q-50 118 -50 252q0 135 50 250q49 114 138 201q88 87 206 136q120 50 257 50t257 -50q118 -49 206 -136q89 -87 138 -201q50 -115 50 -250q0 -134 -50 -252q-49 -117 -138 -201q-88 -84 -206 -133
q-117 -49 -257 -49zM692 283q72 0 124 23q55 24 93 64q40 41 60 95q20 53 20 119q0 65 -20 118q-21 56 -60 96q-38 40 -93 64q-56 25 -124 25t-124 -25q-55 -24 -93 -64q-37 -39 -59 -96q-21 -56 -21 -118q0 -64 21 -119q21 -56 59 -95q38 -40 93 -64q52 -23 124 -23z
M1182 1348h-312l-170 161l-176 -161h-313l328 340h321z" />
    <glyph glyph-name="otilde" unicode="&#xf5;" horiz-adv-x="1384" 
d="M692 -51q-140 0 -257 49q-118 49 -206 133q-89 84 -138 201q-50 118 -50 252q0 135 50 250q49 114 138 201q88 87 206 136q120 50 257 50t257 -50q118 -49 206 -136q89 -87 138 -201q50 -115 50 -250q0 -134 -50 -252q-49 -117 -138 -201q-88 -84 -206 -133
q-117 -49 -257 -49zM692 283q72 0 124 23q55 24 93 64q40 41 60 95q20 53 20 119q0 65 -20 118q-21 56 -60 96q-38 40 -93 64q-56 25 -124 25t-124 -25q-55 -24 -93 -64q-37 -39 -59 -96q-21 -56 -21 -118q0 -64 21 -119q21 -56 59 -95q38 -40 93 -64q52 -23 124 -23z
M834 1563q38 0 55 21q16 20 28 89h191q-12 -172 -83 -246q-70 -73 -175 -73q-56 0 -100 18q-38 16 -78 40q-41 25 -65 37q-30 15 -60 15q-38 0 -52 -20q-16 -23 -28 -90h-193q12 159 83 239t178 80q57 0 100 -18q35 -15 77 -40q53 -32 62 -37q29 -15 60 -15z" />
    <glyph glyph-name="odieresis" unicode="&#xf6;" horiz-adv-x="1384" 
d="M692 -51q-140 0 -257 49q-118 49 -206 133q-89 84 -138 201q-50 118 -50 252q0 135 50 250q49 114 138 201q88 87 206 136q120 50 257 50t257 -50q118 -49 206 -136q89 -87 138 -201q50 -115 50 -250q0 -134 -50 -252q-49 -117 -138 -201q-88 -84 -206 -133
q-117 -49 -257 -49zM692 283q72 0 124 23q55 24 93 64q40 41 60 95q20 53 20 119q0 65 -20 118q-21 56 -60 96q-38 40 -93 64q-56 25 -124 25t-124 -25q-55 -24 -93 -64q-37 -39 -59 -96q-21 -56 -21 -118q0 -64 21 -119q21 -56 59 -95q38 -40 93 -64q52 -23 124 -23z
M416 1665q76 0 128 -45t52 -119q0 -80 -57 -125q-49 -43 -123 -43q-69 0 -124 44q-54 43 -54 124q0 74 51 119t127 45zM967 1665q76 0 127 -45t51 -119q0 -82 -55 -125q-49 -43 -123 -43q-72 0 -125 44q-54 45 -54 124q0 73 52 119q51 45 127 45z" />
    <glyph glyph-name="divide" unicode="&#xf7;" horiz-adv-x="1247" 
d="M68 743h1112v-319h-1112v319zM618 -119q-35 0 -76 13t-69 37q-31 27 -49 62q-18 36 -18 79q0 45 18 81q17 35 49 60q29 23 69 39q35 14 76 14q44 0 80 -14q40 -15 68 -39t48 -60q20 -37 20 -81q0 -42 -20 -79q-20 -38 -49 -62t-68 -37q-41 -13 -79 -13zM618 887
q-38 0 -76 12q-39 12 -69 38q-32 27 -49 61q-18 36 -18 79t18 80t49 62q26 21 69 38q37 15 76 15q41 0 80 -15q42 -16 68 -38q28 -24 48 -62t20 -80t-20 -79q-19 -36 -49 -61q-31 -26 -68 -38q-38 -12 -79 -12z" />
    <glyph glyph-name="oslash" unicode="&#xf8;" horiz-adv-x="1384" 
d="M195 164q-64 69 -109 179q-45 111 -45 241q0 135 50 250q49 114 138 201q88 87 206 136q120 50 257 50q103 0 193 -27t149 -64l154 177l168 -148l-154 -176q61 -67 101 -172t40 -227q0 -134 -50 -252q-49 -117 -138 -201q-88 -84 -206 -133q-117 -49 -257 -49
q-98 0 -180 22q-78 21 -139 54l-154 -175l-168 148zM395 584q0 -106 31 -152l379 436l-36 10q-36 9 -77 9q-68 0 -124 -25q-55 -24 -93 -64q-37 -39 -59 -96q-21 -56 -21 -118zM692 283q72 0 124 23q55 24 93 64q40 41 60 95q20 53 20 119q0 91 -20 127l-367 -420
q22 -8 90 -8z" />
    <glyph glyph-name="ugrave" unicode="&#xf9;" horiz-adv-x="1314" 
d="M836 1180h340v-1139q-66 -22 -139 -43q-56 -16 -117 -28q-56 -11 -124 -16q-72 -5 -141 -5q-115 0 -214 24q-98 24 -175 84q-75 59 -118 155q-42 95 -42 237v731h340v-650q0 -147 47 -197t154 -50q45 0 96 6q57 7 93 16v875zM252 1688h364l285 -340h-301z" />
    <glyph glyph-name="uacute" unicode="&#xfa;" horiz-adv-x="1314" 
d="M836 1180h340v-1139q-66 -22 -139 -43q-56 -16 -117 -28q-56 -11 -124 -16q-72 -5 -141 -5q-115 0 -214 24q-98 24 -175 84q-75 59 -118 155q-42 95 -42 237v731h340v-650q0 -147 47 -197t154 -50q45 0 96 6q57 7 93 16v875zM727 1348h-301l287 340h362z" />
    <glyph glyph-name="ucircumflex" unicode="&#xfb;" horiz-adv-x="1314" 
d="M836 1180h340v-1139q-66 -22 -139 -43q-56 -16 -117 -28q-56 -11 -124 -16q-72 -5 -141 -5q-115 0 -214 24q-98 24 -175 84q-75 59 -118 155q-42 95 -42 237v731h340v-650q0 -147 47 -197t154 -50q45 0 96 6q57 7 93 16v875zM1133 1348h-312l-170 161l-176 -161h-313
l327 340h322z" />
    <glyph glyph-name="udieresis" unicode="&#xfc;" horiz-adv-x="1314" 
d="M836 1180h340v-1139q-66 -22 -139 -43q-56 -16 -117 -28q-56 -11 -124 -16q-72 -5 -141 -5q-115 0 -214 24q-98 24 -175 84q-75 59 -118 155q-42 95 -42 237v731h340v-650q0 -147 47 -197t154 -50q45 0 96 6q57 7 93 16v875zM365 1665q75 0 128 -45q52 -45 52 -119
q0 -79 -58 -125q-49 -43 -122 -43q-69 0 -124 44t-55 124q0 73 52 119q51 45 127 45zM915 1665q76 0 127 -45q52 -46 52 -119q0 -81 -56 -125q-49 -43 -123 -43q-71 0 -124 44q-54 45 -54 124q0 74 51 119t127 45z" />
    <glyph glyph-name="yacute" unicode="&#xfd;" horiz-adv-x="1316" 
d="M121 -66q83 -36 139 -53q34 -10 106 -26q64 -14 105 -19q51 -6 92 -6q66 0 115 10q50 10 87 32q36 21 54 51l19 30l12 37q-100 -21 -215 -21q-108 0 -210 22q-95 20 -169 79q-72 57 -111 154q-39 98 -39 245v713h343v-631q0 -76 12 -124q12 -47 35 -75q21 -26 60 -38
q34 -11 93 -11q45 0 95 6q45 5 94 19v854h340v-1094q0 -154 -31 -267q-30 -110 -107 -179q-78 -71 -194 -100q-115 -29 -295 -29q-42 0 -81 4q-61 6 -89 11q-60 10 -89 16q-41 8 -95 26zM702 1348h-301l287 340h363z" />
    <glyph glyph-name="thorn" unicode="&#xfe;" horiz-adv-x="1370" 
d="M479 -477h-340v2165h340v-478l60 7q41 4 90 4q162 0 294 -50q130 -49 221 -133q92 -85 138 -200q47 -118 47 -252q0 -136 -48 -251q-48 -116 -137 -202q-88 -85 -215 -135q-125 -49 -278 -49q-39 0 -91 3t-81 9v-438zM479 299q34 -7 73 -11q47 -5 81 -5q162 0 252 74
q92 75 92 229q0 156 -92 228q-93 73 -252 73q-44 0 -85 -7q-62 -11 -69 -12v-569z" />
    <glyph glyph-name="ydieresis" unicode="&#xff;" horiz-adv-x="1316" 
d="M121 -66q83 -36 139 -53q34 -10 106 -26q64 -14 105 -19q51 -6 92 -6q66 0 115 10q50 10 87 32q36 21 54 51l19 30l12 37q-100 -21 -215 -21q-108 0 -210 22q-95 20 -169 79q-72 57 -111 154q-39 98 -39 245v713h343v-631q0 -76 12 -124q12 -47 35 -75q21 -26 60 -38
q34 -11 93 -11q45 0 95 6q45 5 94 19v854h340v-1094q0 -154 -31 -267q-30 -110 -107 -179q-78 -71 -194 -100q-115 -29 -295 -29q-42 0 -81 4q-61 6 -89 11q-60 10 -89 16q-41 8 -95 26zM369 1665q75 0 128 -45q52 -45 52 -119q0 -80 -57 -125q-49 -43 -123 -43
q-69 0 -124 44t-55 124q0 73 52 119q51 45 127 45zM920 1665q76 0 127 -45t51 -119q0 -81 -56 -125q-49 -43 -122 -43q-72 0 -125 44q-54 45 -54 124q0 73 52 119q51 45 127 45z" />
    <glyph glyph-name="dotlessi" unicode="&#x131;" horiz-adv-x="616" 
d="M139 -27v1207h340v-1207h-340z" />
    <glyph glyph-name="Lslash" unicode="&#x141;" horiz-adv-x="1406" 
d="M-76 768l355 147v773h350v-627l291 121l122 -295l-413 -174v-412h764v-328h-1114v596l-232 -96z" />
    <glyph glyph-name="lslash" unicode="&#x142;" horiz-adv-x="884" 
d="M-76 766l348 160v762h340v-607l215 101l134 -293l-349 -160v-756h-340v598l-215 -98z" />
    <glyph glyph-name="OE" unicode="&#x152;" horiz-adv-x="2676" 
d="M1452 100q-61 -52 -196 -101q-138 -50 -302 -50q-197 0 -358 67q-162 68 -281 188q-118 119 -184 280q-65 158 -65 350q0 188 65 348q66 162 184 280q119 119 281 188q160 68 358 68q164 0 302 -50q135 -49 196 -101v121h1114v-328h-766v-342h694v-332h-694v-385h770
v-328h-1118v127zM1479 834q0 127 -40 228q-39 99 -110 173q-68 71 -166 111q-94 38 -209 38q-112 0 -206 -38q-98 -40 -166 -111q-71 -74 -110 -173q-40 -101 -40 -228q0 -128 40 -229q39 -99 110 -173q67 -70 166 -110q96 -39 206 -39q113 0 209 39q99 40 166 110
q71 74 110 173q40 101 40 229z" />
    <glyph glyph-name="oe" unicode="&#x153;" horiz-adv-x="2267" 
d="M1673 283q40 0 91 8q47 7 93 20q42 12 79 30q39 20 83 62l154 -311q-114 -64 -241 -104q-125 -39 -298 -39q-162 0 -289 60q-126 59 -194 141q-58 -79 -180 -140t-279 -61q-140 0 -257 49q-118 49 -206 133q-89 84 -138 201q-50 118 -50 252q0 135 50 250q49 114 138 201
q88 87 206 136q120 50 257 50q153 0 277 -62t180 -139q63 80 188 140q127 61 277 61q138 0 256 -50q117 -49 201 -144q85 -95 128 -231q43 -135 37 -333h-905q16 -75 101 -128q83 -52 210 -52h31zM692 283q72 0 124 23q55 24 93 64q40 41 60 95q20 53 20 119q0 65 -20 118
q-21 56 -60 96q-38 40 -93 64q-56 25 -124 25t-124 -25q-55 -24 -93 -64q-37 -39 -59 -96q-21 -56 -21 -118q0 -64 21 -119q21 -56 59 -95q38 -40 93 -64q52 -23 124 -23zM1610 913q-111 0 -182 -55q-72 -56 -87 -104h535q-15 64 -86 111q-72 48 -180 48z" />
    <glyph glyph-name="Scaron" unicode="&#x160;" horiz-adv-x="1474" 
d="M197 422q67 -43 122 -67t119 -39q57 -13 129 -25q63 -10 129 -10q79 0 134 11q61 12 104 36q41 23 66 60q24 36 24 85q0 44 -19 75t-57 55q-36 23 -93 41t-126 36l-137 35q-234 57 -356 191q-121 133 -121 331q0 108 46 197q47 91 130 153t198 97q112 34 254 34
q87 0 163 -11q85 -12 160 -33q76 -21 147 -48q68 -26 147 -74l-139 -309q-114 73 -239 108q-119 33 -241 33q-59 0 -106 -10q-49 -10 -86 -31q-36 -20 -56 -48t-20 -64q0 -70 55 -113t189 -76l139 -34q105 -28 203 -71q96 -42 170 -107q73 -64 117 -153q43 -87 43 -206
q0 -123 -54 -225q-52 -97 -144 -164q-88 -64 -216 -99q-123 -34 -270 -34q-96 0 -177 11q-95 13 -170 32q-86 22 -153 47q-69 26 -148 74zM223 2044h299l185 -166l188 166h303l-346 -340h-289z" />
    <glyph glyph-name="scaron" unicode="&#x161;" horiz-adv-x="1226" 
d="M606 283q85 0 136 16q53 17 53 47t-32 50q-31 19 -136 40l-92 17q-203 39 -322 131t-119 254q0 175 137 279t371 104q134 0 271 -28q133 -27 251 -93l-123 -316q-66 34 -111 50q-43 15 -99 28q-58 14 -105 19q-53 6 -100 6q-154 0 -154 -49q0 -24 33 -45t135 -39l90 -17
q244 -47 352 -143q109 -97 109 -264q0 -82 -36 -153t-105 -122q-71 -52 -173 -79q-103 -27 -239 -27q-66 0 -143 8q-61 6 -142 24q-73 16 -132 37t-132 64l129 332q104 -69 209 -100t219 -31zM94 1688h299l185 -166l188 166h303l-346 -340h-289z" />
    <glyph glyph-name="Ydieresis" unicode="&#x178;" horiz-adv-x="1536" 
d="M1147 1688h403l-606 -1072v-643h-350v643l-608 1072h403l379 -717zM496 2040q75 0 128 -45q52 -45 52 -119q0 -79 -58 -125q-49 -43 -122 -43q-69 0 -124 44t-55 124q0 73 52 119q51 45 127 45zM1047 2040q76 0 127 -45t51 -119q0 -81 -56 -125q-49 -43 -122 -43
q-72 0 -125 44q-54 45 -54 124q0 73 52 119q51 45 127 45z" />
    <glyph glyph-name="Zcaron" unicode="&#x17d;" horiz-adv-x="1544" 
d="M158 1688h1257v-310l-889 -1077h912v-328h-1352v310l891 1077h-819v328zM307 2044h299l185 -166l188 166h303l-346 -340h-289z" />
    <glyph glyph-name="zcaron" unicode="&#x17e;" horiz-adv-x="1193" 
d="M104 1180h994v-301l-588 -586h608v-320h-1063v303l598 584h-549v320zM123 1688h299l184 -166l189 166h303l-346 -340h-289z" />
    <glyph glyph-name="florin" unicode="&#x192;" horiz-adv-x="1183" 
d="M1032 1059l-28 -201h-222l-92 -573q-21 -128 -53 -253q-29 -115 -94 -206q-62 -87 -168 -140t-266 -53l-146 11l49 311l90 -6q63 0 104 17q45 19 75 69q9 18 23 62q9 28 22 82q5 22 17 85q1 6 11 72l84 522h-123l29 201h127l35 213q15 94 45 177q29 79 82 145
q51 63 128 99q76 36 187 36q50 0 100 -12q52 -13 109 -44l-49 -305q-64 37 -85 43q-27 8 -56 8q-37 0 -57 -20q-24 -24 -37 -54q-14 -33 -22 -74q-3 -15 -7 -39.5t-6 -33.5l-25 -139h219z" />
    <glyph glyph-name="Ohorn" unicode="&#x1a0;" horiz-adv-x="362" 
d="M-27 313h457v-340h-457v340z" />
    <glyph glyph-name="Ohorn" unicode="&#x640;" horiz-adv-x="362" 
d="M-27 313h457v-340h-457v340z" />
    <glyph glyph-name="circumflex" unicode="&#x2c6;" horiz-adv-x="907" 
d="M938 1348h-311l-170 161l-176 -161h-314l328 340h321z" />
    <glyph glyph-name="caron" unicode="&#x2c7;" horiz-adv-x="907" 
d="M-33 1688h299l185 -166l188 166h303l-346 -340h-289z" />
    <glyph glyph-name="breve" unicode="&#x2d8;" horiz-adv-x="770" 
d="M768 1688q-12 -188 -114 -274q-101 -85 -271 -85q-165 0 -266 85q-103 86 -115 274h203q11 -101 59 -129q50 -29 121 -29q69 0 121 29q50 28 61 129h201z" />
    <glyph glyph-name="dotaccent" unicode="&#x2d9;" horiz-adv-x="364" 
d="M182 1665q76 0 128 -45t52 -119q0 -80 -57 -125q-49 -43 -123 -43q-69 0 -124 44q-54 43 -54 124q0 74 51 119t127 45z" />
    <glyph glyph-name="ring" unicode="&#x2da;" horiz-adv-x="495" 
d="M250 1763q101 0 171 -64q71 -65 71 -167q0 -104 -70 -169t-172 -65q-101 0 -174 65q-72 65 -72 169q0 102 72 167q71 64 174 64zM250 1620q-37 0 -65 -25q-27 -24 -27 -63q0 -41 27 -65q26 -23 65 -23q38 0 62 23q26 24 26 65q0 39 -26 63q-27 25 -62 25z" />
    <glyph glyph-name="ogonek" unicode="&#x2db;" horiz-adv-x="548" 
d="M614 27q-186 -92 -246 -135q-57 -40 -57 -82q0 -29 28 -46q26 -16 79 -16q29 0 49 4q30 6 78 19v-199q-94 -23 -197 -23q-56 0 -119 11q-59 10 -109 36t-83 69t-33 110q0 41 19 81q16 34 49 70q30 33 68 59q39 26 83 44z" />
    <glyph glyph-name="tilde" unicode="&#x2dc;" horiz-adv-x="837" 
d="M561 1563q39 0 55 21q17 22 29 89h191q-12 -172 -83 -246q-70 -73 -175 -73q-58 0 -101 18q-38 16 -78 40q-46 28 -64 37q-30 15 -61 15q-38 0 -52 -20q-15 -21 -27 -90h-193q12 159 83 239t177 80q56 0 100 -18q35 -15 77 -40q47 -28 63 -37q29 -15 59 -15z" />
    <glyph glyph-name="hungarumlaut" unicode="&#x2dd;" horiz-adv-x="1056" 
d="M274 1348h-301l287 340h363zM745 1348h-303l285 340h365z" />
    <glyph glyph-name="pi" unicode="&#x3c0;" horiz-adv-x="1667" 
d="M221 -27v887h-162v320h1502v-320h-183v-448q0 -48 3 -70q3 -21 12 -32q7 -9 30 -12t66 -3h72v-322h-121q-113 0 -191 15q-81 16 -125 54q-47 41 -66 106q-20 68 -20 167v545h-477v-887h-340z" />
    <glyph glyph-name="uni060C" unicode="&#x60c;" horiz-adv-x="804" 
d="M528 -100h-364l289 673h286z" />
    <glyph glyph-name="uni0615" unicode="&#x615;" 
d="M-29 328h78q115 0 187 -63q71 -62 71 -185v-107h-612v166h102v303h174v-114zM-29 182v-43h140q0 1 -16 23q-14 20 -44 20h-80z" />
    <glyph glyph-name="uni061B" unicode="&#x61b;" horiz-adv-x="854" 
d="M393 -49q-41 0 -79 12q-35 11 -67 37q-29 23 -49 60t-20 79q0 44 20 81q20 38 48 61q27 23 67 38q39 15 80 15t80 -15q42 -16 68 -38q28 -23 48 -61q19 -35 19 -81q0 -44 -19 -79q-20 -37 -49 -60q-32 -25 -68 -37q-38 -12 -79 -12zM578 694h-365l289 674h286z" />
    <glyph glyph-name="uni061F" unicode="&#x61f;" horiz-adv-x="1169" 
d="M743 -51q-41 0 -79 13q-41 14 -70 39q-32 27 -50 62q-20 38 -20 82t20 82t49 63t70 40q38 14 80 14t80 -13q41 -14 71 -40q32 -27 51 -64q20 -38 20 -82q0 -45 -20 -83t-51 -62q-32 -25 -71 -38q-38 -13 -80 -13zM758 1313q-52 0 -106 -17q-52 -16 -92 -46
q-41 -30 -64 -71q-25 -44 -25 -96q0 -65 30 -110t82 -75q53 -30 124 -42q72 -12 153 -12h51v-457h-340v193q-76 17 -160 59q-88 44 -152 111t-103 156q-39 88 -39 204q0 122 47 222q47 99 131 170q84 70 195 108q110 37 239 37q123 0 212 -21q94 -22 175 -55l45 -359
q-127 56 -219 78q-94 23 -184 23z" />
    <glyph glyph-name="uni0647" unicode="&#x647;" horiz-adv-x="1742" 
d="M147 313h228q0 -1 -6 39q-7 47 -7 82q0 240 120 370t331 130q98 0 182 -36q87 -37 145 -101q59 -65 94 -158q34 -90 34 -203q0 -36 -5 -83q-1 -8 -2 -15t-1.5 -11.5t-1 -8t-0.5 -4.5l-1 -1h132q2 11 8 79q4 43 4 89q0 115 -25 210q-23 86 -78 173q-67 100 -173 149
q-109 50 -275 50q-126 0 -234 -42q-115 -45 -215 -101l-114 311q159 81 320 128q157 46 317 46q115 0 214 -26t177 -70q77 -44 142 -107q60 -59 112 -131q87 -127 130 -289q42 -159 42 -350q0 -56 -7 -111q-8 -59 -18 -117q-13 -75 -24 -114q-19 -70 -35 -117h-1510v340z
M672 440q0 -39 5 -82t5 -45h266q0 2 5 45t5 82q0 90 -37 137q-37 48 -108 48t-106 -47t-35 -138z" />
    <glyph glyph-name="uni064B" unicode="&#x64b;" 
d="M-254 119l512 74v-150l-512 -74v150zM-256 287l512 73v-149l-512 -74v150z" />
    <glyph glyph-name="uni064C" unicode="&#x64c;" 
d="M-311 231l147 60l53 -150l41 6q-2 6 -2 43q0 78 46 140q46 63 151 63q79 0 129 -54q49 -53 49 -138q0 -16 -2 -60q-1 -28 -14 -92l-496 -78zM72 197v-2v-2v-2v-2v-3v-2v-2v-2v-8l96 14q-15 -49 -16 9q0 19 -10 32t-31 13q-16 0 -28 -12q-11 -11 -11 -31z" />
    <glyph glyph-name="uni064D" unicode="&#x64d;" 
d="M-254 -211l512 74v-150l-512 -73v149zM-256 -43l512 74v-150l-512 -74v150z" />
    <glyph glyph-name="uni064E" unicode="&#x64e;" 
d="M-256 125l512 74v-156l-512 -74v156z" />
    <glyph glyph-name="uni064F" unicode="&#x64f;" 
d="M-264 123l153 24q-2 6 -2 43q0 77 45 140t150 63q82 0 131 -54q49 -53 49 -138q0 -16 -2 -60q-1 -28 -14 -92l-494 -76zM29 193v-2v-2v-3v-2v-2v-10l82 12v0v1v1v9q0 19 -10 32t-31 13q-18 0 -30 -12q-11 -11 -11 -35z" />
    <glyph glyph-name="uni0650" unicode="&#x650;" 
d="M-256 -43l512 74v-156l-512 -74v156z" />
    <glyph glyph-name="uni0651" unicode="&#x651;" 
d="M-106 -27q-59 0 -109 35q-49 34 -66 117l-26 141l151 31l27 -135q6 -26 13 -31q8 -6 18 -6q16 0 25 12q10 13 10 45q0 15 -5 45l-14 84l156 23l24 -137q6 -29 29 -29q31 0 31 33q0 25 -6 56t-33 97l160 37q10 -50 18 -86l8 -49q4 -24 4 -45q0 -93 -51 -142
q-53 -51 -139 -51q-36 0 -53 11q-19 12 -25 24q-5 -13 -44 -46q-40 -34 -103 -34z" />
    <glyph glyph-name="uni0652" unicode="&#x652;" 
d="M-8 -27q-84 0 -138 52q-53 51 -53 157q0 98 58 156q57 57 145 57q92 0 143 -58q52 -60 52 -156q0 -97 -60 -152q-61 -56 -147 -56zM-2 123q21 0 35 10t14 47q0 35 -14 49q-15 15 -35 15q-15 0 -30 -12t-15 -48q0 -43 12 -52t33 -9z" />
    <glyph glyph-name="uni0653" unicode="&#x653;" horiz-adv-x="686" 
d="M37 1645h612v-187h-612v187z" />
    <glyph glyph-name="uni0654" unicode="&#x654;" horiz-adv-x="686" 
d="M109 1579q0 152 76 216q77 65 208 65h129v-146h-112q-49 0 -67 -18q-17 -17 -17 -31h262v-207h-479v121z" />
    <glyph glyph-name="uni0655" unicode="&#x655;" horiz-adv-x="686" 
d="M393 -451q-131 0 -208 65q-76 64 -76 216v121h479v-207h-262q0 -14 17 -31q18 -18 67 -18h112v-146h-129z" />
    <glyph glyph-name="uni0656" unicode="&#x656;" 
d="M-84 27h168v-430l-168 -25v455z" />
    <glyph glyph-name="uni0658" unicode="&#x658;" 
d="M14 -27q-162 0 -225 68q-63 67 -63 213v192h176v-188q0 -58 25 -83t89 -25h82v296h176v-473h-260zM-76 649h172l-24 -401l-123 -19z" />
    <glyph glyph-name="uni0660" unicode="&#x660;" horiz-adv-x="1011" 
d="M506 922l268 -269l-268 -268l-268 268z" />
    <glyph glyph-name="uni0661" unicode="&#x661;" horiz-adv-x="899" 
d="M279 -27v1434h339v-1434h-339z" />
    <glyph glyph-name="uni0662" unicode="&#x662;" horiz-adv-x="1462" 
d="M254 -27v1434h340v-576q25 -8 73 -17q49 -9 95 -9q112 0 158 54q47 55 47 167v381h340v-428q0 -514 -514 -514q-57 0 -118 10q-62 10 -81 17v-519h-340z" />
    <glyph glyph-name="uni0663" unicode="&#x663;" horiz-adv-x="1660" 
d="M279 -27v1434h339v-596q16 -6 50 -6q35 0 56 8q20 8 32 26q13 19 17 53q5 40 5 93v422h299v-432q0 -34 -2 -86q-1 -27 -4 -51q16 -2 53 -2q43 0 63 33q21 35 21 141v397h340v-467q0 -223 -112 -334q-111 -110 -310 -110q-46 0 -101 13q-58 14 -91 28q-44 -36 -115 -55
q-65 -17 -123 -17q-57 0 -78 6v-498h-339z" />
    <glyph glyph-name="uni0664" unicode="&#x664;" horiz-adv-x="1386" 
d="M723 -27q-228 0 -368 93q-138 92 -138 288q0 99 43 178q46 83 98 130q-36 63 -59 144q-25 86 -25 177q0 104 34 191q33 85 101 153q65 65 162 103q92 36 220 36q115 0 220 -30q86 -25 236 -78l-110 -303l-117 39q-33 13 -69 20q-32 6 -65 9q-34 3 -75 3q-44 0 -77 -11
q-36 -12 -62 -32q-27 -21 -42 -51q-16 -32 -16 -69q0 -50 8 -90q8 -37 15 -54q64 22 139 43l266 64l60 -295l-348 -84q-90 -21 -141 -52q-52 -31 -52 -85q0 -29 20 -49q18 -18 54 -29q35 -10 75 -15q36 -4 72 -4h449v-340h-508z" />
    <glyph glyph-name="uni0665" unicode="&#x665;" horiz-adv-x="1447" 
d="M713 -47q-116 0 -221 31q-103 30 -178 98q-75 67 -115 172q-41 106 -41 246q0 188 45 355q46 169 121 296q78 131 179 206q104 77 220 77q104 0 206 -69t182 -189q81 -121 130 -293q49 -171 49 -383q0 -152 -43 -256t-121 -170t-183 -93q-109 -28 -230 -28zM717 293
q123 0 178 58t55 202q0 110 -17 204q-18 100 -48 176t-73 119q-42 42 -95 42q-45 0 -85 -42q-39 -41 -70 -119q-28 -71 -47 -176q-17 -94 -17 -204q0 -144 52 -202t167 -58z" />
    <glyph glyph-name="uni0666" unicode="&#x666;" horiz-adv-x="1302" 
d="M709 -27v1094h-578v340h918v-1434h-340z" />
    <glyph glyph-name="uni0667" unicode="&#x667;" horiz-adv-x="1540" 
d="M528 -27l-430 1434h357l327 -1104h-37l342 1104h359l-451 -1434h-467z" />
    <glyph glyph-name="uni0668" unicode="&#x668;" horiz-adv-x="1540" 
d="M995 1407l451 -1434h-359l-342 1104h37l-327 -1104h-357l430 1434h467z" />
    <glyph glyph-name="uni0669" unicode="&#x669;" horiz-adv-x="1492" 
d="M899 -27v351q-7 0 -41 -3q-46 -4 -65 -4q-127 0 -245 31q-114 30 -198 96t-133 166q-49 99 -49 240q0 144 54 249q53 104 151 174q94 67 228 101q132 33 290 33h348v-1434h-340zM774 657q70 0 125 5v405h-82q-149 0 -229 -51t-80 -166q0 -106 72 -149q73 -44 194 -44z
" />
    <glyph glyph-name="uni066A" unicode="&#x66a;" horiz-adv-x="1335" 
d="M891 1839h330l-770 -2122h-336zM983 94q-41 0 -79 12q-35 11 -67 37q-30 24 -50 61q-19 35 -19 79q0 46 19 81q19 34 49 60q29 24 67 39q36 14 80 14t80 -14q38 -15 67 -39q30 -26 49 -60q19 -35 19 -81q0 -44 -19 -79q-20 -37 -50 -61q-32 -26 -67 -37q-38 -12 -79 -12z
M379 1130q-38 0 -79 13q-36 12 -68 37q-29 23 -49 60q-19 35 -19 79q0 46 19 81q19 36 48 60q28 24 68 39q36 14 80 14t80 -14q38 -15 67 -39q28 -24 48 -60q20 -37 20 -81q0 -42 -20 -79t-49 -60q-32 -26 -67 -37q-41 -13 -79 -13z" />
    <glyph glyph-name="uni066B" unicode="&#x66b;" horiz-adv-x="804" 
d="M528 -100h-364l289 673h286z" />
    <glyph glyph-name="uni066C" unicode="&#x66c;" horiz-adv-x="804" 
d="M528 903h-364l289 674h286z" />
    <glyph glyph-name="uni066D" unicode="&#x66d;" horiz-adv-x="1198" 
d="M856 555l123 -444l-385 254l-385 -254l123 444l-361 287l461 22l162 432l160 -432l463 -22z" />
    <glyph glyph-name="uni066E" unicode="&#x66e;" horiz-adv-x="1767" 
d="M762 -27q-86 0 -171 10q-76 9 -142 30q-63 20 -121 56q-56 35 -105 81q-82 76 -113 194q-32 120 -32 248v414h340v-379q0 -91 17 -148q18 -59 59 -94q51 -42 123 -56q80 -16 165 -16h547v867h340v-1207h-907z" />
    <glyph glyph-name="uni066F" unicode="&#x66f;" horiz-adv-x="1792" 
d="M764 -477q-94 0 -171 9q-71 8 -142 31q-67 21 -121 55q-56 34 -105 81q-81 75 -113 195t-32 247v475h340v-440q0 -90 17 -147q18 -60 59 -95q50 -41 124 -56q75 -15 164 -15h570v110h-11q-153 0 -283 34q-132 35 -232 107q-99 72 -156 188q-58 118 -58 276q0 140 56 252
q57 114 152 190q99 79 231 119q135 41 290 41h351v-1657h-930zM954 578q0 -66 24 -115q25 -51 63 -82q39 -32 97 -50q57 -18 122 -18h94v527h-94q-58 0 -116 -20q-57 -20 -98 -53q-44 -36 -67 -82q-25 -50 -25 -107z" />
    <glyph glyph-name="uni0670" unicode="&#x670;" 
d="M-84 424h168v-430l-168 -25v455z" />
    <glyph glyph-name="uni06A1" unicode="&#x6a1;" horiz-adv-x="2320" 
d="M838 -27q-86 0 -171 10q-77 9 -143 30q-63 20 -121 56q-53 33 -104 81q-83 77 -114 194t-31 248v414h340v-379q0 -91 17 -148q18 -60 58 -94q50 -41 124 -56q80 -16 165 -16h281q-18 23 -44 97q-28 79 -28 168q0 142 52 252t148 191q92 77 226 119q129 40 289 40h364
v-1207h-1308zM1407 578q0 -88 39 -156q41 -70 98 -109h262v527h-94q-57 0 -114 -18t-98 -50q-42 -33 -67 -82q-26 -50 -26 -112z" />
    <glyph glyph-name="uni06C2" unicode="&#x6c2;" horiz-adv-x="1171" 
d="M813 -27q-158 0 -290 36t-229 112q-99 77 -153 189q-55 113 -55 265q0 132 49 242q49 111 144 192t229 126q135 45 305 45h14v102h340v-1309h-354zM827 313v527h-84q-56 0 -116 -19t-103 -52q-44 -34 -71 -82t-27 -112q0 -63 25 -113q24 -48 66 -81q40 -32 97 -50
q56 -18 115 -18h98zM670 1511q0 152 76 216q77 65 208 65h150v-145h-133q-48 0 -67 -19q-17 -17 -17 -57v-29h282v-207h-499v176z" />
    <glyph glyph-name="uni06C3" unicode="&#x6c3;" horiz-adv-x="1171" 
d="M813 -27q-158 0 -290 36t-229 112q-99 77 -153 189q-55 113 -55 265q0 132 49 242q49 111 144 192t229 126q135 45 305 45h14v102h340v-1309h-354zM827 313v527h-84q-56 0 -116 -19t-103 -52q-44 -34 -71 -82t-27 -112q0 -63 25 -113q24 -48 66 -81q40 -32 97 -50
q56 -18 115 -18h98zM973 1380q-75 0 -131 45t-56 129q0 78 55 125t132 47q80 0 133 -47t53 -125q0 -84 -55 -129q-56 -45 -131 -45zM528 1380q-76 0 -131 45t-55 129q0 78 54 125q55 47 132 47t132 -47t55 -125q0 -84 -56 -129q-55 -45 -131 -45z" />
    <glyph glyph-name="uni06D5" unicode="&#x6d5;" horiz-adv-x="1171" 
d="M813 -27q-158 0 -290 36t-229 112q-99 77 -153 189q-55 113 -55 265q0 132 49 242q49 111 144 192t229 126q135 45 305 45h14v102h340v-1309h-354zM827 313v527h-84q-56 0 -116 -19t-103 -52q-44 -34 -71 -82t-27 -112q0 -63 25 -113q24 -48 66 -81q40 -32 97 -50
q56 -18 115 -18h98z" />
    <glyph glyph-name="uni06F0" unicode="&#x6f0;" horiz-adv-x="958" 
d="M481 922l269 -269l-269 -268l-268 268z" />
    <glyph glyph-name="uni06F1" unicode="&#x6f1;" horiz-adv-x="829" 
d="M246 -27v1434h340v-1434h-340z" />
    <glyph glyph-name="uni06F2" unicode="&#x6f2;" horiz-adv-x="1280" 
d="M221 -27v1434h340v-576q25 -8 73 -17q49 -9 95 -9q112 0 158 54q47 55 47 167v381h340v-428q0 -514 -514 -514q-57 0 -118 10q-62 10 -81 17v-519h-340z" />
    <glyph glyph-name="uni06F3" unicode="&#x6f3;" horiz-adv-x="1464" 
d="M279 -27v1434h339v-596q16 -6 50 -6q35 0 56 8q20 8 32 26q13 19 17 53q5 40 5 93v422h299v-432q0 -34 -2 -86q-1 -27 -4 -51q16 -2 53 -2q43 0 63 33q21 35 21 141v397h340v-467q0 -223 -112 -334q-111 -110 -310 -110q-46 0 -101 13q-58 14 -91 28q-44 -36 -115 -55
q-65 -17 -123 -17q-57 0 -78 6v-498h-339z" />
    <glyph glyph-name="uni06F4" unicode="&#x6f4;" horiz-adv-x="1648" 
d="M254 -27v1434h340v-547q8 -2 71 -14q67 -12 83 -15q-9 24 -25 96q-14 64 -14 124q0 85 26 159q26 75 77 133q50 58 127 91q74 32 179 32q36 0 66 -3q34 -3 62 -10q36 -9 66 -19q24 -9 99 -39l-92 -271q-78 32 -101 37q-27 6 -69 6q-26 0 -50 -10q-25 -10 -45 -29
q-20 -18 -32 -49q-12 -30 -12 -67q0 -55 10 -102q10 -49 29 -83q82 7 159 34q63 22 172 73l121 -313q-185 -74 -305 -105q-135 -35 -278 -35q-33 0 -78 3q-30 2 -94 10q-48 6 -96 15q-16 3 -56 11v-547h-340z" />
    <glyph glyph-name="uni06F5" unicode="&#x6f5;" horiz-adv-x="1372" 
d="M516 -47q-76 0 -146 35q-69 34 -117 99q-48 64 -75 157q-26 88 -26 209q0 223 97 414t249 343q-40 32 -76 56l-94 65l200 275q175 -116 311 -232q126 -108 236 -244q111 -143 175 -314q67 -178 67 -359q0 -116 -28 -211q-27 -91 -77 -158q-50 -66 -117 -100
q-70 -35 -147 -35q-85 0 -143 35t-74 67q-17 -30 -73 -66q-57 -36 -142 -36zM752 991q-104 -92 -181 -215q-79 -127 -79 -284q0 -99 17 -149q18 -52 62 -52q25 0 39 10q15 11 23 29q8 19 11 46t3 83h174q0 -55 3 -84q3 -26 11 -46q8 -19 20 -27q13 -9 38 -9q47 0 65 46
q19 49 19 144q0 141 -57 262q-57 120 -156 232z" />
    <glyph glyph-name="uni06F6" unicode="&#x6f6;" horiz-adv-x="1388" 
d="M223 -27v299q0 126 46 214q48 91 110 137q-45 77 -74 164q-31 95 -31 196q0 104 34 191q33 85 101 153q65 65 162 103q92 36 220 36q115 0 220 -30q86 -25 236 -78l-110 -305l-117 43q-20 6 -68 17q-30 7 -66 10q-34 3 -75 3q-44 0 -77 -11q-36 -12 -62 -32
q-27 -21 -42 -51q-16 -32 -16 -69q0 -68 15 -116q16 -50 37 -87l53 14l338 84l69 -334l-297 -71q-56 -12 -106 -33q-51 -22 -85 -50q-36 -30 -55 -70q-20 -42 -20 -93v-234h-340z" />
    <glyph glyph-name="uni06F7" unicode="&#x6f7;" horiz-adv-x="1290" 
d="M406 -27l-431 1434h357l327 -1104h-36l342 1104h358l-451 -1434h-466z" />
    <glyph glyph-name="uni06F8" unicode="&#x6f8;" horiz-adv-x="1290" 
d="M899 1407l451 -1434h-359l-342 1104h37l-328 -1104h-356l430 1434h467z" />
    <glyph glyph-name="uni06F9" unicode="&#x6f9;" horiz-adv-x="1296" 
d="M762 -27v351q-7 0 -41 -3q-46 -4 -66 -4q-126 0 -244 31q-114 30 -198 96t-133 166q-49 99 -49 240q0 144 54 249q53 104 151 174q94 67 228 101q132 33 290 33h348v-1434h-340zM637 657q70 0 125 5v405h-82q-150 0 -229 -51q-80 -51 -80 -166q0 -106 71 -149
q73 -44 195 -44z" />
    <glyph glyph-name="endash" unicode="&#x2013;" horiz-adv-x="1212" 
d="M68 743h1077v-319h-1077v319z" />
    <glyph glyph-name="emdash" unicode="&#x2014;" horiz-adv-x="1703" 
d="M68 743h1568v-319h-1568v319z" />
    <glyph glyph-name="quoteleft" unicode="&#x2018;" horiz-adv-x="616" 
d="M369 1014h-365l291 674h285z" />
    <glyph glyph-name="quoteright" unicode="&#x2019;" horiz-adv-x="616" 
d="M219 1688h365l-291 -674h-285z" />
    <glyph glyph-name="quotesinglbase" unicode="&#x201a;" horiz-adv-x="616" 
d="M209 307h364l-288 -674h-287z" />
    <glyph glyph-name="quotedblleft" unicode="&#x201c;" horiz-adv-x="1112" 
d="M864 1014h-366l290 674h287zM369 1014h-365l291 674h285z" />
    <glyph glyph-name="quotedblright" unicode="&#x201d;" horiz-adv-x="1112" 
d="M219 1688h365l-291 -674h-285zM713 1688h366l-291 -674h-286z" />
    <glyph glyph-name="quotedblbase" unicode="&#x201e;" horiz-adv-x="1122" 
d="M209 307h364l-288 -674h-287zM713 307h366l-291 -674h-286z" />
    <glyph glyph-name="dagger" unicode="&#x2020;" horiz-adv-x="1359" 
d="M510 924h-453v319h453v445h340v-445h453v-319h-453v-951h-340v951z" />
    <glyph glyph-name="daggerdbl" unicode="&#x2021;" horiz-adv-x="1437" 
d="M549 993h-453v322h453v373h340v-373h452v-322h-452v-313h452v-322h-452v-385h-340v385h-453v322h453v313z" />
    <glyph glyph-name="bullet" unicode="&#x2022;" horiz-adv-x="886" 
d="M444 360q-88 0 -165 33q-79 34 -131 89q-55 58 -86 130t-31 160q0 87 31 161q30 72 86 131q52 55 131 89q76 33 165 33q88 0 163 -33t131 -89q58 -58 87 -131q31 -77 31 -161t-31 -160q-30 -73 -87 -130q-56 -56 -131 -89t-163 -33z" />
    <glyph glyph-name="ellipsis" unicode="&#x2026;" horiz-adv-x="1892" 
d="M295 -49q-41 0 -79 12q-37 12 -68 38q-30 25 -49 61q-19 35 -19 79q0 43 19 80q20 38 48 62t68 39q36 14 80 14t80 -14q38 -15 67 -39q28 -24 48 -62t20 -80t-20 -79q-19 -36 -49 -61q-31 -27 -67 -38q-38 -12 -79 -12zM944 -49q-40 0 -77 12t-68 38q-32 27 -49 61
q-19 38 -19 79q0 40 19 80q18 37 49 62q29 24 68 39q35 14 77 14q44 0 79 -14q40 -16 69 -39q30 -24 50 -62q19 -37 19 -80q0 -44 -19 -79q-19 -34 -50 -61q-30 -26 -69 -38q-37 -12 -79 -12zM1595 -49q-39 0 -76 12q-39 12 -69 38q-32 27 -49 61q-19 38 -19 79q0 40 19 80
q18 37 49 62q28 23 69 39q35 14 76 14q44 0 79 -14q40 -16 69 -39q30 -24 50 -62q19 -37 19 -80q0 -44 -19 -79q-19 -34 -50 -61q-30 -26 -69 -38q-37 -12 -79 -12z" />
    <glyph glyph-name="perthousand" unicode="&#x2030;" horiz-adv-x="3106" 
d="M494 682q-104 0 -183 38t-131 106q-54 71 -79 163q-25 93 -25 211t25 211q25 92 79 163q52 68 131 106t183 38q102 0 183 -38q80 -38 132 -106q53 -68 79 -163q25 -93 25 -211t-25 -211q-25 -92 -79 -163q-52 -68 -132 -106q-81 -38 -183 -38zM494 969q56 0 94 50
q37 49 37 181t-37 182q-38 52 -94 52q-57 0 -95 -52q-37 -50 -37 -182t37 -181q38 -50 95 -50zM326 -25l1198 1713h358l-1198 -1713h-358zM1710 -53q-103 0 -182 38t-131 106q-53 68 -79 163q-26 96 -26 211t26 211q25 92 79 163q52 68 131 106t182 38q102 0 183 -38
q80 -38 132 -106q54 -71 79 -163q26 -96 26 -211t-26 -211q-25 -92 -79 -163q-52 -68 -132 -106q-81 -38 -183 -38zM1710 233q55 0 94 51q37 49 37 181t-37 182q-38 51 -94 51t-94 -51q-37 -50 -37 -182t37 -181q39 -51 94 -51zM2611 -53q-103 0 -182 38t-131 106
q-54 71 -79 163q-26 96 -26 211t26 211q25 92 79 163q54 69 131 106q79 38 182 38q102 0 183 -38q82 -39 133 -106q52 -66 78 -163q26 -96 26 -211t-26 -211q-25 -94 -78 -163q-51 -67 -133 -106q-81 -38 -183 -38zM2611 233q55 0 94 51q37 49 37 181t-37 182q-37 51 -94 51
t-94 -51q-37 -50 -37 -182t37 -181q39 -51 94 -51z" />
    <glyph glyph-name="guilsinglleft" unicode="&#x2039;" horiz-adv-x="727" 
d="M23 590l335 551h363l-326 -549l324 -555h-359z" />
    <glyph glyph-name="guilsinglright" unicode="&#x203a;" horiz-adv-x="727" 
d="M365 37h-357l322 555l-324 549h361l338 -551z" />
    <glyph glyph-name="fraction" unicode="&#x2044;" horiz-adv-x="1331" 
d="M-113 -25l1198 1713h359l-1198 -1713h-359z" />
    <glyph glyph-name="Euro" unicode="&#x20ac;" horiz-adv-x="1812" 
d="M102 1200l-122 -248h342q0 -3 -1.5 -11.5t-2.5 -18.5t-1 -20q-2 -46 -2 -68v-31q0 -101 -12 -12h-201l-122 -248h376q34 -122 109 -232q73 -107 179 -186q103 -77 241 -121q133 -43 297 -43q156 0 303 38q143 37 264 112l-125 286q-100 -62 -207 -97q-103 -34 -225 -34
q-76 0 -155 19q-76 18 -139 55q-68 39 -116 92q-50 55 -73 111h329l125 248h-504q-12 89 -12 12v31q0 24 2 66q1 31 6 52h588l125 248h-612q61 88 180 142q121 55 256 55q122 0 225 -34q107 -35 207 -97l125 286q-121 75 -264 112q-147 38 -303 38q-151 0 -277 -37
q-128 -38 -229 -103t-177 -161q-74 -93 -118 -201h-279z" />
    <glyph glyph-name="trademark" unicode="&#x2122;" horiz-adv-x="2080" 
d="M313 1466h-295v222h824v-222h-295v-751h-234v751zM1276 715l-158 594v-594h-233v973h354l176 -672l174 672h353v-973h-230v594l-158 -594h-278z" />
    <glyph glyph-name="Omega" unicode="&#x2126;" horiz-adv-x="1906" 
d="M952 1718q166 0 321 -47q151 -46 270 -138q120 -93 188 -227q69 -136 69 -311q0 -125 -38 -234q-38 -108 -103 -193q-63 -82 -155 -141q-88 -57 -169 -75v-59h424v-320h-721v611q216 30 321 133q103 102 103 262q0 103 -39 179t-108 129t-163 80q-96 28 -200 28
q-103 0 -199 -28q-92 -27 -162 -80q-68 -52 -109 -129q-40 -76 -40 -179q0 -160 105 -262q106 -103 319 -133v-611h-721v320h424v59q-81 18 -169 75q-90 58 -154 141q-65 85 -103 193q-37 107 -37 234q0 173 70 310q69 136 186 227q119 93 270 139q155 47 320 47z" />
    <glyph glyph-name="twothirds" unicode="&#x2154;" horiz-adv-x="2105" 
d="M1608 1540l-852 -1638l-191 94l854 1636zM1243 662q17 159 104 239q88 80 232 80q138 0 227 -77q88 -76 88 -210q0 -61 -25 -120q-26 -61 -40 -68q32 -15 65 -88t33 -144q0 -74 -27 -134q-26 -59 -76 -102q-49 -43 -115 -64t-142 -21q-74 0 -137 24t-112 67
q-50 43 -77 101q-29 61 -35 154h250q6 -71 36 -103t82 -32t81 38q28 37 28 83q0 21 -8 45q-8 23 -22 40q-14 16 -35 27q-21 10 -47 9l-66 -5v185h49q50 0 75 26q26 28 26 76q0 36 -23 64q-22 26 -65 26q-39 0 -60 -27q-19 -25 -24 -89h-240zM907 893v-211h-760l293 340
l64 74q29 34 69 90q35 49 56 90q22 43 22 76q0 57 -25 91t-77 34q-25 0 -43 -12q-21 -14 -31 -30q-12 -20 -18 -43q-6 -25 -2 -75h-265q6 99 32 162q24 59 71 107q44 46 108 73q63 27 148 27q69 0 136 -25q64 -24 113 -68q49 -45 75 -102q28 -62 28 -129q0 -111 -55 -196
q-52 -81 -127 -160l-105 -113h293z" />
    <glyph glyph-name="partialdiff" unicode="&#x2202;" horiz-adv-x="1462" 
d="M979 7q119 47 209 129q90 83 143 197q53 115 53 251q0 167 -59 301q-61 140 -164 276l-385 514h-407l358 -450q56 -9 -2 -12l-55 -1q-132 0 -239 -52q-106 -52 -186 -139q-79 -87 -123 -201q-44 -115 -44 -236q0 -136 52 -249q53 -116 142 -197q92 -84 209 -130
q120 -47 250 -47q131 0 248 46zM502 374q-42 44 -64 99q-22 56 -22 121q0 64 22 120q21 54 64 98q42 44 99 67q59 24 130 24q69 0 128 -24q57 -23 99 -67q43 -44 64 -98q22 -56 22 -121q0 -64 -21 -121q-20 -55 -62 -98q-41 -43 -100 -67t-130 -24t-130 24q-57 23 -99 67z
" />
    <glyph glyph-name="Delta" unicode="&#x2206;" horiz-adv-x="1683" 
d="M842 1759l854 -1788h-1708zM842 1126l-414 -880h832z" />
    <glyph glyph-name="product" unicode="&#x220f;" horiz-adv-x="1626" 
d="M139 -477v2165h1348v-2165h-340v1845h-668v-1845h-340z" />
    <glyph glyph-name="summation" unicode="&#x2211;" horiz-adv-x="1462" 
d="M758 606l-723 778v304h1392v-320h-964l711 -762l-711 -764h964v-319h-1392v303z" />
    <glyph glyph-name="minus" unicode="&#x2212;" horiz-adv-x="1247" 
d="M68 743h1112v-319h-1112v319z" />
    <glyph glyph-name="radical" unicode="&#x221a;" horiz-adv-x="1527" 
d="M492 672l290 -717l361 1733h336l-451 -2134h-395l-328 757l-205 -75l-94 256z" />
    <glyph glyph-name="infinity" unicode="&#x221e;" horiz-adv-x="1937" 
d="M1411 1069q108 0 197 -34q91 -35 155 -93q66 -60 103 -142q37 -81 37 -184q0 -101 -35 -186q-33 -81 -100 -143q-62 -58 -154 -93q-89 -34 -197 -34q-151 0 -261 70q-112 71 -185 153q-33 -35 -79 -73q-53 -44 -110 -77q-55 -32 -123 -52q-64 -19 -139 -19
q-107 0 -196 34q-94 36 -155 93q-65 61 -99 143q-35 85 -35 184q0 102 36 184q36 83 101 142q64 58 157 93q90 34 199 34q149 0 262 -67q112 -67 181 -140q77 83 181 144q108 63 259 63zM526 475q77 0 136 43q57 41 108 100q-44 49 -101 93q-61 47 -135 47q-75 0 -122 -38
t-47 -104q0 -57 45 -99t116 -42zM1405 758q-75 0 -134 -46q-60 -47 -100 -94q42 -50 105 -97q61 -46 137 -46q69 0 115 41q45 40 45 100t-44 101t-124 41z" />
    <glyph glyph-name="integral" unicode="&#x222b;" horiz-adv-x="892" 
d="M616 -53q0 -221 -117 -322q-119 -102 -368 -102h-178v319h176q49 0 79 10t43 26q16 19 20 47q5 33 5 75v1264q0 219 118 321q120 103 368 103h178v-320h-176q-52 0 -79 -9q-28 -9 -43 -27q-16 -19 -20 -47q-6 -40 -6 -75v-1263z" />
    <glyph glyph-name="approxequal" unicode="&#x2248;" horiz-adv-x="1318" 
d="M895 879q48 0 75 28q28 29 38 129h247q-12 -217 -92 -326q-79 -108 -235 -108q-75 0 -147 26q-68 25 -134 56q-63 30 -120 54t-103 24t-74 -28q-26 -26 -37 -130h-247q12 218 92 327q79 107 237 107q82 0 154 -25q57 -20 139 -57l117 -55q50 -22 90 -22zM895 379
q48 0 75 30q28 31 38 130h247q-12 -221 -92 -328t-235 -107q-75 0 -147 26q-68 25 -134 56q-81 39 -120 55q-55 23 -103 23q-47 0 -74 -28q-26 -28 -37 -130h-247q12 217 92 326t237 109q81 0 154 -27q78 -29 139 -55l117 -58q50 -22 90 -22z" />
    <glyph glyph-name="notequal" unicode="&#x2260;" horiz-adv-x="1247" 
d="M68 1008h665l156 260h311l-156 -260h136v-320h-326l-123 -207h449v-321h-641l-179 -301h-315l180 301h-157v321h350l123 207h-473v320z" />
    <glyph glyph-name="lessequal" unicode="&#x2264;" horiz-adv-x="1413" 
d="M1329 535v-297l-1245 337v334l1245 334v-295l-815 -207zM84 244h1245v-271h-1245v271z" />
    <glyph glyph-name="greaterequal" unicode="&#x2265;" horiz-adv-x="1413" 
d="M899 741l-815 207v295l1245 -334v-334l-1245 -337v297zM1329 -27h-1245v271h1245v-271z" />
    <glyph glyph-name="lozenge" unicode="&#x25ca;" horiz-adv-x="1302" 
d="M346 772l309 -508l312 508l-312 510zM655 1792l637 -1020l-637 -1018l-647 1018z" />
    <glyph glyph-name="uni25CC" unicode="&#x25cc;" horiz-adv-x="1402" 
d="M610 918q0 36 27 63t65 27q37 0 64 -27t27 -63q0 -39 -27 -66t-64 -27q-38 0 -65 27t-27 66zM397 866q0 37 27 64q26 26 65 26q38 0 64 -26q27 -27 27 -64q0 -38 -27 -65t-64 -27q-38 0 -65 27t-27 65zM829 866q0 37 27 64q26 26 64 26q42 0 65 -26q25 -28 25 -64
q0 -37 -25 -65q-24 -27 -65 -27q-37 0 -64 27t-27 65zM993 698q0 37 27 64q26 26 63 26q38 0 64 -26q27 -27 27 -64q0 -36 -27 -63t-64 -27q-36 0 -63 27t-27 63zM238 698q0 37 24 64q23 26 66 26q37 0 63 -26q27 -27 27 -64q0 -36 -27 -63t-63 -27q-42 0 -66 27t-24 63z
M178 477q0 37 27 64q26 26 63 26q43 0 66 -26q24 -27 24 -64q0 -39 -25 -64q-26 -26 -65 -26q-35 0 -63 25q-27 24 -27 65zM1044 477q0 37 27 64q26 26 64 26q37 0 63 -26q27 -27 27 -64q0 -41 -27 -65q-28 -25 -63 -25q-36 0 -64 25q-27 24 -27 65zM993 262q0 37 27 64
q26 26 63 26q38 0 64 -26q27 -27 27 -64q0 -36 -27 -63t-64 -27q-36 0 -63 27t-27 63zM238 262q0 37 24 64q23 26 66 26q37 0 63 -26q27 -27 27 -64q0 -36 -27 -63t-63 -27q-42 0 -66 27t-24 63zM397 104q0 37 27 64t65 27q37 0 64 -27t27 -64q0 -41 -27 -65
q-28 -25 -64 -25q-37 0 -65 25q-27 24 -27 65zM829 104q0 37 27 64t64 27q41 0 65 -27q25 -28 25 -64q0 -38 -26 -64t-64 -26q-36 0 -64 25q-27 24 -27 65zM610 45q0 42 27 66t65 24q37 0 64 -24t27 -66q0 -36 -27 -63t-64 -27q-38 0 -65 27t-27 63z" />
    <glyph glyph-name="uni274A" unicode="&#x274a;" horiz-adv-x="1126" 
d="M532 1069q-59 -28 -125 -40q-61 -11 -143 -11q-70 0 -140 12q-65 11 -130 37v68q60 32 129 43q64 10 141 10q72 0 144 -16q69 -15 124 -37v-66zM1133 1069q-58 -28 -126 -40q-60 -11 -143 -11q-71 0 -142 12q-67 11 -128 37v68q61 30 128 42q60 11 142 11q73 0 143 -16
q69 -16 126 -37v-66zM596 1071q28 -58 40 -126q11 -61 11 -142q0 -69 -12 -140q-11 -67 -37 -131h-68q-32 60 -43 130q-10 64 -10 141q0 71 16 143t37 125h66zM596 1671q28 -58 40 -126q11 -60 11 -142q0 -71 -12 -142q-11 -67 -37 -128h-68q-30 61 -42 128q-11 60 -11 142
q0 72 16 142q16 69 37 126h66zM565 1059q-22 -60 -60 -118t-93 -110q-51 -49 -111 -90q-59 -40 -115 -67l-49 51q22 65 62 120t94 105q50 53 111 92q56 36 112 60zM989 1479q-23 -61 -61 -114q-42 -58 -94 -110q-49 -51 -109 -91q-58 -39 -117 -64l-47 47q22 63 61 120
q36 52 93 109q53 52 111 90q58 37 116 60zM606 1104q57 -21 118 -61q58 -38 110 -93q52 -53 90 -110q40 -59 67 -115l-51 -49q-67 23 -120 61q-55 40 -105 94q-51 49 -92 112q-36 56 -60 112zM186 1528q59 -22 114 -62q58 -42 110 -94q52 -51 91 -108q39 -58 64 -117
l-47 -47q-66 22 -120 60q-52 36 -109 93q-51 51 -90 112q-37 58 -60 116z" />
    <glyph glyph-name="apple" unicode="&#xf8ff;" horiz-adv-x="1738" 
d="M498 1673h-136v135h136v-135zM727 1688h279v-1440h-148v-590h14v109h134v-244h-279v862h145v1169h-14v-1128h-131v1262zM578 1692h133v-2169h-422v135h289v2034zM289 104h-111v134h244v-437h12v447h-145v1440h278v-2020h-278v436zM422 1554v-1169h12v1169h-12zM1038 1690
h269v-88h-185v-2079h-84v2167zM1475 -477v749h-148v1418h234v-2167h-86zM1415 1602v-1246h60v1246h-60z" />
    <glyph glyph-name="uniFB01" unicode="&#xfb01;" horiz-adv-x="1658" 
d="M25 1180h217v84q0 220 117 321q120 103 368 103h301v-320h-299q-52 0 -79 -9q-28 -9 -43 -27q-16 -19 -20 -47q-5 -33 -5 -75v-30h438v-320h-438v-887h-340v887h-217v320zM1182 1180h340v-1207h-340v1207zM1352 1307q-76 0 -135 46q-60 47 -60 134q0 80 56 129t139 49
q82 0 137 -49t55 -129q0 -81 -54 -131q-53 -49 -138 -49z" />
    <glyph glyph-name="uniFB02" unicode="&#xfb02;" horiz-adv-x="1660" 
d="M25 1180h217v84q0 220 117 321q120 103 368 103h301v-320h-299q-52 0 -79 -9q-28 -9 -43 -27q-16 -19 -20 -47q-5 -33 -5 -75v-30h438v-320h-438v-887h-340v887h-217v320zM1182 -27v1715h340v-1715h-340z" />
    <glyph glyph-name="uniFD3E" unicode="&#xfd3e;" horiz-adv-x="747" 
d="M596 -477q-110 0 -183 16q-74 16 -123 61t-67 116q-18 72 -18 180v348q0 52 -6 95q-6 45 -21 73t-42 45q-27 16 -101 18v262q72 1 101 19q27 17 42 46q15 31 21 72q6 44 6 97v344q0 107 18 179q18 73 67 117q48 43 123 60q77 17 183 17h147v-261h-92q-42 0 -65 -5
q-20 -4 -28 -14q-7 -8 -10 -35q-3 -26 -3 -70v-361q0 -85 -16 -151q-15 -61 -45 -105q-30 -43 -69 -65q-43 -24 -79 -35v45q38 -12 79 -36q39 -23 69 -67t45 -104q16 -66 16 -152v-364q0 -46 3 -71q3 -27 10 -35q8 -10 28 -14q23 -5 65 -5h92v-260h-147z" />
    <glyph glyph-name="uniFD3F" unicode="&#xfd3f;" horiz-adv-x="747" 
d="M150 -477h-146v260h74q42 0 69 5q25 5 35 15t15 35q4 21 4 70v364q0 90 15 152q15 60 45 104q30 43 70 67q41 24 79 36v-45q-36 11 -79 35q-41 23 -70 65q-30 44 -45 105q-15 62 -15 151v361q0 48 -4 69q-5 25 -15 35t-35 15q-27 5 -69 5h-74v261h146q106 0 183 -17
q75 -17 123 -60t66 -117q19 -76 19 -179v-344q0 -53 6 -97q6 -41 21 -72q14 -28 43 -46t102 -19v-262q-75 -2 -102 -18q-28 -17 -43 -45t-21 -73q-6 -43 -6 -95v-348q0 -104 -19 -180q-18 -73 -66 -116q-49 -45 -123 -61q-73 -16 -183 -16z" />
    <glyph glyph-name="uni0627.short" horiz-adv-x="706" 
d="M240 1440h340v-1467h-340v1467z" />
    <glyph glyph-name="uni0627.shortfina" horiz-adv-x="774" 
d="M240 1440h340v-1127h262v-340h-602v1467z" />
    <glyph glyph-name="uni066E.initalt" horiz-adv-x="839" 
d="M-27 313h428v867h340v-1207h-768v340z" />
    <glyph glyph-name="uni066E.medialt" horiz-adv-x="1050" 
d="M-27 313h428v867h340v-867h377v-340h-1145v340z" />
    <glyph glyph-name="uni06C3.fina" horiz-adv-x="1091" 
d="M733 -27v869h-102q-47 0 -88 -11q-40 -11 -69 -34q-30 -24 -48 -65q-18 -40 -18 -87v-369h-340v330q0 156 45 267q46 114 143 190q77 62 179 90q105 29 227 29h411v-869h207v-340h-547zM426 1282q-76 0 -131 45t-55 129q0 78 54 125q55 47 132 47t132 -47q54 -47 54 -125
q0 -84 -55 -129t-131 -45zM870 1282q-75 0 -131 45q-55 45 -55 129q0 78 54 125q55 47 132 47q81 0 134 -47t53 -125q0 -84 -56 -129q-55 -45 -131 -45z" />
    <glyph glyph-name="uni06BA.init" horiz-adv-x="663" 
d="M391 1300q-74 0 -135 47q-59 46 -59 134q0 80 56 129t138 49t138 -49q57 -50 57 -129q0 -87 -60 -134q-61 -47 -135 -47zM-27 313h254v867h340v-1207h-594v340z" />
    <glyph glyph-name="uni06BA.medi" horiz-adv-x="720" 
d="M-27 313h254v867h340v-867h219v-340h-813v340zM389 1300q-74 0 -135 47q-59 46 -59 134q0 80 56 129t138 49t138 -49q57 -50 57 -129q0 -87 -60 -134q-61 -47 -135 -47z" />
    <glyph glyph-name="uni06C2.fina" horiz-adv-x="1091" 
d="M733 -27v869h-102q-47 0 -88 -11q-40 -11 -69 -34q-30 -24 -48 -65q-18 -40 -18 -87v-369h-340v330q0 156 45 267q46 114 143 190q77 62 179 90q105 29 227 29h411v-869h207v-340h-547zM584 1470q0 153 76 217t208 64h150v-145h-133q-48 0 -67 -19q-17 -17 -17 -57v-29
h282v-207h-499v176z" />
    <glyph glyph-name="wasle" horiz-adv-x="202" 
d="M-6 313h276v-340h-387z" />
    <glyph glyph-name="wasle_alt" horiz-adv-x="358" 
d="M-6 313h432v-340h-543z" />
    <glyph glyph-name="uni0654.medi" horiz-adv-x="686" 
d="M88 1399q0 151 77 216q76 64 208 64h149v-145h-133q-48 0 -66 -18t-18 -58v-28h283v-207h-500v176z" />
    <glyph glyph-name="uni0654064B" 
d="M-217 74q0 151 77 216q76 64 208 64h129v-145h-113q-48 0 -67 -19q-17 -17 -17 -30h262v-187h-479v101zM-256 510l512 74v-150l-512 -74v150zM-258 678l512 74v-150l-512 -74v150z" />
    <glyph glyph-name="uni0654064E" 
d="M-256 520l512 74v-156l-512 -73v155zM-221 74q0 151 77 216q76 64 207 64h130v-145h-113q-48 0 -67 -19q-17 -17 -17 -30h262v-187h-479v101z" />
    <glyph glyph-name="uni0654064C" 
d="M-311 608l147 60l53 -150l41 6q-2 6 -2 43q0 78 46 140q46 63 151 63q79 0 129 -54q49 -53 49 -138q0 -16 -2 -60q-1 -28 -14 -92l-496 -78zM-184 74q0 152 76 216t208 64h129v-145h-112q-48 0 -67 -19q-17 -17 -17 -30h262v-187h-479v101zM72 573v-2v-2v-3v-2v-2v-2v-2
v-9l96 14q-14 -54 -16 -8v16q0 20 -10 33q-9 12 -31 12q-17 0 -28 -11t-11 -32z" />
    <glyph glyph-name="uni0654064F" 
d="M-268 494l153 24q-2 6 -2 43q0 76 45 139q46 64 150 64q81 0 131 -54q49 -53 49 -139q0 -15 -2 -59q-1 -28 -14 -92l-494 -76zM-213 72q0 151 77 216q76 64 208 64h129v-145h-113q-47 0 -66 -19q-18 -18 -18 -30h262v-187h-479v101zM25 563v-2v-3v-2v-2v-3v-8l81 12v0v10
q0 21 -9 33t-31 12q-19 0 -30 -11t-11 -36z" />
    <glyph glyph-name="uni06540652" 
d="M-6 367q-86 0 -138 51q-53 51 -53 157q0 98 58 156q57 57 145 57q93 0 144 -58t51 -156q0 -96 -60 -152q-59 -55 -147 -55zM0 516q21 0 35 10t14 47q0 36 -14 50t-35 14q-16 0 -30 -11q-15 -12 -15 -48q0 -44 12 -53t33 -9zM-240 74q0 151 77 216q76 64 208 64h129v-145
h-113q-47 0 -66 -19q-18 -18 -18 -30h263v-187h-480v101z" />
    <glyph glyph-name="uni0654064D" 
d="M-252 -569l512 73v-149l-512 -74v150zM-254 -401l512 73v-149l-512 -74v150zM-258 -254q0 151 77 216t208 65h129v-146h-113q-49 0 -67 -18q-17 -17 -17 -31h262v-186h-479v100z" />
    <glyph glyph-name="uni06550650" 
d="M-258 -254q0 151 77 216t208 65h129v-146h-113q-49 0 -67 -18q-17 -17 -17 -31h262v-186h-479v100zM-254 -418l512 74v-156l-512 -73v155z" />
    <glyph glyph-name="wasla" 
d="M-305 139h141q0 18 14 54q14 37 42 68q27 30 68 48q43 19 89 19q115 0 187 -63q71 -62 71 -185v-107h-612v166zM46 182q-34 0 -49 -19t-15 -24h129q0 1 -16 23q-14 20 -49 20z" />
    <glyph glyph-name="uni0651064B" 
d="M-106 -27q-59 0 -109 35q-49 34 -66 117l-26 141l151 31l27 -135q6 -26 13 -31q8 -6 18 -6q16 0 25 12q10 13 10 45q0 15 -5 45l-14 84l156 23l24 -137q6 -29 29 -29q31 0 31 33q0 25 -6 56t-33 97l160 37q10 -50 18 -86l8 -49q4 -24 4 -45q0 -93 -51 -142
q-53 -51 -139 -51q-36 0 -53 11q-19 12 -25 24q-5 -13 -44 -46q-40 -34 -103 -34zM-279 463l512 74v-150l-512 -74v150zM-281 631l512 74v-150l-512 -74v150z" />
    <glyph glyph-name="uni06F4.urdu" horiz-adv-x="1495" 
d="M254 -27v1434h324l372 -334l418 367v-449l-418 -358l-356 295v-955h-340z" />
    <glyph glyph-name="uni06F7.urdu" horiz-adv-x="1177" 
d="M127 -27v322l477 1112h371l-469 -1094h545v-340h-924z" />
    <glyph glyph-name="acute.case" horiz-adv-x="649" 
d="M305 1704h-301l287 340h362z" />
    <glyph glyph-name="circumflex.case" horiz-adv-x="968" 
d="M969 1704h-312l-170 162l-176 -162h-313l328 340h321z" />
    <glyph glyph-name="dieresis.case" horiz-adv-x="976" 
d="M213 2040q75 0 128 -45q52 -45 52 -119q0 -80 -57 -125q-49 -43 -123 -43q-69 0 -124 44q-54 44 -54 124q0 74 51 119t127 45zM764 2040q76 0 127 -45t51 -119q0 -82 -55 -125q-49 -43 -123 -43q-72 0 -125 44t-53 124q0 74 51 119t127 45z" />
    <glyph glyph-name="grave.case" horiz-adv-x="649" 
d="M-4 2044h364l285 -340h-301z" />
    <glyph glyph-name="ring.case" horiz-adv-x="557" 
d="M281 2169q100 0 171 -65q70 -64 70 -167q0 -105 -69 -169q-68 -64 -172 -64t-175 64t-71 169q0 103 71 167q73 65 175 65zM281 2025q-38 0 -65 -24q-28 -25 -28 -64t28 -64q27 -24 65 -24q37 0 62 24q26 24 26 64t-26 64q-25 24 -62 24z" />
    <glyph glyph-name="tilde.case" horiz-adv-x="899" 
d="M592 1923q38 0 55 22t29 89h190q-12 -172 -83 -246t-175 -74q-54 0 -100 19q-38 16 -78 40q-37 22 -64 36q-32 16 -61 16q-37 0 -52 -21q-16 -23 -28 -90h-192q12 160 83 240t177 80q54 0 100 -19q35 -15 77 -40q53 -32 62 -37q28 -15 60 -15z" />
    <glyph glyph-name="cedilla.case" horiz-adv-x="546" 
d="M33 -270q61 -29 107 -39t87 -10q45 0 74 10q31 11 31 35q0 25 -32 36q-33 11 -81 11q-34 0 -72 -5q-26 -3 -114 -20l168 281h174l-76 -127q60 4 74 4q5 0 46 -21q40 -21 66 -57q27 -37 27 -94q0 -58 -24 -100t-63 -68t-89 -38q-45 -11 -100 -11q-46 0 -89 5
q-37 4 -102 29z" />
    <glyph glyph-name="caron.case" horiz-adv-x="968" 
d="M-2 2044h299l184 -166l189 166h303l-346 -340h-289z" />
    <glyph glyph-name="macron.case" horiz-adv-x="724" 
d="M35 1757v230h655v-230h-655z" />
    <glyph glyph-name="breve.case" horiz-adv-x="831" 
d="M799 2062q-12 -187 -114 -273q-101 -85 -271 -85q-166 0 -267 85q-102 86 -114 273h203q11 -101 59 -129q49 -28 121 -28q71 0 121 28t61 129h201z" />
    </font>
</defs>
</svg>
