<?xml version="1.0" standalone="no"?>
<!DOCTYPE svg PUBLIC "-//W3C//DTD SVG 1.1//EN" "http://www.w3.org/Graphics/SVG/1.1/DTD/svg11.dtd" >
<svg xmlns="http://www.w3.org/2000/svg" xmlns:xlink="http://www.w3.org/1999/xlink" version="1.1">
<metadata>
Created by FontForge 20170731 at Tue Jan 19 14:14:06 2016
 By Aleksey,,,
Copyright 2016 Dalton Maag Ltd. Modification of this file requires prior written permission from Dalton Maag Ltd.
</metadata>
<defs>
<font id="Effra-Medium" horiz-adv-x="545" >
  <font-face 
    font-family="Effra Medium"
    font-weight="500"
    font-stretch="normal"
    units-per-em="1000"
    panose-1="2 11 7 3 2 2 3 2 2 4"
    ascent="667"
    descent="-333"
    x-height="469"
    cap-height="667"
    bbox="-157 -686 1255 1224"
    underline-thickness="51"
    underline-position="-170"
    unicode-range="U+0008-FEFF"
  />
<missing-glyph horiz-adv-x="364" 
d="M33 0v666h265v-666h-265zM66 33h199v600h-199v-600z" />
    <glyph glyph-name="uniFCCC" unicode="&#xfedf;&#xfee4;" horiz-adv-x="311" arabic-form="initial" 
d="M169 -14q-16 8 -28.5 11t-38.5 3h-102l-16 10v98l16 10h118q-7 22 -9.5 45.5t-2.5 51.5l-4 423l102 18l-5 -466q0 -23 3 -39.5t13 -30t27.5 -25.5t44.5 -25l32 -15l-61 -118z" />
    <glyph glyph-name="uniFDF2" unicode="&#x627;&#xfedf;&#xfee0;&#xfeea;" horiz-adv-x="1159" arabic-form="isolated" 
d="M1004 0l-7 638l102 18l-6 -656h-89zM779 521l102 18l-5 -366q-2 -82 -42.5 -127.5t-121.5 -45.5q-37 0 -68 13t-53 40q-21 -25 -53.5 -39t-76.5 -14q-63 0 -107 27t-56 83q-41 -24 -98 -24q-37 0 -67.5 10.5t-53 29.5t-35 46.5t-12.5 62.5q0 80 66.5 137t191.5 85l-1 64
l102 18l-5 -342q-1 -45 20.5 -63t59.5 -18q34 0 54 12t20 29l-6 364l102 18l-3 -387q10 -20 33 -28t42 -8q38 0 56.5 12t18.5 31zM218 198q43 0 76 12l-3 142q-34 -3 -65.5 -11.5t-55.5 -21.5t-38 -29.5t-14 -34.5q0 -16 8 -27t21.5 -17.5t32 -9.5t38.5 -3zM630 616
q-30 0 -46 19q-18 -24 -52 -24q-30 0 -47 18.5t-17 52.5q0 23 9.5 46.5t24.5 40.5l30 -16q-22 -31 -22 -60q0 -33 24 -33q25 0 28 22l8 67l38 -4l-6 -60q-2 -20 29 -20q14 0 22 6.5t8 18.5q0 17 -6.5 36.5t-20.5 39.5l38 23q14 -18 21.5 -43t7.5 -48q0 -38 -19 -60t-52 -22z
M568 807q0 39 -1.5 77t-6.5 79l47 9q2 -14 2.5 -31.5t0.5 -34.5q0 -26 -2 -51t-7 -48h-33z" />
    <glyph glyph-name="uniFEF5" unicode="&#xfedf;&#xfe82;" horiz-adv-x="457" arabic-form="isolated" 
d="M36 109q23 19 46.5 43t45.5 49.5t42 50.5t35 48q-38 42 -93.5 94t-128.5 103l73 88q35 -29 84.5 -80.5t114.5 -123.5q28 59 38 124t11 133l102 18q-1 -94 -24 -180.5t-66 -161.5q49 -60 75 -105.5t26 -90.5q0 -36 -17.5 -60.5t-46 -39t-64.5 -20.5t-74 -6q-21 0 -44 1.5
t-45 4.5t-41.5 7.5t-32.5 10.5zM328 140q0 12 -17.5 39t-45.5 59q-24 -32 -52.5 -67t-57.5 -65q33 -6 71 -6q45 0 73.5 11t28.5 29zM206 733q-13 -39 -35.5 -58.5t-51.5 -19.5q-13 0 -26 4.5t-26 9.5q-15 6 -29.5 11.5t-28.5 5.5t-25.5 -9.5t-24.5 -29.5l-33 20
q13 39 35.5 58.5t51.5 19.5q13 0 26 -4.5t26 -9.5q15 -6 29.5 -11.5t28.5 -5.5t25.5 9.5t24.5 29.5z" />
    <glyph glyph-name="uniFEF6" unicode="&#xfee0;&#xfe82;" horiz-adv-x="530" arabic-form="final" 
d="M530 0q-56 0 -92 14.5t-59 43.5q-16 -18 -39 -31t-50 -20.5t-57 -11t-58 -3.5q-31 0 -60.5 2t-56.5 6l-25 121q11 -3 28 -5t37 -3.5t41 -2t41 -0.5q-28 96 -61.5 191t-68.5 180l92 52q35 -85 68 -193.5t59 -221.5q31 8 44.5 20t13.5 25l-5 475l102 18l-5 -495
q16 -24 41 -33.5t70 -9.5l16 -10v-98zM222 681q-13 -39 -35.5 -58.5t-51.5 -19.5q-13 0 -26 4.5t-26 9.5q-15 6 -29.5 11.5t-28.5 5.5t-25.5 -9.5t-24.5 -29.5l-33 20q13 39 35.5 58.5t51.5 19.5q13 0 26 -4.5t26 -9.5q15 -6 29.5 -11.5t28.5 -5.5t25.5 9.5t24.5 29.5z" />
    <glyph glyph-name="uniFEF7" unicode="&#xfedf;&#xfe84;" horiz-adv-x="457" arabic-form="isolated" 
d="M36 109q23 19 46.5 43t45.5 49.5t42 50.5t35 48q-38 42 -93.5 94t-128.5 103l73 88q35 -29 84.5 -80.5t114.5 -123.5q28 59 38 124t11 133l102 18q-1 -94 -24 -180.5t-66 -161.5q49 -60 75 -105.5t26 -90.5q0 -36 -17.5 -60.5t-46 -39t-64.5 -20.5t-74 -6q-21 0 -44 1.5
t-45 4.5t-41.5 7.5t-32.5 10.5zM328 140q0 12 -17.5 39t-45.5 59q-24 -32 -52.5 -67t-57.5 -65q33 -6 71 -6q45 0 73.5 11t28.5 29zM130 676q-45 -3 -83.5 -10.5t-75.5 -18.5l-17 41q27 11 49 18q-33 19 -33 57q0 16 6.5 31t18 26.5t26.5 18t33 6.5q37 0 63 -29l-25 -33
q-8 4 -16.5 6.5t-17.5 2.5q-18 0 -29 -9t-11 -22q0 -14 15.5 -23t41.5 -13q17 3 32.5 5t30.5 3z" />
    <glyph glyph-name="uniFEF8" unicode="&#xfee0;&#xfe84;" horiz-adv-x="530" arabic-form="final" 
d="M530 0q-56 0 -92 14.5t-59 43.5q-16 -18 -39 -31t-50 -20.5t-57 -11t-58 -3.5q-31 0 -60.5 2t-56.5 6l-25 121q11 -3 28 -5t37 -3.5t41 -2t41 -0.5q-28 96 -61.5 191t-68.5 180l92 52q35 -85 68 -193.5t59 -221.5q31 8 44.5 20t13.5 25l-5 475l102 18l-5 -495
q16 -24 41 -33.5t70 -9.5l16 -10v-98zM166 624q-45 -3 -83.5 -10.5t-75.5 -18.5l-17 41q27 11 49 18q-33 19 -33 57q0 16 6.5 31t18 26.5t26.5 18t33 6.5q37 0 63 -29l-25 -33q-8 4 -16.5 6.5t-17.5 2.5q-18 0 -29 -9t-11 -22q0 -14 15.5 -23t41.5 -13q17 3 32.5 5t30.5 3z
" />
    <glyph glyph-name="uniFEF9" unicode="&#xfedf;&#xfe88;" horiz-adv-x="457" arabic-form="isolated" 
d="M36 109q23 19 46.5 43t45.5 49.5t42 50.5t35 48q-38 42 -93.5 94t-128.5 103l73 88q35 -29 84.5 -80.5t114.5 -123.5q28 59 38 124t11 133l102 18q-1 -94 -24 -180.5t-66 -161.5q49 -60 75 -105.5t26 -90.5q0 -36 -17.5 -60.5t-46 -39t-64.5 -20.5t-74 -6q-21 0 -44 1.5
t-45 4.5t-41.5 7.5t-32.5 10.5zM328 140q0 12 -17.5 39t-45.5 59q-24 -32 -52.5 -67t-57.5 -65q33 -6 71 -6q45 0 73.5 11t28.5 29zM159 -242q-45 -3 -83.5 -10.5t-75.5 -18.5l-17 41l49 19q-33 19 -33 56q0 16 6.5 31t18 26.5t26.5 18t33 6.5q37 0 63 -29l-25 -33
q-8 4 -16.5 6.5t-17.5 2.5q-18 0 -29 -9t-11 -22q0 -14 15.5 -23t41.5 -12q17 3 32.5 4.5t30.5 2.5z" />
    <glyph glyph-name="uniFEFA" unicode="&#xfee0;&#xfe88;" horiz-adv-x="530" arabic-form="final" 
d="M530 0q-56 0 -92 14.5t-59 43.5q-16 -18 -39 -31t-50 -20.5t-57 -11t-58 -3.5q-31 0 -60.5 2t-56.5 6l-25 121q11 -3 28 -5t37 -3.5t41 -2t41 -0.5q-28 96 -61.5 191t-68.5 180l92 52q35 -85 68 -193.5t59 -221.5q31 8 44.5 20t13.5 25l-5 475l102 18l-5 -495
q16 -24 41 -33.5t70 -9.5l16 -10v-98zM344 -242q-45 -3 -83.5 -10.5t-75.5 -18.5l-17 41l49 19q-33 19 -33 56q0 16 6.5 31t18 26.5t26.5 18t33 6.5q37 0 63 -29l-25 -33q-8 4 -16.5 6.5t-17.5 2.5q-18 0 -29 -9t-11 -22q0 -14 15.5 -23t41.5 -12q17 3 32.5 4.5t30.5 2.5z
" />
    <glyph glyph-name="uniFEFB" unicode="&#xfedf;&#xfe8e;" horiz-adv-x="457" arabic-form="isolated" 
d="M36 109q23 19 46.5 43t45.5 49.5t42 50.5t35 48q-38 42 -93.5 94t-128.5 103l73 88q35 -29 84.5 -80.5t114.5 -123.5q28 59 38 124t11 133l102 18q-1 -94 -24 -180.5t-66 -161.5q49 -60 75 -105.5t26 -90.5q0 -36 -17.5 -60.5t-46 -39t-64.5 -20.5t-74 -6q-21 0 -44 1.5
t-45 4.5t-41.5 7.5t-32.5 10.5zM328 140q0 12 -17.5 39t-45.5 59q-24 -32 -52.5 -67t-57.5 -65q33 -6 71 -6q45 0 73.5 11t28.5 29z" />
    <glyph glyph-name="uniFEFC" unicode="&#xfee0;&#xfe8e;" horiz-adv-x="530" arabic-form="final" 
d="M530 0q-56 0 -92 14.5t-59 43.5q-16 -18 -39 -31t-50 -20.5t-57 -11t-58 -3.5q-31 0 -60.5 2t-56.5 6l-25 121q11 -3 28 -5t37 -3.5t41 -2t41 -0.5q-28 96 -61.5 191t-68.5 180l92 52q35 -85 68 -193.5t59 -221.5q31 8 44.5 20t13.5 25l-5 475l102 18l-5 -495
q16 -24 41 -33.5t70 -9.5l16 -10v-98z" />
    <glyph glyph-name="f_f" unicode="ff" horiz-adv-x="651" 
d="M93 373h-80v96h80v25q0 59 18 96t44.5 58t55.5 29t52 8q32 0 66.5 -10t69.5 -39l-55 -78q-14 11 -31 18t-33 7q-34 0 -52 -22t-18 -61v-31h194v29q0 51 16 86.5t41 58t56 32.5t61 10q32 0 71 -9t75 -40l-55 -78q-16 11 -34.5 18t-37.5 7q-35 0 -55.5 -22.5t-20.5 -64.5
v-27h121v-96h-120v-373h-118v373h-193v-373h-118v373z" />
    <glyph glyph-name="f_i" unicode="fi" horiz-adv-x="565" 
d="M93 373h-80v96h80v5q0 61 19.5 101.5t52 65t75 34.5t89.5 10q18 0 40.5 -3t46.5 -9t48.5 -15.5t45.5 -22.5l-49 -89q-23 14 -60 26t-73 12q-62 0 -90 -21t-28 -69v-25h292v-469h-118v373h-173v-373h-118v373z" />
    <glyph glyph-name="f_l" unicode="fl" horiz-adv-x="570" 
d="M93 373h-80v96h80v14q0 58 17.5 96.5t48 62t71 33.5t85.5 10q36 0 69 -6t59 -14.5t44 -17t25 -12.5v-635h-118v572q-13 5 -36.5 8.5t-44.5 3.5q-58 0 -80.5 -22t-22.5 -77v-16h121v-96h-120v-373h-118v373z" />
    <glyph glyph-name="f_f_i" unicode="ffi" horiz-adv-x="876" 
d="M93 373h-80v96h80v25q0 59 18 96t44.5 58t55.5 29t52 8q32 0 66.5 -10t69.5 -39l-55 -78q-14 11 -31 18t-33 7q-34 0 -52 -22t-18 -61v-31h194v5q0 61 19 101.5t51 65t73.5 34.5t85.5 10q42 0 93.5 -12t94.5 -38l-49 -89q-23 14 -60 26t-73 12q-62 0 -90 -23t-28 -82v-10
h292v-469h-118v373h-173v-373h-118v373h-193v-373h-118v373z" />
    <glyph glyph-name="f_f_l" unicode="ffl" horiz-adv-x="881" 
d="M93 373h-80v96h80v25q0 59 18 96t44.5 58t55.5 29t52 8q32 0 66.5 -10t69.5 -39l-55 -78q-14 11 -31 18t-33 7q-34 0 -52 -22t-18 -61v-31h194v14q0 58 17.5 96.5t48 62t71 33.5t85.5 10q36 0 69 -6t59 -14.5t44 -17t25 -12.5v-635h-118v572q-13 5 -36.5 8.5t-44.5 3.5
q-58 0 -80.5 -22t-22.5 -77v-16h121v-96h-120v-373h-118v373h-193v-373h-118v373z" />
    <glyph glyph-name="uniFEDF_uniFEE2.rlig" unicode="&#xfedf;&#xfee2;" horiz-adv-x="408" 
d="M43 -380l-7 415q-1 39 23 61t67 22h89q-7 22 -9.5 45.5t-2.5 51.5l-4 423l102 18l-5 -466q0 -23 3 -39.5t13 -30t27.5 -25.5t44.5 -25l32 -15l-61 -118l-89 49q-15 8 -28.5 11t-38.5 3h-47q-19 0 -19 -16l-1 -364h-89z" />
    <glyph glyph-name="uniFEDF_uniFEE0_uniFEEA.rlig" unicode="&#xfedf;&#xfee0;&#xfeea;" horiz-adv-x="936" 
d="M779 521l102 18l-5 -366q-2 -82 -42.5 -127.5t-121.5 -45.5q-37 0 -68 13t-53 40q-21 -25 -53.5 -39t-76.5 -14q-63 0 -107 27t-56 83q-41 -24 -98 -24q-37 0 -67.5 10.5t-53 29.5t-35 46.5t-12.5 62.5q0 80 66.5 137t191.5 85l-1 64l102 18l-5 -342q-1 -45 20.5 -63
t59.5 -18q34 0 54 12t20 29l-6 364l102 18l-3 -387q10 -20 33 -28t42 -8q38 0 56.5 12t18.5 31zM218 198q43 0 76 12l-3 142q-34 -3 -65.5 -11.5t-55.5 -21.5t-38 -29.5t-14 -34.5q0 -16 8 -27t21.5 -17.5t32 -9.5t38.5 -3z" />
    <glyph glyph-name="uniFEE0_uniFB51.rlig" unicode="&#xfee0;&#xfb51;" horiz-adv-x="530" 
d="M530 0q-56 0 -92 14.5t-59 43.5q-16 -18 -39 -31t-50 -20.5t-57 -11t-58 -3.5q-31 0 -60.5 2t-56.5 6l-25 121q11 -3 28 -5t37 -3.5t41 -2t41 -0.5q-28 96 -61.5 191t-68.5 180l92 52q35 -85 68 -193.5t59 -221.5q31 8 44.5 20t13.5 25l-5 475l102 18l-5 -495
q16 -24 41 -33.5t70 -9.5l16 -10v-98zM-33 660q14 -2 27 -3t27 -2q45 111 108 111q29 0 48 -24t19 -59q0 -83 -115 -83q-32 0 -57.5 1t-44.5 3zM128 712q-35 0 -64 -58h20q39 0 55.5 6.5t16.5 23.5q0 12 -8 20t-20 8z" />
    <glyph glyph-name="uniFEDF_uniFB51.rlig" unicode="&#xfedf;&#xfb51;" horiz-adv-x="457" 
d="M36 109q23 19 46.5 43t45.5 49.5t42 50.5t35 48q-38 42 -93.5 94t-128.5 103l73 88q35 -29 84.5 -80.5t114.5 -123.5q28 59 38 124t11 133l102 18q-1 -94 -24 -180.5t-66 -161.5q49 -60 75 -105.5t26 -90.5q0 -36 -17.5 -60.5t-46 -39t-64.5 -20.5t-74 -6q-21 0 -44 1.5
t-45 4.5t-41.5 7.5t-32.5 10.5zM328 140q0 12 -17.5 39t-45.5 59q-24 -32 -52.5 -67t-57.5 -65q33 -6 71 -6q45 0 73.5 11t28.5 29zM-59 712q14 -2 27 -3t27 -2q45 111 108 111q29 0 48 -24t19 -59q0 -83 -115 -83q-32 0 -57.5 1t-44.5 3zM102 764q-35 0 -64 -58h20
q39 0 55.5 6.5t16.5 23.5q0 12 -8 20t-20 8z" />
    <glyph glyph-name="xx.aQafdotless.init" unicode="&#x6a1;" horiz-adv-x="420" 
d="M285 215q-41 -30 -98 -30q-67 0 -107.5 40.5t-40.5 113.5q0 41 13 77t35 63t51.5 42.5t62.5 15.5q43 0 74.5 -23t52.5 -66t31.5 -105.5t10.5 -141.5q0 -72 -20.5 -112t-67.5 -60q-20 -9 -44 -14.5t-54 -8.5t-68 -4.5t-86 -1.5h-30l-16 10v98l16 10h30q54 0 100.5 1.5
t81 5t54 10.5t19.5 18v62zM199 279q50 0 82 21q-7 66 -26 98.5t-57 32.5q-34 0 -57 -24.5t-23 -62.5q0 -31 21 -48t60 -17z" />
    <glyph glyph-name="xx.aQafdotless.medi" unicode="&#x6a1;" horiz-adv-x="432" 
d="M432 0q-66 0 -120 10.5t-96 27.5q-42 -17 -96.5 -27.5t-119.5 -10.5l-16 10v98l16 10q24 0 46 0.5t42 1.5q-20 24 -29 52t-9 60q0 40 13.5 75t36.5 60t53 39.5t63 14.5t63 -14.5t53 -39.5t36.5 -60t13.5 -75q0 -65 -38 -112q20 -1 41.5 -1.5t46.5 -0.5l16 -10v-98z
M132 228q0 -30 19.5 -52t64.5 -36q44 14 64 36t20 52q0 35 -24.5 58t-59.5 23t-59.5 -23t-24.5 -58z" />
    <glyph glyph-name="uni06A1.fina" unicode="&#x6a1;" horiz-adv-x="826" 
d="M826 0q-65 0 -119.5 10.5t-96.5 27.5q-41 -17 -97 -31.5t-122 -14.5q-182 0 -265.5 47t-83.5 149q0 45 16.5 97.5t45.5 99.5l67 -32q-15 -33 -23.5 -65.5t-8.5 -56.5q0 -64 58.5 -91.5t193.5 -27.5q53 0 95 3q-42 48 -42 118q0 40 13.5 74.5t36.5 59.5t53 39.5t63 14.5
t63 -14.5t53 -39.5t36.5 -60t13.5 -75q0 -65 -38 -112q20 -1 41.5 -1.5t46.5 -0.5l16 -10v-98zM526 228q0 -31 20.5 -53t67.5 -36q44 17 62 39.5t18 49.5q0 35 -24.5 58t-59.5 23t-59.5 -23t-24.5 -58z" />
    <glyph glyph-name="uni06C2.fina" unicode="&#x6c2;" horiz-adv-x="552" 
d="M552 0q-40 0 -69 6.5t-51.5 22.5t-40 43t-35.5 68q-15 35 -26.5 49.5t-35.5 14.5q-20 0 -46 -7t-54.5 -20.5t-58 -32.5t-56.5 -42l-45 77q27 31 62 57.5t71.5 46t71.5 30t62 10.5q42 0 73.5 -24t56.5 -83q13 -32 24.5 -51t25 -29.5t30.5 -14t41 -3.5l16 -10v-98zM315 415
q-45 -3 -83.5 -10.5t-75.5 -18.5l-17 41q27 11 49 18q-33 19 -33 57q0 16 6.5 31t18 26.5t26.5 18t33 6.5q37 0 63 -29l-25 -33q-8 4 -16.5 6.5t-17.5 2.5q-18 0 -29 -9t-11 -22q0 -14 15.5 -23t41.5 -13q17 3 32.5 5t30.5 3z" />
    <glyph glyph-name="uni06C3.fina" unicode="&#x6c3;" horiz-adv-x="552" 
d="M552 0q-40 0 -69 6.5t-51.5 22.5t-40 43t-35.5 68q-15 35 -26.5 49.5t-35.5 14.5q-20 0 -46 -7t-54.5 -20.5t-58 -32.5t-56.5 -42l-45 77q27 31 62 57.5t71.5 46t71.5 30t62 10.5q42 0 73.5 -24t56.5 -83q13 -32 24.5 -51t25 -29.5t30.5 -14t41 -3.5l16 -10v-98zM295 386
l-64 65l-64 -65l-75 76l75 76l64 -65l64 65l75 -76z" />
    <glyph glyph-name="uni06D5.fina" unicode="&#x6d5;" horiz-adv-x="473" 
d="M473 0q-74 0 -119 28t-56 82q-41 -24 -98 -24q-37 0 -67.5 10.5t-53 29.5t-35 46.5t-12.5 62.5q0 80 66.5 137t191.5 85l-1 64l102 18l-4 -346q-1 -40 19.5 -57.5t66.5 -17.5l16 -10v-98zM218 198q43 0 76 12l-3 142q-34 -3 -65.5 -11.5t-55.5 -21.5t-38 -29.5t-14 -34.5
q0 -16 8 -27t21.5 -17.5t32 -9.5t38.5 -3z" />
    <glyph glyph-name="uniFB50" unicode="&#x671;" horiz-adv-x="222" arabic-form="isolated" 
d="M67 0l-7 638l102 18l-6 -656h-89zM-4 783q14 -2 27 -3t27 -2q45 111 108 111q29 0 48 -24t19 -59q0 -83 -115 -83q-32 0 -57.5 1t-44.5 3zM157 835q-35 0 -64 -58h20q39 0 55.5 6.5t16.5 23.5q0 12 -8 20t-20 8z" />
    <glyph glyph-name="uniFB51" unicode="&#x671;" horiz-adv-x="239" arabic-form="final" 
d="M239 0q-85 0 -131 37.5t-47 107.5l-6 493l102 18l-4 -463q0 -40 20 -57.5t66 -17.5l16 -10v-98zM-9 783q14 -2 27 -3t27 -2q45 111 108 111q29 0 48 -24t19 -59q0 -83 -115 -83q-32 0 -57.5 1t-44.5 3zM152 835q-35 0 -64 -58h20q39 0 55.5 6.5t16.5 23.5q0 12 -8 20
t-20 8z" />
    <glyph glyph-name="uniFB56" unicode="&#x67e;" horiz-adv-x="785" arabic-form="isolated" 
d="M678 421q13 -25 24.5 -55t19.5 -61.5t12.5 -63.5t4.5 -61q0 -50 -19.5 -86t-61.5 -58.5t-108 -33t-159 -10.5q-182 0 -265.5 47t-83.5 149q0 45 16.5 97.5t45.5 99.5l67 -32q-15 -33 -23.5 -65.5t-8.5 -56.5q0 -64 58.5 -91.5t193.5 -27.5q55 0 102 4.5t82 12.5t55 19
t20 23q0 18 -5 41.5t-13.5 50t-20.5 54t-26 52.5zM455 -229l-64 65l-64 -65l-75 76l75 76l64 -65l64 65l75 -76zM391 -374l-75 76l75 76l75 -76z" />
    <glyph glyph-name="uniFB57" unicode="&#x67e;" horiz-adv-x="860" arabic-form="final" 
d="M860 0q-62 0 -100 18t-60 54q-33 -42 -108.5 -61t-200.5 -19q-182 0 -265.5 47t-83.5 149q0 45 16.5 97.5t45.5 99.5l67 -32q-15 -33 -23.5 -65.5t-8.5 -56.5q0 -64 58.5 -91.5t193.5 -27.5q66 0 114 3.5t79.5 12t48 21.5t20.5 32q4 17 9 47.5t11 71.5l86 -11
q-7 -55 -9.5 -82t-2.5 -32q0 -57 113 -57l16 -10v-98zM455 -248l-64 65l-64 -65l-75 76l75 76l64 -65l64 65l75 -76zM391 -393l-75 76l75 76l75 -76z" />
    <glyph glyph-name="uniFB58" unicode="&#x67e;" horiz-adv-x="287" arabic-form="initial" 
d="M-16 10v98l16 10q69 0 110.5 15.5t41.5 37.5q0 18 -5 41.5t-13.5 50t-20.5 54t-26 52.5l93 52q13 -24 24 -54t19.5 -61t13 -61.5t4.5 -55.5q0 -98 -57.5 -143.5t-183.5 -45.5zM184 -229l-64 65l-64 -65l-75 76l75 76l64 -65l64 65l75 -76zM120 -374l-75 76l75 76l75 -76z
" />
    <glyph glyph-name="uniFB59" unicode="&#x67e;" horiz-adv-x="331" arabic-form="medial" 
d="M331 0q-60 0 -97.5 17t-59.5 51q-24 -35 -71.5 -51.5t-102.5 -16.5l-16 10v98l16 10q65 0 92 16.5t32 42.5q2 12 5 27.5t5.5 32.5t5 33.5t4.5 29.5l86 -11q-7 -55 -9.5 -82t-2.5 -32q0 -57 113 -57l16 -10v-98zM236 -229l-64 65l-64 -65l-75 76l75 76l64 -65l64 65
l75 -76zM172 -374l-75 76l75 76l75 -76z" />
    <glyph glyph-name="uniFB66" unicode="&#x679;" horiz-adv-x="785" arabic-form="isolated" 
d="M678 421q13 -25 24.5 -55t19.5 -61.5t12.5 -63.5t4.5 -61q0 -50 -19.5 -86t-61.5 -58.5t-108 -33t-159 -10.5q-182 0 -265.5 47t-83.5 149q0 45 16.5 97.5t45.5 99.5l67 -32q-15 -33 -23.5 -65.5t-8.5 -56.5q0 -64 58.5 -91.5t193.5 -27.5q55 0 102 4.5t82 12.5t55 19
t20 23q0 18 -5 41.5t-13.5 50t-20.5 54t-26 52.5zM266 512q13 -2 26.5 -3t28.5 -2l-5 188l47 9l-4 -141q32 55 69 55q29 0 48 -24t19 -59q0 -40 -26.5 -61.5t-88.5 -21.5q-29 0 -56.5 1t-45.5 3zM427 564q-35 0 -64 -58h20q38 0 55 6.5t17 23.5q0 11 -7.5 19.5t-20.5 8.5z
" />
    <glyph glyph-name="uniFB67" unicode="&#x679;" horiz-adv-x="860" arabic-form="final" 
d="M860 0q-62 0 -100 18t-60 54q-33 -42 -108.5 -61t-200.5 -19q-182 0 -265.5 47t-83.5 149q0 45 16.5 97.5t45.5 99.5l67 -32q-15 -33 -23.5 -65.5t-8.5 -56.5q0 -64 58.5 -91.5t193.5 -27.5q66 0 114 3.5t79.5 12t48 21.5t20.5 32q4 17 9 47.5t11 71.5l86 -11
q-7 -55 -9.5 -82t-2.5 -32q0 -57 113 -57l16 -10v-98zM306 482q13 -2 26.5 -3t28.5 -2l-5 188l47 9l-4 -141q32 55 69 55q29 0 48 -24t19 -59q0 -40 -26.5 -61.5t-88.5 -21.5q-29 0 -56.5 1t-45.5 3zM467 534q-35 0 -64 -58h20q38 0 55 6.5t17 23.5q0 11 -7.5 19.5
t-20.5 8.5z" />
    <glyph glyph-name="uniFB68" unicode="&#x679;" horiz-adv-x="287" arabic-form="initial" 
d="M-16 10v98l16 10q69 0 110.5 15.5t41.5 37.5q0 18 -5 41.5t-13.5 50t-20.5 54t-26 52.5l93 52q13 -24 24 -54t19.5 -61t13 -61.5t4.5 -55.5q0 -98 -57.5 -143.5t-183.5 -45.5zM18 549q13 -2 26.5 -3t28.5 -2l-5 188l47 9l-4 -141q32 55 69 55q29 0 48 -24t19 -59
q0 -40 -26.5 -61.5t-88.5 -21.5q-29 0 -56.5 1t-45.5 3zM179 601q-35 0 -64 -58h20q38 0 55 6.5t17 23.5q0 11 -7.5 19.5t-20.5 8.5z" />
    <glyph glyph-name="uniFB69" unicode="&#x679;" horiz-adv-x="331" arabic-form="medial" 
d="M331 0q-60 0 -97.5 17t-59.5 51q-24 -35 -71.5 -51.5t-102.5 -16.5l-16 10v98l16 10q65 0 92 16.5t32 42.5q2 12 5 27.5t5.5 32.5t5 33.5t4.5 29.5l86 -11q-7 -55 -9.5 -82t-2.5 -32q0 -57 113 -57l16 -10v-98zM74 428q13 -2 26.5 -3t28.5 -2l-5 188l47 9l-4 -141
q32 55 69 55q29 0 48 -24t19 -59q0 -40 -26.5 -61.5t-88.5 -21.5q-29 0 -56.5 1t-45.5 3zM235 480q-35 0 -64 -58h20q38 0 55 6.5t17 23.5q0 11 -7.5 19.5t-20.5 8.5z" />
    <glyph glyph-name="uniFB6A" unicode="&#x6a4;" horiz-adv-x="786" arabic-form="isolated" 
d="M651 215q-41 -30 -98 -30q-68 0 -108 40.5t-40 113.5q0 41 12.5 77t34.5 63t51.5 42.5t63.5 15.5q43 0 74.5 -23t52.5 -66t31.5 -105.5t10.5 -141.5q0 -72 -20.5 -112t-67.5 -60q-40 -17 -104 -27t-153 -10q-182 0 -265.5 47t-83.5 149q0 45 16.5 97.5t45.5 99.5l67 -32
q-15 -33 -23.5 -65.5t-8.5 -56.5q0 -64 58.5 -91.5t193.5 -27.5q55 0 103 2.5t82.5 7.5t54.5 12.5t20 18.5v62zM565 279q50 0 82 21q-7 66 -26 98.5t-57 32.5q-34 0 -57 -24.5t-23 -62.5q0 -31 21 -48t60 -17zM631 599l-64 65l-64 -65l-75 76l75 76l64 -65l64 65l75 -76z
M567 744l-75 76l75 76l75 -76z" />
    <glyph glyph-name="uniFB6B" unicode="&#x6a4;" horiz-adv-x="826" arabic-form="final" 
d="M826 0q-65 0 -119.5 10.5t-96.5 27.5q-41 -17 -97 -31.5t-122 -14.5q-182 0 -265.5 47t-83.5 149q0 45 16.5 97.5t45.5 99.5l67 -32q-15 -33 -23.5 -65.5t-8.5 -56.5q0 -64 58.5 -91.5t193.5 -27.5q53 0 95 3q-42 48 -42 118q0 40 13.5 74.5t36.5 59.5t53 39.5t63 14.5
t63 -14.5t53 -39.5t36.5 -60t13.5 -75q0 -65 -38 -112q20 -1 41.5 -1.5t46.5 -0.5l16 -10v-98zM526 228q0 -31 20.5 -53t67.5 -36q44 17 62 39.5t18 49.5q0 35 -24.5 58t-59.5 23t-59.5 -23t-24.5 -58zM674 486l-64 65l-64 -65l-75 76l75 76l64 -65l64 65l75 -76zM610 631
l-75 76l75 76l75 -76z" />
    <glyph glyph-name="uniFB6C" unicode="&#x6a4;" horiz-adv-x="420" arabic-form="initial" 
d="M285 215q-41 -30 -98 -30q-67 0 -107.5 40.5t-40.5 113.5q0 41 13 77t35 63t51.5 42.5t62.5 15.5q43 0 74.5 -23t52.5 -66t31.5 -105.5t10.5 -141.5q0 -72 -20.5 -112t-67.5 -60q-20 -9 -44 -14.5t-54 -8.5t-68 -4.5t-86 -1.5h-30l-16 10v98l16 10h30q54 0 100.5 1.5
t81 5t54 10.5t19.5 18v62zM199 279q50 0 82 21q-7 66 -26 98.5t-57 32.5q-34 0 -57 -24.5t-23 -62.5q0 -31 21 -48t60 -17zM265 599l-64 65l-64 -65l-75 76l75 76l64 -65l64 65l75 -76zM201 744l-75 76l75 76l75 -76z" />
    <glyph glyph-name="uniFB6D" unicode="&#x6a4;" horiz-adv-x="432" arabic-form="medial" 
d="M432 0q-66 0 -120 10.5t-96 27.5q-42 -17 -96.5 -27.5t-119.5 -10.5l-16 10v98l16 10q24 0 46 0.5t42 1.5q-20 24 -29 52t-9 60q0 40 13.5 75t36.5 60t53 39.5t63 14.5t63 -14.5t53 -39.5t36.5 -60t13.5 -75q0 -65 -38 -112q20 -1 41.5 -1.5t46.5 -0.5l16 -10v-98z
M132 228q0 -30 19.5 -52t64.5 -36q44 14 64 36t20 52q0 35 -24.5 58t-59.5 23t-59.5 -23t-24.5 -58zM280 486l-64 65l-64 -65l-75 76l75 76l64 -65l64 65l75 -76zM216 631l-75 76l75 76l75 -76z" />
    <glyph glyph-name="uniFB7A" unicode="&#x686;" horiz-adv-x="598" arabic-form="isolated" 
d="M593 -209q-44 -43 -110 -67t-141 -24q-64 0 -117 17t-90.5 48.5t-58 75.5t-20.5 98q0 103 75.5 183.5t215.5 128.5q-69 17 -109 25t-60 8q-25 0 -41 -8t-36 -29l-58 45q55 103 154 103q27 0 67 -8.5t110 -28.5q98 -29 153 -29h20v-111q-190 -42 -290.5 -108t-100.5 -150
q0 -32 15 -58t42 -44.5t66 -28.5t87 -10q55 0 109 11t89 29zM424 -7l-48 48l-48 -48l-53 53l53 53l48 -48l48 48l53 -53zM376 -108l-53 53l53 53l53 -53z" />
    <glyph glyph-name="uniFB7B" unicode="&#x686;" horiz-adv-x="618" arabic-form="final" 
d="M593 -209q-44 -43 -110 -67t-141 -24q-64 0 -117 17t-90.5 48.5t-58 75.5t-20.5 98q0 103 75.5 183.5t215.5 128.5q-69 17 -109 25t-60 8q-25 0 -41 -8t-36 -29l-58 45q55 103 154 103q27 0 67 -8.5t110 -28.5q98 -29 153 -29h20v-111q-190 -42 -290.5 -108t-100.5 -150
q0 -32 15 -58t42 -44.5t66 -28.5t87 -10q55 0 109 11t89 29zM618 0q-87 0 -133 46.5t-46 133.5q0 21 2.5 52.5t5.5 53.5l60 -2q-2 -16 -4 -37t-2 -33q0 -53 25.5 -74.5t91.5 -21.5l16 -10v-98zM398 -7l-48 48l-48 -48l-53 53l53 53l48 -48l48 48l53 -53zM350 -108l-53 53
l53 53l53 -53z" />
    <glyph glyph-name="uniFB7C" unicode="&#x686;" horiz-adv-x="557" arabic-form="initial" 
d="M239 183q28 13 54 23.5t52 18.5l-23 10q-38 15 -63.5 25t-44 15t-32 7t-25.5 2q-25 0 -41 -8t-36 -29l-58 45q56 103 154 103q16 0 32 -2.5t35.5 -8.5t44.5 -15.5t58 -23.5q27 -12 47.5 -20t36.5 -12.5t29 -6.5t27 -2h20v-111q-29 -8 -55.5 -17.5t-52 -21.5t-51.5 -26
t-54 -30q-39 -22 -73.5 -40t-69.5 -31t-71.5 -20t-78.5 -7l-16 10v98l16 10q65 0 119.5 17t119.5 48zM299 -209l-64 65l-64 -65l-75 76l75 76l64 -65l64 65l75 -76zM235 -354l-75 76l75 76l75 -76z" />
    <glyph glyph-name="uniFB7D" unicode="&#x686;" horiz-adv-x="568" arabic-form="medial" 
d="M239 183q28 13 54 23.5t52 18.5l-23 10q-38 15 -63.5 25t-44 15t-32 7t-25.5 2q-25 0 -41 -8t-36 -29l-58 45q56 103 154 103q16 0 32 -2.5t35.5 -8.5t44.5 -15.5t58 -23.5q27 -12 47.5 -20t36.5 -12.5t29 -6.5t27 -2h20v-111q-29 -8 -55.5 -17.5t-52 -21.5t-51.5 -26
t-54 -30q-39 -22 -73.5 -40t-69.5 -31t-71.5 -20t-78.5 -7l-16 10v98l16 10q65 0 119.5 17t119.5 48zM568 0q-80 0 -122.5 44.5t-42.5 129.5q0 18 1 31.5t4 27.5h57q-3 -18 -3 -37q0 -42 24 -60t82 -18l16 -10v-98zM299 -209l-64 65l-64 -65l-75 76l75 76l64 -65l64 65
l75 -76zM235 -354l-75 76l75 76l75 -76z" />
    <glyph glyph-name="uniFB88" unicode="&#x688;" horiz-adv-x="424" arabic-form="isolated" 
d="M23 121q24 -5 59.5 -8t65.5 -3q25 0 51 3t47.5 7.5t35 10t13.5 10.5q0 19 -12 46t-33 57.5t-50 62.5t-63 62l80 76q39 -35 70 -73t52.5 -77t33 -77.5t11.5 -74.5q0 -41 -13 -70t-41 -47t-73 -26t-109 -8q-24 0 -51.5 2t-48.5 6zM54 572q13 -2 26.5 -3t28.5 -2l-5 188
l47 9l-4 -141q32 55 69 55q29 0 48 -24t19 -59q0 -40 -26.5 -61.5t-88.5 -21.5q-29 0 -56.5 1t-45.5 3zM215 624q-35 0 -64 -58h20q38 0 55 6.5t17 23.5q0 11 -7.5 19.5t-20.5 8.5z" />
    <glyph glyph-name="uniFB89" unicode="&#x688;" horiz-adv-x="484" arabic-form="final" 
d="M484 0q-83 0 -131 44q-26 -28 -75 -40t-130 -12q-24 0 -51.5 2t-48.5 6l-25 121q24 -5 59.5 -8t65.5 -3q41 0 81 6.5t66 16.5q-11 22 -21.5 47t-23.5 56.5t-28 70.5t-33 90l97 46q20 -58 43.5 -121t55.5 -143q7 -18 15.5 -30t19.5 -19t26.5 -9.5t37.5 -2.5l16 -10v-98z
M113 570q13 -2 26.5 -3t28.5 -2l-5 188l47 9l-4 -141q32 55 69 55q29 0 48 -24t19 -59q0 -40 -26.5 -61.5t-88.5 -21.5q-29 0 -56.5 1t-45.5 3zM274 622q-35 0 -64 -58h20q38 0 55 6.5t17 23.5q0 11 -7.5 19.5t-20.5 8.5z" />
    <glyph glyph-name="uniFB8A" unicode="&#x698;" horiz-adv-x="365" arabic-form="isolated" 
d="M-17 -99q54 21 100 46.5t80 52.5t53 53t19 49q0 15 -7.5 39.5t-21 54.5t-31 63t-38.5 65l93 52q44 -60 69 -130t25 -132q0 -100 -73.5 -182t-207.5 -132zM236 439l-64 65l-64 -65l-75 76l75 76l64 -65l64 65l75 -76zM172 584l-75 76l75 76l75 -76z" />
    <glyph glyph-name="uniFB8B" unicode="&#x698;" horiz-adv-x="420" arabic-form="final" 
d="M420 0q-35 0 -62 6.5t-50 21.5q-26 -72 -95 -131.5t-170 -96.5l-60 101q109 42 175 94.5t82 107.5q-15 27 -30 63.5t-33 91.5l97 45q10 -31 21 -63t19 -54q7 -21 15.5 -34t20.5 -20.5t29 -10.5t41 -3l16 -10v-98zM268 366l-64 65l-64 -65l-75 76l75 76l64 -65l64 65
l75 -76zM204 511l-75 76l75 76l75 -76z" />
    <glyph glyph-name="uniFB8C" unicode="&#x691;" horiz-adv-x="365" arabic-form="isolated" 
d="M-17 -99q54 21 100 46.5t80 52.5t53 53t19 49q0 15 -7.5 39.5t-21 54.5t-31 63t-38.5 65l93 52q44 -60 69 -130t25 -132q0 -100 -73.5 -182t-207.5 -132zM57 504q13 -2 26.5 -3t28.5 -2l-5 188l47 9l-4 -141q32 55 69 55q29 0 48 -24t19 -59q0 -40 -26.5 -61.5
t-88.5 -21.5q-29 0 -56.5 1t-45.5 3zM218 556q-35 0 -64 -58h20q38 0 55 6.5t17 23.5q0 11 -7.5 19.5t-20.5 8.5z" />
    <glyph glyph-name="uniFB8D" unicode="&#x691;" horiz-adv-x="420" arabic-form="final" 
d="M420 0q-35 0 -62 6.5t-50 21.5q-26 -72 -95 -131.5t-170 -96.5l-60 101q109 42 175 94.5t82 107.5q-15 27 -30 63.5t-33 91.5l97 45q10 -31 21 -63t19 -54q7 -21 15.5 -34t20.5 -20.5t29 -10.5t41 -3l16 -10v-98zM89 431q13 -2 26.5 -3t28.5 -2l-5 188l47 9l-4 -141
q32 55 69 55q29 0 48 -24t19 -59q0 -40 -26.5 -61.5t-88.5 -21.5q-29 0 -56.5 1t-45.5 3zM250 483q-35 0 -64 -58h20q38 0 55 6.5t17 23.5q0 11 -7.5 19.5t-20.5 8.5z" />
    <glyph glyph-name="uniFB8E" unicode="&#x6a9;" horiz-adv-x="752" arabic-form="isolated" 
d="M735 553q-41 -15 -76.5 -29t-68 -28t-63.5 -28t-64 -30q88 -72 132.5 -142.5t44.5 -136.5q0 -79 -79 -123t-220 -44q-299 0 -299 196q0 45 16.5 97.5t45.5 99.5l67 -32q-15 -33 -23.5 -65.5t-8.5 -56.5q0 -61 49 -90t153 -29q45 0 83.5 4t66.5 11.5t44 18t16 22.5
q0 18 -15.5 44.5t-42.5 57t-63 61.5t-76 58l16 100q81 46 170 89t175 78z" />
    <glyph glyph-name="uniFB8F" unicode="&#x6a9;" horiz-adv-x="782" arabic-form="final" 
d="M782 0q-63 0 -107 13t-79 48q-37 -34 -102 -51.5t-153 -17.5q-299 0 -299 196q0 45 16.5 97.5t45.5 99.5l67 -32q-15 -33 -23.5 -65.5t-8.5 -56.5q0 -61 49 -90t153 -29q65 0 116.5 8.5t77.5 23.5l-133 245l16 100q85 48 172 90t173 77l20 -103q-44 -17 -81 -31.5
t-71 -29t-67 -30t-69 -32.5l128 -234q13 -24 26.5 -39t32 -23.5t42.5 -12t58 -3.5l16 -10v-98z" />
    <glyph glyph-name="uniFB90" unicode="&#x6a9;" horiz-adv-x="434" arabic-form="initial" 
d="M-16 10v98l16 10q43 0 85 5.5t75 13t53 16t20 15.5q0 18 -15.5 44.5t-42.5 57t-63 61.5t-76 58l16 100q81 46 170 89t175 78l20 -103q-41 -15 -76.5 -29t-68 -28t-63.5 -28t-64 -30q88 -72 132.5 -142.5t44.5 -136.5q0 -78 -82.5 -118.5t-239.5 -40.5z" />
    <glyph glyph-name="uniFB91" unicode="&#x6a9;" horiz-adv-x="412" arabic-form="medial" 
d="M412 0q-63 0 -107.5 13t-79.5 48q-33 -31 -87.5 -46t-137.5 -15l-16 10v98l16 10q63 0 102 7t63 20l-133 244l16 100q85 48 172 90t173 77l20 -103q-44 -17 -81 -31.5t-71 -29t-67 -30t-69 -32.5l128 -234q13 -24 26.5 -39t32 -23.5t42.5 -12t58 -3.5l16 -10v-98z" />
    <glyph glyph-name="uniFB92" unicode="&#x6af;" horiz-adv-x="752" arabic-form="isolated" 
d="M735 553q-41 -15 -76.5 -29t-68 -28t-63.5 -28t-64 -30q88 -72 132.5 -142.5t44.5 -136.5q0 -79 -79 -123t-220 -44q-299 0 -299 196q0 45 16.5 97.5t45.5 99.5l67 -32q-15 -33 -23.5 -65.5t-8.5 -56.5q0 -61 49 -90t153 -29q45 0 83.5 4t66.5 11.5t44 18t16 22.5
q0 18 -15.5 44.5t-42.5 57t-63 61.5t-76 58l16 100q81 46 170 89t175 78zM651 698q-66 -32 -134 -61t-140 -55v57q72 26 140 55t134 61v-57z" />
    <glyph glyph-name="uniFB93" unicode="&#x6af;" horiz-adv-x="782" arabic-form="final" 
d="M782 0q-63 0 -107 13t-79 48q-37 -34 -102 -51.5t-153 -17.5q-299 0 -299 196q0 45 16.5 97.5t45.5 99.5l67 -32q-15 -33 -23.5 -65.5t-8.5 -56.5q0 -61 49 -90t153 -29q65 0 116.5 8.5t77.5 23.5l-133 245l16 100q85 48 172 90t173 77l20 -103q-44 -17 -81 -31.5
t-71 -29t-67 -30t-69 -32.5l128 -234q13 -24 26.5 -39t32 -23.5t42.5 -12t58 -3.5l16 -10v-98zM699 698q-66 -32 -134 -61t-140 -55v57q72 26 140 55t134 61v-57z" />
    <glyph glyph-name="uniFB94" unicode="&#x6af;" horiz-adv-x="434" arabic-form="initial" 
d="M-16 10v98l16 10q43 0 85 5.5t75 13t53 16t20 15.5q0 18 -15.5 44.5t-42.5 57t-63 61.5t-76 58l16 100q81 46 170 89t175 78l20 -103q-41 -15 -76.5 -29t-68 -28t-63.5 -28t-64 -30q88 -72 132.5 -142.5t44.5 -136.5q0 -78 -82.5 -118.5t-239.5 -40.5zM333 698
q-66 -32 -134 -61t-140 -55v57q72 26 140 55t134 61v-57z" />
    <glyph glyph-name="uniFB95" unicode="&#x6af;" horiz-adv-x="412" arabic-form="medial" 
d="M412 0q-63 0 -107.5 13t-79.5 48q-33 -31 -87.5 -46t-137.5 -15l-16 10v98l16 10q63 0 102 7t63 20l-133 244l16 100q85 48 172 90t173 77l20 -103q-44 -17 -81 -31.5t-71 -29t-67 -30t-69 -32.5l128 -234q13 -24 26.5 -39t32 -23.5t42.5 -12t58 -3.5l16 -10v-98z
M329 698q-66 -32 -134 -61t-140 -55v57q72 26 140 55t134 61v-57z" />
    <glyph glyph-name="uniFB9E" unicode="&#x6ba;" horiz-adv-x="618" arabic-form="isolated" 
d="M511 300q14 -29 26.5 -64t21.5 -70t14.5 -68.5t5.5 -59.5q0 -52 -20 -96t-55.5 -75.5t-85 -49t-108.5 -17.5q-61 0 -110.5 16.5t-84.5 47.5t-54 74t-19 97q0 57 21.5 115.5t59.5 106.5l63 -39q-47 -79 -47 -151q0 -69 46 -108.5t125 -39.5q37 0 69.5 8t57 22t39 32
t14.5 39q0 17 -5 42t-14.5 55t-23 63.5t-29.5 68.5z" />
    <glyph glyph-name="uniFB9F" unicode="&#x6ba;" horiz-adv-x="653" arabic-form="final" 
d="M511 300q14 -29 26.5 -64t21.5 -70t14.5 -68.5t5.5 -59.5q0 -52 -20 -96t-55.5 -75.5t-85 -49t-108.5 -17.5q-61 0 -110.5 16.5t-84.5 47.5t-54 74t-19 97q0 57 21.5 115.5t59.5 106.5l63 -39q-47 -79 -47 -151q0 -69 46 -108.5t125 -39.5q37 0 69.5 8t57 22t39 32
t14.5 39q0 17 -5 42t-14.5 55t-23 63.5t-29.5 68.5zM653 0q-55 0 -99 22.5t-63 70.5l64 83q0 -58 98 -58l16 -10v-98z" />
    <glyph glyph-name="uniFBA4" unicode="&#x6c0;" horiz-adv-x="451" arabic-form="isolated" 
d="M409 164q0 -81 -49 -126.5t-135 -45.5q-88 0 -135.5 45t-47.5 130q0 52 14.5 98.5t39.5 81t58 54.5t71 20q39 0 72.5 -20t58 -54.5t39 -81.5t14.5 -101zM323 161q0 63 -28 102t-70 39q-19 0 -36.5 -9t-31 -24.5t-21.5 -36t-8 -44.5q0 -40 26 -60t71 -20q39 0 68.5 15.5
t29.5 37.5zM309 513q-45 -3 -83.5 -10.5t-75.5 -18.5l-17 41q27 11 49 18q-33 19 -33 57q0 16 6.5 31t18 26.5t26.5 18t33 6.5q37 0 63 -29l-25 -33q-8 4 -16.5 6.5t-17.5 2.5q-18 0 -29 -9t-11 -22q0 -14 15.5 -23t41.5 -13q17 3 32.5 5t30.5 3z" />
    <glyph glyph-name="uniFBA5" unicode="&#x6c0;" horiz-adv-x="473" arabic-form="final" 
d="M473 0q-74 0 -119 28t-56 82q-41 -24 -98 -24q-37 0 -67.5 10.5t-53 29.5t-35 46.5t-12.5 62.5q0 80 66.5 137t191.5 85l-1 64l102 18l-4 -346q-1 -40 19.5 -57.5t66.5 -17.5l16 -10v-98zM218 198q43 0 76 12l-3 142q-34 -3 -65.5 -11.5t-55.5 -21.5t-38 -29.5t-14 -34.5
q0 -16 8 -27t21.5 -17.5t32 -9.5t38.5 -3zM313 612q-45 -3 -83.5 -10.5t-75.5 -18.5l-17 41q27 11 49 18q-33 19 -33 57q0 16 6.5 31t18 26.5t26.5 18t33 6.5q37 0 63 -29l-25 -33q-8 4 -16.5 6.5t-17.5 2.5q-18 0 -29 -9t-11 -22q0 -14 15.5 -23t41.5 -13q17 3 32.5 5
t30.5 3z" />
    <glyph glyph-name="uniFBA6" unicode="&#x6c1;" horiz-adv-x="451" arabic-form="isolated" 
d="M409 164q0 -81 -49 -126.5t-135 -45.5q-88 0 -135.5 45t-47.5 130q0 52 14.5 98.5t39.5 81t58 54.5t71 20q39 0 72.5 -20t58 -54.5t39 -81.5t14.5 -101zM323 161q0 63 -28 102t-70 39q-19 0 -36.5 -9t-31 -24.5t-21.5 -36t-8 -44.5q0 -40 26 -60t71 -20q39 0 68.5 15.5
t29.5 37.5z" />
    <glyph glyph-name="uniFBA7" unicode="&#x6c1;" horiz-adv-x="552" arabic-form="final" 
d="M552 0q-40 0 -69 6.5t-51.5 22.5t-40 43t-35.5 68q-15 35 -26.5 49.5t-35.5 14.5q-20 0 -46 -7t-54.5 -20.5t-58 -32.5t-56.5 -42l-45 77q27 31 62 57.5t71.5 46t71.5 30t62 10.5q42 0 73.5 -24t56.5 -83q13 -32 24.5 -51t25 -29.5t30.5 -14t41 -3.5l16 -10v-98z" />
    <glyph glyph-name="uniFBA8" unicode="&#x6c1;" horiz-adv-x="287" arabic-form="initial" 
d="M-16 10v98l16 10q69 0 110.5 15.5t41.5 37.5q0 18 -5 41.5t-13.5 50t-20.5 54t-26 52.5l93 52q13 -24 24 -54t19.5 -61t13 -61.5t4.5 -55.5q0 -98 -57.5 -143.5t-183.5 -45.5zM115 -330q-33 26 -48 49t-15 48q0 18 7.5 38t21 40.5t32 40t41.5 35.5l31 -27
q-12 -12 -22 -25t-18 -26t-12.5 -24.5t-4.5 -18.5q0 -12 12 -27.5t40 -40.5z" />
    <glyph glyph-name="uniFBA9" unicode="&#x6c1;" horiz-adv-x="510" arabic-form="medial" 
d="M368 -240q-50 10 -93.5 34.5t-77.5 59.5t-57 78.5t-31 93.5q-20 -13 -46 -19.5t-52 -6.5h-11l-16 10v98l16 10q31 0 52 5.5t36.5 18t27.5 34t25 53.5l80 -24q-12 -32 -17 -62.5t-5 -57.5q0 -63 29 -112t79 -81q-2 11 -3.5 22t-1.5 22q0 40 9 73.5t27 57.5t46 37.5
t66 13.5h60l16 -10v-98l-16 -10h-80q-25 0 -36 -15.5t-11 -41.5q0 -27 10.5 -63t25.5 -61zM92 -454q-33 26 -48 49t-15 48q0 18 7.5 38t21 40.5t32 40t41.5 35.5l31 -27q-12 -12 -22 -25t-18 -26t-12.5 -24.5t-4.5 -18.5q0 -12 12 -27.5t40 -40.5z" />
    <glyph glyph-name="uniFBAA" unicode="&#x6be;" horiz-adv-x="722" arabic-form="isolated" 
d="M494 223q0 -32 -8 -57.5t-26 -47.5q8 -1 16.5 -1h17.5q31 0 51.5 5t32 11.5t16 14.5t4.5 14q0 30 -12.5 68.5t-41.5 78.5t-75.5 76.5t-115.5 60.5l44 98q71 -28 125 -69t90 -90t54 -103t18 -107q0 -47 -15.5 -80t-41.5 -54t-59 -31t-69 -10q-41 0 -81 10.5t-76 27.5
q-45 -17 -97 -27.5t-97 -10.5l-16 10v98l16 10h43t38 2q-17 22 -24 47t-7 56q0 34 11 64.5t30.5 54t47 37.5t59.5 14t59.5 -14t47 -37.5t30.5 -54t11 -64.5zM276 223q0 -26 19 -46.5t52 -34.5q39 14 54 35t15 46q0 26 -18.5 48t-51.5 22t-51.5 -22t-18.5 -48zM148 0
q-24 0 -51.5 2t-48.5 6l-25 121q24 -5 59.5 -8t65.5 -3l16 -10v-98z" />
    <glyph glyph-name="uniFBAB" unicode="&#x6be;" horiz-adv-x="592" arabic-form="final" 
d="M592 0h-45q17 -29 17 -68q0 -32 -12.5 -58t-34 -45.5t-52 -30t-66.5 -10.5q-42 0 -76.5 15.5t-60 43.5t-41.5 67.5t-22 86.5q-13 -1 -25.5 -1h-25.5l-16 10v98l16 10h52q8 60 29 115t49 96.5t61 66.5t65 25q25 0 49 -16t43.5 -43t31.5 -63t12 -75q0 -62 -31 -106h83
l16 -10v-98zM395 305q-18 0 -36 -14.5t-33.5 -39.5t-27.5 -58.5t-17 -70.5q96 8 137 32t41 67q0 35 -19.5 59.5t-44.5 24.5zM483 -43q0 63 -81 81q-51 -19 -119 -30q11 -51 40.5 -79t78.5 -28q45 0 63 18t18 38zM148 0q-24 0 -51.5 2t-48.5 6l-25 121q24 -5 59.5 -8t65.5 -3
l16 -10v-98z" />
    <glyph glyph-name="uniFBAC" unicode="&#x6be;" horiz-adv-x="574" arabic-form="initial" 
d="M346 223q0 -32 -8 -57.5t-26 -47.5q8 -1 16.5 -1h17.5q31 0 51.5 5t32 11.5t16 14.5t4.5 14q0 30 -12.5 68.5t-41.5 78.5t-75.5 76.5t-115.5 60.5l44 98q71 -28 125 -69t90 -90t54 -103t18 -107q0 -47 -15.5 -80t-41.5 -54t-59 -31t-69 -10q-41 0 -81 10.5t-76 27.5
q-45 -17 -97 -27.5t-97 -10.5l-16 10v98l16 10h43t38 2q-17 22 -24 47t-7 56q0 34 11 64.5t30.5 54t47 37.5t59.5 14t59.5 -14t47 -37.5t30.5 -54t11 -64.5zM128 223q0 -26 19 -46.5t52 -34.5q39 14 54 35t15 46q0 26 -18.5 48t-51.5 22t-51.5 -22t-18.5 -48z" />
    <glyph glyph-name="uniFBAD" unicode="&#x6be;" horiz-adv-x="444" arabic-form="medial" 
d="M444 0h-45q17 -29 17 -68q0 -32 -12.5 -58t-34 -45.5t-52 -30t-66.5 -10.5q-42 0 -76.5 15.5t-60 43.5t-41.5 67.5t-22 86.5q-13 -1 -25.5 -1h-25.5l-16 10v98l16 10h52q8 60 29 115t49 96.5t61 66.5t65 25q25 0 49 -16t43.5 -43t31.5 -63t12 -75q0 -62 -31 -106h83
l16 -10v-98zM247 305q-18 0 -36 -14.5t-33.5 -39.5t-27.5 -58.5t-17 -70.5q96 8 137 32t41 67q0 35 -19.5 59.5t-44.5 24.5zM335 -43q0 63 -81 81q-51 -19 -119 -30q11 -51 40.5 -79t78.5 -28q45 0 63 18t18 38z" />
    <glyph glyph-name="uniFBAE" unicode="&#x6d2;" horiz-adv-x="647" arabic-form="isolated" 
d="M599 10q-21 -4 -51.5 -7t-65 -5.5t-70 -4t-68.5 -1.5q-159 0 -233.5 36t-74.5 113q0 28 15.5 61.5t42 67t60 65t70 56t72 39t65.5 14.5q38 0 61 -36t28 -101l-72 -23q-6 23 -13 32t-20 9q-26 0 -61.5 -18.5t-68 -44t-55.5 -53t-23 -46.5q0 -26 50 -38.5t157 -12.5
q29 0 69.5 1.5t81 4.5t75.5 6.5t54 6.5z" />
    <glyph glyph-name="uniFBAF" unicode="&#x6d2;" horiz-adv-x="565" arabic-form="final" 
d="M460 -241q-30 -4 -73.5 -6.5t-79.5 -2.5q-59 0 -113.5 7t-96 26.5t-66.5 54t-25 88.5q0 47 20.5 83t58.5 60t92.5 36.5t123.5 12.5h264l16 -10v-98l-16 -10h-318q-73 0 -112.5 -18.5t-39.5 -50.5t47.5 -47.5t164.5 -15.5q16 0 39 1t47.5 2.5t48.5 3.5t43 5z" />
    <glyph glyph-name="uniFBB0" unicode="&#x6d3;" horiz-adv-x="647" arabic-form="isolated" 
d="M599 10q-21 -4 -51.5 -7t-65 -5.5t-70 -4t-68.5 -1.5q-159 0 -233.5 36t-74.5 113q0 28 15.5 61.5t42 67t60 65t70 56t72 39t65.5 14.5q38 0 61 -36t28 -101l-72 -23q-6 23 -13 32t-20 9q-26 0 -61.5 -18.5t-68 -44t-55.5 -53t-23 -46.5q0 -26 50 -38.5t157 -12.5
q29 0 69.5 1.5t81 4.5t75.5 6.5t54 6.5zM404 535q-45 -3 -83.5 -10.5t-75.5 -18.5l-17 41q27 11 49 18q-33 19 -33 57q0 16 6.5 31t18 26.5t26.5 18t33 6.5q37 0 63 -29l-25 -33q-8 4 -16.5 6.5t-17.5 2.5q-18 0 -29 -9t-11 -22q0 -14 15.5 -23t41.5 -13q17 3 32.5 5t30.5 3
z" />
    <glyph glyph-name="uniFBB1" unicode="&#x6d3;" horiz-adv-x="565" arabic-form="final" 
d="M460 -241q-30 -4 -73.5 -6.5t-79.5 -2.5q-59 0 -113.5 7t-96 26.5t-66.5 54t-25 88.5q0 47 20.5 83t58.5 60t92.5 36.5t123.5 12.5h264l16 -10v-98l-16 -10h-318q-73 0 -112.5 -18.5t-39.5 -50.5t47.5 -47.5t164.5 -15.5q16 0 39 1t47.5 2.5t48.5 3.5t43 5zM404 210
q-45 -3 -83.5 -10.5t-75.5 -18.5l-17 41q27 11 49 18q-33 19 -33 57q0 16 6.5 31t18 26.5t26.5 18t33 6.5q37 0 63 -29l-25 -33q-8 4 -16.5 6.5t-17.5 2.5q-18 0 -29 -9t-11 -22q0 -14 15.5 -23t41.5 -13q17 3 32.5 5t30.5 3z" />
    <glyph glyph-name="uniFBE8" unicode="&#x649;" horiz-adv-x="287" arabic-form="initial" 
d="M-16 10v98l16 10q69 0 110.5 15.5t41.5 37.5q0 18 -5 41.5t-13.5 50t-20.5 54t-26 52.5l93 52q13 -24 24 -54t19.5 -61t13 -61.5t4.5 -55.5q0 -98 -57.5 -143.5t-183.5 -45.5z" />
    <glyph glyph-name="uniFBE9" unicode="&#x649;" horiz-adv-x="331" arabic-form="medial" 
d="M331 0q-60 0 -97.5 17t-59.5 51q-24 -35 -71.5 -51.5t-102.5 -16.5l-16 10v98l16 10q65 0 92 16.5t32 42.5q2 12 5 27.5t5.5 32.5t5 33.5t4.5 29.5l86 -11q-7 -55 -9.5 -82t-2.5 -32q0 -57 113 -57l16 -10v-98z" />
    <glyph glyph-name="uniFBFC" unicode="&#x6cc;" horiz-adv-x="676" arabic-form="isolated" 
d="M418 82q-113 35 -113 145q0 39 14.5 74t38.5 62t56.5 42.5t68.5 15.5q48 0 86 -28.5t59 -80.5l-59 -44q-35 47 -90 47q-35 0 -60 -20.5t-25 -49.5q0 -11 3 -18.5t11.5 -14t24 -12.5t40.5 -14l64 -20q97 -31 97 -113q0 -47 -29 -92.5t-77 -81t-109 -57.5t-124 -22
q-56 0 -102 16.5t-80 47.5t-52.5 74t-18.5 97q0 57 21.5 115.5t59.5 106.5l63 -39q-47 -79 -47 -151q0 -69 46 -108.5t125 -39.5q42 0 83 9.5t73.5 25t53 34.5t20.5 39q0 11 -10.5 17.5t-47.5 17.5z" />
    <glyph glyph-name="uniFBFD" unicode="&#x6cc;" horiz-adv-x="653" arabic-form="final" 
d="M653 0q-17 0 -33.5 2.5t-33.5 8.5q3 -15 3 -28q0 -29 -24.5 -61t-65.5 -59t-94 -45t-110 -18q-56 0 -102 16.5t-80 47.5t-52.5 74t-18.5 97q0 57 21.5 115.5t59.5 106.5l63 -39q-47 -79 -47 -151q0 -69 46 -108.5t125 -39.5q42 0 78.5 8.5t63.5 21t42.5 28t15.5 29.5
q0 17 -26.5 51t-69.5 83l76 66q22 -27 41.5 -44.5t39 -27t39.5 -13t43 -3.5l16 -10v-98z" />
    <glyph glyph-name="uniFBFE" unicode="&#x6cc;" horiz-adv-x="287" arabic-form="initial" 
d="M-16 10v98l16 10q69 0 110.5 15.5t41.5 37.5q0 18 -5 41.5t-13.5 50t-20.5 54t-26 52.5l93 52q13 -24 24 -54t19.5 -61t13 -61.5t4.5 -55.5q0 -98 -57.5 -143.5t-183.5 -45.5zM184 -229l-64 65l-64 -65l-75 76l75 76l64 -65l64 65l75 -76z" />
    <glyph glyph-name="uniFBFF" unicode="&#x6cc;" horiz-adv-x="331" arabic-form="medial" 
d="M331 0q-60 0 -97.5 17t-59.5 51q-24 -35 -71.5 -51.5t-102.5 -16.5l-16 10v98l16 10q65 0 92 16.5t32 42.5q2 12 5 27.5t5.5 32.5t5 33.5t4.5 29.5l86 -11q-7 -55 -9.5 -82t-2.5 -32q0 -57 113 -57l16 -10v-98zM236 -229l-64 65l-64 -65l-75 76l75 76l64 -65l64 65
l75 -76z" />
    <glyph glyph-name="uniFE80" unicode="&#x621;" horiz-adv-x="455" arabic-form="isolated" 
d="M396 46q-85 -6 -164.5 -21.5t-159.5 -39.5l-35 82q24 10 48.5 19.5t50.5 17.5q-31 20 -48.5 48.5t-17.5 68.5q0 34 12.5 65.5t34.5 55.5t51.5 38.5t62.5 14.5q41 0 75.5 -18t57.5 -51l-45 -60q-17 8 -37 13t-41 5q-39 0 -63 -16t-24 -45q0 -32 39.5 -52t102.5 -27
q58 10 115 15z" />
    <glyph glyph-name="uniFE81" unicode="&#x622;" horiz-adv-x="222" arabic-form="isolated" 
d="M67 0l-7 638l102 18l-6 -656h-89zM251 804q-13 -39 -35.5 -58.5t-51.5 -19.5q-13 0 -26 4.5t-26 9.5q-15 6 -29.5 11.5t-28.5 5.5t-25.5 -9.5t-24.5 -29.5l-33 20q13 39 35.5 58.5t51.5 19.5q13 0 26 -4.5t26 -9.5q15 -6 29.5 -11.5t28.5 -5.5t25.5 9.5t24.5 29.5z" />
    <glyph glyph-name="uniFE82" unicode="&#x622;" horiz-adv-x="239" arabic-form="final" 
d="M239 0q-85 0 -131 37.5t-47 107.5l-6 493l102 18l-4 -463q0 -40 20 -57.5t66 -17.5l16 -10v-98zM246 804q-13 -39 -35.5 -58.5t-51.5 -19.5q-13 0 -26 4.5t-26 9.5q-15 6 -29.5 11.5t-28.5 5.5t-25.5 -9.5t-24.5 -29.5l-33 20q13 39 35.5 58.5t51.5 19.5q13 0 26 -4.5
t26 -9.5q15 -6 29.5 -11.5t28.5 -5.5t25.5 9.5t24.5 29.5z" />
    <glyph glyph-name="uniFE83" unicode="&#x623;" horiz-adv-x="222" arabic-form="isolated" 
d="M67 0l-7 638l102 18l-6 -656h-89zM195 747q-45 -3 -83.5 -10.5t-75.5 -18.5l-17 41q27 11 49 18q-33 19 -33 57q0 16 6.5 31t18 26.5t26.5 18t33 6.5q37 0 63 -29l-25 -33q-8 4 -16.5 6.5t-17.5 2.5q-18 0 -29 -9t-11 -22q0 -14 15.5 -23t41.5 -13q17 3 32.5 5t30.5 3z
" />
    <glyph glyph-name="uniFE84" unicode="&#x623;" horiz-adv-x="239" arabic-form="final" 
d="M239 0q-85 0 -131 37.5t-47 107.5l-6 493l102 18l-4 -463q0 -40 20 -57.5t66 -17.5l16 -10v-98zM190 747q-45 -3 -83.5 -10.5t-75.5 -18.5l-17 41q27 11 49 18q-33 19 -33 57q0 16 6.5 31t18 26.5t26.5 18t33 6.5q37 0 63 -29l-25 -33q-8 4 -16.5 6.5t-17.5 2.5
q-18 0 -29 -9t-11 -22q0 -14 15.5 -23t41.5 -13q17 3 32.5 5t30.5 3z" />
    <glyph glyph-name="uniFE85" unicode="&#x624;" horiz-adv-x="426" arabic-form="isolated" 
d="M44 -94q106 11 167.5 44t80.5 93q-21 -16 -47 -23t-53 -7q-32 0 -58.5 12.5t-46.5 35.5t-31 55.5t-11 73.5q0 43 12 80t34 65t53 44t68 16q40 0 72 -19.5t54.5 -55.5t34 -88t11.5 -116q0 -66 -21 -121t-59.5 -96t-93.5 -66.5t-122 -32.5zM212 116q26 0 49.5 6t38.5 16
q-5 68 -28.5 106t-64.5 38q-36 0 -57.5 -24.5t-21.5 -63.5q0 -37 22.5 -57.5t61.5 -20.5zM296 487q-45 -3 -83.5 -10.5t-75.5 -18.5l-17 41q27 11 49 18q-33 19 -33 57q0 16 6.5 31t18 26.5t26.5 18t33 6.5q37 0 63 -29l-25 -33q-8 4 -16.5 6.5t-17.5 2.5q-18 0 -29 -9
t-11 -22q0 -14 15.5 -23t41.5 -13q17 3 32.5 5t30.5 3z" />
    <glyph glyph-name="uniFE86" unicode="&#x624;" horiz-adv-x="431" arabic-form="final" 
d="M431 0h-67q-30 -84 -101.5 -136.5t-174.5 -63.5l-44 106q93 9 151.5 35t84.5 73h-29q-100 0 -153 46.5t-53 129.5q0 43 12 80t34 65t53 44t68 16q40 0 72 -19t54 -55t34 -87.5t12 -115.5h47l16 -10v-98zM128 194q0 -76 138 -76h35q-2 77 -26 120.5t-68 43.5
q-36 0 -57.5 -24.5t-21.5 -63.5zM296 487q-45 -3 -83.5 -10.5t-75.5 -18.5l-17 41q27 11 49 18q-33 19 -33 57q0 16 6.5 31t18 26.5t26.5 18t33 6.5q37 0 63 -29l-25 -33q-8 4 -16.5 6.5t-17.5 2.5q-18 0 -29 -9t-11 -22q0 -14 15.5 -23t41.5 -13q17 3 32.5 5t30.5 3z" />
    <glyph glyph-name="uniFE87" unicode="&#x625;" horiz-adv-x="222" arabic-form="isolated" 
d="M67 0l-7 638l102 18l-6 -656h-89zM195 -242q-45 -3 -83.5 -10.5t-75.5 -18.5l-17 41l49 19q-33 19 -33 56q0 16 6.5 31t18 26.5t26.5 18t33 6.5q37 0 63 -29l-25 -33q-8 4 -16.5 6.5t-17.5 2.5q-18 0 -29 -9t-11 -22q0 -14 15.5 -23t41.5 -12q17 3 32.5 4.5t30.5 2.5z
" />
    <glyph glyph-name="uniFE88" unicode="&#x625;" horiz-adv-x="239" arabic-form="final" 
d="M239 0q-85 0 -131 37.5t-47 107.5l-6 493l102 18l-4 -463q0 -40 20 -57.5t66 -17.5l16 -10v-98zM190 -242q-45 -3 -83.5 -10.5t-75.5 -18.5l-17 41l49 19q-33 19 -33 56q0 16 6.5 31t18 26.5t26.5 18t33 6.5q37 0 63 -29l-25 -33q-8 4 -16.5 6.5t-17.5 2.5q-18 0 -29 -9
t-11 -22q0 -14 15.5 -23t41.5 -12q17 3 32.5 4.5t30.5 2.5z" />
    <glyph glyph-name="uniFE89" unicode="&#x626;" horiz-adv-x="676" arabic-form="isolated" 
d="M418 82q-113 35 -113 145q0 39 14.5 74t38.5 62t56.5 42.5t68.5 15.5q48 0 86 -28.5t59 -80.5l-59 -44q-35 47 -90 47q-35 0 -60 -20.5t-25 -49.5q0 -11 3 -18.5t11.5 -14t24 -12.5t40.5 -14l64 -20q97 -31 97 -113q0 -47 -29 -92.5t-77 -81t-109 -57.5t-124 -22
q-56 0 -102 16.5t-80 47.5t-52.5 74t-18.5 97q0 57 21.5 115.5t59.5 106.5l63 -39q-47 -79 -47 -151q0 -69 46 -108.5t125 -39.5q42 0 83 9.5t73.5 25t53 34.5t20.5 39q0 11 -10.5 17.5t-47.5 17.5zM249 349q-45 -3 -83.5 -10.5t-75.5 -18.5l-17 41q27 11 49 18
q-33 19 -33 57q0 16 6.5 31t18 26.5t26.5 18t33 6.5q37 0 63 -29l-25 -33q-8 4 -16.5 6.5t-17.5 2.5q-18 0 -29 -9t-11 -22q0 -14 15.5 -23t41.5 -13q17 3 32.5 5t30.5 3z" />
    <glyph glyph-name="uniFE8A" unicode="&#x626;" horiz-adv-x="653" arabic-form="final" 
d="M653 0q-17 0 -33.5 2.5t-33.5 8.5q3 -15 3 -28q0 -29 -24.5 -61t-65.5 -59t-94 -45t-110 -18q-56 0 -102 16.5t-80 47.5t-52.5 74t-18.5 97q0 57 21.5 115.5t59.5 106.5l63 -39q-47 -79 -47 -151q0 -69 46 -108.5t125 -39.5q42 0 78.5 8.5t63.5 21t42.5 28t15.5 29.5
q0 17 -26.5 51t-69.5 83l76 66q22 -27 41.5 -44.5t39 -27t39.5 -13t43 -3.5l16 -10v-98zM249 349q-45 -3 -83.5 -10.5t-75.5 -18.5l-17 41q27 11 49 18q-33 19 -33 57q0 16 6.5 31t18 26.5t26.5 18t33 6.5q37 0 63 -29l-25 -33q-8 4 -16.5 6.5t-17.5 2.5q-18 0 -29 -9
t-11 -22q0 -14 15.5 -23t41.5 -13q17 3 32.5 5t30.5 3z" />
    <glyph glyph-name="uniFE8B" unicode="&#x626;" horiz-adv-x="287" arabic-form="initial" 
d="M-16 10v98l16 10q69 0 110.5 15.5t41.5 37.5q0 18 -5 41.5t-13.5 50t-20.5 54t-26 52.5l93 52q13 -24 24 -54t19.5 -61t13 -61.5t4.5 -55.5q0 -98 -57.5 -143.5t-183.5 -45.5zM217 513q-45 -3 -83.5 -10.5t-75.5 -18.5l-17 41q27 11 49 18q-33 19 -33 57q0 16 6.5 31
t18 26.5t26.5 18t33 6.5q37 0 63 -29l-25 -33q-8 4 -16.5 6.5t-17.5 2.5q-18 0 -29 -9t-11 -22q0 -14 15.5 -23t41.5 -13q17 3 32.5 5t30.5 3z" />
    <glyph glyph-name="uniFE8C" unicode="&#x626;" horiz-adv-x="331" arabic-form="medial" 
d="M331 0q-60 0 -97.5 17t-59.5 51q-24 -35 -71.5 -51.5t-102.5 -16.5l-16 10v98l16 10q65 0 92 16.5t32 42.5q2 12 5 27.5t5.5 32.5t5 33.5t4.5 29.5l86 -11q-7 -55 -9.5 -82t-2.5 -32q0 -57 113 -57l16 -10v-98zM273 392q-45 -3 -83.5 -10.5t-75.5 -18.5l-17 41
q27 11 49 18q-33 19 -33 57q0 16 6.5 31t18 26.5t26.5 18t33 6.5q37 0 63 -29l-25 -33q-8 4 -16.5 6.5t-17.5 2.5q-18 0 -29 -9t-11 -22q0 -14 15.5 -23t41.5 -13q17 3 32.5 5t30.5 3z" />
    <glyph glyph-name="uniFE8D" unicode="&#x627;" horiz-adv-x="222" arabic-form="isolated" 
d="M67 0l-7 638l102 18l-6 -656h-89z" />
    <glyph glyph-name="uniFE8E" unicode="&#x627;" horiz-adv-x="239" arabic-form="final" 
d="M239 0q-85 0 -131 37.5t-47 107.5l-6 493l102 18l-4 -463q0 -40 20 -57.5t66 -17.5l16 -10v-98z" />
    <glyph glyph-name="uniFE8F" unicode="&#x628;" horiz-adv-x="785" arabic-form="isolated" 
d="M678 421q13 -25 24.5 -55t19.5 -61.5t12.5 -63.5t4.5 -61q0 -50 -19.5 -86t-61.5 -58.5t-108 -33t-159 -10.5q-182 0 -265.5 47t-83.5 149q0 45 16.5 97.5t45.5 99.5l67 -32q-15 -33 -23.5 -65.5t-8.5 -56.5q0 -64 58.5 -91.5t193.5 -27.5q55 0 102 4.5t82 12.5t55 19
t20 23q0 18 -5 41.5t-13.5 50t-20.5 54t-26 52.5zM391 -229l-75 76l75 76l75 -76z" />
    <glyph glyph-name="uniFE90" unicode="&#x628;" horiz-adv-x="860" arabic-form="final" 
d="M860 0q-62 0 -100 18t-60 54q-33 -42 -108.5 -61t-200.5 -19q-182 0 -265.5 47t-83.5 149q0 45 16.5 97.5t45.5 99.5l67 -32q-15 -33 -23.5 -65.5t-8.5 -56.5q0 -64 58.5 -91.5t193.5 -27.5q66 0 114 3.5t79.5 12t48 21.5t20.5 32q4 17 9 47.5t11 71.5l86 -11
q-7 -55 -9.5 -82t-2.5 -32q0 -57 113 -57l16 -10v-98zM391 -248l-75 76l75 76l75 -76z" />
    <glyph glyph-name="uniFE91" unicode="&#x628;" horiz-adv-x="287" arabic-form="initial" 
d="M-16 10v98l16 10q69 0 110.5 15.5t41.5 37.5q0 18 -5 41.5t-13.5 50t-20.5 54t-26 52.5l93 52q13 -24 24 -54t19.5 -61t13 -61.5t4.5 -55.5q0 -98 -57.5 -143.5t-183.5 -45.5zM120 -229l-75 76l75 76l75 -76z" />
    <glyph glyph-name="uniFE92" unicode="&#x628;" horiz-adv-x="331" arabic-form="medial" 
d="M331 0q-60 0 -97.5 17t-59.5 51q-24 -35 -71.5 -51.5t-102.5 -16.5l-16 10v98l16 10q65 0 92 16.5t32 42.5q2 12 5 27.5t5.5 32.5t5 33.5t4.5 29.5l86 -11q-7 -55 -9.5 -82t-2.5 -32q0 -57 113 -57l16 -10v-98zM172 -229l-75 76l75 76l75 -76z" />
    <glyph glyph-name="uniFE93" unicode="&#x629;" horiz-adv-x="451" arabic-form="isolated" 
d="M409 164q0 -81 -49 -126.5t-135 -45.5q-88 0 -135.5 45t-47.5 130q0 52 14.5 98.5t39.5 81t58 54.5t71 20q39 0 72.5 -20t58 -54.5t39 -81.5t14.5 -101zM323 161q0 63 -28 102t-70 39q-19 0 -36.5 -9t-31 -24.5t-21.5 -36t-8 -44.5q0 -40 26 -60t71 -20q39 0 68.5 15.5
t29.5 37.5zM289 484l-64 65l-64 -65l-75 76l75 76l64 -65l64 65l75 -76z" />
    <glyph glyph-name="uniFE94" unicode="&#x629;" horiz-adv-x="473" arabic-form="final" 
d="M473 0q-74 0 -119 28t-56 82q-41 -24 -98 -24q-37 0 -67.5 10.5t-53 29.5t-35 46.5t-12.5 62.5q0 80 66.5 137t191.5 85l-1 64l102 18l-4 -346q-1 -40 19.5 -57.5t66.5 -17.5l16 -10v-98zM218 198q43 0 76 12l-3 142q-34 -3 -65.5 -11.5t-55.5 -21.5t-38 -29.5t-14 -34.5
q0 -16 8 -27t21.5 -17.5t32 -9.5t38.5 -3zM293 583l-64 65l-64 -65l-75 76l75 76l64 -65l64 65l75 -76z" />
    <glyph glyph-name="uniFE95" unicode="&#x62a;" horiz-adv-x="785" arabic-form="isolated" 
d="M678 421q13 -25 24.5 -55t19.5 -61.5t12.5 -63.5t4.5 -61q0 -50 -19.5 -86t-61.5 -58.5t-108 -33t-159 -10.5q-182 0 -265.5 47t-83.5 149q0 45 16.5 97.5t45.5 99.5l67 -32q-15 -33 -23.5 -65.5t-8.5 -56.5q0 -64 58.5 -91.5t193.5 -27.5q55 0 102 4.5t82 12.5t55 19
t20 23q0 18 -5 41.5t-13.5 50t-20.5 54t-26 52.5zM445 447l-64 65l-64 -65l-75 76l75 76l64 -65l64 65l75 -76z" />
    <glyph glyph-name="uniFE96" unicode="&#x62a;" horiz-adv-x="860" arabic-form="final" 
d="M860 0q-62 0 -100 18t-60 54q-33 -42 -108.5 -61t-200.5 -19q-182 0 -265.5 47t-83.5 149q0 45 16.5 97.5t45.5 99.5l67 -32q-15 -33 -23.5 -65.5t-8.5 -56.5q0 -64 58.5 -91.5t193.5 -27.5q66 0 114 3.5t79.5 12t48 21.5t20.5 32q4 17 9 47.5t11 71.5l86 -11
q-7 -55 -9.5 -82t-2.5 -32q0 -57 113 -57l16 -10v-98zM485 417l-64 65l-64 -65l-75 76l75 76l64 -65l64 65l75 -76z" />
    <glyph glyph-name="uniFE97" unicode="&#x62a;" horiz-adv-x="287" arabic-form="initial" 
d="M-16 10v98l16 10q69 0 110.5 15.5t41.5 37.5q0 18 -5 41.5t-13.5 50t-20.5 54t-26 52.5l93 52q13 -24 24 -54t19.5 -61t13 -61.5t4.5 -55.5q0 -98 -57.5 -143.5t-183.5 -45.5zM197 484l-64 65l-64 -65l-75 76l75 76l64 -65l64 65l75 -76z" />
    <glyph glyph-name="uniFE98" unicode="&#x62a;" horiz-adv-x="331" arabic-form="medial" 
d="M331 0q-60 0 -97.5 17t-59.5 51q-24 -35 -71.5 -51.5t-102.5 -16.5l-16 10v98l16 10q65 0 92 16.5t32 42.5q2 12 5 27.5t5.5 32.5t5 33.5t4.5 29.5l86 -11q-7 -55 -9.5 -82t-2.5 -32q0 -57 113 -57l16 -10v-98zM253 363l-64 65l-64 -65l-75 76l75 76l64 -65l64 65l75 -76
z" />
    <glyph glyph-name="uniFE99" unicode="&#x62b;" horiz-adv-x="785" arabic-form="isolated" 
d="M678 421q13 -25 24.5 -55t19.5 -61.5t12.5 -63.5t4.5 -61q0 -50 -19.5 -86t-61.5 -58.5t-108 -33t-159 -10.5q-182 0 -265.5 47t-83.5 149q0 45 16.5 97.5t45.5 99.5l67 -32q-15 -33 -23.5 -65.5t-8.5 -56.5q0 -64 58.5 -91.5t193.5 -27.5q55 0 102 4.5t82 12.5t55 19
t20 23q0 18 -5 41.5t-13.5 50t-20.5 54t-26 52.5zM445 447l-64 65l-64 -65l-75 76l75 76l64 -65l64 65l75 -76zM381 592l-75 76l75 76l75 -76z" />
    <glyph glyph-name="uniFE9A" unicode="&#x62b;" horiz-adv-x="860" arabic-form="final" 
d="M860 0q-62 0 -100 18t-60 54q-33 -42 -108.5 -61t-200.5 -19q-182 0 -265.5 47t-83.5 149q0 45 16.5 97.5t45.5 99.5l67 -32q-15 -33 -23.5 -65.5t-8.5 -56.5q0 -64 58.5 -91.5t193.5 -27.5q66 0 114 3.5t79.5 12t48 21.5t20.5 32q4 17 9 47.5t11 71.5l86 -11
q-7 -55 -9.5 -82t-2.5 -32q0 -57 113 -57l16 -10v-98zM485 417l-64 65l-64 -65l-75 76l75 76l64 -65l64 65l75 -76zM421 562l-75 76l75 76l75 -76z" />
    <glyph glyph-name="uniFE9B" unicode="&#x62b;" horiz-adv-x="287" arabic-form="initial" 
d="M-16 10v98l16 10q69 0 110.5 15.5t41.5 37.5q0 18 -5 41.5t-13.5 50t-20.5 54t-26 52.5l93 52q13 -24 24 -54t19.5 -61t13 -61.5t4.5 -55.5q0 -98 -57.5 -143.5t-183.5 -45.5zM197 484l-64 65l-64 -65l-75 76l75 76l64 -65l64 65l75 -76zM133 629l-75 76l75 76l75 -76z
" />
    <glyph glyph-name="uniFE9C" unicode="&#x62b;" horiz-adv-x="331" arabic-form="medial" 
d="M331 0q-60 0 -97.5 17t-59.5 51q-24 -35 -71.5 -51.5t-102.5 -16.5l-16 10v98l16 10q65 0 92 16.5t32 42.5q2 12 5 27.5t5.5 32.5t5 33.5t4.5 29.5l86 -11q-7 -55 -9.5 -82t-2.5 -32q0 -57 113 -57l16 -10v-98zM253 363l-64 65l-64 -65l-75 76l75 76l64 -65l64 65l75 -76
zM189 508l-75 76l75 76l75 -76z" />
    <glyph glyph-name="uniFE9D" unicode="&#x62c;" horiz-adv-x="598" arabic-form="isolated" 
d="M593 -209q-44 -43 -110 -67t-141 -24q-64 0 -117 17t-90.5 48.5t-58 75.5t-20.5 98q0 103 75.5 183.5t215.5 128.5q-69 17 -109 25t-60 8q-25 0 -41 -8t-36 -29l-58 45q55 103 154 103q27 0 67 -8.5t110 -28.5q98 -29 153 -29h20v-111q-190 -42 -290.5 -108t-100.5 -150
q0 -32 15 -58t42 -44.5t66 -28.5t87 -10q55 0 109 11t89 29zM376 -81l-75 76l75 76l75 -76z" />
    <glyph glyph-name="uniFE9E" unicode="&#x62c;" horiz-adv-x="618" arabic-form="final" 
d="M593 -209q-44 -43 -110 -67t-141 -24q-64 0 -117 17t-90.5 48.5t-58 75.5t-20.5 98q0 103 75.5 183.5t215.5 128.5q-69 17 -109 25t-60 8q-25 0 -41 -8t-36 -29l-58 45q55 103 154 103q27 0 67 -8.5t110 -28.5q98 -29 153 -29h20v-111q-190 -42 -290.5 -108t-100.5 -150
q0 -32 15 -58t42 -44.5t66 -28.5t87 -10q55 0 109 11t89 29zM618 0q-87 0 -133 46.5t-46 133.5q0 21 2.5 52.5t5.5 53.5l60 -2q-2 -16 -4 -37t-2 -33q0 -53 25.5 -74.5t91.5 -21.5l16 -10v-98zM350 -81l-75 76l75 76l75 -76z" />
    <glyph glyph-name="uniFE9F" unicode="&#x62c;" horiz-adv-x="557" arabic-form="initial" 
d="M239 183q28 13 54 23.5t52 18.5l-23 10q-38 15 -63.5 25t-44 15t-32 7t-25.5 2q-25 0 -41 -8t-36 -29l-58 45q56 103 154 103q16 0 32 -2.5t35.5 -8.5t44.5 -15.5t58 -23.5q27 -12 47.5 -20t36.5 -12.5t29 -6.5t27 -2h20v-111q-29 -8 -55.5 -17.5t-52 -21.5t-51.5 -26
t-54 -30q-39 -22 -73.5 -40t-69.5 -31t-71.5 -20t-78.5 -7l-16 10v98l16 10q65 0 119.5 17t119.5 48zM235 -209l-75 76l75 76l75 -76z" />
    <glyph glyph-name="uniFEA0" unicode="&#x62c;" horiz-adv-x="568" arabic-form="medial" 
d="M239 183q28 13 54 23.5t52 18.5l-23 10q-38 15 -63.5 25t-44 15t-32 7t-25.5 2q-25 0 -41 -8t-36 -29l-58 45q56 103 154 103q16 0 32 -2.5t35.5 -8.5t44.5 -15.5t58 -23.5q27 -12 47.5 -20t36.5 -12.5t29 -6.5t27 -2h20v-111q-29 -8 -55.5 -17.5t-52 -21.5t-51.5 -26
t-54 -30q-39 -22 -73.5 -40t-69.5 -31t-71.5 -20t-78.5 -7l-16 10v98l16 10q65 0 119.5 17t119.5 48zM568 0q-80 0 -122.5 44.5t-42.5 129.5q0 18 1 31.5t4 27.5h57q-3 -18 -3 -37q0 -42 24 -60t82 -18l16 -10v-98zM235 -209l-75 76l75 76l75 -76z" />
    <glyph glyph-name="uniFEA1" unicode="&#x62d;" horiz-adv-x="598" arabic-form="isolated" 
d="M593 -209q-44 -43 -110 -67t-141 -24q-64 0 -117 17t-90.5 48.5t-58 75.5t-20.5 98q0 103 75.5 183.5t215.5 128.5q-69 17 -109 25t-60 8q-25 0 -41 -8t-36 -29l-58 45q55 103 154 103q27 0 67 -8.5t110 -28.5q98 -29 153 -29h20v-111q-190 -42 -290.5 -108t-100.5 -150
q0 -32 15 -58t42 -44.5t66 -28.5t87 -10q55 0 109 11t89 29z" />
    <glyph glyph-name="uniFEA2" unicode="&#x62d;" horiz-adv-x="618" arabic-form="final" 
d="M593 -209q-44 -43 -110 -67t-141 -24q-64 0 -117 17t-90.5 48.5t-58 75.5t-20.5 98q0 103 75.5 183.5t215.5 128.5q-69 17 -109 25t-60 8q-25 0 -41 -8t-36 -29l-58 45q55 103 154 103q27 0 67 -8.5t110 -28.5q98 -29 153 -29h20v-111q-190 -42 -290.5 -108t-100.5 -150
q0 -32 15 -58t42 -44.5t66 -28.5t87 -10q55 0 109 11t89 29zM618 0q-87 0 -133 46.5t-46 133.5q0 21 2.5 52.5t5.5 53.5l60 -2q-2 -16 -4 -37t-2 -33q0 -53 25.5 -74.5t91.5 -21.5l16 -10v-98z" />
    <glyph glyph-name="uniFEA3" unicode="&#x62d;" horiz-adv-x="557" arabic-form="initial" 
d="M239 183q28 13 54 23.5t52 18.5l-23 10q-38 15 -63.5 25t-44 15t-32 7t-25.5 2q-25 0 -41 -8t-36 -29l-58 45q56 103 154 103q16 0 32 -2.5t35.5 -8.5t44.5 -15.5t58 -23.5q27 -12 47.5 -20t36.5 -12.5t29 -6.5t27 -2h20v-111q-29 -8 -55.5 -17.5t-52 -21.5t-51.5 -26
t-54 -30q-39 -22 -73.5 -40t-69.5 -31t-71.5 -20t-78.5 -7l-16 10v98l16 10q65 0 119.5 17t119.5 48z" />
    <glyph glyph-name="uniFEA4" unicode="&#x62d;" horiz-adv-x="568" arabic-form="medial" 
d="M239 183q28 13 54 23.5t52 18.5l-23 10q-38 15 -63.5 25t-44 15t-32 7t-25.5 2q-25 0 -41 -8t-36 -29l-58 45q56 103 154 103q16 0 32 -2.5t35.5 -8.5t44.5 -15.5t58 -23.5q27 -12 47.5 -20t36.5 -12.5t29 -6.5t27 -2h20v-111q-29 -8 -55.5 -17.5t-52 -21.5t-51.5 -26
t-54 -30q-39 -22 -73.5 -40t-69.5 -31t-71.5 -20t-78.5 -7l-16 10v98l16 10q65 0 119.5 17t119.5 48zM568 0q-80 0 -122.5 44.5t-42.5 129.5q0 18 1 31.5t4 27.5h57q-3 -18 -3 -37q0 -42 24 -60t82 -18l16 -10v-98z" />
    <glyph glyph-name="uniFEA5" unicode="&#x62e;" horiz-adv-x="598" arabic-form="isolated" 
d="M593 -209q-44 -43 -110 -67t-141 -24q-64 0 -117 17t-90.5 48.5t-58 75.5t-20.5 98q0 103 75.5 183.5t215.5 128.5q-69 17 -109 25t-60 8q-25 0 -41 -8t-36 -29l-58 45q55 103 154 103q27 0 67 -8.5t110 -28.5q98 -29 153 -29h20v-111q-190 -42 -290.5 -108t-100.5 -150
q0 -32 15 -58t42 -44.5t66 -28.5t87 -10q55 0 109 11t89 29zM296 458l-75 76l75 76l75 -76z" />
    <glyph glyph-name="uniFEA6" unicode="&#x62e;" horiz-adv-x="618" arabic-form="final" 
d="M593 -209q-44 -43 -110 -67t-141 -24q-64 0 -117 17t-90.5 48.5t-58 75.5t-20.5 98q0 103 75.5 183.5t215.5 128.5q-69 17 -109 25t-60 8q-25 0 -41 -8t-36 -29l-58 45q55 103 154 103q27 0 67 -8.5t110 -28.5q98 -29 153 -29h20v-111q-190 -42 -290.5 -108t-100.5 -150
q0 -32 15 -58t42 -44.5t66 -28.5t87 -10q55 0 109 11t89 29zM618 0q-87 0 -133 46.5t-46 133.5q0 21 2.5 52.5t5.5 53.5l60 -2q-2 -16 -4 -37t-2 -33q0 -53 25.5 -74.5t91.5 -21.5l16 -10v-98zM296 458l-75 76l75 76l75 -76z" />
    <glyph glyph-name="uniFEA7" unicode="&#x62e;" horiz-adv-x="557" arabic-form="initial" 
d="M239 183q28 13 54 23.5t52 18.5l-23 10q-38 15 -63.5 25t-44 15t-32 7t-25.5 2q-25 0 -41 -8t-36 -29l-58 45q56 103 154 103q16 0 32 -2.5t35.5 -8.5t44.5 -15.5t58 -23.5q27 -12 47.5 -20t36.5 -12.5t29 -6.5t27 -2h20v-111q-29 -8 -55.5 -17.5t-52 -21.5t-51.5 -26
t-54 -30q-39 -22 -73.5 -40t-69.5 -31t-71.5 -20t-78.5 -7l-16 10v98l16 10q65 0 119.5 17t119.5 48zM275 458l-75 76l75 76l75 -76z" />
    <glyph glyph-name="uniFEA8" unicode="&#x62e;" horiz-adv-x="568" arabic-form="medial" 
d="M239 183q28 13 54 23.5t52 18.5l-23 10q-38 15 -63.5 25t-44 15t-32 7t-25.5 2q-25 0 -41 -8t-36 -29l-58 45q56 103 154 103q16 0 32 -2.5t35.5 -8.5t44.5 -15.5t58 -23.5q27 -12 47.5 -20t36.5 -12.5t29 -6.5t27 -2h20v-111q-29 -8 -55.5 -17.5t-52 -21.5t-51.5 -26
t-54 -30q-39 -22 -73.5 -40t-69.5 -31t-71.5 -20t-78.5 -7l-16 10v98l16 10q65 0 119.5 17t119.5 48zM568 0q-80 0 -122.5 44.5t-42.5 129.5q0 18 1 31.5t4 27.5h57q-3 -18 -3 -37q0 -42 24 -60t82 -18l16 -10v-98zM275 458l-75 76l75 76l75 -76z" />
    <glyph glyph-name="uniFEA9" unicode="&#x62f;" horiz-adv-x="424" arabic-form="isolated" 
d="M23 121q24 -5 59.5 -8t65.5 -3q25 0 51 3t47.5 7.5t35 10t13.5 10.5q0 19 -12 46t-33 57.5t-50 62.5t-63 62l80 76q39 -35 70 -73t52.5 -77t33 -77.5t11.5 -74.5q0 -41 -13 -70t-41 -47t-73 -26t-109 -8q-24 0 -51.5 2t-48.5 6z" />
    <glyph glyph-name="uniFEAA" unicode="&#x62f;" horiz-adv-x="484" arabic-form="final" 
d="M484 0q-83 0 -131 44q-26 -28 -75 -40t-130 -12q-24 0 -51.5 2t-48.5 6l-25 121q24 -5 59.5 -8t65.5 -3q41 0 81 6.5t66 16.5q-11 22 -21.5 47t-23.5 56.5t-28 70.5t-33 90l97 46q20 -58 43.5 -121t55.5 -143q7 -18 15.5 -30t19.5 -19t26.5 -9.5t37.5 -2.5l16 -10v-98z
" />
    <glyph glyph-name="uniFEAB" unicode="&#x630;" horiz-adv-x="424" arabic-form="isolated" 
d="M23 121q24 -5 59.5 -8t65.5 -3q25 0 51 3t47.5 7.5t35 10t13.5 10.5q0 19 -12 46t-33 57.5t-50 62.5t-63 62l80 76q39 -35 70 -73t52.5 -77t33 -77.5t11.5 -74.5q0 -41 -13 -70t-41 -47t-73 -26t-109 -8q-24 0 -51.5 2t-48.5 6zM169 507l-75 76l75 76l75 -76z" />
    <glyph glyph-name="uniFEAC" unicode="&#x630;" horiz-adv-x="484" arabic-form="final" 
d="M484 0q-83 0 -131 44q-26 -28 -75 -40t-130 -12q-24 0 -51.5 2t-48.5 6l-25 121q24 -5 59.5 -8t65.5 -3q41 0 81 6.5t66 16.5q-11 22 -21.5 47t-23.5 56.5t-28 70.5t-33 90l97 46q20 -58 43.5 -121t55.5 -143q7 -18 15.5 -30t19.5 -19t26.5 -9.5t37.5 -2.5l16 -10v-98z
M228 505l-75 76l75 76l75 -76z" />
    <glyph glyph-name="uniFEAD" unicode="&#x631;" horiz-adv-x="365" arabic-form="isolated" 
d="M-17 -99q54 21 100 46.5t80 52.5t53 53t19 49q0 15 -7.5 39.5t-21 54.5t-31 63t-38.5 65l93 52q44 -60 69 -130t25 -132q0 -100 -73.5 -182t-207.5 -132z" />
    <glyph glyph-name="uniFEAE" unicode="&#x631;" horiz-adv-x="420" arabic-form="final" 
d="M420 0q-35 0 -62 6.5t-50 21.5q-26 -72 -95 -131.5t-170 -96.5l-60 101q109 42 175 94.5t82 107.5q-15 27 -30 63.5t-33 91.5l97 45q10 -31 21 -63t19 -54q7 -21 15.5 -34t20.5 -20.5t29 -10.5t41 -3l16 -10v-98z" />
    <glyph glyph-name="uniFEAF" unicode="&#x632;" horiz-adv-x="365" arabic-form="isolated" 
d="M-17 -99q54 21 100 46.5t80 52.5t53 53t19 49q0 15 -7.5 39.5t-21 54.5t-31 63t-38.5 65l93 52q44 -60 69 -130t25 -132q0 -100 -73.5 -182t-207.5 -132zM172 439l-75 76l75 76l75 -76z" />
    <glyph glyph-name="uniFEB0" unicode="&#x632;" horiz-adv-x="420" arabic-form="final" 
d="M420 0q-35 0 -62 6.5t-50 21.5q-26 -72 -95 -131.5t-170 -96.5l-60 101q109 42 175 94.5t82 107.5q-15 27 -30 63.5t-33 91.5l97 45q10 -31 21 -63t19 -54q7 -21 15.5 -34t20.5 -20.5t29 -10.5t41 -3l16 -10v-98zM204 366l-75 76l75 76l75 -76z" />
    <glyph glyph-name="uniFEB1" unicode="&#x633;" horiz-adv-x="1133" arabic-form="isolated" 
d="M897 0q-40 0 -72 13t-52 36q-49 -49 -128 -49q-62 0 -103.5 31t-49.5 100l43 74q11 -44 37.5 -66.5t72.5 -22.5q76 0 88 61q2 12 5 27.5t5.5 32.5t5 33.5t4.5 29.5l86 -11q-7 -55 -9.5 -82t-2.5 -32q0 -25 20.5 -42t58.5 -17q19 0 35.5 5t29 12.5t20 17.5t7.5 20
q0 18 -5 41.5t-13.5 50t-20.5 54t-26 52.5l93 52q13 -24 24 -54t19.5 -61t13 -61.5t4.5 -55.5q0 -40 -10.5 -74.5t-33.5 -60t-59 -40t-87 -14.5zM511 300q14 -29 26.5 -64t21.5 -70t14.5 -68.5t5.5 -59.5q0 -52 -20 -96t-55.5 -75.5t-85 -49t-108.5 -17.5q-61 0 -110.5 16.5
t-84.5 47.5t-54 74t-19 97q0 57 21.5 115.5t59.5 106.5l63 -39q-47 -79 -47 -151q0 -69 46 -108.5t125 -39.5q37 0 69.5 8t57 22t39 32t14.5 39q0 17 -5 42t-14.5 55t-23 63.5t-29.5 68.5z" />
    <glyph glyph-name="uniFEB2" unicode="&#x633;" horiz-adv-x="1171" arabic-form="final" 
d="M1091 311q-2 -42 -4 -72t-4.5 -53t-6 -40.5t-8.5 -33.5q-33 -112 -171 -112q-40 0 -72 13t-52 36q-49 -49 -128 -49q-62 0 -103.5 31t-49.5 100l43 74q11 -44 37.5 -66.5t72.5 -22.5q76 0 88 61q2 12 5 27.5t5.5 32.5t5 33.5t4.5 29.5l86 -11q-7 -55 -9.5 -82t-2.5 -32
q0 -25 20.5 -42t58.5 -17q42 0 60 18t22 41q3 15 5.5 36l5 42t4 39.5t2.5 27.5zM511 300q14 -29 26.5 -64t21.5 -70t14.5 -68.5t5.5 -59.5q0 -52 -20 -96t-55.5 -75.5t-85 -49t-108.5 -17.5q-61 0 -110.5 16.5t-84.5 47.5t-54 74t-19 97q0 57 21.5 115.5t59.5 106.5l63 -39
q-47 -79 -47 -151q0 -69 46 -108.5t125 -39.5q37 0 69.5 8t57 22t39 32t14.5 39q0 17 -5 42t-14.5 55t-23 63.5t-29.5 68.5zM1171 0q-55 0 -99 22.5t-63 70.5l64 83q0 -58 98 -58l16 -10v-98z" />
    <glyph glyph-name="uniFEB3" unicode="&#x633;" horiz-adv-x="760" arabic-form="initial" 
d="M524 0q-40 0 -72 13t-52 36q-49 -49 -128 -49q-62 0 -103.5 31t-49.5 100l43 74q11 -44 37.5 -66.5t72.5 -22.5q76 0 88 61q2 12 5 27.5t5.5 32.5t5 33.5t4.5 29.5l86 -11q-7 -55 -9.5 -82t-2.5 -32q0 -25 20.5 -42t58.5 -17q19 0 35.5 5t29 12.5t20 17.5t7.5 20
q0 18 -5 41.5t-13.5 50t-20.5 54t-26 52.5l93 52q13 -24 24 -54t19.5 -61t13 -61.5t4.5 -55.5q0 -40 -10.5 -74.5t-33.5 -60t-59 -40t-87 -14.5zM-16 10v98l16 10q24 0 41 4.5t30.5 19.5t25.5 43.5t26 75.5l83 -22q-12 -73 -27 -119.5t-38 -73t-57 -36.5t-84 -10z" />
    <glyph glyph-name="uniFEB4" unicode="&#x633;" horiz-adv-x="798" arabic-form="medial" 
d="M718 311q-2 -42 -4 -72t-4.5 -53t-6 -40.5t-8.5 -33.5q-33 -112 -171 -112q-40 0 -72 13t-52 36q-49 -49 -128 -49q-62 0 -103.5 31t-49.5 100l43 74q11 -44 37.5 -66.5t72.5 -22.5q76 0 88 61q2 12 5 27.5t5.5 32.5t5 33.5t4.5 29.5l86 -11q-7 -55 -9.5 -82t-2.5 -32
q0 -25 20.5 -42t58.5 -17q42 0 60 18t22 41q3 15 5.5 36l5 42t4 39.5t2.5 27.5zM-16 10v98l16 10q24 0 41 4.5t30.5 19.5t25.5 43.5t26 75.5l83 -22q-12 -73 -27 -119.5t-38 -73t-57 -36.5t-84 -10zM798 0q-55 0 -99 22.5t-63 70.5l64 83q0 -58 98 -58l16 -10v-98z" />
    <glyph glyph-name="uniFEB5" unicode="&#x634;" horiz-adv-x="1133" arabic-form="isolated" 
d="M897 0q-40 0 -72 13t-52 36q-49 -49 -128 -49q-62 0 -103.5 31t-49.5 100l43 74q11 -44 37.5 -66.5t72.5 -22.5q76 0 88 61q2 12 5 27.5t5.5 32.5t5 33.5t4.5 29.5l86 -11q-7 -55 -9.5 -82t-2.5 -32q0 -25 20.5 -42t58.5 -17q19 0 35.5 5t29 12.5t20 17.5t7.5 20
q0 18 -5 41.5t-13.5 50t-20.5 54t-26 52.5l93 52q13 -24 24 -54t19.5 -61t13 -61.5t4.5 -55.5q0 -40 -10.5 -74.5t-33.5 -60t-59 -40t-87 -14.5zM511 300q14 -29 26.5 -64t21.5 -70t14.5 -68.5t5.5 -59.5q0 -52 -20 -96t-55.5 -75.5t-85 -49t-108.5 -17.5q-61 0 -110.5 16.5
t-84.5 47.5t-54 74t-19 97q0 57 21.5 115.5t59.5 106.5l63 -39q-47 -79 -47 -151q0 -69 46 -108.5t125 -39.5q37 0 69.5 8t57 22t39 32t14.5 39q0 17 -5 42t-14.5 55t-23 63.5t-29.5 68.5zM824 413l-64 65l-64 -65l-75 76l75 76l64 -65l64 65l75 -76zM760 558l-75 76l75 76
l75 -76z" />
    <glyph glyph-name="uniFEB6" unicode="&#x634;" horiz-adv-x="1171" arabic-form="final" 
d="M1091 311q-2 -42 -4 -72t-4.5 -53t-6 -40.5t-8.5 -33.5q-33 -112 -171 -112q-40 0 -72 13t-52 36q-49 -49 -128 -49q-62 0 -103.5 31t-49.5 100l43 74q11 -44 37.5 -66.5t72.5 -22.5q76 0 88 61q2 12 5 27.5t5.5 32.5t5 33.5t4.5 29.5l86 -11q-7 -55 -9.5 -82t-2.5 -32
q0 -25 20.5 -42t58.5 -17q42 0 60 18t22 41q3 15 5.5 36l5 42t4 39.5t2.5 27.5zM511 300q14 -29 26.5 -64t21.5 -70t14.5 -68.5t5.5 -59.5q0 -52 -20 -96t-55.5 -75.5t-85 -49t-108.5 -17.5q-61 0 -110.5 16.5t-84.5 47.5t-54 74t-19 97q0 57 21.5 115.5t59.5 106.5l63 -39
q-47 -79 -47 -151q0 -69 46 -108.5t125 -39.5q37 0 69.5 8t57 22t39 32t14.5 39q0 17 -5 42t-14.5 55t-23 63.5t-29.5 68.5zM1171 0q-55 0 -99 22.5t-63 70.5l64 83q0 -58 98 -58l16 -10v-98zM868 413l-64 65l-64 -65l-75 76l75 76l64 -65l64 65l75 -76zM804 558l-75 76
l75 76l75 -76z" />
    <glyph glyph-name="uniFEB7" unicode="&#x634;" horiz-adv-x="760" arabic-form="initial" 
d="M524 0q-40 0 -72 13t-52 36q-49 -49 -128 -49q-62 0 -103.5 31t-49.5 100l43 74q11 -44 37.5 -66.5t72.5 -22.5q76 0 88 61q2 12 5 27.5t5.5 32.5t5 33.5t4.5 29.5l86 -11q-7 -55 -9.5 -82t-2.5 -32q0 -25 20.5 -42t58.5 -17q19 0 35.5 5t29 12.5t20 17.5t7.5 20
q0 18 -5 41.5t-13.5 50t-20.5 54t-26 52.5l93 52q13 -24 24 -54t19.5 -61t13 -61.5t4.5 -55.5q0 -40 -10.5 -74.5t-33.5 -60t-59 -40t-87 -14.5zM-16 10v98l16 10q24 0 41 4.5t30.5 19.5t25.5 43.5t26 75.5l83 -22q-12 -73 -27 -119.5t-38 -73t-57 -36.5t-84 -10zM451 413
l-64 65l-64 -65l-75 76l75 76l64 -65l64 65l75 -76zM387 558l-75 76l75 76l75 -76z" />
    <glyph glyph-name="uniFEB8" unicode="&#x634;" horiz-adv-x="798" arabic-form="medial" 
d="M718 311q-2 -42 -4 -72t-4.5 -53t-6 -40.5t-8.5 -33.5q-33 -112 -171 -112q-40 0 -72 13t-52 36q-49 -49 -128 -49q-62 0 -103.5 31t-49.5 100l43 74q11 -44 37.5 -66.5t72.5 -22.5q76 0 88 61q2 12 5 27.5t5.5 32.5t5 33.5t4.5 29.5l86 -11q-7 -55 -9.5 -82t-2.5 -32
q0 -25 20.5 -42t58.5 -17q42 0 60 18t22 41q3 15 5.5 36l5 42t4 39.5t2.5 27.5zM-16 10v98l16 10q24 0 41 4.5t30.5 19.5t25.5 43.5t26 75.5l83 -22q-12 -73 -27 -119.5t-38 -73t-57 -36.5t-84 -10zM798 0q-55 0 -99 22.5t-63 70.5l64 83q0 -58 98 -58l16 -10v-98zM495 413
l-64 65l-64 -65l-75 76l75 76l64 -65l64 65l75 -76zM431 558l-75 76l75 76l75 -76z" />
    <glyph glyph-name="uniFEB9" unicode="&#x635;" horiz-adv-x="1133" arabic-form="isolated" 
d="M520 277q21 -51 48.5 -85t70.5 -54q60 136 132 209.5t147 73.5q36 0 68.5 -16t57 -45t39 -68.5t14.5 -87.5q0 -102 -81 -157t-238 -55q-62 0 -110.5 12t-86.5 38.5t-66 68.5t-48 103zM916 302q-48 0 -98 -48t-96 -139q16 -2 33.5 -3t37.5 -1q106 0 160.5 23.5t54.5 70.5
q0 19 -7.5 37t-20 31t-29 21t-35.5 8zM511 300q14 -29 26.5 -64t21.5 -70t14.5 -68.5t5.5 -59.5q0 -52 -20 -96t-55.5 -75.5t-85 -49t-108.5 -17.5q-61 0 -110.5 16.5t-84.5 47.5t-54 74t-19 97q0 57 21.5 115.5t59.5 106.5l63 -39q-47 -79 -47 -151q0 -69 46 -108.5
t125 -39.5q37 0 69.5 8t57 22t39 32t14.5 39q0 17 -5 42t-14.5 55t-23 63.5t-29.5 68.5z" />
    <glyph glyph-name="uniFEBA" unicode="&#x635;" horiz-adv-x="1152" arabic-form="final" 
d="M520 277q21 -51 48.5 -85t70.5 -54q60 136 132 209.5t147 73.5q36 0 68.5 -16t57 -45t39 -68.5t14.5 -87.5q0 -102 -81 -157t-238 -55q-62 0 -110.5 12t-86.5 38.5t-66 68.5t-48 103zM916 302q-48 0 -98 -48t-96 -139q16 -2 33.5 -3t37.5 -1q106 0 160.5 23.5t54.5 70.5
q0 19 -7.5 37t-20 31t-29 21t-35.5 8zM511 300q14 -29 26.5 -64t21.5 -70t14.5 -68.5t5.5 -59.5q0 -52 -20 -96t-55.5 -75.5t-85 -49t-108.5 -17.5q-61 0 -110.5 16.5t-84.5 47.5t-54 74t-19 97q0 57 21.5 115.5t59.5 106.5l63 -39q-47 -79 -47 -151q0 -69 46 -108.5
t125 -39.5q37 0 69.5 8t57 22t39 32t14.5 39q0 17 -5 42t-14.5 55t-23 63.5t-29.5 68.5zM1152 0q-55 0 -99 22.5t-63 70.5l64 83q0 -58 98 -58l16 -10v-98z" />
    <glyph glyph-name="uniFEBB" unicode="&#x635;" horiz-adv-x="760" arabic-form="initial" 
d="M164 163q17 -14 41 -23.5t55 -16.5q61 143 134.5 220.5t150.5 77.5q36 0 68.5 -16t57 -45t39 -69t14.5 -88q0 -101 -81 -156t-238 -55q-94 0 -165.5 18t-104.5 53zM543 302q-49 0 -99 -49t-97 -140q17 -2 35 -2h38q106 0 160.5 23.5t54.5 70.5q0 19 -7.5 37t-20 31
t-29 21t-35.5 8zM-16 10v98l16 10q24 0 41 4.5t30.5 19.5t25.5 43.5t26 75.5l83 -22q-12 -73 -27 -119.5t-38 -73t-57 -36.5t-84 -10z" />
    <glyph glyph-name="uniFEBC" unicode="&#x635;" horiz-adv-x="779" arabic-form="medial" 
d="M164 163q17 -14 41 -23.5t55 -16.5q61 143 134.5 220.5t150.5 77.5q36 0 68.5 -16t57 -45t39 -69t14.5 -88q0 -101 -81 -156t-238 -55q-94 0 -165.5 18t-104.5 53zM543 302q-49 0 -99 -49t-97 -140q17 -2 35 -2h38q106 0 160.5 23.5t54.5 70.5q0 19 -7.5 37t-20 31
t-29 21t-35.5 8zM-16 10v98l16 10q24 0 41 4.5t30.5 19.5t25.5 43.5t26 75.5l83 -22q-12 -73 -27 -119.5t-38 -73t-57 -36.5t-84 -10zM779 0q-55 0 -99 22.5t-63 70.5l64 83q0 -58 98 -58l16 -10v-98z" />
    <glyph glyph-name="uniFEBD" unicode="&#x636;" horiz-adv-x="1133" arabic-form="isolated" 
d="M520 277q21 -51 48.5 -85t70.5 -54q60 136 132 209.5t147 73.5q36 0 68.5 -16t57 -45t39 -68.5t14.5 -87.5q0 -102 -81 -157t-238 -55q-62 0 -110.5 12t-86.5 38.5t-66 68.5t-48 103zM916 302q-48 0 -98 -48t-96 -139q16 -2 33.5 -3t37.5 -1q106 0 160.5 23.5t54.5 70.5
q0 19 -7.5 37t-20 31t-29 21t-35.5 8zM511 300q14 -29 26.5 -64t21.5 -70t14.5 -68.5t5.5 -59.5q0 -52 -20 -96t-55.5 -75.5t-85 -49t-108.5 -17.5q-61 0 -110.5 16.5t-84.5 47.5t-54 74t-19 97q0 57 21.5 115.5t59.5 106.5l63 -39q-47 -79 -47 -151q0 -69 46 -108.5
t125 -39.5q37 0 69.5 8t57 22t39 32t14.5 39q0 17 -5 42t-14.5 55t-23 63.5t-29.5 68.5zM898 484l-75 76l75 76l75 -76z" />
    <glyph glyph-name="uniFEBE" unicode="&#x636;" horiz-adv-x="1152" arabic-form="final" 
d="M520 277q21 -51 48.5 -85t70.5 -54q60 136 132 209.5t147 73.5q36 0 68.5 -16t57 -45t39 -68.5t14.5 -87.5q0 -102 -81 -157t-238 -55q-62 0 -110.5 12t-86.5 38.5t-66 68.5t-48 103zM916 302q-48 0 -98 -48t-96 -139q16 -2 33.5 -3t37.5 -1q106 0 160.5 23.5t54.5 70.5
q0 19 -7.5 37t-20 31t-29 21t-35.5 8zM511 300q14 -29 26.5 -64t21.5 -70t14.5 -68.5t5.5 -59.5q0 -52 -20 -96t-55.5 -75.5t-85 -49t-108.5 -17.5q-61 0 -110.5 16.5t-84.5 47.5t-54 74t-19 97q0 57 21.5 115.5t59.5 106.5l63 -39q-47 -79 -47 -151q0 -69 46 -108.5
t125 -39.5q37 0 69.5 8t57 22t39 32t14.5 39q0 17 -5 42t-14.5 55t-23 63.5t-29.5 68.5zM1152 0q-55 0 -99 22.5t-63 70.5l64 83q0 -58 98 -58l16 -10v-98zM898 484l-75 76l75 76l75 -76z" />
    <glyph glyph-name="uniFEBF" unicode="&#x636;" horiz-adv-x="760" arabic-form="initial" 
d="M164 163q17 -14 41 -23.5t55 -16.5q61 143 134.5 220.5t150.5 77.5q36 0 68.5 -16t57 -45t39 -69t14.5 -88q0 -101 -81 -156t-238 -55q-94 0 -165.5 18t-104.5 53zM543 302q-49 0 -99 -49t-97 -140q17 -2 35 -2h38q106 0 160.5 23.5t54.5 70.5q0 19 -7.5 37t-20 31
t-29 21t-35.5 8zM-16 10v98l16 10q24 0 41 4.5t30.5 19.5t25.5 43.5t26 75.5l83 -22q-12 -73 -27 -119.5t-38 -73t-57 -36.5t-84 -10zM525 484l-75 76l75 76l75 -76z" />
    <glyph glyph-name="uniFEC0" unicode="&#x636;" horiz-adv-x="779" arabic-form="medial" 
d="M164 163q17 -14 41 -23.5t55 -16.5q61 143 134.5 220.5t150.5 77.5q36 0 68.5 -16t57 -45t39 -69t14.5 -88q0 -101 -81 -156t-238 -55q-94 0 -165.5 18t-104.5 53zM543 302q-49 0 -99 -49t-97 -140q17 -2 35 -2h38q106 0 160.5 23.5t54.5 70.5q0 19 -7.5 37t-20 31
t-29 21t-35.5 8zM-16 10v98l16 10q24 0 41 4.5t30.5 19.5t25.5 43.5t26 75.5l83 -22q-12 -73 -27 -119.5t-38 -73t-57 -36.5t-84 -10zM779 0q-55 0 -99 22.5t-63 70.5l64 83q0 -58 98 -58l16 -10v-98zM525 484l-75 76l75 76l75 -76z" />
    <glyph glyph-name="uniFEC1" unicode="&#x637;" horiz-adv-x="671" arabic-form="isolated" 
d="M23 121q40 -3 77 -5t74 -3l-10 525l102 18l-8 -406q42 81 93.5 126t104.5 45q36 0 68.5 -16t57 -45t39 -68.5t14.5 -87.5q0 -102 -81 -157t-238 -55q-68 0 -139 1.5t-129 6.5zM454 302q-49 0 -99.5 -49.5t-96.5 -141.5h63q225 0 225 94q0 19 -7.5 37t-20 31t-29 21
t-35.5 8z" />
    <glyph glyph-name="uniFEC2" unicode="&#x637;" horiz-adv-x="690" arabic-form="final" 
d="M23 121q40 -3 77 -5t74 -3l-10 525l102 18l-8 -406q42 81 93.5 126t104.5 45q36 0 68.5 -16t57 -45t39 -68.5t14.5 -87.5q0 -102 -81 -157t-238 -55q-68 0 -139 1.5t-129 6.5zM454 302q-49 0 -99.5 -49.5t-96.5 -141.5h63q225 0 225 94q0 19 -7.5 37t-20 31t-29 21
t-35.5 8zM690 0q-55 0 -99 22.5t-63 70.5l64 83q0 -58 98 -58l16 -10v-98z" />
    <glyph glyph-name="uniFEC3" unicode="&#x637;" horiz-adv-x="561" arabic-form="initial" 
d="M0 0l-16 10v98l16 10h64l-10 520l102 18l-8 -406q42 81 93.5 126t104.5 45q36 0 68.5 -16t57 -45t39 -68.5t14.5 -87.5q0 -102 -79.5 -153t-246.5 -51h-199zM344 302q-48 0 -97.5 -47.5t-95.5 -136.5h48q128 0 182.5 20t54.5 67q0 19 -7.5 37t-20 31t-29 21t-35.5 8z" />
    <glyph glyph-name="uniFEC4" unicode="&#x637;" horiz-adv-x="580" arabic-form="medial" 
d="M0 0l-16 10v98l16 10h64l-10 520l102 18l-8 -406q42 81 93.5 126t104.5 45q36 0 68.5 -16t57 -45t39 -68.5t14.5 -87.5q0 -102 -79.5 -153t-246.5 -51h-199zM344 302q-48 0 -97.5 -47.5t-95.5 -136.5h48q128 0 182.5 20t54.5 67q0 19 -7.5 37t-20 31t-29 21t-35.5 8z
M580 0q-55 0 -99 22.5t-63 70.5l64 83q0 -58 98 -58l16 -10v-98z" />
    <glyph glyph-name="uniFEC5" unicode="&#x638;" horiz-adv-x="671" arabic-form="isolated" 
d="M23 121q40 -3 77 -5t74 -3l-10 525l102 18l-8 -406q42 81 93.5 126t104.5 45q36 0 68.5 -16t57 -45t39 -68.5t14.5 -87.5q0 -102 -81 -157t-238 -55q-68 0 -139 1.5t-129 6.5zM454 302q-49 0 -99.5 -49.5t-96.5 -141.5h63q225 0 225 94q0 19 -7.5 37t-20 31t-29 21
t-35.5 8zM436 484l-75 76l75 76l75 -76z" />
    <glyph glyph-name="uniFEC6" unicode="&#x638;" horiz-adv-x="690" arabic-form="final" 
d="M23 121q40 -3 77 -5t74 -3l-10 525l102 18l-8 -406q42 81 93.5 126t104.5 45q36 0 68.5 -16t57 -45t39 -68.5t14.5 -87.5q0 -102 -81 -157t-238 -55q-68 0 -139 1.5t-129 6.5zM454 302q-49 0 -99.5 -49.5t-96.5 -141.5h63q225 0 225 94q0 19 -7.5 37t-20 31t-29 21
t-35.5 8zM690 0q-55 0 -99 22.5t-63 70.5l64 83q0 -58 98 -58l16 -10v-98zM436 484l-75 76l75 76l75 -76z" />
    <glyph glyph-name="uniFEC7" unicode="&#x638;" horiz-adv-x="561" arabic-form="initial" 
d="M0 0l-16 10v98l16 10h64l-10 520l102 18l-8 -406q42 81 93.5 126t104.5 45q36 0 68.5 -16t57 -45t39 -68.5t14.5 -87.5q0 -102 -79.5 -153t-246.5 -51h-199zM344 302q-48 0 -97.5 -47.5t-95.5 -136.5h48q128 0 182.5 20t54.5 67q0 19 -7.5 37t-20 31t-29 21t-35.5 8z
M326 484l-75 76l75 76l75 -76z" />
    <glyph glyph-name="uniFEC8" unicode="&#x638;" horiz-adv-x="580" arabic-form="medial" 
d="M0 0l-16 10v98l16 10h64l-10 520l102 18l-8 -406q42 81 93.5 126t104.5 45q36 0 68.5 -16t57 -45t39 -68.5t14.5 -87.5q0 -102 -79.5 -153t-246.5 -51h-199zM344 302q-48 0 -97.5 -47.5t-95.5 -136.5h48q128 0 182.5 20t54.5 67q0 19 -7.5 37t-20 31t-29 21t-35.5 8z
M580 0q-55 0 -99 22.5t-63 70.5l64 83q0 -58 98 -58l16 -10v-98zM326 484l-75 76l75 76l75 -76z" />
    <glyph glyph-name="uniFEC9" unicode="&#x639;" horiz-adv-x="515" arabic-form="isolated" 
d="M529 -209q-43 -43 -109 -67t-141 -24q-59 0 -107 15t-82.5 43.5t-53 69t-18.5 91.5q0 73 42 132.5t122 101.5q-37 23 -57 57.5t-20 82.5q0 40 14.5 74.5t39 60t57.5 40.5t71 15q42 0 78.5 -18.5t60.5 -52.5l-45 -60q-19 8 -40 14t-45 6q-45 0 -76 -21.5t-31 -56.5
q0 -32 34 -57.5t103 -33.5q61 13 132 18l-15 -113q-165 -9 -245 -56.5t-80 -118.5q0 -52 49 -83t136 -31q52 0 106.5 10.5t90.5 29.5z" />
    <glyph glyph-name="uniFECA" unicode="&#x639;" horiz-adv-x="521" arabic-form="final" 
d="M525 -209q-43 -43 -109 -67t-142 -24q-56 0 -103 13.5t-81 39t-53 62t-19 82.5q0 36 13 67t36 57t54 49.5t67 44.5q-35 29 -68 67t-63 86l16 93q37 26 89.5 41t110.5 15q95 0 150 -31.5t55 -85.5q0 -42 -28 -84t-82 -87q32 -6 68 -8.5t85 -2.5l16 -10v-98l-16 -10
q-37 0 -69.5 3t-63 10.5t-60.5 20t-62 30.5q-67 -33 -107.5 -67t-40.5 -74q0 -52 47.5 -78t133.5 -26q52 0 106.5 10.5t90.5 29.5zM152 283q10 -17 24.5 -34.5t30.5 -33.5t33 -29.5t32 -22.5q17 10 37.5 25.5t38 32t29.5 31t12 22.5q0 15 -33.5 25t-82.5 10q-38 0 -71 -7
t-50 -19z" />
    <glyph glyph-name="uniFECB" unicode="&#x639;" horiz-adv-x="459" arabic-form="initial" 
d="M401 64q-39 -15 -86 -26.5t-99.5 -20t-107 -13t-108.5 -4.5l-16 10v98l16 10q49 0 99 3q-40 45 -40 110q0 40 14.5 74.5t39 60t57.5 40.5t71 15q42 0 78.5 -18.5t60.5 -52.5l-45 -60q-19 8 -40 14t-45 6q-45 0 -76 -21.5t-31 -56.5q0 -31 31.5 -56t96.5 -34
q36 6 71.5 13.5t72.5 15.5z" />
    <glyph glyph-name="uniFECC" unicode="&#x639;" horiz-adv-x="507" arabic-form="medial" 
d="M507 0q-36 0 -68 3t-62 10.5t-59 19t-60 28.5q-98 -61 -258 -61l-16 10v98l16 10q45 0 83.5 2.5t73.5 8.5q-62 56 -114 139l16 93q37 26 89.5 41t110.5 15q95 0 150 -31.5t55 -85.5q0 -42 -28 -84t-82 -87q33 -6 68.5 -8.5t84.5 -2.5l16 -10v-98zM138 283
q10 -17 24.5 -34.5t30.5 -33.5t33 -29.5t32 -22.5q17 10 37.5 25.5t38 32t29.5 31t12 22.5q0 15 -33.5 25t-82.5 10q-38 0 -71 -7t-50 -19z" />
    <glyph glyph-name="uniFECD" unicode="&#x63a;" horiz-adv-x="515" arabic-form="isolated" 
d="M529 -209q-43 -43 -109 -67t-141 -24q-59 0 -107 15t-82.5 43.5t-53 69t-18.5 91.5q0 73 42 132.5t122 101.5q-37 23 -57 57.5t-20 82.5q0 40 14.5 74.5t39 60t57.5 40.5t71 15q42 0 78.5 -18.5t60.5 -52.5l-45 -60q-19 8 -40 14t-45 6q-45 0 -76 -21.5t-31 -56.5
q0 -32 34 -57.5t103 -33.5q61 13 132 18l-15 -113q-165 -9 -245 -56.5t-80 -118.5q0 -52 49 -83t136 -31q52 0 106.5 10.5t90.5 29.5zM287 545l-75 76l75 76l75 -76z" />
    <glyph glyph-name="uniFECE" unicode="&#x63a;" horiz-adv-x="521" arabic-form="final" 
d="M525 -209q-43 -43 -109 -67t-142 -24q-56 0 -103 13.5t-81 39t-53 62t-19 82.5q0 36 13 67t36 57t54 49.5t67 44.5q-35 29 -68 67t-63 86l16 93q37 26 89.5 41t110.5 15q95 0 150 -31.5t55 -85.5q0 -42 -28 -84t-82 -87q32 -6 68 -8.5t85 -2.5l16 -10v-98l-16 -10
q-37 0 -69.5 3t-63 10.5t-60.5 20t-62 30.5q-67 -33 -107.5 -67t-40.5 -74q0 -52 47.5 -78t133.5 -26q52 0 106.5 10.5t90.5 29.5zM152 283q10 -17 24.5 -34.5t30.5 -33.5t33 -29.5t32 -22.5q17 10 37.5 25.5t38 32t29.5 31t12 22.5q0 15 -33.5 25t-82.5 10q-38 0 -71 -7
t-50 -19zM273 480l-75 76l75 76l75 -76z" />
    <glyph glyph-name="uniFECF" unicode="&#x63a;" horiz-adv-x="459" arabic-form="initial" 
d="M401 64q-39 -15 -86 -26.5t-99.5 -20t-107 -13t-108.5 -4.5l-16 10v98l16 10q49 0 99 3q-40 45 -40 110q0 40 14.5 74.5t39 60t57.5 40.5t71 15q42 0 78.5 -18.5t60.5 -52.5l-45 -60q-19 8 -40 14t-45 6q-45 0 -76 -21.5t-31 -56.5q0 -31 31.5 -56t96.5 -34
q36 6 71.5 13.5t72.5 15.5zM241 484l-75 76l75 76l75 -76z" />
    <glyph glyph-name="uniFED0" unicode="&#x63a;" horiz-adv-x="507" arabic-form="medial" 
d="M507 0q-36 0 -68 3t-62 10.5t-59 19t-60 28.5q-98 -61 -258 -61l-16 10v98l16 10q45 0 83.5 2.5t73.5 8.5q-62 56 -114 139l16 93q37 26 89.5 41t110.5 15q95 0 150 -31.5t55 -85.5q0 -42 -28 -84t-82 -87q33 -6 68.5 -8.5t84.5 -2.5l16 -10v-98zM138 283
q10 -17 24.5 -34.5t30.5 -33.5t33 -29.5t32 -22.5q17 10 37.5 25.5t38 32t29.5 31t12 22.5q0 15 -33.5 25t-82.5 10q-38 0 -71 -7t-50 -19zM259 480l-75 76l75 76l75 -76z" />
    <glyph glyph-name="uniFED1" unicode="&#x641;" horiz-adv-x="786" arabic-form="isolated" 
d="M651 215q-41 -30 -98 -30q-68 0 -108 40.5t-40 113.5q0 41 12.5 77t34.5 63t51.5 42.5t63.5 15.5q43 0 74.5 -23t52.5 -66t31.5 -105.5t10.5 -141.5q0 -72 -20.5 -112t-67.5 -60q-40 -17 -104 -27t-153 -10q-182 0 -265.5 47t-83.5 149q0 45 16.5 97.5t45.5 99.5l67 -32
q-15 -33 -23.5 -65.5t-8.5 -56.5q0 -64 58.5 -91.5t193.5 -27.5q55 0 103 2.5t82.5 7.5t54.5 12.5t20 18.5v62zM565 279q50 0 82 21q-7 66 -26 98.5t-57 32.5q-34 0 -57 -24.5t-23 -62.5q0 -31 21 -48t60 -17zM567 599l-75 76l75 76l75 -76z" />
    <glyph glyph-name="uniFED2" unicode="&#x641;" horiz-adv-x="826" arabic-form="final" 
d="M826 0q-65 0 -119.5 10.5t-96.5 27.5q-41 -17 -97 -31.5t-122 -14.5q-182 0 -265.5 47t-83.5 149q0 45 16.5 97.5t45.5 99.5l67 -32q-15 -33 -23.5 -65.5t-8.5 -56.5q0 -64 58.5 -91.5t193.5 -27.5q53 0 95 3q-42 48 -42 118q0 40 13.5 74.5t36.5 59.5t53 39.5t63 14.5
t63 -14.5t53 -39.5t36.5 -60t13.5 -75q0 -65 -38 -112q20 -1 41.5 -1.5t46.5 -0.5l16 -10v-98zM526 228q0 -31 20.5 -53t67.5 -36q44 17 62 39.5t18 49.5q0 35 -24.5 58t-59.5 23t-59.5 -23t-24.5 -58zM610 486l-75 76l75 76l75 -76z" />
    <glyph glyph-name="uniFED3" unicode="&#x641;" horiz-adv-x="420" arabic-form="initial" 
d="M285 215q-41 -30 -98 -30q-67 0 -107.5 40.5t-40.5 113.5q0 41 13 77t35 63t51.5 42.5t62.5 15.5q43 0 74.5 -23t52.5 -66t31.5 -105.5t10.5 -141.5q0 -72 -20.5 -112t-67.5 -60q-20 -9 -44 -14.5t-54 -8.5t-68 -4.5t-86 -1.5h-30l-16 10v98l16 10h30q54 0 100.5 1.5
t81 5t54 10.5t19.5 18v62zM199 279q50 0 82 21q-7 66 -26 98.5t-57 32.5q-34 0 -57 -24.5t-23 -62.5q0 -31 21 -48t60 -17zM201 599l-75 76l75 76l75 -76z" />
    <glyph glyph-name="uniFED4" unicode="&#x641;" horiz-adv-x="432" arabic-form="medial" 
d="M432 0q-66 0 -120 10.5t-96 27.5q-42 -17 -96.5 -27.5t-119.5 -10.5l-16 10v98l16 10q24 0 46 0.5t42 1.5q-20 24 -29 52t-9 60q0 40 13.5 75t36.5 60t53 39.5t63 14.5t63 -14.5t53 -39.5t36.5 -60t13.5 -75q0 -65 -38 -112q20 -1 41.5 -1.5t46.5 -0.5l16 -10v-98z
M132 228q0 -30 19.5 -52t64.5 -36q44 14 64 36t20 52q0 35 -24.5 58t-59.5 23t-59.5 -23t-24.5 -58zM216 486l-75 76l75 76l75 -76z" />
    <glyph glyph-name="uniFED5" unicode="&#x642;" horiz-adv-x="650" arabic-form="isolated" 
d="M526 56q-20 -14 -45.5 -22.5t-54.5 -8.5q-34 0 -62 12.5t-48.5 35t-31.5 53.5t-11 69q0 42 13 78.5t34.5 63.5t51 42.5t62.5 15.5q88 0 132.5 -92t44.5 -287q0 -57 -22 -97.5t-60.5 -67t-90.5 -39t-112 -12.5q-67 0 -119.5 16.5t-89 47.5t-56 74t-19.5 97
q0 57 21.5 115.5t59.5 106.5l63 -39q-47 -79 -47 -151t50.5 -110t143.5 -38q42 0 77.5 5.5t61 15.5t40 23t14.5 27v66zM436 132q23 0 45.5 5.5t37.5 15.5q-8 61 -28 97.5t-61 36.5q-35 0 -56.5 -24.5t-21.5 -62.5q0 -32 22 -50t62 -18zM498 458l-64 65l-64 -65l-75 76l75 76
l64 -65l64 65l75 -76z" />
    <glyph glyph-name="uniFED6" unicode="&#x642;" horiz-adv-x="656" arabic-form="final" 
d="M656 0h-46q-3 -52 -26 -90t-61.5 -62.5t-89 -36t-107.5 -11.5q-67 0 -119.5 16.5t-89 47.5t-56 74t-19.5 97q0 57 21.5 115.5t59.5 106.5l63 -39q-47 -79 -47 -151t50.5 -110t143.5 -38q42 0 77.5 5t61 14t40 21t14.5 26v15h-50q-46 0 -83.5 13.5t-64 39t-41 61.5
t-14.5 81q0 42 13 78.5t34.5 63.5t51 42.5t62.5 15.5q75 0 118.5 -67t54.5 -210h49l16 -10v-98zM352 200q0 -39 33.5 -60.5t105.5 -21.5h32q-5 75 -26 122t-67 47q-35 0 -56.5 -24.5t-21.5 -62.5zM498 458l-64 65l-64 -65l-75 76l75 76l64 -65l64 65l75 -76z" />
    <glyph glyph-name="uniFED7" unicode="&#x642;" horiz-adv-x="420" arabic-form="initial" 
d="M285 215q-41 -30 -98 -30q-67 0 -107.5 40.5t-40.5 113.5q0 41 13 77t35 63t51.5 42.5t62.5 15.5q43 0 74.5 -23t52.5 -66t31.5 -105.5t10.5 -141.5q0 -72 -20.5 -112t-67.5 -60q-20 -9 -44 -14.5t-54 -8.5t-68 -4.5t-86 -1.5h-30l-16 10v98l16 10h30q54 0 100.5 1.5
t81 5t54 10.5t19.5 18v62zM199 279q50 0 82 21q-7 66 -26 98.5t-57 32.5q-34 0 -57 -24.5t-23 -62.5q0 -31 21 -48t60 -17zM265 599l-64 65l-64 -65l-75 76l75 76l64 -65l64 65l75 -76z" />
    <glyph glyph-name="uniFED8" unicode="&#x642;" horiz-adv-x="432" arabic-form="medial" 
d="M432 0q-66 0 -120 10.5t-96 27.5q-42 -17 -96.5 -27.5t-119.5 -10.5l-16 10v98l16 10q24 0 46 0.5t42 1.5q-20 24 -29 52t-9 60q0 40 13.5 75t36.5 60t53 39.5t63 14.5t63 -14.5t53 -39.5t36.5 -60t13.5 -75q0 -65 -38 -112q20 -1 41.5 -1.5t46.5 -0.5l16 -10v-98z
M132 228q0 -30 19.5 -52t64.5 -36q44 14 64 36t20 52q0 35 -24.5 58t-59.5 23t-59.5 -23t-24.5 -58zM280 486l-64 65l-64 -65l-75 76l75 76l64 -65l64 65l75 -76z" />
    <glyph glyph-name="uniFED9" unicode="&#x643;" horiz-adv-x="701" arabic-form="isolated" 
d="M544 638l102 18l-5 -491q-1 -85 -77.5 -129t-222.5 -44q-151 0 -225 48t-74 148q0 45 16.5 97.5t45.5 99.5l67 -32q-15 -33 -23.5 -65.5t-8.5 -56.5q0 -61 49 -90t153 -29q44 0 83 4.5t67.5 12t44.5 18.5t16 23zM276 344q41 5 69 12t28 13q0 2 -4 4l-18 9l-13 6
q-18 8 -26 19.5t-8 29.5q0 32 37 55t93 26l-5 -56q-26 -2 -43.5 -8.5t-17.5 -14.5q0 -4 3.5 -6t20.5 -10l13 -6q38 -18 38 -43q0 -16 -11.5 -30.5t-32 -25.5t-48.5 -19t-61 -10z" />
    <glyph glyph-name="uniFEDA" unicode="&#x643;" horiz-adv-x="752" arabic-form="final" 
d="M752 0q-58 0 -94.5 15.5t-59.5 47.5q-35 -35 -100 -53t-157 -18q-299 0 -299 196q0 45 16.5 97.5t45.5 99.5l67 -32q-15 -33 -23.5 -65.5t-8.5 -56.5q0 -61 49 -90t153 -29q44 0 83 4.5t67.5 12t44.5 18.5t16 23l-8 468l102 18l-5 -495q16 -24 41 -33.5t70 -9.5l16 -10
v-98zM276 344q41 5 69 12t28 13q0 2 -4 4l-18 9l-13 6q-18 8 -26 19.5t-8 29.5q0 32 37 55t93 26l-5 -56q-26 -2 -43.5 -8.5t-17.5 -14.5q0 -4 3.5 -6t20.5 -10l13 -6q38 -18 38 -43q0 -16 -11.5 -30.5t-32 -25.5t-48.5 -19t-61 -10z" />
    <glyph glyph-name="uniFEDB" unicode="&#x643;" horiz-adv-x="434" arabic-form="initial" 
d="M-16 10v98l16 10q43 0 85 5.5t75 13t53 16t20 15.5q0 18 -15.5 44.5t-42.5 57t-63 61.5t-76 58l16 100q81 46 170 89t175 78l20 -103q-41 -15 -76.5 -29t-68 -28t-63.5 -28t-64 -30q88 -72 132.5 -142.5t44.5 -136.5q0 -78 -82.5 -118.5t-239.5 -40.5z" />
    <glyph glyph-name="uniFEDC" unicode="&#x643;" horiz-adv-x="412" arabic-form="medial" 
d="M412 0q-63 0 -107.5 13t-79.5 48q-33 -31 -87.5 -46t-137.5 -15l-16 10v98l16 10q63 0 102 7t63 20l-133 244l16 100q85 48 172 90t173 77l20 -103q-44 -17 -81 -31.5t-71 -29t-67 -30t-69 -32.5l128 -234q13 -24 26.5 -39t32 -23.5t42.5 -12t58 -3.5l16 -10v-98z" />
    <glyph glyph-name="uniFEDD" unicode="&#x644;" horiz-adv-x="622" arabic-form="isolated" 
d="M460 638l102 18l-6 -627q0 -51 -18 -93.5t-51 -72.5t-80.5 -46.5t-106.5 -16.5q-61 0 -109 16.5t-81 47.5t-50.5 74t-17.5 97q0 57 21.5 115.5t59.5 106.5l63 -39q-47 -79 -47 -151q0 -68 40 -108t121 -40q34 0 65 7.5t53.5 21t35.5 32t13 40.5z" />
    <glyph glyph-name="uniFEDE" unicode="&#x644;" horiz-adv-x="668" arabic-form="final" 
d="M668 0q-73 0 -112 26q-1 -51 -19 -92.5t-51 -71t-80 -46t-106 -16.5q-61 0 -109 16.5t-81 47.5t-50.5 74t-17.5 97q0 57 21.5 115.5t59.5 106.5l63 -39q-47 -79 -47 -151q0 -68 40 -108t121 -40q34 0 65 7.5t53.5 21t35.5 32t13 40.5l-7 618l102 18l-5 -495
q16 -24 41 -33.5t70 -9.5l16 -10v-98z" />
    <glyph glyph-name="uniFEDF" unicode="&#x644;" horiz-adv-x="259" arabic-form="initial" 
d="M-16 10v98l16 10q48 0 77.5 11.5t29.5 33.5l-5 475l102 18l-5 -483q0 -48 -16.5 -81t-44 -53.5t-63.5 -29.5t-75 -9z" />
    <glyph glyph-name="uniFEE0" unicode="&#x644;" horiz-adv-x="310" arabic-form="medial" 
d="M310 0q-56 0 -92 14.5t-59 43.5q-24 -29 -65 -43.5t-94 -14.5l-16 10v98l16 10q48 0 77.5 11.5t29.5 33.5l-5 475l102 18l-5 -495q16 -24 41 -33.5t70 -9.5l16 -10v-98z" />
    <glyph glyph-name="uniFEE1" unicode="&#x645;" horiz-adv-x="543" arabic-form="isolated" 
d="M43 -380l-7 415q-1 39 23 61t68 22h43q-32 38 -32 93q0 37 14.5 70.5t39.5 59t58 40t70 14.5q39 0 72 -15t57.5 -42t38 -63.5t13.5 -79.5q0 -42 -13.5 -78t-37.5 -62t-58 -40.5t-74 -14.5h-166q-19 0 -19 -16l-1 -364h-89zM224 199q0 -20 11.5 -37.5t32.5 -30t50 -19.5
t63 -7q34 31 34 77q0 43 -27.5 70.5t-71.5 27.5q-40 0 -66 -23t-26 -58z" />
    <glyph glyph-name="uniFEE2" unicode="&#x645;" horiz-adv-x="564" arabic-form="final" 
d="M564 0q-76 0 -122 37q-45 -45 -120 -45q-49 0 -92 20t-76 58l-19 -38q-2 -4 -2.5 -7.5t-0.5 -10.5l-1 -394h-89l-7 398q0 20 3.5 33.5t14.5 31.5l114 199q65 113 152 113q34 0 65 -18t54 -48.5t36.5 -71.5t13.5 -87q0 -9 -0.5 -17.5t-1.5 -16.5q24 -18 78 -18l16 -10v-98
zM202 165q20 -27 54 -44t71 -17q35 0 55 20t20 53q0 21 -7 39.5t-19.5 33t-28.5 22.5t-34 8q-53 0 -91 -75z" />
    <glyph glyph-name="uniFEE3" unicode="&#x645;" horiz-adv-x="522" arabic-form="initial" 
d="M314 -8q-51 0 -94 21t-76 61q-29 -39 -63 -56.5t-81 -17.5l-16 10v98l16 10q19 0 34 3.5t27 11.5t22.5 21.5t22.5 34.5l53 93q63 113 152 113q34 0 65 -18t54 -48.5t36.5 -71.5t13.5 -87q0 -84 -44 -131t-122 -47zM194 165q20 -27 54 -44t71 -17q35 0 55 20t20 53
q0 21 -7 39.5t-19.5 33t-28.5 22.5t-34 8q-53 0 -91 -75z" />
    <glyph glyph-name="uniFEE4" unicode="&#x645;" horiz-adv-x="556" arabic-form="medial" 
d="M314 -8q-51 0 -94 21t-76 61q-29 -39 -63 -56.5t-81 -17.5l-16 10v98l16 10q19 0 34 3.5t27 11.5t22.5 21.5t22.5 34.5l53 93q63 113 152 113q34 0 65 -18t54 -48.5t36.5 -71.5t13.5 -87q0 -84 -44 -131t-122 -47zM194 165q20 -27 54 -44t71 -17q35 0 55 20t20 53
q0 21 -7 39.5t-19.5 33t-28.5 22.5t-34 8q-53 0 -91 -75zM556 0q-55 0 -99 22.5t-63 70.5l64 83q0 -58 98 -58l16 -10v-98z" />
    <glyph glyph-name="uniFEE5" unicode="&#x646;" horiz-adv-x="618" arabic-form="isolated" 
d="M511 300q14 -29 26.5 -64t21.5 -70t14.5 -68.5t5.5 -59.5q0 -52 -20 -96t-55.5 -75.5t-85 -49t-108.5 -17.5q-61 0 -110.5 16.5t-84.5 47.5t-54 74t-19 97q0 57 21.5 115.5t59.5 106.5l63 -39q-47 -79 -47 -151q0 -69 46 -108.5t125 -39.5q37 0 69.5 8t57 22t39 32
t14.5 39q0 17 -5 42t-14.5 55t-23 63.5t-29.5 68.5zM309 320l-75 76l75 76l75 -76z" />
    <glyph glyph-name="uniFEE6" unicode="&#x646;" horiz-adv-x="653" arabic-form="final" 
d="M511 300q14 -29 26.5 -64t21.5 -70t14.5 -68.5t5.5 -59.5q0 -52 -20 -96t-55.5 -75.5t-85 -49t-108.5 -17.5q-61 0 -110.5 16.5t-84.5 47.5t-54 74t-19 97q0 57 21.5 115.5t59.5 106.5l63 -39q-47 -79 -47 -151q0 -69 46 -108.5t125 -39.5q37 0 69.5 8t57 22t39 32
t14.5 39q0 17 -5 42t-14.5 55t-23 63.5t-29.5 68.5zM653 0q-55 0 -99 22.5t-63 70.5l64 83q0 -58 98 -58l16 -10v-98zM310 326l-75 76l75 76l75 -76z" />
    <glyph glyph-name="uniFEE7" unicode="&#x646;" horiz-adv-x="287" arabic-form="initial" 
d="M-16 10v98l16 10q69 0 110.5 15.5t41.5 37.5q0 18 -5 41.5t-13.5 50t-20.5 54t-26 52.5l93 52q13 -24 24 -54t19.5 -61t13 -61.5t4.5 -55.5q0 -98 -57.5 -143.5t-183.5 -45.5zM133 484l-75 76l75 76l75 -76z" />
    <glyph glyph-name="uniFEE8" unicode="&#x646;" horiz-adv-x="331" arabic-form="medial" 
d="M331 0q-60 0 -97.5 17t-59.5 51q-24 -35 -71.5 -51.5t-102.5 -16.5l-16 10v98l16 10q65 0 92 16.5t32 42.5q2 12 5 27.5t5.5 32.5t5 33.5t4.5 29.5l86 -11q-7 -55 -9.5 -82t-2.5 -32q0 -57 113 -57l16 -10v-98zM189 363l-75 76l75 76l75 -76z" />
    <glyph glyph-name="uniFEE9" unicode="&#x647;" horiz-adv-x="451" arabic-form="isolated" 
d="M409 164q0 -81 -49 -126.5t-135 -45.5q-88 0 -135.5 45t-47.5 130q0 52 14.5 98.5t39.5 81t58 54.5t71 20q39 0 72.5 -20t58 -54.5t39 -81.5t14.5 -101zM323 161q0 63 -28 102t-70 39q-19 0 -36.5 -9t-31 -24.5t-21.5 -36t-8 -44.5q0 -40 26 -60t71 -20q39 0 68.5 15.5
t29.5 37.5z" />
    <glyph glyph-name="uniFEEA" unicode="&#x647;" horiz-adv-x="473" arabic-form="final" 
d="M473 0q-74 0 -119 28t-56 82q-41 -24 -98 -24q-37 0 -67.5 10.5t-53 29.5t-35 46.5t-12.5 62.5q0 80 66.5 137t191.5 85l-1 64l102 18l-4 -346q-1 -40 19.5 -57.5t66.5 -17.5l16 -10v-98zM218 198q43 0 76 12l-3 142q-34 -3 -65.5 -11.5t-55.5 -21.5t-38 -29.5t-14 -34.5
q0 -16 8 -27t21.5 -17.5t32 -9.5t38.5 -3z" />
    <glyph glyph-name="uniFEEB" unicode="&#x647;" horiz-adv-x="574" arabic-form="initial" 
d="M346 223q0 -32 -8 -57.5t-26 -47.5q8 -1 16.5 -1h17.5q31 0 51.5 5t32 11.5t16 14.5t4.5 14q0 30 -12.5 68.5t-41.5 78.5t-75.5 76.5t-115.5 60.5l44 98q71 -28 125 -69t90 -90t54 -103t18 -107q0 -47 -15.5 -80t-41.5 -54t-59 -31t-69 -10q-41 0 -81 10.5t-76 27.5
q-45 -17 -97 -27.5t-97 -10.5l-16 10v98l16 10h43t38 2q-17 22 -24 47t-7 56q0 34 11 64.5t30.5 54t47 37.5t59.5 14t59.5 -14t47 -37.5t30.5 -54t11 -64.5zM128 223q0 -26 19 -46.5t52 -34.5q39 14 54 35t15 46q0 26 -18.5 48t-51.5 22t-51.5 -22t-18.5 -48z" />
    <glyph glyph-name="uniFEEC" unicode="&#x647;" horiz-adv-x="444" arabic-form="medial" 
d="M444 0h-45q17 -29 17 -68q0 -32 -12.5 -58t-34 -45.5t-52 -30t-66.5 -10.5q-42 0 -76.5 15.5t-60 43.5t-41.5 67.5t-22 86.5q-13 -1 -25.5 -1h-25.5l-16 10v98l16 10h52q8 60 29 115t49 96.5t61 66.5t65 25q25 0 49 -16t43.5 -43t31.5 -63t12 -75q0 -62 -31 -106h83
l16 -10v-98zM247 305q-18 0 -36 -14.5t-33.5 -39.5t-27.5 -58.5t-17 -70.5q96 8 137 32t41 67q0 35 -19.5 59.5t-44.5 24.5zM335 -43q0 63 -81 81q-51 -19 -119 -30q11 -51 40.5 -79t78.5 -28q45 0 63 18t18 38z" />
    <glyph glyph-name="uniFEED" unicode="&#x648;" horiz-adv-x="426" arabic-form="isolated" 
d="M44 -94q106 11 167.5 44t80.5 93q-21 -16 -47 -23t-53 -7q-32 0 -58.5 12.5t-46.5 35.5t-31 55.5t-11 73.5q0 43 12 80t34 65t53 44t68 16q40 0 72 -19.5t54.5 -55.5t34 -88t11.5 -116q0 -66 -21 -121t-59.5 -96t-93.5 -66.5t-122 -32.5zM212 116q26 0 49.5 6t38.5 16
q-5 68 -28.5 106t-64.5 38q-36 0 -57.5 -24.5t-21.5 -63.5q0 -37 22.5 -57.5t61.5 -20.5z" />
    <glyph glyph-name="uniFEEE" unicode="&#x648;" horiz-adv-x="431" arabic-form="final" 
d="M431 0h-67q-30 -84 -101.5 -136.5t-174.5 -63.5l-44 106q93 9 151.5 35t84.5 73h-29q-100 0 -153 46.5t-53 129.5q0 43 12 80t34 65t53 44t68 16q40 0 72 -19t54 -55t34 -87.5t12 -115.5h47l16 -10v-98zM128 194q0 -76 138 -76h35q-2 77 -26 120.5t-68 43.5
q-36 0 -57.5 -24.5t-21.5 -63.5z" />
    <glyph glyph-name="uniFEEF" unicode="&#x649;" horiz-adv-x="676" arabic-form="isolated" 
d="M418 82q-113 35 -113 145q0 39 14.5 74t38.5 62t56.5 42.5t68.5 15.5q48 0 86 -28.5t59 -80.5l-59 -44q-35 47 -90 47q-35 0 -60 -20.5t-25 -49.5q0 -11 3 -18.5t11.5 -14t24 -12.5t40.5 -14l64 -20q97 -31 97 -113q0 -47 -29 -92.5t-77 -81t-109 -57.5t-124 -22
q-56 0 -102 16.5t-80 47.5t-52.5 74t-18.5 97q0 57 21.5 115.5t59.5 106.5l63 -39q-47 -79 -47 -151q0 -69 46 -108.5t125 -39.5q42 0 83 9.5t73.5 25t53 34.5t20.5 39q0 11 -10.5 17.5t-47.5 17.5z" />
    <glyph glyph-name="uniFEF0" unicode="&#x649;" horiz-adv-x="653" arabic-form="final" 
d="M653 0q-17 0 -33.5 2.5t-33.5 8.5q3 -15 3 -28q0 -29 -24.5 -61t-65.5 -59t-94 -45t-110 -18q-56 0 -102 16.5t-80 47.5t-52.5 74t-18.5 97q0 57 21.5 115.5t59.5 106.5l63 -39q-47 -79 -47 -151q0 -69 46 -108.5t125 -39.5q42 0 78.5 8.5t63.5 21t42.5 28t15.5 29.5
q0 17 -26.5 51t-69.5 83l76 66q22 -27 41.5 -44.5t39 -27t39.5 -13t43 -3.5l16 -10v-98z" />
    <glyph glyph-name="uniFEF1" unicode="&#x64a;" horiz-adv-x="676" arabic-form="isolated" 
d="M418 82q-113 35 -113 145q0 39 14.5 74t38.5 62t56.5 42.5t68.5 15.5q48 0 86 -28.5t59 -80.5l-59 -44q-35 47 -90 47q-35 0 -60 -20.5t-25 -49.5q0 -11 3 -18.5t11.5 -14t24 -12.5t40.5 -14l64 -20q97 -31 97 -113q0 -47 -29 -92.5t-77 -81t-109 -57.5t-124 -22
q-56 0 -102 16.5t-80 47.5t-52.5 74t-18.5 97q0 57 21.5 115.5t59.5 106.5l63 -39q-47 -79 -47 -151q0 -69 46 -108.5t125 -39.5q42 0 83 9.5t73.5 25t53 34.5t20.5 39q0 11 -10.5 17.5t-47.5 17.5zM359 -428l-64 65l-64 -65l-75 76l75 76l64 -65l64 65l75 -76z" />
    <glyph glyph-name="uniFEF2" unicode="&#x64a;" horiz-adv-x="653" arabic-form="final" 
d="M653 0q-17 0 -33.5 2.5t-33.5 8.5q3 -15 3 -28q0 -29 -24.5 -61t-65.5 -59t-94 -45t-110 -18q-56 0 -102 16.5t-80 47.5t-52.5 74t-18.5 97q0 57 21.5 115.5t59.5 106.5l63 -39q-47 -79 -47 -151q0 -69 46 -108.5t125 -39.5q42 0 78.5 8.5t63.5 21t42.5 28t15.5 29.5
q0 17 -26.5 51t-69.5 83l76 66q22 -27 41.5 -44.5t39 -27t39.5 -13t43 -3.5l16 -10v-98zM359 -428l-64 65l-64 -65l-75 76l75 76l64 -65l64 65l75 -76z" />
    <glyph glyph-name="uniFEF3" unicode="&#x64a;" horiz-adv-x="287" arabic-form="initial" 
d="M-16 10v98l16 10q69 0 110.5 15.5t41.5 37.5q0 18 -5 41.5t-13.5 50t-20.5 54t-26 52.5l93 52q13 -24 24 -54t19.5 -61t13 -61.5t4.5 -55.5q0 -98 -57.5 -143.5t-183.5 -45.5zM184 -229l-64 65l-64 -65l-75 76l75 76l64 -65l64 65l75 -76z" />
    <glyph glyph-name="uniFEF4" unicode="&#x64a;" horiz-adv-x="331" arabic-form="medial" 
d="M331 0q-60 0 -97.5 17t-59.5 51q-24 -35 -71.5 -51.5t-102.5 -16.5l-16 10v98l16 10q65 0 92 16.5t32 42.5q2 12 5 27.5t5.5 32.5t5 33.5t4.5 29.5l86 -11q-7 -55 -9.5 -82t-2.5 -32q0 -57 113 -57l16 -10v-98zM236 -229l-64 65l-64 -65l-75 76l75 76l64 -65l64 65
l75 -76z" />
    <glyph glyph-name=".notdef" horiz-adv-x="364" 
d="M33 0v666h265v-666h-265zM66 33h199v600h-199v-600z" />
    <glyph glyph-name=".null" horiz-adv-x="0" 
 />
    <glyph glyph-name="nonmarkingreturn" unicode="&#x9;" horiz-adv-x="181" 
 />
    <glyph glyph-name="nonmarkingreturn" unicode="&#xd;" horiz-adv-x="181" 
 />
    <glyph glyph-name="uni0008" horiz-adv-x="0" 
 />
    <glyph glyph-name="uni0008" horiz-adv-x="0" 
 />
    <glyph glyph-name="uni0008" horiz-adv-x="0" 
 />
    <glyph glyph-name="space" unicode=" " horiz-adv-x="181" 
 />
    <glyph glyph-name="exclam" unicode="!" horiz-adv-x="283" 
d="M76 667h131l-2 -458h-127zM70 138h143v-138h-143v138z" />
    <glyph glyph-name="quotedbl" unicode="&#x22;" horiz-adv-x="388" 
d="M53 667h112v-232h-112v232zM223 667h112v-232h-112v232z" />
    <glyph glyph-name="numbersign" unicode="#" horiz-adv-x="725" 
d="M151 151h-93v93h118l38 142h-95v93h120l40 150h106l-40 -150h123l40 150h106l-40 -150h93v-93h-118l-38 -142h95v-93h-120l-40 -151h-106l40 151h-123l-40 -151h-106zM405 244l38 142h-123l-38 -142h123z" />
    <glyph glyph-name="dollar" unicode="$" 
d="M97 181q11 -12 25 -26t32 -27t39 -23t47 -14v184q-55 13 -92 32.5t-59.5 43.5t-32 52t-9.5 59q0 33 11.5 63t35.5 53.5t60.5 39t85.5 19.5v92h75v-92q42 -5 72 -17t50.5 -25.5t32.5 -26.5t18 -19l-83 -75q-8 9 -30 28.5t-60 29.5v-164q37 -9 72 -23.5t61 -38t42 -57
t16 -78.5q0 -37 -14 -68.5t-39.5 -55t-60.5 -39t-77 -21.5v-93h-75v91q-43 4 -78.5 16.5t-64 29.5t-49.5 36t-35 37zM315 93q40 7 58 27t18 54q0 26 -15 45t-61 35v-161zM240 536q-44 -6 -62 -26.5t-18 -47.5q0 -29 17 -46t63 -31v151z" />
    <glyph glyph-name="percent" unicode="%" horiz-adv-x="925" 
d="M609 630h107l-406 -630h-107zM715 -9q-69 0 -114 45.5t-45 135.5t45 135.5t114 45.5t114 -45.5t45 -135.5t-45 -135.5t-114 -45.5zM715 70q11 0 22 5t19.5 17t14 31.5t5.5 48.5t-5.5 48.5t-14 31.5t-19.5 17t-22 5t-22 -5t-19.5 -17t-14 -31.5t-5.5 -48.5t5.5 -48.5
t14 -31.5t19.5 -17t22 -5zM210 285q-69 0 -114 45.5t-45 135.5t45 135.5t114 45.5t114 -45.5t45 -135.5t-45 -135.5t-114 -45.5zM210 364q11 0 22 5t19.5 17t14 31.5t5.5 48.5t-5.5 48.5t-14 31.5t-19.5 17t-22 5t-22 -5t-19.5 -17t-14 -31.5t-5.5 -48.5t5.5 -48.5t14 -31.5
t19.5 -17t22 -5z" />
    <glyph glyph-name="ampersand" unicode="&#x26;" horiz-adv-x="643" 
d="M429 61q-32 -33 -76 -55t-109 -22q-54 0 -95 15.5t-68 41.5t-40.5 61t-13.5 73q0 56 29 107.5t102 103.5l-2 3q-26 31 -37.5 63.5t-11.5 66.5q0 33 12.5 63t37 53t60 36.5t81.5 13.5q43 0 73 -11.5t51 -28.5t34 -36.5t21 -35.5l-88 -56q-25 41 -45 53t-39 12
q-35 0 -54 -18t-19 -45q0 -23 12 -44.5t30 -41.5l160 -194l86 105l88 -71l-101 -123l125 -150h-152zM226 304q-45 -34 -60.5 -61.5t-15.5 -60.5q0 -38 24.5 -62.5t75.5 -24.5q36 0 61 15t46 38z" />
    <glyph glyph-name="quotesingle" unicode="'" horiz-adv-x="218" 
d="M53 667h112v-232h-112v232z" />
    <glyph glyph-name="parenleft" unicode="(" horiz-adv-x="297" 
d="M153 -93q-12 23 -28.5 60.5t-31 88t-25 113.5t-10.5 137t10.5 137t25 114t31 88.5t28.5 60.5h116q-17 -29 -32.5 -72t-27.5 -95.5t-19 -112t-7 -120.5t7 -120t19 -111.5t27.5 -96t32.5 -71.5h-116z" />
    <glyph glyph-name="parenright" unicode=")" horiz-adv-x="297" 
d="M28 -93q16 28 31.5 71.5t27.5 96t19.5 111.5t7.5 120t-7.5 120.5t-19.5 112t-27.5 95.5t-31.5 72h116q12 -23 28.5 -60.5t31 -88.5t25 -114t10.5 -137t-10.5 -137t-25 -113.5t-31 -88t-28.5 -60.5h-116z" />
    <glyph glyph-name="asterisk" unicode="*" horiz-adv-x="501" 
d="M58 460l111 58l-111 58l46 80l106 -67l-5 125h92l-4 -125l104 67l46 -80l-109 -58l109 -58l-46 -80l-104 67l4 -125h-92l5 125l-106 -67z" />
    <glyph glyph-name="plus" unicode="+" 
d="M74 371h149v147h100v-147h149v-99h-149v-146h-100v146h-149v99z" />
    <glyph glyph-name="comma" unicode="," horiz-adv-x="273" 
d="M116 0h-51v139h143v-137l-85 -145h-70z" />
    <glyph glyph-name="hyphen" unicode="-" horiz-adv-x="441" 
d="M68 335h305v-112h-305v112z" />
    <glyph glyph-name="period" unicode="." horiz-adv-x="273" 
d="M65 138h143v-138h-143v138z" />
    <glyph glyph-name="slash" unicode="/" horiz-adv-x="426" 
d="M289 685h114l-263 -701h-117z" />
    <glyph glyph-name="zero" unicode="0" 
d="M272 -16q-61 0 -107 25t-77 69.5t-46.5 107t-15.5 137.5q0 73 15.5 133t46.5 102.5t77.5 66t107.5 23.5t107 -23.5t77 -66t46.5 -102.5t15.5 -133q0 -75 -15.5 -137.5t-46.5 -107t-77.5 -69.5t-107.5 -25zM273 92q31 0 54.5 18t39 49t23.5 73t8 91q0 47 -8 87t-24 68.5
t-39.5 44.5t-54.5 16t-54.5 -16t-39 -44.5t-23.5 -68.5t-8 -87q0 -49 8 -91t24 -73t39.5 -49t54.5 -18z" />
    <glyph glyph-name="one" unicode="1" 
d="M131 103h108v398l-121 -64l-49 92l185 101h103v-527h104v-103h-330v103z" />
    <glyph glyph-name="two" unicode="2" 
d="M63 79q0 43 14.5 78t37.5 64.5t51 54.5t56 49t49.5 41t36.5 32.5t22.5 31.5t7.5 37q0 13 -4.5 27t-15 24.5t-27.5 17.5t-43 7q-23 0 -41.5 -7t-33 -18t-25 -24t-17.5 -25l-88 63q12 20 30 40.5t44 37.5t61 27.5t80 10.5q54 0 93 -14.5t64 -38.5t37 -54.5t12 -62.5
q0 -34 -11 -63t-29 -54t-41 -47t-47 -42q-29 -24 -54.5 -44t-44.5 -39t-30 -38.5t-11 -43.5h272v-107h-405v79z" />
    <glyph glyph-name="three" unicode="3" 
d="M89 138q27 -24 59.5 -38.5t74.5 -14.5q54 0 86 29.5t32 77.5q0 21 -5.5 39.5t-18.5 32t-34 21.5t-51 8q-14 0 -29 -3t-27 -6l-35 56l161 181h-236v108h377v-90l-140 -164q84 -10 123.5 -60t39.5 -124q0 -49 -18.5 -88t-51.5 -66t-77 -41t-95 -14q-68 0 -118 20.5
t-85 52.5z" />
    <glyph glyph-name="four" unicode="4" 
d="M40 220l275 410h118v-409h65v-100h-65v-121h-113v121h-280v99zM320 221v243l-166 -243h166z" />
    <glyph glyph-name="five" unicode="5" 
d="M90 139q27 -24 58 -38t79 -14q32 0 54.5 9.5t37 26t21 37.5t6.5 44q0 15 -5.5 33.5t-19.5 34.5t-38.5 27t-61.5 11q-34 0 -54 -6.5t-37 -12.5l-60 46l63 292h327v-110h-242l-25 -121q7 3 24 6t41 3q46 0 84.5 -14t66.5 -39.5t43.5 -62.5t15.5 -82q0 -44 -13 -85
t-42.5 -72.5t-77 -50.5t-115.5 -19q-67 0 -114 20t-82 52z" />
    <glyph glyph-name="six" unicode="6" 
d="M442 513q-13 8 -30 15q-14 6 -34 11t-44 5q-36 0 -65 -15.5t-50 -41t-32.5 -57.5t-11.5 -66q22 13 53 28.5t79 15.5q43 0 79.5 -14t62 -40.5t40 -64.5t14.5 -87q0 -44 -14 -84t-41 -70t-67.5 -48t-92.5 -18q-50 0 -92.5 18t-73.5 56t-48.5 96.5t-17.5 139.5
q0 78 18 143.5t53 113t87 73.5t121 26q28 0 52 -4.5t44.5 -11t36 -13.5t25.5 -13zM174 269q0 -53 9 -88.5t24.5 -56.5t36.5 -30t44 -9q47 0 75.5 33.5t28.5 87.5q0 46 -26.5 73.5t-69.5 27.5q-45 0 -74.5 -13t-47.5 -25z" />
    <glyph glyph-name="seven" unicode="7" 
d="M127 0q21 67 51 144.5t62 150t62 132.5t50 92h-287v111h408v-106q-13 -21 -31.5 -57t-39.5 -81.5t-42.5 -97t-41.5 -103t-36.5 -99.5t-26.5 -86h-128z" />
    <glyph glyph-name="eight" unicode="8" 
d="M273 391q40 11 64 37.5t24 55.5q0 33 -24.5 54.5t-63.5 21.5q-37 0 -62.5 -22t-25.5 -57q0 -26 24 -52.5t64 -37.5zM271 294q-23 -5 -44 -15.5t-36.5 -25t-25 -33.5t-9.5 -40q0 -27 10.5 -45.5t27.5 -30.5t38 -17.5t41 -5.5t41 5.5t38 17.5t27.5 30.5t10.5 45.5
q0 21 -10 40t-26.5 33.5t-38 25t-44.5 15.5zM153 349q-31 18 -55 53.5t-24 78.5q0 37 14.5 68t40.5 53t62.5 34t81.5 12q49 0 86 -12t62 -33.5t38 -51.5t13 -65q0 -47 -25 -81.5t-57 -51.5q57 -24 88.5 -68.5t31.5 -105.5q0 -32 -13 -66.5t-41.5 -63t-73.5 -47t-109 -18.5
q-65 0 -110 18t-73.5 46t-41 62.5t-12.5 66.5q0 61 32 105t85 67z" />
    <glyph glyph-name="nine" unicode="9" 
d="M104 121q17 -10 37 -17q17 -6 39.5 -11t46.5 -5q36 0 62.5 14.5t45 39t28 56t10.5 65.5q-16 -13 -47.5 -28t-87.5 -15q-44 0 -80 16.5t-62 45t-40.5 66t-14.5 80.5q0 44 14.5 84t42.5 70t68.5 48t93.5 18q50 0 92.5 -18t73.5 -56t48.5 -96.5t17.5 -139.5
q0 -77 -16 -141.5t-49 -112t-83 -74t-119 -26.5q-28 0 -54 4.5t-48 11t-39.5 13.5t-27.5 13zM374 361q0 53 -9 88.5t-24.5 56.5t-36.5 30t-44 9q-47 0 -77.5 -32t-30.5 -86q0 -44 27.5 -73t74.5 -29q49 0 75.5 12t44.5 24z" />
    <glyph glyph-name="colon" unicode=":" horiz-adv-x="273" 
d="M65 138h143v-138h-143v138zM65 469h143v-138h-143v138z" />
    <glyph glyph-name="semicolon" unicode=";" horiz-adv-x="273" 
d="M116 0h-51v139h143v-137l-85 -145h-70zM65 469h143v-138h-143v138z" />
    <glyph glyph-name="less" unicode="&#x3c;" 
d="M71 357l357 193l43 -85l-267 -144l267 -144l-43 -85l-357 193v72z" />
    <glyph glyph-name="equal" unicode="=" 
d="M74 287h398v-99h-398v99zM74 454h398v-99h-398v99z" />
    <glyph glyph-name="greater" unicode="&#x3e;" 
d="M74 177l267 144l-267 144l43 85l357 -193v-72l-357 -193z" />
    <glyph glyph-name="question" unicode="?" horiz-adv-x="508" 
d="M155 138h143v-138h-143v138zM166 231q0 19 2.5 40.5t10.5 44t24.5 44.5t45.5 42q16 11 32 23t29 25t21 27t8 31q0 30 -23 49.5t-64 19.5q-27 0 -50 -8t-40.5 -18t-29 -20.5t-16.5 -14.5l-78 70q5 7 20 23t41 32.5t64.5 29.5t89.5 13q49 0 87 -14t64.5 -38t40.5 -55.5
t14 -65.5q0 -56 -22 -91t-66 -67q-22 -16 -38 -28t-26.5 -25.5t-15.5 -29.5t-5 -39v-22h-120v22z" />
    <glyph glyph-name="at" unicode="@" horiz-adv-x="958" 
d="M575 212q-18 1 -35 2q-14 1 -29.5 1.5t-26.5 0.5q-53 0 -79.5 -22.5t-26.5 -51.5q0 -30 23 -47t65 -17q21 0 40.5 7t34.5 19t24.5 28t9.5 34v46zM182 -18q-23 16 -47.5 43.5t-45 65t-33.5 84t-13 101.5q0 105 37 182.5t98.5 128t140 75.5t162.5 25q91 0 170.5 -24
t138 -72.5t92 -122t33.5 -173.5q0 -92 -23 -152.5t-56 -95.5t-71 -49t-68 -14q-34 0 -62 14t-41 46q-21 -19 -41 -30.5t-40.5 -18t-43 -9t-49.5 -2.5q-22 0 -48.5 9t-49.5 28t-38.5 48t-15.5 68q0 40 15 71.5t42 53t65 32.5t84 11q14 0 31 -0.5t33 -1.5q18 -1 37 -2v11
q0 35 -26.5 55t-68.5 20q-54 0 -85 -13t-54 -28l-54 80q16 12 34 22.5t42 18.5t55.5 13t75.5 5q43 0 79 -12.5t61.5 -35t39.5 -54t14 -68.5v-196q0 -15 8.5 -24.5t22.5 -9.5q13 0 29 11t29.5 36t23 66.5t9.5 101.5q0 79 -28.5 135t-75.5 91t-107 51t-123 16
q-53 0 -110.5 -16.5t-104.5 -53t-77.5 -95t-30.5 -143.5q0 -48 10 -86t25 -66.5t32 -48.5t31 -31z" />
    <glyph glyph-name="A" unicode="A" horiz-adv-x="654" 
d="M262 667h130l253 -667h-140l-58 169h-248l-58 -169h-132zM411 273l-88 259l-89 -259h177z" />
    <glyph glyph-name="B" unicode="B" horiz-adv-x="596" 
d="M70 667h229q53 0 93.5 -13.5t67.5 -37t41 -55t14 -68.5q0 -35 -13 -61t-30.5 -43.5t-35 -26t-27.5 -8.5q18 -2 42 -11t45.5 -28t36.5 -49.5t15 -74.5q0 -54 -19 -90.5t-52.5 -59t-79 -32t-98.5 -9.5h-229v667zM293 401q19 0 37 4t32.5 14t23 25t8.5 38t-9 38t-23.5 24
t-32.5 12.5t-36 3.5h-102v-159h102zM298 107q18 0 39.5 2.5t40.5 12t32 28t13 50.5q0 30 -12.5 48.5t-31 29t-40.5 14.5t-41 4h-107v-189h107z" />
    <glyph glyph-name="C" unicode="C" horiz-adv-x="680" 
d="M657 122q-15 -23 -41.5 -47t-62.5 -44.5t-79 -33.5t-91 -13q-75 0 -137 26t-107 72.5t-70 109.5t-25 138q0 73 25 137t70.5 112t108.5 76t139 28q49 0 90 -10.5t74.5 -28.5t59.5 -42.5t46 -52.5l-89 -79q-32 46 -74.5 74t-106.5 28q-49 0 -88 -19.5t-66.5 -52t-42 -76
t-14.5 -91.5t14.5 -90t41.5 -73t64.5 -49t84.5 -18q43 0 73.5 10t52 25t36 31.5t26.5 28.5z" />
    <glyph glyph-name="D" unicode="D" horiz-adv-x="717" 
d="M70 667h249q78 0 143 -20t112 -61t73 -105t26 -151q0 -83 -26.5 -144.5t-74 -103t-112.5 -62t-142 -20.5h-248v667zM307 112q114 0 174 55t60 161q0 105 -55.5 166t-178.5 61h-111v-443h111z" />
    <glyph glyph-name="E" unicode="E" horiz-adv-x="568" 
d="M70 667h432v-111h-306v-157h225v-112h-225v-174h329v-113h-455v667z" />
    <glyph glyph-name="F" unicode="F" horiz-adv-x="534" 
d="M70 667h431v-111h-305v-173h228v-112h-228v-271h-126v667z" />
    <glyph glyph-name="G" unicode="G" horiz-adv-x="723" 
d="M421 353h239v-276q-39 -37 -103 -65t-164 -28q-82 0 -146.5 27t-109.5 73.5t-69 109.5t-24 136t25 137t70.5 112t108.5 76t139 28q49 0 90 -10.5t74.5 -28.5t59.5 -42.5t46 -52.5l-89 -79q-32 46 -74.5 74t-106.5 28q-49 0 -88 -19.5t-66.5 -52t-42 -76t-14.5 -91.5
q0 -54 17.5 -97t48 -74t71 -47.5t85.5 -16.5q92 0 142 44v104h-119v107z" />
    <glyph glyph-name="H" unicode="H" horiz-adv-x="723" 
d="M70 667h126v-268h331v268h126v-667h-126v287h-331v-287h-126v667z" />
    <glyph glyph-name="I" unicode="I" horiz-adv-x="266" 
d="M70 667h126v-667h-126v667z" />
    <glyph glyph-name="J" unicode="J" horiz-adv-x="508" 
d="M98 157q32 -35 59 -46.5t62 -11.5q18 0 35.5 6.5t31.5 19.5t22.5 32.5t8.5 45.5v464h126v-471q0 -60 -19.5 -101t-50.5 -66t-70 -36t-78 -11q-78 0 -128.5 24.5t-86.5 70.5z" />
    <glyph glyph-name="K" unicode="K" horiz-adv-x="621" 
d="M70 667h126v-274l247 274h143l-246 -273l273 -394h-152l-203 303l-62 -69v-234h-126v667z" />
    <glyph glyph-name="L" unicode="L" horiz-adv-x="553" 
d="M70 667h126v-555h329v-112h-455v667z" />
    <glyph glyph-name="M" unicode="M" horiz-adv-x="789" 
d="M94 667h117l185 -315l182 315h117l32 -667h-123l-22 462l-160 -272h-59l-161 265l-22 -455h-118z" />
    <glyph glyph-name="N" unicode="N" horiz-adv-x="713" 
d="M70 667h127l323 -474v474h123v-667h-124l-326 480v-480h-123v667z" />
    <glyph glyph-name="O" unicode="O" horiz-adv-x="782" 
d="M391 -18q-73 0 -136 27.5t-110 75.5t-74 112t-27 137t27 137t73.5 111.5t110 75t136.5 27.5t136 -27.5t110 -75t74 -111.5t27 -137t-27 -137t-74 -112t-110 -75.5t-136 -27.5zM391 101q49 0 89 19t68 51.5t43 75.5t15 90q0 48 -15 90.5t-43 74.5t-68 50.5t-89 18.5
q-50 0 -89.5 -18.5t-67.5 -50.5t-43 -74.5t-15 -90.5q0 -47 15 -90t43 -75.5t67.5 -51.5t89.5 -19z" />
    <glyph glyph-name="P" unicode="P" horiz-adv-x="558" 
d="M70 667h214q70 0 114.5 -21.5t70.5 -53t36 -67.5t10 -66q0 -56 -20 -96t-52 -65.5t-72 -37.5t-79 -12h-101v-248h-121v667zM282 354q48 0 76.5 28t28.5 73q0 47 -30 76.5t-75 29.5h-91v-207h91z" />
    <glyph glyph-name="Q" unicode="Q" horiz-adv-x="782" 
d="M548 19q-35 -17 -75 -27t-82 -10q-73 0 -136 27.5t-110 75.5t-74 112t-27 137t27 137t73.5 111.5t110 75t136.5 27.5t136 -27.5t110 -75t74 -111.5t27 -137q0 -77 -29.5 -143t-80.5 -115l75 -96l-75 -63zM396 214l75 63l79 -102q27 32 41.5 73.5t14.5 88.5q0 48 -15 90.5
t-43 74.5t-68 50.5t-89 18.5q-50 0 -89.5 -18.5t-67.5 -50.5t-43 -74.5t-15 -90.5q0 -47 15 -90t43 -75.5t67.5 -51.5t89.5 -19q43 0 81 15z" />
    <glyph glyph-name="R" unicode="R" horiz-adv-x="586" 
d="M70 667h221q63 0 107 -19t71 -48.5t39.5 -64.5t12.5 -67q0 -63 -27.5 -111.5t-84.5 -77.5l154 -279h-142l-135 263h-95v-263h-121v667zM292 367q48 0 74.5 28t26.5 68q0 43 -28 70t-73 27h-101v-193h101z" />
    <glyph glyph-name="S" unicode="S" horiz-adv-x="593" 
d="M119 188q12 -14 28.5 -29.5t37 -29t46 -22.5t57.5 -9q59 0 87.5 27t28.5 65q0 21 -8 37.5t-27 29t-49.5 22.5t-75.5 19q-46 9 -79.5 28t-55.5 45t-33 57.5t-11 64.5q0 38 14 72.5t43 61t72.5 42.5t102.5 16q53 0 91 -12t63.5 -28t39.5 -31.5t20 -22.5l-83 -78
q-5 4 -16 14.5t-27.5 20.5t-39.5 18t-52 8q-26 0 -45 -7t-31.5 -18t-18.5 -24.5t-6 -25.5q0 -18 6.5 -32t22 -26t42.5 -21.5t68 -17.5q39 -8 75 -24t63.5 -41.5t44 -62t16.5 -87.5q0 -44 -18 -81t-50 -65t-76 -43.5t-96 -15.5q-50 0 -90.5 12t-73 30.5t-56 40.5t-39.5 42z
" />
    <glyph glyph-name="T" unicode="T" horiz-adv-x="624" 
d="M249 556h-226v111h578v-111h-226v-556h-126v556z" />
    <glyph glyph-name="U" unicode="U" horiz-adv-x="674" 
d="M65 667h126v-399q0 -38 7.5 -68.5t24.5 -52t45 -33t69 -11.5t69 11.5t45 33t24.5 52t7.5 68.5v399h126v-421q0 -56 -18 -104t-53 -83.5t-85.5 -56t-115.5 -20.5t-115.5 20.5t-85.5 56t-53 83.5t-18 104v421z" />
    <glyph glyph-name="V" unicode="V" horiz-adv-x="644" 
d="M9 667h140l177 -509l177 509h132l-248 -667h-130z" />
    <glyph glyph-name="W" unicode="W" horiz-adv-x="890" 
d="M15 667h138l109 -499l129 480h114l130 -480l108 499h132l-175 -667h-132l-124 441l-126 -441h-130z" />
    <glyph glyph-name="X" unicode="X" horiz-adv-x="617" 
d="M233 345l-213 322h152l139 -218l134 218h137l-205 -319l229 -348h-152l-154 243l-152 -243h-137z" />
    <glyph glyph-name="Y" unicode="Y" horiz-adv-x="616" 
d="M244 293l-231 374h138l160 -266l160 266h132l-231 -374v-293h-128v293z" />
    <glyph glyph-name="Z" unicode="Z" horiz-adv-x="650" 
d="M49 110l393 446h-375v111h526v-111l-385 -446h393v-110h-552v110z" />
    <glyph glyph-name="bracketleft" unicode="[" horiz-adv-x="330" 
d="M73 706h234v-105h-116v-587h116v-107h-234v799z" />
    <glyph glyph-name="backslash" unicode="\" horiz-adv-x="426" 
d="M23 685h114l266 -701h-117z" />
    <glyph glyph-name="bracketright" unicode="]" horiz-adv-x="330" 
d="M23 14h116v587h-116v105h234v-799h-234v107z" />
    <glyph glyph-name="asciicircum" unicode="^" 
d="M217 667h110l173 -359h-117l-111 245l-111 -245h-117z" />
    <glyph glyph-name="underscore" unicode="_" horiz-adv-x="500" 
d="M0 -65h500v-55h-500v55z" />
    <glyph glyph-name="grave" unicode="`" horiz-adv-x="502" 
d="M144 682h126l48 -142h-95z" />
    <glyph glyph-name="a" unicode="a" horiz-adv-x="504" 
d="M335 44q-19 -23 -58 -41t-87 -18q-29 0 -57.5 9t-52 27.5t-38 47.5t-14.5 68q0 40 15 71.5t42 53t65 32.5t84 11q14 0 31 -0.5t33 -1.5q18 -1 37 -2v11q0 35 -28 55t-73 20q-50 0 -80 -13t-53 -28l-54 80q14 10 32 20.5t42 19t55.5 14t73.5 5.5q45 0 81.5 -12.5t62.5 -35
t40 -54t14 -68.5v-315h-110zM335 212q-18 1 -35 2q-14 1 -29.5 1.5t-26.5 0.5q-57 0 -80 -22.5t-23 -51.5q0 -30 21.5 -47t63.5 -17q21 0 40.5 7t34.5 19t24.5 28t9.5 34v46z" />
    <glyph glyph-name="b" unicode="b" horiz-adv-x="555" 
d="M58 667h118v-230q12 12 46 27t82 15q51 0 90.5 -19t67.5 -51t42.5 -76t14.5 -93q0 -53 -18.5 -99.5t-53 -81t-83.5 -55t-110 -20.5t-112.5 10t-83.5 21v652zM176 96q14 -5 29 -7.5t47 -2.5q36 0 63 12.5t46 33.5t28.5 48.5t9.5 56.5q0 27 -6.5 52t-20.5 44.5t-35.5 31
t-51.5 11.5q-54 0 -81.5 -27.5t-27.5 -75.5v-177z" />
    <glyph glyph-name="c" unicode="c" horiz-adv-x="492" 
d="M471 62q-33 -35 -78 -56t-105 -21t-107 18t-79 51t-49 79t-17 102q0 51 18.5 96.5t51.5 79.5t79.5 54t102.5 20q57 0 104 -20.5t80 -55.5l-75 -76q-20 23 -47 36t-62 13q-34 0 -59 -12.5t-41.5 -32.5t-24.5 -47t-8 -55q0 -27 8 -53t24.5 -47t41.5 -34t59 -13
q35 0 64 13.5t49 36.5z" />
    <glyph glyph-name="d" unicode="d" horiz-adv-x="557" 
d="M382 46q-9 -10 -22 -21t-30.5 -20t-39 -15t-48.5 -6q-38 0 -75 16t-66 47t-47 76t-18 103q0 55 16 96.5t40 70.5q20 24 44 40t48.5 26.5t47.5 15t40 4.5q23 0 38 -1.5t27 -4t22 -6.5t23 -9v209h117v-667h-114zM382 352q-17 14 -39.5 19.5t-57.5 5.5t-58 -13.5t-40 -35.5
q-15 -20 -23.5 -46.5t-8.5 -55.5q0 -60 30 -100t87 -40q30 0 51 11.5t34 29.5t19 39.5t6 41.5v144z" />
    <glyph glyph-name="e" unicode="e" horiz-adv-x="538" 
d="M499 68l-16.5 -16.5t-39 -28.5t-65 -27t-94.5 -12q-56 0 -102 19t-78.5 52.5t-50 80.5t-17.5 104q0 52 17.5 96.5t49 77.5t75 52t96.5 19q64 0 108.5 -23.5t71.5 -61.5t39 -86t12 -98v-17h-350q0 -26 11.5 -47t30 -36t42 -23t46.5 -8q34 0 59.5 6.5t43.5 15t29.5 18
t17.5 15.5zM384 284q0 18 -7 36t-20.5 32.5t-34.5 24t-48 9.5q-29 0 -51.5 -9.5t-37.5 -24t-23 -32.5t-8 -36h230z" />
    <glyph glyph-name="f" unicode="f" horiz-adv-x="340" 
d="M93 373h-80v96h80v29q0 51 16 86.5t41 58t56 32.5t61 10q32 0 71 -9t75 -40l-55 -78q-16 11 -34.5 18t-37.5 7q-35 0 -55.5 -22.5t-20.5 -64.5v-27h121v-96h-120v-373h-118v373z" />
    <glyph glyph-name="g" unicode="g" horiz-adv-x="555" 
d="M134 -76q28 -19 60.5 -27.5t76.5 -8.5q46 0 77 28t31 78v51q-24 -20 -52.5 -32.5t-75.5 -12.5q-51 0 -90.5 17t-67.5 47.5t-42.5 72t-14.5 91.5q0 52 18.5 98t53 80t83.5 53.5t110 19.5t112.5 -10t83.5 -21v-456q0 -49 -17 -87t-47 -64t-71 -39.5t-89 -13.5
q-37 0 -65.5 3.5t-51 9.5t-41 15t-34.5 21zM379 367q-14 5 -29 7.5t-47 2.5q-36 0 -63 -12t-46 -32t-28.5 -46.5t-9.5 -55.5q0 -54 27 -91t87 -37q54 0 81.5 23t27.5 73v168z" />
    <glyph glyph-name="h" unicode="h" horiz-adv-x="551" 
d="M58 667h116v-246q18 20 52.5 39t88.5 19q43 0 77 -14t56.5 -39.5t34.5 -61.5t12 -79v-285h-118v284q0 45 -24.5 69.5t-63.5 24.5q-24 0 -45 -9.5t-36 -26.5t-23.5 -39.5t-8.5 -48.5v-254h-118v667z" />
    <glyph glyph-name="i" unicode="i" horiz-adv-x="244" 
d="M59 667h126v-124h-126v124zM63 469h118v-469h-118v469z" />
    <glyph glyph-name="j" unicode="j" horiz-adv-x="244" 
d="M58 667h126v-124h-126v124zM-43 -83q9 -5 22 -10.5t32 -5.5q23 0 37.5 19t14.5 56v493h118v-470q0 -35 -5.5 -70t-22 -64t-46.5 -47t-80 -18q-42 0 -69.5 12.5t-44.5 24.5z" />
    <glyph glyph-name="k" unicode="k" horiz-adv-x="512" 
d="M58 667h118v-364l169 166h139l-176 -173l196 -296h-141l-136 216l-51 -50v-166h-118v667z" />
    <glyph glyph-name="l" unicode="l" horiz-adv-x="234" 
d="M58 667h118v-667h-118v667z" />
    <glyph glyph-name="m" unicode="m" horiz-adv-x="852" 
d="M58 469h113l3 -53q9 10 20.5 21.5t28 20.5t38 15t49.5 6q93 0 141 -68q36 37 73.5 52.5t87.5 15.5q89 0 136.5 -52.5t47.5 -141.5v-285h-118v284q0 45 -22.5 69.5t-61.5 24.5q-24 0 -44 -9.5t-34.5 -26.5t-22 -39.5t-7.5 -48.5v-254h-118v284q0 45 -22.5 69.5t-61.5 24.5
q-24 0 -44 -9.5t-34.5 -26.5t-22 -39.5t-7.5 -48.5v-254h-118v469z" />
    <glyph glyph-name="n" unicode="n" horiz-adv-x="551" 
d="M58 469h113l3 -53q9 10 21.5 21t30 20.5t39.5 15.5t50 6q88 0 134 -52.5t46 -141.5v-285h-118v284q0 45 -24.5 69.5t-63.5 24.5q-24 0 -45 -9.5t-36 -26.5t-23.5 -39.5t-8.5 -48.5v-254h-118v469z" />
    <glyph glyph-name="o" unicode="o" horiz-adv-x="576" 
d="M36 235q0 51 18.5 96.5t51.5 79.5t79.5 54t102.5 20t102.5 -20t79.5 -54t51.5 -79.5t18.5 -96.5t-18.5 -96.5t-51.5 -80t-79.5 -54.5t-102.5 -20t-102.5 20t-79.5 54.5t-51.5 80t-18.5 96.5zM288 86q34 0 59 13.5t41.5 35.5t24.5 48t8 52q0 25 -8 51.5t-24.5 48t-41.5 35
t-59 13.5t-59 -13.5t-41.5 -35t-24.5 -48t-8 -51.5q0 -26 8 -52t24.5 -48t41.5 -35.5t59 -13.5z" />
    <glyph glyph-name="p" unicode="p" horiz-adv-x="571" 
d="M58 469h114l3 -53q9 10 22.5 21t32 20t42 15t52.5 6q54 0 93.5 -21t65.5 -55.5t39 -78.5t13 -91q0 -55 -16 -94t-40 -68q-40 -48 -87.5 -67t-97.5 -19q-23 0 -39.5 2t-30 5.5t-25 8t-24.5 9.5v-209h-117v669zM175 115q35 -29 106 -29q32 0 57 12.5t42.5 33t26.5 46.5
t9 54q0 30 -6.5 56t-21 45.5t-37.5 31t-57 11.5q-27 0 -49 -11.5t-37.5 -29.5t-24 -39.5t-8.5 -41.5v-139z" />
    <glyph glyph-name="q" unicode="q" horiz-adv-x="555" 
d="M379 27q-14 -14 -43.5 -28.5t-73.5 -14.5q-55 0 -97 19.5t-70.5 53t-43.5 77.5t-15 94q0 52 18.5 98t53 80t83.5 53.5t110 19.5t112.5 -10t83.5 -21v-648h-118v227zM379 367q-14 5 -29 7.5t-47 2.5q-39 0 -67 -11.5t-45.5 -31t-26 -46.5t-8.5 -57q0 -27 6.5 -53t20.5 -46
t35.5 -32.5t51.5 -12.5q54 0 81.5 24t27.5 84v172z" />
    <glyph glyph-name="r" unicode="r" horiz-adv-x="382" 
d="M58 469h113l3 -59q8 10 20.5 22t29.5 22t39.5 17t51.5 7q17 0 30.5 -2t27.5 -7l-24 -111q-12 5 -24.5 7t-29.5 2q-24 0 -46 -8t-38 -23t-25.5 -36t-9.5 -47v-253h-118v469z" />
    <glyph glyph-name="s" unicode="s" horiz-adv-x="478" 
d="M106 134q22 -22 55.5 -36.5t76.5 -14.5q38 0 61 10t23 33q0 10 -4 18.5t-17 16.5t-36 16t-62 17q-24 6 -50 16t-48.5 27.5t-37 42t-14.5 58.5q0 35 17 62.5t44.5 46t62 28.5t69.5 10q62 0 105.5 -13t78.5 -39l-61 -83q-19 14 -50 25.5t-73 11.5t-58.5 -12.5t-16.5 -30.5
q0 -22 27.5 -34.5t85.5 -26.5q36 -8 64.5 -20t49 -30t31.5 -42.5t11 -58.5t-16 -61.5t-43.5 -46.5t-64 -29.5t-77.5 -10.5q-66 0 -119 18.5t-85 54.5z" />
    <glyph glyph-name="t" unicode="t" horiz-adv-x="402" 
d="M98 373h-80v96h80v152h118v-152h126v-96h-126v-205q0 -40 13.5 -61.5t43.5 -21.5q28 0 44.5 8t31.5 19l50 -73q-35 -29 -69 -41.5t-76 -12.5q-43 0 -73 12.5t-48.5 35.5t-26.5 55.5t-8 71.5v213z" />
    <glyph glyph-name="u" unicode="u" horiz-adv-x="551" 
d="M56 469h118v-284q0 -45 24.5 -69.5t63.5 -24.5q24 0 45 9.5t36 26.5t23.5 39.5t8.5 48.5v254h118v-469h-113l-3 53q-9 -10 -22 -21t-30 -20.5t-39 -15.5t-50 -6q-88 0 -134 52.5t-46 141.5v285z" />
    <glyph glyph-name="v" unicode="v" horiz-adv-x="527" 
d="M5 469h136l126 -336l126 336h129l-198 -469h-120z" />
    <glyph glyph-name="w" unicode="w" horiz-adv-x="749" 
d="M9 469h130l90 -326l99 326h99l100 -326l89 326h124l-159 -469h-114l-96 283l-93 -283h-110z" />
    <glyph glyph-name="x" unicode="x" horiz-adv-x="507" 
d="M183 237l-170 232h149l94 -136l95 136h133l-165 -220l183 -249h-149l-107 153l-108 -153h-133z" />
    <glyph glyph-name="y" unicode="y" horiz-adv-x="527" 
d="M77 -93q10 -8 22 -15.5t30 -7.5q24 0 39.5 20t32.5 62l15 38l-211 465h136l134 -321l118 321h129l-196 -469q-14 -35 -28 -72t-34.5 -68.5t-50.5 -51.5t-76 -20q-40 0 -66.5 9.5t-46.5 26.5z" />
    <glyph glyph-name="z" unicode="z" horiz-adv-x="472" 
d="M46 90l239 280h-232v99h379v-92l-247 -281h247v-96h-386v90z" />
    <glyph glyph-name="braceleft" unicode="{" horiz-adv-x="304" 
d="M104 199q-2 31 -18.5 52t-54.5 21v70q38 0 54.5 21t18.5 52l14 170q4 44 15 73t34 48h124q-18 -18 -32 -49.5t-16 -60.5l-16 -195q-3 -36 -22.5 -61t-47.5 -33q28 -8 47.5 -33t22.5 -61l16 -195q2 -29 16 -61t32 -50h-124q-23 19 -34 48.5t-15 73.5z" />
    <glyph glyph-name="bar" unicode="|" horiz-adv-x="245" 
d="M68 833h109v-997h-109v997z" />
    <glyph glyph-name="braceright" unicode="}" horiz-adv-x="304" 
d="M13 -93q18 18 32 50t16 61l16 195q3 36 22.5 61t47.5 33q-28 8 -47.5 33t-22.5 61l-16 195q-2 29 -16 60.5t-32 49.5h124q23 -19 34 -48t15 -73l14 -170q2 -31 18.5 -52t54.5 -21v-70q-38 0 -54.5 -21t-18.5 -52l-14 -170q-4 -44 -15 -73.5t-34 -48.5h-124z" />
    <glyph glyph-name="asciitilde" unicode="~" 
d="M492 297q-29 -31 -64.5 -49t-72.5 -18q-24 0 -42 7t-34.5 16t-33.5 16t-41 7q-29 0 -51.5 -9.5t-49.5 -30.5l-50 76q24 26 60.5 46.5t75.5 20.5q24 0 42 -7t34.5 -16t34 -16t41.5 -7q28 0 50.5 9t50.5 31z" />
    <glyph glyph-name="uni00A0" unicode="&#xa0;" horiz-adv-x="181" 
 />
    <glyph glyph-name="exclamdown" unicode="&#xa1;" horiz-adv-x="283" 
d="M78 260h127l2 -458h-131zM70 469h143v-138h-143v138z" />
    <glyph glyph-name="cent" unicode="&#xa2;" 
d="M277 67q-49 7 -87 28.5t-64.5 54t-40 74.5t-13.5 90q0 45 14.5 86.5t41.5 74t64.5 55t84.5 30.5v89h75v-87q48 -5 87.5 -24t68.5 -50l-75 -76q-16 18 -36 30.5t-45 17.5v-291q52 9 85 48l70 -76q-29 -32 -67.5 -51.5t-87.5 -24.5v-84h-75v86zM277 453q-44 -17 -65 -57
t-21 -82q0 -19 5.5 -39.5t16 -39.5t26.5 -35t38 -25v278z" />
    <glyph glyph-name="sterling" unicode="&#xa3;" 
d="M117 269h-76v96h76v77q0 27 9 63t32.5 67.5t64.5 53.5t106 22q39 0 68 -8t50.5 -19t37 -24.5t26.5 -23.5l-77 -83q-11 11 -21.5 19.5t-22 14.5t-26 9.5t-33.5 3.5q-24 0 -41 -10t-27.5 -27t-15 -38.5t-4.5 -43.5v-53h194v-96h-194v-157h274v-112h-400v269z" />
    <glyph glyph-name="currency" unicode="&#xa4;" 
d="M95 226q-28 47 -28 103q0 55 28 103l-63 64l69 69l63 -63q23 15 50.5 23.5t57.5 8.5q29 0 56.5 -8.5t51.5 -23.5l63 63l69 -69l-64 -64q14 -23 21.5 -49t7.5 -54q0 -29 -7.5 -54.5t-21.5 -48.5l64 -64l-69 -69l-63 62q-50 -31 -108 -31q-60 0 -108 31l-63 -62l-69 69z
M163 329q0 -23 8.5 -42.5t23.5 -34.5t34.5 -23.5t42.5 -8.5q22 0 42 8.5t35 23.5t23.5 34.5t8.5 42.5q0 22 -8.5 42t-23.5 35t-35 23.5t-42 8.5q-23 0 -42.5 -8.5t-34.5 -23.5t-23.5 -35t-8.5 -42z" />
    <glyph glyph-name="yen" unicode="&#xa5;" 
d="M74 190h139v77h-139v74h97l-165 290h138l132 -266l131 266h132l-165 -290h108v-74h-149v-77h149v-74h-149v-116h-120v116h-139v74z" />
    <glyph glyph-name="brokenbar" unicode="&#xa6;" horiz-adv-x="245" 
d="M68 215h109v-379h-109v379zM68 833h109v-379h-109v379z" />
    <glyph glyph-name="section" unicode="&#xa7;" horiz-adv-x="470" 
d="M155 327q-50 32 -73 76.5t-23 91.5q0 36 12.5 70.5t37 61t61 42.5t83.5 16q27 0 50 -6.5t41.5 -15.5t32.5 -18.5t22 -15.5l-57 -86q-26 18 -46 26.5t-45 8.5q-18 0 -32.5 -6.5t-24 -16.5t-15 -23t-5.5 -25q0 -11 1.5 -21.5t7 -21t16 -21t28.5 -22.5l193 -131l-64 -95z
M128 -70q26 -18 46 -26.5t45 -8.5q18 0 32.5 6.5t24 16.5t15 23t5.5 25q0 22 -8.5 42t-44.5 44l-193 131l64 95l201 -132q50 -32 73 -76.5t23 -91.5q0 -36 -12.5 -70.5t-37 -61t-61 -42.5t-83.5 -16q-27 0 -50 6.5t-41.5 15.5t-32.5 18.5t-22 15.5z" />
    <glyph glyph-name="dieresis" unicode="&#xa8;" horiz-adv-x="346" 
d="M207 666h115v-109h-115v109zM22 666h115v-109h-115v109z" />
    <glyph glyph-name="copyright" unicode="&#xa9;" horiz-adv-x="809" 
d="M404 -14q-73 0 -136 27t-109.5 74.5t-73.5 111t-27 136.5t27 136.5t73.5 110.5t110 74.5t136.5 27.5t136 -27.5t109.5 -74.5t73.5 -110.5t27 -136.5t-27 -136.5t-74 -111t-110 -74.5t-136 -27zM404 69q55 0 102 20.5t81.5 56t54 84t19.5 105.5q0 56 -19.5 104.5t-54 84.5
t-81.5 56.5t-101 20.5q-55 0 -102 -20.5t-81.5 -56.5t-54.5 -84.5t-20 -104.5q0 -57 19.5 -105.5t54 -84t81.5 -56t102 -20.5zM562 227q-23 -33 -62 -56.5t-90 -23.5q-43 0 -78 14.5t-60 40t-38.5 60.5t-13.5 76q0 39 14 73.5t39.5 60t60 40.5t76.5 15q51 0 90 -23.5
t62 -56.5l-65 -50q-12 17 -32.5 32t-49.5 15q-47 0 -74.5 -31t-27.5 -76q0 -21 7.5 -40t21 -33.5t32 -23t41.5 -8.5q29 0 49.5 15t32.5 32z" />
    <glyph glyph-name="ordfeminine" unicode="&#xaa;" horiz-adv-x="379" 
d="M48 606q25 19 55 30.5t83 11.5q63 0 100.5 -33t37.5 -85v-208h-81q-1 5 -1 9t-0.5 8t-0.5 8q-12 -12 -36.5 -22.5t-47.5 -10.5q-22 0 -43 5.5t-37.5 18t-27 32t-10.5 46.5q0 56 39 81.5t102 25.5q26 0 61 -3v8q0 20 -13.5 33.5t-44.5 13.5q-35 0 -55 -9t-38 -20zM241 454
q-10 2 -27 2.5t-28 0.5q-35 0 -50.5 -10.5t-15.5 -27.5q0 -20 13 -27.5t41 -7.5q27 0 47 16t20 36v18z" />
    <glyph glyph-name="guillemotleft" unicode="&#xab;" horiz-adv-x="536" 
d="M58 241l104 194h115l-99 -194l99 -194h-115zM254 241l104 194h115l-99 -194l99 -194h-115z" />
    <glyph glyph-name="logicalnot" unicode="&#xac;" 
d="M74 371h398v-245h-100v146h-298v99z" />
    <glyph glyph-name="uni00AD" unicode="&#xad;" horiz-adv-x="441" 
d="M68 335h305v-112h-305v112z" />
    <glyph glyph-name="registered" unicode="&#xae;" horiz-adv-x="526" 
d="M263 233q-49 0 -91 16.5t-72.5 46t-47.5 71t-17 91.5q0 51 17 92.5t47.5 71t72.5 46t91 16.5t91 -16.5t72.5 -46t47.5 -71t17 -92.5q0 -50 -17 -91.5t-47.5 -71t-72.5 -46t-91 -16.5zM263 288q37 0 67.5 12.5t52.5 35t34.5 53.5t12.5 69t-12.5 69.5t-34.5 54t-52.5 35
t-67.5 12.5q-36 0 -67 -12.5t-53 -35t-34.5 -54t-12.5 -69.5t12.5 -69t34.5 -53.5t53 -35t67 -12.5zM184 576h91q33 0 54 -18.5t21 -49.5q0 -25 -11.5 -41.5t-29.5 -24.5l54 -85h-56l-48 79h-27v-79h-48v219zM260 473q19 0 30 7t11 27q0 16 -9 23t-23 7h-37v-64h28z" />
    <glyph glyph-name="macron" unicode="&#xaf;" horiz-adv-x="347" 
d="M43 649h261v-92h-261v92z" />
    <glyph glyph-name="degree" unicode="&#xb0;" horiz-adv-x="337" 
d="M28 530q0 30 11 55t30 43t44.5 28.5t54.5 10.5q30 0 55.5 -10.5t44.5 -28.5t30 -43t11 -54q0 -30 -11 -55t-30 -43t-44.5 -28.5t-54.5 -10.5q-30 0 -55.5 10.5t-44.5 28.5t-30 43t-11 54zM169 467q27 0 44.5 18t17.5 46q0 27 -17.5 45t-45.5 18q-27 0 -44.5 -18
t-17.5 -46q0 -27 17.5 -45t45.5 -18z" />
    <glyph glyph-name="plusminus" unicode="&#xb1;" 
d="M74 99h398v-99h-398v99zM74 371h149v147h100v-147h149v-99h-149v-136h-100v136h-149v99z" />
    <glyph glyph-name="uni00B2" unicode="&#xb2;" horiz-adv-x="360" 
d="M49 430q0 26 12.5 46.5t30.5 37.5t40 31t40 26.5t30.5 24.5t12.5 25q0 18 -11 25.5t-28 7.5q-23 0 -50 -11t-47 -24l-36 70q25 17 63 32.5t82 15.5q66 0 97 -30.5t31 -75.5q0 -36 -17 -58.5t-41 -39.5t-51 -32t-47 -36h157v-80h-268v45z" />
    <glyph glyph-name="uni00B3" unicode="&#xb3;" horiz-adv-x="360" 
d="M74 485q18 -14 40.5 -23t47.5 -9q24 0 39 10t15 31q0 26 -19 34t-47 8q-13 0 -26 -2t-23 -5l-16 35l106 84h-133v79h240v-76l-77 -61q52 -10 71.5 -39t19.5 -67q0 -48 -40.5 -78.5t-108.5 -30.5q-42 0 -75.5 11.5t-57.5 30.5z" />
    <glyph glyph-name="acute" unicode="&#xb4;" horiz-adv-x="502" 
d="M259 682h126l-79 -142h-95z" />
    <glyph glyph-name="mu" unicode="&#xb5;" horiz-adv-x="551" 
d="M59 469h118v-284q0 -45 24.5 -69.5t63.5 -24.5q49 0 81 33.5t32 85.5v259h118v-469h-113l-3 48q-18 -20 -50 -39t-77 -19q-20 0 -36.5 5t-39.5 19v-214h-118v669z" />
    <glyph glyph-name="paragraph" unicode="&#xb6;" horiz-adv-x="557" 
d="M362 667h122v-789h-122v789zM273 299q-50 0 -93 9t-74.5 30.5t-49.5 56.5t-18 88q0 52 18 87.5t49.5 57t74.5 30.5t93 9h30v-368h-30zM183 255q20 -6 44.5 -8t45.5 -2h30v-367h-120v377z" />
    <glyph glyph-name="periodcentered" unicode="&#xb7;" horiz-adv-x="273" 
d="M65 304h143v-138h-143v138z" />
    <glyph glyph-name="cedilla" unicode="&#xb8;" horiz-adv-x="705" 
d="M105 -131q19 -7 36 -9.5t33 -2.5q58 0 58 32q0 12 -12.5 21t-41.5 9q-17 0 -33.5 -3t-29.5 -8l11 67q18 5 36.5 8.5t47.5 3.5q54 0 84.5 -26t30.5 -67q0 -26 -11 -46t-29.5 -33.5t-42 -20t-48.5 -6.5q-24 0 -42.5 2t-32.5 5q-16 3 -27 7z" />
    <glyph glyph-name="uni00B9" unicode="&#xb9;" horiz-adv-x="360" 
d="M173 623l-78 -39l-36 72l126 71h86v-342h-98v238z" />
    <glyph glyph-name="ordmasculine" unicode="&#xba;" horiz-adv-x="423" 
d="M43 481q0 36 12.5 66.5t35 53t53.5 35t68 12.5q36 0 67 -12.5t53.5 -35t35 -53t12.5 -66.5t-12.5 -66.5t-35 -53t-53.5 -35t-67 -12.5q-37 0 -68 12.5t-53.5 35t-35 53t-12.5 66.5zM212 394q38 0 57 26t19 61t-19 61t-57 26t-57.5 -26t-19.5 -61t19.5 -61t57.5 -26z" />
    <glyph glyph-name="guillemotright" unicode="&#xbb;" horiz-adv-x="536" 
d="M162 241l-99 194h115l104 -194l-104 -194h-115zM358 241l-99 194h115l104 -194l-104 -194h-115z" />
    <glyph glyph-name="onequarter" unicode="&#xbc;" horiz-adv-x="925" 
d="M616 630h107l-406 -630h-107zM535 132l172 211h96v-211h41v-71h-41v-60h-87v60h-181v71zM716 132v122l-103 -122h103zM200 533l-78 -39l-36 72l126 71h86v-342h-98v238z" />
    <glyph glyph-name="onehalf" unicode="&#xbd;" horiz-adv-x="925" 
d="M596 630h107l-406 -630h-107zM591 46q0 26 12.5 46.5t30.5 37.5t40 31t40 26.5t30.5 24.5t12.5 25q0 18 -11 25.5t-28 7.5q-23 0 -50 -11t-47 -24l-36 70q25 17 63 32.5t82 15.5q66 0 97 -30.5t31 -75.5q0 -36 -17 -58.5t-41 -39.5t-51 -32t-47 -36h157v-80h-268v45z
M180 533l-78 -39l-36 72l126 71h86v-342h-98v238z" />
    <glyph glyph-name="threequarters" unicode="&#xbe;" horiz-adv-x="925" 
d="M634 630h107l-406 -630h-107zM553 132l172 211h96v-211h41v-71h-41v-60h-87v60h-181v71zM734 132v122l-103 -122h103zM114 395q18 -14 40.5 -23t47.5 -9q24 0 39 10t15 31q0 26 -19 34t-47 8q-13 0 -26 -2t-23 -5l-16 35l106 84h-133v79h240v-76l-77 -61q52 -10 71.5 -39
t19.5 -67q0 -48 -40.5 -78.5t-108.5 -30.5q-42 0 -75.5 11.5t-57.5 30.5z" />
    <glyph glyph-name="questiondown" unicode="&#xbf;" horiz-adv-x="508" 
d="M210 469h143v-138h-143v138zM470 -117q-5 -7 -20 -23t-41 -32.5t-64.5 -29.5t-89.5 -13q-49 0 -87 14t-64.5 38t-40.5 55.5t-14 65.5q0 56 22 91t66 67q22 16 38 28t26.5 25.5t15.5 29.5t5 39v22h120v-22q0 -19 -2.5 -40.5t-10.5 -44t-25 -44.5t-45 -42q-16 -11 -32 -23
t-29 -25t-21 -27.5t-8 -30.5q0 -30 23 -49.5t64 -19.5q27 0 50 8t40.5 18t29 20t16.5 15z" />
    <glyph glyph-name="Agrave" unicode="&#xc0;" horiz-adv-x="654" 
d="M262 667h130l253 -667h-140l-58 169h-248l-58 -169h-132zM411 273l-88 259l-89 -259h177zM183 873h146l73 -156h-105z" />
    <glyph glyph-name="Aacute" unicode="&#xc1;" horiz-adv-x="654" 
d="M262 667h130l253 -667h-140l-58 169h-248l-58 -169h-132zM411 273l-88 259l-89 -259h177zM342 873h146l-114 -156h-105z" />
    <glyph glyph-name="Acircumflex" unicode="&#xc2;" horiz-adv-x="654" 
d="M262 667h130l253 -667h-140l-58 169h-248l-58 -169h-132zM411 273l-88 259l-89 -259h177zM271 873h111l110 -156h-104l-62 82l-61 -82h-104z" />
    <glyph glyph-name="Atilde" unicode="&#xc3;" horiz-adv-x="654" 
d="M262 667h130l253 -667h-140l-58 169h-248l-58 -169h-132zM411 273l-88 259l-89 -259h177zM125 804q9 9 22 20t29.5 20t35.5 15t41 6t38 -6.5t30.5 -14.5t30 -14.5t36.5 -6.5q35 0 56.5 13t35.5 24l49 -75q-9 -9 -22 -20t-29 -20.5t-35 -16t-41 -6.5t-38 7t-31 15
t-30.5 15t-36.5 7q-35 0 -56.5 -13t-35.5 -24z" />
    <glyph glyph-name="Adieresis" unicode="&#xc4;" horiz-adv-x="654" 
d="M262 667h130l253 -667h-140l-58 169h-248l-58 -169h-132zM411 273l-88 259l-89 -259h177zM371 854h123v-117h-123v117zM158 854h123v-117h-123v117z" />
    <glyph glyph-name="Aring" unicode="&#xc5;" horiz-adv-x="654" 
d="M255 649q-26 17 -42 44.5t-16 62.5q0 28 10 51.5t28 40.5t42 26.5t51 9.5q28 0 52 -9.5t42 -26.5t28 -40.5t10 -50.5q0 -36 -16.5 -64t-44.5 -45l246 -648h-140l-58 169h-248l-58 -169h-132zM411 273l-88 259l-89 -259h177zM329 704q23 0 36.5 14.5t13.5 38.5
q0 23 -13.5 37.5t-37.5 14.5q-23 0 -36.5 -14.5t-13.5 -38.5q0 -23 13.5 -37.5t37.5 -14.5z" />
    <glyph glyph-name="AE" unicode="&#xc6;" horiz-adv-x="954" 
d="M383 667h505v-111h-308v-157h227v-112h-227v-174h331v-113h-455v169h-230l-97 -169h-129zM456 272v298l-171 -298h171z" />
    <glyph glyph-name="Ccedilla" unicode="&#xc7;" horiz-adv-x="680" 
d="M657 122q-15 -23 -41.5 -47t-62.5 -44.5t-79 -33.5t-91 -13q-75 0 -137 26t-107 72.5t-70 109.5t-25 138q0 73 25 137t70.5 112t108.5 76t139 28q49 0 90 -10.5t74.5 -28.5t59.5 -42.5t46 -52.5l-89 -79q-32 46 -74.5 74t-106.5 28q-49 0 -88 -19.5t-66.5 -52t-42 -76
t-14.5 -91.5t14.5 -90t41.5 -73t64.5 -49t84.5 -18q43 0 73.5 10t52 25t36 31.5t26.5 28.5zM264 -148q19 -7 36.5 -9.5t33.5 -2.5q26 0 41 7.5t15 22.5q0 12 -12.5 20.5t-39.5 8.5q-17 0 -34 -3t-30 -8l11 68q18 5 37 8.5t48 3.5q54 0 85.5 -26t31.5 -67q0 -26 -11.5 -46
t-30 -33.5t-42.5 -20t-49 -6.5q-24 0 -42.5 2t-32.5 5q-16 3 -28 7z" />
    <glyph glyph-name="Egrave" unicode="&#xc8;" horiz-adv-x="568" 
d="M70 667h432v-111h-306v-157h225v-112h-225v-174h329v-113h-455v667zM150 873h146l73 -156h-105z" />
    <glyph glyph-name="Eacute" unicode="&#xc9;" horiz-adv-x="568" 
d="M70 667h432v-111h-306v-157h225v-112h-225v-174h329v-113h-455v667zM303 873h146l-114 -156h-105z" />
    <glyph glyph-name="Ecircumflex" unicode="&#xca;" horiz-adv-x="568" 
d="M70 667h432v-111h-306v-157h225v-112h-225v-174h329v-113h-455v667zM230 873h111l110 -156h-104l-62 82l-61 -82h-104z" />
    <glyph glyph-name="Edieresis" unicode="&#xcb;" horiz-adv-x="568" 
d="M70 667h432v-111h-306v-157h225v-112h-225v-174h329v-113h-455v667zM330 854h123v-117h-123v117zM117 854h123v-117h-123v117z" />
    <glyph glyph-name="Igrave" unicode="&#xcc;" horiz-adv-x="266" 
d="M70 667h126v-667h-126v667zM-22 873h146l73 -156h-105z" />
    <glyph glyph-name="Iacute" unicode="&#xcd;" horiz-adv-x="266" 
d="M70 667h126v-667h-126v667zM143 873h146l-114 -156h-105z" />
    <glyph glyph-name="Icircumflex" unicode="&#xce;" horiz-adv-x="266" 
d="M70 667h126v-667h-126v667zM78 873h111l110 -156h-104l-62 82l-61 -82h-104z" />
    <glyph glyph-name="Idieresis" unicode="&#xcf;" horiz-adv-x="266" 
d="M70 667h126v-667h-126v667zM178 854h123v-117h-123v117zM-35 854h123v-117h-123v117z" />
    <glyph glyph-name="Eth" unicode="&#xd0;" horiz-adv-x="717" 
d="M70 287h-67v102h67v278h249q78 0 143 -20t112 -61t73 -105t26 -151q0 -83 -26.5 -144.5t-74 -103t-112.5 -62t-142 -20.5h-248v287zM310 113q114 0 174 55t60 161q0 105 -55.5 166t-178.5 61h-114v-167h155v-102h-155v-174h114z" />
    <glyph glyph-name="Ntilde" unicode="&#xd1;" horiz-adv-x="713" 
d="M70 667h127l323 -474v474h123v-667h-124l-326 480v-480h-123v667zM134 804q9 9 22 20t29.5 20t35.5 15t41 6t38 -6.5t30.5 -14.5t30 -14.5t36.5 -6.5q35 0 56.5 13t35.5 24l49 -75q-9 -9 -22 -20t-29 -20.5t-35 -16t-41 -6.5t-38 7t-31 15t-30.5 15t-36.5 7
q-35 0 -56.5 -13t-35.5 -24z" />
    <glyph glyph-name="Ograve" unicode="&#xd2;" horiz-adv-x="782" 
d="M391 -18q-73 0 -136 27.5t-110 75.5t-74 112t-27 137t27 137t73.5 111.5t110 75t136.5 27.5t136 -27.5t110 -75t74 -111.5t27 -137t-27 -137t-74 -112t-110 -75.5t-136 -27.5zM391 101q49 0 89 19t68 51.5t43 75.5t15 90q0 48 -15 90.5t-43 74.5t-68 50.5t-89 18.5
q-50 0 -89.5 -18.5t-67.5 -50.5t-43 -74.5t-15 -90.5q0 -47 15 -90t43 -75.5t67.5 -51.5t89.5 -19zM246 873h146l73 -156h-105z" />
    <glyph glyph-name="Oacute" unicode="&#xd3;" horiz-adv-x="782" 
d="M391 -18q-73 0 -136 27.5t-110 75.5t-74 112t-27 137t27 137t73.5 111.5t110 75t136.5 27.5t136 -27.5t110 -75t74 -111.5t27 -137t-27 -137t-74 -112t-110 -75.5t-136 -27.5zM391 101q49 0 89 19t68 51.5t43 75.5t15 90q0 48 -15 90.5t-43 74.5t-68 50.5t-89 18.5
q-50 0 -89.5 -18.5t-67.5 -50.5t-43 -74.5t-15 -90.5q0 -47 15 -90t43 -75.5t67.5 -51.5t89.5 -19zM401 873h146l-114 -156h-105z" />
    <glyph glyph-name="Ocircumflex" unicode="&#xd4;" horiz-adv-x="782" 
d="M391 -18q-73 0 -136 27.5t-110 75.5t-74 112t-27 137t27 137t73.5 111.5t110 75t136.5 27.5t136 -27.5t110 -75t74 -111.5t27 -137t-27 -137t-74 -112t-110 -75.5t-136 -27.5zM391 101q49 0 89 19t68 51.5t43 75.5t15 90q0 48 -15 90.5t-43 74.5t-68 50.5t-89 18.5
q-50 0 -89.5 -18.5t-67.5 -50.5t-43 -74.5t-15 -90.5q0 -47 15 -90t43 -75.5t67.5 -51.5t89.5 -19zM336 873h111l110 -156h-104l-62 82l-61 -82h-104z" />
    <glyph glyph-name="Otilde" unicode="&#xd5;" horiz-adv-x="782" 
d="M391 -18q-73 0 -136 27.5t-110 75.5t-74 112t-27 137t27 137t73.5 111.5t110 75t136.5 27.5t136 -27.5t110 -75t74 -111.5t27 -137t-27 -137t-74 -112t-110 -75.5t-136 -27.5zM391 101q49 0 89 19t68 51.5t43 75.5t15 90q0 48 -15 90.5t-43 74.5t-68 50.5t-89 18.5
q-50 0 -89.5 -18.5t-67.5 -50.5t-43 -74.5t-15 -90.5q0 -47 15 -90t43 -75.5t67.5 -51.5t89.5 -19zM190 804q9 9 22 20t29.5 20t35.5 15t41 6t38 -6.5t30.5 -14.5t30 -14.5t36.5 -6.5q35 0 56.5 13t35.5 24l49 -75q-9 -9 -22 -20t-29 -20.5t-35 -16t-41 -6.5t-38 7t-31 15
t-30.5 15t-36.5 7q-35 0 -56.5 -13t-35.5 -24z" />
    <glyph glyph-name="Odieresis" unicode="&#xd6;" horiz-adv-x="782" 
d="M391 -18q-73 0 -136 27.5t-110 75.5t-74 112t-27 137t27 137t73.5 111.5t110 75t136.5 27.5t136 -27.5t110 -75t74 -111.5t27 -137t-27 -137t-74 -112t-110 -75.5t-136 -27.5zM391 101q49 0 89 19t68 51.5t43 75.5t15 90q0 48 -15 90.5t-43 74.5t-68 50.5t-89 18.5
q-50 0 -89.5 -18.5t-67.5 -50.5t-43 -74.5t-15 -90.5q0 -47 15 -90t43 -75.5t67.5 -51.5t89.5 -19zM436 854h123v-117h-123v117zM223 854h123v-117h-123v117z" />
    <glyph glyph-name="multiply" unicode="&#xd7;" 
d="M204 321l-111 112l69 69l112 -111l113 113l68 -69l-113 -113l111 -111l-69 -69l-111 111l-113 -113l-69 68z" />
    <glyph glyph-name="Oslash" unicode="&#xd8;" horiz-adv-x="782" 
d="M146 84q-48 48 -75 112t-27 138q0 73 27 137t73.5 111.5t110 75t136.5 27.5q80 0 150 -34l58 82l89 -56l-60 -86q51 -48 80.5 -114.5t29.5 -142.5q0 -73 -27 -137t-74 -112t-110 -75.5t-136 -27.5q-44 0 -84.5 10.5t-76.5 28.5l-61 -88l-89 56zM300 121q40 -20 91 -20
q49 0 89 19t68 51.5t43 75.5t15 90q0 44 -13 82.5t-36 70.5zM474 555q-40 16 -83 16q-50 0 -89.5 -18.5t-67.5 -50.5t-43 -74.5t-15 -90.5q0 -42 11 -79.5t33 -68.5z" />
    <glyph glyph-name="Ugrave" unicode="&#xd9;" horiz-adv-x="674" 
d="M65 667h126v-399q0 -38 7.5 -68.5t24.5 -52t45 -33t69 -11.5t69 11.5t45 33t24.5 52t7.5 68.5v399h126v-421q0 -56 -18 -104t-53 -83.5t-85.5 -56t-115.5 -20.5t-115.5 20.5t-85.5 56t-53 83.5t-18 104v421zM199 873h146l73 -156h-105z" />
    <glyph glyph-name="Uacute" unicode="&#xda;" horiz-adv-x="674" 
d="M65 667h126v-399q0 -38 7.5 -68.5t24.5 -52t45 -33t69 -11.5t69 11.5t45 33t24.5 52t7.5 68.5v399h126v-421q0 -56 -18 -104t-53 -83.5t-85.5 -56t-115.5 -20.5t-115.5 20.5t-85.5 56t-53 83.5t-18 104v421zM351 873h146l-114 -156h-105z" />
    <glyph glyph-name="Ucircumflex" unicode="&#xdb;" horiz-adv-x="674" 
d="M65 667h126v-399q0 -38 7.5 -68.5t24.5 -52t45 -33t69 -11.5t69 11.5t45 33t24.5 52t7.5 68.5v399h126v-421q0 -56 -18 -104t-53 -83.5t-85.5 -56t-115.5 -20.5t-115.5 20.5t-85.5 56t-53 83.5t-18 104v421zM283 873h111l110 -156h-104l-62 82l-61 -82h-104z" />
    <glyph glyph-name="Udieresis" unicode="&#xdc;" horiz-adv-x="674" 
d="M65 667h126v-399q0 -38 7.5 -68.5t24.5 -52t45 -33t69 -11.5t69 11.5t45 33t24.5 52t7.5 68.5v399h126v-421q0 -56 -18 -104t-53 -83.5t-85.5 -56t-115.5 -20.5t-115.5 20.5t-85.5 56t-53 83.5t-18 104v421zM382 854h123v-117h-123v117zM169 854h123v-117h-123v117z" />
    <glyph glyph-name="Yacute" unicode="&#xdd;" horiz-adv-x="616" 
d="M244 293l-231 374h138l160 -266l160 266h132l-231 -374v-293h-128v293zM329 873h146l-114 -156h-105z" />
    <glyph glyph-name="Thorn" unicode="&#xde;" horiz-adv-x="558" 
d="M70 667h121v-114h93q70 0 114.5 -21.5t70.5 -53t36 -67.5t10 -66q0 -56 -20 -96t-52 -65.5t-72 -37.5t-79 -12h-101v-134h-121v667zM282 240q48 0 76.5 28t28.5 73q0 47 -30 76.5t-75 29.5h-91v-207h91z" />
    <glyph glyph-name="germandbls" unicode="&#xdf;" horiz-adv-x="591" 
d="M58 474q0 60 16.5 100t47 64.5t72.5 35t93 10.5q37 0 71.5 -10.5t61 -30.5t42 -48t15.5 -63q0 -38 -17.5 -66.5t-38.5 -51.5t-38.5 -42.5t-17.5 -38.5q0 -18 21 -29.5t56 -19.5q61 -14 93.5 -47t32.5 -100q0 -69 -48.5 -108.5t-136.5 -39.5q-101 0 -166 57l71 82
q21 -19 45.5 -29t45.5 -10q40 0 57.5 9.5t17.5 32.5q0 10 -2.5 19.5t-11.5 17.5t-26 16t-46 17q-23 7 -44.5 15.5t-38 23.5t-26.5 37.5t-10 56.5q0 31 16.5 56.5t36.5 47.5t36.5 40.5t16.5 35.5q0 29 -19 49t-61 20q-54 0 -76.5 -31t-22.5 -83v-469h-118v474z" />
    <glyph glyph-name="agrave" unicode="&#xe0;" horiz-adv-x="504" 
d="M335 44q-19 -23 -58 -41t-87 -18q-29 0 -57.5 9t-52 27.5t-38 47.5t-14.5 68q0 40 15 71.5t42 53t65 32.5t84 11q14 0 31 -0.5t33 -1.5q18 -1 37 -2v11q0 35 -28 55t-73 20q-50 0 -80 -13t-53 -28l-54 80q14 10 32 20.5t42 19t55.5 14t73.5 5.5q45 0 81.5 -12.5t62.5 -35
t40 -54t14 -68.5v-315h-110zM335 212q-18 1 -35 2q-14 1 -29.5 1.5t-26.5 0.5q-57 0 -80 -22.5t-23 -51.5q0 -30 21.5 -47t63.5 -17q21 0 40.5 7t34.5 19t24.5 28t9.5 34v46zM134 682h126l48 -142h-95z" />
    <glyph glyph-name="aacute" unicode="&#xe1;" horiz-adv-x="504" 
d="M335 44q-19 -23 -58 -41t-87 -18q-29 0 -57.5 9t-52 27.5t-38 47.5t-14.5 68q0 40 15 71.5t42 53t65 32.5t84 11q14 0 31 -0.5t33 -1.5q18 -1 37 -2v11q0 35 -28 55t-73 20q-50 0 -80 -13t-53 -28l-54 80q14 10 32 20.5t42 19t55.5 14t73.5 5.5q45 0 81.5 -12.5t62.5 -35
t40 -54t14 -68.5v-315h-110zM335 212q-18 1 -35 2q-14 1 -29.5 1.5t-26.5 0.5q-57 0 -80 -22.5t-23 -51.5q0 -30 21.5 -47t63.5 -17q21 0 40.5 7t34.5 19t24.5 28t9.5 34v46zM247 682h126l-79 -142h-95z" />
    <glyph glyph-name="acircumflex" unicode="&#xe2;" horiz-adv-x="504" 
d="M335 44q-19 -23 -58 -41t-87 -18q-29 0 -57.5 9t-52 27.5t-38 47.5t-14.5 68q0 40 15 71.5t42 53t65 32.5t84 11q14 0 31 -0.5t33 -1.5q18 -1 37 -2v11q0 35 -28 55t-73 20q-50 0 -80 -13t-53 -28l-54 80q14 10 32 20.5t42 19t55.5 14t73.5 5.5q45 0 81.5 -12.5t62.5 -35
t40 -54t14 -68.5v-315h-110zM335 212q-18 1 -35 2q-14 1 -29.5 1.5t-26.5 0.5q-57 0 -80 -22.5t-23 -51.5q0 -30 21.5 -47t63.5 -17q21 0 40.5 7t34.5 19t24.5 28t9.5 34v46zM188 682h111l104 -142h-104l-56 76l-55 -76h-104z" />
    <glyph glyph-name="atilde" unicode="&#xe3;" horiz-adv-x="504" 
d="M335 44q-19 -23 -58 -41t-87 -18q-29 0 -57.5 9t-52 27.5t-38 47.5t-14.5 68q0 40 15 71.5t42 53t65 32.5t84 11q14 0 31 -0.5t33 -1.5q18 -1 37 -2v11q0 35 -28 55t-73 20q-50 0 -80 -13t-53 -28l-54 80q14 10 32 20.5t42 19t55.5 14t73.5 5.5q45 0 81.5 -12.5t62.5 -35
t40 -54t14 -68.5v-315h-110zM335 212q-18 1 -35 2q-14 1 -29.5 1.5t-26.5 0.5q-57 0 -80 -22.5t-23 -51.5q0 -30 21.5 -47t63.5 -17q21 0 40.5 7t34.5 19t24.5 28t9.5 34v46zM49 615q8 9 20.5 19t28 18.5t34 14.5t38.5 6q21 0 36 -6.5t29 -14t29 -14t35 -6.5q26 0 45 8.5
t43 27.5l45 -70q-8 -9 -20.5 -19.5t-27.5 -19.5t-33.5 -15t-38.5 -6q-21 0 -36.5 6.5t-29.5 15t-29 15t-35 6.5q-27 0 -46 -9.5t-42 -26.5z" />
    <glyph glyph-name="adieresis" unicode="&#xe4;" horiz-adv-x="504" 
d="M335 44q-19 -23 -58 -41t-87 -18q-29 0 -57.5 9t-52 27.5t-38 47.5t-14.5 68q0 40 15 71.5t42 53t65 32.5t84 11q14 0 31 -0.5t33 -1.5q18 -1 37 -2v11q0 35 -28 55t-73 20q-50 0 -80 -13t-53 -28l-54 80q14 10 32 20.5t42 19t55.5 14t73.5 5.5q45 0 81.5 -12.5t62.5 -35
t40 -54t14 -68.5v-315h-110zM335 212q-18 1 -35 2q-14 1 -29.5 1.5t-26.5 0.5q-57 0 -80 -22.5t-23 -51.5q0 -30 21.5 -47t63.5 -17q21 0 40.5 7t34.5 19t24.5 28t9.5 34v46zM290 666h115v-109h-115v109zM105 666h115v-109h-115v109z" />
    <glyph glyph-name="aring" unicode="&#xe5;" horiz-adv-x="504" 
d="M335 44q-19 -23 -58 -41t-87 -18q-29 0 -57.5 9t-52 27.5t-38 47.5t-14.5 68q0 40 15 71.5t42 53t65 32.5t84 11q14 0 31 -0.5t33 -1.5q18 -1 37 -2v11q0 35 -28 55t-73 20q-50 0 -80 -13t-53 -28l-54 80q14 10 32 20.5t42 19t55.5 14t73.5 5.5q45 0 81.5 -12.5t62.5 -35
t40 -54t14 -68.5v-315h-110zM335 212q-18 1 -35 2q-14 1 -29.5 1.5t-26.5 0.5q-57 0 -80 -22.5t-23 -51.5q0 -30 21.5 -47t63.5 -17q21 0 40.5 7t34.5 19t24.5 28t9.5 34v46zM137 644q0 24 9.5 45t25 36t37 23.5t45.5 8.5t45.5 -8.5t37.5 -23.5t25.5 -35.5t9.5 -44.5
t-9.5 -45t-25 -36t-37 -23.5t-45.5 -8.5t-45.5 8.5t-37.5 23.5t-25.5 35.5t-9.5 44.5zM254 600q19 0 31.5 12.5t12.5 31.5q0 18 -12.5 30.5t-30.5 12.5q-19 0 -31.5 -12.5t-12.5 -30.5q0 -19 12.5 -31.5t30.5 -12.5z" />
    <glyph glyph-name="ae" unicode="&#xe6;" horiz-adv-x="831" 
d="M47 426q13 10 30.5 20.5t41 19t54 14t69.5 5.5q59 0 98.5 -16.5t67.5 -49.5q27 31 69 48.5t90 17.5q64 0 108.5 -23.5t71.5 -61.5t39 -86t12 -98v-17h-350q0 -26 11.5 -47t30 -36t42 -23t46.5 -8q34 0 59.5 6.5t43.5 15t29.5 18t17.5 15.5l64 -72l-16.5 -16.5t-39 -28.5
t-65 -27t-94.5 -12q-60 0 -107 22t-80 60q-18 -22 -37.5 -37.5t-42 -25t-48.5 -14t-59 -4.5q-34 0 -65.5 9t-56 27.5t-39 47.5t-14.5 68q0 40 15 70t42 49.5t65 29.5t84 10q13 0 30 -0.5t32 -1.5t26 -1.5t13 -0.5v20q0 35 -26.5 55t-68.5 20q-54 0 -85 -13t-54 -28zM335 203
q-4 0 -15 1t-24.5 1.5t-27.5 1t-24 0.5q-53 0 -79.5 -18t-26.5 -47q0 -30 23 -47t65 -17q49 0 79 26t30 62v37zM677 284q0 18 -7 36t-20.5 32.5t-34.5 24t-48 9.5q-29 0 -51.5 -9.5t-37.5 -24t-23 -32.5t-8 -36h230z" />
    <glyph glyph-name="ccedilla" unicode="&#xe7;" horiz-adv-x="492" 
d="M471 62q-33 -35 -78 -56t-105 -21t-107 18t-79 51t-49 79t-17 102q0 51 18.5 96.5t51.5 79.5t79.5 54t102.5 20q57 0 104 -20.5t80 -55.5l-75 -76q-20 23 -47 36t-62 13q-34 0 -59 -12.5t-41.5 -32.5t-24.5 -47t-8 -55q0 -27 8 -53t24.5 -47t41.5 -34t59 -13
q35 0 64 13.5t49 36.5zM163 -150q19 -7 36 -9.5t33 -2.5q58 0 58 32q0 12 -12.5 21t-41.5 9q-17 0 -33.5 -3t-29.5 -8l11 67q18 5 36.5 8.5t47.5 3.5q54 0 84.5 -26t30.5 -67q0 -26 -11 -46t-29.5 -33.5t-42 -20t-48.5 -6.5q-24 0 -42.5 2t-32.5 5q-16 3 -27 7z" />
    <glyph glyph-name="egrave" unicode="&#xe8;" horiz-adv-x="538" 
d="M499 68l-16.5 -16.5t-39 -28.5t-65 -27t-94.5 -12q-56 0 -102 19t-78.5 52.5t-50 80.5t-17.5 104q0 52 17.5 96.5t49 77.5t75 52t96.5 19q64 0 108.5 -23.5t71.5 -61.5t39 -86t12 -98v-17h-350q0 -26 11.5 -47t30 -36t42 -23t46.5 -8q34 0 59.5 6.5t43.5 15t29.5 18
t17.5 15.5zM384 284q0 18 -7 36t-20.5 32.5t-34.5 24t-48 9.5q-29 0 -51.5 -9.5t-37.5 -24t-23 -32.5t-8 -36h230zM159 682h126l48 -142h-95z" />
    <glyph glyph-name="eacute" unicode="&#xe9;" horiz-adv-x="538" 
d="M499 68l-16.5 -16.5t-39 -28.5t-65 -27t-94.5 -12q-56 0 -102 19t-78.5 52.5t-50 80.5t-17.5 104q0 52 17.5 96.5t49 77.5t75 52t96.5 19q64 0 108.5 -23.5t71.5 -61.5t39 -86t12 -98v-17h-350q0 -26 11.5 -47t30 -36t42 -23t46.5 -8q34 0 59.5 6.5t43.5 15t29.5 18
t17.5 15.5zM384 284q0 18 -7 36t-20.5 32.5t-34.5 24t-48 9.5q-29 0 -51.5 -9.5t-37.5 -24t-23 -32.5t-8 -36h230zM274 682h126l-79 -142h-95z" />
    <glyph glyph-name="ecircumflex" unicode="&#xea;" horiz-adv-x="538" 
d="M499 68l-16.5 -16.5t-39 -28.5t-65 -27t-94.5 -12q-56 0 -102 19t-78.5 52.5t-50 80.5t-17.5 104q0 52 17.5 96.5t49 77.5t75 52t96.5 19q64 0 108.5 -23.5t71.5 -61.5t39 -86t12 -98v-17h-350q0 -26 11.5 -47t30 -36t42 -23t46.5 -8q34 0 59.5 6.5t43.5 15t29.5 18
t17.5 15.5zM384 284q0 18 -7 36t-20.5 32.5t-34.5 24t-48 9.5q-29 0 -51.5 -9.5t-37.5 -24t-23 -32.5t-8 -36h230zM215 682h111l104 -142h-104l-56 76l-55 -76h-104z" />
    <glyph glyph-name="edieresis" unicode="&#xeb;" horiz-adv-x="538" 
d="M499 68l-16.5 -16.5t-39 -28.5t-65 -27t-94.5 -12q-56 0 -102 19t-78.5 52.5t-50 80.5t-17.5 104q0 52 17.5 96.5t49 77.5t75 52t96.5 19q64 0 108.5 -23.5t71.5 -61.5t39 -86t12 -98v-17h-350q0 -26 11.5 -47t30 -36t42 -23t46.5 -8q34 0 59.5 6.5t43.5 15t29.5 18
t17.5 15.5zM384 284q0 18 -7 36t-20.5 32.5t-34.5 24t-48 9.5q-29 0 -51.5 -9.5t-37.5 -24t-23 -32.5t-8 -36h230zM305 666h115v-109h-115v109zM120 666h115v-109h-115v109z" />
    <glyph glyph-name="igrave" unicode="&#xec;" horiz-adv-x="244" 
d="M63 469h118v-469h-118v469zM-4 682h126l48 -142h-95z" />
    <glyph glyph-name="iacute" unicode="&#xed;" horiz-adv-x="244" 
d="M63 469h118v-469h-118v469zM122 682h126l-79 -142h-95z" />
    <glyph glyph-name="icircumflex" unicode="&#xee;" horiz-adv-x="244" 
d="M63 469h118v-469h-118v469zM68 682h111l104 -142h-104l-56 76l-55 -76h-104z" />
    <glyph glyph-name="idieresis" unicode="&#xef;" horiz-adv-x="244" 
d="M63 469h118v-469h-118v469zM158 666h115v-109h-115v109zM-27 666h115v-109h-115v109z" />
    <glyph glyph-name="eth" unicode="&#xf0;" horiz-adv-x="555" 
d="M197 577q-36 9 -80 12l14 88q67 -5 121 -18l43 64l64 -38l-35 -53q102 -49 148.5 -143t46.5 -219q0 -74 -20 -127.5t-54 -89t-79.5 -52.5t-96.5 -17q-45 0 -87.5 15t-74.5 45t-51.5 74t-19.5 102q0 48 17.5 90.5t48.5 75t74.5 51.5t94.5 19q42 0 66.5 -6.5t37.5 -11.5
q-15 34 -41.5 63t-64.5 49l-47 -70l-64 38zM393 328q-14 8 -39.5 18t-59.5 10q-61 0 -100 -36.5t-39 -99.5q0 -30 9 -54.5t25 -42.5t38.5 -27.5t48.5 -9.5q23 0 45.5 10.5t40.5 32.5t29 56.5t11 82.5q0 13 -1.5 27.5t-7.5 32.5z" />
    <glyph glyph-name="ntilde" unicode="&#xf1;" horiz-adv-x="551" 
d="M58 469h113l3 -53q9 10 21.5 21t30 20.5t39.5 15.5t50 6q88 0 134 -52.5t46 -141.5v-285h-118v284q0 45 -24.5 69.5t-63.5 24.5q-24 0 -45 -9.5t-36 -26.5t-23.5 -39.5t-8.5 -48.5v-254h-118v469zM87 615q8 9 20.5 19t28 18.5t34 14.5t38.5 6q21 0 36 -6.5t29 -14t29 -14
t35 -6.5q26 0 45 8.5t43 27.5l45 -70q-8 -9 -20.5 -19.5t-27.5 -19.5t-33.5 -15t-38.5 -6q-21 0 -36.5 6.5t-29.5 15t-29 15t-35 6.5q-27 0 -46 -9.5t-42 -26.5z" />
    <glyph glyph-name="ograve" unicode="&#xf2;" horiz-adv-x="576" 
d="M36 235q0 51 18.5 96.5t51.5 79.5t79.5 54t102.5 20t102.5 -20t79.5 -54t51.5 -79.5t18.5 -96.5t-18.5 -96.5t-51.5 -80t-79.5 -54.5t-102.5 -20t-102.5 20t-79.5 54.5t-51.5 80t-18.5 96.5zM288 86q34 0 59 13.5t41.5 35.5t24.5 48t8 52q0 25 -8 51.5t-24.5 48t-41.5 35
t-59 13.5t-59 -13.5t-41.5 -35t-24.5 -48t-8 -51.5q0 -26 8 -52t24.5 -48t41.5 -35.5t59 -13.5zM174 682h126l48 -142h-95z" />
    <glyph glyph-name="oacute" unicode="&#xf3;" horiz-adv-x="576" 
d="M36 235q0 51 18.5 96.5t51.5 79.5t79.5 54t102.5 20t102.5 -20t79.5 -54t51.5 -79.5t18.5 -96.5t-18.5 -96.5t-51.5 -80t-79.5 -54.5t-102.5 -20t-102.5 20t-79.5 54.5t-51.5 80t-18.5 96.5zM288 86q34 0 59 13.5t41.5 35.5t24.5 48t8 52q0 25 -8 51.5t-24.5 48t-41.5 35
t-59 13.5t-59 -13.5t-41.5 -35t-24.5 -48t-8 -51.5q0 -26 8 -52t24.5 -48t41.5 -35.5t59 -13.5zM284 682h126l-79 -142h-95z" />
    <glyph glyph-name="ocircumflex" unicode="&#xf4;" horiz-adv-x="576" 
d="M36 235q0 51 18.5 96.5t51.5 79.5t79.5 54t102.5 20t102.5 -20t79.5 -54t51.5 -79.5t18.5 -96.5t-18.5 -96.5t-51.5 -80t-79.5 -54.5t-102.5 -20t-102.5 20t-79.5 54.5t-51.5 80t-18.5 96.5zM288 86q34 0 59 13.5t41.5 35.5t24.5 48t8 52q0 25 -8 51.5t-24.5 48t-41.5 35
t-59 13.5t-59 -13.5t-41.5 -35t-24.5 -48t-8 -51.5q0 -26 8 -52t24.5 -48t41.5 -35.5t59 -13.5zM233 682h111l104 -142h-104l-56 76l-55 -76h-104z" />
    <glyph glyph-name="otilde" unicode="&#xf5;" horiz-adv-x="576" 
d="M36 235q0 51 18.5 96.5t51.5 79.5t79.5 54t102.5 20t102.5 -20t79.5 -54t51.5 -79.5t18.5 -96.5t-18.5 -96.5t-51.5 -80t-79.5 -54.5t-102.5 -20t-102.5 20t-79.5 54.5t-51.5 80t-18.5 96.5zM288 86q34 0 59 13.5t41.5 35.5t24.5 48t8 52q0 25 -8 51.5t-24.5 48t-41.5 35
t-59 13.5t-59 -13.5t-41.5 -35t-24.5 -48t-8 -51.5q0 -26 8 -52t24.5 -48t41.5 -35.5t59 -13.5zM99 615q8 9 20.5 19t28 18.5t34 14.5t38.5 6q21 0 36 -6.5t29 -14t29 -14t35 -6.5q26 0 45 8.5t43 27.5l45 -70q-8 -9 -20.5 -19.5t-27.5 -19.5t-33.5 -15t-38.5 -6
q-21 0 -36.5 6.5t-29.5 15t-29 15t-35 6.5q-27 0 -46 -9.5t-42 -26.5z" />
    <glyph glyph-name="odieresis" unicode="&#xf6;" horiz-adv-x="576" 
d="M36 235q0 51 18.5 96.5t51.5 79.5t79.5 54t102.5 20t102.5 -20t79.5 -54t51.5 -79.5t18.5 -96.5t-18.5 -96.5t-51.5 -80t-79.5 -54.5t-102.5 -20t-102.5 20t-79.5 54.5t-51.5 80t-18.5 96.5zM288 86q34 0 59 13.5t41.5 35.5t24.5 48t8 52q0 25 -8 51.5t-24.5 48t-41.5 35
t-59 13.5t-59 -13.5t-41.5 -35t-24.5 -48t-8 -51.5q0 -26 8 -52t24.5 -48t41.5 -35.5t59 -13.5zM324 666h115v-109h-115v109zM139 666h115v-109h-115v109z" />
    <glyph glyph-name="divide" unicode="&#xf7;" 
d="M73 371h398v-99h-398v99zM219 214h106v-100h-106v100zM219 530h106v-100h-106v100z" />
    <glyph glyph-name="oslash" unicode="&#xf8;" horiz-adv-x="576" 
d="M111 53q-36 35 -55.5 81.5t-19.5 100.5q0 51 18.5 96.5t51.5 79.5t79.5 54t102.5 20q58 0 107 -23l47 68l73 -45l-49 -71q35 -35 54.5 -80.5t19.5 -98.5q0 -51 -18.5 -96.5t-51.5 -80t-79.5 -54.5t-102.5 -20q-29 0 -56 5.5t-50 15.5l-44 -63l-72 45zM334 375
q-22 8 -46 8q-34 0 -59 -13.5t-41.5 -35t-24.5 -48t-8 -51.5q0 -22 5.5 -44t17.5 -42zM243 93q18 -7 45 -7q34 0 59 13.5t41.5 35.5t24.5 48t8 52q0 42 -22 83z" />
    <glyph glyph-name="ugrave" unicode="&#xf9;" horiz-adv-x="551" 
d="M56 469h118v-284q0 -45 24.5 -69.5t63.5 -24.5q24 0 45 9.5t36 26.5t23.5 39.5t8.5 48.5v254h118v-469h-113l-3 53q-9 -10 -22 -21t-30 -20.5t-39 -15.5t-50 -6q-88 0 -134 52.5t-46 141.5v285zM159 682h126l48 -142h-95z" />
    <glyph glyph-name="uacute" unicode="&#xfa;" horiz-adv-x="551" 
d="M56 469h118v-284q0 -45 24.5 -69.5t63.5 -24.5q24 0 45 9.5t36 26.5t23.5 39.5t8.5 48.5v254h118v-469h-113l-3 53q-9 -10 -22 -21t-30 -20.5t-39 -15.5t-50 -6q-88 0 -134 52.5t-46 141.5v285zM270 682h126l-79 -142h-95z" />
    <glyph glyph-name="ucircumflex" unicode="&#xfb;" horiz-adv-x="551" 
d="M56 469h118v-284q0 -45 24.5 -69.5t63.5 -24.5q24 0 45 9.5t36 26.5t23.5 39.5t8.5 48.5v254h118v-469h-113l-3 53q-9 -10 -22 -21t-30 -20.5t-39 -15.5t-50 -6q-88 0 -134 52.5t-46 141.5v285zM221 682h111l104 -142h-104l-56 76l-55 -76h-104z" />
    <glyph glyph-name="udieresis" unicode="&#xfc;" horiz-adv-x="551" 
d="M56 469h118v-284q0 -45 24.5 -69.5t63.5 -24.5q24 0 45 9.5t36 26.5t23.5 39.5t8.5 48.5v254h118v-469h-113l-3 53q-9 -10 -22 -21t-30 -20.5t-39 -15.5t-50 -6q-88 0 -134 52.5t-46 141.5v285zM315 666h115v-109h-115v109zM130 666h115v-109h-115v109z" />
    <glyph glyph-name="yacute" unicode="&#xfd;" horiz-adv-x="527" 
d="M77 -93q10 -8 22 -15.5t30 -7.5q24 0 39.5 20t32.5 62l15 38l-211 465h136l134 -321l118 321h129l-196 -469q-14 -35 -28 -72t-34.5 -68.5t-50.5 -51.5t-76 -20q-40 0 -66.5 9.5t-46.5 26.5zM270 682h126l-79 -142h-95z" />
    <glyph glyph-name="thorn" unicode="&#xfe;" horiz-adv-x="571" 
d="M58 667h117v-246q18 20 56.5 38.5t92.5 18.5t93.5 -20t65.5 -54t39 -77.5t13 -90.5q0 -55 -16 -96.5t-40 -70.5q-40 -48 -87.5 -66.5t-97.5 -18.5q-23 0 -39.5 2t-30 5.5t-25 8t-24.5 9.5v-211h-117v869zM175 115q35 -29 106 -29q32 0 57 12t42.5 33t26.5 48t9 57
t-6.5 55.5t-21 44.5t-37.5 29.5t-57 10.5q-27 0 -49 -11.5t-37.5 -29.5t-24 -39.5t-8.5 -41.5v-139z" />
    <glyph glyph-name="ydieresis" unicode="&#xff;" horiz-adv-x="527" 
d="M77 -93q10 -8 22 -15.5t30 -7.5q24 0 39.5 20t32.5 62l15 38l-211 465h136l134 -321l118 321h129l-196 -469q-14 -35 -28 -72t-34.5 -68.5t-50.5 -51.5t-76 -20q-40 0 -66.5 9.5t-46.5 26.5zM304 666h115v-109h-115v109zM119 666h115v-109h-115v109z" />
    <glyph glyph-name="Amacron" unicode="&#x100;" horiz-adv-x="654" 
d="M262 667h130l253 -667h-140l-58 169h-248l-58 -169h-132zM411 273l-88 259l-89 -259h177zM170 844h315v-97h-315v97z" />
    <glyph glyph-name="amacron" unicode="&#x101;" horiz-adv-x="504" 
d="M335 44q-19 -23 -58 -41t-87 -18q-29 0 -57.5 9t-52 27.5t-38 47.5t-14.5 68q0 40 15 71.5t42 53t65 32.5t84 11q14 0 31 -0.5t33 -1.5q18 -1 37 -2v11q0 35 -28 55t-73 20q-50 0 -80 -13t-53 -28l-54 80q14 10 32 20.5t42 19t55.5 14t73.5 5.5q45 0 81.5 -12.5t62.5 -35
t40 -54t14 -68.5v-315h-110zM335 212q-18 1 -35 2q-14 1 -29.5 1.5t-26.5 0.5q-57 0 -80 -22.5t-23 -51.5q0 -30 21.5 -47t63.5 -17q21 0 40.5 7t34.5 19t24.5 28t9.5 34v46zM128 650h261v-92h-261v92z" />
    <glyph glyph-name="Abreve" unicode="&#x102;" horiz-adv-x="654" 
d="M262 667h130l253 -667h-140l-58 169h-248l-58 -169h-132zM411 273l-88 259l-89 -259h177zM259 863q0 -26 17.5 -46.5t49.5 -20.5t49.5 20.5t17.5 46.5h93q0 -29 -10 -55.5t-29.5 -47.5t-50 -33.5t-70.5 -12.5q-41 0 -71 12.5t-49.5 33.5t-29.5 47.5t-10 55.5h93z" />
    <glyph glyph-name="abreve" unicode="&#x103;" horiz-adv-x="504" 
d="M335 44q-19 -23 -58 -41t-87 -18q-29 0 -57.5 9t-52 27.5t-38 47.5t-14.5 68q0 40 15 71.5t42 53t65 32.5t84 11q14 0 31 -0.5t33 -1.5q18 -1 37 -2v11q0 35 -28 55t-73 20q-50 0 -80 -13t-53 -28l-54 80q14 10 32 20.5t42 19t55.5 14t73.5 5.5q45 0 81.5 -12.5t62.5 -35
t40 -54t14 -68.5v-315h-110zM335 212q-18 1 -35 2q-14 1 -29.5 1.5t-26.5 0.5q-57 0 -80 -22.5t-23 -51.5q0 -30 21.5 -47t63.5 -17q21 0 40.5 7t34.5 19t24.5 28t9.5 34v46zM181 682q0 -24 13.5 -44.5t48.5 -20.5t48.5 20.5t13.5 44.5h92q0 -27 -9.5 -52.5t-29 -45.5
t-48.5 -32t-67 -12t-67 12t-48.5 32t-29 45.5t-9.5 52.5h92z" />
    <glyph glyph-name="Aogonek" unicode="&#x104;" horiz-adv-x="654" 
d="M262 667h130l253 -667h-140l-58 169h-248l-58 -169h-132zM411 273l-88 259l-89 -259h177zM645 0q-19 -19 -33 -42t-14 -40q0 -21 26 -21q14 0 26 4.5t24 12.5l29 -75q-26 -17 -56.5 -27t-56.5 -10q-52 0 -76.5 22t-24.5 58q0 30 18.5 60.5t44.5 57.5h93z" />
    <glyph glyph-name="aogonek" unicode="&#x105;" horiz-adv-x="504" 
d="M335 44q-19 -23 -58 -41t-87 -18q-29 0 -57.5 9t-52 27.5t-38 47.5t-14.5 68q0 40 15 71.5t42 53t65 32.5t84 11q14 0 31 -0.5t33 -1.5q18 -1 37 -2v11q0 35 -28 55t-73 20q-50 0 -80 -13t-53 -28l-54 80q14 10 32 20.5t42 19t55.5 14t73.5 5.5q45 0 81.5 -12.5t62.5 -35
t40 -54t14 -68.5v-315h-110zM335 212q-18 1 -35 2q-14 1 -29.5 1.5t-26.5 0.5q-57 0 -80 -22.5t-23 -51.5q0 -30 21.5 -47t63.5 -17q21 0 40.5 7t34.5 19t24.5 28t9.5 34v46zM448 0q-19 -18 -35.5 -40.5t-16.5 -39.5q0 -21 25 -21q16 0 29 5.5t26 13.5l28 -74
q-25 -17 -54.5 -26.5t-55.5 -9.5q-51 0 -74.5 21.5t-23.5 56.5q0 29 18 58.5t43 55.5h91z" />
    <glyph glyph-name="Cacute" unicode="&#x106;" horiz-adv-x="680" 
d="M657 122q-15 -23 -41.5 -47t-62.5 -44.5t-79 -33.5t-91 -13q-75 0 -137 26t-107 72.5t-70 109.5t-25 138q0 73 25 137t70.5 112t108.5 76t139 28q49 0 90 -10.5t74.5 -28.5t59.5 -42.5t46 -52.5l-89 -79q-32 46 -74.5 74t-106.5 28q-49 0 -88 -19.5t-66.5 -52t-42 -76
t-14.5 -91.5t14.5 -90t41.5 -73t64.5 -49t84.5 -18q43 0 73.5 10t52 25t36 31.5t26.5 28.5zM392 873h146l-114 -156h-105z" />
    <glyph glyph-name="cacute" unicode="&#x107;" horiz-adv-x="492" 
d="M471 62q-33 -35 -78 -56t-105 -21t-107 18t-79 51t-49 79t-17 102q0 51 18.5 96.5t51.5 79.5t79.5 54t102.5 20q57 0 104 -20.5t80 -55.5l-75 -76q-20 23 -47 36t-62 13q-34 0 -59 -12.5t-41.5 -32.5t-24.5 -47t-8 -55q0 -27 8 -53t24.5 -47t41.5 -34t59 -13
q35 0 64 13.5t49 36.5zM274 682h126l-79 -142h-95z" />
    <glyph glyph-name="Ccircumflex" unicode="&#x108;" horiz-adv-x="680" 
d="M657 122q-15 -23 -41.5 -47t-62.5 -44.5t-79 -33.5t-91 -13q-75 0 -137 26t-107 72.5t-70 109.5t-25 138q0 73 25 137t70.5 112t108.5 76t139 28q49 0 90 -10.5t74.5 -28.5t59.5 -42.5t46 -52.5l-89 -79q-32 46 -74.5 74t-106.5 28q-49 0 -88 -19.5t-66.5 -52t-42 -76
t-14.5 -91.5t14.5 -90t41.5 -73t64.5 -49t84.5 -18q43 0 73.5 10t52 25t36 31.5t26.5 28.5zM332 873h111l110 -156h-104l-62 82l-61 -82h-104z" />
    <glyph glyph-name="ccircumflex" unicode="&#x109;" horiz-adv-x="492" 
d="M471 62q-33 -35 -78 -56t-105 -21t-107 18t-79 51t-49 79t-17 102q0 51 18.5 96.5t51.5 79.5t79.5 54t102.5 20q57 0 104 -20.5t80 -55.5l-75 -76q-20 23 -47 36t-62 13q-34 0 -59 -12.5t-41.5 -32.5t-24.5 -47t-8 -55q0 -27 8 -53t24.5 -47t41.5 -34t59 -13
q35 0 64 13.5t49 36.5zM231 682h111l104 -142h-104l-56 76l-55 -76h-104z" />
    <glyph glyph-name="Cdotaccent" unicode="&#x10a;" horiz-adv-x="680" 
d="M657 122q-15 -23 -41.5 -47t-62.5 -44.5t-79 -33.5t-91 -13q-75 0 -137 26t-107 72.5t-70 109.5t-25 138q0 73 25 137t70.5 112t108.5 76t139 28q49 0 90 -10.5t74.5 -28.5t59.5 -42.5t46 -52.5l-89 -79q-32 46 -74.5 74t-106.5 28q-49 0 -88 -19.5t-66.5 -52t-42 -76
t-14.5 -91.5t14.5 -90t41.5 -73t64.5 -49t84.5 -18q43 0 73.5 10t52 25t36 31.5t26.5 28.5zM314 857h129v-123h-129v123z" />
    <glyph glyph-name="cdotaccent" unicode="&#x10b;" horiz-adv-x="492" 
d="M471 62q-33 -35 -78 -56t-105 -21t-107 18t-79 51t-49 79t-17 102q0 51 18.5 96.5t51.5 79.5t79.5 54t102.5 20q57 0 104 -20.5t80 -55.5l-75 -76q-20 23 -47 36t-62 13q-34 0 -59 -12.5t-41.5 -32.5t-24.5 -47t-8 -55q0 -27 8 -53t24.5 -47t41.5 -34t59 -13
q35 0 64 13.5t49 36.5zM221 677h126v-124h-126v124z" />
    <glyph glyph-name="Ccaron" unicode="&#x10c;" horiz-adv-x="680" 
d="M657 122q-15 -23 -41.5 -47t-62.5 -44.5t-79 -33.5t-91 -13q-75 0 -137 26t-107 72.5t-70 109.5t-25 138q0 73 25 137t70.5 112t108.5 76t139 28q49 0 90 -10.5t74.5 -28.5t59.5 -42.5t46 -52.5l-89 -79q-32 46 -74.5 74t-106.5 28q-49 0 -88 -19.5t-66.5 -52t-42 -76
t-14.5 -91.5t14.5 -90t41.5 -73t64.5 -49t84.5 -18q43 0 73.5 10t52 25t36 31.5t26.5 28.5zM224 873h104l62 -82l61 82h104l-110 -156h-111z" />
    <glyph glyph-name="ccaron" unicode="&#x10d;" horiz-adv-x="492" 
d="M471 62q-33 -35 -78 -56t-105 -21t-107 18t-79 51t-49 79t-17 102q0 51 18.5 96.5t51.5 79.5t79.5 54t102.5 20q57 0 104 -20.5t80 -55.5l-75 -76q-20 23 -47 36t-62 13q-34 0 -59 -12.5t-41.5 -32.5t-24.5 -47t-8 -55q0 -27 8 -53t24.5 -47t41.5 -34t59 -13
q35 0 64 13.5t49 36.5zM124 682h104l56 -76l55 76h104l-104 -142h-111z" />
    <glyph glyph-name="Dcaron" unicode="&#x10e;" horiz-adv-x="717" 
d="M70 667h249q78 0 143 -20t112 -61t73 -105t26 -151q0 -83 -26.5 -144.5t-74 -103t-112.5 -62t-142 -20.5h-248v667zM307 112q114 0 174 55t60 161q0 105 -55.5 166t-178.5 61h-111v-443h111zM155 873h104l62 -82l61 82h104l-110 -156h-111z" />
    <glyph glyph-name="dcaron" unicode="&#x10f;" horiz-adv-x="644" 
d="M382 46q-9 -10 -22 -21t-30.5 -20t-39 -15t-48.5 -6q-38 0 -75 16t-66 47t-47 76t-18 103q0 55 16 96.5t40 70.5q20 24 44 40t48.5 26.5t47.5 15t40 4.5q23 0 38 -1.5t27 -4t22 -6.5t23 -9v209h117v-667h-114zM382 352q-17 14 -39.5 19.5t-57.5 5.5t-58 -13.5t-40 -35.5
q-15 -20 -23.5 -46.5t-8.5 -55.5q0 -60 30 -100t87 -40q30 0 51 11.5t34 29.5t19 39.5t6 41.5v144zM560 667h118l-34 -181h-84v181z" />
    <glyph glyph-name="Dcroat" unicode="&#x110;" horiz-adv-x="717" 
d="M70 287h-67v102h67v278h249q78 0 143 -20t112 -61t73 -105t26 -151q0 -83 -26.5 -144.5t-74 -103t-112.5 -62t-142 -20.5h-248v287zM310 113q114 0 174 55t60 161q0 105 -55.5 166t-178.5 61h-114v-167h155v-102h-155v-174h114z" />
    <glyph glyph-name="dcroat" unicode="&#x111;" horiz-adv-x="557" 
d="M382 46q-9 -10 -22 -21t-30.5 -20t-39 -15t-48.5 -6q-38 0 -75 15t-66 44t-47 73t-18 102q0 55 16 92.5t40 66.5q20 24 44 39.5t48.5 24.5t47.5 13t40 4q23 0 38 -1.5t27 -4t22 -6.5t23 -9v85h-171v79h171v66h117v-66h56v-79h-56v-522h-117v46zM382 331q-17 11 -40.5 18
t-56.5 7q-35 0 -58 -11t-40 -33q-15 -20 -23.5 -42.5t-8.5 -51.5q0 -60 30 -96t87 -36q30 0 51 11.5t34 29.5t19 39.5t6 41.5v123z" />
    <glyph glyph-name="Emacron" unicode="&#x112;" horiz-adv-x="568" 
d="M70 667h432v-111h-306v-157h225v-112h-225v-174h329v-113h-455v667zM134 844h315v-97h-315v97z" />
    <glyph glyph-name="emacron" unicode="&#x113;" horiz-adv-x="538" 
d="M499 68l-16.5 -16.5t-39 -28.5t-65 -27t-94.5 -12q-56 0 -102 19t-78.5 52.5t-50 80.5t-17.5 104q0 52 17.5 96.5t49 77.5t75 52t96.5 19q64 0 108.5 -23.5t71.5 -61.5t39 -86t12 -98v-17h-350q0 -26 11.5 -47t30 -36t42 -23t46.5 -8q34 0 59.5 6.5t43.5 15t29.5 18
t17.5 15.5zM384 284q0 18 -7 36t-20.5 32.5t-34.5 24t-48 9.5q-29 0 -51.5 -9.5t-37.5 -24t-23 -32.5t-8 -36h230zM142 649h261v-92h-261v92z" />
    <glyph glyph-name="Ebreve" unicode="&#x114;" horiz-adv-x="568" 
d="M70 667h432v-111h-306v-157h225v-112h-225v-174h329v-113h-455v667zM223 863q0 -26 17.5 -46.5t49.5 -20.5t49.5 20.5t17.5 46.5h93q0 -29 -10 -55.5t-29.5 -47.5t-50 -33.5t-70.5 -12.5q-41 0 -71 12.5t-49.5 33.5t-29.5 47.5t-10 55.5h93z" />
    <glyph glyph-name="ebreve" unicode="&#x115;" horiz-adv-x="538" 
d="M499 68l-16.5 -16.5t-39 -28.5t-65 -27t-94.5 -12q-56 0 -102 19t-78.5 52.5t-50 80.5t-17.5 104q0 52 17.5 96.5t49 77.5t75 52t96.5 19q64 0 108.5 -23.5t71.5 -61.5t39 -86t12 -98v-17h-350q0 -26 11.5 -47t30 -36t42 -23t46.5 -8q34 0 59.5 6.5t43.5 15t29.5 18
t17.5 15.5zM384 284q0 18 -7 36t-20.5 32.5t-34.5 24t-48 9.5q-29 0 -51.5 -9.5t-37.5 -24t-23 -32.5t-8 -36h230zM216 682q0 -24 13.5 -44.5t48.5 -20.5t48.5 20.5t13.5 44.5h92q0 -27 -9.5 -52.5t-29 -45.5t-48.5 -32t-67 -12t-67 12t-48.5 32t-29 45.5t-9.5 52.5h92z" />
    <glyph glyph-name="Edotaccent" unicode="&#x116;" horiz-adv-x="568" 
d="M70 667h432v-111h-306v-157h225v-112h-225v-174h329v-113h-455v667zM230 857h129v-123h-129v123z" />
    <glyph glyph-name="edotaccent" unicode="&#x117;" horiz-adv-x="538" 
d="M499 68l-16.5 -16.5t-39 -28.5t-65 -27t-94.5 -12q-56 0 -102 19t-78.5 52.5t-50 80.5t-17.5 104q0 52 17.5 96.5t49 77.5t75 52t96.5 19q64 0 108.5 -23.5t71.5 -61.5t39 -86t12 -98v-17h-350q0 -26 11.5 -47t30 -36t42 -23t46.5 -8q34 0 59.5 6.5t43.5 15t29.5 18
t17.5 15.5zM384 284q0 18 -7 36t-20.5 32.5t-34.5 24t-48 9.5q-29 0 -51.5 -9.5t-37.5 -24t-23 -32.5t-8 -36h230zM214 677h126v-124h-126v124z" />
    <glyph glyph-name="Eogonek" unicode="&#x118;" horiz-adv-x="568" 
d="M70 667h432v-111h-306v-157h225v-112h-225v-174h329v-113h-455v667zM467 0q-19 -19 -33 -42t-14 -40q0 -21 26 -21q14 0 26 4.5t24 12.5l29 -75q-26 -17 -56.5 -27t-56.5 -10q-52 0 -76.5 22t-24.5 58q0 30 18.5 60.5t44.5 57.5h93z" />
    <glyph glyph-name="eogonek" unicode="&#x119;" horiz-adv-x="538" 
d="M473 -156q-25 -17 -54.5 -26.5t-55.5 -9.5q-51 0 -74.5 21.5t-23.5 56.5q0 25 13.5 50.5t33.5 48.5q-7 0 -14 -0.5t-14 -0.5q-56 0 -102 20t-78.5 55t-50 81.5t-17.5 99.5q0 52 18 96.5t49.5 77.5t75.5 52t97 19q60 0 103.5 -23.5t71.5 -61.5t41 -86t13 -98v-17h-350
q0 -26 11.5 -47t30 -36t42 -23t46.5 -8q34 0 59.5 6.5t43.5 15t29.5 18t17.5 15.5l64 -72q-4 -4 -19 -16.5t-39 -30.5q-11 -8 -24 -19.5t-24.5 -25t-19.5 -28.5t-8 -28q0 -21 25 -21q16 0 29 5.5t26 13.5zM387 284q0 18 -7 35.5t-20.5 32t-34.5 23.5t-48 9t-50 -9t-39 -23.5
t-25 -32t-9 -35.5h233z" />
    <glyph glyph-name="Ecaron" unicode="&#x11a;" horiz-adv-x="568" 
d="M70 667h432v-111h-306v-157h225v-112h-225v-174h329v-113h-455v667zM130 873h104l62 -82l61 82h104l-110 -156h-111z" />
    <glyph glyph-name="ecaron" unicode="&#x11b;" horiz-adv-x="538" 
d="M499 68l-16.5 -16.5t-39 -28.5t-65 -27t-94.5 -12q-56 0 -102 19t-78.5 52.5t-50 80.5t-17.5 104q0 52 17.5 96.5t49 77.5t75 52t96.5 19q64 0 108.5 -23.5t71.5 -61.5t39 -86t12 -98v-17h-350q0 -26 11.5 -47t30 -36t42 -23t46.5 -8q34 0 59.5 6.5t43.5 15t29.5 18
t17.5 15.5zM384 284q0 18 -7 36t-20.5 32.5t-34.5 24t-48 9.5q-29 0 -51.5 -9.5t-37.5 -24t-23 -32.5t-8 -36h230zM115 682h104l56 -76l55 76h104l-104 -142h-111z" />
    <glyph glyph-name="Gcircumflex" unicode="&#x11c;" horiz-adv-x="723" 
d="M421 353h239v-276q-39 -37 -103 -65t-164 -28q-82 0 -146.5 27t-109.5 73.5t-69 109.5t-24 136t25 137t70.5 112t108.5 76t139 28q49 0 90 -10.5t74.5 -28.5t59.5 -42.5t46 -52.5l-89 -79q-32 46 -74.5 74t-106.5 28q-49 0 -88 -19.5t-66.5 -52t-42 -76t-14.5 -91.5
q0 -54 17.5 -97t48 -74t71 -47.5t85.5 -16.5q92 0 142 44v104h-119v107zM325 873h111l110 -156h-104l-62 82l-61 -82h-104z" />
    <glyph glyph-name="gcircumflex" unicode="&#x11d;" horiz-adv-x="555" 
d="M134 -76q28 -19 60.5 -27.5t76.5 -8.5q46 0 77 28t31 78v51q-24 -20 -52.5 -32.5t-75.5 -12.5q-51 0 -90.5 17t-67.5 47.5t-42.5 72t-14.5 91.5q0 52 18.5 98t53 80t83.5 53.5t110 19.5t112.5 -10t83.5 -21v-456q0 -49 -17 -87t-47 -64t-71 -39.5t-89 -13.5
q-37 0 -65.5 3.5t-51 9.5t-41 15t-34.5 21zM379 367q-14 5 -29 7.5t-47 2.5q-36 0 -63 -12t-46 -32t-28.5 -46.5t-9.5 -55.5q0 -54 27 -91t87 -37q54 0 81.5 23t27.5 73v168zM232 682h111l104 -142h-104l-56 76l-55 -76h-104z" />
    <glyph glyph-name="Gbreve" unicode="&#x11e;" horiz-adv-x="723" 
d="M421 353h239v-276q-39 -37 -103 -65t-164 -28q-82 0 -146.5 27t-109.5 73.5t-69 109.5t-24 136t25 137t70.5 112t108.5 76t139 28q49 0 90 -10.5t74.5 -28.5t59.5 -42.5t46 -52.5l-89 -79q-32 46 -74.5 74t-106.5 28q-49 0 -88 -19.5t-66.5 -52t-42 -76t-14.5 -91.5
q0 -54 17.5 -97t48 -74t71 -47.5t85.5 -16.5q92 0 142 44v104h-119v107zM312 863q0 -26 17.5 -46.5t49.5 -20.5t49.5 20.5t17.5 46.5h93q0 -29 -10 -55.5t-29.5 -47.5t-50 -33.5t-70.5 -12.5q-41 0 -71 12.5t-49.5 33.5t-29.5 47.5t-10 55.5h93z" />
    <glyph glyph-name="gbreve" unicode="&#x11f;" horiz-adv-x="555" 
d="M134 -76q28 -19 60.5 -27.5t76.5 -8.5q46 0 77 28t31 78v51q-24 -20 -52.5 -32.5t-75.5 -12.5q-51 0 -90.5 17t-67.5 47.5t-42.5 72t-14.5 91.5q0 52 18.5 98t53 80t83.5 53.5t110 19.5t112.5 -10t83.5 -21v-456q0 -49 -17 -87t-47 -64t-71 -39.5t-89 -13.5
q-37 0 -65.5 3.5t-51 9.5t-41 15t-34.5 21zM379 367q-14 5 -29 7.5t-47 2.5q-36 0 -63 -12t-46 -32t-28.5 -46.5t-9.5 -55.5q0 -54 27 -91t87 -37q54 0 81.5 23t27.5 73v168zM237 682q0 -24 13.5 -44.5t48.5 -20.5t48.5 20.5t13.5 44.5h92q0 -27 -9.5 -52.5t-29 -45.5
t-48.5 -32t-67 -12t-67 12t-48.5 32t-29 45.5t-9.5 52.5h92z" />
    <glyph glyph-name="Gdotaccent" unicode="&#x120;" horiz-adv-x="723" 
d="M421 353h239v-276q-39 -37 -103 -65t-164 -28q-82 0 -146.5 27t-109.5 73.5t-69 109.5t-24 136t25 137t70.5 112t108.5 76t139 28q49 0 90 -10.5t74.5 -28.5t59.5 -42.5t46 -52.5l-89 -79q-32 46 -74.5 74t-106.5 28q-49 0 -88 -19.5t-66.5 -52t-42 -76t-14.5 -91.5
q0 -54 17.5 -97t48 -74t71 -47.5t85.5 -16.5q92 0 142 44v104h-119v107zM318 857h129v-123h-129v123z" />
    <glyph glyph-name="gdotaccent" unicode="&#x121;" horiz-adv-x="555" 
d="M134 -76q28 -19 60.5 -27.5t76.5 -8.5q46 0 77 28t31 78v51q-24 -20 -52.5 -32.5t-75.5 -12.5q-51 0 -90.5 17t-67.5 47.5t-42.5 72t-14.5 91.5q0 52 18.5 98t53 80t83.5 53.5t110 19.5t112.5 -10t83.5 -21v-456q0 -49 -17 -87t-47 -64t-71 -39.5t-89 -13.5
q-37 0 -65.5 3.5t-51 9.5t-41 15t-34.5 21zM379 367q-14 5 -29 7.5t-47 2.5q-36 0 -63 -12t-46 -32t-28.5 -46.5t-9.5 -55.5q0 -54 27 -91t87 -37q54 0 81.5 23t27.5 73v168zM237 677h126v-124h-126v124z" />
    <glyph glyph-name="uni0122" unicode="&#x122;" horiz-adv-x="723" 
d="M421 353h239v-276q-39 -37 -103 -65t-164 -28q-82 0 -146.5 27t-109.5 73.5t-69 109.5t-24 136t25 137t70.5 112t108.5 76t139 28q49 0 90 -10.5t74.5 -28.5t59.5 -42.5t46 -52.5l-89 -79q-32 46 -74.5 74t-106.5 28q-49 0 -88 -19.5t-66.5 -52t-42 -76t-14.5 -91.5
q0 -54 17.5 -97t48 -74t71 -47.5t85.5 -16.5q92 0 142 44v104h-119v107zM320 -51h139l-88 -158h-104z" />
    <glyph glyph-name="uni0123" unicode="&#x123;" horiz-adv-x="555" 
d="M134 -76q28 -19 60.5 -27.5t76.5 -8.5q46 0 77 28t31 78v51q-24 -20 -52.5 -32.5t-75.5 -12.5q-51 0 -90.5 17t-67.5 47.5t-42.5 72t-14.5 91.5q0 52 18.5 98t53 80t83.5 53.5t110 19.5t112.5 -10t83.5 -21v-456q0 -49 -17 -87t-47 -64t-71 -39.5t-89 -13.5
q-37 0 -65.5 3.5t-51 9.5t-41 15t-34.5 21zM379 367q-14 5 -29 7.5t-47 2.5q-36 0 -63 -12t-46 -32t-28.5 -46.5t-9.5 -55.5q0 -54 27 -91t87 -37q54 0 81.5 23t27.5 73v168zM310 682h95l-48 -142h-126z" />
    <glyph glyph-name="Hcircumflex" unicode="&#x124;" horiz-adv-x="723" 
d="M70 667h126v-268h331v268h126v-667h-126v287h-331v-287h-126v667zM305 873h111l110 -156h-104l-62 82l-61 -82h-104z" />
    <glyph glyph-name="hcircumflex" unicode="&#x125;" horiz-adv-x="551" 
d="M58 667h116v-246q18 20 52.5 39t88.5 19q43 0 77 -14t56.5 -39.5t34.5 -61.5t12 -79v-285h-118v284q0 45 -24.5 69.5t-63.5 24.5q-24 0 -45 -9.5t-36 -26.5t-23.5 -39.5t-8.5 -48.5v-254h-118v667zM62 873h111l110 -156h-104l-62 82l-61 -82h-104z" />
    <glyph glyph-name="Hbar" unicode="&#x126;" horiz-adv-x="727" 
d="M72 487h-62v88h62v92h125v-92h333v92h125v-92h62v-88h-62v-487h-125v287h-333v-287h-125v487zM530 399v88h-333v-88h333z" />
    <glyph glyph-name="hbar" unicode="&#x127;" horiz-adv-x="553" 
d="M60 522h-56v79h56v66h116v-66h172v-79h-172v-121q18 20 52.5 39t88.5 19q43 0 77 -14t56.5 -39.5t34.5 -61.5t12 -79v-265h-118v264q0 45 -24.5 69.5t-63.5 24.5q-24 0 -45 -9.5t-36 -26.5t-23.5 -39.5t-8.5 -48.5v-234h-118v522z" />
    <glyph glyph-name="Itilde" unicode="&#x128;" horiz-adv-x="266" 
d="M70 667h126v-667h-126v667zM-66 804q9 9 22 20t29.5 20t35.5 15t41 6t38 -6.5t30.5 -14.5t30 -14.5t36.5 -6.5q35 0 56.5 13t35.5 24l49 -75q-9 -9 -22 -20t-29 -20.5t-35 -16t-41 -6.5t-38 7t-31 15t-30.5 15t-36.5 7q-35 0 -56.5 -13t-35.5 -24z" />
    <glyph glyph-name="itilde" unicode="&#x129;" horiz-adv-x="244" 
d="M63 469h118v-469h-118v469zM-68 615q8 9 20.5 19t28 18.5t34 14.5t38.5 6q21 0 36 -6.5t29 -14t29 -14t35 -6.5q26 0 45 8.5t43 27.5l45 -70q-8 -9 -20.5 -19.5t-27.5 -19.5t-33.5 -15t-38.5 -6q-21 0 -36.5 6.5t-29.5 15t-29 15t-35 6.5q-27 0 -46 -9.5t-42 -26.5z" />
    <glyph glyph-name="Imacron" unicode="&#x12a;" horiz-adv-x="266" 
d="M70 667h126v-667h-126v667zM-23 844h315v-97h-315v97z" />
    <glyph glyph-name="imacron" unicode="&#x12b;" horiz-adv-x="244" 
d="M63 469h118v-469h-118v469zM-8 649h261v-92h-261v92z" />
    <glyph glyph-name="Ibreve" unicode="&#x12c;" horiz-adv-x="266" 
d="M70 667h126v-667h-126v667zM66 863q0 -26 17.5 -46.5t49.5 -20.5t49.5 20.5t17.5 46.5h93q0 -29 -10 -55.5t-29.5 -47.5t-50 -33.5t-70.5 -12.5q-41 0 -71 12.5t-49.5 33.5t-29.5 47.5t-10 55.5h93z" />
    <glyph glyph-name="ibreve" unicode="&#x12d;" horiz-adv-x="244" 
d="M63 469h118v-469h-118v469zM63 682q0 -24 13.5 -44.5t48.5 -20.5t48.5 20.5t13.5 44.5h92q0 -27 -9.5 -52.5t-29 -45.5t-48.5 -32t-67 -12t-67 12t-48.5 32t-29 45.5t-9.5 52.5h92z" />
    <glyph glyph-name="Iogonek" unicode="&#x12e;" horiz-adv-x="266" 
d="M70 667h126v-667h-126v667zM197 0q-19 -19 -33 -42t-14 -40q0 -21 26 -21q14 0 26 4.5t24 12.5l29 -75q-26 -17 -56.5 -27t-56.5 -10q-52 0 -76.5 22t-24.5 58q0 30 18.5 60.5t44.5 57.5h93z" />
    <glyph glyph-name="iogonek" unicode="&#x12f;" horiz-adv-x="244" 
d="M59 667h126v-124h-126v124zM63 469h118v-469h-118v469zM182 0q-19 -18 -35.5 -40.5t-16.5 -39.5q0 -21 25 -21q16 0 29 5.5t26 13.5l28 -74q-25 -17 -54.5 -26.5t-55.5 -9.5q-51 0 -74.5 21.5t-23.5 56.5q0 29 18 58.5t43 55.5h91z" />
    <glyph glyph-name="Idotaccent" unicode="&#x130;" horiz-adv-x="266" 
d="M70 667h126v-667h-126v667zM68 857h129v-123h-129v123z" />
    <glyph glyph-name="dotlessi" unicode="&#x131;" horiz-adv-x="244" 
d="M63 469h118v-469h-118v469z" />
    <glyph glyph-name="IJ" unicode="&#x132;" horiz-adv-x="791" 
d="M70 667h126v-667h-126v667zM381 157q32 -35 59 -46.5t62 -11.5q18 0 35.5 6.5t31.5 19.5t22.5 32.5t8.5 45.5v464h126v-471q0 -60 -19.5 -101t-50.5 -66t-70 -36t-78 -11q-78 0 -128.5 24.5t-86.5 70.5z" />
    <glyph glyph-name="ij" unicode="&#x133;" horiz-adv-x="475" 
d="M59 667h126v-124h-126v124zM63 469h118v-469h-118v469zM289 667h126v-124h-126v124zM188 -83q9 -5 22 -10.5t32 -5.5q23 0 37.5 19t14.5 56v493h118v-470q0 -35 -5.5 -70t-22 -64t-46.5 -47t-80 -18q-42 0 -69.5 12.5t-44.5 24.5z" />
    <glyph glyph-name="Jcircumflex" unicode="&#x134;" horiz-adv-x="508" 
d="M98 157q32 -35 59 -46.5t62 -11.5q18 0 35.5 6.5t31.5 19.5t22.5 32.5t8.5 45.5v464h126v-471q0 -60 -19.5 -101t-50.5 -66t-70 -36t-78 -11q-78 0 -128.5 24.5t-86.5 70.5zM326 873h111l110 -156h-104l-62 82l-61 -82h-104z" />
    <glyph glyph-name="jcircumflex" unicode="&#x135;" horiz-adv-x="244" 
d="M-43 -83q9 -5 22 -10.5t32 -5.5q23 0 37.5 19t14.5 56v493h118v-470q0 -35 -5.5 -70t-22 -64t-46.5 -47t-80 -18q-42 0 -69.5 12.5t-44.5 24.5zM68 682h111l104 -142h-104l-56 76l-55 -76h-104z" />
    <glyph glyph-name="uni0136" unicode="&#x136;" horiz-adv-x="621" 
d="M70 667h126v-274l247 274h143l-246 -273l273 -394h-152l-203 303l-62 -69v-234h-126v667zM246 -51h139l-88 -158h-104z" />
    <glyph glyph-name="uni0137" unicode="&#x137;" horiz-adv-x="512" 
d="M58 667h118v-364l169 166h139l-176 -173l196 -296h-141l-136 216l-51 -50v-166h-118v667zM203 -51h126l-79 -142h-95z" />
    <glyph glyph-name="kgreenlandic" unicode="&#x138;" horiz-adv-x="512" 
d="M58 469h118v-166l169 166h139l-176 -173l196 -296h-141l-136 216l-51 -50v-166h-118v469z" />
    <glyph glyph-name="Lacute" unicode="&#x139;" horiz-adv-x="553" 
d="M70 667h126v-555h329v-112h-455v667zM153 873h146l-114 -156h-105z" />
    <glyph glyph-name="lacute" unicode="&#x13a;" horiz-adv-x="234" 
d="M58 667h118v-667h-118v667zM131 873h146l-114 -156h-105z" />
    <glyph glyph-name="uni013B" unicode="&#x13b;" horiz-adv-x="553" 
d="M70 667h126v-555h329v-112h-455v667zM233 -51h139l-88 -158h-104z" />
    <glyph glyph-name="uni013C" unicode="&#x13c;" horiz-adv-x="234" 
d="M58 667h118v-667h-118v667zM53 -51h126l-79 -142h-95z" />
    <glyph glyph-name="Lcaron" unicode="&#x13d;" horiz-adv-x="553" 
d="M70 667h126v-555h329v-112h-455v667zM288 667h118l-34 -181h-84v181z" />
    <glyph glyph-name="lcaron" unicode="&#x13e;" horiz-adv-x="321" 
d="M58 667h118v-667h-118v667zM237 667h118l-34 -181h-84v181z" />
    <glyph glyph-name="Ldot" unicode="&#x13f;" horiz-adv-x="553" 
d="M70 667h126v-555h329v-112h-455v667zM341 439h129v-123h-129v123z" />
    <glyph glyph-name="ldot" unicode="&#x140;" horiz-adv-x="385" 
d="M58 667h118v-667h-118v667zM248 413h123v-117h-123v117z" />
    <glyph glyph-name="Lslash" unicode="&#x141;" horiz-adv-x="553" 
d="M70 252l-67 -42v109l67 42v306h126v-226l143 91v-110l-143 -90v-220h329v-112h-455v252z" />
    <glyph glyph-name="lslash" unicode="&#x142;" horiz-adv-x="234" 
d="M58 262l-55 -35v100l55 35v305h118v-228l55 36v-100l-55 -36v-339h-118v262z" />
    <glyph glyph-name="Nacute" unicode="&#x143;" horiz-adv-x="713" 
d="M70 667h127l323 -474v474h123v-667h-124l-326 480v-480h-123v667zM368 873h146l-114 -156h-105z" />
    <glyph glyph-name="nacute" unicode="&#x144;" horiz-adv-x="551" 
d="M58 469h113l3 -53q9 10 21.5 21t30 20.5t39.5 15.5t50 6q88 0 134 -52.5t46 -141.5v-285h-118v284q0 45 -24.5 69.5t-63.5 24.5q-24 0 -45 -9.5t-36 -26.5t-23.5 -39.5t-8.5 -48.5v-254h-118v469zM279 682h126l-79 -142h-95z" />
    <glyph glyph-name="uni0145" unicode="&#x145;" horiz-adv-x="713" 
d="M70 667h127l323 -474v474h123v-667h-124l-326 480v-480h-123v667zM310 -51h139l-88 -158h-104z" />
    <glyph glyph-name="uni0146" unicode="&#x146;" horiz-adv-x="551" 
d="M58 469h113l3 -53q9 10 21.5 21t30 20.5t39.5 15.5t50 6q88 0 134 -52.5t46 -141.5v-285h-118v284q0 45 -24.5 69.5t-63.5 24.5q-24 0 -45 -9.5t-36 -26.5t-23.5 -39.5t-8.5 -48.5v-254h-118v469zM216 -51h126l-79 -142h-95z" />
    <glyph glyph-name="Ncaron" unicode="&#x147;" horiz-adv-x="713" 
d="M70 667h127l323 -474v474h123v-667h-124l-326 480v-480h-123v667zM194 873h104l62 -82l61 82h104l-110 -156h-111z" />
    <glyph glyph-name="ncaron" unicode="&#x148;" horiz-adv-x="551" 
d="M58 469h113l3 -53q9 10 21.5 21t30 20.5t39.5 15.5t50 6q88 0 134 -52.5t46 -141.5v-285h-118v284q0 45 -24.5 69.5t-63.5 24.5q-24 0 -45 -9.5t-36 -26.5t-23.5 -39.5t-8.5 -48.5v-254h-118v469zM122 682h104l56 -76l55 76h104l-104 -142h-111z" />
    <glyph glyph-name="napostrophe" unicode="&#x149;" horiz-adv-x="636" 
d="M143 469h113l3 -53q9 10 21.5 21t30 20.5t39.5 15.5t50 6q88 0 134 -52.5t46 -141.5v-285h-118v284q0 45 -24.5 69.5t-63.5 24.5q-24 0 -45 -9.5t-36 -26.5t-23.5 -39.5t-8.5 -48.5v-254h-118v469zM21 682h119l-39 -142h-88z" />
    <glyph glyph-name="Eng" unicode="&#x14a;" horiz-adv-x="713" 
d="M70 667h127l323 -474v474h123v-667q0 -35 -6.5 -71t-24 -64.5t-48.5 -46.5t-81 -18q-45 0 -73 12.5t-47 24.5l46 84q9 -5 23 -10.5t33 -5.5q25 0 39.5 19.5t14.5 57.5v18l-326 480v-480h-123v667z" />
    <glyph glyph-name="eng" unicode="&#x14b;" horiz-adv-x="551" 
d="M58 469h113l3 -53q9 10 21.5 21t30 20.5t39.5 15.5t50 6q43 0 77 -14t56.5 -39.5t34.5 -61.5t12 -79v-285q0 -35 -5.5 -70t-22 -64t-46.5 -47t-80 -18q-42 0 -69.5 12.5t-44.5 24.5l44 80q9 -5 22 -10.5t32 -5.5q23 0 37.5 19t14.5 56v307q0 45 -24.5 69.5t-63.5 24.5
q-24 0 -45 -9.5t-36 -26.5t-23.5 -39.5t-8.5 -48.5v-254h-118v469z" />
    <glyph glyph-name="Omacron" unicode="&#x14c;" horiz-adv-x="782" 
d="M391 -18q-73 0 -136 27.5t-110 75.5t-74 112t-27 137t27 137t73.5 111.5t110 75t136.5 27.5t136 -27.5t110 -75t74 -111.5t27 -137t-27 -137t-74 -112t-110 -75.5t-136 -27.5zM391 101q49 0 89 19t68 51.5t43 75.5t15 90q0 48 -15 90.5t-43 74.5t-68 50.5t-89 18.5
q-50 0 -89.5 -18.5t-67.5 -50.5t-43 -74.5t-15 -90.5q0 -47 15 -90t43 -75.5t67.5 -51.5t89.5 -19zM235 844h315v-97h-315v97z" />
    <glyph glyph-name="omacron" unicode="&#x14d;" horiz-adv-x="576" 
d="M36 235q0 51 18.5 96.5t51.5 79.5t79.5 54t102.5 20t102.5 -20t79.5 -54t51.5 -79.5t18.5 -96.5t-18.5 -96.5t-51.5 -80t-79.5 -54.5t-102.5 -20t-102.5 20t-79.5 54.5t-51.5 80t-18.5 96.5zM288 86q34 0 59 13.5t41.5 35.5t24.5 48t8 52q0 25 -8 51.5t-24.5 48t-41.5 35
t-59 13.5t-59 -13.5t-41.5 -35t-24.5 -48t-8 -51.5q0 -26 8 -52t24.5 -48t41.5 -35.5t59 -13.5zM159 650h261v-92h-261v92z" />
    <glyph glyph-name="Obreve" unicode="&#x14e;" horiz-adv-x="782" 
d="M391 -18q-73 0 -136 27.5t-110 75.5t-74 112t-27 137t27 137t73.5 111.5t110 75t136.5 27.5t136 -27.5t110 -75t74 -111.5t27 -137t-27 -137t-74 -112t-110 -75.5t-136 -27.5zM391 101q49 0 89 19t68 51.5t43 75.5t15 90q0 48 -15 90.5t-43 74.5t-68 50.5t-89 18.5
q-50 0 -89.5 -18.5t-67.5 -50.5t-43 -74.5t-15 -90.5q0 -47 15 -90t43 -75.5t67.5 -51.5t89.5 -19zM324 863q0 -26 17.5 -46.5t49.5 -20.5t49.5 20.5t17.5 46.5h93q0 -29 -10 -55.5t-29.5 -47.5t-50 -33.5t-70.5 -12.5q-41 0 -71 12.5t-49.5 33.5t-29.5 47.5t-10 55.5h93z
" />
    <glyph glyph-name="obreve" unicode="&#x14f;" horiz-adv-x="576" 
d="M36 235q0 51 18.5 96.5t51.5 79.5t79.5 54t102.5 20t102.5 -20t79.5 -54t51.5 -79.5t18.5 -96.5t-18.5 -96.5t-51.5 -80t-79.5 -54.5t-102.5 -20t-102.5 20t-79.5 54.5t-51.5 80t-18.5 96.5zM288 86q34 0 59 13.5t41.5 35.5t24.5 48t8 52q0 25 -8 51.5t-24.5 48t-41.5 35
t-59 13.5t-59 -13.5t-41.5 -35t-24.5 -48t-8 -51.5q0 -26 8 -52t24.5 -48t41.5 -35.5t59 -13.5zM227 682q0 -24 13.5 -44.5t48.5 -20.5t48.5 20.5t13.5 44.5h92q0 -27 -9.5 -52.5t-29 -45.5t-48.5 -32t-67 -12t-67 12t-48.5 32t-29 45.5t-9.5 52.5h92z" />
    <glyph glyph-name="Ohungarumlaut" unicode="&#x150;" horiz-adv-x="782" 
d="M391 -18q-73 0 -136 27.5t-110 75.5t-74 112t-27 137t27 137t73.5 111.5t110 75t136.5 27.5t136 -27.5t110 -75t74 -111.5t27 -137t-27 -137t-74 -112t-110 -75.5t-136 -27.5zM391 101q49 0 89 19t68 51.5t43 75.5t15 90q0 48 -15 90.5t-43 74.5t-68 50.5t-89 18.5
q-50 0 -89.5 -18.5t-67.5 -50.5t-43 -74.5t-15 -90.5q0 -47 15 -90t43 -75.5t67.5 -51.5t89.5 -19zM329 873h138l-114 -156h-97zM514 873h138l-114 -156h-97z" />
    <glyph glyph-name="ohungarumlaut" unicode="&#x151;" horiz-adv-x="576" 
d="M36 235q0 51 18.5 96.5t51.5 79.5t79.5 54t102.5 20t102.5 -20t79.5 -54t51.5 -79.5t18.5 -96.5t-18.5 -96.5t-51.5 -80t-79.5 -54.5t-102.5 -20t-102.5 20t-79.5 54.5t-51.5 80t-18.5 96.5zM288 86q34 0 59 13.5t41.5 35.5t24.5 48t8 52q0 25 -8 51.5t-24.5 48t-41.5 35
t-59 13.5t-59 -13.5t-41.5 -35t-24.5 -48t-8 -51.5q0 -26 8 -52t24.5 -48t41.5 -35.5t59 -13.5zM365 682h119l-79 -142h-88zM203 682h119l-79 -142h-88z" />
    <glyph glyph-name="OE" unicode="&#x152;" horiz-adv-x="1104" 
d="M606 83q-16 -23 -39.5 -41.5t-52 -31.5t-61.5 -20.5t-68 -7.5q-71 0 -133 27.5t-108.5 75.5t-73 112t-26.5 137t26.5 137t73 111.5t108.5 75t133 27.5q72 0 130.5 -28t90.5 -71v81h432v-111h-310v-157h229v-112h-229v-174h333v-113h-455v83zM391 101q49 0 88.5 19
t67.5 51.5t43 75.5t15 90q0 48 -15 90.5t-43 74.5t-68 50.5t-89 18.5q-50 0 -89.5 -18.5t-67.5 -50.5t-43 -74.5t-15 -90.5q0 -47 15 -90t43.5 -75.5t68 -51.5t89.5 -19z" />
    <glyph glyph-name="oe" unicode="&#x153;" horiz-adv-x="922" 
d="M883 68l-16.5 -16.5t-39 -28.5t-65 -27t-94.5 -12q-62 0 -110.5 24t-81.5 69q-30 -42 -79.5 -67.5t-108.5 -25.5q-56 0 -102.5 20t-79.5 54.5t-51.5 80t-18.5 96.5t18.5 96.5t51.5 79.5t79.5 54t102.5 20q58 0 106.5 -25t79.5 -65q32 43 78.5 66.5t105.5 23.5
q64 0 108.5 -23.5t71.5 -61.5t39 -86t12 -98v-17h-350q0 -26 11.5 -47t30 -36t42 -23t46.5 -8q34 0 59.5 6.5t43.5 15t29.5 18t17.5 15.5zM768 284q0 18 -7 36t-20.5 32.5t-34.5 24t-48 9.5q-29 0 -51.5 -9.5t-37.5 -24t-23 -32.5t-8 -36h230zM288 86q34 0 59 13.5
t41.5 35.5t24.5 48t8 52q0 25 -8 51.5t-24.5 48t-41.5 35t-59 13.5t-59 -13.5t-41.5 -35t-24.5 -48t-8 -51.5q0 -26 8 -52t24.5 -48t41.5 -35.5t59 -13.5z" />
    <glyph glyph-name="Racute" unicode="&#x154;" horiz-adv-x="586" 
d="M70 667h221q63 0 107 -19t71 -48.5t39.5 -64.5t12.5 -67q0 -63 -27.5 -111.5t-84.5 -77.5l154 -279h-142l-135 263h-95v-263h-121v667zM292 367q48 0 74.5 28t26.5 68q0 43 -28 70t-73 27h-101v-193h101zM279 873h146l-114 -156h-105z" />
    <glyph glyph-name="racute" unicode="&#x155;" horiz-adv-x="382" 
d="M58 469h113l3 -59q8 10 20.5 22t29.5 22t39.5 17t51.5 7q17 0 30.5 -2t27.5 -7l-24 -111q-12 5 -24.5 7t-29.5 2q-24 0 -46 -8t-38 -23t-25.5 -36t-9.5 -47v-253h-118v469zM214 682h126l-79 -142h-95z" />
    <glyph glyph-name="uni0156" unicode="&#x156;" horiz-adv-x="586" 
d="M70 667h221q63 0 107 -19t71 -48.5t39.5 -64.5t12.5 -67q0 -63 -27.5 -111.5t-84.5 -77.5l154 -279h-142l-135 263h-95v-263h-121v667zM292 367q48 0 74.5 28t26.5 68q0 43 -28 70t-73 27h-101v-193h101zM236 -51h139l-88 -158h-104z" />
    <glyph glyph-name="uni0157" unicode="&#x157;" horiz-adv-x="382" 
d="M58 469h113l3 -59q8 10 20.5 22t29.5 22t39.5 17t51.5 7q17 0 30.5 -2t27.5 -7l-24 -111q-12 5 -24.5 7t-29.5 2q-24 0 -46 -8t-38 -23t-25.5 -36t-9.5 -47v-253h-118v469zM57 -51h126l-79 -142h-95z" />
    <glyph glyph-name="Rcaron" unicode="&#x158;" horiz-adv-x="586" 
d="M70 667h221q63 0 107 -19t71 -48.5t39.5 -64.5t12.5 -67q0 -63 -27.5 -111.5t-84.5 -77.5l154 -279h-142l-135 263h-95v-263h-121v667zM292 367q48 0 74.5 28t26.5 68q0 43 -28 70t-73 27h-101v-193h101zM108 873h104l62 -82l61 82h104l-110 -156h-111z" />
    <glyph glyph-name="rcaron" unicode="&#x159;" horiz-adv-x="382" 
d="M58 469h113l3 -59q8 10 20.5 22t29.5 22t39.5 17t51.5 7q17 0 30.5 -2t27.5 -7l-24 -111q-12 5 -24.5 7t-29.5 2q-24 0 -46 -8t-38 -23t-25.5 -36t-9.5 -47v-253h-118v469zM50 682h104l56 -76l55 76h104l-104 -142h-111z" />
    <glyph glyph-name="Sacute" unicode="&#x15a;" horiz-adv-x="593" 
d="M119 188q12 -14 28.5 -29.5t37 -29t46 -22.5t57.5 -9q59 0 87.5 27t28.5 65q0 21 -8 37.5t-27 29t-49.5 22.5t-75.5 19q-46 9 -79.5 28t-55.5 45t-33 57.5t-11 64.5q0 38 14 72.5t43 61t72.5 42.5t102.5 16q53 0 91 -12t63.5 -28t39.5 -31.5t20 -22.5l-83 -78
q-5 4 -16 14.5t-27.5 20.5t-39.5 18t-52 8q-26 0 -45 -7t-31.5 -18t-18.5 -24.5t-6 -25.5q0 -18 6.5 -32t22 -26t42.5 -21.5t68 -17.5q39 -8 75 -24t63.5 -41.5t44 -62t16.5 -87.5q0 -44 -18 -81t-50 -65t-76 -43.5t-96 -15.5q-50 0 -90.5 12t-73 30.5t-56 40.5t-39.5 42z
M309 873h146l-114 -156h-105z" />
    <glyph glyph-name="sacute" unicode="&#x15b;" horiz-adv-x="478" 
d="M106 134q22 -22 55.5 -36.5t76.5 -14.5q38 0 61 10t23 33q0 10 -4 18.5t-17 16.5t-36 16t-62 17q-24 6 -50 16t-48.5 27.5t-37 42t-14.5 58.5q0 35 17 62.5t44.5 46t62 28.5t69.5 10q62 0 105.5 -13t78.5 -39l-61 -83q-19 14 -50 25.5t-73 11.5t-58.5 -12.5t-16.5 -30.5
q0 -22 27.5 -34.5t85.5 -26.5q36 -8 64.5 -20t49 -30t31.5 -42.5t11 -58.5t-16 -61.5t-43.5 -46.5t-64 -29.5t-77.5 -10.5q-66 0 -119 18.5t-85 54.5zM247 682h126l-79 -142h-95z" />
    <glyph glyph-name="Scircumflex" unicode="&#x15c;" horiz-adv-x="593" 
d="M119 188q12 -14 28.5 -29.5t37 -29t46 -22.5t57.5 -9q59 0 87.5 27t28.5 65q0 21 -8 37.5t-27 29t-49.5 22.5t-75.5 19q-46 9 -79.5 28t-55.5 45t-33 57.5t-11 64.5q0 38 14 72.5t43 61t72.5 42.5t102.5 16q53 0 91 -12t63.5 -28t39.5 -31.5t20 -22.5l-83 -78
q-5 4 -16 14.5t-27.5 20.5t-39.5 18t-52 8q-26 0 -45 -7t-31.5 -18t-18.5 -24.5t-6 -25.5q0 -18 6.5 -32t22 -26t42.5 -21.5t68 -17.5q39 -8 75 -24t63.5 -41.5t44 -62t16.5 -87.5q0 -44 -18 -81t-50 -65t-76 -43.5t-96 -15.5q-50 0 -90.5 12t-73 30.5t-56 40.5t-39.5 42z
M242 873h111l110 -156h-104l-62 82l-61 -82h-104z" />
    <glyph glyph-name="scircumflex" unicode="&#x15d;" horiz-adv-x="478" 
d="M106 134q22 -22 55.5 -36.5t76.5 -14.5q38 0 61 10t23 33q0 10 -4 18.5t-17 16.5t-36 16t-62 17q-24 6 -50 16t-48.5 27.5t-37 42t-14.5 58.5q0 35 17 62.5t44.5 46t62 28.5t69.5 10q62 0 105.5 -13t78.5 -39l-61 -83q-19 14 -50 25.5t-73 11.5t-58.5 -12.5t-16.5 -30.5
q0 -22 27.5 -34.5t85.5 -26.5q36 -8 64.5 -20t49 -30t31.5 -42.5t11 -58.5t-16 -61.5t-43.5 -46.5t-64 -29.5t-77.5 -10.5q-66 0 -119 18.5t-85 54.5zM196 682h111l104 -142h-104l-56 76l-55 -76h-104z" />
    <glyph glyph-name="Scedilla" unicode="&#x15e;" horiz-adv-x="593" 
d="M119 188q12 -14 28.5 -29.5t37 -29t46 -22.5t57.5 -9q59 0 87.5 27t28.5 65q0 21 -8 37.5t-27 29t-49.5 22.5t-75.5 19q-46 9 -79.5 28t-55.5 45t-33 57.5t-11 64.5q0 38 14 72.5t43 61t72.5 42.5t102.5 16q53 0 91 -12t63.5 -28t39.5 -31.5t20 -22.5l-83 -78
q-5 4 -16 14.5t-27.5 20.5t-39.5 18t-52 8q-26 0 -45 -7t-31.5 -18t-18.5 -24.5t-6 -25.5q0 -18 6.5 -32t22 -26t42.5 -21.5t68 -17.5q39 -8 75 -24t63.5 -41.5t44 -62t16.5 -87.5q0 -44 -18 -81t-50 -65t-76 -43.5t-96 -15.5q-50 0 -90.5 12t-73 30.5t-56 40.5t-39.5 42z
M178 -150q19 -7 36.5 -9.5t33.5 -2.5q26 0 41 7.5t15 22.5q0 12 -12.5 20.5t-39.5 8.5q-17 0 -34 -3t-30 -8l11 68q18 5 37 8.5t48 3.5q54 0 85.5 -26t31.5 -67q0 -26 -11.5 -46t-30 -33.5t-42.5 -20t-49 -6.5q-24 0 -42.5 2t-32.5 5q-16 3 -28 7z" />
    <glyph glyph-name="scedilla" unicode="&#x15f;" horiz-adv-x="478" 
d="M106 134q22 -22 55.5 -36.5t76.5 -14.5q38 0 61 10t23 33q0 10 -4 18.5t-17 16.5t-36 16t-62 17q-24 6 -50 16t-48.5 27.5t-37 42t-14.5 58.5q0 35 17 62.5t44.5 46t62 28.5t69.5 10q62 0 105.5 -13t78.5 -39l-61 -83q-19 14 -50 25.5t-73 11.5t-58.5 -12.5t-16.5 -30.5
q0 -22 27.5 -34.5t85.5 -26.5q36 -8 64.5 -20t49 -30t31.5 -42.5t11 -58.5t-16 -61.5t-43.5 -46.5t-64 -29.5t-77.5 -10.5q-66 0 -119 18.5t-85 54.5zM128 -150q19 -7 36 -9.5t33 -2.5q58 0 58 32q0 12 -12.5 21t-41.5 9q-17 0 -33.5 -3t-29.5 -8l11 67q18 5 36.5 8.5
t47.5 3.5q54 0 84.5 -26t30.5 -67q0 -26 -11 -46t-29.5 -33.5t-42 -20t-48.5 -6.5q-24 0 -42.5 2t-32.5 5q-16 3 -27 7z" />
    <glyph glyph-name="Scaron" unicode="&#x160;" horiz-adv-x="593" 
d="M119 188q12 -14 28.5 -29.5t37 -29t46 -22.5t57.5 -9q59 0 87.5 27t28.5 65q0 21 -8 37.5t-27 29t-49.5 22.5t-75.5 19q-46 9 -79.5 28t-55.5 45t-33 57.5t-11 64.5q0 38 14 72.5t43 61t72.5 42.5t102.5 16q53 0 91 -12t63.5 -28t39.5 -31.5t20 -22.5l-83 -78
q-5 4 -16 14.5t-27.5 20.5t-39.5 18t-52 8q-26 0 -45 -7t-31.5 -18t-18.5 -24.5t-6 -25.5q0 -18 6.5 -32t22 -26t42.5 -21.5t68 -17.5q39 -8 75 -24t63.5 -41.5t44 -62t16.5 -87.5q0 -44 -18 -81t-50 -65t-76 -43.5t-96 -15.5q-50 0 -90.5 12t-73 30.5t-56 40.5t-39.5 42z
M133 873h104l62 -82l61 82h104l-110 -156h-111z" />
    <glyph glyph-name="scaron" unicode="&#x161;" horiz-adv-x="478" 
d="M106 134q22 -22 55.5 -36.5t76.5 -14.5q38 0 61 10t23 33q0 10 -4 18.5t-17 16.5t-36 16t-62 17q-24 6 -50 16t-48.5 27.5t-37 42t-14.5 58.5q0 35 17 62.5t44.5 46t62 28.5t69.5 10q62 0 105.5 -13t78.5 -39l-61 -83q-19 14 -50 25.5t-73 11.5t-58.5 -12.5t-16.5 -30.5
q0 -22 27.5 -34.5t85.5 -26.5q36 -8 64.5 -20t49 -30t31.5 -42.5t11 -58.5t-16 -61.5t-43.5 -46.5t-64 -29.5t-77.5 -10.5q-66 0 -119 18.5t-85 54.5zM95 682h104l56 -76l55 76h104l-104 -142h-111z" />
    <glyph glyph-name="uni0162" unicode="&#x162;" horiz-adv-x="624" 
d="M249 556h-226v111h578v-111h-226v-556h-126v556zM207 -148q19 -7 36.5 -9.5t33.5 -2.5q26 0 41 7.5t15 22.5q0 12 -12.5 20.5t-39.5 8.5q-17 0 -34 -3t-30 -8l11 68q18 5 37 8.5t48 3.5q54 0 85.5 -26t31.5 -67q0 -26 -11.5 -46t-30 -33.5t-42.5 -20t-49 -6.5
q-24 0 -42.5 2t-32.5 5q-16 3 -28 7z" />
    <glyph glyph-name="uni0163" unicode="&#x163;" horiz-adv-x="402" 
d="M98 373h-80v96h80v152h118v-152h126v-96h-126v-205q0 -40 13.5 -61.5t43.5 -21.5q28 0 44.5 8t31.5 19l50 -73q-35 -29 -69 -41.5t-76 -12.5q-43 0 -73 12.5t-48.5 35.5t-26.5 55.5t-8 71.5v213zM136 -160q19 -7 36 -9.5t33 -2.5q58 0 58 32q0 12 -12.5 21t-41.5 9
q-17 0 -33.5 -3t-29.5 -8l11 67q18 5 36.5 8.5t47.5 3.5q54 0 84.5 -26t30.5 -67q0 -26 -11 -46t-29.5 -33.5t-42 -20t-48.5 -6.5q-24 0 -42.5 2t-32.5 5q-16 3 -27 7z" />
    <glyph glyph-name="Tcaron" unicode="&#x164;" horiz-adv-x="624" 
d="M249 556h-226v111h578v-111h-226v-556h-126v556zM146 873h104l62 -82l61 82h104l-110 -156h-111z" />
    <glyph glyph-name="tcaron" unicode="&#x165;" horiz-adv-x="402" 
d="M98 373h-80v96h80v152h118v-152h126v-96h-126v-205q0 -40 13.5 -61.5t43.5 -21.5q28 0 44.5 8t31.5 19l50 -73q-35 -29 -69 -41.5t-76 -12.5q-43 0 -73 12.5t-48.5 35.5t-26.5 55.5t-8 71.5v213zM269 668h110l-34 -155h-76v155z" />
    <glyph glyph-name="Tbar" unicode="&#x166;" horiz-adv-x="624" 
d="M249 255h-134v104h134v197h-226v111h578v-111h-226v-197h133v-104h-133v-255h-126v255z" />
    <glyph glyph-name="tbar" unicode="&#x167;" horiz-adv-x="402" 
d="M19 280h79v93h-80v96h80v152h118v-152h126v-96h-126v-93h126v-84h-126v-28q0 -40 13.5 -61.5t43.5 -21.5q28 0 44.5 8t31.5 19l50 -73q-35 -29 -69 -41.5t-76 -12.5q-43 0 -73 12.5t-48.5 35.5t-26.5 55.5t-8 71.5v36h-79v84z" />
    <glyph glyph-name="Utilde" unicode="&#x168;" horiz-adv-x="674" 
d="M65 667h126v-399q0 -38 7.5 -68.5t24.5 -52t45 -33t69 -11.5t69 11.5t45 33t24.5 52t7.5 68.5v399h126v-421q0 -56 -18 -104t-53 -83.5t-85.5 -56t-115.5 -20.5t-115.5 20.5t-85.5 56t-53 83.5t-18 104v421zM133 804q9 9 22 20t29.5 20t35.5 15t41 6t38 -6.5t30.5 -14.5
t30 -14.5t36.5 -6.5q35 0 56.5 13t35.5 24l49 -75q-9 -9 -22 -20t-29 -20.5t-35 -16t-41 -6.5t-38 7t-31 15t-30.5 15t-36.5 7q-35 0 -56.5 -13t-35.5 -24z" />
    <glyph glyph-name="utilde" unicode="&#x169;" horiz-adv-x="551" 
d="M56 469h118v-284q0 -45 24.5 -69.5t63.5 -24.5q24 0 45 9.5t36 26.5t23.5 39.5t8.5 48.5v254h118v-469h-113l-3 53q-9 -10 -22 -21t-30 -20.5t-39 -15.5t-50 -6q-88 0 -134 52.5t-46 141.5v285zM79 615q8 9 20.5 19t28 18.5t34 14.5t38.5 6q21 0 36 -6.5t29 -14t29 -14
t35 -6.5q26 0 45 8.5t43 27.5l45 -70q-8 -9 -20.5 -19.5t-27.5 -19.5t-33.5 -15t-38.5 -6q-21 0 -36.5 6.5t-29.5 15t-29 15t-35 6.5q-27 0 -46 -9.5t-42 -26.5z" />
    <glyph glyph-name="Umacron" unicode="&#x16a;" horiz-adv-x="674" 
d="M65 667h126v-399q0 -38 7.5 -68.5t24.5 -52t45 -33t69 -11.5t69 11.5t45 33t24.5 52t7.5 68.5v399h126v-421q0 -56 -18 -104t-53 -83.5t-85.5 -56t-115.5 -20.5t-115.5 20.5t-85.5 56t-53 83.5t-18 104v421zM181 844h315v-97h-315v97z" />
    <glyph glyph-name="umacron" unicode="&#x16b;" horiz-adv-x="551" 
d="M56 469h118v-284q0 -45 24.5 -69.5t63.5 -24.5q24 0 45 9.5t36 26.5t23.5 39.5t8.5 48.5v254h118v-469h-113l-3 53q-9 -10 -22 -21t-30 -20.5t-39 -15.5t-50 -6q-88 0 -134 52.5t-46 141.5v285zM142 649h261v-92h-261v92z" />
    <glyph glyph-name="Ubreve" unicode="&#x16c;" horiz-adv-x="674" 
d="M65 667h126v-399q0 -38 7.5 -68.5t24.5 -52t45 -33t69 -11.5t69 11.5t45 33t24.5 52t7.5 68.5v399h126v-421q0 -56 -18 -104t-53 -83.5t-85.5 -56t-115.5 -20.5t-115.5 20.5t-85.5 56t-53 83.5t-18 104v421zM272 863q0 -26 17.5 -46.5t49.5 -20.5t49.5 20.5t17.5 46.5h93
q0 -29 -10 -55.5t-29.5 -47.5t-50 -33.5t-70.5 -12.5q-41 0 -71 12.5t-49.5 33.5t-29.5 47.5t-10 55.5h93z" />
    <glyph glyph-name="ubreve" unicode="&#x16d;" horiz-adv-x="551" 
d="M56 469h118v-284q0 -45 24.5 -69.5t63.5 -24.5q24 0 45 9.5t36 26.5t23.5 39.5t8.5 48.5v254h118v-469h-113l-3 53q-9 -10 -22 -21t-30 -20.5t-39 -15.5t-50 -6q-88 0 -134 52.5t-46 141.5v285zM213 682q0 -24 13.5 -44.5t48.5 -20.5t48.5 20.5t13.5 44.5h92
q0 -27 -9.5 -52.5t-29 -45.5t-48.5 -32t-67 -12t-67 12t-48.5 32t-29 45.5t-9.5 52.5h92z" />
    <glyph glyph-name="Uring" unicode="&#x16e;" horiz-adv-x="674" 
d="M65 667h126v-399q0 -38 7.5 -68.5t24.5 -52t45 -33t69 -11.5t69 11.5t45 33t24.5 52t7.5 68.5v399h126v-421q0 -56 -18 -104t-53 -83.5t-85.5 -56t-115.5 -20.5t-115.5 20.5t-85.5 56t-53 83.5t-18 104v421zM205 803q0 28 10 51.5t28 40.5t42 26.5t51 9.5q28 0 52 -9.5
t42 -26.5t28 -40.5t10 -50.5q0 -28 -10 -51.5t-28 -40.5t-42 -26.5t-51 -9.5q-28 0 -52 9.5t-42 26.5t-28 40.5t-10 50.5zM337 751q23 0 36.5 14.5t13.5 38.5q0 23 -13.5 37.5t-37.5 14.5q-23 0 -36.5 -14.5t-13.5 -38.5q0 -23 13.5 -37.5t37.5 -14.5z" />
    <glyph glyph-name="uring" unicode="&#x16f;" horiz-adv-x="551" 
d="M56 469h118v-284q0 -45 24.5 -69.5t63.5 -24.5q24 0 45 9.5t36 26.5t23.5 39.5t8.5 48.5v254h118v-469h-113l-3 53q-9 -10 -22 -21t-30 -20.5t-39 -15.5t-50 -6q-88 0 -134 52.5t-46 141.5v285zM155 644q0 24 9.5 45t25 36t37 23.5t45.5 8.5t45.5 -8.5t37.5 -23.5
t25.5 -35.5t9.5 -44.5t-9.5 -45t-25 -36t-37 -23.5t-45.5 -8.5t-45.5 8.5t-37.5 23.5t-25.5 35.5t-9.5 44.5zM272 600q19 0 31.5 12.5t12.5 31.5q0 18 -12.5 30.5t-30.5 12.5q-19 0 -31.5 -12.5t-12.5 -30.5q0 -19 12.5 -31.5t30.5 -12.5z" />
    <glyph glyph-name="Uhungarumlaut" unicode="&#x170;" horiz-adv-x="674" 
d="M65 667h126v-399q0 -38 7.5 -68.5t24.5 -52t45 -33t69 -11.5t69 11.5t45 33t24.5 52t7.5 68.5v399h126v-421q0 -56 -18 -104t-53 -83.5t-85.5 -56t-115.5 -20.5t-115.5 20.5t-85.5 56t-53 83.5t-18 104v421zM255 873h138l-114 -156h-97zM440 873h138l-114 -156h-97z" />
    <glyph glyph-name="uhungarumlaut" unicode="&#x171;" horiz-adv-x="551" 
d="M56 469h118v-284q0 -45 24.5 -69.5t63.5 -24.5q24 0 45 9.5t36 26.5t23.5 39.5t8.5 48.5v254h118v-469h-113l-3 53q-9 -10 -22 -21t-30 -20.5t-39 -15.5t-50 -6q-88 0 -134 52.5t-46 141.5v285zM354 682h119l-79 -142h-88zM192 682h119l-79 -142h-88z" />
    <glyph glyph-name="Uogonek" unicode="&#x172;" horiz-adv-x="674" 
d="M65 667h126v-399q0 -38 7.5 -68.5t24.5 -52t45 -33t69 -11.5q82 0 115.5 44.5t33.5 120.5v399h123v-421q0 -51 -12 -88.5t-30 -64t-40 -44.5t-42 -30q-43 -27 -59 -48.5t-16 -44.5q0 -29 26 -29q14 0 26 4.5t24 12.5l29 -75q-26 -17 -56.5 -27t-56.5 -10q-52 0 -76.5 22
t-24.5 58q0 26 13.5 51.5t33.5 49.5h-17q-64 0 -113.5 21t-83.5 57t-51.5 83.5t-17.5 101.5v421z" />
    <glyph glyph-name="uogonek" unicode="&#x173;" horiz-adv-x="551" 
d="M56 469h118v-284q0 -45 24.5 -69.5t63.5 -24.5q24 0 45 9.5t36 26.5t23.5 39.5t8.5 48.5v254h118v-469h-113l-3 53q-9 -10 -22 -21t-30 -20.5t-39 -15.5t-50 -6q-88 0 -134 52.5t-46 141.5v285zM493 0q-19 -18 -35.5 -40.5t-16.5 -39.5q0 -21 25 -21q16 0 29 5.5t26 13.5
l28 -74q-25 -17 -54.5 -26.5t-55.5 -9.5q-51 0 -74.5 21.5t-23.5 56.5q0 29 18 58.5t43 55.5h91z" />
    <glyph glyph-name="Wcircumflex" unicode="&#x174;" horiz-adv-x="890" 
d="M15 667h138l109 -499l129 480h114l130 -480l108 499h132l-175 -667h-132l-124 441l-126 -441h-130zM395 873h111l110 -156h-104l-62 82l-61 -82h-104z" />
    <glyph glyph-name="wcircumflex" unicode="&#x175;" horiz-adv-x="749" 
d="M9 469h130l90 -326l99 326h99l100 -326l89 326h124l-159 -469h-114l-96 283l-93 -283h-110zM326 682h111l104 -142h-104l-56 76l-55 -76h-104z" />
    <glyph glyph-name="Ycircumflex" unicode="&#x176;" horiz-adv-x="616" 
d="M244 293l-231 374h138l160 -266l160 266h132l-231 -374v-293h-128v293zM256 873h111l110 -156h-104l-62 82l-61 -82h-104z" />
    <glyph glyph-name="ycircumflex" unicode="&#x177;" horiz-adv-x="527" 
d="M77 -93q10 -8 22 -15.5t30 -7.5q24 0 39.5 20t32.5 62l15 38l-211 465h136l134 -321l118 321h129l-196 -469q-14 -35 -28 -72t-34.5 -68.5t-50.5 -51.5t-76 -20q-40 0 -66.5 9.5t-46.5 26.5zM214 682h111l104 -142h-104l-56 76l-55 -76h-104z" />
    <glyph glyph-name="Ydieresis" unicode="&#x178;" horiz-adv-x="616" 
d="M244 293l-231 374h138l160 -266l160 266h132l-231 -374v-293h-128v293zM355 854h123v-117h-123v117zM142 854h123v-117h-123v117z" />
    <glyph glyph-name="Zacute" unicode="&#x179;" horiz-adv-x="650" 
d="M49 110l393 446h-375v111h526v-111l-385 -446h393v-110h-552v110zM330 873h146l-114 -156h-105z" />
    <glyph glyph-name="zacute" unicode="&#x17a;" horiz-adv-x="472" 
d="M46 90l239 280h-232v99h379v-92l-247 -281h247v-96h-386v90zM256 682h126l-79 -142h-95z" />
    <glyph glyph-name="Zdotaccent" unicode="&#x17b;" horiz-adv-x="650" 
d="M49 110l393 446h-375v111h526v-111l-385 -446h393v-110h-552v110zM272 857h129v-123h-129v123z" />
    <glyph glyph-name="zdotaccent" unicode="&#x17c;" horiz-adv-x="472" 
d="M46 90l239 280h-232v99h379v-92l-247 -281h247v-96h-386v90zM190 677h126v-124h-126v124z" />
    <glyph glyph-name="Zcaron" unicode="&#x17d;" horiz-adv-x="650" 
d="M49 110l393 446h-375v111h526v-111l-385 -446h393v-110h-552v110zM170 873h104l62 -82l61 82h104l-110 -156h-111z" />
    <glyph glyph-name="zcaron" unicode="&#x17e;" horiz-adv-x="472" 
d="M46 90l239 280h-232v99h379v-92l-247 -281h247v-96h-386v90zM94 682h104l56 -76l55 76h104l-104 -142h-111z" />
    <glyph glyph-name="longs" unicode="&#x17f;" horiz-adv-x="258" 
d="M58 474q0 48 7.5 85.5t33.5 66.5q21 24 54.5 41.5t78.5 17.5q16 0 34 -2t37 -7t38 -14.5t37 -25.5l-55 -78q-27 20 -61.5 24.5t-60.5 -16.5q-19 -15 -22 -38t-3 -59v-469h-118v474z" />
    <glyph glyph-name="florin" unicode="&#x192;" 
d="M-10 -61q16 -15 34 -21.5t34 -6.5q34 0 53 16.5t29 70.5l54 296h-87v98h105l13 73q7 40 21.5 73.5t37.5 58t56.5 38t79.5 13.5q43 0 77.5 -12t60.5 -41l-62 -85q-17 15 -35.5 21.5t-34.5 6.5q-34 0 -53 -17t-29 -71l-11 -58h100v-98h-118l-56 -311q-8 -40 -22 -73.5
t-38 -58t-58 -38t-82 -13.5q-11 0 -27 2t-34 7.5t-36.5 15t-35.5 23.5z" />
    <glyph glyph-name="uni0218" unicode="&#x218;" horiz-adv-x="593" 
d="M119 188q12 -14 28.5 -29.5t37 -29t46 -22.5t57.5 -9q59 0 87.5 27t28.5 65q0 21 -8 37.5t-27 29t-49.5 22.5t-75.5 19q-46 9 -79.5 28t-55.5 45t-33 57.5t-11 64.5q0 38 14 72.5t43 61t72.5 42.5t102.5 16q53 0 91 -12t63.5 -28t39.5 -31.5t20 -22.5l-83 -78
q-5 4 -16 14.5t-27.5 20.5t-39.5 18t-52 8q-26 0 -45 -7t-31.5 -18t-18.5 -24.5t-6 -25.5q0 -18 6.5 -32t22 -26t42.5 -21.5t68 -17.5q39 -8 75 -24t63.5 -41.5t44 -62t16.5 -87.5q0 -44 -18 -81t-50 -65t-76 -43.5t-96 -15.5q-50 0 -90.5 12t-73 30.5t-56 40.5t-39.5 42z
M231 -51h139l-88 -158h-104z" />
    <glyph glyph-name="uni0219" unicode="&#x219;" horiz-adv-x="478" 
d="M106 134q22 -22 55.5 -36.5t76.5 -14.5q38 0 61 10t23 33q0 10 -4 18.5t-17 16.5t-36 16t-62 17q-24 6 -50 16t-48.5 27.5t-37 42t-14.5 58.5q0 35 17 62.5t44.5 46t62 28.5t69.5 10q62 0 105.5 -13t78.5 -39l-61 -83q-19 14 -50 25.5t-73 11.5t-58.5 -12.5t-16.5 -30.5
q0 -22 27.5 -34.5t85.5 -26.5q36 -8 64.5 -20t49 -30t31.5 -42.5t11 -58.5t-16 -61.5t-43.5 -46.5t-64 -29.5t-77.5 -10.5q-66 0 -119 18.5t-85 54.5zM189 -51h126l-79 -142h-95z" />
    <glyph glyph-name="uni021A" unicode="&#x21a;" horiz-adv-x="624" 
d="M249 556h-226v111h578v-111h-226v-556h-126v556zM243 -51h139l-88 -158h-104z" />
    <glyph glyph-name="uni021B" unicode="&#x21b;" horiz-adv-x="402" 
d="M98 373h-80v96h80v152h118v-152h126v-96h-126v-205q0 -40 13.5 -61.5t43.5 -21.5q28 0 44.5 8t31.5 19l50 -73q-35 -29 -69 -41.5t-76 -12.5q-43 0 -73 12.5t-48.5 35.5t-26.5 55.5t-8 71.5v213zM186 -51h126l-79 -142h-95z" />
    <glyph glyph-name="uni0237" unicode="&#x237;" horiz-adv-x="244" 
d="M-43 -83q9 -5 22 -10.5t32 -5.5q23 0 37.5 19t14.5 56v493h118v-470q0 -35 -5.5 -70t-22 -64t-46.5 -47t-80 -18q-42 0 -69.5 12.5t-44.5 24.5z" />
    <glyph glyph-name="uni02BC" unicode="&#x2bc;" horiz-adv-x="238" 
d="M71 682h119l-39 -142h-88z" />
    <glyph glyph-name="circumflex" unicode="&#x2c6;" horiz-adv-x="449" 
d="M169 682h111l104 -142h-104l-56 76l-55 -76h-104z" />
    <glyph glyph-name="caron" unicode="&#x2c7;" horiz-adv-x="449" 
d="M65 682h104l56 -76l55 76h104l-104 -142h-111z" />
    <glyph glyph-name="uni02C9" unicode="&#x2c9;" horiz-adv-x="347" 
d="M43 649h261v-92h-261v92z" />
    <glyph glyph-name="breve" unicode="&#x2d8;" horiz-adv-x="460" 
d="M183 682q0 -24 13.5 -44.5t48.5 -20.5t48.5 20.5t13.5 44.5h92q0 -27 -9.5 -52.5t-29 -45.5t-48.5 -32t-67 -12t-67 12t-48.5 32t-29 45.5t-9.5 52.5h92z" />
    <glyph glyph-name="dotaccent" unicode="&#x2d9;" horiz-adv-x="259" 
d="M67 677h126v-124h-126v124z" />
    <glyph glyph-name="ring" unicode="&#x2da;" horiz-adv-x="315" 
d="M40 644q0 24 9.5 45t25 36t37 23.5t45.5 8.5t45.5 -8.5t37.5 -23.5t25.5 -35.5t9.5 -44.5t-9.5 -45t-25 -36t-37 -23.5t-45.5 -8.5t-45.5 8.5t-37.5 23.5t-25.5 35.5t-9.5 44.5zM157 600q19 0 31.5 12.5t12.5 31.5q0 18 -12.5 30.5t-30.5 12.5q-19 0 -31.5 -12.5
t-12.5 -30.5q0 -19 12.5 -31.5t30.5 -12.5z" />
    <glyph glyph-name="ogonek" unicode="&#x2db;" horiz-adv-x="298" 
d="M214 0q-19 -18 -35.5 -40.5t-16.5 -39.5q0 -21 25 -21q16 0 29 5.5t26 13.5l28 -74q-25 -17 -54.5 -26.5t-55.5 -9.5q-51 0 -74.5 21.5t-23.5 56.5q0 29 18 58.5t43 55.5h91z" />
    <glyph glyph-name="tilde" unicode="&#x2dc;" horiz-adv-x="462" 
d="M38 615q8 9 20.5 19t28 18.5t34 14.5t38.5 6q21 0 36 -6.5t29 -14t29 -14t35 -6.5q26 0 45 8.5t43 27.5l45 -70q-8 -9 -20.5 -19.5t-27.5 -19.5t-33.5 -15t-38.5 -6q-21 0 -36.5 6.5t-29.5 15t-29 15t-35 6.5q-27 0 -46 -9.5t-42 -26.5z" />
    <glyph glyph-name="hungarumlaut" unicode="&#x2dd;" horiz-adv-x="445" 
d="M268 682h119l-79 -142h-88zM106 682h119l-79 -142h-88z" />
    <glyph glyph-name="uni0312" unicode="&#x312;" horiz-adv-x="181" 
d="M84 682h95l-48 -142h-126z" />
    <glyph glyph-name="uni0315" unicode="&#x315;" horiz-adv-x="374" 
d="M112 667h118l-34 -181h-84v181z" />
    <glyph glyph-name="uni0326" unicode="&#x326;" horiz-adv-x="181" 
d="M53 -51h126l-79 -142h-95z" />
    <glyph glyph-name="uni037E" unicode="&#x37e;" horiz-adv-x="273" 
d="M116 0h-51v139h143v-137l-85 -145h-70zM65 469h143v-138h-143v138z" />
    <glyph glyph-name="tonos" unicode="&#x384;" horiz-adv-x="349" 
d="M100 540l30 152h119l-61 -152h-88z" />
    <glyph glyph-name="dieresistonos" unicode="&#x385;" horiz-adv-x="510" 
d="M195 540l19 152h106l-42 -152h-83zM349 559v106h111v-106h-111zM50 559v106h111v-106h-111z" />
    <glyph glyph-name="Alphatonos" unicode="&#x386;" horiz-adv-x="654" 
d="M262 667h130l253 -667h-140l-58 169h-248l-58 -169h-132zM411 273l-88 259l-89 -259h177zM14 516l27 151h125l-58 -151h-94z" />
    <glyph glyph-name="anoteleia" unicode="&#x387;" horiz-adv-x="273" 
d="M65 469h143v-138h-143v138z" />
    <glyph glyph-name="Epsilontonos" unicode="&#x388;" horiz-adv-x="735" 
d="M237 667h432v-111h-306v-157h225v-112h-225v-174h329v-113h-455v667zM15 516l27 151h125l-58 -151h-94z" />
    <glyph glyph-name="Etatonos" unicode="&#x389;" horiz-adv-x="890" 
d="M237 667h126v-268h331v268h126v-667h-126v287h-331v-287h-126v667zM15 516l27 151h125l-58 -151h-94z" />
    <glyph glyph-name="Iotatonos" unicode="&#x38a;" horiz-adv-x="433" 
d="M237 667h126v-667h-126v667zM15 516l27 151h125l-58 -151h-94z" />
    <glyph glyph-name="Omicrontonos" unicode="&#x38c;" horiz-adv-x="897" 
d="M506 -18q-73 0 -136 27.5t-110 75.5t-74 112t-27 137t27 137t73.5 111.5t110 75t136.5 27.5t136 -27.5t110 -75t74 -111.5t27 -137t-27 -137t-74 -112t-110 -75.5t-136 -27.5zM506 101q49 0 89 19t68 51.5t43 75.5t15 90q0 48 -15 90.5t-43 74.5t-68 50.5t-89 18.5
q-50 0 -89.5 -18.5t-67.5 -50.5t-43 -74.5t-15 -90.5q0 -47 15 -90t43 -75.5t67.5 -51.5t89.5 -19zM15 516l27 151h125l-58 -151h-94z" />
    <glyph glyph-name="Upsilontonos" unicode="&#x38e;" horiz-adv-x="840" 
d="M468 293l-231 374h138l160 -266l160 266h132l-231 -374v-293h-128v293zM15 516l27 151h125l-58 -151h-94z" />
    <glyph glyph-name="Omegatonos" unicode="&#x38f;" horiz-adv-x="895" 
d="M564 0v103q35 15 62 40.5t46 57.5t28.5 69t9.5 75q0 46 -14.5 87.5t-42.5 73t-67.5 49.5t-90.5 18q-50 0 -90 -18t-67.5 -49t-42 -73t-14.5 -89q0 -38 9.5 -75t28.5 -69.5t45.5 -57.5t61.5 -39v-103h-278v104h125q-60 45 -88 111.5t-28 139.5t27 134t74 104.5t109.5 67.5
t133.5 24q70 0 131 -24t105.5 -67t70 -103t25.5 -132q0 -73 -28.5 -141t-88.5 -114h126v-104h-278zM15 516l27 151h125l-58 -151h-94z" />
    <glyph glyph-name="iotadieresistonos" unicode="&#x390;" horiz-adv-x="316" 
d="M308 3q-23 -10 -49 -14.5t-51 -4.5q-36 0 -64 8.5t-47 29t-29 53.5t-10 82v312h121v-312q0 -43 15 -58t44 -15q13 0 24.5 2.5t22.5 6.5zM73 540l19 152h106l-42 -152h-83zM227 559v106h111v-106h-111zM-72 559v106h111v-106h-111z" />
    <glyph glyph-name="Alpha" unicode="&#x391;" horiz-adv-x="654" 
d="M262 667h130l253 -667h-140l-58 169h-248l-58 -169h-132zM411 273l-88 259l-89 -259h177z" />
    <glyph glyph-name="Beta" unicode="&#x392;" horiz-adv-x="596" 
d="M70 667h229q53 0 93.5 -13.5t67.5 -37t41 -55t14 -68.5q0 -35 -13 -61t-30.5 -43.5t-35 -26t-27.5 -8.5q18 -2 42 -11t45.5 -28t36.5 -49.5t15 -74.5q0 -54 -19 -90.5t-52.5 -59t-79 -32t-98.5 -9.5h-229v667zM293 401q19 0 37 4t32.5 14t23 25t8.5 38t-9 38t-23.5 24
t-32.5 12.5t-36 3.5h-102v-159h102zM298 107q18 0 39.5 2.5t40.5 12t32 28t13 50.5q0 30 -12.5 48.5t-31 29t-40.5 14.5t-41 4h-107v-189h107z" />
    <glyph glyph-name="Gamma" unicode="&#x393;" horiz-adv-x="517" 
d="M70 0v667h424v-112h-298v-555h-126z" />
    <glyph glyph-name="uni0394" unicode="&#x394;" horiz-adv-x="673" 
d="M25 113l249 554h125l249 -554v-113h-623v113zM524 113l-191 425l-185 -425h376z" />
    </font>
</defs>
</svg>
