<svg xmlns="http://www.w3.org/2000/svg" viewBox="0 0 263.54 60"><defs><style>.cls-1,.cls-2,.cls-8{fill:#fff;}.cls-2{font-size:11.38px;letter-spacing:0.06em;}.cls-2,.cls-8{font-family:29LTBukra-BoldItalic, "29LT Bukra";font-weight:700;font-style:italic;}.cls-3{letter-spacing:0.04em;}.cls-4{letter-spacing:0.07em;}.cls-5{letter-spacing:-0.52em;}.cls-6{letter-spacing:0.08em;}.cls-7{letter-spacing:0.06em;}.cls-8{font-size:16.01px;}</style></defs><title>1000</title><g id="Layer_2" data-name="Layer 2"><g id="Layer_1-2" data-name="Layer 1"><path class="cls-1" d="M243.25,34.53a1,1,0,1,0,1,1A1,1,0,0,0,243.25,34.53Zm0,0a1,1,0,1,0,1,1A1,1,0,0,0,243.25,34.53Zm-19.5,0a1,1,0,0,0-.9.89A1,1,0,0,0,224,36.55a1,1,0,0,0,.92-.92A1,1,0,0,0,223.75,34.53Zm9.79,3.52a1,1,0,1,0,1,1A1,1,0,0,0,233.54,38.05Zm9.71-3.52a1,1,0,1,0,1,1A1,1,0,0,0,243.25,34.53Zm0,0a1,1,0,1,0,1,1A1,1,0,0,0,243.25,34.53Zm-9.71,3.52a1,1,0,1,0,1,1A1,1,0,0,0,233.54,38.05Zm-9.79-3.52a1,1,0,0,0-.9.89A1,1,0,0,0,224,36.55a1,1,0,0,0,.92-.92A1,1,0,0,0,223.75,34.53ZM233.54,0a30,30,0,1,0,30,30A30,30,0,0,0,233.54,0Zm17,47a24,24,0,0,1-39.13-7.63,24,24,0,0,1,0-18.71A24,24,0,0,1,224.2,7.87a23.91,23.91,0,0,1,18.68,0,21.06,21.06,0,0,1,2,1,.5.5,0,0,1,.19.1,3.23,3.23,0,0,1,1.63,2.79A3.27,3.27,0,0,1,243.41,15a3.12,3.12,0,0,1-1.4-.31,2.52,2.52,0,0,0-.29-.16A17.61,17.61,0,1,0,249.59,23l-5,3.55a3.53,3.53,0,0,1,.27,1.95,4,4,0,0,1-4,3.5h-2V30.66h.34c.64,0,1.29,0,1.92-.05a2.61,2.61,0,0,0,2.45-2.45,3.8,3.8,0,0,0-.08-.84,2.56,2.56,0,0,0-2.18-1.93c-.29-.05-.61-.05-.9-.07a.29.29,0,0,1-.18-.16v-.34A2.55,2.55,0,0,0,239,22.5a2.62,2.62,0,0,0-.5-.26,2.54,2.54,0,0,0-3,.68h0a.54.54,0,0,1-.87-.1,7.41,7.41,0,0,0-.42-.71c-1.18-1.79-2.55-2.37-4.26-1.95-2,.52-2.92,1.87-3,4.31a.86.86,0,0,1-.84.87,2.71,2.71,0,0,0-2.5,1.95,2.66,2.66,0,0,0,1,2.82,3.43,3.43,0,0,0,2.14.55h1.47V32h-2a4,4,0,0,1-1.11-7.77c.32-.07.45-.18.47-.52a5.27,5.27,0,0,1,9.5-2.79,2.8,2.8,0,0,1,.29.37s0,0,0,0A4.11,4.11,0,0,1,239,21a4,4,0,0,1,1.15.71l5.79-4.07,5.35-3.79A24.17,24.17,0,0,1,255,19.16c.23.47.47,1,.68,1.5a24.1,24.1,0,0,1,0,18.71A24.24,24.24,0,0,1,250.54,47ZM229.28,31.92V29.37c0-1.24,0-2.66,0-3.53h1.29c0,.69,0,1.63,0,2.63s0,1.85,0,2.69c0,1.23,0,2.29,0,2.66a2.45,2.45,0,0,1-2.5,2.36h-.73a1.48,1.48,0,0,0-1.69.77,2,2,0,0,1-2.47.73,2.25,2.25,0,0,1,.1-4.26,2.24,2.24,0,0,1,2.5.84c.19.24.48.63.71.63a10.32,10.32,0,0,0,2.4-.26c.21-.08.37-.63.42-1a5.65,5.65,0,0,0,.05-.71C229.3,32.58,229.28,32.26,229.28,31.92Zm4.89,4.26a1.3,1.3,0,0,0,.5.87,2.37,2.37,0,0,1,1,2.66,2.26,2.26,0,0,1-2.11,1.58,2.19,2.19,0,0,1-2.15-1.58,2.34,2.34,0,0,1,1-2.66,1.18,1.18,0,0,0,.47-.87c0-.39,0-1,0-1.68V24.82h1.23c0,.31,0,.71,0,1.1v4c0,1.32,0,2.42,0,2.82v1.08C234.14,34.63,234.14,35.42,234.17,36.18Zm2.37-10.34h1.26v7.92a1.09,1.09,0,0,0,1,1.13,10,10,0,0,0,2,.06c.16,0,.37-.29.47-.48a2.25,2.25,0,0,1,4.21,1.14,2.23,2.23,0,0,1-1.63,2.13,2.11,2.11,0,0,1-2.52-1,1,1,0,0,0-1-.53c-3.1.27-3.92-1.15-3.73-3.76v-.24C236.56,31.11,236.54,27.5,236.54,25.84Zm6.71,10.71a1,1,0,1,0-1-1A1,1,0,0,0,243.25,36.55Zm-10.74,2.53a1,1,0,0,0,1,1,1,1,0,1,0-1-1Zm-8.76-4.55a1,1,0,0,0-.9.89A1,1,0,0,0,224,36.55a1,1,0,0,0,.92-.92A1,1,0,0,0,223.75,34.53Zm9.79,3.52a1,1,0,1,0,1,1A1,1,0,0,0,233.54,38.05Zm9.71-3.52a1,1,0,1,0,1,1A1,1,0,0,0,243.25,34.53Zm0,0a1,1,0,1,0,1,1A1,1,0,0,0,243.25,34.53Zm-9.71,3.52a1,1,0,1,0,1,1A1,1,0,0,0,233.54,38.05Z"/><text class="cls-2" transform="translate(0 44.23)">Glary <tspan class="cls-3" x="40.47" y="0">C</tspan><tspan x="49.73" y="0">r</tspan><tspan class="cls-4" x="55.4" y="0">e</tspan><tspan x="63.61" y="0" xml:space="preserve">ativity  </tspan><tspan class="cls-5" x="116.81" y="0"> </tspan><tspan class="cls-3" x="114.31" y="0">F</tspan><tspan x="122.13" y="0">or H</tspan><tspan class="cls-6" x="150.95" y="0">o</tspan><tspan class="cls-7" x="159.55" y="0">sting</tspan></text><text class="cls-8" transform="translate(-4.42 26.72)">ةفاضتسلل عادـبلا يرلـق</text></g></g></svg>