<svg xmlns="http://www.w3.org/2000/svg" viewBox="0 0 35.14 22.68"><defs><style>.cls-1{fill:#076c39;}.cls-2{fill:#e9f2ed;}.cls-3{fill:#1e7849;}</style></defs><title>999</title><g id="Layer_2" data-name="Layer 2"><g id="Layer_1-2" data-name="Layer 1"><path class="cls-1" d="M.14.14H35.26c0,7.37,0,14.74,0,22.1,0,.48-.09.58-.57.58q-17,0-34,0c-.48,0-.57-.1-.57-.58C.15,14.88.14,7.51.14.14Zm19,10.78c0-.13-.07-.31-.26-.21s-.37.18-.24.34.3.66.76.4c.23,0,.52.05.5-.29s-.28-.24-.48-.25Zm3.51-6.17-.34,0c-.14-.14-.13-.4-.53-.52-.22,1.6.32,3.15.23,4.84-.52-.85-1-1.57-1.39-2.31a1.62,1.62,0,0,1-.14-1.16c.17-.62-.31-.93-.55-1.35a.14.14,0,0,0-.27,0c-.12.53-.35.26-.52.06-.44-.47-1,.19-1.43-.13-.07,0-.2.27-.21.46a1.11,1.11,0,0,0,.19.58c.14.29.33.59.12.92a.24.24,0,0,1-.31.08c-.32-.21-.28-.56-.32-.88s.07-1-.32-1.38a.75.75,0,0,0-.25.89,1.55,1.55,0,0,1,.07,1c-.07.23-.19.46-.47.42a.44.44,0,0,1-.4-.49c0-.23,0-.47,0-.7s0-.46-.23-.53-.38.17-.47.35c-.19.4-.36.82-.55,1.26-.42-.43-.19-1-.54-1.43a1.84,1.84,0,0,0,.15,1.78c.26.44.58.39.83-.06.12-.21,0-.52.33-.69l.08.84,0,.34c-.25-.1-.33.09-.43.25l-.44,0c-.24-.06-.48-.08-.56.23s-.16.49.08.71.55.41.27.8-.34.81-.92.54c-.2-.09-.27.17-.27.22,0,.67-.58.81-1,1.1a2.6,2.6,0,0,0-.92.71,2.37,2.37,0,0,0,1.34-.28c.2-.08.33-.12.52.1a1,1,0,0,0,1.59.17,3.37,3.37,0,0,0,.76-.7c.25-.32.41-.43.71,0a2.18,2.18,0,0,0,1.53.74c.19,0,.39.07.45-.18s-.08-.29-.23-.37-.47-.2-.38-.5.35-.27.59-.31l1.17-.19a.58.58,0,0,0,.54-.45l.34.19v1.35a1.25,1.25,0,0,0,.58-1,8.66,8.66,0,0,0-.13-1.44c0-.12-.07-.3.09-.37s.27.11.35.25A7.31,7.31,0,0,0,21.89,10c.24.26.18.33,0,.5a4.77,4.77,0,0,1-1.15.9c-.12.07-.3.1-.24.28a.37.37,0,0,0,.39.24,1.18,1.18,0,0,0,.91-.44,9.88,9.88,0,0,0,.64-.91l.32.17a1.46,1.46,0,0,0,.33.75.75.75,0,0,0,.63.37c.3,0,.39-.3.47-.55s.07-.27.1-.4c.1-.44.3-.49.61-.17a.83.83,0,0,0,1.28,0l.19.24c.17.28.09.55-.2,1,.54-.34.82,0,1.15,0a1.55,1.55,0,0,0,1.59-1.67c0-.88,0-1.77-.05-2.65a8.68,8.68,0,0,1-.19-2.07,1.38,1.38,0,0,0-.27-1.1c-.28-.45-.38-.22-.48.1l-.41.31c-.48.3-.42-.18-.55-.38s-.11-.39-.35-.34-.26.24-.27.44,0,.22,0,.33l-.14.13A3.58,3.58,0,0,0,26,4.68c-.12-.16-.12-.47-.36-.47s-.12.41-.33.52c-.27-.13-.38-.49-.73-.5-.13.79-.12.78.3,1.35.13.17.37.3.34.57-.41-.05-.63.44-1.06.38-.15,0-.18.26-.1.41a1,1,0,0,0,.65.6c.26.06.16-.22.2-.35l.3-1a.91.91,0,0,1,.54.94,13.38,13.38,0,0,1,.05,2.83c-.08.33-.2.62-.59.22-.6-.6-.6-.6-1.09.09l-.33,0a7.13,7.13,0,0,0-.06-1.6,10.75,10.75,0,0,1-.3-2.68,2.44,2.44,0,0,0-.51-1.69C22.71,4.38,22.72,4.59,22.65,4.75Zm-14.8.43c-.31-.22.09-.55-.13-.79s-.16-.24-.32-.18-.12.12-.1.15c.17.28.14.71.57.81L7.38,6.7c-.39-.35-.21-.88-.54-1.35A4,4,0,0,0,6.89,7c.06.23.2.45.47.43s.34-.26.38-.5-.06-.61.28-1C7.9,6.86,8,7.62,8.88,8A1.47,1.47,0,0,0,7,9.07L8.8,8.23a2.68,2.68,0,0,1,0,1.06c-.24-.06,0-.45-.32-.45-.25.24-.1.64-.38.87-.5.43-.33,1-.17,1.47a1.11,1.11,0,0,0,1.18.7,2.48,2.48,0,0,0,2.56-3c1.86-.15,1.86-.15,1.9-1.5-.17.76-1,0-1.22.63a1,1,0,0,1-.18-.07,2.39,2.39,0,0,1-.55-2.32c.24-.44-.14-.72-.23-1.07a.26.26,0,0,0-.32-.21c-.38.07-.23.44-.36.7-.18-.13-.49-.26-.48-.37,0-.62-.41-.26-.62-.31-.4-.11-.2.22-.24.38A.3.3,0,0,1,9,5c0-.07,0-.14-.07-.21s-.08-.46-.35-.45-.22.32-.2.49C8.44,5.29,8.07,5.11,7.85,5.18ZM9.82,18a2.25,2.25,0,0,0,2,.73l10.76,0c.31,0,.66-.09.66.44,0,.25.15.35.48.28a3.18,3.18,0,0,1,1.65,0c.43.14.68.13.79-.31a.83.83,0,0,0-.58-1.09c-.37,0-.74,0-1.11,0a1.13,1.13,0,0,1-.95-.45c-.46-.52-.16.68-.67.43-.12-.06-.28,0-.42,0-1.7,0-3.4,0-5.1,0ZM13,6c-.15.33-.23.53-.13.72a.31.31,0,0,0,.42.14c.09,0,.2-.13.11-.21-.64-.57-.28-1,.16-1.45.12-.12.1-.38.13-.58s-.16-.32-.39-.33-.45.14-.33.36c.29.55-.14.72-.43,1s-.5.26-.53.58A1.26,1.26,0,0,0,13,6ZM25.62,7.75l-.17-.12c-.26.18-.52.35-.76.54s-.57.29-.4.55.41-.14.63-.19h.14l.33,1.23C26.06,9.1,24.89,8.37,25.62,7.75ZM7,10A2,2,0,0,0,6.7,11.5a.33.33,0,0,0,.48.25c.23-.11.33-.54.22-.57C6.69,11,7.14,10.46,7,10ZM21.13,5.58a1,1,0,0,0,.06-1.1c-.08-.12-.2-.22-.35-.14s-.12.23,0,.35A1.59,1.59,0,0,1,21.13,5.58Zm0,.51c-.08.19-.45-.22-.42.22a.37.37,0,0,0,.44.35.37.37,0,0,0,.4-.38C21.57,5.91,21.3,6.18,21.15,6.09ZM16.26,4c-.34.47-.34.47-.15,1A1,1,0,0,0,16.26,4Z" transform="translate(-0.13 -0.14)"/><path class="cls-2" d="M7.85,5.18c.22-.07.59.11.55-.37,0-.17-.13-.48.2-.49s.3.25.35.45S9,4.91,9,5a.3.3,0,0,0,.34-.25c0-.16-.16-.49.24-.38.21.05.66-.31.62.31,0,.11.3.24.48.37.13-.26,0-.63.36-.7a.26.26,0,0,1,.32.21c.09.35.47.63.23,1.07a2.39,2.39,0,0,0,.55,2.32,1,1,0,0,0,.18.07c.21-.67,1.05.13,1.22-.63,0,1.35,0,1.35-1.9,1.5a2.48,2.48,0,0,1-2.56,3,1.11,1.11,0,0,1-1.18-.7c-.16-.49-.33-1,.17-1.47.28-.23.13-.63.38-.87.31,0,.08.39.32.45a2.68,2.68,0,0,0,0-1.06L7,9.07A1.47,1.47,0,0,1,8.88,8C8,7.62,7.9,6.86,8,5.94c-.34.36-.24.68-.28,1s-.08.49-.38.5S7,7.21,6.89,7a4,4,0,0,1,0-1.63c.33.47.15,1,.54,1.35l.49-1.53ZM8.7,9.69a.63.63,0,0,0,.88.4,1.71,1.71,0,0,0,1.19-1.2,3.44,3.44,0,0,1-.4.17c-.26.08-.55.12-.67-.17a1,1,0,0,1,.18-1.05.57.57,0,0,1,.75-.15c.17.09.27.43.5.27s.07-.48,0-.71,0-.6-.25-.84c-.06.63-.51,1.13-.91.93-1-.51-.66.22-.66.66s0,.65,0,1S9.21,9.71,8.7,9.69Zm2.28,0a2.51,2.51,0,0,1-1.29,1.18c-.64.24-1.1-.13-1.47-.65.07.67.36,1,1,1A1.67,1.67,0,0,0,11,9.69ZM9.5,4.91a2.16,2.16,0,0,1,.26,1.15c0,.31.22.44.45.55s.23,0,.2-.11c-.17-.54-.36-1.08-.56-1.62C9.83,4.85,9.64,4.9,9.5,4.91Z" transform="translate(-0.13 -0.14)"/><path class="cls-2" d="M26.2,10.77a.83.83,0,0,1-1.28,0c-.31-.32-.51-.27-.61.17,0,.13-.06.27-.1.4s-.17.51-.47.55a.75.75,0,0,1-.63-.37,1.46,1.46,0,0,1-.33-.75l.07-.4a2.11,2.11,0,0,1,.19.15c.15.24.16.68.51.65s.35-.48.5-.74a.65.65,0,0,0,.05-.2c.49-.69.49-.69,1.09-.09.39.4.51.11.59-.22a13.38,13.38,0,0,0-.05-2.83.91.91,0,0,0-.54-.94h0c0-.27-.21-.4-.34-.57-.42-.57-.43-.56-.3-1.35.35,0,.46.37.73.5.21-.11,0-.52.33-.52s.24.31.36.47a3.58,3.58,0,0,1,.25.42.46.46,0,0,1,0,.38c-.21.46-.13.89.4,1.4L26.37,5c0-.11,0-.22,0-.33s.08-.39.27-.44.25.21.35.34.07.68.55.38a1,1,0,0,1,.24,1c-.3,0-.19-.44-.47-.43-.45.8.18,3.14,1.11,4,0-1.66-.34-3.26-.47-4.87.1-.32.2-.55.48-.1a1.38,1.38,0,0,1,.27,1.1,8.68,8.68,0,0,0,.19,2.07c.05.88.08,1.77.05,2.65A1.55,1.55,0,0,1,27.34,12c-.33,0-.61-.35-1.15,0,.29-.43.37-.7.2-1l.45,0c0,.23,0,.53.3.54a1.17,1.17,0,0,0,1-.53c.11-.15.34-.28.15-.53s-.43-.64-.69-1c-.09.52-.07,1-.58,1.23,0-.69,0-1.39-.09-2.08,0-.31-.16-.7-.47-.67s-.13.43-.12.65A4.16,4.16,0,0,1,26.2,10.77Z" transform="translate(-0.13 -0.14)"/><path class="cls-2" d="M15.41,6.68l-.08-.84c-.31.17-.21.48-.33.69-.25.45-.57.5-.83.06A1.84,1.84,0,0,1,14,4.81c.35.43.12,1,.54,1.43.19-.44.36-.86.55-1.26.09-.18.22-.41.47-.35s.22.32.23.53,0,.47,0,.7a.44.44,0,0,0,.4.49c.28,0,.4-.19.47-.42a1.55,1.55,0,0,0-.07-1A.75.75,0,0,1,16.86,4c.39.41.27.92.32,1.38s0,.67.32.88a.24.24,0,0,0,.31-.08c.21-.33,0-.63-.12-.92a1.11,1.11,0,0,1-.19-.58c0-.19.14-.51.21-.46.46.32,1-.34,1.43.13.17.2.4.47.52-.06a.14.14,0,0,1,.27,0c.24.42.72.73.55,1.35a1.62,1.62,0,0,0,.14,1.16c.4.74.87,1.46,1.39,2.31.09-1.69-.45-3.24-.23-4.84.4.12.39.38.53.52.1.72,0,1.43.1,2.16a10.17,10.17,0,0,1,.05,3.65,9.88,9.88,0,0,1-.64.91,1.18,1.18,0,0,1-.91.44.37.37,0,0,1-.39-.24c-.06-.18.12-.21.24-.28a4.77,4.77,0,0,0,1.15-.9c.16-.17.22-.24,0-.5A7.31,7.31,0,0,1,21,8.54c-.08-.14-.14-.34-.35-.25s-.09.25-.09.37a8.66,8.66,0,0,1,.13,1.44,1.25,1.25,0,0,1-.58,1V9.79c0-.27,0-.55,0-.83a4.82,4.82,0,0,0-1.36-3.8c-.12-.12-.17-.34-.43-.2s-.15.25-.12.42c.08.54.24,1,1,.59-.15.42-.17.36-.7.51-.33.09-.44.68-.95.51a.6.6,0,0,1-.27-.2c-.21-.32-.4-.22-.61,0C16.2,7.3,15.78,7.19,15.41,6.68Z" transform="translate(-0.13 -0.14)"/><path class="cls-2" d="M15,7.27c.1-.16.18-.35.43-.25A5.42,5.42,0,0,1,16,9.15a2.23,2.23,0,0,1,1.23-.79c.4-.08.64-.23.65-.71A.6.6,0,0,1,18.64,7a.71.71,0,0,1,.59.82,1,1,0,0,1-.69.87c-.18.09-.44,0-.6.31.53,0,1,0,1.45,0s.54.19.39.57a.58.58,0,0,1-.54.45l-1.17.19c-.24,0-.5,0-.59.31s.18.39.38.5.29.18.23.37-.26.21-.45.18a2.18,2.18,0,0,1-1.53-.74c-.3-.4-.46-.29-.71,0a3.37,3.37,0,0,1-.76.7,1,1,0,0,1-1.59-.17c-.19-.22-.32-.18-.52-.1a2.37,2.37,0,0,1-1.34.28,2.6,2.6,0,0,1,.92-.71c.42-.29,1-.43,1-1.1,0,0,.07-.31.27-.22.58.27.69-.23.92-.54s0-.59-.27-.8-.13-.47-.08-.71.32-.29.56-.23a2.36,2.36,0,0,1-.68,3.27c-.15.1-.37.19-.27.42s.29.2.48.16a2.09,2.09,0,0,0,1.43-2.06C15.33,8.47,15.13,7.87,15,7.27Zm2.53,2.52c-.21-.24-.46-.18-.68-.2s-.63-.24-.64.23a.94.94,0,0,0,.59.81c.1,0,.2,0,.19-.12C16.89,10.11,17.29,10,17.48,9.79Z" transform="translate(-0.13 -0.14)"/><path class="cls-2" d="M9.82,18h7.52c1.7,0,3.4,0,5.1,0,.14,0,.3-.05.42,0,.51.25.21-1,.67-.43a1.13,1.13,0,0,0,.95.45c.37,0,.74,0,1.11,0a.83.83,0,0,1,.58,1.09c-.11.44-.36.45-.79.31a3.18,3.18,0,0,0-1.65,0c-.33.07-.48,0-.48-.28,0-.53-.35-.44-.66-.44l-10.76,0A2.25,2.25,0,0,1,9.82,18Zm15.46.93a2.26,2.26,0,0,0-1.6,0C24.21,19.16,24.76,18.84,25.28,18.92Z" transform="translate(-0.13 -0.14)"/><path class="cls-3" d="M19.78,9.6c.15-.38.12-.61-.39-.57s-.92,0-1.45,0c.16-.26.42-.22.6-.31a1,1,0,0,0,.69-.87A.71.71,0,0,0,18.64,7a.6.6,0,0,0-.76.61c0,.48-.25.63-.65.71A2.23,2.23,0,0,0,16,9.15,5.42,5.42,0,0,0,15.38,7l0-.34c.37.51.79.62,1.25.11.21-.22.4-.32.61,0a.6.6,0,0,0,.27.2c.51.17.62-.42.95-.51.53-.15.55-.09.7-.51-.72.37-.88,0-1-.59,0-.17-.08-.3.12-.42s.31.08.43.2A4.82,4.82,0,0,1,20.14,9c0,.28,0,.56,0,.83ZM16.93,7.37c-.08.16-.39-.18-.39.18s.19.35.42.35.42-.07.41-.34S17.09,7.45,16.93,7.37Z" transform="translate(-0.13 -0.14)"/><path class="cls-3" d="M22.46,10.6A10.17,10.17,0,0,0,22.41,7c-.13-.73,0-1.44-.1-2.16l.34,0c.11,2,.77,3.92.84,5.93l.28-.47.33,0a.65.65,0,0,1-.05.2c-.15.26-.14.72-.5.74s-.36-.41-.51-.65a2.11,2.11,0,0,0-.19-.15l-.07.4Z" transform="translate(-0.13 -0.14)"/><path class="cls-2" d="M23.77,10.21l-.28.47c-.07-2-.73-3.93-.84-5.93.07-.16.06-.37.25-.51a2.44,2.44,0,0,1,.51,1.69,10.75,10.75,0,0,0,.3,2.68A7.13,7.13,0,0,1,23.77,10.21Z" transform="translate(-0.13 -0.14)"/><path class="cls-3" d="M27.94,4.61c.13,1.61.46,3.21.47,4.87-.93-.9-1.56-3.24-1.11-4,.28,0,.17.41.47.43a1,1,0,0,0-.24-1Z" transform="translate(-0.13 -0.14)"/><path class="cls-3" d="M15,7.27c.18.6.38,1.2.52,1.81A2.09,2.09,0,0,1,14,11.14c-.19,0-.39,0-.48-.16s.12-.32.27-.42a2.36,2.36,0,0,0,.68-3.27Z" transform="translate(-0.13 -0.14)"/><path class="cls-2" d="M13,6a1.26,1.26,0,0,1-1,.21c0-.32.34-.4.53-.58s.72-.43.43-1c-.12-.22.05-.37.33-.36s.43,0,.39.33,0,.46-.13.58c-.44.46-.8.88-.16,1.45.09.08,0,.17-.11.21a.31.31,0,0,1-.42-.14C12.81,6.56,12.89,6.36,13,6Z" transform="translate(-0.13 -0.14)"/><path class="cls-2" d="M25.62,7.75c-.73.62.44,1.35-.23,2l-.33-1.23h-.14c-.22.05-.45.45-.63.19s.21-.41.4-.55.5-.36.76-.54Z" transform="translate(-0.13 -0.14)"/><path class="cls-2" d="M25.19,6.15l-.3,1c0,.13.06.41-.2.35a1,1,0,0,1-.65-.6c-.08-.15-.05-.42.1-.41.43.06.65-.43,1.06-.38Z" transform="translate(-0.13 -0.14)"/><path class="cls-2" d="M7,10c.19.43-.26,1,.45,1.15.11,0,0,.46-.22.57a.33.33,0,0,1-.48-.25A2,2,0,0,1,7,10Z" transform="translate(-0.13 -0.14)"/><path class="cls-2" d="M21.13,5.58a1.59,1.59,0,0,0-.31-.89c-.1-.12-.14-.26,0-.35s.27,0,.35.14A1,1,0,0,1,21.13,5.58Z" transform="translate(-0.13 -0.14)"/><path class="cls-2" d="M21.15,6.09c.15.09.42-.18.42.19a.37.37,0,0,1-.4.38.37.37,0,0,1-.44-.35C20.7,5.87,21.07,6.28,21.15,6.09Z" transform="translate(-0.13 -0.14)"/><path class="cls-2" d="M19.4,11.45c-.46.26-.58-.19-.76-.4s.11-.27.24-.34.22.08.26.21C19,11.2,19.46,11.2,19.4,11.45Z" transform="translate(-0.13 -0.14)"/><path class="cls-2" d="M7.87,5.17c-.43-.1-.4-.53-.57-.81,0,0,0-.14.1-.15s.23.07.32.18-.18.57.13.79Z" transform="translate(-0.13 -0.14)"/><path class="cls-2" d="M16.26,4a1,1,0,0,1-.15,1C15.92,4.51,15.92,4.51,16.26,4Z" transform="translate(-0.13 -0.14)"/><path class="cls-3" d="M19.4,11.45c.06-.25-.39-.25-.26-.53h.28c.2,0,.48,0,.48.25S19.63,11.46,19.4,11.45Z" transform="translate(-0.13 -0.14)"/><path class="cls-3" d="M8.7,9.69c.51,0,.6-.34.63-.72s0-.65,0-1S9,6.83,10,7.34c.4.2.85-.3.91-.93.28.24.19.57.25.84s.22.53,0,.71-.33-.18-.5-.27a.57.57,0,0,0-.75.15A1,1,0,0,0,9.7,8.89c.12.29.41.25.67.17a3.44,3.44,0,0,0,.4-.17,1.71,1.71,0,0,1-1.19,1.2A.63.63,0,0,1,8.7,9.69Z" transform="translate(-0.13 -0.14)"/><path class="cls-3" d="M11,9.69a1.67,1.67,0,0,1-1.71,1.53c-.69,0-1-.33-1-1,.37.52.83.89,1.47.65A2.51,2.51,0,0,0,11,9.69Z" transform="translate(-0.13 -0.14)"/><path class="cls-3" d="M9.5,4.91c.14,0,.33-.06.35,0,.2.54.39,1.08.56,1.62,0,.07-.11.15-.2.11s-.48-.24-.45-.55A2.16,2.16,0,0,0,9.5,4.91Z" transform="translate(-0.13 -0.14)"/><path class="cls-1" d="M26.2,10.77a4.16,4.16,0,0,0,.12-2.24c0-.22-.17-.63.12-.65s.45.36.47.67c.05.69.06,1.39.09,2.08l-.16.33-.45,0Z" transform="translate(-0.13 -0.14)"/><path class="cls-3" d="M26.84,11l.16-.33c.51-.21.49-.71.58-1.23.26.4.46.73.69,1s0,.38-.15.53a1.17,1.17,0,0,1-1,.53C26.84,11.49,26.86,11.19,26.84,11Z" transform="translate(-0.13 -0.14)"/><path class="cls-1" d="M26.37,5l.24,1.91c-.53-.51-.61-.94-.4-1.4a.46.46,0,0,0,0-.38Z" transform="translate(-0.13 -0.14)"/><path class="cls-3" d="M17.48,9.79c-.19.23-.59.32-.54.72,0,.11-.09.16-.19.12a.94.94,0,0,1-.59-.81c0-.47.4-.25.64-.23S17.27,9.55,17.48,9.79Z" transform="translate(-0.13 -0.14)"/><path class="cls-3" d="M25.28,18.92c-.52-.08-1.07.24-1.6,0A2.26,2.26,0,0,1,25.28,18.92Z" transform="translate(-0.13 -0.14)"/><path class="cls-2" d="M16.93,7.37c.16.08.42-.15.44.19s-.19.34-.41.34-.42-.1-.42-.35S16.85,7.53,16.93,7.37Z" transform="translate(-0.13 -0.14)"/></g></g></svg>