<svg xmlns="http://www.w3.org/2000/svg" xmlns:xlink="http://www.w3.org/1999/xlink" viewBox="0 0 945.2 846.27"><defs><style>.cls-1{fill:none;}.cls-2{isolation:isolate;}.cls-3{clip-path:url(#clip-path);}.cls-4{fill:#e6e7e8;}.cls-27,.cls-5,.cls-50,.cls-76{mix-blend-mode:multiply;}.cls-6{fill:#fff;}.cls-7{fill:#f3f3f3;}.cls-8{fill:#e7e7e7;}.cls-9{fill:#dbdbdb;}.cls-10{fill:#cecece;}.cls-11{fill:#c2c2c2;}.cls-12{fill:#b6b6b6;}.cls-13{fill:#aaa;}.cls-14{fill:#9e9e9e;}.cls-15{fill:#929292;}.cls-16{fill:#868686;}.cls-17{fill:#797979;}.cls-18{fill:#6d6d6d;}.cls-19{fill:#616161;}.cls-20{fill:#555;}.cls-21{fill:#494949;}.cls-22{fill:#3d3d3d;}.cls-23{fill:#313131;}.cls-24{fill:#242424;}.cls-25{fill:#181818;}.cls-26{fill:#0c0c0c;}.cls-27{opacity:0.4;}.cls-28{fill:url(#linear-gradient);}.cls-29{fill:url(#linear-gradient-2);}.cls-30{fill:url(#linear-gradient-3);}.cls-31{fill:url(#linear-gradient-4);}.cls-32{fill:url(#linear-gradient-5);}.cls-33{fill:url(#linear-gradient-6);}.cls-34{fill:url(#linear-gradient-7);}.cls-35{fill:url(#linear-gradient-8);}.cls-36{fill:url(#linear-gradient-9);}.cls-37{fill:url(#linear-gradient-10);}.cls-38{fill:url(#linear-gradient-11);}.cls-39{fill:url(#linear-gradient-12);}.cls-40{fill:url(#linear-gradient-13);}.cls-41{fill:url(#linear-gradient-14);}.cls-42{fill:url(#linear-gradient-15);}.cls-43{fill:url(#linear-gradient-16);}.cls-44{fill:url(#linear-gradient-17);}.cls-45{fill:url(#linear-gradient-18);}.cls-46{fill:url(#linear-gradient-19);}.cls-47{fill:url(#linear-gradient-20);}.cls-48{fill:url(#_åðíî-áåëûé);}.cls-49{fill:url(#Íîâûé_îáðàçåö_ãðàäèåíòà_7);}.cls-50{opacity:0.3;}.cls-51{fill:url(#linear-gradient-21);}.cls-52{fill:url(#linear-gradient-22);}.cls-53{fill:url(#linear-gradient-23);}.cls-54{fill:url(#linear-gradient-24);}.cls-55{fill:url(#linear-gradient-25);}.cls-56{fill:url(#linear-gradient-26);}.cls-57{fill:url(#linear-gradient-27);}.cls-58{fill:url(#linear-gradient-28);}.cls-59{fill:url(#linear-gradient-29);}.cls-60{fill:url(#linear-gradient-30);}.cls-61{fill:url(#linear-gradient-31);}.cls-62{fill:url(#linear-gradient-32);}.cls-63{fill:url(#linear-gradient-33);}.cls-64{fill:url(#linear-gradient-34);}.cls-65{fill:url(#linear-gradient-35);}.cls-66{fill:url(#Íîâûé_îáðàçåö_ãðàäèåíòà_7-2);}.cls-67,.cls-68,.cls-72,.cls-73,.cls-74,.cls-75{mix-blend-mode:screen;}.cls-68,.cls-71,.cls-74,.cls-75,.cls-76{opacity:0.5;}.cls-68{fill:url(#linear-gradient-36);}.cls-69{fill:url(#linear-gradient-37);}.cls-70{fill:#181819;}.cls-72{fill:url(#radial-gradient);}.cls-73{fill:url(#radial-gradient-2);}.cls-74{fill:url(#Íîâûé_îáðàçåö_ãðàäèåíòà_6);}.cls-75{fill:url(#Íîâûé_îáðàçåö_ãðàäèåíòà_6-2);}.cls-76{fill:url(#linear-gradient-38);}</style><clipPath id="clip-path" transform="translate(-1127.21 -30.74)"><rect class="cls-1" width="2086.28" height="599.35"/></clipPath><linearGradient id="linear-gradient" x1="1458.91" y1="530.83" x2="1458.91" y2="601.48" gradientUnits="userSpaceOnUse"><stop offset="0" stop-color="#fff"/><stop offset="1" stop-color="#f5f4f4"/></linearGradient><linearGradient id="linear-gradient-2" x1="1458.84" y1="530.98" x2="1458.84" y2="600.13" gradientUnits="userSpaceOnUse"><stop offset="0" stop-color="#fff"/><stop offset="1" stop-color="#eaeaea"/></linearGradient><linearGradient id="linear-gradient-3" x1="1458.76" y1="531.12" x2="1458.76" y2="598.83" gradientUnits="userSpaceOnUse"><stop offset="0" stop-color="#fff"/><stop offset="1" stop-color="#e0dfdf"/></linearGradient><linearGradient id="linear-gradient-4" x1="1458.67" y1="531.23" x2="1458.67" y2="597.71" gradientUnits="userSpaceOnUse"><stop offset="0" stop-color="#fff"/><stop offset="1" stop-color="#d5d4d5"/></linearGradient><linearGradient id="linear-gradient-5" x1="1458.59" y1="531.28" x2="1458.59" y2="596.84" gradientUnits="userSpaceOnUse"><stop offset="0" stop-color="#fff"/><stop offset="1" stop-color="#cbcaca"/></linearGradient><linearGradient id="linear-gradient-6" x1="1458.51" y1="531.33" x2="1458.51" y2="596.02" gradientUnits="userSpaceOnUse"><stop offset="0" stop-color="#fff"/><stop offset="1" stop-color="#c0bfbf"/></linearGradient><linearGradient id="linear-gradient-7" x1="1458.42" y1="531.37" x2="1458.42" y2="595.19" gradientUnits="userSpaceOnUse"><stop offset="0" stop-color="#fff"/><stop offset="1" stop-color="#b6b4b5"/></linearGradient><linearGradient id="linear-gradient-8" x1="1458.34" y1="531.42" x2="1458.34" y2="594.37" gradientUnits="userSpaceOnUse"><stop offset="0" stop-color="#fff"/><stop offset="1" stop-color="#abaaaa"/></linearGradient><linearGradient id="linear-gradient-9" x1="1458.25" y1="531.47" x2="1458.25" y2="593.55" gradientUnits="userSpaceOnUse"><stop offset="0" stop-color="#fff"/><stop offset="1" stop-color="#a19f9f"/></linearGradient><linearGradient id="linear-gradient-10" x1="1458.17" y1="531.51" x2="1458.17" y2="592.73" gradientUnits="userSpaceOnUse"><stop offset="0" stop-color="#fff"/><stop offset="1" stop-color="#969495"/></linearGradient><linearGradient id="linear-gradient-11" x1="1458.09" y1="531.56" x2="1458.09" y2="591.9" gradientUnits="userSpaceOnUse"><stop offset="0" stop-color="#fff"/><stop offset="1" stop-color="#8c8a8a"/></linearGradient><linearGradient id="linear-gradient-12" x1="1458.01" y1="531.61" x2="1458.01" y2="591.08" gradientUnits="userSpaceOnUse"><stop offset="0" stop-color="#fff"/><stop offset="1" stop-color="#817f80"/></linearGradient><linearGradient id="linear-gradient-13" x1="1457.95" y1="531.65" x2="1457.95" y2="590.26" gradientUnits="userSpaceOnUse"><stop offset="0" stop-color="#fff"/><stop offset="1" stop-color="#777475"/></linearGradient><linearGradient id="linear-gradient-14" x1="1457.9" y1="531.7" x2="1457.9" y2="589.44" gradientUnits="userSpaceOnUse"><stop offset="0" stop-color="#fff"/><stop offset="1" stop-color="#6c6a6a"/></linearGradient><linearGradient id="linear-gradient-15" x1="1457.81" y1="531.74" x2="1457.81" y2="588.61" gradientUnits="userSpaceOnUse"><stop offset="0" stop-color="#fff"/><stop offset="1" stop-color="#625f60"/></linearGradient><linearGradient id="linear-gradient-16" x1="1457.72" y1="531.79" x2="1457.72" y2="587.79" gradientUnits="userSpaceOnUse"><stop offset="0" stop-color="#fff"/><stop offset="1" stop-color="#575455"/></linearGradient><linearGradient id="linear-gradient-17" x1="1457.68" y1="531.84" x2="1457.68" y2="586.97" gradientUnits="userSpaceOnUse"><stop offset="0" stop-color="#fff"/><stop offset="1" stop-color="#4d4a4a"/></linearGradient><linearGradient id="linear-gradient-18" x1="1457.64" y1="531.88" x2="1457.64" y2="586.18" gradientUnits="userSpaceOnUse"><stop offset="0" stop-color="#fff"/><stop offset="1" stop-color="#423f40"/></linearGradient><linearGradient id="linear-gradient-19" x1="1457.6" y1="531.91" x2="1457.6" y2="585.4" gradientUnits="userSpaceOnUse"><stop offset="0" stop-color="#fff"/><stop offset="1" stop-color="#383435"/></linearGradient><linearGradient id="linear-gradient-20" x1="1457.56" y1="531.95" x2="1457.56" y2="584.61" gradientUnits="userSpaceOnUse"><stop offset="0" stop-color="#fff"/><stop offset="1" stop-color="#2d2a2b"/></linearGradient><linearGradient id="_åðíî-áåëûé" x1="1457.51" y1="531.99" x2="1457.51" y2="583.83" gradientUnits="userSpaceOnUse"><stop offset="0" stop-color="#fff"/><stop offset="1" stop-color="#231f20"/></linearGradient><linearGradient id="Íîâûé_îáðàçåö_ãðàäèåíòà_7" x1="1127.21" y1="453.87" x2="1789.71" y2="453.87" gradientUnits="userSpaceOnUse"><stop offset="0" stop-color="#383838"/><stop offset="0.01" stop-color="#3a3a3a"/><stop offset="0.19" stop-color="#555"/><stop offset="0.38" stop-color="#686969"/><stop offset="0.56" stop-color="#737474"/><stop offset="0.76" stop-color="#777878"/></linearGradient><linearGradient id="linear-gradient-21" x1="1127.21" y1="475.93" x2="1789.71" y2="475.93" gradientUnits="userSpaceOnUse"><stop offset="0" stop-color="#f3f3f3"/><stop offset="0.01" stop-color="#f3f3f3"/><stop offset="0.76" stop-color="#f7f7f7"/></linearGradient><linearGradient id="linear-gradient-22" x1="1127.21" y1="476.02" x2="1789.71" y2="476.02" gradientUnits="userSpaceOnUse"><stop offset="0" stop-color="#e6e6e6"/><stop offset="0.23" stop-color="#eaeaea"/><stop offset="0.76" stop-color="#eee"/></linearGradient><linearGradient id="linear-gradient-23" x1="1127.21" y1="476.11" x2="1789.71" y2="476.11" gradientUnits="userSpaceOnUse"><stop offset="0" stop-color="#dadada"/><stop offset="0.32" stop-color="#e2e2e2"/><stop offset="0.76" stop-color="#e6e6e6"/></linearGradient><linearGradient id="linear-gradient-24" x1="1127.21" y1="476.2" x2="1789.71" y2="476.2" gradientUnits="userSpaceOnUse"><stop offset="0" stop-color="#cdcdcd"/><stop offset="0.01" stop-color="#cecece"/><stop offset="0.38" stop-color="#d9d9d9"/><stop offset="0.76" stop-color="#ddd"/></linearGradient><linearGradient id="linear-gradient-25" x1="1127.21" y1="476.29" x2="1789.71" y2="476.29" gradientUnits="userSpaceOnUse"><stop offset="0" stop-color="#c1c1c1"/><stop offset="0.09" stop-color="#c6c6c6"/><stop offset="0.42" stop-color="#d1d1d1"/><stop offset="0.76" stop-color="#d5d5d5"/></linearGradient><linearGradient id="linear-gradient-26" x1="1127.21" y1="476.38" x2="1789.71" y2="476.38" gradientUnits="userSpaceOnUse"><stop offset="0" stop-color="#b4b4b4"/><stop offset="0.15" stop-color="#bdbdbd"/><stop offset="0.45" stop-color="#c8c8c8"/><stop offset="0.76" stop-color="#ccc"/></linearGradient><linearGradient id="linear-gradient-27" x1="1127.21" y1="476.46" x2="1789.71" y2="476.46" gradientUnits="userSpaceOnUse"><stop offset="0" stop-color="#a8a8a8"/><stop offset="0.19" stop-color="#b4b5b5"/><stop offset="0.47" stop-color="#bfc0c0"/><stop offset="0.76" stop-color="#c3c4c4"/></linearGradient><linearGradient id="linear-gradient-28" x1="1127.21" y1="476.55" x2="1789.71" y2="476.55" gradientUnits="userSpaceOnUse"><stop offset="0" stop-color="#9c9c9c"/><stop offset="0.23" stop-color="#acadad"/><stop offset="0.49" stop-color="#b7b8b8"/><stop offset="0.76" stop-color="#bbbcbc"/></linearGradient><linearGradient id="linear-gradient-29" x1="1127.21" y1="476.64" x2="1789.71" y2="476.64" gradientUnits="userSpaceOnUse"><stop offset="0" stop-color="#8f8f8f"/><stop offset="0.01" stop-color="#909090"/><stop offset="0.25" stop-color="#a4a4a4"/><stop offset="0.5" stop-color="#afafaf"/><stop offset="0.76" stop-color="#b3b3b3"/></linearGradient><linearGradient id="linear-gradient-30" x1="1127.21" y1="476.73" x2="1789.71" y2="476.73" gradientUnits="userSpaceOnUse"><stop offset="0" stop-color="#838383"/><stop offset="0.05" stop-color="#888"/><stop offset="0.28" stop-color="#9b9c9c"/><stop offset="0.51" stop-color="#a6a7a7"/><stop offset="0.76" stop-color="#aaabab"/></linearGradient><linearGradient id="linear-gradient-31" x1="1127.21" y1="476.82" x2="1789.71" y2="476.82" gradientUnits="userSpaceOnUse"><stop offset="0" stop-color="#767676"/><stop offset="0.08" stop-color="#7f7f7f"/><stop offset="0.3" stop-color="#939393"/><stop offset="0.53" stop-color="#9e9e9e"/><stop offset="0.76" stop-color="#a2a2a2"/></linearGradient><linearGradient id="linear-gradient-32" x1="1127.21" y1="476.91" x2="1789.71" y2="476.91" gradientUnits="userSpaceOnUse"><stop offset="0" stop-color="#6a6a6a"/><stop offset="0.11" stop-color="#777"/><stop offset="0.32" stop-color="#8a8b8b"/><stop offset="0.54" stop-color="#959696"/><stop offset="0.76" stop-color="#999a9a"/></linearGradient><linearGradient id="linear-gradient-33" x1="1127.21" y1="477" x2="1789.71" y2="477" gradientUnits="userSpaceOnUse"><stop offset="0" stop-color="#5d5d5d"/><stop offset="0.13" stop-color="#6e6e6e"/><stop offset="0.34" stop-color="#828282"/><stop offset="0.54" stop-color="#8d8d8d"/><stop offset="0.76" stop-color="#919191"/></linearGradient><linearGradient id="linear-gradient-34" x1="1127.21" y1="477.09" x2="1789.71" y2="477.09" gradientUnits="userSpaceOnUse"><stop offset="0" stop-color="#515151"/><stop offset="0.16" stop-color="#666"/><stop offset="0.35" stop-color="#797a7a"/><stop offset="0.55" stop-color="#848585"/><stop offset="0.76" stop-color="#888989"/></linearGradient><linearGradient id="linear-gradient-35" x1="1127.21" y1="477.18" x2="1789.71" y2="477.18" gradientUnits="userSpaceOnUse"><stop offset="0" stop-color="#444"/><stop offset="0.18" stop-color="#5d5d5d"/><stop offset="0.37" stop-color="#717171"/><stop offset="0.56" stop-color="#7c7c7c"/><stop offset="0.76" stop-color="gray"/></linearGradient><linearGradient id="Íîâûé_îáðàçåö_ãðàäèåíòà_7-2" x1="1127.21" y1="477.26" x2="1789.71" y2="477.26" xlink:href="#Íîâûé_îáðàçåö_ãðàäèåíòà_7"/><linearGradient id="linear-gradient-36" x1="1188.87" y1="32.58" x2="1831.56" y2="371.29" gradientUnits="userSpaceOnUse"><stop offset="0" stop-color="#fff"/><stop offset="0.84"/><stop offset="1" stop-color="#404143"/></linearGradient><linearGradient id="linear-gradient-37" x1="330.43" y1="543.3" x2="330.43" y2="456.98" gradientUnits="userSpaceOnUse"><stop offset="0" stop-color="#7b7d7e"/><stop offset="0.01" stop-color="#717374"/><stop offset="0.05" stop-color="#616263"/><stop offset="0.09" stop-color="#555758"/><stop offset="0.15" stop-color="#4f5051"/><stop offset="0.31" stop-color="#4d4e4f"/><stop offset="0.31" stop-color="#4b4c4d"/><stop offset="0.34" stop-color="#2f3031"/><stop offset="0.37" stop-color="#1e1e1f"/><stop offset="0.39" stop-color="#181819"/><stop offset="0.46" stop-color="#2b2b2c"/><stop offset="0.55" stop-color="#3e3f40"/><stop offset="0.65" stop-color="#494a4b"/><stop offset="0.74" stop-color="#4d4e4f"/><stop offset="0.75" stop-color="#4b4c4d"/><stop offset="0.85" stop-color="#2f3031"/><stop offset="0.94" stop-color="#1e1e1f"/><stop offset="1" stop-color="#181819"/></linearGradient><radialGradient id="radial-gradient" cx="227.12" cy="545.38" r="44.02" gradientUnits="userSpaceOnUse"><stop offset="0" stop-color="#fff"/><stop offset="1"/></radialGradient><radialGradient id="radial-gradient-2" cx="438.47" cy="545.96" r="43.35" xlink:href="#radial-gradient"/><linearGradient id="Íîâûé_îáðàçåö_ãðàäèåíòà_6" x1="171.13" y1="539.62" x2="272.36" y2="525.68" xlink:href="#radial-gradient"/><linearGradient id="Íîâûé_îáðàçåö_ãðàäèåíòà_6-2" x1="496.8" y1="532.36" x2="389.83" y2="526.69" xlink:href="#radial-gradient"/><linearGradient id="linear-gradient-38" x1="330.58" y1="510.73" x2="330.58" y2="526.88" gradientUnits="userSpaceOnUse"><stop offset="0"/><stop offset="0.11" stop-color="#151515"/><stop offset="0.35" stop-color="#4d4d4d"/><stop offset="0.68" stop-color="#a4a4a4"/><stop offset="1" stop-color="#fff"/></linearGradient></defs><title>Asset 5</title><g class="cls-2"><g id="Layer_2" data-name="Layer 2"><g id="Layer_1-2" data-name="Layer 1"><g class="cls-3"><ellipse class="cls-4" cx="525.47" cy="423.13" rx="419.73" ry="423.13"/></g><g class="cls-5"><path class="cls-6" d="M1612.58,585.22h-310c-6.48,0-5.6-4.53,0-7.87l50.18-30.73a50,50,0,0,1,21.79-6h166.19a49.28,49.28,0,0,1,21.77,6.12l51.81,31.53C1616.71,580.18,1619.06,585.24,1612.58,585.22Z" transform="translate(-1127.21 -30.74)"/><path class="cls-7" d="M1611.85,584.9l-308.5,0c-6.48,0-5.57-4.48,0-7.82L1353,546.75c5.56-3.32,15.13-6.16,21.59-6.16h166.19c6.48,0,15.88,2.77,21.44,6.15l51,31.08C1615.77,579.82,1618.34,584.92,1611.85,584.9Z" transform="translate(-1127.21 -30.74)"/><path class="cls-8" d="M1611.13,584.58l-307.05-.05c-6.48,0-5.53-4.42,0-7.77l49.06-29.88c5.56-3.32,14.92-6.29,21.38-6.29h166.19c6.48,0,15.55,2.8,21.1,6.18l50.29,30.62C1614.82,579.47,1617.61,584.6,1611.13,584.58Z" transform="translate(-1127.21 -30.74)"/><path class="cls-9" d="M1610.41,584.26l-305.61-.07c-6.48,0-5.49-4.38.07-7.72l48.5-29.46c5.56-3.32,14.71-6.42,21.17-6.42h166.19c6.48,0,15.21,2.83,20.77,6.21L1611,577C1613.88,579.11,1616.89,584.28,1610.41,584.26Z" transform="translate(-1127.21 -30.74)"/><path class="cls-10" d="M1609.68,583.94l-304.15-.1c-6.48,0-5.45-4.32.11-7.67l47.94-29c5.55-3.32,14.5-6.55,21-6.55h166.19c6.48,0,14.88,2.86,20.43,6.24l48.77,29.71C1612.93,578.75,1616.16,584,1609.68,583.94Z" transform="translate(-1127.21 -30.74)"/><path class="cls-11" d="M1609,583.62l-302.7-.12c-6.48,0-5.41-4.28.14-7.62l47.38-28.61c5.56-3.32,14.3-6.68,20.76-6.68h166.19c6.48,0,14.54,2.89,20.09,6.27l48,29.26C1612,578.4,1615.44,583.63,1609,583.62Z" transform="translate(-1127.21 -30.74)"/><path class="cls-12" d="M1608.23,583.3,1307,583.15c-6.48,0-5.38-4.22.18-7.56L1354,547.41c5.56-3.33,14.09-6.82,20.55-6.82h166.19c6.48,0,14.21,2.93,19.76,6.3l47.25,28.8C1611,578,1614.72,583.31,1608.23,583.3Z" transform="translate(-1127.21 -30.74)"/><path class="cls-13" d="M1607.51,583l-299.8-.17c-6.48,0-5.33-4.17.22-7.52l46.27-27.75c5.56-3.33,13.88-6.95,20.34-6.95h166.19c6.48,0,13.87,3,19.42,6.33l46.5,28.34C1610.09,577.68,1614,583,1607.51,583Z" transform="translate(-1127.21 -30.74)"/><path class="cls-14" d="M1606.78,582.65l-298.34-.19c-6.48,0-5.3-4.12.26-7.46l45.71-27.33c5.55-3.33,13.67-7.08,20.13-7.08h166.19c6.48,0,13.53,3,19.08,6.36l45.74,27.89C1609.15,577.33,1613.27,582.67,1606.78,582.65Z" transform="translate(-1127.21 -30.74)"/><path class="cls-15" d="M1606.06,582.33l-296.89-.21c-6.48,0-5.26-4.07.3-7.42l45.14-26.9c5.56-3.33,13.47-7.21,19.93-7.21h166.19c6.48,0,13.2,3,18.75,6.39l45,27.43C1608.2,577,1612.54,582.35,1606.06,582.33Z" transform="translate(-1127.21 -30.74)"/><path class="cls-16" d="M1605.34,582l-295.44-.23c-6.48,0-5.22-4,.33-7.37l44.59-26.48c5.56-3.33,13.26-7.34,19.72-7.34h166.19c6.48,0,12.86,3,18.41,6.42l44.22,27C1607.26,576.61,1611.82,582,1605.34,582Z" transform="translate(-1127.21 -30.74)"/><path class="cls-17" d="M1604.61,581.69l-294-.26c-6.48,0-5.18-4,.38-7.31l44-26.06c5.55-3.33,13-7.47,19.51-7.47h166.19c6.48,0,12.53,3.08,18.08,6.45l43.46,26.52C1606.31,576.26,1611.09,581.71,1604.61,581.69Z" transform="translate(-1127.21 -30.74)"/><path class="cls-18" d="M1603.89,581.37l-292.54-.28c-6.48,0-5.14-3.92.41-7.27l43.48-25.63c5.55-3.33,12.84-7.6,19.3-7.6h166.19c6.48,0,12.19,3.11,17.74,6.48l42.7,26.07C1605.37,575.9,1610.37,581.39,1603.89,581.37Z" transform="translate(-1127.21 -30.74)"/><path class="cls-19" d="M1603.16,581.05l-291.08-.31c-6.48,0-5.11-3.87.45-7.21l42.91-25.21c5.56-3.33,12.64-7.73,19.1-7.73h166.19c6.48,0,11.86,3.14,17.4,6.51l41.95,25.61C1604.42,575.54,1609.65,581.07,1603.16,581.05Z" transform="translate(-1127.21 -30.74)"/><path class="cls-20" d="M1602.44,580.73l-289.63-.33c-6.48,0-5.07-3.82.48-7.17l42.36-24.78c5.56-3.33,12.43-7.86,18.89-7.86h166.19c6.48,0,11.52,3.17,17.07,6.54L1599,572.29C1603.47,575.18,1608.92,580.75,1602.44,580.73Z" transform="translate(-1127.21 -30.74)"/><path class="cls-21" d="M1601.71,580.41l-288.17-.36c-6.49,0-5-3.76.52-7.11l41.8-24.36c5.55-3.33,12.22-8,18.68-8h166.19c6.48,0,11.19,3.2,16.73,6.57l40.43,24.7C1602.53,574.83,1608.2,580.42,1601.71,580.41Z" transform="translate(-1127.21 -30.74)"/><path class="cls-22" d="M1601,580.09l-286.73-.38c-6.48,0-5-3.72.57-7.06l41.24-23.94c5.55-3.33,12-8.12,18.47-8.12h166.19c6.48,0,10.85,3.24,16.39,6.6l39.67,24.25C1601.58,574.47,1607.47,580.1,1601,580.09Z" transform="translate(-1127.21 -30.74)"/><path class="cls-23" d="M1600.27,579.77,1315,579.36c-6.48,0-5-3.66.6-7l40.68-23.51c5.56-3.32,11.81-8.25,18.27-8.25h166.19c6.48,0,10.52,3.27,16.06,6.63L1595.7,571C1600.64,574.11,1606.75,579.78,1600.27,579.77Z" transform="translate(-1127.21 -30.74)"/><path class="cls-24" d="M1599.54,579.45,1315.72,579c-6.48,0-4.92-3.61.64-7L1356.48,549c5.56-3.32,11.6-8.38,18.06-8.38h166.19c6.48,0,10.18,3.3,15.72,6.66l38.15,23.33C1599.69,573.76,1606,579.46,1599.54,579.45Z" transform="translate(-1127.21 -30.74)"/><path class="cls-25" d="M1598.82,579.13l-282.37-.45c-6.49,0-4.88-3.57.67-6.92l39.57-22.65c5.55-3.33,11.39-8.52,17.85-8.52h166.19c6.48,0,9.84,3.33,15.38,6.69l37.4,22.88C1598.75,573.4,1605.3,579.14,1598.82,579.13Z" transform="translate(-1127.21 -30.74)"/><path class="cls-26" d="M1598.09,578.81l-280.92-.48c-6.48,0-4.84-3.51.72-6.86l39-22.23c5.56-3.33,11.19-8.65,17.65-8.65h166.19c6.48,0,9.51,3.36,15,6.72l36.63,22.42C1597.8,573,1604.58,578.82,1598.09,578.81Z" transform="translate(-1127.21 -30.74)"/><path d="M1597.37,578.49,1317.9,578c-6.48,0-4.8-3.47.76-6.81l38.44-21.81c5.56-3.33,11-8.78,17.44-8.78h166.19c6.48,0,9.17,3.39,14.71,6.75l35.88,22C1596.86,572.69,1603.85,578.5,1597.37,578.49Z" transform="translate(-1127.21 -30.74)"/></g><g class="cls-27"><path class="cls-6" d="M1674.62,599.32l-99-4.82H1341.77l-100,4.8c-6.45.69-10.32-14.06,1.2-19.74l70.62-33.3c6-2.81,16-3.62,22.53-3.62h244.2c6.48,0,16.56.81,22.53,3.64l72.78,34.4C1687.83,588.44,1681.07,600,1674.62,599.32Z" transform="translate(-1127.21 -30.74)"/><path class="cls-28" d="M1315.45,546.31c5.87-2.81,15.78-3.09,22.2-3.73l8.37,0h224.31l8.39,0c6.4.65,16.33.93,22.2,3.75L1671.55,580c11.63,7.39,5.62,18.67-.52,18,.26.18-47.14-1.79-47.45-1.79l-49.8-2.35H1343.51l-62.31,2.89c-.31,0-36.16,1.38-35.89,1.21-6.14.65-9.4-13.68,1.57-19.08Z" transform="translate(-1127.21 -30.74)"/><path class="cls-29" d="M1317.31,546.35c5.78-2.79,15.5-3.17,21.88-3.84.21,0,8.08-.06,8.25-.06h221.41c.17,0,8.06,0,8.28.06,6.35.67,16.09,1,21.87,3.87l68.49,32.89c11,7,5.77,18-.06,17.43.53.35-45.9-1.23-46.51-1.23l-49-2.23H1345.26L1283.92,596c-.62,0-35.6,1-35.07.66-5.83.62-8.47-13.3,2-18.43Z" transform="translate(-1127.21 -30.74)"/><path class="cls-30" d="M1319.18,546.4c5.68-2.79,15.22-3.27,21.54-4,.32,0,7.88-.09,8.15-.09h218.5c.26,0,7.85.06,8.17.1,6.31.69,15.86,1.17,21.54,4l66.35,32.14c10.46,6.66,5.93,17.4.4,16.82.79.53-44.65-.67-45.58-.67L1570,592.61H1347l-60.36,2.6c-.92,0-35,.63-34.24.1-5.53.59-7.55-12.91,2.33-17.77Z" transform="translate(-1127.21 -30.74)"/><path class="cls-31" d="M1321,546.45c5.59-2.78,14.94-3.36,21.22-4.07.42,0,7.68-.13,8-.13h215.6c.35,0,7.63.08,8,.13,6.27.72,15.63,1.3,21.22,4.1l64.2,31.39c9.89,6.29,6.1,16.76.88,16.21,1,.71-43.42-.1-44.65-.1l-47.46-2-219.39,0-59.37,2.46c-1.24,0-34.48.25-33.42-.45-5.22.56-6.63-12.52,2.7-17.12Z" transform="translate(-1127.21 -30.74)"/><path class="cls-32" d="M1322.91,546.49c5.49-2.77,14.65-3.45,20.88-4.18.54-.06,7.49-.16,7.93-.16h212.69c.44,0,7.41.1,7.94.16,6.22.74,15.4,1.43,20.89,4.22l62.06,30.64c9.3,5.91,6.25,16.11,1.34,15.6,1.32.89-42.18.46-43.72.46l-46.67-1.88-215.77,0-58.39,2.31c-1.55,0-33.92-.13-32.6-1-4.91.52-5.7-12.14,3.08-16.47Z" transform="translate(-1127.21 -30.74)"/><path class="cls-33" d="M1324.77,546.54c5.4-2.76,14.37-3.54,20.56-4.29.64-.08,7.29-.2,7.82-.2h209.78c.53,0,7.19.12,7.83.2,6.17.76,15.16,1.54,20.56,4.32l59.92,29.89c8.72,5.55,6.41,15.48,1.8,15,1.58,1.06-40.93,1-42.78,1l-45.9-1.77-212.13,0-57.41,2.17c-1.86,0-33.37-.51-31.78-1.55-4.61.49-4.78-11.76,3.45-15.82Z" transform="translate(-1127.21 -30.74)"/><path class="cls-34" d="M1326.64,546.58c5.3-2.75,14.09-3.62,20.22-4.4.75-.09,7.1-.22,7.71-.22h206.88c.61,0,7,.13,7.72.22,6.13.79,14.92,1.67,20.22,4.44l57.78,29.14c8.14,5.18,6.58,14.84,2.28,14.4,1.84,1.23-39.7,1.58-41.86,1.58l-45.11-1.65-208.51,0-56.43,2c-2.17,0-32.81-.89-31-2.11-4.3.46-3.86-11.37,3.82-15.15Z" transform="translate(-1127.21 -30.74)"/><path class="cls-35" d="M1328.5,546.63c5.21-2.74,13.81-3.72,19.9-4.51.85-.12,6.9-.26,7.6-.26h204c.7,0,6.76.15,7.61.26,6.08.8,14.69,1.79,19.89,4.55l55.64,28.39c7.56,4.81,6.73,14.2,2.74,13.79,2.11,1.41-38.46,2.14-40.93,2.14l-44.32-1.53-204.89,0-55.45,1.87c-2.47,0-32.25-1.26-30.13-2.66-4,.43-2.93-11,4.21-14.5Z" transform="translate(-1127.21 -30.74)"/><path class="cls-36" d="M1330.37,546.67c5.11-2.73,13.52-3.8,19.56-4.62,1-.13,6.7-.29,7.5-.29h201.06c.79,0,6.55.16,7.5.29,6,.83,14.45,1.91,19.56,4.67l53.5,27.64c7,4.43,6.89,13.56,3.21,13.18,2.36,1.59-37.22,2.71-40,2.71l-43.54-1.42-201.27,0L1303,590.52c-2.79,0-31.7-1.64-29.31-3.21-3.69.39-2-10.61,4.58-13.85Z" transform="translate(-1127.21 -30.74)"/><path class="cls-37" d="M1332.23,546.72c5-2.72,13.24-3.9,19.24-4.74,1.06-.14,6.5-.32,7.38-.32H1557c.88,0,6.33.18,7.39.33,6,.84,14.22,2,19.23,4.78L1635,573.65c6.4,4.07,7.06,12.93,3.68,12.58,2.63,1.76-36,3.27-39.07,3.27l-42.76-1.3-197.63,0-53.49,1.58c-3.1,0-31.14-2-28.48-3.76-3.38.36-1.09-10.22,5-13.2Z" transform="translate(-1127.21 -30.74)"/><path class="cls-38" d="M1334.1,546.76c4.92-2.71,13-4,18.91-4.84,1.17-.17,6.3-.35,7.27-.35h195.25c1,0,6.11.18,7.28.35,6,.87,14,2.16,18.9,4.9L1630.92,573c5.82,3.7,7.21,12.29,4.14,12,2.9,1.94-34.74,3.84-38.13,3.84l-42-1.19-194-.05L1308.43,589c-3.4,0-30.58-2.4-27.66-4.32-3.07.33-.16-9.83,5.33-12.54Z" transform="translate(-1127.21 -30.74)"/><path class="cls-39" d="M1336,546.81c4.83-2.7,12.67-4.08,18.58-5,1.28-.19,6.11-.38,7.17-.38h192.34c1,0,5.9.19,7.17.39,5.9.89,13.75,2.28,18.57,5l47.07,25.38c5.23,3.33,7.37,11.65,4.61,11.36,3.15,2.12-33.5,4.4-37.21,4.4l-41.19-1.07-190.39-.05-51.52,1.29c-3.72,0-30-2.77-26.84-4.87-2.76.3.76-9.45,5.7-11.88Z" transform="translate(-1127.21 -30.74)"/><path class="cls-40" d="M1337.83,546.86c4.73-2.7,12.38-4.17,18.25-5.07,1.38-.22,5.91-.42,7.05-.42h189.44c1.14,0,5.68.21,7.06.42,5.86.91,13.51,2.4,18.24,5.13l44.92,24.63c4.66,3,7.54,11,5.08,10.75,3.42,2.3-32.26,5-36.27,5l-40.42-1-186.76,0-50.54,1.14c-4,0-29.47-3.15-26-5.42-2.46.26,1.69-9.07,6.07-11.23Z" transform="translate(-1127.21 -30.74)"/><path class="cls-41" d="M1339.69,546.9c4.64-2.68,12.1-4.25,17.92-5.18,1.49-.23,5.72-.45,7-.45h186.53c1.23,0,5.47.22,7,.46,5.81.93,13.27,2.52,17.91,5.24l42.78,23.87c4.07,2.59,7.69,10.38,5.54,10.15,3.69,2.47-31,5.53-35.34,5.53l-39.63-.84-183.13-.06-49.57,1c-4.33,0-28.9-3.53-25.19-6-2.15.23,2.62-8.68,6.46-10.57Z" transform="translate(-1127.21 -30.74)"/><path class="cls-42" d="M1341.56,547c4.54-2.68,11.81-4.35,17.59-5.29a65.1,65.1,0,0,1,6.83-.49h183.63a65.28,65.28,0,0,1,6.84.49c5.77,1,13,2.65,17.58,5.36l40.64,23.12c3.49,2.22,7.85,9.74,6,9.54,3.94,2.65-29.78,6.09-34.41,6.09l-38.85-.72L1367.91,585l-48.58.85c-4.65,0-28.35-3.91-24.37-6.53-1.84.2,3.54-8.3,6.83-9.92Z" transform="translate(-1127.21 -30.74)"/><path class="cls-43" d="M1343.42,547c4.45-2.66,11.53-4.43,17.26-5.4a56.8,56.8,0,0,1,6.73-.51h180.72a56.75,56.75,0,0,1,6.73.52c5.73,1,12.8,2.76,17.25,5.46l38.49,22.38c2.91,1.85,8,9.09,6.48,8.93,4.21,2.83-28.54,6.66-33.48,6.66l-38.06-.61-175.89-.07-47.6.71c-5,0-27.79-4.29-23.55-7.08-1.53.16,4.47-7.91,7.21-9.27Z" transform="translate(-1127.21 -30.74)"/><path class="cls-44" d="M1345.29,547c4.35-2.66,11.23-4.53,16.93-5.52a51.66,51.66,0,0,1,6.62-.54h177.81a50,50,0,0,1,6.62.55c5.69,1,12.57,2.89,16.92,5.58l36.35,21.63c2.33,1.48,8.17,8.45,6.94,8.33,4.48,3-27.3,7.21-32.54,7.21l-37.29-.49-172.26-.07-46.62.56c-5.26,0-27.23-4.66-22.72-7.63-1.23.13,5.39-7.53,7.58-8.61Z" transform="translate(-1127.21 -30.74)"/><path class="cls-45" d="M1347.15,547.08c4.26-2.64,10.95-4.61,16.6-5.62a46,46,0,0,1,6.51-.58h174.91a45.88,45.88,0,0,1,6.51.58c5.64,1,12.33,3,16.59,5.7L1602.48,568c1.74,1.11,8.33,7.82,7.41,7.73,4.73,3.17-26.06,7.77-31.62,7.77l-36.5-.37-168.63-.07-45.64.41c-5.57,0-26.68-5-21.9-8.19-.92.1,6.31-7.14,8-7.95Z" transform="translate(-1127.21 -30.74)"/><path class="cls-46" d="M1349,547.13c4.16-2.64,10.66-4.7,16.27-5.74a41,41,0,0,1,6.4-.61h172a41.06,41.06,0,0,1,6.4.62c5.6,1,12.1,3.14,16.26,5.81l32.07,20.12c1.16.74,8.49,7.18,7.87,7.12,5,3.35-24.82,8.34-30.69,8.34l-35.71-.26-165-.08-44.66.27c-5.88,0-26.12-5.42-21.08-8.74-.61.07,7.24-6.76,8.34-7.3Z" transform="translate(-1127.21 -30.74)"/><path class="cls-47" d="M1350.88,547.18c4.06-2.63,10.38-4.8,15.95-5.85a36.82,36.82,0,0,1,6.29-.65h169.09a36.82,36.82,0,0,1,6.29.65c5.56,1.07,11.86,3.26,15.93,5.93l29.92,19.37c.58.37,8.65,6.54,8.35,6.51,5.26,3.53-23.59,8.9-29.76,8.9L1538,581.9l-161.39-.08-43.67.12c-6.2,0-25.57-5.8-20.26-9.29-.31,0,8.16-6.38,8.71-6.65Z" transform="translate(-1127.21 -30.74)"/><path class="cls-48" d="M1570.27,581.29l-234.6-.13c-6.5,0-25-6.18-19.43-9.84l36.51-24.1c5.55-3.67,15.33-6.63,21.79-6.63h166.19c6.48,0,16.22,3,21.77,6.72l36.6,24.52C1604.62,575.53,1576.76,581.29,1570.27,581.29Z" transform="translate(-1127.21 -30.74)"/></g><path class="cls-49" d="M1145.89,419.62h-18.68v49.85a18.68,18.68,0,0,0,18.68,18.66h625.16a18.67,18.67,0,0,0,18.66-18.66V419.62H1145.89Z" transform="translate(-1127.21 -30.74)"/><g class="cls-50"><path class="cls-6" d="M1771.05,482.21H1145.89a18.68,18.68,0,0,1-18.68-18.65v5.91a18.68,18.68,0,0,0,18.68,18.66h625.16a18.67,18.67,0,0,0,18.66-18.66v-5.91A18.67,18.67,0,0,1,1771.05,482.21Z" transform="translate(-1127.21 -30.74)"/><path class="cls-51" d="M1771.05,482.39H1145.89a18.68,18.68,0,0,1-18.68-18.66v5.74a18.68,18.68,0,0,0,18.68,18.66h625.16a18.67,18.67,0,0,0,18.66-18.66v-5.74A18.67,18.67,0,0,1,1771.05,482.39Z" transform="translate(-1127.21 -30.74)"/><path class="cls-52" d="M1771.05,482.57H1145.89a18.68,18.68,0,0,1-18.68-18.66v5.56a18.68,18.68,0,0,0,18.68,18.66h625.16a18.67,18.67,0,0,0,18.66-18.66v-5.56A18.67,18.67,0,0,1,1771.05,482.57Z" transform="translate(-1127.21 -30.74)"/><path class="cls-53" d="M1771.05,482.74H1145.89a18.68,18.68,0,0,1-18.68-18.65v5.38a18.68,18.68,0,0,0,18.68,18.66h625.16a18.67,18.67,0,0,0,18.66-18.66v-5.38A18.67,18.67,0,0,1,1771.05,482.74Z" transform="translate(-1127.21 -30.74)"/><path class="cls-54" d="M1771.05,482.92H1145.89a18.68,18.68,0,0,1-18.68-18.65v5.2a18.68,18.68,0,0,0,18.68,18.66h625.16a18.67,18.67,0,0,0,18.66-18.66v-5.2A18.67,18.67,0,0,1,1771.05,482.92Z" transform="translate(-1127.21 -30.74)"/><path class="cls-55" d="M1771.05,483.1H1145.89a18.68,18.68,0,0,1-18.68-18.66v5a18.68,18.68,0,0,0,18.68,18.66h625.16a18.67,18.67,0,0,0,18.66-18.66v-5A18.67,18.67,0,0,1,1771.05,483.1Z" transform="translate(-1127.21 -30.74)"/><path class="cls-56" d="M1771.05,483.28H1145.89a18.68,18.68,0,0,1-18.68-18.66v4.85a18.68,18.68,0,0,0,18.68,18.66h625.16a18.67,18.67,0,0,0,18.66-18.66v-4.85A18.67,18.67,0,0,1,1771.05,483.28Z" transform="translate(-1127.21 -30.74)"/><path class="cls-57" d="M1771.05,483.46H1145.89a18.68,18.68,0,0,1-18.68-18.66v4.67a18.68,18.68,0,0,0,18.68,18.66h625.16a18.67,18.67,0,0,0,18.66-18.66V464.8A18.67,18.67,0,0,1,1771.05,483.46Z" transform="translate(-1127.21 -30.74)"/><path class="cls-58" d="M1771.05,483.63H1145.89A18.68,18.68,0,0,1,1127.21,465v4.49a18.68,18.68,0,0,0,18.68,18.66h625.16a18.67,18.67,0,0,0,18.66-18.66V465A18.67,18.67,0,0,1,1771.05,483.63Z" transform="translate(-1127.21 -30.74)"/><path class="cls-59" d="M1771.05,483.81H1145.89a18.68,18.68,0,0,1-18.68-18.65v4.31a18.68,18.68,0,0,0,18.68,18.66h625.16a18.67,18.67,0,0,0,18.66-18.66v-4.31A18.67,18.67,0,0,1,1771.05,483.81Z" transform="translate(-1127.21 -30.74)"/><path class="cls-60" d="M1771.05,484H1145.89a18.68,18.68,0,0,1-18.68-18.66v4.14a18.68,18.68,0,0,0,18.68,18.66h625.16a18.67,18.67,0,0,0,18.66-18.66v-4.14A18.67,18.67,0,0,1,1771.05,484Z" transform="translate(-1127.21 -30.74)"/><path class="cls-61" d="M1771.05,484.17H1145.89a18.68,18.68,0,0,1-18.68-18.66v4a18.68,18.68,0,0,0,18.68,18.66h625.16a18.67,18.67,0,0,0,18.66-18.66v-4A18.67,18.67,0,0,1,1771.05,484.17Z" transform="translate(-1127.21 -30.74)"/><path class="cls-62" d="M1771.05,484.35H1145.89a18.68,18.68,0,0,1-18.68-18.66v3.78a18.68,18.68,0,0,0,18.68,18.66h625.16a18.67,18.67,0,0,0,18.66-18.66v-3.78A18.67,18.67,0,0,1,1771.05,484.35Z" transform="translate(-1127.21 -30.74)"/><path class="cls-63" d="M1771.05,484.52H1145.89a18.68,18.68,0,0,1-18.68-18.65v3.6a18.68,18.68,0,0,0,18.68,18.66h625.16a18.67,18.67,0,0,0,18.66-18.66v-3.6A18.67,18.67,0,0,1,1771.05,484.52Z" transform="translate(-1127.21 -30.74)"/><path class="cls-64" d="M1771.05,484.7H1145.89A18.68,18.68,0,0,1,1127.21,466v3.43a18.68,18.68,0,0,0,18.68,18.66h625.16a18.67,18.67,0,0,0,18.66-18.66V466A18.67,18.67,0,0,1,1771.05,484.7Z" transform="translate(-1127.21 -30.74)"/><path class="cls-65" d="M1771.05,484.88H1145.89a18.68,18.68,0,0,1-18.68-18.66v3.25a18.68,18.68,0,0,0,18.68,18.66h625.16a18.67,18.67,0,0,0,18.66-18.66v-3.25A18.67,18.67,0,0,1,1771.05,484.88Z" transform="translate(-1127.21 -30.74)"/><path class="cls-66" d="M1771.05,485.06H1145.89a18.68,18.68,0,0,1-18.68-18.66v3.07a18.68,18.68,0,0,0,18.68,18.66h625.16a18.67,18.67,0,0,0,18.66-18.66V466.4A18.67,18.67,0,0,1,1771.05,485.06Z" transform="translate(-1127.21 -30.74)"/></g><path d="M1771.05,86.05H1145.89a18.68,18.68,0,0,0-18.68,18.66V419.62h662.5V104.71A18.67,18.67,0,0,0,1771.05,86.05Zm0,314.91H1145.89V104.71h625.16Z" transform="translate(-1127.21 -30.74)"/><path class="cls-67" d="M1771.05,404.34a3.39,3.39,0,0,0,3.38-3.38V104.71a3.38,3.38,0,0,0-3.38-3.36H1145.89a3.37,3.37,0,0,0-3.38,3.36V401a3.38,3.38,0,0,0,3.38,3.38ZM1145.89,104.71h625.16V401H1145.89Z" transform="translate(-1127.21 -30.74)"/><path class="cls-68" d="M1771.05,86.05H1291.91l146,333.57h351.79V104.71A18.67,18.67,0,0,0,1771.05,86.05Z" transform="translate(-1127.21 -30.74)"/><polygon class="cls-69" points="425.56 510.38 425.56 510.48 425.56 510.38 425.56 457.39 235.88 457.39 235.88 510.38 178.96 544.45 258.55 544.45 258.72 544.45 283.74 544.45 381.42 544.45 406.3 544.45 406.47 544.45 481.9 544.45 425.56 510.38"/><path class="cls-70" d="M1533.68,575.19H1306.17a3.23,3.23,0,0,0,0,6.1h302.95c2.33-.47,2.33-5.64,0-6.1Z" transform="translate(-1127.21 -30.74)"/><polygon class="cls-71" points="235.88 462.69 425.56 462.69 425.56 457.39 235.88 457.39 235.88 458.49 235.88 462.69"/><polygon class="cls-72" points="481.9 545.38 481.9 544.45 406.47 544.45 406.3 544.45 381.42 544.45 283.74 544.45 258.72 544.45 258.55 544.45 178.96 544.45 178.96 545.38 481.9 545.38"/><polygon class="cls-73" points="481.9 545.38 481.9 544.45 406.47 544.45 406.3 544.45 381.42 544.45 283.74 544.45 258.72 544.45 258.55 544.45 178.96 544.45 178.96 545.38 481.9 545.38"/><polygon class="cls-74" points="178.96 544.45 258.55 544.45 258.72 544.45 283.74 544.45 235.88 510.38 178.96 544.45"/><polygon class="cls-75" points="425.56 510.38 425.56 510.48 425.56 510.38 381.42 544.45 406.3 544.45 406.47 544.45 481.9 544.45 425.56 510.38"/><polygon class="cls-76" points="452.84 526.87 425.56 510.38 425.56 510.48 425.56 510.38 235.88 510.38 208.32 526.87 452.84 526.87"/></g></g></g></svg>