<svg xmlns="http://www.w3.org/2000/svg" xmlns:xlink="http://www.w3.org/1999/xlink" viewBox="0 0 105.11 126.47"><defs><style>.cls-1{fill:url(#linear-gradient);}.cls-2{fill:#fff;}</style><linearGradient id="linear-gradient" y1="63.23" x2="105.11" y2="63.23" gradientUnits="userSpaceOnUse"><stop offset="0" stop-color="#226d37"/><stop offset="0.59" stop-color="#215529"/><stop offset="1" stop-color="#21421d"/></linearGradient></defs><title>Asset 3_1</title><g id="Layer_2" data-name="Layer 2"><g id="Layer_1-2" data-name="Layer 1"><path class="cls-1" d="M105.11,10.36V73.91A52.56,52.56,0,1,1,0,73.91V10.36a138.48,138.48,0,0,1,105.11,0Z"/><path class="cls-2" d="M88.23,28.41A2.15,2.15,0,0,0,85.83,26c-2.45,0-4.91,0-7.36,0-1.6,0-2.36.81-2.45,2.4,0,.51-.1,1-.15,1.51a2.65,2.65,0,0,1-.63.22c-5,0-9.95.05-14.91,0A2.47,2.47,0,0,1,58.77,29c-2.76-4-7.66-4-10.41-.06a3.07,3.07,0,0,1-2.1,1.18c-4.51.1-9,.05-13.56,0A10.81,10.81,0,0,1,31.28,30c-.52-4-.52-4-4.33-4-1.8,0-3.61,0-5.42,0s-2.66.75-2.65,2.59c0,2.44,0,4.88,0,7.32,0,1.74.81,2.57,2.46,2.58,2.39,0,4.77,0,7.16,0A2.26,2.26,0,0,0,31.09,36c0-.51.09-1,.14-1.56h7.84l-1.7,1.39a27,27,0,0,0-9.88,17.34,4.11,4.11,0,0,1-1.87,3.33,6.09,6.09,0,0,0-1,9,6,6,0,0,0,9,.24c2.44-2.6,2.33-7.13-.6-9-1.76-1.16-1.61-2.29-1.31-3.91C33.23,44.33,40.48,36.51,48,35.17c3.57,4.42,6.45,4.41,11.25,0A22.79,22.79,0,0,1,75.68,54.38a2.45,2.45,0,0,1-1,1.74,6.41,6.41,0,0,0-2.56,7.1,6,6,0,0,0,11.67-.15,6.35,6.35,0,0,0-2.75-7,3.24,3.24,0,0,1-1.24-1.94A27.43,27.43,0,0,0,69.4,35.57c-.4-.32-.78-.68-1.3-1.13h7.82c.18,1.82-.18,4,2.43,4s5,0,7.55,0a2.16,2.16,0,0,0,2.34-2.5C88.21,33.43,88.24,30.92,88.23,28.41ZM26.88,34.2h-3.8V30.3h3.8Zm2.39,29.21a2.77,2.77,0,0,1-2-1.82c-.08-.78.87-1.67,1.37-2.51l.81,0c.58.73,1.45,1.4,1.63,2.22A1.7,1.7,0,0,1,29.27,63.41ZM53.62,34.19a1.68,1.68,0,0,1-2-2c.08-.82.92-1.56,1.43-2.33l.87,0c.55.79,1.57,1.6,1.54,2.36A2.8,2.8,0,0,1,53.62,34.19ZM77.8,58.48c1,1.36,2,2.15,2,2.93a2.87,2.87,0,0,1-1.83,2,1.69,1.69,0,0,1-2-2C76.09,60.62,76.92,59.87,77.8,58.48ZM84,34.16H80.2V30.27H84Z"/><path class="cls-2" d="M70.52,72.07c1.4-1.51,1.52-2.76.36-4.49-5.07-7.64-10-15.34-15-23-1.59-2.44-2.93-2.46-4.49-.07q-7.53,11.51-15,23c-1.43,2.2-1.4,2.6.39,4.6a26.63,26.63,0,0,1,6.24,12.73,3.57,3.57,0,0,1-.75,2.81,22,22,0,0,0-2.68,6.17c-.54,2.19.39,3,2.59,3,3.81,0,7.62,0,11.42,0s7.61,0,11.42,0c2.31,0,3.24-.82,2.69-3.13a19.57,19.57,0,0,0-2.64-6,3.68,3.68,0,0,1-.78-3A25.6,25.6,0,0,1,70.52,72.07ZM53.65,67.74c.81.15,1.49,1,2.81,2-1.39.94-2.22,2-3,1.9s-1.71-1.19-1.84-2A1.69,1.69,0,0,1,53.65,67.74ZM44.16,92.48a5.14,5.14,0,0,1,4.86-4c3-.08,6-.1,9.08,0,2.4.08,4,1.53,5.17,4Zm15.94-8.1H47a32.07,32.07,0,0,0-6.43-14.14,1.85,1.85,0,0,1,0-1.67c3.46-5.4,7-10.77,10.7-16.49.1.83.21,1.29.21,1.75,0,2-.07,4.09,0,6.12.11,2.21-.1,3.93-2.16,5.5-2.75,2.1-2.43,6.52.15,8.89a6,6,0,0,0,8.78-.71,6.13,6.13,0,0,0-1.17-8.87,3,3,0,0,1-1.5-3c.11-3,0-5.93.06-8.89,0-.11.09-.22.26-.57,1,1.49,1.92,2.86,2.83,4.25,2.54,3.88,5.1,7.76,7.58,11.7a2.32,2.32,0,0,1,.22,2A32.46,32.46,0,0,0,60.1,84.38Z"/></g></g></svg>