<svg xmlns="http://www.w3.org/2000/svg" xmlns:xlink="http://www.w3.org/1999/xlink" viewBox="0 0 743.06 953.55"><defs><style>.cls-1{fill:none;}.cls-2{isolation:isolate;}.cls-3{clip-path:url(#clip-path);}.cls-4{fill:#fff;}.cls-5{mix-blend-mode:multiply;fill:url(#radial-gradient);}.cls-6{fill:url(#linear-gradient);}.cls-7{mix-blend-mode:screen;fill:url(#linear-gradient-2);}</style><clipPath id="clip-path"><rect class="cls-1" x="100.49" y="35.47" width="763.46" height="559.64"/></clipPath><radialGradient id="radial-gradient" cx="779.1" cy="-39245.08" r="102.74" gradientTransform="translate(-1265.95 4533.77) scale(2.22 0.1)" gradientUnits="userSpaceOnUse"><stop offset="0" stop-color="#6d6e70"/><stop offset="0.19" stop-color="#7f8082" stop-opacity="0.86"/><stop offset="0.56" stop-color="#afb0b1" stop-opacity="0.5"/><stop offset="1" stop-color="#f1f1f2" stop-opacity="0"/></radialGradient><linearGradient id="linear-gradient" x1="332.36" y1="260.71" x2="588.13" y2="260.71" gradientUnits="userSpaceOnUse"><stop offset="0" stop-color="#231f20"/><stop offset="0.02" stop-color="#272324"/><stop offset="0.31" stop-color="#676769"/><stop offset="0.45" stop-color="#808184"/><stop offset="0.56" stop-color="#747477"/><stop offset="0.76" stop-color="#535153"/><stop offset="1" stop-color="#231f20"/></linearGradient><linearGradient id="linear-gradient-2" x1="578.63" y1="260.71" x2="584.24" y2="260.71" gradientUnits="userSpaceOnUse"><stop offset="0" stop-opacity="0"/><stop offset="0.2" stop-color="#3d3d3d" stop-opacity="0.24"/><stop offset="0.49" stop-color="#8f8f8f" stop-opacity="0.56"/><stop offset="0.73" stop-color="#ccc" stop-opacity="0.8"/><stop offset="0.91" stop-color="#f1f1f1" stop-opacity="0.94"/><stop offset="1" stop-color="#fff"/></linearGradient></defs><title>banner-2</title><g class="cls-2"><g id="Layer_2" data-name="Layer 2"><g id="Layer_1-2" data-name="Layer 1"><g class="cls-3"><circle class="cls-4" cx="371.53" cy="582.02" r="371.53"/></g><ellipse class="cls-5" cx="460.07" cy="522.93" rx="227.61" ry="10.5"/><rect class="cls-6" x="332.36" width="255.78" height="521.42" rx="28.22"/><rect x="204.44" y="137.73" width="511.61" height="245.97" rx="24.28" transform="translate(720.95 -199.53) rotate(90)"/><path class="cls-4" d="M229.68,142.63H690.81A20.33,20.33,0,0,1,711.14,163V358.45a20.34,20.34,0,0,1-20.34,20.34H229.68a20.33,20.33,0,0,1-20.33-20.33V163a20.33,20.33,0,0,1,20.33-20.33Z" transform="translate(720.95 -199.53) rotate(90)"/><path class="cls-7" d="M579.61,488.76V32.66A30.11,30.11,0,0,0,568.16,9a30.22,30.22,0,0,1,15.07,26.12v451.2a30.22,30.22,0,0,1-15.07,26.12A30.16,30.16,0,0,0,579.61,488.76Z"/></g></g></g></svg>