<svg xmlns="http://www.w3.org/2000/svg" viewBox="0 0 97.83 87.5"><defs><style>.cls-1{fill:#02265d;}.cls-2{fill:#0598d8;}</style></defs><title>blog-2</title><g id="Layer_2" data-name="Layer 2"><g id="Layer_1-2" data-name="Layer 1"><path class="cls-1" d="M22.13,1.85c1.51,2.21,2.38,2.21,3.89,0-.16,1.18-.74,2-2,2S22.26,3,22.13,1.85Z"/><path class="cls-1" d="M15.16,21c.93-1.95,1.81-3.77,2.68-5.6.44-.93.84-1.89,2.1-1.94s1.72.9,2.19,1.82c.94,1.84,1.89,3.69,2.94,5.72,1-2.15,2-4.14,2.95-6.11.64-1.31,1.69-1.76,2.76-1.24a2,2,0,0,1,.68,2.86c-1.47,3.1-3,6.19-4.45,9.28a2,2,0,0,1-3.77,0l-3.18-6.17-2.83,5.92c-.39.84-.87,1.57-1.92,1.61s-1.64-.68-2.09-1.56c-1.53-3-3.11-6-4.65-9-.65-1.26-.42-2.36.55-2.87A2,2,0,0,1,12,14.74C13,16.75,14.05,18.79,15.16,21Z"/><path class="cls-1" d="M33.76,15.47a2.82,2.82,0,0,0,.39,1.33c1.63,2.74,2.82,5.71,4.45,8.45.42.71.83,1.44,1.8,1.38s1.28-.75,1.62-1.44c.82-1.58,1.6-3.18,2.4-4.78.25-.51.49-.78.73-.8-.88,1.83-1.71,3.52-2.53,5.23-.19.38-.35.77-.56,1.13-.89,1.51-2.63,1.58-3.45.06-1.74-3.24-3.41-6.52-5.07-9.8a1.87,1.87,0,0,1,.77-2.63,1.92,1.92,0,0,1,2.59.9c1.07,2,2.08,4,3.22,6.18-.56-.08-.72-.72-.95-1.18-.73-1.44-1.6-2.81-2.28-4.27a2.77,2.77,0,0,0-.66-.92,1.57,1.57,0,0,0-1.79-.24A1.33,1.33,0,0,0,33.76,15.47Z"/><path class="cls-1" d="M48.57,25.5A1.11,1.11,0,0,1,48,27.18c-.59.34-1.2.65-1.77,1a23.82,23.82,0,0,0-7.62,7.56,2.55,2.55,0,0,1-2.41,1.3c-9.42,0-18.85,0-28.27,0a4.2,4.2,0,0,1-4.47-4.49q0-12.3,0-24.59A4.32,4.32,0,0,1,8,3.48c1.83,0,3.66-.07,5.48,0,1.61.08,3-.1,3.93-1.65-.31,1.52-.86,2-2.43,2-2.33,0-4.67,0-7,0A3.84,3.84,0,0,0,3.83,7.94q0,12.28,0,24.58a3.84,3.84,0,0,0,4.22,4.16c9.55,0,19.1,0,28.65,0A1.31,1.31,0,0,0,38,36,24.34,24.34,0,0,1,48,26.81c.6-.3.68-.53.36-1.12-1.06-2-2.07-4-3.18-6.08.26,0,.51.25.81.78C46.89,22.06,47.67,23.81,48.57,25.5Z"/><path class="cls-1" d="M53.11,23.63c-.19.4-.36.8-.6,1.35q-.23-.32.18-1.17c1-2.14,1.94-4.33,3.06-6.44a5.41,5.41,0,0,0,.56-1.28c.19-.83.23-1.66-.73-2.05a1.54,1.54,0,0,0-2,.79,23.29,23.29,0,0,0-1.47,3,16.35,16.35,0,0,1-1,2.07C50.42,21,50,21,49.31,19.93c-.8-1.26-1.43-2.61-2.1-3.93a11.31,11.31,0,0,0-.66-1.24,1.66,1.66,0,0,0-2.93,0,9.67,9.67,0,0,0-.91,1.82,30.35,30.35,0,0,1-1.37,2.88c-.25.46-.39,1.13-1,1.2l2.39-4.88c.17-.34.33-.69.49-1a2,2,0,0,1,1.82-1.36,2,2,0,0,1,1.87,1.28c1,2,2.07,4,3.11,6,.5-.08.52-.53.67-.85.85-1.7,1.65-3.43,2.5-5.13a1.91,1.91,0,1,1,3.43,1.62C55.48,18.76,54.28,21.19,53.11,23.63Z"/><path class="cls-1" d="M62.59,24.28a2.38,2.38,0,0,1-1.45.28,31.81,31.81,0,0,0-7.6.54c-.52.13-.86.1-1-.09A27,27,0,0,1,62.59,24.28Z"/><path class="cls-1" d="M64.91,20.09l.41.77c-.46,0-.64-.52-.83-.89-.79-1.59-1.73-3.12-2.51-4.72-.6-1.21-1.43-1.6-2.31-1.19s-1.14,1.38-.45,2.64c1.08,2,2.08,4,3.08,6,.35.72.5,1.16.38,1.44-1.15-2.24-2.22-4.32-3.3-6.4-.25-.49-.52-1-.75-1.47a1.91,1.91,0,1,1,3.4-1.7C63,16.4,64,18.24,64.91,20.09Z"/><path class="cls-1" d="M68.08,16c-.64,1.34-1.19,2.73-1.91,4-.2.35-.36.82-.78.86.94-2,1.82-3.83,2.71-5.68.41-.86.84-1.7,2-1.76s1.7.74,2.16,1.65c1,1.9,2,3.78,3,5.8-.51,0-.65-.65-.89-1.05-.76-1.27-1.42-2.6-2.1-3.93-.46-.89-.85-2-2.11-1.94S68.51,15.07,68.08,16Z"/><path class="cls-1" d="M81,16.93c.76-1.49.58-2.45-.37-2.88s-1.69,0-2.48,1.54-1.24,2.79-2,4.15c-.23.44-.4,1.09-.93,1.13h0c1-2.11,2-4.07,2.92-6,.64-1.3,1.72-1.78,2.75-1.24a2,2,0,0,1,.7,2.85c-1.47,3.1-3,6.18-4.45,9.27a2,2,0,0,1-3.78,0l-3.14-6.11c.44,0,.62.46.81.81.72,1.34,1.36,2.73,2.07,4.09.49.92.87,2.07,2.15,2.09s1.6-1.22,2.09-2.13C78.72,22,79.78,19.43,81,16.93Z"/><path class="cls-1" d="M94.33,32.77A4.14,4.14,0,0,1,90.15,37c-2.72.07-5.44,0-8.15,0a2.25,2.25,0,0,1-2.09-1.17,24.48,24.48,0,0,0-11.2-9.48c-1.53-.65-1.64-1-.92-2.52.55-1.15,1.14-2.28,1.71-3.42.16-.33.25-.8.7-.82h0c-.88,1.85-1.65,3.54-2.5,5.17-.4.77.09.82.58,1a22.58,22.58,0,0,1,10.93,8.57,4.44,4.44,0,0,0,4.71,2.34c2-.19,4,0,6,0A3.82,3.82,0,0,0,94,32.62q0-12.34,0-24.7c0-2.62-1.63-4.09-4.43-4.09H32.76c-1.84,0-2.39-.48-2.57-2.21.31.07.38.32.46.56a1.81,1.81,0,0,0,2,1.29H89a7.41,7.41,0,0,1,2.15.16,4.34,4.34,0,0,1,3.15,4.17Q94.39,20.29,94.33,32.77Z"/><path class="cls-1" d="M76,48.81a16.8,16.8,0,1,1-17.2-16.7A16.9,16.9,0,0,1,76,48.81Z"/><path class="cls-1" d="M90.22,70.76a2,2,0,0,0-2.93-.31c-1,.69-1.17,1.39-.63,2.34a5.15,5.15,0,0,0,1,1.15c1.65,1.66,3.31,3.29,4.94,5a2.67,2.67,0,0,1,1,2.6,2,2,0,0,1-1.41,1.65,2.83,2.83,0,0,1-2.9-.79q-6.54-6.59-13.12-13.12c-.69-.68-.78-1.09,0-1.79a11.7,11.7,0,0,0,3.53-4.38,7.06,7.06,0,0,1,.35-.67A24.61,24.61,0,0,0,84,47.8a27.34,27.34,0,0,0-1.41-7.29c2.61,0,5.11,0,7.61,0A7.57,7.57,0,0,0,97.8,33q.06-12.73,0-25.46A7.55,7.55,0,0,0,90.24,0Q61.35,0,32.45,0a2.08,2.08,0,0,0-2.26,1.62h0c.18,1.73.73,2.21,2.57,2.21h56.8C92.36,3.83,94,5.3,94,7.92q0,12.35,0,24.7a3.82,3.82,0,0,1-4.07,4.06c-2,0-4-.14-6,0a4.44,4.44,0,0,1-4.71-2.34A22.58,22.58,0,0,0,68.3,25.82c-.49-.2-1-.25-.58-1,.85-1.63,1.62-3.32,2.5-5.17l0-.05,0,.06,3.14,6.11a2,2,0,0,0,3.78,0c1.48-3.09,3-6.17,4.45-9.27a2,2,0,0,0-.7-2.85c-1-.54-2.11-.06-2.75,1.24-1,2-1.9,3.91-2.92,6a.14.14,0,0,1,0,.06l0-.06c-1-2-2-3.9-3-5.8-.46-.91-1-1.71-2.16-1.65s-1.55.9-2,1.76c-.89,1.85-1.77,3.7-2.71,5.68l0,.06,0-.06-.41-.77C64,18.24,63,16.4,62,14.57a1.91,1.91,0,1,0-3.4,1.7c.23.5.5,1,.75,1.47,1.08,2.08,2.15,4.16,3.3,6.4l.08.15h-.17A27,27,0,0,0,52.53,25h0a.08.08,0,0,0,0,0c.24-.55.41-.95.6-1.35,1.17-2.44,2.37-4.87,3.52-7.33a1.91,1.91,0,1,0-3.43-1.62c-.85,1.7-1.65,3.43-2.5,5.13-.15.32-.17.77-.67.85-1-2-2.09-4-3.11-6a2,2,0,0,0-1.87-1.28,2,2,0,0,0-1.82,1.36c-.16.34-.32.69-.49,1l-2.39,4.88a2.4,2.4,0,0,1-.11.23l-.12-.23C39,18.47,38,16.47,36.9,14.5a1.92,1.92,0,0,0-2.59-.9,1.87,1.87,0,0,0-.77,2.63c1.66,3.28,3.33,6.56,5.07,9.8.82,1.52,2.56,1.45,3.45-.06.21-.36.37-.75.56-1.13.82-1.71,1.65-3.4,2.53-5.23h0c1.11,2.13,2.12,4.12,3.18,6.08.32.59.24.82-.36,1.12A24.34,24.34,0,0,0,38,36a1.31,1.31,0,0,1-1.34.67c-9.55,0-19.1,0-28.65,0a3.84,3.84,0,0,1-4.22-4.16q0-12.29,0-24.58A3.84,3.84,0,0,1,8,3.83c2.33,0,4.67,0,7,0,1.57,0,2.12-.47,2.43-2A2.06,2.06,0,0,0,15.09,0c-2.34,0-4.67,0-7,0A7.67,7.67,0,0,0,0,8.05V32.49a7.67,7.67,0,0,0,8,8H35.79c-.1.4-.17.72-.27,1A25.14,25.14,0,0,0,34.6,52a24.81,24.81,0,0,0,36,19,1.26,1.26,0,0,1,1.81.25q7.16,7.25,14.39,14.42A6.46,6.46,0,0,0,96,76.53C94.07,74.59,92.12,72.7,90.22,70.76Zm-31.08-.83A21,21,0,1,1,80.24,49,21.06,21.06,0,0,1,59.14,69.93Z"/><path class="cls-1" d="M87.29,70.45c-.86,1.28-.81,1.92.26,3,1.85,1.86,3.73,3.69,5.56,5.58a2.62,2.62,0,0,1,.55,3.26,2.67,2.67,0,0,1-4.31.48L75.42,68.85c-.34-.34-.7-.61-.09-1.08a30.15,30.15,0,0,0,4.39-4.71L82.64,66c.18.33,0,.65,0,1-.11,1.48.73,2.17,2.14,1.77.23-.07.46-.22.71-.07A10.69,10.69,0,0,0,87.29,70.45Z"/><path class="cls-1" d="M26,1.85c-.16,1.18-.74,2-2,2s-1.75-.83-1.88-2c.21-1.11.81-1.86,2-1.82S25.82.79,26,1.85Z"/><path class="cls-1" d="M85.48,68.64a1.88,1.88,0,0,1-2.64.08c-.93-.82-.74-1.79-.2-2.76a2,2,0,0,1,2.72,0A1.89,1.89,0,0,1,85.48,68.64Z"/><path class="cls-1" d="M31.46,16.46c-1.47,3.1-3,6.19-4.45,9.28a2,2,0,0,1-3.77,0l-3.18-6.17-2.83,5.92c-.39.84-.87,1.57-1.92,1.61s-1.64-.68-2.09-1.56c-1.53-3-3.11-6-4.65-9-.65-1.26-.42-2.36.55-2.87A2,2,0,0,1,12,14.74c1.07,2,2.1,4,3.21,6.21.93-1.95,1.81-3.77,2.68-5.6.44-.93.84-1.89,2.1-1.94s1.72.9,2.19,1.82c.94,1.84,1.89,3.69,2.94,5.72,1-2.15,2-4.14,2.95-6.11.64-1.31,1.69-1.76,2.76-1.24A2,2,0,0,1,31.46,16.46Z"/><path class="cls-1" d="M76,48.81a16.8,16.8,0,1,1-17.2-16.7A16.9,16.9,0,0,1,76,48.81Z"/><path class="cls-1" d="M76,48.81a16.8,16.8,0,1,1-17.2-16.7A16.9,16.9,0,0,1,76,48.81Z"/><path class="cls-2" d="M46.25,48.86a13,13,0,1,1,13.1,13A13,13,0,0,1,46.25,48.86Z"/><path class="cls-1" d="M67.78,48.58c0,1.34-.59,2.12-1.74,2.2s-1.89-.6-2.07-1.92c-.41-3-1.64-4.23-4.57-4.72-1.51-.25-2.23-1-2.07-2.17s1.2-1.8,2.71-1.59A8.57,8.57,0,0,1,67.78,48.58Z"/></g></g></svg>