<svg xmlns="http://www.w3.org/2000/svg" viewBox="0 0 91.75 68.23"><defs><style>.cls-1{fill:#02265d;}.cls-2{fill:#0598d8;}</style></defs><title>blog-1</title><g id="Layer_2" data-name="Layer 2"><g id="Layer_1-2" data-name="Layer 1"><path class="cls-1" d="M84.36,49.94c2.29,2.19,4.23,4,6.11,5.86,1.72,1.72,1.7,2.92,0,4.69q-3.14,3.23-6.33,6.38c-1.85,1.83-3,1.83-4.82-.06s-3.67-3.81-5.76-6c-1.26,1.37-2.26,2.57-3.38,3.65-1.85,1.76-3.93,1.24-4.74-1.19a60.82,60.82,0,0,1-1.76-6.06c-.37-1.68-1.14-2.2-2.9-2.19-18.78.07-37.56,0-56.33,0-3.78,0-4.37-.59-4.38-4.35Q0,27.35,0,4c0-3,.91-4,4-4H74.45c3.22,0,4.11.89,4.11,4.13,0,11.09,0,22.18-.14,33.26,0,1.72.54,2.38,2.12,2.75,2,.47,4,1.15,6,1.82,2.63.88,3.14,2.81,1.26,4.81C86.87,47.81,85.74,48.7,84.36,49.94ZM5.42,18.64V49.71H61.26c-1.12-3.77-2.18-7.4-3.29-11-.41-1.34-.93-2.91.42-3.71a5.38,5.38,0,0,1,3.72-.36c3.66.89,7.25,2.06,11,3.16V18.64Zm0-5.6H73V5.69H5.41ZM81.14,45.8l-16.88-5c1.72,5.84,3.34,11.3,5,17l1.07-.92c2.67-2.5,4-2.49,6.52.07,1.57,1.58,3.12,3.19,4.67,4.78l3.76-3.82c-1.15-1.12-2.34-2.24-3.5-3.38C77.67,50.46,77.68,50.45,81.14,45.8Z"/><path class="cls-2" d="M2.82,13.33V5.41H75.71v7.92Z"/><path class="cls-2" d="M82.58,46.1c-3.73,5-3.74,5,.7,9.42,1.25,1.24,2.53,2.45,3.78,3.65L83,63.29c-1.67-1.71-3.34-3.45-5-5.16-2.75-2.76-4.15-2.76-7-.08-.27.25-.55.48-1.15,1l-5.41-18.3Z"/></g></g></svg>