<svg xmlns="http://www.w3.org/2000/svg" viewBox="0 0 127.87 72.22"><defs><style>.cls-1{fill:#0598d8;}.cls-2{fill:#02265d;}</style></defs><title>blog-3</title><g id="Layer_2" data-name="Layer 2"><g id="Layer_1-2" data-name="Layer 1"><circle class="cls-1" cx="89.08" cy="32.09" r="20.8"/><path class="cls-2" d="M100.5,13.43C92.7,8,81,9,73.67,15.79c-8.3,7.65-9.37,18.36-4.35,27.91a20.8,20.8,0,0,0,11.46,9.8c6.81,2.55,13.41,1.76,19.85-1.55,5,6.14,10,12.16,14.89,18.19,1.2,1.46,2.49,3,4.43,1.37s.57-3.19-.62-4.63q-4.08-4.95-8.14-9.92l-6.62-8.15c4.26-4.58,6.71-9.63,6.63-16-1,0-1.74,0-2.5,0s-1.47.09-2.16.13C104.91,46.62,94.47,51.54,85,49.59,75,47.51,69.42,37.83,71.8,28.18a16.87,16.87,0,0,1,8.54-11.07c5.86-3.22,11.79-2.79,17.67.27ZM17,54.31a53.3,53.3,0,0,0,7.7-2.24c4.48-2,6.88-7,6.43-12.14-.33-3.84-3.77-7.18-8.26-8.28A65.25,65.25,0,0,1,9.79,26.51c-4.38-2.18-4.33-7.13-.2-9.83,5.39-3.52,10.83-2.1,14.28,3.56a3.61,3.61,0,0,0,2.66,1.38c.63,0,1.67-1,1.83-1.72A5,5,0,0,0,27.82,17,12.25,12.25,0,0,0,15.72,9.9c-5.84.39-10.94,2.23-13.46,8.16a10.38,10.38,0,0,0-.66,3c-.53,5.65,2.9,8.76,7.46,10.72,4.14,1.78,8.52,3,12.8,4.47S27.39,41,25.23,45a7.42,7.42,0,0,1-5,3.63C12.38,50.66,7.27,47.4,4.86,42c-.66-1.49-1.38-2.79-3.12-2.23S-.18,42,.12,43.61A5.71,5.71,0,0,0,.91,45.5C4.36,51,9.37,53.78,17,54.31ZM42,17.68h2.88c4.87,0,9.75,0,14.63,0,1.87,0,3.65-.26,3.56-2.61-.07-2.16-1.77-2.38-3.54-2.37-6.85,0-13.69,0-20.54,0a18.68,18.68,0,0,0-1.95.2V52.86H60.28C62,52.85,63.1,52,63,50.21s-1.36-2.09-2.9-2.1c-5.54,0-11.09-.09-16.63-.27-.6,0-1.66-.89-1.68-1.39-.14-3.91-.08-7.82-.08-12H56.88c1.59,0,2.73-.66,2.81-2.33s-1.09-2.56-2.78-2.63c-.85,0-1.71,0-2.56,0H42ZM97.3,37.19c8.41-9,16.66-17.86,25.36-27.17.11,1.85.2,3,.23,4.17,0,1.69.72,2.9,2.55,2.86s2.5-1.29,2.43-3c-.15-3.67-.28-7.35-.51-11-.17-2.58-1.14-3.34-3.68-3-4,.6-7.94,1.28-11.92,1.89-1.77.28-3,1.11-2.63,3s1.68,2.18,3.34,1.91c2.13-.35,4.27-.65,6.4-1l.22.51L97.55,29.58,89.8,20c-4.56,5.33-9,10.47-13.35,15.77a3.15,3.15,0,0,0,.2,3.1c.57.54,2.2.41,3.12,0a7.79,7.79,0,0,0,2.38-2.28c2.46-2.83,4.88-5.69,7.5-8.74Z"/><path class="cls-2" d="M100.5,13.43,98,17.38c-5.88-3.06-11.81-3.49-17.67-.27A16.87,16.87,0,0,0,71.8,28.18C69.42,37.83,75,47.51,85,49.59c9.43,1.95,19.87-3,21.5-16.63.69,0,1.43-.11,2.16-.13s1.52,0,2.5,0c.08,6.36-2.37,11.41-6.63,16L111.19,57q4.07,5,8.14,9.92c1.19,1.44,2.54,3,.62,4.63s-3.23.09-4.43-1.37c-4.92-6-9.86-12-14.89-18.19-6.44,3.31-13,4.1-19.85,1.55a20.8,20.8,0,0,1-11.46-9.8c-5-9.55-3.95-20.26,4.35-27.91C81,9,92.7,8,100.5,13.43Z"/><path class="cls-2" d="M17,54.31C9.37,53.78,4.36,51,.91,45.5a5.71,5.71,0,0,1-.79-1.89C-.18,42,0,40.32,1.74,39.74S4.2,40.48,4.86,42c2.41,5.43,7.52,8.69,15.37,6.61a7.42,7.42,0,0,0,5-3.63c2.16-3.91.87-7.27-3.37-8.71s-8.66-2.69-12.8-4.47c-4.56-2-8-5.07-7.46-10.72a10.38,10.38,0,0,1,.66-3c2.52-5.93,7.62-7.77,13.46-8.16A12.25,12.25,0,0,1,27.82,17a5,5,0,0,1,.54,2.92c-.16.72-1.2,1.74-1.83,1.72a3.61,3.61,0,0,1-2.66-1.38C20.42,14.58,15,13.16,9.59,16.68c-4.13,2.7-4.18,7.65.2,9.83a65.25,65.25,0,0,0,13.07,5.14c4.49,1.1,7.93,4.44,8.26,8.28.45,5.09-1.95,10.18-6.43,12.14A53.3,53.3,0,0,1,17,54.31Z"/><path class="cls-2" d="M42,17.68V29.44h12.4c.85,0,1.71,0,2.56,0,1.69.07,2.87.81,2.78,2.63s-1.22,2.33-2.81,2.33H41.75c0,4.22-.06,8.13.08,12,0,.5,1.08,1.37,1.68,1.39,5.54.18,11.09.24,16.63.27,1.54,0,2.84.31,2.9,2.1s-1,2.64-2.76,2.64H37V12.93a18.68,18.68,0,0,1,1.95-.2c6.85,0,13.69,0,20.54,0,1.77,0,3.47.21,3.54,2.37.09,2.35-1.69,2.62-3.56,2.61-4.88,0-9.76,0-14.63,0Z"/><path class="cls-2" d="M97.3,37.19l-7.65-9.35c-2.62,3.05-5,5.91-7.5,8.74a7.79,7.79,0,0,1-2.38,2.28c-.92.39-2.55.52-3.12,0a3.15,3.15,0,0,1-.2-3.1C80.75,30.44,85.24,25.3,89.8,20l7.75,9.61,21.54-23.1L118.87,6c-2.13.31-4.27.61-6.4,1-1.66.27-3-.13-3.34-1.91s.86-2.76,2.63-3c4-.61,7.94-1.29,11.92-1.89,2.54-.38,3.51.38,3.68,3,.23,3.68.36,7.36.51,11,.07,1.68-.6,2.93-2.43,3s-2.5-1.17-2.55-2.86c0-1.16-.12-2.32-.23-4.17C114,19.33,105.71,28.17,97.3,37.19Z"/></g></g></svg>