<svg xmlns="http://www.w3.org/2000/svg" viewBox="0 0 49.47 43.55"><defs><style>.cls-1{fill:#fff;}</style></defs><title>cart</title><g id="Layer_2" data-name="Layer 2"><g id="Layer_1-2" data-name="Layer 1"><path class="cls-1" d="M38,34.94H20.87a18.1,18.1,0,0,1,2.18,3.52,3.67,3.67,0,0,1-1.31,4,4.33,4.33,0,0,1-6.19-.38c-1.85-2.16-1.26-4.82,1.73-7.12-2.78.11-4.91-.74-5.58-3.52-.52-2.15.51-3.74,2.43-5q-1.24-5.6-2.48-11.26C10.85,11.55,10,7.91,9.29,4.25c-.21-1-.57-1.47-1.71-1.4-1.93.11-3.87,0-5.81,0C.76,2.89,0,2.55,0,1.43S.81,0,1.81,0C4.44,0,7.07,0,9.7,0a1.71,1.71,0,0,1,1.93,1.54c.21,1,.56,2.06.69,3.1s.63,1.21,1.57,1.2c8,0,16.05,0,24.07,0,3.18,0,6.37,0,9.55,0,1.72,0,2.26.72,1.8,2.34-1.8,6.38-3.65,12.75-5.42,19.14a2.18,2.18,0,0,1-2.49,1.8c-8.12,0-16.24,0-24.36,0-.37,0-.83-.14-1.08,0-.54.37-1.24.83-1.38,1.38-.2.8.43,1.35,1.31,1.42.36,0,.74,0,1.1,0H41.21c.41,0,.94-.14,1.22.06.5.37,1.18,1,1.18,1.43s-.68,1.06-1.2,1.41a1.83,1.83,0,0,1-1,.08,18.46,18.46,0,0,1,2.2,3.54,3.69,3.69,0,0,1-1.33,4,4.32,4.32,0,0,1-6.35-.6C34.21,39.55,34.93,36.91,38,34.94ZM13.25,8.76c1.24,5.62,2.46,11.1,3.65,16.58.18.84.72.79,1.34.79,7.29,0,14.58,0,21.87,0,.88,0,1.17-.33,1.39-1.11C42.91,20,44.37,15,45.81,9.9A10.28,10.28,0,0,0,46,8.76Zm7.22,30.73v-.63c-.54-.36-1.06-1-1.63-1a1.17,1.17,0,0,0-1.35,1.47,2.09,2.09,0,0,0,1.43,1.26C19.4,40.6,20,39.87,20.47,39.49ZM41,39.56V39c-.53-.39-1-1-1.59-1.12A1.2,1.2,0,0,0,38,39.24a2.06,2.06,0,0,0,1.39,1.33C39.86,40.63,40.44,39.93,41,39.56Z"/></g></g></svg>