<svg id="Layer_1" data-name="Layer 1" xmlns="http://www.w3.org/2000/svg" viewBox="0 0 76.06 76.06"><defs><style>.cls-1{fill:#fff;}</style></defs><title>Untitled-2</title><circle class="cls-1" cx="38.03" cy="38.03" r="38.03"/><path d="M27.11,41.26a10.6,10.6,0,0,1-2.71,4.36,2.23,2.23,0,0,1-2.58.41,4.65,4.65,0,0,0-4.16,0,2.13,2.13,0,0,1-2.56-.49c-2.55-2.73-3.88-5.91-3.13-9.69a4.35,4.35,0,0,1,3.56-3.71,4.54,4.54,0,0,1,2.45.2,4.07,4.07,0,0,0,3.28,0,4.19,4.19,0,0,1,5.26,1.48,4.3,4.3,0,0,0-1.94,3.86A4.21,4.21,0,0,0,27.11,41.26Z"/><path d="M30.21,46V28.77c2.53,0,5-.16,7.47,0,2.91.23,4.76,2.6,4.74,5.66A5.31,5.31,0,0,1,37.63,40c-1.54.14-3.09,0-4.74,0v6Zm2.68-8.16c1.2,0,2.31,0,3.43,0a3.84,3.84,0,0,0,.88-.14,3,3,0,0,0,2.41-3.07c.1-1.65-.58-3-2-3.34a38.67,38.67,0,0,0-4.73-.42Z"/><path d="M54,46.08H51.53v-2c-.29.34-.45.53-.62.71a4.79,4.79,0,0,1-6.8.24,3.43,3.43,0,0,1,.9-5.52,11,11,0,0,1,3.06-.75c1-.15,2.12-.14,3.16-.19.36-1.48-.1-2.58-1.24-3a2.87,2.87,0,0,0-3.63,1.13.77.77,0,0,1-.86.53c-.57,0-1.14,0-1.78,0a3.67,3.67,0,0,1,1.5-2.9,6.65,6.65,0,0,1,7.1-.19,3.66,3.66,0,0,1,1.62,2.71c.05.52,0,1,0,1.56Zm-2.69-5.75c-1.37.13-2.7.19-4,.4a1.68,1.68,0,0,0-1.48,1.69,1.76,1.76,0,0,0,1.45,1.73C49.64,44.82,51.58,43.06,51.29,40.33Z"/><path d="M67,33.52l-3.28,9.32c-.54,1.51-1,3-1.63,4.52s-1.47,3.1-3.4,3.4a17.09,17.09,0,0,1-2.38,0v-2l.38-.05c1.73,0,2.29-.41,2.72-2.07a2.09,2.09,0,0,0-.09-1.16c-1.31-3.69-2.65-7.36-4-11-.1-.28-.19-.56-.32-1,.87,0,1.65,0,2.41,0,.21,0,.48.38.56.63.95,3,1.87,6,2.8,8.94.05.18.12.36.26.72,1.1-3.54,2.15-6.91,3.21-10.29Z"/><path d="M19.43,31.64a4,4,0,0,1,3.69-4.2A3.71,3.71,0,0,1,19.43,31.64Z"/></svg>