<svg id="Layer_1" data-name="Layer 1" xmlns="http://www.w3.org/2000/svg" viewBox="0 0 76.06 76.06"><defs><style>.cls-1{fill:#fff;}.cls-2{fill:#1b488d;}.cls-3{fill:#f69320;}</style></defs><title>Untitled-2</title><circle class="cls-1" cx="38.03" cy="38.03" r="38.03"/><path class="cls-2" d="M62.8,28.56l-.38,0H59a3.24,3.24,0,0,0-.44,0,2.21,2.21,0,0,0-1.72,1,3.34,3.34,0,0,0-.33.62c-.39.92-.77,1.84-1.16,2.77-1.05,2.51-2.09,5-3.15,7.54-.73,1.77-1.48,3.53-2.22,5.3l-.65,1.58.27,0h3.23l1.31,0a.3.3,0,0,0,.33-.22c.13-.41.27-.81.42-1.21l.52-1.42h6.28c.05.19.08.33.11.48.15.68.29,1.37.43,2.06.06.28.07.29.36.29h3.22l1,0Q64.76,37.92,62.8,28.56Zm-6,12.13s0,0,0,0a0,0,0,0,1,0,0,.28.28,0,0,1,0-.09l2.52-6.87c.15,0,.12.17.14.25.12.58.23,1.15.35,1.73.25,1.18.5,2.37.74,3.56.1.48.19,1,.29,1.48Z"/><path class="cls-2" d="M28.67,28.55a.76.76,0,0,1,0,.21l-1.2,2.95-1.62,4-1.29,3.13L22.4,44.08c-.43,1.06-.87,2.12-1.3,3.19l-.06.06h-5.1c-.13-.47-.25-.92-.37-1.37l-1.05-4c-.41-1.52-.8-3-1.21-4.57s-.86-3.25-1.3-4.87c-.12-.47-.24-.93-.35-1.4,0,0,0-.07,0-.11a.39.39,0,0,0-.19-.21c-.56-.28-1.12-.57-1.68-.84-.38-.18-.77-.35-1.17-.5S7.49,29.14,6.94,29a1.19,1.19,0,0,1-.27-.07c-.07,0-.15-.11-.15-.17a.28.28,0,0,1,.15-.17.69.69,0,0,1,.25,0c2.43,0,4.86,0,7.29,0a3.84,3.84,0,0,1,1.07.15A1.68,1.68,0,0,1,16.51,30c.18.88.35,1.76.54,2.64s.32,1.47.46,2.2c.09.44.14.88.23,1.32.12.61.26,1.22.39,1.82l.09.41c.12.59.22,1.17.33,1.76.07.33.13.67.2,1a.87.87,0,0,0,.1.2c1.6-4.31,3.18-8.56,4.76-12.83Z"/><path class="cls-2" d="M35.67,46.66l.67-4.14c.73.29,1.42.6,2.14.82a8.64,8.64,0,0,0,4.1.3A2.8,2.8,0,0,0,43.94,43a1.46,1.46,0,0,0,.17-2.13A4.75,4.75,0,0,0,42.94,40c-.67-.36-1.35-.69-2-1.06a8,8,0,0,1-2.11-1.64,4.42,4.42,0,0,1-1-4.14,5.75,5.75,0,0,1,2.91-3.75,9.78,9.78,0,0,1,4.36-1.23,12.58,12.58,0,0,1,3.18.2,9.81,9.81,0,0,1,2,.56c-.18,1.34-.42,2.66-.63,4-.43-.16-.82-.32-1.22-.46A7.59,7.59,0,0,0,46,32.09a7.41,7.41,0,0,0-1.49.09,2.69,2.69,0,0,0-1.34.63,1.18,1.18,0,0,0-.07,1.78,5.36,5.36,0,0,0,1.46,1c.76.41,1.54.81,2.3,1.25a6.29,6.29,0,0,1,1.57,1.29,4.47,4.47,0,0,1,1.13,3.33A5.68,5.68,0,0,1,48.2,45a6.73,6.73,0,0,1-2.32,1.73,10.4,10.4,0,0,1-2.74.8,14,14,0,0,1-3.6.07,17,17,0,0,1-3-.59C36.25,46.9,36,46.78,35.67,46.66Z"/><path class="cls-2" d="M30.77,28.52h4.82c-.16,1.06-.32,2.09-.49,3.13s-.35,2.1-.52,3.15-.33,2.08-.5,3.12L33.57,41c-.17,1.05-.33,2.1-.5,3.15l-.51,3.11c-.28.08-4.51.08-4.82,0Z"/><path class="cls-3" d="M18.13,38A16,16,0,0,0,14,32.67,13.64,13.64,0,0,0,11.62,31a.39.39,0,0,0-.19-.21c-.56-.28-1.12-.57-1.68-.84-.38-.18-.77-.35-1.17-.5S7.49,29.14,6.94,29a1.19,1.19,0,0,1-.27-.07c-.07,0-.15-.11-.15-.17a.28.28,0,0,1,.15-.17.69.69,0,0,1,.25,0c2.43,0,4.86,0,7.29,0a3.84,3.84,0,0,1,1.07.15A1.68,1.68,0,0,1,16.51,30c.18.88.35,1.76.54,2.64s.32,1.47.46,2.2c.09.44.14.88.23,1.32C17.86,36.8,18,37.41,18.13,38Z"/><path class="cls-2" d="M68.72,47.33a1.19,1.19,0,1,1,1.19-1.18A1.18,1.18,0,0,1,68.72,47.33Zm0-2.09a.91.91,0,1,0,.91.91A.91.91,0,0,0,68.72,45.24Z"/><path class="cls-2" d="M69.33,46.72H69l-.18-.29a.16.16,0,0,0,0-.06l0,0,0,0h-.12v.44h-.25V45.57h.41c.28,0,.41.11.41.32a.41.41,0,0,1,0,.11.47.47,0,0,1-.06.09.27.27,0,0,1-.08.07l-.1.05h0l0,0,0,.05,0,0,0,.05Zm-.71-.95v.32h.12a.19.19,0,0,0,.13-.05.13.13,0,0,0,0-.12q0-.15-.18-.15Z"/></svg>