<svg id="Layer_1" data-name="Layer 1" xmlns="http://www.w3.org/2000/svg" viewBox="0 0 76.06 76.06"><defs><style>.cls-1{fill:#fff;}.cls-2{fill:#6ec8bf;}</style></defs><title>Untitled-2</title><circle class="cls-1" cx="38.03" cy="38.03" r="38.03"/><path class="cls-2" d="M5.24,27.73l.17.05A1.24,1.24,0,0,1,6.35,29v4.09h5.1a1.8,1.8,0,0,1,.46,0,1.25,1.25,0,0,1-.13,2.44,1.62,1.62,0,0,1-.31,0H6.36s0,.09,0,.12c0,1.08,0,2.16,0,3.24A7.85,7.85,0,0,0,8.68,44.4a8.13,8.13,0,0,0,4.46,2.35,8.34,8.34,0,0,0,8.52-3.7,7.79,7.79,0,0,0,1.18-3.22,9.79,9.79,0,0,0,.07-1.08,1.29,1.29,0,0,1,2.57,0,10.59,10.59,0,0,1-.16,1.77,10.47,10.47,0,0,1-3.44,6.1,10.6,10.6,0,0,1-5.2,2.54c-.45.09-.92.12-1.38.18l-.15,0h-1l-.16,0a11.9,11.9,0,0,1-1.46-.19,10.78,10.78,0,0,1-6.54-4,10.22,10.22,0,0,1-2.15-5.61c0-.09,0-.19-.06-.29V28.81a.52.52,0,0,0,.06-.13,1.26,1.26,0,0,1,.91-.9l.18-.05Z"/><path class="cls-2" d="M71,42.07c0,.14,0,.29-.06.44A3.89,3.89,0,0,1,69.47,45a3.46,3.46,0,0,1-4.59-.3c-.16-.16-.3-.35-.45-.52L64.34,44a3.57,3.57,0,0,1-6,0,1.71,1.71,0,0,1-.11.14A3.57,3.57,0,0,1,56,45.62a3.07,3.07,0,0,1-.67.08c-2.67,0-5.34,0-8,0a3.44,3.44,0,0,1-2.88-1.53,4,4,0,0,1-.77-2.4V32.22a1.33,1.33,0,0,1,0-.28.65.65,0,0,1,.72-.48.67.67,0,0,1,.57.62v9.59A2.81,2.81,0,0,0,45.24,43a2.31,2.31,0,0,0,1.55,1.32,2,2,0,0,0,.55.07h7.93a2.22,2.22,0,0,0,1.84-1,2.68,2.68,0,0,0,.53-1.66c0-1,0-2,0-3a4.06,4.06,0,0,1,.85-2.5,3.51,3.51,0,0,1,2.11-1.35,3.38,3.38,0,0,1,3.08.85A3.92,3.92,0,0,1,65,38.22c0,.2,0,.41,0,.61,0,1,0,1.9,0,2.84a2.86,2.86,0,0,0,.22,1.19,2.54,2.54,0,0,0,.72,1,2.18,2.18,0,0,0,2.86,0,2.6,2.6,0,0,0,.9-1.87,2.44,2.44,0,0,0,0-.27v-6a.89.89,0,0,1,0-.28.65.65,0,0,1,.54-.49.64.64,0,0,1,.67.34,1.59,1.59,0,0,1,.07.2Zm-7.36-1.8h0c0-.49,0-1,0-1.46a2.66,2.66,0,0,0-.57-1.72A2.23,2.23,0,0,0,59.59,37a2.58,2.58,0,0,0-.62,1.7c0,.92,0,1.84,0,2.76,0,.15,0,.31,0,.46a2.63,2.63,0,0,0,.79,1.75,2.19,2.19,0,0,0,2.92.16,2.52,2.52,0,0,0,1-1.85C63.69,41.43,63.66,40.85,63.66,40.27Z"/><path class="cls-2" d="M41.93,38.73V41.8a4.07,4.07,0,0,1-.39,1.71,3.64,3.64,0,0,1-2.35,2.05A3.37,3.37,0,0,1,36,44.88a.66.66,0,0,1-.2-.81.64.64,0,0,1,.89-.33l.16.1A2.2,2.2,0,0,0,40,43.5a2.63,2.63,0,0,0,.62-1.74c0-.93,0-1.85,0-2.78V35.6a1.93,1.93,0,0,1,0-.24.67.67,0,0,1,.7-.52.69.69,0,0,1,.61.65v3.24Z"/><path class="cls-2" d="M34,37.76v5.53a.83.83,0,0,1,0,.27.65.65,0,0,1-.69.5.67.67,0,0,1-.6-.63V32.22a1.1,1.1,0,0,1,0-.26.66.66,0,0,1,.71-.5.67.67,0,0,1,.59.62v5.68Z"/><path class="cls-2" d="M15.15,34.34a1.28,1.28,0,0,1,2.56,0,1.28,1.28,0,0,1-2.56,0Z"/><path class="cls-2" d="M21.31,35.6a1.26,1.26,0,1,1,0-2.51,1.26,1.26,0,1,1,0,2.51Z"/><path class="cls-2" d="M67.9,32.88a.87.87,0,0,1,.86-.88.89.89,0,0,1,.85.88.88.88,0,0,1-.86.88A.86.86,0,0,1,67.9,32.88Z"/><path class="cls-2" d="M67.16,32.87A.86.86,0,1,1,66.3,32,.86.86,0,0,1,67.16,32.87Z"/></svg>