<svg id="Layer_1" data-name="Layer 1" xmlns="http://www.w3.org/2000/svg" viewBox="0 0 76.06 76.06"><defs><style>.cls-1{fill:#fff;}.cls-2{fill:#0d74b8;}.cls-3{fill:#fff200;}</style></defs><title>Untitled-2</title><path class="cls-1" d="M38,0a38,38,0,1,0,38,38A38,38,0,0,0,38,0ZM50.74,27.51l-.08,0a.19.19,0,0,1-.11-.16v-.27a.19.19,0,0,1,.19-.18h2.85c.34,0,.71,0,.7.42a.31.31,0,0,1-.07.2Z"/><path class="cls-2" d="M60.8,20.46V55.61a5.22,5.22,0,0,1-5.2,5.2H20.45a5.21,5.21,0,0,1-5.19-5.2V20.46a5.21,5.21,0,0,1,5.19-5.2H55.6A5.22,5.22,0,0,1,60.8,20.46Z"/><path class="cls-1" d="M52,30A.14.14,0,0,0,52,30c-.1-.17-.34-.11-.51-.12s-.52-.07-.54.26.3.26.52.3.46.07.54-.13a.42.42,0,0,0,0-.17A.22.22,0,0,0,52,30ZM50.3,30a.14.14,0,0,0,0-.06c-.1-.17-.34-.11-.51-.12s-.53,0-.55.27.31.25.52.29.47.07.55-.13a.72.72,0,0,0,0-.17A.19.19,0,0,0,50.3,30ZM39.52,27.83c0-.11,0-.24-.05-.38l0-.17a1,1,0,0,0-.06-.14h0s0,0,0-.05a.19.19,0,0,0-.1,0l-.14,0H37.57a.34.34,0,0,0-.22.06l0,0a.39.39,0,0,0-.12.23c-.26,1.09,0,1.44,1.12,1.44H39a1,1,0,0,0,.28,0l.08,0h0a.19.19,0,0,0,.08-.07.21.21,0,0,0,0-.06l0,0a0,0,0,0,0,0,0v0s0,0,0,0a.14.14,0,0,0,0-.07,2.39,2.39,0,0,0,0-.38A.62.62,0,0,0,39.52,27.83ZM17.39,31.56v.16h0S17.39,31.61,17.39,31.56ZM50,43l-2.79-2.43-2.8-2.41a.92.92,0,0,1-.14-.14c-.24-.23-.27-.42,0-.66l.16-.13c.32-.24.65-.48,1-.74a1.64,1.64,0,0,0,.26-.2c.47-.35.94-.7,1.4-1.06L48.76,34c.31-.24.62-.5.91-.75l.13-.1h0a.36.36,0,0,0-.39-.2H39.49a1.09,1.09,0,0,0-.72.25c-.52.44-1.06.86-1.59,1.28l-1.6,1.27L33.88,37l-.61.46h0c0-1.45,0-2.7,0-3.95a1,1,0,0,0,0-.17,1.12,1.12,0,0,0,0-.2.61.61,0,0,0-.07-.14l-.08-.08a.52.52,0,0,0-.15-.07.18.18,0,0,0-.1,0h-7.3l-.27,0-.11,0-.06,0A.29.29,0,0,0,25,33h0a.07.07,0,0,0,0,.06.34.34,0,0,0,0,.12.28.28,0,0,0,0,.09.81.81,0,0,0,0,.16c0,3.23.05,6.46,0,9.69a1.4,1.4,0,0,0,0,.23.34.34,0,0,0,0,.12.16.16,0,0,0,.07.11l.06.06.13.05.12,0a.65.65,0,0,0,.2,0l3.71,0c1,0,2,0,3.06,0a1.66,1.66,0,0,0,.42,0h0a.33.33,0,0,0,.12-.05.46.46,0,0,0,.17-.17.37.37,0,0,0,0-.11.34.34,0,0,0,0-.16.41.41,0,0,0,0-.11,1.34,1.34,0,0,0,0-.21c0-1.62,0-3.24,0-5.06.24.21.35.29.43.38L36,40.68c.79.82,1.58,1.65,2.36,2.48a1,1,0,0,0,.19.17.38.38,0,0,0,.13.09l.06,0,.14.06a.86.86,0,0,0,.23.06,1.34,1.34,0,0,0,.35,0h11C50.4,43.22,50.17,43.15,50,43Z"/><path class="cls-3" d="M33.19,37.83c0,1.82,0,3.44,0,5.06,0,.65-.18.86-.84.85-2.26,0-4.52,0-6.77,0-.46,0-.64-.11-.64-.61,0-3.23,0-6.46,0-9.68,0-.49.15-.64.63-.63,2.36,0,4.72,0,7.08,0,.53,0,.66.19.65.69,0,1.26,0,2.51,0,4,.85-.65,1.59-1.21,2.31-1.78,1.07-.84,2.14-1.69,3.2-2.55a1.07,1.07,0,0,1,.72-.25h9.92a.36.36,0,0,1,.39.2c-.34.28-.68.58-1,.86-1.43,1.11-2.86,2.23-4.31,3.3-.5.36-.43.57,0,.93C46.3,39.78,48.16,41.4,50,43c.15.13.38.2.39.59h-1c-3.31,0-6.62,0-9.92,0a1.38,1.38,0,0,1-1.1-.46Q36,40.67,33.62,38.21C33.54,38.12,33.43,38,33.19,37.83Z"/><path class="cls-1" d="M17.4,31.72s0-.11,0-.16h41.2v.16Z"/><rect class="cls-1" x="17.39" y="44.98" width="41.29" height="0.16"/><path class="cls-1" d="M25.77,25.78v-.26a.19.19,0,0,1,.18-.19h1a.19.19,0,0,1,.18.19v.26a.19.19,0,0,1-.18.19H26A.19.19,0,0,1,25.77,25.78Z"/><path class="cls-1" d="M24,25.78v-.26a.2.2,0,0,1,.19-.19h1a.19.19,0,0,1,.18.19v.26a.19.19,0,0,1-.18.19h-1A.2.2,0,0,1,24,25.78Z"/><path class="cls-1" d="M35.55,25.61v.26a.18.18,0,0,1-.18.18h-.95a.18.18,0,0,1-.18-.18v-.26a.18.18,0,0,1,.18-.19h.95A.18.18,0,0,1,35.55,25.61Z"/><path class="cls-1" d="M35.48,26.73v1.34c0,1.21-.3,1.21-2,1.21-3.46,0-6.92,0-10.38,0a2.28,2.28,0,0,1-1.76-.9,1.62,1.62,0,0,1-.31-.42c-.24-.51.05-.95.28-1.46.34-.75.73-1.32,1.69-1.21.39,0,.44.16.28.48s-.35.88-.56,1.3c-.1.2-.12.34-.07.42a.16.16,0,0,0,.09.07.84.84,0,0,0,.35.05c3,0,6,0,9,0,.24,0,.4-.05.48-.17a.09.09,0,0,0,0-.06v-.68a.33.33,0,0,1,.33-.33h.58a.33.33,0,0,1,.33.33v.67a.14.14,0,0,0,.14.14h.15a.13.13,0,0,0,.12-.08v-.73h0a.32.32,0,0,1,.32-.32h.59A.33.33,0,0,1,35.48,26.73Z"/><path class="cls-1" d="M21.37,28.41a1.26,1.26,0,0,1-.31-.42A1.62,1.62,0,0,0,21.37,28.41Z"/><path class="cls-1" d="M58.6,31.56c0,.05,0,.11,0,.16v-.16Z"/><path class="cls-1" d="M38.33,28.76c-1.12,0-1.38-.35-1.12-1.44,0-.22.15-.31.36-.31h1.49c.31,0,.37.18.41.44C39.64,28.7,39.6,28.76,38.33,28.76Z"/><path class="cls-1" d="M49.74,30.39c-.22,0-.54.08-.52-.29s.32-.27.55-.27.53-.08.54.26S50,30.34,49.74,30.39Z"/><path class="cls-1" d="M51.45,30.39c-.21,0-.53.07-.51-.29s.32-.28.54-.27.53-.07.54.26S51.67,30.34,51.45,30.39Z"/><rect class="cls-1" x="37.02" y="27.01" width="2.53" height="1.75" rx="0.27" ry="0.27"/><path class="cls-1" d="M55,28.69h0a.49.49,0,0,1-.19.05c-1.67,0-3.34,0-5,0h-.07a1.51,1.51,0,0,1-1.37-1.17v1.74c0,.22,0,.42,0,.63s-.13.47-.46.46H41.6c-.34,0-.45-.17-.44-.48,0-1,0-2.05,0-3.07,0-.34.15-.46.48-.46,1.39,0,2.78,0,4.17,0,.61,0,.49.38.51.74s0,.72-.55.7c-.78,0-1.57,0-2.36,0-.62,0-.5.38-.5.73s-.12.75.5.73c1,0,2,0,3,0,.38,0,.49-.15.48-.51,0-.61,0-1.21,0-1.81,0-.41.12-.59.54-.56a4.35,4.35,0,0,0,1,0,1.34,1.34,0,0,1,1.49.76,1,1,0,0,0,.73.58l.08,0H54.2a.31.31,0,0,0,.07-.2c0-.42-.36-.42-.7-.42H51a1.28,1.28,0,0,1-.88-1.67c.11-.22.3-.18.47-.18h3.55a.7.7,0,0,1,.47.11.3.3,0,0,1,.07.2.06.06,0,0,1,0,0v.26a.2.2,0,0,1-.09.16l-.1,0h-2.6c-.1,0-.18.05-.17.19s.21.2.36.2h2.41a1,1,0,0,1,.4.13.56.56,0,0,1,.14.11h0C55.44,27,56,27.75,55,28.69Z"/><path class="cls-1" d="M50.86,30.23V30a.19.19,0,0,1,.18-.19h1a.19.19,0,0,1,.18.19v.26a.19.19,0,0,1-.18.19H51A.19.19,0,0,1,50.86,30.23Z"/><rect class="cls-1" x="49.07" y="29.78" width="1.36" height="0.64" rx="0.19" ry="0.19"/><path class="cls-1" d="M24.36,46.76a3.38,3.38,0,0,0-2.31.7h0v-.61H19.8v3.86H22v-2.2a.68.68,0,0,1,.37-.6,1.74,1.74,0,0,1,.95-.24c.8,0,1.19.3,1.19.9v2.14h2.22V48.35C26.75,47.29,26,46.76,24.36,46.76Z"/><path class="cls-1" d="M42.91,48.62a1.53,1.53,0,0,0-.86-1.36,4.81,4.81,0,0,0-2.43-.5,5.24,5.24,0,0,0-2.56.56,1.68,1.68,0,0,0-1,1.52,1.6,1.6,0,0,0,1,1.45,5.72,5.72,0,0,0,2.71.52,9.69,9.69,0,0,0,2.59-.29v-.86a6.63,6.63,0,0,1-2.09.3c-1.24,0-1.9-.28-2-.84h4.69Zm-4.71-.23a1,1,0,0,1,.48-.59,1.7,1.7,0,0,1,.92-.24c.83,0,1.25.28,1.25.83Z"/><path class="cls-1" d="M56.52,47.73v-.88H54.91V45.68L52.69,46v.83H51.53v.88h1.16V49.5c0,.87.78,1.31,2.35,1.31a6,6,0,0,0,1.48-.14v-.88a2.66,2.66,0,0,1-.72.1c-.6,0-.89-.2-.89-.6V47.73Z"/><path class="cls-1" d="M47.27,26.36h1.55a0,0,0,0,1,0,0v.9a0,0,0,0,1,0,0h-2a0,0,0,0,1,0,0v-.49A.41.41,0,0,1,47.27,26.36Z"/></svg>