<svg id="Layer_1" data-name="Layer 1" xmlns="http://www.w3.org/2000/svg" viewBox="0 0 76.06 76.06"><defs><style>.cls-1{fill:#fff;}.cls-2{fill:#512e84;}.cls-3{fill:#08aa7d;}</style></defs><title>Untitled-2</title><circle class="cls-1" cx="38.03" cy="38.03" r="38.03"/><path class="cls-2" d="M36.66,31.52A7.74,7.74,0,0,1,41,32.71a6.57,6.57,0,0,1,2.74,3.75c0,.09,0,.12-.09.15l-3.39,1.14c-.1,0-.13,0-.16-.08a3.74,3.74,0,0,0-.82-1.45,3.1,3.1,0,0,0-1.91-.93,4,4,0,0,0-2.27.35,3.38,3.38,0,0,0-1.79,2,5.1,5.1,0,0,0,.19,4,3.5,3.5,0,0,0,2.7,2,3.66,3.66,0,0,0,2.28-.28,3.33,3.33,0,0,0,1.77-2c0-.12.07-.15.19-.1l3.3,1.1c.09,0,.11.06.08.16A6.6,6.6,0,0,1,39.39,47a7.84,7.84,0,0,1-6.93-.84,7.34,7.34,0,0,1-3.27-4.7,8.2,8.2,0,0,1,.94-6.32,7.25,7.25,0,0,1,5-3.45A7.85,7.85,0,0,1,36.66,31.52Z"/><path class="cls-2" d="M11,31.53a7.18,7.18,0,0,1,4,1.12,4.56,4.56,0,0,1,1.93,2.45c.06.21.1.43.14.65s0,.1-.08.12l-2.17.48-1,.23c-.05,0-.1,0-.11,0a2.2,2.2,0,0,0-1.76-1.82,3.48,3.48,0,0,0-2.14.11,1.69,1.69,0,0,0-.72.52A1.17,1.17,0,0,0,9.31,37a2.83,2.83,0,0,0,1.14.44c1,.2,2,.34,3,.62a5.89,5.89,0,0,1,2.3,1.19,4.08,4.08,0,0,1,1.5,3.36,4.4,4.4,0,0,1-2.38,3.88,7,7,0,0,1-2.71.84A8.43,8.43,0,0,1,8.42,47a5.82,5.82,0,0,1-3.07-2.32A4.08,4.08,0,0,1,4.72,43c0-.12,0-.17.13-.2l3.22-.7s.11,0,.11,0A2.28,2.28,0,0,0,9.68,44a3.51,3.51,0,0,0,1.6.27,3.14,3.14,0,0,0,1.25-.25,1.35,1.35,0,0,0,.83-1,1.2,1.2,0,0,0-.51-1.27,3.75,3.75,0,0,0-1.29-.49c-1-.25-1.94-.43-2.9-.73a6.63,6.63,0,0,1-1.8-.86A3.75,3.75,0,0,1,5.14,37a4.43,4.43,0,0,1,.9-3.3A5.28,5.28,0,0,1,8.5,32,7.25,7.25,0,0,1,11,31.53Z"/><path class="cls-2" d="M27.72,43.21v3.17a.21.21,0,0,1-.11.2,4.07,4.07,0,0,1-1.59.67,6.66,6.66,0,0,1-3.65-.2A3.86,3.86,0,0,1,19.79,44a6.12,6.12,0,0,1-.11-1.21V36c0-.12,0-.16.15-.16h3.72c.13,0,.15,0,.15.16,0,1.92,0,3.83,0,5.75a4.23,4.23,0,0,0,.08.79A1.4,1.4,0,0,0,25,43.73a3.57,3.57,0,0,0,2.7-.47Z"/><path class="cls-3" d="M49.55,38.62v3.55c0,.11,0,.14-.14.14-.5,0-1,0-1.49,0-.11,0-.13,0-.13-.14V32.12c0-.1,0-.14.14-.14h1.49c.1,0,.14,0,.13.13s0,.44,0,.69a2.94,2.94,0,0,1,.48-.46,3,3,0,0,1,2.14-.54,3.4,3.4,0,0,1,3,2.95,4.64,4.64,0,0,1-.36,3,3.2,3.2,0,0,1-2.49,1.86,2.91,2.91,0,0,1-2.78-.94Zm0-2.94v.88a.27.27,0,0,0,0,.15,2.11,2.11,0,0,0,2,1.26,1.72,1.72,0,0,0,1.63-1.09,3,3,0,0,0,.1-2.14,1.79,1.79,0,0,0-1.8-1.31,2.1,2.1,0,0,0-2,1.24.32.32,0,0,0,0,.17Z"/><path class="cls-3" d="M61.48,38.51a2.83,2.83,0,0,1-2.26,1.12,3,3,0,0,1-1.64-.34,2.23,2.23,0,0,1-1.13-2.21A2.06,2.06,0,0,1,57,35.71a2.3,2.3,0,0,1,1.4-.7l3-.38s.1,0,.1-.07a3.62,3.62,0,0,0,0-.47.57.57,0,0,0-.63-.53H57.23c-.1,0-.13,0-.13-.13,0-.45,0-.9,0-1.34,0-.09,0-.13.12-.13h3.83a2.66,2.66,0,0,1,1.2.27,1.73,1.73,0,0,1,1,1.44,5.62,5.62,0,0,1,0,.58c0,1.66,0,3.32,0,5,0,.12,0,.16-.16.16H61.6c-.09,0-.12,0-.12-.12C61.49,39,61.48,38.8,61.48,38.51Zm0-1.94v-.43c0-.08,0-.11-.11-.1-.56.08-1.12.15-1.68.24a3.2,3.2,0,0,0-.92.18.89.89,0,0,0-.54.94.79.79,0,0,0,.65.72,2.2,2.2,0,0,0,2-.43A1.14,1.14,0,0,0,61.48,36.57Z"/><path class="cls-3" d="M67.71,37.16a1.12,1.12,0,0,0,.1-.24q.75-2.41,1.49-4.83a.15.15,0,0,1,.17-.12q.77,0,1.53,0c.12,0,.14,0,.1.14-.67,1.92-1.33,3.84-2,5.75-.34,1-.69,2-1,3a2.51,2.51,0,0,1-.48.84,1.85,1.85,0,0,1-1.29.62c-.56,0-1.11,0-1.67,0-.09,0-.1,0-.1-.11V40.81c0-.08,0-.1.11-.1h1.18a.75.75,0,0,0,.81-.55c.09-.23.16-.47.25-.71,0-.06,0-.1,0-.15l-2.1-5.78c-.17-.47-.34-1-.52-1.43,0-.09,0-.12.08-.12.53,0,1.06,0,1.58,0,.1,0,.14,0,.17.13q.8,2.44,1.6,4.91S67.69,37.09,67.71,37.16Z"/><path class="cls-2" d="M19.68,29.93V28c0-.09,0-.12.11-.12h3.78c.1,0,.13,0,.13.12,0,1.29,0,2.57,0,3.86,0,.1,0,.12-.13.12H19.81c-.1,0-.14,0-.13-.13Z"/><path class="cls-2" d="M25.71,32h1.86c.11,0,.15,0,.15.14q0,1.82,0,3.63c0,.11,0,.13-.15.13H23.84c-.1,0-.14,0-.14-.13V32.12c0-.11,0-.14.14-.14Z"/></svg>