<svg id="Layer_1" data-name="Layer 1" xmlns="http://www.w3.org/2000/svg" viewBox="0 0 76.06 76.06"><defs><style>.cls-1{fill:#fff;}.cls-2{fill:#306fb7;fill-rule:evenodd;}</style></defs><title>Untitled-2</title><circle class="cls-1" cx="38.03" cy="38.03" r="38.03"/><path class="cls-2" d="M8,28.35,4.68,36.14H6.86l.62-1.56h3.59l.61,1.56h2.23l-3.35-7.79Zm1.23,1.82,1.1,2.72H8.17l1.09-2.72Z"/><polygon class="cls-2" points="14.14 36.13 14.14 28.35 17.23 28.36 19.04 33.38 20.79 28.35 23.86 28.35 23.86 36.13 21.92 36.13 21.92 30.4 19.86 36.13 18.15 36.13 16.08 30.4 16.08 36.13 14.14 36.13 14.14 36.13"/><polygon class="cls-2" points="25.2 36.13 25.2 28.35 31.54 28.35 31.54 30.09 27.16 30.09 27.16 31.43 31.44 31.43 31.44 33.06 27.16 33.06 27.16 34.45 31.54 34.45 31.54 36.13 25.2 36.13 25.2 36.13"/><path class="cls-2" d="M32.67,28.35v7.79h1.95V33.37h.82l2.33,2.77h2.38l-2.56-2.87a2.37,2.37,0,0,0,2.13-2.39A2.52,2.52,0,0,0,37,28.35Zm1.95,1.75h2.22a.89.89,0,0,1,.92.81.88.88,0,0,1-.89.82H34.62V30.1Z"/><polygon class="cls-2" points="42.5 36.13 40.51 36.13 40.51 28.35 42.5 28.35 42.5 36.13 42.5 36.13"/><path class="cls-2" d="M47.21,36.13h-.43c-2.07,0-3.33-1.63-3.33-3.85s1.24-3.93,3.86-3.93h2.15V30.2H47.23a1.87,1.87,0,0,0-1.81,2.1,1.91,1.91,0,0,0,2.1,2.14H48l-.82,1.69Z"/><path class="cls-2" d="M51.44,28.35,48.1,36.14h2.18l.61-1.56h3.59l.62,1.56h2.23L54,28.35Zm1.24,1.82,1.1,2.72h-2.2l1.1-2.72Z"/><polygon class="cls-2" points="57.55 36.13 57.55 28.35 60.03 28.35 63.18 33.24 63.18 28.35 65.13 28.35 65.13 36.13 62.74 36.13 59.5 31.12 59.5 36.13 57.55 36.13 57.55 36.13"/><polygon class="cls-2" points="18.85 46.81 18.85 39.03 25.2 39.03 25.2 40.77 20.81 40.77 20.81 42.1 25.09 42.1 25.09 43.74 20.81 43.74 20.81 45.12 25.2 45.12 25.2 46.81 18.85 46.81 18.85 46.81"/><polygon class="cls-2" points="49.95 46.81 49.95 39.03 56.3 39.03 56.3 40.77 51.92 40.77 51.92 42.1 56.18 42.1 56.18 43.74 51.92 43.74 51.92 45.12 56.3 45.12 56.3 46.81 49.95 46.81 49.95 46.81"/><polygon class="cls-2" points="25.44 46.81 28.53 42.97 25.37 39.03 27.82 39.03 29.7 41.46 31.6 39.03 33.95 39.03 30.83 42.92 33.92 46.81 31.47 46.81 29.64 44.41 27.86 46.81 25.44 46.81 25.44 46.81"/><path class="cls-2" d="M34.16,39v7.78h2V44.36H38.2c1.73,0,3-.92,3-2.71A2.57,2.57,0,0,0,38.45,39Zm2,1.76h2.16a.88.88,0,0,1,1,.9.89.89,0,0,1-1,.89H36.15V40.79Z"/><path class="cls-2" d="M42.09,39v7.78H44V44.05h.82l2.33,2.76h2.38L47,43.94a2.36,2.36,0,0,0,2.13-2.39A2.52,2.52,0,0,0,46.42,39ZM44,40.77h2.22a.9.9,0,0,1,.92.82.88.88,0,0,1-.89.82H44V40.77Z"/><path class="cls-2" d="M57.2,46.81V45.12h3.9c.57,0,.82-.31.82-.65s-.25-.66-.82-.66H59.34A2.17,2.17,0,0,1,57,41.48c0-1.25.78-2.45,3-2.45H63.8L63,40.78H59.7c-.62,0-.82.33-.82.64a.68.68,0,0,0,.72.68h1.84a2.14,2.14,0,0,1,2.45,2.23,2.34,2.34,0,0,1-2.54,2.48Z"/><path class="cls-2" d="M64.34,46.81V45.12h3.73c.58,0,.83-.31.83-.65s-.25-.66-.83-.66H66.48a2.17,2.17,0,0,1-2.38-2.33c0-1.25.78-2.45,3.05-2.45h3.71L70,40.78h-3.2c-.62,0-.82.33-.82.64a.68.68,0,0,0,.72.68h1.68a2.13,2.13,0,0,1,2.44,2.23,2.33,2.33,0,0,1-2.53,2.48Z"/></svg>