<svg id="Layer_1" data-name="Layer 1" xmlns="http://www.w3.org/2000/svg" xmlns:xlink="http://www.w3.org/1999/xlink" viewBox="0 0 76.06 76.06"><defs><style>.cls-1{fill:#fff;}.cls-2{fill:url(#linear-gradient);}.cls-3{fill:url(#linear-gradient-2);}.cls-4{fill:url(#linear-gradient-5);}.cls-5{fill:#e9222d;}.cls-6{fill:#747474;}.cls-7{fill:url(#linear-gradient-6);}</style><linearGradient id="linear-gradient" x1="23.6" y1="32" x2="23.63" y2="32" gradientUnits="userSpaceOnUse"><stop offset="0" stop-color="#fff"/><stop offset="0.6"/><stop offset="1"/></linearGradient><linearGradient id="linear-gradient-2" x1="23.62" y1="32" x2="23.63" y2="32" xlink:href="#linear-gradient"/><linearGradient id="linear-gradient-5" x1="27.86" y1="26.09" x2="48.63" y2="26.09" gradientUnits="userSpaceOnUse"><stop offset="0.11" stop-color="#9a2481"/><stop offset="0.6" stop-color="#e8232b"/><stop offset="1" stop-color="#f3a156"/></linearGradient><linearGradient id="linear-gradient-6" x1="28.33" y1="33.55" x2="47.53" y2="33.55" xlink:href="#linear-gradient-5"/></defs><title>Untitled-2</title><circle class="cls-1" cx="38.03" cy="37.99" r="38.03"/><path class="cls-2" d="M23.63,32h0l0,0Z"/><polygon class="cls-3" points="23.63 32 23.62 32.01 23.62 32.01 23.63 32"/><path class="cls-2" d="M23.62,32l0,0h0Z"/><path class="cls-2" d="M23.63,32h0l0,0Z"/><path class="cls-4" d="M48.57,20.11v0s0-.07,0-.1a4.63,4.63,0,0,0-3-3.75,9.84,9.84,0,0,0-3.65-.54c-1.62,0-3.24,0-4.86,0H32.46l-.91,3.88-.06.23L27.86,36.51l.46-.27,4.55-2.69a36.1,36.1,0,0,0,.82-3.85c.08-.61.41-.79,1-.76,1.77.09,3.55,0,5.32.06h0l.68.05,6.34-4h0A5.72,5.72,0,0,0,48.57,20.11Zm-7.46,4.95H34.78l1.35-5.67h5a2.83,2.83,0,0,1,2,.83,2.84,2.84,0,0,1-2,4.84Z"/><path class="cls-5" d="M12.89,50.92V43.46H15a2.28,2.28,0,0,1,1.53.47,1.52,1.52,0,0,1,.57,1.23,1.83,1.83,0,0,1-.34,1.11,1.87,1.87,0,0,1-.95.66v0a1.92,1.92,0,0,1,1.21.57,1.76,1.76,0,0,1,.45,1.25,2,2,0,0,1-.69,1.56,2.56,2.56,0,0,1-1.73.59Zm.87-6.67v2.41h.9a1.73,1.73,0,0,0,1.13-.35,1.22,1.22,0,0,0,.41-1q0-1.08-1.44-1.08Zm0,3.19v2.69H15a1.73,1.73,0,0,0,1.19-.37,1.25,1.25,0,0,0,.43-1c0-.88-.6-1.32-1.81-1.32Z"/><path class="cls-5" d="M23.38,48.47H19.62a2,2,0,0,0,.47,1.37,1.68,1.68,0,0,0,1.26.49,2.61,2.61,0,0,0,1.66-.6v.8a3.1,3.1,0,0,1-1.86.51,2.26,2.26,0,0,1-1.77-.72,3,3,0,0,1-.65-2,2.92,2.92,0,0,1,.71-2,2.27,2.27,0,0,1,1.75-.79,2,2,0,0,1,1.62.68A2.83,2.83,0,0,1,23.38,48Zm-.88-.73a1.75,1.75,0,0,0-.35-1.15,1.24,1.24,0,0,0-1-.41,1.4,1.4,0,0,0-1,.43,2,2,0,0,0-.52,1.13Z"/><path class="cls-5" d="M29.31,50.92h-.86v-3c0-1.13-.41-1.7-1.24-1.7a1.32,1.32,0,0,0-1.05.48,1.81,1.81,0,0,0-.42,1.22v3h-.86V45.59h.86v.88h0a1.92,1.92,0,0,1,1.75-1,1.6,1.6,0,0,1,1.33.57,2.51,2.51,0,0,1,.47,1.63Z"/><path class="cls-5" d="M35.41,48.47H31.65a1.94,1.94,0,0,0,.48,1.37,1.65,1.65,0,0,0,1.26.49,2.58,2.58,0,0,0,1.65-.6v.8a3.1,3.1,0,0,1-1.86.51,2.26,2.26,0,0,1-1.77-.72,3,3,0,0,1-.65-2,2.92,2.92,0,0,1,.71-2,2.27,2.27,0,0,1,1.75-.79,2,2,0,0,1,1.62.68A2.83,2.83,0,0,1,35.41,48Zm-.87-.73a1.81,1.81,0,0,0-.36-1.15,1.22,1.22,0,0,0-1-.41,1.4,1.4,0,0,0-1,.43,2,2,0,0,0-.52,1.13Z"/><path class="cls-5" d="M39.55,43.78a1.1,1.1,0,0,0-.57-.14c-.59,0-.89.37-.89,1.13v.82h1.25v.73H38.09v4.6h-.85v-4.6h-.91v-.73h.91v-.86a1.82,1.82,0,0,1,.48-1.33,1.68,1.68,0,0,1,1.21-.49,1.7,1.7,0,0,1,.62.1Z"/><path class="cls-5" d="M40.9,44.24a.57.57,0,0,1-.39-.16.52.52,0,0,1-.16-.4.5.5,0,0,1,.16-.39.53.53,0,0,1,.39-.16.54.54,0,0,1,.4.16.56.56,0,0,1,0,.78A.54.54,0,0,1,40.9,44.24Zm.42,6.68h-.85V45.59h.85Z"/><path class="cls-5" d="M45.73,50.87a1.63,1.63,0,0,1-.79.16c-.94,0-1.4-.52-1.4-1.56V46.32h-.92v-.73h.92v-1.3l.85-.28v1.58h1.34v.73H44.39v3a1.28,1.28,0,0,0,.18.77.74.74,0,0,0,.61.23.87.87,0,0,0,.55-.18Z"/><path class="cls-5" d="M48.76,48.35v2.57H47.07V43.46h2.64q2.82,0,2.82,2.37a2.28,2.28,0,0,1-.81,1.82,3.17,3.17,0,0,1-2.16.7Zm0-3.6v2.32h.66c.89,0,1.34-.39,1.34-1.17s-.45-1.15-1.34-1.15Z"/><path class="cls-5" d="M58.11,50.92H56.55v-.77h0a1.73,1.73,0,0,1-1.59.9,1.69,1.69,0,0,1-1.22-.44,1.58,1.58,0,0,1-.44-1.17c0-1,.61-1.64,1.84-1.79l1.44-.2c0-.58-.31-.87-.94-.87a3.26,3.26,0,0,0-1.82.57V45.91a4.08,4.08,0,0,1,.94-.32,5,5,0,0,1,1.09-.13,2,2,0,0,1,2.28,2.27Zm-1.55-2.17v-.36l-1,.13q-.81.1-.81.72a.6.6,0,0,0,.2.46.74.74,0,0,0,.53.18.93.93,0,0,0,.75-.32A1.12,1.12,0,0,0,56.56,48.75Z"/><path class="cls-5" d="M64.7,45.59l-2.17,5.76c-.52,1.38-1.3,2.07-2.35,2.07a3,3,0,0,1-1-.13V52a1.45,1.45,0,0,0,.71.19.88.88,0,0,0,.88-.6l.29-.66-2.17-5.32h1.82l1,3.24a4,4,0,0,1,.14.72h0a5.11,5.11,0,0,1,.17-.71l1-3.25Z"/><path class="cls-6" d="M13,57.46V54.34h.89a1,1,0,0,1,.64.2.65.65,0,0,1,.23.51.73.73,0,0,1-.53.74h0a.84.84,0,0,1,.5.24.75.75,0,0,1,.19.52.83.83,0,0,1-.29.65,1.09,1.09,0,0,1-.72.25Zm.37-2.79v1h.37a.68.68,0,0,0,.47-.15.5.5,0,0,0,.17-.4c0-.31-.2-.46-.6-.46Zm0,1.34v1.12h.49a.77.77,0,0,0,.5-.16.51.51,0,0,0,.18-.41c0-.37-.25-.55-.76-.55Z"/><path class="cls-6" d="M17.05,57.46H16.7v-.35h0a.76.76,0,0,1-.69.4.73.73,0,0,1-.52-.18.63.63,0,0,1-.18-.47c0-.41.24-.65.73-.72l.67-.09c0-.38-.16-.57-.46-.57a1.12,1.12,0,0,0-.73.27v-.36a1.38,1.38,0,0,1,.76-.21c.52,0,.78.28.78.83Zm-.35-1.13-.54.08a.8.8,0,0,0-.37.12.34.34,0,0,0-.13.31.34.34,0,0,0,.12.27.5.5,0,0,0,.31.1.54.54,0,0,0,.43-.19.64.64,0,0,0,.18-.47Z"/><path class="cls-6" d="M19.57,57.46h-.36V56.18c0-.47-.17-.7-.51-.7a.57.57,0,0,0-.44.2.77.77,0,0,0-.18.52v1.26h-.36v-3.3h.36V55.6h0a.8.8,0,0,1,.73-.42c.5,0,.75.3.75.91Z"/><path class="cls-6" d="M21.4,55.59a.48.48,0,0,0-.27-.07.44.44,0,0,0-.38.22,1,1,0,0,0-.15.58v1.14h-.36V55.23h.36v.46h0a.68.68,0,0,1,.24-.36.52.52,0,0,1,.35-.14.58.58,0,0,1,.21,0Z"/><path class="cls-6" d="M23.38,57.46H23v-.35h0a.75.75,0,0,1-.68.4.71.71,0,0,1-.52-.18.6.6,0,0,1-.19-.47c0-.41.24-.65.73-.72l.67-.09c0-.38-.15-.57-.46-.57a1.08,1.08,0,0,0-.72.27v-.36a1.37,1.37,0,0,1,.75-.21c.52,0,.79.28.79.83ZM23,56.33l-.54.08a.8.8,0,0,0-.37.12.36.36,0,0,0-.13.31.34.34,0,0,0,.12.27.5.5,0,0,0,.31.1.56.56,0,0,0,.44-.19.68.68,0,0,0,.17-.47Z"/><path class="cls-6" d="M24.23,54.67a.24.24,0,0,1-.23-.23.22.22,0,0,1,.07-.17.21.21,0,0,1,.16-.06.23.23,0,0,1,.16.06.22.22,0,0,1,.07.17.24.24,0,0,1-.23.23Zm.17,2.79h-.35V55.23h.35Z"/><path class="cls-6" d="M27,57.46h-.36V56.19c0-.47-.17-.71-.52-.71a.59.59,0,0,0-.44.2.78.78,0,0,0-.17.51v1.27h-.36V55.23h.36v.37h0a.8.8,0,0,1,.73-.42.68.68,0,0,1,.56.24,1.08,1.08,0,0,1,.19.68Z"/><path class="cls-6" d="M31.41,57.46H31L29.36,55a1.14,1.14,0,0,1-.1-.19h0a3.4,3.4,0,0,1,0,.43v2.25H28.9V54.34h.48l1.56,2.45.12.2h0a4.24,4.24,0,0,1,0-.45v-2.2h.36Z"/><path class="cls-6" d="M33.77,57.46h-.35v-.35h0a.76.76,0,0,1-.68.4.7.7,0,0,1-.52-.18.6.6,0,0,1-.19-.47c0-.41.24-.65.73-.72l.67-.09c0-.38-.16-.57-.46-.57a1.12,1.12,0,0,0-.73.27v-.36a1.4,1.4,0,0,1,.76-.21c.52,0,.78.28.78.83Zm-.35-1.13-.54.08a.8.8,0,0,0-.37.12.34.34,0,0,0-.13.31.34.34,0,0,0,.12.27.5.5,0,0,0,.31.1.54.54,0,0,0,.43-.19.64.64,0,0,0,.18-.47Z"/><path class="cls-6" d="M35.47,57.43a.62.62,0,0,1-.33.07c-.39,0-.58-.21-.58-.65V55.54h-.38v-.31h.38v-.54l.35-.12v.66h.56v.31h-.56v1.25a.54.54,0,0,0,.08.32.32.32,0,0,0,.25.09.35.35,0,0,0,.23-.07Z"/><path class="cls-6" d="M36.13,54.67A.21.21,0,0,1,36,54.6a.22.22,0,0,1-.07-.16.26.26,0,0,1,.07-.17.25.25,0,0,1,.16-.06.25.25,0,0,1,.17.06.22.22,0,0,1,.07.17.2.2,0,0,1-.07.16A.22.22,0,0,1,36.13,54.67Zm.18,2.79H36V55.23h.36Z"/><path class="cls-6" d="M38,57.51a1.07,1.07,0,0,1-.79-.31,1.15,1.15,0,0,1-.29-.83,1.21,1.21,0,0,1,.3-.87,1.11,1.11,0,0,1,.83-.32,1,1,0,0,1,.77.31,1.18,1.18,0,0,1,.28.85,1.21,1.21,0,0,1-.3.85A1.06,1.06,0,0,1,38,57.51Zm0-2a.68.68,0,0,0-.54.23,1,1,0,0,0-.2.65.92.92,0,0,0,.2.62.71.71,0,0,0,.54.23.65.65,0,0,0,.53-.23.91.91,0,0,0,.19-.63.94.94,0,0,0-.19-.64A.65.65,0,0,0,38,55.48Z"/><path class="cls-6" d="M41.48,57.46h-.36V56.19c0-.47-.17-.71-.52-.71a.59.59,0,0,0-.44.2.78.78,0,0,0-.17.51v1.27h-.36V55.23H40v.37h0a.79.79,0,0,1,.73-.42.65.65,0,0,1,.55.24,1,1,0,0,1,.2.68Z"/><path class="cls-6" d="M43.74,57.46h-.36v-.35h0a.75.75,0,0,1-.68.4.73.73,0,0,1-.52-.18.63.63,0,0,1-.19-.47c0-.41.25-.65.74-.72l.66-.09c0-.38-.15-.57-.46-.57a1.11,1.11,0,0,0-.72.27v-.36a1.38,1.38,0,0,1,.76-.21c.52,0,.78.28.78.83Zm-.36-1.13-.53.08a.85.85,0,0,0-.38.12.36.36,0,0,0-.12.31.37.37,0,0,0,.11.27.5.5,0,0,0,.31.1.55.55,0,0,0,.44-.19.63.63,0,0,0,.17-.47Z"/><path class="cls-6" d="M44.77,57.46h-.36v-3.3h.36Z"/><path class="cls-6" d="M48.4,57.46H46.75V54.34h1.58v.33H47.12v1h1.12V56H47.12v1.09H48.4Z"/><path class="cls-6" d="M50.09,56.36H48.91v-.28h1.18Z"/><path class="cls-6" d="M54.47,54.34l-.88,3.12h-.43l-.64-2.28a1.53,1.53,0,0,1-.05-.32h0a1.64,1.64,0,0,1-.05.32l-.65,2.28h-.42l-.91-3.12h.4l.66,2.39a1.06,1.06,0,0,1,0,.31h0a2.05,2.05,0,0,1,.07-.31l.69-2.39h.35l.66,2.41a1.92,1.92,0,0,1,0,.29h0a1,1,0,0,1,.06-.3l.63-2.4Z"/><path class="cls-6" d="M56.47,57.46h-.35v-.35h0a.75.75,0,0,1-.68.4.7.7,0,0,1-.52-.18.6.6,0,0,1-.19-.47c0-.41.24-.65.73-.72l.67-.09c0-.38-.15-.57-.46-.57a1.12,1.12,0,0,0-.73.27v-.36a1.4,1.4,0,0,1,.76-.21c.52,0,.78.28.78.83Zm-.35-1.13-.54.08a.8.8,0,0,0-.37.12.34.34,0,0,0-.13.31.34.34,0,0,0,.12.27.5.5,0,0,0,.31.1A.56.56,0,0,0,56,57a.68.68,0,0,0,.17-.47Z"/><path class="cls-6" d="M57.5,57.46h-.36v-3.3h.36Z"/><path class="cls-6" d="M58.58,57.46h-.36v-3.3h.36Z"/><path class="cls-6" d="M61.09,56.43H59.52a.82.82,0,0,0,.2.58.69.69,0,0,0,.52.2,1.07,1.07,0,0,0,.69-.25v.34a1.28,1.28,0,0,1-.77.21.91.91,0,0,1-.74-.31,1.22,1.22,0,0,1-.27-.85,1.18,1.18,0,0,1,.29-.84,1,1,0,0,1,.73-.33.84.84,0,0,1,.68.28,1.18,1.18,0,0,1,.24.79Zm-.37-.3a.73.73,0,0,0-.15-.48.52.52,0,0,0-.41-.17.56.56,0,0,0-.42.18.83.83,0,0,0-.22.47Z"/><path class="cls-6" d="M62.65,57.43a.62.62,0,0,1-.33.07c-.39,0-.58-.21-.58-.65V55.54h-.38v-.31h.38v-.54l.35-.12v.66h.56v.31h-.56v1.25a.54.54,0,0,0,.08.32.32.32,0,0,0,.25.09.35.35,0,0,0,.23-.07Z"/><path class="cls-7" d="M47,33.1a7.3,7.3,0,0,1-1.3,2.43h0v0a6.14,6.14,0,0,1-.42.47l-.36.35a6.27,6.27,0,0,1-.48.42l0,.05h0A11.11,11.11,0,0,1,39.16,39L39,39h0l-.68.08H28.55a.58.58,0,0,1-.22,0l6.22-3.87h3.7a5.2,5.2,0,0,0,3.59-1.11h0A4,4,0,0,0,43,30.21L46.72,28c.13,0,.2.2.28.36A5.79,5.79,0,0,1,47,33.1Z"/></svg>