<svg id="Layer_1" data-name="Layer 1" xmlns="http://www.w3.org/2000/svg" viewBox="0 0 76.06 76.06"><defs><style>.cls-1{fill:#fff;}.cls-2{fill:#233066;}.cls-2,.cls-3{fill-rule:evenodd;}.cls-3{fill:#00b0d1;}</style></defs><title>Untitled-2</title><circle class="cls-1" cx="37.99" cy="38.03" r="38.03"/><path class="cls-2" d="M27.59,36.44h.26a4.08,4.08,0,0,0,1.81-.27,1,1,0,0,0,.47-.91.85.85,0,0,0-.4-.79,2.49,2.49,0,0,0-1.28-.25H28Zm-3.67,5.49,1.64-9.8H28.4a11.12,11.12,0,0,1,1.77.1,3.29,3.29,0,0,1,1,.3,2.65,2.65,0,0,1,1.19,1,3.1,3.1,0,0,1,.39,1.59,3.54,3.54,0,0,1-.42,1.7,3,3,0,0,1-1.14,1.2,2.94,2.94,0,0,1-1,.36,12.61,12.61,0,0,1-1.81.1H27.24l-.58,3.41Zm11.63-3.14A1.38,1.38,0,0,0,36,39.84a1.52,1.52,0,0,0,1.1.39,1.6,1.6,0,0,0,1.25-.55,2,2,0,0,0,.5-1.38,1.33,1.33,0,0,0-.42-1,1.53,1.53,0,0,0-1.09-.39,1.63,1.63,0,0,0-1.26.54,2,2,0,0,0-.5,1.36ZM38.33,41a3.61,3.61,0,0,1-1.15.86,3.25,3.25,0,0,1-1.36.29,2.55,2.55,0,0,1-2-.88A3.24,3.24,0,0,1,33,39a4.09,4.09,0,0,1,1.07-2.91A3.43,3.43,0,0,1,36.75,35a2.92,2.92,0,0,1,1.33.29,3.17,3.17,0,0,1,1.06.9l.16-1h2.38l-1.13,6.75H38.21Zm5.85.56-2-6.41h2.6l.62,2.91,0,.18a6.25,6.25,0,0,1,.14,1,5.66,5.66,0,0,1,.21-.56c.08-.2.18-.41.29-.65l1.48-2.88h2.71l-5.54,9.74H42.08Z"/><path class="cls-3" d="M53.74,36.49H54a3.64,3.64,0,0,0,1.69-.26,1,1,0,0,0,.44-.91.88.88,0,0,0-.38-.79,2.17,2.17,0,0,0-1.19-.25h-.46ZM50.32,42l1.53-9.8h2.64a11.07,11.07,0,0,1,1.65.09,2.93,2.93,0,0,1,1,.31,2.55,2.55,0,0,1,1.11,1,3.28,3.28,0,0,1,.36,1.59,3.76,3.76,0,0,1-.39,1.7,3,3,0,0,1-1.06,1.2,2.7,2.7,0,0,1-.94.35,9.61,9.61,0,0,1-1.69.11H53.41L52.88,42Zm10.83-3.14a1.43,1.43,0,0,0,.39,1,1.39,1.39,0,0,0,1,.39,1.45,1.45,0,0,0,1.16-.55,2.07,2.07,0,0,0,.46-1.38,1.38,1.38,0,0,0-.39-1,1.36,1.36,0,0,0-1-.39,1.5,1.5,0,0,0-1.18.54,2,2,0,0,0-.46,1.36Zm2.59,2.23a3.48,3.48,0,0,1-1.07.87,2.85,2.85,0,0,1-1.27.29,2.35,2.35,0,0,1-1.87-.88,3.43,3.43,0,0,1-.74-2.28,4.34,4.34,0,0,1,1-2.91A3.13,3.13,0,0,1,62.27,35a2.51,2.51,0,0,1,1.23.29,3,3,0,0,1,1,.9l.15-1h2.22l-1,6.76H63.63Zm5.51-9.46h2.36L70,42H67.62Z"/><path class="cls-3" d="M7.48,43.89l1.88-12.2c0-.35.2-.61.48-.61H13a13.65,13.65,0,0,1,2.22.13,4.19,4.19,0,0,1,1.28.4A3.41,3.41,0,0,1,18,33a4.29,4.29,0,0,1,.49,2.12,4.9,4.9,0,0,1-.53,2.28A3.79,3.79,0,0,1,16.51,39a5.09,5.09,0,0,1-1.25.47,10.9,10.9,0,0,1-2.92.31c-.36.1-.51.39-.57.82l-.51,3.27a.74.74,0,0,1-.55.52H7.85a.38.38,0,0,1-.37-.52Z"/><path class="cls-2" d="M3.8,42.13,5.94,28.08c0-.41.22-.7.54-.7h3.59c1.11,0,1.94.17,2.51.14,6-.39,5.23,6.19,1.48,9a4.94,4.94,0,0,1-1.42.54,12.64,12.64,0,0,1-3.31.36c-.42.1-.59.44-.66.94L8.1,42.12a.86.86,0,0,1-.63.6H4.22a.44.44,0,0,1-.42-.59Z"/></svg>