<svg xmlns="http://www.w3.org/2000/svg" viewBox="0 0 95.27 95.27"><defs><style>.cls-1{fill:#fff;}.cls-2,.cls-4{fill:#02234c;}.cls-3{font-size:11.31px;fill:#b1876c;font-family:29LTBukra-BoldItalic, "29LT Bukra";font-weight:700;font-style:italic;letter-spacing:0.2em;}.cls-4{font-size:4.2px;font-family:29LTBukra-Light, "29LT Bukra";font-weight:300;font-style:normal;letter-spacing:0.42em;}.cls-5{letter-spacing:0.36em;}.cls-6{letter-spacing:0.44em;}</style></defs><title>dd-2</title><g id="Layer_2" data-name="Layer 2"><g id="Layer_1-2" data-name="Layer 1"><circle class="cls-1" cx="47.64" cy="47.64" r="47.64"/><path class="cls-2" d="M66.81,23.75H43.6v2.4H66.81a2.47,2.47,0,0,1,2.47,2.46V42.3h-15a7.55,7.55,0,0,0,1.15-3,6.78,6.78,0,0,0,.1-1.2,6.86,6.86,0,0,0-.1-1.2,7.64,7.64,0,1,0-7.69,8.84h.15a8.94,8.94,0,0,0,1.17-.09l-2.93,4.39-1.61,2.4h2.89l1.61-2.4,3.57-5.35H71.68V28.61A4.87,4.87,0,0,0,66.81,23.75ZM52.13,41.24a4.88,4.88,0,0,1-.92.95,5.18,5.18,0,0,1-3.28,1.16,5.24,5.24,0,1,1,4.2-2.11Z"/><path class="cls-2" d="M31.52,50.06a2.46,2.46,0,0,1-2.46-2.46v-19a2.46,2.46,0,0,1,2.46-2.46h2.57a4.42,4.42,0,1,0,0-2.4H31.52a4.87,4.87,0,0,0-4.86,4.86v19a4.87,4.87,0,0,0,4.86,4.86H43.19l1.6-2.4Zm6.83-27a2,2,0,1,1-2,2A2,2,0,0,1,38.35,23Z"/><path class="cls-2" d="M71.68,45.83V47.6a4.87,4.87,0,0,1-4.87,4.86h-18l1.61-2.4H66.81a2.47,2.47,0,0,0,2.47-2.46V45.83Z"/><text/><text class="cls-3" transform="translate(17.18 66.47)">RAHOM<tspan class="cls-4"><tspan x="0.31" y="6.38">PH</tspan><tspan class="cls-5" x="10.41" y="6.38">OT</tspan><tspan class="cls-6" x="20.35" y="6.38">O</tspan><tspan x="26.18" y="6.38">GRAPHER</tspan></tspan></text></g></g></svg>