<svg xmlns="http://www.w3.org/2000/svg" xmlns:xlink="http://www.w3.org/1999/xlink" viewBox="0 0 95.27 95.27"><defs><style>.cls-1{fill:#fff;}.cls-2{fill:url(#linear-gradient);}.cls-3{fill:url(#linear-gradient-2);}</style><linearGradient id="linear-gradient" x1="13.08" y1="47.64" x2="82.87" y2="47.64" gradientUnits="userSpaceOnUse"><stop offset="0" stop-color="#db8820"/><stop offset="0.25" stop-color="#ce7f23"/><stop offset="0.68" stop-color="#bd7327"/><stop offset="1" stop-color="#b76f28"/></linearGradient><linearGradient id="linear-gradient-2" x1="45.49" y1="19.83" x2="51.33" y2="19.83" xlink:href="#linear-gradient"/></defs><title>dd</title><g id="Layer_2" data-name="Layer 2"><g id="Layer_1-2" data-name="Layer 1"><circle class="cls-1" cx="47.64" cy="47.64" r="47.64"/><path class="cls-2" d="M53.24,80.34,80.88,51.57a7,7,0,0,0-.48-10.21L52.77,14.81a6.9,6.9,0,0,0-10,.11L15.1,43.7A7.31,7.31,0,0,0,15.3,54L42.94,80.54A7.3,7.3,0,0,0,53.24,80.34Z"/><text/><path class="cls-1" d="M40,62.34,45.89,68a.94.94,0,1,0,1.28-1.35l-4.34-4.12c-2-1.86-2.27-4.72-.69-6.39A3.84,3.84,0,0,1,45.21,55a5.38,5.38,0,0,1,3.35,1.5l4.34,4.12a.94.94,0,1,0,1.28-1.35L49.84,55.1c-2-1.86-2.27-4.72-.69-6.39a3.86,3.86,0,0,1,3.07-1.15,5.39,5.39,0,0,1,3.36,1.5l4.34,4.12a1,1,0,0,0,1.42.08,1,1,0,0,0-.14-1.43l-4.34-4.12c-2-1.86-2.28-4.72-.69-6.39a3.84,3.84,0,0,1,3.07-1.15,5.38,5.38,0,0,1,3.35,1.5L71.34,50A5.08,5.08,0,0,1,73,54.31a3.73,3.73,0,0,1-1,2.06L51,78.53a3.6,3.6,0,0,1-.36.33s0,0,0,0l-.31.22a4.77,4.77,0,0,1-5.71-.91L17.33,52.34c-2-1.86-2.27-4.72-.69-6.39a3.86,3.86,0,0,1,3.07-1.15,5.33,5.33,0,0,1,3.36,1.5l5.46,5.18a1,1,0,0,0,1.42.08,1,1,0,0,0-.14-1.43L24.35,45c-2-1.86-2.28-4.72-.69-6.39a3.84,3.84,0,0,1,3.07-1.15,5.38,5.38,0,0,1,3.35,1.5l5.46,5.18a.94.94,0,1,0,1.28-1.35l-5.46-5.18c-2-1.86-2.27-4.72-.69-6.39A3.84,3.84,0,0,1,33.74,30a5.38,5.38,0,0,1,3.35,1.5l5.46,5.18a.94.94,0,1,0,1.28-1.35l-5.46-5.18c-2-1.86-2.27-4.72-.69-6.39s4.47-1.51,6.43.35l9.8,9.3c2,1.86,2.27,4.72.68,6.4L39.29,56C37.71,57.62,38,60.48,40,62.34Z"/><path class="cls-1" d="M51.12,16.74,78.35,42.58c2,1.86,2.27,4.73.69,6.4h0c-1.59,1.66-4.46,1.51-6.43-.35L45.38,22.78c-2-1.86-2.26-4.72-.68-6.39h0C46.29,14.72,49.16,14.87,51.12,16.74Z"/><path class="cls-3" d="M51,18.65a1,1,0,0,1,0,1.4l-2.73,2.76a1,1,0,0,1-.7.29,1,1,0,0,1-.7-.28,1,1,0,0,1,0-1.4l.14-.15L45.78,20a1,1,0,0,1-.29-.7,1,1,0,0,1,.28-.7l1.74-1.76a1,1,0,0,1,.7-.29,1,1,0,0,1,.7.28,1,1,0,0,1,0,1.41l-1,1.05.57.56,1.19-1.21a1,1,0,0,1,.7-.29A1,1,0,0,1,51,18.65Z"/></g></g></svg>