<svg xmlns="http://www.w3.org/2000/svg" viewBox="0 0 34.52 34.43"><defs><style>.cls-1{fill:#fff;}</style></defs><title>Asset 18</title><g id="Layer_2" data-name="Layer 2"><g id="Layer_1-2" data-name="Layer 1"><path class="cls-1" d="M11.57,18.14a10.19,10.19,0,0,1-4.11-6.41A10,10,0,1,1,27.23,10a10,10,0,0,1-9.14,9.86,18,18,0,0,0-6.85,1.41A14.41,14.41,0,0,0,2.69,33.82c0,.18,0,.37,0,.61H0a16.8,16.8,0,0,1,3.16-9.88A17.12,17.12,0,0,1,11.57,18.14Zm5.69-.94A7.32,7.32,0,0,0,24.54,10a7.4,7.4,0,0,0-7.32-7.32A7.28,7.28,0,0,0,10,9.91,7.2,7.2,0,0,0,17.26,17.2Z"/><text/></g></g></svg>