<svg xmlns="http://www.w3.org/2000/svg" xmlns:xlink="http://www.w3.org/1999/xlink" viewBox="0 0 261.7 521.42"><defs><style>.cls-1{isolation:isolate;}.cls-2{fill:url(#linear-gradient);}.cls-3{fill:url(#linear-gradient-2);}.cls-4{fill:url(#linear-gradient-3);}.cls-5{fill:url(#linear-gradient-4);}.cls-6{fill:url(#linear-gradient-5);}.cls-7{fill:#fff;}.cls-8,.cls-9{mix-blend-mode:screen;}.cls-8{fill:url(#linear-gradient-6);}.cls-9{fill:url(#linear-gradient-7);}</style><linearGradient id="linear-gradient" x1="2.87" y1="64.39" x2="2.87" y2="85.73" gradientUnits="userSpaceOnUse"><stop offset="0" stop-color="#231f20"/><stop offset="0.02" stop-color="#272324"/><stop offset="0.31" stop-color="#676769"/><stop offset="0.45" stop-color="#808184"/><stop offset="0.56" stop-color="#747477"/><stop offset="0.76" stop-color="#535153"/><stop offset="1" stop-color="#231f20"/></linearGradient><linearGradient id="linear-gradient-2" x1="2.7" y1="105.23" x2="2.7" y2="144.96" xlink:href="#linear-gradient"/><linearGradient id="linear-gradient-3" x1="259" y1="114.22" x2="259" y2="177.66" gradientTransform="translate(518.01 291.22) rotate(-180)" xlink:href="#linear-gradient"/><linearGradient id="linear-gradient-4" x1="2.87" y1="149.62" x2="2.87" y2="190.2" xlink:href="#linear-gradient"/><linearGradient id="linear-gradient-5" x1="3.05" y1="260.71" x2="258.83" y2="260.71" xlink:href="#linear-gradient"/><linearGradient id="linear-gradient-6" x1="249.5" y1="256.04" x2="255.12" y2="256.04" gradientUnits="userSpaceOnUse"><stop offset="0" stop-opacity="0"/><stop offset="0.2" stop-color="#3d3d3d" stop-opacity="0.24"/><stop offset="0.49" stop-color="#8f8f8f" stop-opacity="0.56"/><stop offset="0.73" stop-color="#ccc" stop-opacity="0.8"/><stop offset="0.91" stop-color="#f1f1f1" stop-opacity="0.94"/><stop offset="1" stop-color="#fff"/></linearGradient><linearGradient id="linear-gradient-7" x1="2753.14" y1="260.71" x2="2758.76" y2="260.71" gradientTransform="matrix(-1, 0, 0, 1, 2765.7, 0)" xlink:href="#linear-gradient-6"/></defs><title>صور وايقونات</title><g class="cls-1"><g id="Layer_1" data-name="Layer 1"><path class="cls-2" d="M2.15,64.52H5.57a0,0,0,0,1,0,0V85.77a0,0,0,0,1,0,0H2.15a2,2,0,0,1-2-2V66.49A2,2,0,0,1,2.15,64.52Z"/><path class="cls-3" d="M2,105H5.4a0,0,0,0,1,0,0V145a0,0,0,0,1,0,0H2a2,2,0,0,1-2-2V107A2,2,0,0,1,2,105Z"/><path class="cls-4" d="M258.28,113.89h3.42a0,0,0,0,1,0,0v63.44a0,0,0,0,1,0,0h-3.42a2,2,0,0,1-2-2V115.86A2,2,0,0,1,258.28,113.89Z" transform="translate(518.01 291.22) rotate(180)"/><path class="cls-5" d="M2.15,149.62H5.57a0,0,0,0,1,0,0v40.06a0,0,0,0,1,0,0H2.15a2,2,0,0,1-2-2V151.59A2,2,0,0,1,2.15,149.62Z"/><rect class="cls-6" x="3.05" width="255.78" height="521.42" rx="28.22" ry="28.22"/><rect x="-124.86" y="137.73" width="511.61" height="245.97" rx="24.28" ry="24.28" transform="translate(391.65 129.77) rotate(90)"/><path class="cls-7" d="M-99.62,142.63H361.5A20.33,20.33,0,0,1,381.84,163V358.45a20.34,20.34,0,0,1-20.34,20.34H-99.62A20.33,20.33,0,0,1-120,358.45V163A20.33,20.33,0,0,1-99.62,142.63Z" transform="translate(391.65 129.77) rotate(90)"/><path class="cls-8" d="M250.48,484.09V28A30.16,30.16,0,0,0,239,4.32,30.23,30.23,0,0,1,254.1,30.44v451.2A30.22,30.22,0,0,1,239,507.76,30.13,30.13,0,0,0,250.48,484.09Z"/><path class="cls-9" d="M11.57,488.76V32.66A30.14,30.14,0,0,1,23,9,30.21,30.21,0,0,0,8,35.11v451.2A30.21,30.21,0,0,0,23,512.43,30.16,30.16,0,0,1,11.57,488.76Z"/></g></g></svg>