<svg xmlns="http://www.w3.org/2000/svg" viewBox="0 0 36.99 34.81"><defs><style>.cls-1{fill:#fff;}</style></defs><title>social-8</title><g id="Layer_2" data-name="Layer 2"><g id="Layer_1-2" data-name="Layer 1"><path class="cls-1" d="M0,27.12v-.58A1.54,1.54,0,0,1,.87,26c3-.6,5.07-2.54,6.6-5.08,1.28-2.13,1.08-2.62-1.3-3.46l-.4-.14a5,5,0,0,1-1.45-.81c-1.06-.92-.43-2.25.82-2.55.92-.22,1.71.37,2.6.48.6.07.83-.13.76-.76a30.85,30.85,0,0,1-.11-4.9,8.31,8.31,0,0,1,4.28-7,10.78,10.78,0,0,1,11.58,0A8.23,8.23,0,0,1,28.51,8a28.59,28.59,0,0,1,0,5.55c-.07.8.1.95.89.77,1-.23,1.82-.74,2.84-.29a1.55,1.55,0,0,1,1,1.36,1.49,1.49,0,0,1-.56,1.05,6,6,0,0,1-1.66.88c-.45.18-.91.32-1.34.52-.9.42-1.16,1-.74,1.86,1.45,3.07,3.59,5.4,7,6.21a1.66,1.66,0,0,1,1,.61v.58a2.67,2.67,0,0,1-1.58,1.29,7.2,7.2,0,0,1-2.07.59,1.58,1.58,0,0,0-1.68,1.54c-.15,1-.45,1.13-1.46,1.05-.23,0-.47-.06-.71-.1A6.44,6.44,0,0,0,24,32.65c-.32.25-.67.47-1,.69a7.56,7.56,0,0,1-8.5.32c-.79-.46-1.54-1-2.3-1.49a5,5,0,0,0-2.08-.76,13,13,0,0,0-3.52.21c-.6.07-1.17-.1-1.21-.72-.08-1.5-1-1.86-2.25-2a6.25,6.25,0,0,1-1.72-.54A2.51,2.51,0,0,1,0,27.12Z"/></g></g></svg>