<svg xmlns="http://www.w3.org/2000/svg" viewBox="0 0 32.85 27.06"><defs><style>.cls-1,.cls-2{fill:#fff;}.cls-2{fill-rule:evenodd;}</style></defs><title>social-6</title><g id="Layer_2" data-name="Layer 2"><g id="Layer_1-2" data-name="Layer 1"><path class="cls-1" d="M32.73,3.24a13.39,13.39,0,0,1-3.32,1c.53-.09,1.32-1.06,1.64-1.45a6.08,6.08,0,0,0,1.1-2c0-.06.05-.13,0-.17a.17.17,0,0,0-.17,0A17,17,0,0,1,28,2.08.28.28,0,0,1,27.75,2a2.83,2.83,0,0,0-.34-.35A6.73,6.73,0,0,0,25.5.49,6.66,6.66,0,0,0,22.57,0a7.13,7.13,0,0,0-5,2.62,6.91,6.91,0,0,0-1.34,2.68,7.29,7.29,0,0,0-.07,2.83c0,.16,0,.18-.13.16-5.42-.81-9.9-2.74-13.55-6.9-.15-.18-.24-.18-.37,0C.5,3.81,1.27,7.65,3.26,9.53c.27.26.54.51.83.74a7.07,7.07,0,0,1-2.61-.74c-.16-.1-.24,0-.25.14a4.16,4.16,0,0,0,0,.78A6.93,6.93,0,0,0,5.55,16a3.81,3.81,0,0,0,.87.27,7.77,7.77,0,0,1-2.56.08c-.19,0-.26.06-.19.23,1.13,3.08,3.56,4,5.39,4.51.24.05.48.05.73.1l0,0c-.61.92-2.71,1.61-3.68,2a13.12,13.12,0,0,1-5.59.71c-.3,0-.36,0-.44,0s0,.12.08.2q.57.38,1.17.69A18.53,18.53,0,0,0,5,26.27c6.71,1.85,14.27.49,19.31-4.52,4-3.93,5.34-9.35,5.34-14.78,0-.21.25-.33.4-.44A13.3,13.3,0,0,0,32.69,3.8a.82.82,0,0,0,.16-.53v0C32.85,3.16,32.86,3.18,32.73,3.24Z"/><path class="cls-2" d="M9.76,26.94Z"/><path class="cls-2" d="M9.76,26.94Z"/><path class="cls-2" d="M10.86,27c0-.06.58,0,0,0C10.86,26.94,10.93,27,10.86,27Z"/><path class="cls-2" d="M22.48,0a.12.12,0,0,1-.14,0Z"/></g></g></svg>