<svg xmlns="http://www.w3.org/2000/svg" viewBox="0 0 29.72 28.39"><defs><style>.cls-1{fill:#fff;}</style></defs><title>social-2</title><g id="Layer_2" data-name="Layer 2"><g id="Layer_1-2" data-name="Layer 1"><path class="cls-1" d="M29.72,17.41V27.92a.47.47,0,0,1-.47.47H23.83a.47.47,0,0,1-.47-.47V18.15c0-2.58-.92-4.33-3.23-4.33a3.48,3.48,0,0,0-3.26,2.33,4.25,4.25,0,0,0-.21,1.55V27.92a.48.48,0,0,1-.47.47H10.77a.47.47,0,0,1-.47-.47c0-2.61.06-15.23,0-18.2a.46.46,0,0,1,.47-.47h5.41a.47.47,0,0,1,.47.47V12l0,.06h0V12A6.32,6.32,0,0,1,22.4,8.8c4.18,0,7.32,2.73,7.32,8.61ZM.89,28.39H6.31a.47.47,0,0,0,.47-.47V9.72a.47.47,0,0,0-.47-.47H.89a.47.47,0,0,0-.47.47v18.2A.47.47,0,0,0,.89,28.39Z"/><path class="cls-1" d="M6.81,3.41A3.41,3.41,0,1,1,3.41,0,3.4,3.4,0,0,1,6.81,3.41Z"/></g></g></svg>