<svg xmlns="http://www.w3.org/2000/svg" viewBox="0 0 25.72 31.93"><defs><style>.cls-1{fill:#fff;}</style></defs><title>social-1</title><g id="Layer_2" data-name="Layer 2"><g id="Layer_1-2" data-name="Layer 1"><path class="cls-1" d="M15,24c-2-.16-2.86-1.15-4.44-2.11-.7,3.69-1.53,7.25-3.49,9.69A1,1,0,0,1,5.31,31C5,25.12,7,20.45,8,15.53c-1.9-3.19.23-9.61,4.22-8C17.18,9.45,8,19.36,14.16,20.6c6.44,1.29,9.06-11.16,5.07-15.21C13.47-.46,2.46,5.26,3.81,13.63,4.07,15.22,5.4,16,5.24,17.52a1.41,1.41,0,0,1-2,1.13C.68,17.45-.11,14.84,0,11.52.24,5.17,5.72.73,11.21.11c6.94-.78,13.46,2.55,14.36,9.08C26.58,16.57,22.43,24.55,15,24Z"/></g></g></svg>