<svg xmlns="http://www.w3.org/2000/svg" viewBox="0 0 15.7 33.79"><defs><style>.cls-1{fill:#fff;fill-rule:evenodd;}</style></defs><title>social-7</title><g id="Layer_2" data-name="Layer 2"><g id="Layer_1-2" data-name="Layer 1"><path class="cls-1" d="M3.46,17V33.36a.42.42,0,0,0,.42.43H10a.43.43,0,0,0,.43-.43V16.76h4.39a.43.43,0,0,0,.43-.39l.42-5a.43.43,0,0,0-.42-.46H10.38V7.36a1.51,1.51,0,0,1,1.5-1.51h3.39a.42.42,0,0,0,.43-.42v-5A.43.43,0,0,0,15.27,0H9.54A6.08,6.08,0,0,0,3.46,6.09v4.82h-3a.42.42,0,0,0-.43.42v5a.43.43,0,0,0,.43.43h3Z"/></g></g></svg>