<svg id="Layer_1" data-name="Layer 1" xmlns="http://www.w3.org/2000/svg" viewBox="0 0 254.75 60"><defs><style>.cls-1{fill:#fff;}</style></defs><title>الشعارات الاساسية</title><path class="cls-1" d="M12.12,18.16a3.26,3.26,0,0,0-.73.08,1.43,1.43,0,0,0-.56.29,1.38,1.38,0,0,0-.39.59,2,2,0,0,0-.16.79v7.46H5.19c-.6,0-1.11,0-1.55-.06a7.59,7.59,0,0,1-1.22-.19,6.93,6.93,0,0,1-1.06-.35C1,26.62.6,26.41.09,26.13l1.13-2.47a6.71,6.71,0,0,0,1.72.74,6,6,0,0,0,1.49.18H7.49V20.06a6,6,0,0,1,.36-2.18A3.62,3.62,0,0,1,9,16.31a4,4,0,0,1,1.48-.72,7.38,7.38,0,0,1,1.87-.22h3.4v7.11h1.79v2.79H13V18.16Zm-8.4,1.6a1.32,1.32,0,0,1-.48-1.1A1.34,1.34,0,0,1,3.7,17.6a1.67,1.67,0,0,1,1.14-.4A1.66,1.66,0,0,1,6,17.6a1.34,1.34,0,0,1,.46,1.06A1.32,1.32,0,0,1,6,19.76a1.74,1.74,0,0,1-1.11.38A1.75,1.75,0,0,1,3.72,19.76Zm0,3.57a1.32,1.32,0,0,1-.48-1.1,1.33,1.33,0,0,1,.46-1.06,1.68,1.68,0,0,1,1.14-.41A1.67,1.67,0,0,1,6,21.17a1.33,1.33,0,0,1,.46,1.06A1.32,1.32,0,0,1,6,23.33a1.83,1.83,0,0,1-2.23,0Z"/><path class="cls-1" d="M18.89,22.48V15.37h2.8v9.9H16.81V22.48ZM19.13,14a1.31,1.31,0,0,1-.49-1.1,1.34,1.34,0,0,1,.47-1.06,1.64,1.64,0,0,1,1.13-.41,1.68,1.68,0,0,1,1.14.41,1.36,1.36,0,0,1,.46,1.06,1.34,1.34,0,0,1-.49,1.1,1.79,1.79,0,0,1-1.11.37A1.77,1.77,0,0,1,19.13,14Z"/><path class="cls-1" d="M31.81,26.24a3.61,3.61,0,0,1-.75,1.44,3.35,3.35,0,0,1-1.41.95,6,6,0,0,1-2.16.34,6.46,6.46,0,0,1-.65,0,5.41,5.41,0,0,1-.58-.07l-.59-.12-.84-.23-.2-2.85a12.23,12.23,0,0,0,1.55.41,6.27,6.27,0,0,0,1.14.1c.31,0,.59,0,.81,0A1.61,1.61,0,0,0,28.7,26a.86.86,0,0,0,.34-.34,1,1,0,0,0,.15-.37h0A9.13,9.13,0,0,1,26.84,25a5.34,5.34,0,0,1-1.9-.87,4.26,4.26,0,0,1-1.29-1.55,5.06,5.06,0,0,1-.47-2.26,4.54,4.54,0,0,1,.46-2.08,4.49,4.49,0,0,1,1.25-1.55,5.65,5.65,0,0,1,1.89-1,8.27,8.27,0,0,1,2.39-.33H32v9A7.06,7.06,0,0,1,31.81,26.24Zm-5.64-5a1.83,1.83,0,0,0,.52.67,2.38,2.38,0,0,0,.79.42,3.55,3.55,0,0,0,1,.14h.77V18.16h-.77a2.79,2.79,0,0,0-.95.16,2.44,2.44,0,0,0-.81.44A2,2,0,0,0,26,20.31,2.13,2.13,0,0,0,26.17,21.25Z"/><path class="cls-1" d="M34,28.93a3.89,3.89,0,0,1-.7-.16L33.11,26l.84.19a4.19,4.19,0,0,0,.5,0,1,1,0,0,0,.82-.31,2,2,0,0,0,.22-1.12V15.37h2.79v7.11H40.1v2.79H38.25A4.37,4.37,0,0,1,37.32,28,3.35,3.35,0,0,1,34.7,29,5.32,5.32,0,0,1,34,28.93Z"/><path class="cls-1" d="M42.84,22.48V15.37h2.79v7.11h3.1v2.79h-9.4V22.48ZM41.23,14A1.26,1.26,0,0,1,40.77,13a1.29,1.29,0,0,1,.45-1,1.7,1.7,0,0,1,2.17,0,1.28,1.28,0,0,1,.44,1A1.28,1.28,0,0,1,43.38,14a1.75,1.75,0,0,1-2.15,0Zm3.65,0A1.26,1.26,0,0,1,44.42,13a1.29,1.29,0,0,1,.45-1,1.7,1.7,0,0,1,2.17,0,1.28,1.28,0,0,1,.44,1A1.28,1.28,0,0,1,47,14a1.65,1.65,0,0,1-1.08.37A1.62,1.62,0,0,1,44.88,14Z"/><path class="cls-1" d="M58.43,22.48V20.9a2.88,2.88,0,0,0-.1-.82,1.73,1.73,0,0,0-.3-.59,1.41,1.41,0,0,0-.53-.42,1.77,1.77,0,0,0-.73-.16H49.63A4.91,4.91,0,0,1,49,17.77a4.36,4.36,0,0,1-.28-1.46l2.81-5.11h3l-2.6,4.94h4.59a6.32,6.32,0,0,1,2.08.31,4,4,0,0,1,1.57,1A3.36,3.36,0,0,1,61,19a8.3,8.3,0,0,1,.23,2v1.48H63v2.79H48V22.48Z"/><path class="cls-1" d="M63.91,22.48V11.2H67.8V14H66.71V25.27H62.27V22.48Z"/><path class="cls-1" d="M74,22.48a3.44,3.44,0,0,0,1-.13,2.23,2.23,0,0,0,.77-.39,1.71,1.71,0,0,0,.46-.63,2.37,2.37,0,0,0,.17-.95V10h3.88v2.79H79.15v7.55a6.61,6.61,0,0,1-.33,2.08,3.88,3.88,0,0,1-1,1.64A4.55,4.55,0,0,1,76,25a9.79,9.79,0,0,1-2.48.28H69.26l-.33-2.79Zm-3,6.41a2.19,2.19,0,0,1-.63-1.77v-1h3.94v1.7H72.15a.43.43,0,0,0,.15.25.73.73,0,0,0,.54.15h.93v1.19H72.71A2.54,2.54,0,0,1,71,28.89Zm3.14-16.11v9.3H71.35v-9.3Z"/><path class="cls-1" d="M85.56,11.2V25.27H82.77V11.2Z"/><path class="cls-1" d="M96.56,27.3A5.9,5.9,0,0,1,95.39,27a4.43,4.43,0,0,1-1-.45,5.32,5.32,0,0,1-.86-.66,3.42,3.42,0,0,1-.93-1.6,8,8,0,0,1-.26-2V16.58h2.79V22a4.2,4.2,0,0,0,.15,1.21,1.55,1.55,0,0,0,.47.77,2.29,2.29,0,0,0,1,.47,7.06,7.06,0,0,0,1.35.12h1.13V11.2h3.9V14h-1.11V27.37H98A12.08,12.08,0,0,1,96.56,27.3Z"/><path class="cls-1" d="M114.73,22.48v2.79h-1.61a5.2,5.2,0,0,1-.32,1.37,3.34,3.34,0,0,1-.81,1.24,3.55,3.55,0,0,1-1.37.8,6.15,6.15,0,0,1-2,.29,6.46,6.46,0,0,1-.65,0,5.73,5.73,0,0,1-.58-.07l-.59-.12-.84-.23-.2-2.85a12.69,12.69,0,0,0,1.55.41,6.27,6.27,0,0,0,1.14.1c.31,0,.59,0,.82,0a1.62,1.62,0,0,0,.56-.16.86.86,0,0,0,.34-.34,1,1,0,0,0,.15-.37h0A9.18,9.18,0,0,1,108,25a5.42,5.42,0,0,1-1.9-.87,4.26,4.26,0,0,1-1.29-1.55,5.06,5.06,0,0,1-.47-2.26,4.54,4.54,0,0,1,.46-2.08A4.49,4.49,0,0,1,106,16.68a5.65,5.65,0,0,1,1.89-1,8.27,8.27,0,0,1,2.39-.33h2.88l0,7.11Zm-7.42-1.23a1.83,1.83,0,0,0,.52.67,2.38,2.38,0,0,0,.79.42,3.55,3.55,0,0,0,1,.14h.77V18.16h-.77a2.79,2.79,0,0,0-1,.16,2.44,2.44,0,0,0-.81.44,1.86,1.86,0,0,0-.54.67,1.84,1.84,0,0,0-.2.88A2.13,2.13,0,0,0,107.31,21.25Z"/><path class="cls-1" d="M117.73,22.48v2.79H114V22.48Z"/><path class="cls-1" d="M120.7,22.48v2.79H117V22.48Z"/><path class="cls-1" d="M123.68,22.48v2.79h-3.75V22.48Z"/><path class="cls-1" d="M124.47,22.48l0-.28a5.55,5.55,0,0,1,.38-2.67,5.65,5.65,0,0,1,1.12-1.7,5.13,5.13,0,0,1,3.72-1.57,5.27,5.27,0,0,1,2.07.41,5.19,5.19,0,0,1,1.7,1.14,5,5,0,0,1,1.14,1.69,5.31,5.31,0,0,1,.42,2.12,5.06,5.06,0,0,1-1.6,3.74,5.35,5.35,0,0,1-1.7,1.1,5.19,5.19,0,0,1-2,.41,5,5,0,0,1-2.12-.45,5.19,5.19,0,0,1-1.65-1.15h-3V22.48Zm6.19,1.41a2.3,2.3,0,0,0,.81-.52,2.41,2.41,0,0,0,.54-.79,2.47,2.47,0,0,0,.2-1,2.79,2.79,0,0,0-.19-1,2.45,2.45,0,0,0-.52-.81,2.53,2.53,0,0,0-.81-.53,2.61,2.61,0,0,0-1-.19,2.47,2.47,0,0,0-1,.2,2.67,2.67,0,0,0-.77.54,2.24,2.24,0,0,0-.51.81,2.53,2.53,0,0,0-.19,1,2.48,2.48,0,0,0,.19,1,2.24,2.24,0,0,0,.51.79,2.48,2.48,0,0,0,.78.52,2.45,2.45,0,0,0,1,.2A2.6,2.6,0,0,0,130.66,23.89Z"/><path class="cls-1" d="M144.08,27.31a7.26,7.26,0,0,1-1.22-.19,7.06,7.06,0,0,1-1.07-.35c-.33-.15-.75-.36-1.26-.64l1.13-2.47a6.81,6.81,0,0,0,1.71.74,6,6,0,0,0,1.5.18h3.06V20.06a6,6,0,0,1,.36-2.18,3.62,3.62,0,0,1,1.17-1.57,3.93,3.93,0,0,1,1.48-.72,7.3,7.3,0,0,1,1.86-.22h3.4v9.9h-2.79V18.16h-.86a3.11,3.11,0,0,0-.72.08,1.43,1.43,0,0,0-.56.29,1.31,1.31,0,0,0-.4.59,2.13,2.13,0,0,0-.15.79v7.46h-5.09C145,27.37,144.52,27.35,144.08,27.31Zm.08-7.55a1.32,1.32,0,0,1-.49-1.1,1.35,1.35,0,0,1,.47-1.06,1.65,1.65,0,0,1,1.13-.4,1.67,1.67,0,0,1,1.14.4,1.38,1.38,0,0,1,.46,1.06,1.3,1.3,0,0,1-.49,1.1,1.7,1.7,0,0,1-1.11.38A1.74,1.74,0,0,1,144.16,19.76Zm0,3.57a1.32,1.32,0,0,1-.49-1.1,1.34,1.34,0,0,1,.47-1.06,1.65,1.65,0,0,1,1.13-.41,1.68,1.68,0,0,1,1.14.41,1.36,1.36,0,0,1,.46,1.06,1.3,1.3,0,0,1-.49,1.1,1.76,1.76,0,0,1-1.11.38A1.8,1.8,0,0,1,144.16,23.33Z"/><path class="cls-1" d="M158.17,28.93a4.19,4.19,0,0,1-.71-.16l-.2-2.81.85.19a4.19,4.19,0,0,0,.5,0,1,1,0,0,0,.81-.31,2,2,0,0,0,.23-1.12V15.37h2.79v9a9.18,9.18,0,0,1-.19,2,3.68,3.68,0,0,1-.63,1.43,2.57,2.57,0,0,1-1.13.84,4.45,4.45,0,0,1-1.63.27A5.22,5.22,0,0,1,158.17,28.93Z"/><path class="cls-1" d="M169,22.48a3.44,3.44,0,0,0,1-.13,2.23,2.23,0,0,0,.77-.39,1.71,1.71,0,0,0,.46-.63,2.37,2.37,0,0,0,.17-.95V10h3.88v2.79h-1.09v7.55a6.2,6.2,0,0,1-.17,1.48,3.18,3.18,0,0,0,2.41.71v2.79a5.79,5.79,0,0,1-1.58-.16,3.7,3.7,0,0,1-1-.41,2.43,2.43,0,0,1-.62-.56,2.83,2.83,0,0,0-.24-.3s0,.05-.17.17a4.49,4.49,0,0,1-1.86,1,9.79,9.79,0,0,1-2.48.28h-4.22l-.33-2.79Zm.17-9.7v9.3h-2.79v-9.3Z"/><path class="cls-1" d="M177.63,22.48a3.38,3.38,0,0,1-.36-.79,4,4,0,0,1-.23-1.38,4.81,4.81,0,0,1,.43-2.08,4.39,4.39,0,0,1,1.21-1.56,5.33,5.33,0,0,1,1.86-1,8.34,8.34,0,0,1,2.37-.32h3v9.9H175.59V22.48Zm1.7-8.48a1.26,1.26,0,0,1-.46-1.05,1.29,1.29,0,0,1,.45-1,1.7,1.7,0,0,1,2.17,0,1.28,1.28,0,0,1,.44,1,1.28,1.28,0,0,1-.45,1.05,1.75,1.75,0,0,1-2.15,0Zm.82,7.59a2.58,2.58,0,0,0,.81.89h2.15V18.16h-.77a3.34,3.34,0,0,0-.94.14,2.63,2.63,0,0,0-.8.41,2.07,2.07,0,0,0-.56.68,1.92,1.92,0,0,0-.21.92A2.56,2.56,0,0,0,180.15,21.59ZM183,14a1.28,1.28,0,0,1-.45-1.05,1.29,1.29,0,0,1,.45-1,1.7,1.7,0,0,1,2.17,0,1.28,1.28,0,0,1,.44,1,1.28,1.28,0,0,1-.45,1.05,1.65,1.65,0,0,1-1.08.37A1.67,1.67,0,0,1,183,14Z"/><path class="cls-1" d="M4.27,44.2A6.49,6.49,0,0,1,2,42.67,6.76,6.76,0,0,1,.51,40.36,7.91,7.91,0,0,1,0,37.49a8,8,0,0,1,.51-2.88A7,7,0,0,1,2,32.3a6.49,6.49,0,0,1,2.29-1.53,7.84,7.84,0,0,1,3-.55,11.85,11.85,0,0,1,2.85.33,8.58,8.58,0,0,1,2.4,1l-1.09,2.54a7.47,7.47,0,0,0-1.91-.84A8.11,8.11,0,0,0,7.38,33a5.19,5.19,0,0,0-1.68.27,3.73,3.73,0,0,0-1.39.84,4.12,4.12,0,0,0-.95,1.41,5.28,5.28,0,0,0-.35,2,5.35,5.35,0,0,0,.35,2,4.37,4.37,0,0,0,.95,1.42,3.73,3.73,0,0,0,1.39.84A5.19,5.19,0,0,0,7.38,42a6.76,6.76,0,0,0,1.41-.15A5.06,5.06,0,0,0,10,41.52v-2.1H6.91V36.7h5.9v6.71a6.49,6.49,0,0,1-1.27.62,10,10,0,0,1-1.38.39,14.09,14.09,0,0,1-1.47.25,14,14,0,0,1-1.41.08A7.84,7.84,0,0,1,4.27,44.2Z"/><path class="cls-1" d="M15.42,30.48h2.79V44.55H15.42Z"/><path class="cls-1" d="M22.93,44.57a4.62,4.62,0,0,1-1.5-.56,3.13,3.13,0,0,1-1.05-1,2.93,2.93,0,0,1-.4-1.59,3.19,3.19,0,0,1,.35-1.5,3,3,0,0,1,1-1.08,4.32,4.32,0,0,1,1.46-.64A7.54,7.54,0,0,1,24.6,38l.86,0a7.37,7.37,0,0,1,.88.1,1.05,1.05,0,0,0-.63-.82A3.5,3.5,0,0,0,24.27,37a5.54,5.54,0,0,0-.78.06l-.85.18a7,7,0,0,0-.85.26,11.39,11.39,0,0,0-1.12.49L21,35.08a8.2,8.2,0,0,1,1.61-.55,8.06,8.06,0,0,1,1.94-.22,7,7,0,0,1,1.75.21,4,4,0,0,1,1.41.68,3.19,3.19,0,0,1,.94,1.24A4.61,4.61,0,0,1,29,38.28v5.66a11.27,11.27,0,0,1-2.16.62,12.6,12.6,0,0,1-2.18.19A8.47,8.47,0,0,1,22.93,44.57Zm2.72-4.27a5.67,5.67,0,0,0-.79-.06,5,5,0,0,0-.81.06,2.56,2.56,0,0,0-.64.18,1,1,0,0,0-.4.3.78.78,0,0,0-.14.46.76.76,0,0,0,.51.73,3.41,3.41,0,0,0,1.34.22,6.33,6.33,0,0,0,.86-.06,4.54,4.54,0,0,0,.65-.14V40.4A4.85,4.85,0,0,0,25.65,40.3Z"/><path class="cls-1" d="M35.5,37.18h-.39l-.53,0c-.18,0-.44,0-.77.09s-.29,0,.11-.14v7.37H31.13V34.93c.41-.08.79-.14,1.13-.19l1-.13,1-.08c.32,0,.6,0,.84,0h2v2.69Z"/><path class="cls-1" d="M39.49,45.31l.86.22.87.15a7.24,7.24,0,0,0,.75,0,4.58,4.58,0,0,0,1-.09,2,2,0,0,0,.71-.26,1.31,1.31,0,0,0,.45-.42l.15-.24.1-.31a8.31,8.31,0,0,1-1.77.17,8.5,8.5,0,0,1-1.72-.17,3.5,3.5,0,0,1-1.39-.65,3.17,3.17,0,0,1-.91-1.27,5.5,5.5,0,0,1-.32-2V34.63H41v5.18a4.57,4.57,0,0,0,.1,1,1.63,1.63,0,0,0,.29.62,1,1,0,0,0,.5.31,2.73,2.73,0,0,0,.76.09,7.11,7.11,0,0,0,.78-.05,4.38,4.38,0,0,0,.77-.15v-7H47v9a8.15,8.15,0,0,1-.25,2.19,3,3,0,0,1-.88,1.47,3.53,3.53,0,0,1-1.6.82,10.19,10.19,0,0,1-2.41.24l-.67,0c-.24,0-.49,0-.73-.09l-.73-.14c-.24,0-.5-.12-.79-.21l-.62-3A10.67,10.67,0,0,0,39.49,45.31Z"/><path class="cls-1" d="M63.82,30.48v2.69H57.53V36h5.7V38.7h-5.7v3.16h6.32v2.69H54.67V30.48Z"/><path class="cls-1" d="M65.87,30.48h2.79V44.55H65.87Z"/><path class="cls-1" d="M76.63,41.94c.26,0,.51-.1.75-.16a3.94,3.94,0,0,0,.66-.25,3.05,3.05,0,0,0,.68-.51L80,43.57a10.15,10.15,0,0,1-2,.86,8.25,8.25,0,0,1-2.44.32,5.83,5.83,0,0,1-2.15-.39,5.33,5.33,0,0,1-1.73-1.1,4.9,4.9,0,0,1-1.13-1.65,5.27,5.27,0,0,1-.41-2.07,5.16,5.16,0,0,1,1.54-3.76,5.06,5.06,0,0,1,1.67-1.08,5.62,5.62,0,0,1,4.14,0,4.54,4.54,0,0,1,1.65,1.19,5.22,5.22,0,0,1,1,1.9,8,8,0,0,1,.31,2.73H73.07a1.65,1.65,0,0,0,.82,1,3.21,3.21,0,0,0,1.74.43h.25A4.11,4.11,0,0,0,76.63,41.94Zm-2.76-4.66a1.9,1.9,0,0,0-.72.86h4.39a1.54,1.54,0,0,0-.7-.91,2.58,2.58,0,0,0-1.48-.4A2.4,2.4,0,0,0,73.87,37.28Z"/><path class="cls-1" d="M81.74,37.46a4.9,4.9,0,0,1,1.11-1.65,5,5,0,0,1,1.68-1.11,5.58,5.58,0,0,1,2.11-.39,7.28,7.28,0,0,1,1.82.21,8.83,8.83,0,0,1,1.75.68l-1.13,2.52a5.83,5.83,0,0,0-1.19-.52,4.16,4.16,0,0,0-1.15-.15,2.82,2.82,0,0,0-1,.18,2,2,0,0,0-.78.5,2.27,2.27,0,0,0-.5.78,2.82,2.82,0,0,0-.18,1,2.73,2.73,0,0,0,.18,1,2.18,2.18,0,0,0,.5.78,2.08,2.08,0,0,0,.78.49,2.82,2.82,0,0,0,1,.18,4.59,4.59,0,0,0,1.15-.14,4.73,4.73,0,0,0,1.19-.55l1.13,2.56a8.76,8.76,0,0,1-1.75.67,7.8,7.8,0,0,1-1.82.2,5.58,5.58,0,0,1-2.11-.39,5.1,5.1,0,0,1-1.68-1.1,4.71,4.71,0,0,1-1.11-1.65,5.2,5.2,0,0,1-.4-2.07A5.28,5.28,0,0,1,81.74,37.46Z"/><path class="cls-1" d="M92.29,34.65V31.18h2.79v3.47h3.6v2.62h-3.6v3.21a2.84,2.84,0,0,0,.08.73.92.92,0,0,0,.22.42,1,1,0,0,0,.44.22,2.86,2.86,0,0,0,.72.08h2.21v2.62H96.29a8.22,8.22,0,0,1-1.75-.16,3.16,3.16,0,0,1-1.26-.55,2.06,2.06,0,0,1-.75-1,4.2,4.2,0,0,1-.24-1.51v-4H90.51V34.65Z"/><path class="cls-1" d="M104.8,37.18h-.38l-.54,0c-.18,0-.44,0-.77.09s-.29,0,.11-.14v7.37h-2.79V34.93l1.13-.19,1-.13,1-.08c.32,0,.6,0,.85,0h2v2.69Z"/><path class="cls-1" d="M110.23,44.35a5.43,5.43,0,0,1-1.69-1.1,4.88,4.88,0,0,1-1.14-1.64,5.27,5.27,0,0,1-.41-2.07,5.1,5.1,0,0,1,.41-2,5.29,5.29,0,0,1,1.14-1.66,5.14,5.14,0,0,1,1.69-1.12,5.36,5.36,0,0,1,2.11-.4,5.43,5.43,0,0,1,2.11.4,5.36,5.36,0,0,1,1.69,1.12,5.26,5.26,0,0,1,1.13,1.66,4.94,4.94,0,0,1,.41,2,5.1,5.1,0,0,1-.41,2.07,4.86,4.86,0,0,1-1.13,1.64,5.67,5.67,0,0,1-1.69,1.1,5.43,5.43,0,0,1-2.11.4A5.36,5.36,0,0,1,110.23,44.35Zm3.12-2.53a2.49,2.49,0,0,0,.77-.52,2.35,2.35,0,0,0,.49-.79,2.78,2.78,0,0,0,.17-1,2.88,2.88,0,0,0-.17-1,2.4,2.4,0,0,0-.49-.78,2.51,2.51,0,0,0-.77-.53,2.46,2.46,0,0,0-1-.2,2.54,2.54,0,0,0-1,.2,2.64,2.64,0,0,0-.77.53,2.22,2.22,0,0,0-.48.78,2.88,2.88,0,0,0-.17,1,2.78,2.78,0,0,0,.17,1,2.18,2.18,0,0,0,.48.79,2.61,2.61,0,0,0,.77.52,2.54,2.54,0,0,0,1,.19A2.46,2.46,0,0,0,113.35,41.82Z"/><path class="cls-1" d="M120.49,34.6l1.16-.15,1.08-.1c.34,0,.64,0,.91,0a8.24,8.24,0,0,1,1.75.18,3.62,3.62,0,0,1,1.47.64,3.35,3.35,0,0,1,1,1.27,4.75,4.75,0,0,1,.37,2v6.14h-2.79V39.08a2.1,2.1,0,0,0-.48-1.61,2.06,2.06,0,0,0-1.42-.42c-.25,0-.52,0-.82.05l-.76.1v7.35h-2.8V34.83Z"/><path class="cls-1" d="M130.62,33.22a1.28,1.28,0,0,1-.49-1.1,1.34,1.34,0,0,1,.46-1.06,1.67,1.67,0,0,1,1.14-.4,1.62,1.62,0,0,1,1.12.4,1.34,1.34,0,0,1,.46,1.06,1.38,1.38,0,0,1-.45,1.08,1.61,1.61,0,0,1-1.13.4A1.7,1.7,0,0,1,130.62,33.22Zm2.5,1.43v9.9h-2.79v-9.9Z"/><path class="cls-1" d="M135,37.46a5.05,5.05,0,0,1,1.11-1.65,5.18,5.18,0,0,1,1.68-1.11,5.62,5.62,0,0,1,2.11-.39,7.42,7.42,0,0,1,1.83.21,9,9,0,0,1,1.74.68l-1.13,2.52a5.83,5.83,0,0,0-1.19-.52,4.16,4.16,0,0,0-1.15-.15,2.82,2.82,0,0,0-1,.18,2,2,0,0,0-.78.5,2.43,2.43,0,0,0-.5.78,2.82,2.82,0,0,0-.18,1,2.73,2.73,0,0,0,.18,1,2.32,2.32,0,0,0,.5.78,2.08,2.08,0,0,0,.78.49,2.82,2.82,0,0,0,1,.18,4.59,4.59,0,0,0,1.15-.14,4.73,4.73,0,0,0,1.19-.55l1.13,2.56a8.92,8.92,0,0,1-1.74.67,8,8,0,0,1-1.83.2,5.62,5.62,0,0,1-2.11-.39,5.32,5.32,0,0,1-1.68-1.1A4.85,4.85,0,0,1,135,41.61a5.37,5.37,0,0,1-.39-2.07A5.46,5.46,0,0,1,135,37.46Z"/><path class="cls-1" d="M153,34.33V44.55h-2.86V30.48h4.49l2.81,10.82,2.84-10.82h4.46V44.55h-2.86V34.34l-2.76,10.21h-3.35Z"/><path class="cls-1" d="M169.77,44.57a4.57,4.57,0,0,1-1.49-.56,3.13,3.13,0,0,1-1.05-1,2.94,2.94,0,0,1-.41-1.59,3.08,3.08,0,0,1,.36-1.5,3,3,0,0,1,1-1.08,4.41,4.41,0,0,1,1.46-.64,7.62,7.62,0,0,1,1.84-.21l.85,0a7.37,7.37,0,0,1,.88.1,1.06,1.06,0,0,0-.62-.82,3.55,3.55,0,0,0-1.45-.24,5.52,5.52,0,0,0-.77.06l-.86.18a7.63,7.63,0,0,0-.85.26c-.27.1-.65.26-1.12.49l.37-2.93a8.08,8.08,0,0,1,1.62-.55,8,8,0,0,1,1.93-.22,6.94,6.94,0,0,1,1.75.21,3.86,3.86,0,0,1,1.41.68,3.1,3.1,0,0,1,.94,1.24,4.45,4.45,0,0,1,.34,1.84v5.66a11.27,11.27,0,0,1-2.16.62,12.51,12.51,0,0,1-2.18.19A8.54,8.54,0,0,1,169.77,44.57Zm2.73-4.27a5.81,5.81,0,0,0-.8-.06,5.13,5.13,0,0,0-.81.06,2.56,2.56,0,0,0-.64.18,1,1,0,0,0-.4.3.78.78,0,0,0-.14.46.77.77,0,0,0,.52.73,3.36,3.36,0,0,0,1.33.22,6.22,6.22,0,0,0,.86-.06,5.11,5.11,0,0,0,.66-.14V40.4A5.28,5.28,0,0,0,172.5,40.3Z"/><path class="cls-1" d="M178,30.48h2.79V44.55H178Z"/><path class="cls-1" d="M183.05,30.48h2.79V44.55h-2.79Z"/><path class="cls-1" d="M227.82,21.4h-6.13a3,3,0,0,1,3-3.06A3.05,3.05,0,0,1,227.82,21.4Z"/><path class="cls-1" d="M232.34,35.83A1.81,1.81,0,0,1,230.71,38a5.69,5.69,0,0,1-.83.05c-3.43,0-6.86,0-10.28,0a4.37,4.37,0,0,1-1.73-.43,1.37,1.37,0,0,1-.74-1.48q.51-5.84,1-11.66c.05-.57.1-1.14.16-1.75h2v1.06c0,1.07.15,1.42.63,1.36s.65-.17.6-1.38c0-.33,0-.66,0-1h6.3v1c0,.21,0,.4,0,.55.05.62.21.83.58.83s.62-.3.62-1.42v-1h2l.33,3.65c.08.92.17,1.85.24,2.77C231.94,31.36,232.14,33.6,232.34,35.83Z"/><path class="cls-1" d="M224.75,0a30,30,0,1,0,30,30A30,30,0,0,0,224.75,0Zm17,47a24,24,0,1,1-7.63-39.13c.66.28,1.32.59,2,.94l.19.1.18.12.25.19a.93.93,0,0,1,.23.21,1.51,1.51,0,0,1,.21.23,2,2,0,0,1,.17.23l0,0a1.65,1.65,0,0,1,.15.25,2.38,2.38,0,0,1,.24.57v0a2.1,2.1,0,0,1,.06.24.64.64,0,0,1,0,.07s0,0,0,0a2.51,2.51,0,0,1,0,.27,1.77,1.77,0,0,1,0,.33,3.26,3.26,0,0,1-.56,1.82,3.65,3.65,0,0,1-.62.69,3.21,3.21,0,0,1-2.06.74l-.33,0-.33,0-.31-.08-.3-.11-.13,0a1.19,1.19,0,0,1-.15-.09l-.15-.08a17.55,17.55,0,1,0,7.88,8.45l-7.69,5.44-.1.09-.1.07c.08.89.15,1.76.23,2.64.13,1.45.15,2.92.4,4.34a3.18,3.18,0,0,1-3.31,3.74h-5.53c-1.81,0-3.62,0-5.43,0A3.2,3.2,0,0,1,216,36.87a2.21,2.21,0,0,1-.06-.77c.3-3.49.62-7,.93-10.46.09-1,.19-2.08.27-3.13s.17-1.07,1.12-1.08c.55,0,1.1,0,1.65,0,.38,0,.5-.13.55-.5a4.34,4.34,0,0,1,6.51-3.22A4.18,4.18,0,0,1,229.07,21c0,.35.15.48.5.47.65,0,1.29,0,1.94,0h.18l5.45-3.85,5.36-3.78a23.83,23.83,0,0,1,3.69,5.33c.25.49.48,1,.7,1.5A24,24,0,0,1,241.74,47Z"/></svg>