<svg id="Layer_1" data-name="Layer 1" xmlns="http://www.w3.org/2000/svg" viewBox="0 0 371.91 60"><defs><style>.cls-1{fill:#fff;}</style></defs><title>الشعارات الاساسية</title><path class="cls-1" d="M333.05,23v11.9h17.73V23Zm6.1,4.87-2.85,1.39,2.85,1.41v1.14l-3.77-1.93V28.62l3.77-1.93Zm2,5.38-1-.36,3-8.11,1,.36Zm7.77-3.38-3.77,1.94V30.63l2.85-1.4-2.85-1.4V26.69l3.77,1.92ZM333.05,23v11.9h17.73V23Zm6.1,4.87-2.85,1.39,2.85,1.41v1.14l-3.77-1.93V28.62l3.77-1.93Zm2,5.38-1-.36,3-8.11,1,.36Zm7.77-3.38-3.77,1.94V30.63l2.85-1.4-2.85-1.4V26.69l3.77,1.92ZM333.05,23v11.9h17.73V23Zm6.1,4.87-2.85,1.39,2.85,1.41v1.14l-3.77-1.93V28.62l3.77-1.93Zm2,5.38-1-.36,3-8.11,1,.36Zm7.77-3.38-3.77,1.94V30.63l2.85-1.4-2.85-1.4V26.69l3.77,1.92ZM333.05,23v11.9h17.73V23Zm6.1,4.87-2.85,1.39,2.85,1.41v1.14l-3.77-1.93V28.62l3.77-1.93Zm2,5.38-1-.36,3-8.11,1,.36Zm7.77-3.38-3.77,1.94V30.63l2.85-1.4-2.85-1.4V26.69l3.77,1.92ZM333.05,23v11.9h17.73V23Zm6.1,4.87-2.85,1.39,2.85,1.41v1.14l-3.77-1.93V28.62l3.77-1.93Zm2,5.38-1-.36,3-8.11,1,.36Zm7.77-3.38-3.77,1.94V30.63l2.85-1.4-2.85-1.4V26.69l3.77,1.92ZM341.92,0a30,30,0,1,0,30,30A30,30,0,0,0,341.92,0Zm17,47a24,24,0,0,1-39.12-26.34A24,24,0,0,1,351.27,7.86c.67.29,1.32.6,2,.94l.19.1A3.25,3.25,0,0,1,351.79,15a3.22,3.22,0,0,1-1.39-.31l-.31-.17A17.52,17.52,0,1,0,358,22.94l-5.86,4.14v7.8h0l.44,0a1,1,0,0,1,.7.25.92.92,0,0,1,.14.73,3.35,3.35,0,0,1-3.37,3h-5.89a1,1,0,0,1-.72-.2.65.65,0,0,1-.17-.49c0-.62.56-.62.85-.62h5.8a2,2,0,0,0,2-1.22.81.81,0,0,0,0-.11H331.87a1.82,1.82,0,0,0,1.78,1.32c.72,0,1.45,0,2.16,0h3.95a.86.86,0,0,1,.67.23.49.49,0,0,1,.09.45.91.91,0,0,1-.76.61c-1.12,0-2.34,0-3.58,0-.84,0-1.7,0-2.55,0a3.27,3.27,0,0,1-3.19-2.7,1.12,1.12,0,0,1,.07-1,1.14,1.14,0,0,1,.92-.3l.29,0V22.72c0-.93.16-1.1,1.06-1.1H348.6l5.71-4,5.36-3.78a23.78,23.78,0,0,1,3.68,5.33c.25.49.48,1,.7,1.51A24,24,0,0,1,358.9,47ZM333.05,34.87h17.73V23H333.05Zm12.05-4.24,2.85-1.4-2.85-1.4V26.69l3.77,1.92v1.23l-3.77,1.94Zm-2-5.88,1,.36-3,8.11-1-.36Zm-7.68,3.87,3.77-1.93v1.15l-2.85,1.39,2.85,1.41v1.14l-3.77-1.93ZM333.05,23v11.9h17.73V23Zm6.1,4.87-2.85,1.39,2.85,1.41v1.14l-3.77-1.93V28.62l3.77-1.93Zm2,5.38-1-.36,3-8.11,1,.36Zm7.77-3.38-3.77,1.94V30.63l2.85-1.4-2.85-1.4V26.69l3.77,1.92ZM333.05,23v11.9h17.73V23Zm6.1,4.87-2.85,1.39,2.85,1.41v1.14l-3.77-1.93V28.62l3.77-1.93Zm2,5.38-1-.36,3-8.11,1,.36Zm7.77-3.38-3.77,1.94V30.63l2.85-1.4-2.85-1.4V26.69l3.77,1.92ZM333.05,23v11.9h17.73V23Zm6.1,4.87-2.85,1.39,2.85,1.41v1.14l-3.77-1.93V28.62l3.77-1.93Zm2,5.38-1-.36,3-8.11,1,.36Zm7.77-3.38-3.77,1.94V30.63l2.85-1.4-2.85-1.4V26.69l3.77,1.92ZM333.05,23v11.9h17.73V23Zm6.1,4.87-2.85,1.39,2.85,1.41v1.14l-3.77-1.93V28.62l3.77-1.93Zm2,5.38-1-.36,3-8.11,1,.36Zm7.77-3.38-3.77,1.94V30.63l2.85-1.4-2.85-1.4V26.69l3.77,1.92Z"/><path class="cls-1" d="M10.62,25.27H6.16A9.35,9.35,0,0,1,3.78,25a5.24,5.24,0,0,1-1.88-.92A4.29,4.29,0,0,1,.64,22.5a4.92,4.92,0,0,1-.45-2.17,4.85,4.85,0,0,1,.4-2,4.4,4.4,0,0,1,1.18-1.57,5.5,5.5,0,0,1,1.88-1,7.84,7.84,0,0,1,2.51-.37h.12v-.84H9.07v8h1.55ZM2.71,13.35a1.3,1.3,0,0,1-.45-1.06,1.32,1.32,0,0,1,.44-1,1.64,1.64,0,0,1,1.09-.38,1.62,1.62,0,0,1,1.08.38,1.29,1.29,0,0,1,.45,1,1.28,1.28,0,0,1-.46,1.06,1.62,1.62,0,0,1-1.07.37A1.63,1.63,0,0,1,2.71,13.35Zm3.57,4.81H5.59a3.11,3.11,0,0,0-1,.15,2.78,2.78,0,0,0-.84.43,2.1,2.1,0,0,0-.59.67,1.82,1.82,0,0,0-.22.92,2.06,2.06,0,0,0,.2.93,2,2,0,0,0,.55.66,2.65,2.65,0,0,0,.8.42,3.24,3.24,0,0,0,.94.14h.81Zm.08-4.81a1.3,1.3,0,0,1-.45-1.06,1.32,1.32,0,0,1,.44-1,1.64,1.64,0,0,1,1.09-.38,1.63,1.63,0,0,1,1.09.38,1.32,1.32,0,0,1,.44,1,1.28,1.28,0,0,1-.46,1.06,1.62,1.62,0,0,1-1.07.37A1.63,1.63,0,0,1,6.36,13.35Z"/><path class="cls-1" d="M13.61,22.48v2.79H9.86V22.48Z"/><path class="cls-1" d="M16.59,22.48v2.79H12.84V22.48Z"/><path class="cls-1" d="M19.56,22.48v2.79H15.81V22.48Z"/><path class="cls-1" d="M22.54,22.48v2.79H18.79V22.48Z"/><path class="cls-1" d="M25.51,22.48v2.79H21.76V22.48Z"/><path class="cls-1" d="M28.49,22.48v2.79H24.74V22.48Z"/><path class="cls-1" d="M31.47,22.48v2.79H27.72V22.48Z"/><path class="cls-1" d="M34.44,22.48v2.79H30.69V22.48Z"/><path class="cls-1" d="M37.42,22.48v2.79H33.67V22.48Z"/><path class="cls-1" d="M40.4,22.48v2.79H36.65V22.48Z"/><path class="cls-1" d="M43.37,22.48v2.79H39.62V22.48Z"/><path class="cls-1" d="M49.63,22.48c0-.25.11-.59.16-1a10.13,10.13,0,0,0,.07-1.17,3.39,3.39,0,0,0-.17-1,1.88,1.88,0,0,0-.58-.85,2.63,2.63,0,0,0-1.84-.59,4.23,4.23,0,0,0-1.16.15,5.24,5.24,0,0,0-1.36.69l-1.17-2.46a10.28,10.28,0,0,1,2-.88,7,7,0,0,1,2-.29,5.23,5.23,0,0,1,2,.35,4.44,4.44,0,0,1,1.53,1,5.38,5.38,0,0,1,1.14,1.72,5.93,5.93,0,0,1,.44,2.35,10.93,10.93,0,0,1-.06,1.15c0,.38-.08.66-.11.85h1.77v2.79H42.6V22.48Zm-3.31,6a1.28,1.28,0,0,1-.49-1.1,1.34,1.34,0,0,1,.46-1.06,1.81,1.81,0,0,1,2.27,0A1.34,1.34,0,0,1,49,27.37a1.3,1.3,0,0,1-.48,1.1,1.74,1.74,0,0,1-1.11.38A1.7,1.7,0,0,1,46.32,28.47Z"/><path class="cls-1" d="M57.23,22.48v2.79H53.48V22.48Z"/><path class="cls-1" d="M60.21,22.48v2.79H56.46V22.48Z"/><path class="cls-1" d="M63.18,22.48v2.79H59.43V22.48Z"/><path class="cls-1" d="M66.16,22.48v2.79H62.41V22.48Z"/><path class="cls-1" d="M67,22.48l0-.28c0-.18,0-.38,0-.58a5.34,5.34,0,0,1,.41-2.09,5.65,5.65,0,0,1,1.12-1.7,5.2,5.2,0,0,1,1.66-1.15,5.09,5.09,0,0,1,2.06-.42,5.27,5.27,0,0,1,2.07.41,5.19,5.19,0,0,1,1.7,1.14,5,5,0,0,1,1.14,1.69,5.31,5.31,0,0,1,.42,2.12,5.06,5.06,0,0,1-1.6,3.74,5.35,5.35,0,0,1-1.7,1.1,5.19,5.19,0,0,1-2,.41A5,5,0,0,1,70,26.42a5.13,5.13,0,0,1-1.66-1.15h-3V22.48Zm6.19,1.41a2.3,2.3,0,0,0,.81-.52,2.41,2.41,0,0,0,.54-.79,2.46,2.46,0,0,0,.19-1,2.79,2.79,0,0,0-.18-1,2.45,2.45,0,0,0-.52-.81,2.53,2.53,0,0,0-.81-.53,2.61,2.61,0,0,0-1-.19,2.47,2.47,0,0,0-1,.2,2.81,2.81,0,0,0-.77.54,2.24,2.24,0,0,0-.51.81,2.53,2.53,0,0,0-.19,1,2.48,2.48,0,0,0,.19,1,2.24,2.24,0,0,0,.51.79,2.48,2.48,0,0,0,.78.52,2.45,2.45,0,0,0,1,.2A2.6,2.6,0,0,0,73.14,23.89Z"/><path class="cls-1" d="M79.06,28.93a4,4,0,0,1-.71-.16L78.15,26c.4.1.69.16.85.19a4.07,4.07,0,0,0,.5,0,1,1,0,0,0,.81-.31,2,2,0,0,0,.23-1.12V15.37h2.79v7.11h1.82v2.79H83.29A4.26,4.26,0,0,1,82.36,28a3.33,3.33,0,0,1-2.61.94A5.12,5.12,0,0,1,79.06,28.93Z"/><path class="cls-1" d="M88.12,22.48v2.79H84.37V22.48Z"/><path class="cls-1" d="M91.1,22.48v2.79H87.35V22.48Z"/><path class="cls-1" d="M94.08,22.48v2.79H90.33V22.48Z"/><path class="cls-1" d="M97.05,22.48v2.79H93.3V22.48Z"/><path class="cls-1" d="M100,22.48v2.79H96.28V22.48Z"/><path class="cls-1" d="M103,22.48v2.79H99.25V22.48Z"/><path class="cls-1" d="M104.32,22.48V15.37h2.79v7.11h1.8v2.79h-6.68V22.48Zm.28,6a1.31,1.31,0,0,1-.49-1.1,1.35,1.35,0,0,1,.47-1.06,1.63,1.63,0,0,1,1.13-.4,1.67,1.67,0,0,1,1.14.4,1.38,1.38,0,0,1,.46,1.06,1.28,1.28,0,0,1-.49,1.1,1.7,1.7,0,0,1-1.11.38A1.74,1.74,0,0,1,104.6,28.47Z"/><path class="cls-1" d="M109.8,22.48V11.2h2.79V22.48h2.15v2.79h-6.59V22.48Z"/><path class="cls-1" d="M115.62,22.48V11.2h3.88V14h-1.09V25.27H114V22.48Z"/><path class="cls-1" d="M125.67,26.88a7.88,7.88,0,0,1-.37-2.48,9.62,9.62,0,0,1,.19-1.92h1.09a7.41,7.41,0,0,1-.35-1,5.32,5.32,0,0,1-.22-1.57,4.71,4.71,0,0,1,.49-2.21,5.4,5.4,0,0,1,1.27-1.59,4.19,4.19,0,0,1,1.44-.78,5.59,5.59,0,0,1,1.76-.26,6.56,6.56,0,0,1,1.85.25,11,11,0,0,1,1.92.79l-1,2.56a7.66,7.66,0,0,0-1.36-.63,3.9,3.9,0,0,0-1.18-.2,2.58,2.58,0,0,0-1.69.52,2.06,2.06,0,0,0-.57.78,2.47,2.47,0,0,0-.17.95,4,4,0,0,0,.22,1.39,3.29,3.29,0,0,0,.55,1H135v2.79h-6.91v0a4.44,4.44,0,0,0,.17,1.19A7.28,7.28,0,0,0,129,28l-2.2,1A8.36,8.36,0,0,1,125.67,26.88Z"/><path class="cls-1" d="M140,11.2V25.27h-2.79V11.2Z"/><path class="cls-1" d="M147.3,22.48V20.13a3.22,3.22,0,0,0-.1-.82,1.71,1.71,0,0,0-.31-.6,1.19,1.19,0,0,0-.52-.4,1.78,1.78,0,0,0-.74-.15h-1.22V15.37h1a6.22,6.22,0,0,1,2.07.31,4,4,0,0,1,1.58,1,3.41,3.41,0,0,1,.81,1.54,8.38,8.38,0,0,1,.23,2v2.25h1.82v2.79H141.43V22.48Z"/><path class="cls-1" d="M154.9,22.48v2.79h-3.75V22.48Z"/><path class="cls-1" d="M157.88,22.48v2.79h-3.75V22.48Z"/><path class="cls-1" d="M160.85,22.48v2.79H157.1V22.48Z"/><path class="cls-1" d="M163.83,22.48v2.79h-3.75V22.48Z"/><path class="cls-1" d="M166.81,22.48v2.79h-3.75V22.48Z"/><path class="cls-1" d="M169.78,22.48v2.79H166V22.48Z"/><path class="cls-1" d="M172.76,22.48v2.79H169V22.48Z"/><path class="cls-1" d="M175.73,22.48v2.79H172V22.48Z"/><path class="cls-1" d="M178.71,22.48v2.79H175V22.48Z"/><path class="cls-1" d="M181.69,22.48v2.79h-3.75V22.48Z"/><path class="cls-1" d="M184.66,22.48v2.79h-3.75V22.48Z"/><path class="cls-1" d="M187.64,22.48v2.79h-3.75V22.48Z"/><path class="cls-1" d="M190.62,22.48v2.79h-3.75V22.48Z"/><path class="cls-1" d="M193.59,22.48v2.79h-3.75V22.48Z"/><path class="cls-1" d="M194.9,22.48V15.37h2.8v9.9h-4.88V22.48Zm.32,6a1.3,1.3,0,0,1-.48-1.1,1.34,1.34,0,0,1,.46-1.06,1.81,1.81,0,0,1,2.27,0,1.34,1.34,0,0,1,.46,1.06,1.28,1.28,0,0,1-.49,1.1,1.7,1.7,0,0,1-1.11.38A1.74,1.74,0,0,1,195.22,28.47Z"/><path class="cls-1" d="M204.2,22.48a3.56,3.56,0,0,0,1-.13A2.23,2.23,0,0,0,206,22a1.81,1.81,0,0,0,.45-.63,2.21,2.21,0,0,0,.17-.95V10h3.89v2.79h-1.1v7.55a6.9,6.9,0,0,1-.32,2.08,3.9,3.9,0,0,1-1,1.64,4.51,4.51,0,0,1-1.85,1,9.84,9.84,0,0,1-2.48.28H199.5l-.34-2.79Zm-3,6.41a2.19,2.19,0,0,1-.63-1.77v-1h3.93v1.7h-2.15a.46.46,0,0,0,.14.25.77.77,0,0,0,.55.15H204v1.19h-1.06A2.53,2.53,0,0,1,201.24,28.89Zm3.13-16.11v9.3h-2.79v-9.3Z"/><path class="cls-1" d="M215.79,11.2V25.27H213V11.2Z"/><path class="cls-1" d="M225.51,27.31a7.31,7.31,0,0,1-2.29-.54c-.33-.15-.75-.36-1.26-.64l1.13-2.47a6.81,6.81,0,0,0,1.71.74,6.1,6.1,0,0,0,1.5.18h3.06V20.06a6,6,0,0,1,.36-2.18,3.62,3.62,0,0,1,1.17-1.57,4,4,0,0,1,1.48-.72,7.38,7.38,0,0,1,1.87-.22h3.39v9.9h-2.79V18.16H234a3.26,3.26,0,0,0-.73.08,1.43,1.43,0,0,0-.56.29,1.49,1.49,0,0,0-.4.59,2.13,2.13,0,0,0-.15.79v7.46h-5.09C226.46,27.37,226,27.35,225.51,27.31Zm.08-7.55a1.32,1.32,0,0,1-.48-1.1,1.34,1.34,0,0,1,.46-1.06,1.81,1.81,0,0,1,2.27,0,1.34,1.34,0,0,1,.46,1.06,1.3,1.3,0,0,1-.49,1.1,1.69,1.69,0,0,1-1.1.38A1.75,1.75,0,0,1,225.59,19.76Zm0,3.57a1.32,1.32,0,0,1-.48-1.1,1.33,1.33,0,0,1,.46-1.06,1.78,1.78,0,0,1,2.27,0,1.33,1.33,0,0,1,.46,1.06,1.3,1.3,0,0,1-.49,1.1,1.75,1.75,0,0,1-1.1.38A1.8,1.8,0,0,1,225.59,23.33Z"/><path class="cls-1" d="M239.6,28.93a3.89,3.89,0,0,1-.7-.16L238.7,26l.84.19a4.19,4.19,0,0,0,.5,0,1,1,0,0,0,.82-.31,2,2,0,0,0,.22-1.12V15.37h2.8v9a9.13,9.13,0,0,1-.2,2,3.68,3.68,0,0,1-.63,1.43,2.57,2.57,0,0,1-1.13.84,4.45,4.45,0,0,1-1.63.27A5.32,5.32,0,0,1,239.6,28.93Z"/><path class="cls-1" d="M250.38,22.48a3.56,3.56,0,0,0,1-.13,2.23,2.23,0,0,0,.77-.39,1.81,1.81,0,0,0,.45-.63,2.37,2.37,0,0,0,.17-.95V10h3.89v2.79h-1.1v7.55a5.73,5.73,0,0,1-.17,1.48,3.18,3.18,0,0,0,2.41.71v2.79a5.89,5.89,0,0,1-1.58-.16,3.62,3.62,0,0,1-1-.41,2.33,2.33,0,0,1-.63-.56,2.83,2.83,0,0,0-.24-.3s0,.05-.17.17a4.51,4.51,0,0,1-1.85,1,9.84,9.84,0,0,1-2.48.28h-4.23l-.33-2.79Zm.17-9.7v9.3h-2.79v-9.3Z"/><path class="cls-1" d="M260.78,22.48v2.79H257V22.48Z"/><path class="cls-1" d="M263.75,22.48v2.79H260V22.48Z"/><path class="cls-1" d="M266.73,22.48v2.79H263V22.48Z"/><path class="cls-1" d="M269.71,22.48v2.79H266V22.48Z"/><path class="cls-1" d="M272.68,22.48v2.79h-3.75V22.48Z"/><path class="cls-1" d="M275.66,22.48v2.79h-3.75V22.48Z"/><path class="cls-1" d="M278.63,22.48v2.79h-3.75V22.48Z"/><path class="cls-1" d="M281.61,22.48v2.79h-3.75V22.48Z"/><path class="cls-1" d="M284.59,22.48v2.79h-3.75V22.48Z"/><path class="cls-1" d="M287.56,22.48v2.79h-3.75V22.48Z"/><path class="cls-1" d="M290.54,22.48v2.79h-3.75V22.48Z"/><path class="cls-1" d="M293.52,22.48v2.79h-3.75V22.48Z"/><path class="cls-1" d="M294.78,22.48a3.38,3.38,0,0,1-.36-.79,3.77,3.77,0,0,1-.23-1.38,4.81,4.81,0,0,1,.43-2.08,4.39,4.39,0,0,1,1.21-1.56,5.33,5.33,0,0,1,1.86-1,8.34,8.34,0,0,1,2.37-.32h3v9.9H292.74V22.48Zm1.7-8.48A1.26,1.26,0,0,1,296,13a1.29,1.29,0,0,1,.45-1,1.58,1.58,0,0,1,1.08-.39,1.6,1.6,0,0,1,1.09.39,1.32,1.32,0,0,1,.44,1,1.28,1.28,0,0,1-.45,1.05,1.75,1.75,0,0,1-2.15,0Zm.82,7.59a2.58,2.58,0,0,0,.81.89h2.15V18.16h-.77a3.34,3.34,0,0,0-.94.14,2.63,2.63,0,0,0-.8.41,2.07,2.07,0,0,0-.56.68,1.92,1.92,0,0,0-.21.92A2.56,2.56,0,0,0,297.3,21.59ZM300.13,14a1.26,1.26,0,0,1-.46-1.05,1.29,1.29,0,0,1,.45-1,1.7,1.7,0,0,1,2.17,0,1.28,1.28,0,0,1,.44,1,1.28,1.28,0,0,1-.45,1.05,1.65,1.65,0,0,1-1.08.37A1.62,1.62,0,0,1,300.13,14Z"/><path class="cls-1" d="M4.27,44.2A6.4,6.4,0,0,1,2,42.67,6.61,6.61,0,0,1,.51,40.36,7.91,7.91,0,0,1,0,37.49a8,8,0,0,1,.51-2.88A6.8,6.8,0,0,1,2,32.3a6.4,6.4,0,0,1,2.29-1.53,7.84,7.84,0,0,1,3-.55,11.85,11.85,0,0,1,2.85.33,8.58,8.58,0,0,1,2.4,1l-1.1,2.54a7.26,7.26,0,0,0-1.9-.84A8.11,8.11,0,0,0,7.38,33a5.19,5.19,0,0,0-1.68.27,3.73,3.73,0,0,0-1.39.84,4.12,4.12,0,0,0-.95,1.41,5.28,5.28,0,0,0-.35,2,5.35,5.35,0,0,0,.35,2,4.37,4.37,0,0,0,.95,1.42,3.73,3.73,0,0,0,1.39.84A5.19,5.19,0,0,0,7.38,42a6.76,6.76,0,0,0,1.41-.15A4.82,4.82,0,0,0,10,41.52v-2.1h-3V36.7h5.9v6.71a6.49,6.49,0,0,1-1.27.62,10,10,0,0,1-1.38.39,14.55,14.55,0,0,1-1.47.25,14,14,0,0,1-1.41.08A7.84,7.84,0,0,1,4.27,44.2Z"/><path class="cls-1" d="M15.42,30.48h2.79V44.55H15.42Z"/><path class="cls-1" d="M22.93,44.57a4.54,4.54,0,0,1-1.5-.56,3.13,3.13,0,0,1-1.05-1,2.93,2.93,0,0,1-.4-1.59,3.19,3.19,0,0,1,.35-1.5,3,3,0,0,1,1-1.08,4.32,4.32,0,0,1,1.46-.64A7.54,7.54,0,0,1,24.6,38l.86,0a7.19,7.19,0,0,1,.87.1,1,1,0,0,0-.62-.82A3.5,3.5,0,0,0,24.27,37a5.54,5.54,0,0,0-.78.06l-.85.18a7,7,0,0,0-.85.26,11.39,11.39,0,0,0-1.12.49L21,35.08a8.2,8.2,0,0,1,1.61-.55,8.06,8.06,0,0,1,1.94-.22,6.86,6.86,0,0,1,1.74.21,4,4,0,0,1,1.42.68,3.19,3.19,0,0,1,.94,1.24A4.61,4.61,0,0,1,29,38.28v5.66a11.16,11.16,0,0,1-2.17.62,12.4,12.4,0,0,1-2.17.19A8.47,8.47,0,0,1,22.93,44.57Zm2.72-4.27a5.67,5.67,0,0,0-.79-.06,5,5,0,0,0-.81.06,2.56,2.56,0,0,0-.64.18,1,1,0,0,0-.41.3.86.86,0,0,0-.13.46.76.76,0,0,0,.51.73,3.41,3.41,0,0,0,1.34.22,6.33,6.33,0,0,0,.86-.06,4.54,4.54,0,0,0,.65-.14V40.4A4.85,4.85,0,0,0,25.65,40.3Z"/><path class="cls-1" d="M35.5,37.18h-.39l-.53,0c-.18,0-.44,0-.77.09s-.29,0,.11-.14v7.37H31.13V34.93c.41-.08.79-.14,1.12-.19l1-.13,1-.08c.32,0,.6,0,.84,0h2v2.69Z"/><path class="cls-1" d="M39.49,45.31l.86.22.87.15a7.24,7.24,0,0,0,.75,0,4.58,4.58,0,0,0,1-.09,2.06,2.06,0,0,0,.71-.26,1.31,1.31,0,0,0,.45-.42l.15-.24.1-.31a8.31,8.31,0,0,1-1.77.17,8.5,8.5,0,0,1-1.72-.17,3.43,3.43,0,0,1-1.39-.65,3.17,3.17,0,0,1-.91-1.27,5.5,5.5,0,0,1-.32-2V34.63H41v5.18a4.57,4.57,0,0,0,.1,1,1.63,1.63,0,0,0,.29.62,1,1,0,0,0,.5.31,2.73,2.73,0,0,0,.76.09,7.11,7.11,0,0,0,.78-.05,4.38,4.38,0,0,0,.77-.15v-7H47v9a8.15,8.15,0,0,1-.25,2.19,3,3,0,0,1-.88,1.47,3.53,3.53,0,0,1-1.6.82,10.22,10.22,0,0,1-2.42.24l-.66,0c-.24,0-.49,0-.73-.09l-.73-.14c-.24,0-.5-.12-.79-.21l-.62-3A10.67,10.67,0,0,0,39.49,45.31Z"/><path class="cls-1" d="M59.45,33.23a3.73,3.73,0,0,0-1.39.84,3.86,3.86,0,0,0-1,1.41,5.09,5.09,0,0,0-.35,2,5.16,5.16,0,0,0,.35,2,4.07,4.07,0,0,0,1,1.42,3.73,3.73,0,0,0,1.39.84,5.1,5.1,0,0,0,1.68.27,5.87,5.87,0,0,0,1.81-.27,8.38,8.38,0,0,0,1.77-.86l1.11,2.56a8.53,8.53,0,0,1-2.26,1,10,10,0,0,1-2.53.32,7.8,7.8,0,0,1-3-.55,6.53,6.53,0,0,1-2.3-1.53,6.74,6.74,0,0,1-1.46-2.31,7.91,7.91,0,0,1-.51-2.87,8,8,0,0,1,.51-2.88,6.93,6.93,0,0,1,1.46-2.31A6.53,6.53,0,0,1,58,30.77a7.8,7.8,0,0,1,3-.55,9.54,9.54,0,0,1,2.53.33,8.9,8.9,0,0,1,2.26,1l-1.11,2.54a8.26,8.26,0,0,0-1.77-.84A5.87,5.87,0,0,0,61.13,33,5.1,5.1,0,0,0,59.45,33.23Z"/><path class="cls-1" d="M71.4,37.18H71l-.53,0q-.28,0-.78.09c-.33,0-.29,0,.11-.14v7.37H67V34.93l1.13-.19,1-.13,1-.08c.31,0,.59,0,.84,0h2v2.69Z"/><path class="cls-1" d="M80.07,41.94c.27,0,.52-.1.76-.16a3.94,3.94,0,0,0,.66-.25,3.05,3.05,0,0,0,.68-.51l1.26,2.55a10.15,10.15,0,0,1-2,.86,8.32,8.32,0,0,1-2.45.32,5.83,5.83,0,0,1-2.15-.39,5.39,5.39,0,0,1-1.72-1.1A4.78,4.78,0,0,1,74,41.61a5.27,5.27,0,0,1-.4-2.07,5.35,5.35,0,0,1,.41-2.1,5.2,5.2,0,0,1,1.13-1.66,5.12,5.12,0,0,1,1.66-1.08,5.65,5.65,0,0,1,4.15,0,4.54,4.54,0,0,1,1.65,1.19,5.22,5.22,0,0,1,1,1.9A8.21,8.21,0,0,1,84,40.53H76.52a1.65,1.65,0,0,0,.82,1,3.19,3.19,0,0,0,1.73.43h.25A4,4,0,0,0,80.07,41.94Zm-2.76-4.66a1.94,1.94,0,0,0-.71.86H81a1.56,1.56,0,0,0-.71-.91,2.53,2.53,0,0,0-1.48-.4A2.42,2.42,0,0,0,77.31,37.28Z"/><path class="cls-1" d="M87.94,44.57A4.57,4.57,0,0,1,86.45,44a3.13,3.13,0,0,1-1-1A2.94,2.94,0,0,1,85,41.39a3.08,3.08,0,0,1,.36-1.5,3,3,0,0,1,1-1.08,4.41,4.41,0,0,1,1.46-.64A7.62,7.62,0,0,1,89.62,38l.85,0a7.37,7.37,0,0,1,.88.1,1.06,1.06,0,0,0-.62-.82A3.55,3.55,0,0,0,89.28,37a5.4,5.4,0,0,0-.77.06l-.86.18a7.63,7.63,0,0,0-.85.26c-.27.1-.65.26-1.12.49l.37-2.93a8.08,8.08,0,0,1,1.62-.55,8,8,0,0,1,1.93-.22,6.94,6.94,0,0,1,1.75.21,3.86,3.86,0,0,1,1.41.68,3.1,3.1,0,0,1,.94,1.24A4.45,4.45,0,0,1,94,38.28v5.66a11.27,11.27,0,0,1-2.16.62,12.51,12.51,0,0,1-2.18.19A8.47,8.47,0,0,1,87.94,44.57Zm2.73-4.27a5.81,5.81,0,0,0-.8-.06,5.13,5.13,0,0,0-.81.06,2.56,2.56,0,0,0-.64.18,1,1,0,0,0-.4.3.78.78,0,0,0-.14.46.77.77,0,0,0,.52.73,3.32,3.32,0,0,0,1.33.22,6.33,6.33,0,0,0,.86-.06,5.11,5.11,0,0,0,.66-.14V40.4A5.28,5.28,0,0,0,90.67,40.3Z"/><path class="cls-1" d="M96.9,34.65V31.18h2.79v3.47h3.6v2.62h-3.6v3.21a2.45,2.45,0,0,0,.08.73.83.83,0,0,0,.22.42,1,1,0,0,0,.44.22,2.86,2.86,0,0,0,.72.08h2.21v2.62H100.9a8.32,8.32,0,0,1-1.76-.16,3.16,3.16,0,0,1-1.26-.55,2.19,2.19,0,0,1-.75-1,4.44,4.44,0,0,1-.23-1.51v-4H95.12V34.65Z"/><path class="cls-1" d="M105.32,33.22a1.3,1.3,0,0,1-.48-1.1,1.34,1.34,0,0,1,.46-1.06,1.66,1.66,0,0,1,1.13-.4,1.63,1.63,0,0,1,1.13.4,1.51,1.51,0,0,1,0,2.14,1.64,1.64,0,0,1-1.14.4A1.74,1.74,0,0,1,105.32,33.22Zm2.51,1.43v9.9H105v-9.9Z"/><path class="cls-1" d="M108.82,34.65h2.93L114,41.4l2.25-6.75h2.93l-3.41,9.9h-3.53Z"/><path class="cls-1" d="M120.48,33.22a1.28,1.28,0,0,1-.49-1.1,1.34,1.34,0,0,1,.46-1.06,1.66,1.66,0,0,1,1.13-.4,1.63,1.63,0,0,1,1.13.4,1.49,1.49,0,0,1,0,2.14,1.64,1.64,0,0,1-1.14.4A1.69,1.69,0,0,1,120.48,33.22Zm2.5,1.43v9.9h-2.79v-9.9Z"/><path class="cls-1" d="M126,34.65V31.18h2.79v3.47h3.6v2.62h-3.6v3.21a2.84,2.84,0,0,0,.08.73.83.83,0,0,0,.22.42,1,1,0,0,0,.44.22,2.86,2.86,0,0,0,.72.08h2.21v2.62H130a8.32,8.32,0,0,1-1.76-.16,3.16,3.16,0,0,1-1.26-.55,2.19,2.19,0,0,1-.75-1,4.44,4.44,0,0,1-.23-1.51v-4h-1.78V34.65Z"/><path class="cls-1" d="M135.14,45.31l.87.22.86.15a7.24,7.24,0,0,0,.76,0,4.48,4.48,0,0,0,.94-.09,2,2,0,0,0,.71-.26,1.31,1.31,0,0,0,.45-.42l.15-.24.1-.31a8.28,8.28,0,0,1-1.76.17,8.6,8.6,0,0,1-1.73-.17,3.39,3.39,0,0,1-1.38-.65,3,3,0,0,1-.91-1.27,5.29,5.29,0,0,1-.32-2V34.63h2.81v5.18a4,4,0,0,0,.1,1,1.49,1.49,0,0,0,.28.62,1.07,1.07,0,0,0,.5.31,2.78,2.78,0,0,0,.76.09,7.45,7.45,0,0,0,.79-.05,4.26,4.26,0,0,0,.76-.15v-7h2.79v9a8.15,8.15,0,0,1-.25,2.19,3.11,3.11,0,0,1-.87,1.47,3.63,3.63,0,0,1-1.6.82,10.34,10.34,0,0,1-2.42.24l-.67,0-.73-.09-.73-.14a7.7,7.7,0,0,1-.78-.21l-.62-3A9.91,9.91,0,0,0,135.14,45.31Z"/><path class="cls-1" d="M150.33,30.48h9.13v2.69h-6.28V36h5.67V38.7h-5.67v5.85h-2.85Z"/><path class="cls-1" d="M163,44.35a5.43,5.43,0,0,1-1.69-1.1,5,5,0,0,1-1.14-1.64,5.27,5.27,0,0,1-.41-2.07,5.1,5.1,0,0,1,.41-2,5.46,5.46,0,0,1,1.14-1.66A5.14,5.14,0,0,1,163,34.71a5.77,5.77,0,0,1,4.22,0,5.25,5.25,0,0,1,1.69,1.12A5.46,5.46,0,0,1,170,37.49a5.1,5.1,0,0,1,.41,2,5.27,5.27,0,0,1-.41,2.07,5,5,0,0,1-1.14,1.64,5.54,5.54,0,0,1-1.69,1.1,5.77,5.77,0,0,1-4.22,0Zm3.13-2.53a2.56,2.56,0,0,0,.76-.52,2.2,2.2,0,0,0,.49-.79,2.78,2.78,0,0,0,.17-1,2.88,2.88,0,0,0-.17-1,2.25,2.25,0,0,0-.49-.78,2.59,2.59,0,0,0-.76-.53,2.7,2.7,0,0,0-2,0,2.59,2.59,0,0,0-.76.53,2.11,2.11,0,0,0-.49.78,2.88,2.88,0,0,0-.17,1,2.78,2.78,0,0,0,.17,1,2.07,2.07,0,0,0,.49.79,2.66,2.66,0,0,0,2.8.52Z"/><path class="cls-1" d="M176.29,37.18h-.39l-.53,0c-.18,0-.44,0-.77.09s-.29,0,.11-.14v7.37h-2.79V34.93c.41-.08.79-.14,1.12-.19l1-.13,1-.08c.32,0,.6,0,.84,0h2v2.69Z"/><path class="cls-1" d="M187.51,44.55h-2.86V30.48H190a6.55,6.55,0,0,1,2.33.37,4.65,4.65,0,0,1,1.62,1,4,4,0,0,1,.95,1.4,4.37,4.37,0,0,1,.31,1.63,4.87,4.87,0,0,1-.32,1.73,4.19,4.19,0,0,1-1,1.47,4.91,4.91,0,0,1-1.64,1,6.41,6.41,0,0,1-2.28.37h-2.47Zm0-7.79h2a6.71,6.71,0,0,0,1.15-.09,2.62,2.62,0,0,0,.87-.3,1.42,1.42,0,0,0,.53-.56,1.87,1.87,0,0,0,.19-.9,1.49,1.49,0,0,0-.65-1.32,4,4,0,0,0-2.09-.42h-2Z"/><path class="cls-1" d="M200.49,37.18h-.39l-.53,0c-.18,0-.44,0-.77.09s-.29,0,.11-.14v7.37h-2.79V34.93c.41-.08.79-.14,1.13-.19l1-.13,1-.08c.32,0,.6,0,.84,0h2v2.69Z"/><path class="cls-1" d="M205.91,44.35a5.67,5.67,0,0,1-1.69-1.1,4.86,4.86,0,0,1-1.13-1.64,5.1,5.1,0,0,1-.41-2.07,4.94,4.94,0,0,1,.41-2,5.26,5.26,0,0,1,1.13-1.66,5.36,5.36,0,0,1,1.69-1.12,5.43,5.43,0,0,1,2.11-.4,5.36,5.36,0,0,1,2.11.4,5.14,5.14,0,0,1,1.69,1.12A5.29,5.29,0,0,1,213,37.49a5.1,5.1,0,0,1,.41,2,5.27,5.27,0,0,1-.41,2.07,4.88,4.88,0,0,1-1.14,1.64,5.43,5.43,0,0,1-1.69,1.1,5.36,5.36,0,0,1-2.11.4A5.43,5.43,0,0,1,205.91,44.35ZM209,41.82a2.61,2.61,0,0,0,.77-.52,2.18,2.18,0,0,0,.48-.79,2.57,2.57,0,0,0,.17-1,2.66,2.66,0,0,0-.17-1,2.22,2.22,0,0,0-.48-.78,2.64,2.64,0,0,0-.77-.53,2.54,2.54,0,0,0-1-.2,2.46,2.46,0,0,0-1,.2,2.51,2.51,0,0,0-.77.53,2.4,2.4,0,0,0-.49.78,2.88,2.88,0,0,0-.17,1,2.78,2.78,0,0,0,.17,1,2.35,2.35,0,0,0,.49.79,2.49,2.49,0,0,0,.77.52,2.46,2.46,0,0,0,1,.19A2.54,2.54,0,0,0,209,41.82Z"/><path class="cls-1" d="M214.68,37.38a4.59,4.59,0,0,1,1.14-1.62,5.31,5.31,0,0,1,1.81-1.06,7.06,7.06,0,0,1,2.42-.39,14.51,14.51,0,0,1,4,.55v8.75a8.11,8.11,0,0,1-.26,2.19,3,3,0,0,1-.87,1.47,3.63,3.63,0,0,1-1.6.82,10.34,10.34,0,0,1-2.42.24l-.66,0-.74-.09-.73-.14a7.7,7.7,0,0,1-.78-.21l-.62-3a9.91,9.91,0,0,0,1.14.44l.87.22.86.15a7.42,7.42,0,0,0,.76,0,4.48,4.48,0,0,0,.94-.09,2.11,2.11,0,0,0,.72-.26,1.37,1.37,0,0,0,.44-.42,1.11,1.11,0,0,0,.15-.6v0a3.93,3.93,0,0,1-.66.08l-.75,0a6.36,6.36,0,0,1-2.27-.4A5.32,5.32,0,0,1,215.83,43a4.59,4.59,0,0,1-1.14-1.61,5.52,5.52,0,0,1,0-4Zm6-.27a4.18,4.18,0,0,0-.68-.06,3.43,3.43,0,0,0-2.08.56,2.53,2.53,0,0,0,0,3.58,3.3,3.3,0,0,0,2.08.59,5.13,5.13,0,0,0,.65-.05l.59-.09V37.2Z"/><path class="cls-1" d="M230.73,37.18h-.39l-.53,0c-.18,0-.44,0-.77.09s-.3,0,.11-.14v7.37h-2.8V34.93l1.13-.19,1-.13,1-.08c.31,0,.59,0,.84,0h2v2.69Z"/><path class="cls-1" d="M236.15,44.57a4.54,4.54,0,0,1-1.5-.56,3.13,3.13,0,0,1-1.05-1,2.93,2.93,0,0,1-.4-1.59,3.19,3.19,0,0,1,.35-1.5,3,3,0,0,1,1-1.08,4.32,4.32,0,0,1,1.46-.64,7.54,7.54,0,0,1,1.83-.21l.86,0a7.19,7.19,0,0,1,.87.1,1,1,0,0,0-.62-.82,3.53,3.53,0,0,0-1.44-.24,5.54,5.54,0,0,0-.78.06l-.85.18a7,7,0,0,0-.85.26,11.39,11.39,0,0,0-1.12.49l.37-2.93a8.2,8.2,0,0,1,1.61-.55,8.06,8.06,0,0,1,1.94-.22,6.86,6.86,0,0,1,1.74.21,4,4,0,0,1,1.42.68,3.19,3.19,0,0,1,.94,1.24,4.61,4.61,0,0,1,.34,1.84v5.66a11.16,11.16,0,0,1-2.17.62,12.4,12.4,0,0,1-2.17.19A8.47,8.47,0,0,1,236.15,44.57Zm2.72-4.27a5.67,5.67,0,0,0-.79-.06,5,5,0,0,0-.81.06,2.56,2.56,0,0,0-.64.18,1,1,0,0,0-.41.3.86.86,0,0,0-.13.46.76.76,0,0,0,.51.73,3.41,3.41,0,0,0,1.34.22,6.33,6.33,0,0,0,.86-.06,4.54,4.54,0,0,0,.65-.14V40.4A4.85,4.85,0,0,0,238.87,40.3Z"/><path class="cls-1" d="M255.53,37.45a1.69,1.69,0,0,0-1.26-.4,4.19,4.19,0,0,0-.82.09,2.6,2.6,0,0,0-.76.25c.1.19.15.29.16.32s0,.12,0,.29,0,.35.05.53,0,.34,0,.47v5.55h-2.79V39.07a4.6,4.6,0,0,0-.1-1,1.45,1.45,0,0,0-.3-.61,1.08,1.08,0,0,0-.51-.3,3.48,3.48,0,0,0-1.48,0l-.64.1v7.33h-2.79V34.86c.87-.15,1.66-.29,2.36-.39a11.77,11.77,0,0,1,1.79-.16,7.26,7.26,0,0,1,1.54.16,2.65,2.65,0,0,1,1.17.49,12.57,12.57,0,0,1,1.53-.45,7.25,7.25,0,0,1,3.3,0,3.33,3.33,0,0,1,1.4.64,3.11,3.11,0,0,1,.93,1.27,5.11,5.11,0,0,1,.34,2v6.14h-2.79V39.07A2.41,2.41,0,0,0,255.53,37.45Z"/><path class="cls-1" d="M272,37.45a1.66,1.66,0,0,0-1.26-.4,4.27,4.27,0,0,0-.82.09,2.71,2.71,0,0,0-.76.25,2,2,0,0,1,.16.32,2.3,2.3,0,0,1,0,.29c0,.17,0,.35.06.53s0,.34,0,.47v5.55h-2.79V39.07a4.07,4.07,0,0,0-.1-1,1.58,1.58,0,0,0-.29-.61,1.07,1.07,0,0,0-.52-.3,2.91,2.91,0,0,0-.79-.09,3.11,3.11,0,0,0-.69.07l-.64.1v7.33h-2.79V34.86c.88-.15,1.66-.29,2.36-.39a11.88,11.88,0,0,1,1.8-.16,7.23,7.23,0,0,1,1.53.16,2.65,2.65,0,0,1,1.17.49,13.13,13.13,0,0,1,1.53-.45,7.29,7.29,0,0,1,3.31,0,3.35,3.35,0,0,1,1.39.64,3.23,3.23,0,0,1,.94,1.27,5.31,5.31,0,0,1,.33,2v6.14h-2.79V39.07A2.41,2.41,0,0,0,272,37.45Z"/><path class="cls-1" d="M277.56,33.22a1.31,1.31,0,0,1-.49-1.1,1.35,1.35,0,0,1,.47-1.06,1.8,1.8,0,0,1,2.26,0,1.37,1.37,0,0,1,.45,1.06,1.41,1.41,0,0,1-.44,1.08,1.64,1.64,0,0,1-1.14.4A1.74,1.74,0,0,1,277.56,33.22Zm2.51,1.43v9.9h-2.79v-9.9Z"/><path class="cls-1" d="M283.67,34.6l1.16-.15,1.07-.1c.34,0,.64,0,.91,0a8.33,8.33,0,0,1,1.76.18,3.64,3.64,0,0,1,1.46.64,3.35,3.35,0,0,1,1,1.27,4.75,4.75,0,0,1,.37,2v6.14h-2.79V39.08a2.15,2.15,0,0,0-.47-1.61,2.09,2.09,0,0,0-1.43-.42c-.25,0-.52,0-.82.05l-.76.1v7.35h-2.79V34.83Z"/><path class="cls-1" d="M293.08,37.38a4.59,4.59,0,0,1,1.14-1.62A5.31,5.31,0,0,1,296,34.7a7.06,7.06,0,0,1,2.42-.39,14.51,14.51,0,0,1,4,.55v8.75a8.11,8.11,0,0,1-.26,2.19,3,3,0,0,1-.87,1.47,3.63,3.63,0,0,1-1.6.82,10.28,10.28,0,0,1-2.42.24l-.66,0-.74-.09-.73-.14a7.7,7.7,0,0,1-.78-.21l-.62-3a9.91,9.91,0,0,0,1.14.44l.87.22c.3.06.58.11.87.15a7.24,7.24,0,0,0,.75,0,4.48,4.48,0,0,0,.94-.09,2.11,2.11,0,0,0,.72-.26,1.37,1.37,0,0,0,.44-.42,1.11,1.11,0,0,0,.15-.6v0a3.93,3.93,0,0,1-.66.08l-.75,0a6.36,6.36,0,0,1-2.27-.4A5.32,5.32,0,0,1,294.23,43a4.59,4.59,0,0,1-1.14-1.61,5.21,5.21,0,0,1-.39-2A5.38,5.38,0,0,1,293.08,37.38Zm6-.27a4.18,4.18,0,0,0-.68-.06,3.43,3.43,0,0,0-2.08.56,2.53,2.53,0,0,0,0,3.58,3.3,3.3,0,0,0,2.08.59,5.13,5.13,0,0,0,.65-.05l.59-.09V37.2Z"/></svg>