<svg id="Layer_1" data-name="Layer 1" xmlns="http://www.w3.org/2000/svg" viewBox="0 0 192.78 60"><defs><style>.cls-1{fill:#fff;}</style></defs><title>الشعارات الاساسية</title><path class="cls-1" d="M.67,27.77A7.61,7.61,0,0,1,.3,25.29a9.62,9.62,0,0,1,.19-1.92H1.58a7.41,7.41,0,0,1-.35-1A5.32,5.32,0,0,1,1,20.78a4.71,4.71,0,0,1,.49-2.21A5,5,0,0,1,2.77,17a4.19,4.19,0,0,1,1.44-.78A5.55,5.55,0,0,1,6,15.94a6.56,6.56,0,0,1,1.85.25A11,11,0,0,1,9.74,17l-1,2.55a7.56,7.56,0,0,0-1.36-.62,4,4,0,0,0-1.18-.2,2.53,2.53,0,0,0-1.69.52A2.21,2.21,0,0,0,4,20a2.67,2.67,0,0,0-.16.95A4.27,4.27,0,0,0,4,22.35a3.52,3.52,0,0,0,.56,1H10v2.79H3.13v0a4.44,4.44,0,0,0,.17,1.19,7.28,7.28,0,0,0,.7,1.5l-2.2,1A8.36,8.36,0,0,1,.67,27.77Z"/><path class="cls-1" d="M15,12.09V26.16h-2.8V12.09Z"/><path class="cls-1" d="M22.3,23.37V21a3.2,3.2,0,0,0-.1-.81,1.71,1.71,0,0,0-.31-.6,1.19,1.19,0,0,0-.52-.4,1.78,1.78,0,0,0-.74-.15H19.41V16.26h1a6.26,6.26,0,0,1,2.07.31,3.86,3.86,0,0,1,1.58,1,3.41,3.41,0,0,1,.81,1.54,8.38,8.38,0,0,1,.23,2v2.25H26.9v2.79H16.43V23.37Z"/><path class="cls-1" d="M29.9,23.37v2.79H26.15V23.37Z"/><path class="cls-1" d="M32.88,23.37v2.79H29.13V23.37Z"/><path class="cls-1" d="M35.85,23.37v2.79H32.1V23.37Z"/><path class="cls-1" d="M38.83,23.37v2.79H35.08V23.37Z"/><path class="cls-1" d="M41.8,23.37v2.79H38.05V23.37Z"/><path class="cls-1" d="M43.12,23.37V16.26h2.79v9.9H41V23.37Zm.32,6a1.3,1.3,0,0,1-.49-1.1,1.33,1.33,0,0,1,.46-1.06,1.81,1.81,0,0,1,2.27,0,1.33,1.33,0,0,1,.46,1.06,1.32,1.32,0,0,1-.48,1.1,1.74,1.74,0,0,1-1.11.38A1.7,1.7,0,0,1,43.44,29.36Z"/><path class="cls-1" d="M52.42,23.37a3.53,3.53,0,0,0,1-.14,2.22,2.22,0,0,0,.77-.38,1.81,1.81,0,0,0,.45-.63,2.24,2.24,0,0,0,.17-.95V10.84h3.89v2.79h-1.1v7.55a6.6,6.6,0,0,1-.32,2.08,4,4,0,0,1-1,1.64,4.48,4.48,0,0,1-1.86,1,9.82,9.82,0,0,1-2.48.29H47.71l-.34-2.79Zm-3,6.41A2.19,2.19,0,0,1,48.82,28V27h3.93v1.7H50.6a.46.46,0,0,0,.14.25.77.77,0,0,0,.55.15h.92v1.19H51.15A2.53,2.53,0,0,1,49.45,29.78Zm3.13-16.11V23H49.79v-9.3Z"/><path class="cls-1" d="M64,12.09V26.16H61.21V12.09Z"/><path class="cls-1" d="M73.72,28.2A8.9,8.9,0,0,1,72.5,28a7.44,7.44,0,0,1-1.07-.35c-.33-.15-.75-.36-1.26-.64l1.13-2.47a6.71,6.71,0,0,0,1.72.74,6,6,0,0,0,1.49.18h3.06V21a6,6,0,0,1,.36-2.18A3.62,3.62,0,0,1,79.1,17.2a4,4,0,0,1,1.48-.72,7.38,7.38,0,0,1,1.87-.22h3.4v9.9h-2.8V19.05H82.2a3.26,3.26,0,0,0-.73.08,1.43,1.43,0,0,0-.56.29,1.38,1.38,0,0,0-.39.59,2,2,0,0,0-.16.79v7.46H75.27C74.67,28.26,74.16,28.24,73.72,28.2Zm.09-7.55a1.3,1.3,0,0,1-.49-1.1,1.33,1.33,0,0,1,.46-1.06,1.81,1.81,0,0,1,2.27,0,1.33,1.33,0,0,1,.46,1.06,1.32,1.32,0,0,1-.48,1.1,1.74,1.74,0,0,1-1.11.38A1.7,1.7,0,0,1,73.81,20.65Zm0,3.57a1.3,1.3,0,0,1-.49-1.1,1.33,1.33,0,0,1,.46-1.06,1.78,1.78,0,0,1,2.27,0,1.33,1.33,0,0,1,.46,1.06,1.32,1.32,0,0,1-.48,1.1,1.8,1.8,0,0,1-1.11.38A1.76,1.76,0,0,1,73.81,24.22Z"/><path class="cls-1" d="M87.81,29.82a4.09,4.09,0,0,1-.7-.16l-.2-2.81a7.87,7.87,0,0,0,.85.18,2.63,2.63,0,0,0,.49,0,1,1,0,0,0,.82-.31,2,2,0,0,0,.22-1.12V16.26h2.8v9a9.13,9.13,0,0,1-.2,2,3.68,3.68,0,0,1-.63,1.43,2.6,2.6,0,0,1-1.12.84,4.51,4.51,0,0,1-1.64.27A5.32,5.32,0,0,1,87.81,29.82Z"/><path class="cls-1" d="M98.59,23.37a3.55,3.55,0,0,0,1-.14,2.22,2.22,0,0,0,.77-.38,1.81,1.81,0,0,0,.45-.63,2.24,2.24,0,0,0,.17-.95V10.84h3.89v2.79h-1.1v7.55a6.22,6.22,0,0,1-.16,1.48,3.14,3.14,0,0,0,2.4.71v2.79a5.89,5.89,0,0,1-1.58-.16,3.62,3.62,0,0,1-1-.41,2.34,2.34,0,0,1-.63-.57,3.22,3.22,0,0,0-.24-.29s0,.05-.17.17a4.38,4.38,0,0,1-1.85,1,9.82,9.82,0,0,1-2.48.29H93.89l-.34-2.79Zm.17-9.7V23H96v-9.3Z"/><path class="cls-1" d="M109,23.37v2.79h-3.75V23.37Z"/><path class="cls-1" d="M112,23.37v2.79h-3.75V23.37Z"/><path class="cls-1" d="M114.94,23.37v2.79h-3.75V23.37Z"/><path class="cls-1" d="M117.92,23.37v2.79h-3.75V23.37Z"/><path class="cls-1" d="M120.89,23.37v2.79h-3.75V23.37Z"/><path class="cls-1" d="M123.87,23.37v2.79h-3.75V23.37Z"/><path class="cls-1" d="M125.8,23.37a3.38,3.38,0,0,1-.36-.79,4.08,4.08,0,0,1-.23-1.38,4.81,4.81,0,0,1,.43-2.08,4.5,4.5,0,0,1,1.21-1.56,5.33,5.33,0,0,1,1.86-1,8.44,8.44,0,0,1,2.37-.32h3v9.9h-10.3V23.37Zm1.7-8.48a1.42,1.42,0,0,1,0-2.08,1.7,1.7,0,0,1,2.17,0,1.42,1.42,0,0,1,0,2.08,1.75,1.75,0,0,1-2.15,0Zm.82,7.59a2.78,2.78,0,0,0,.81.89h2.15V19.05h-.77a2.91,2.91,0,0,0-.93.14,2.57,2.57,0,0,0-.81.41,2.13,2.13,0,0,0-.56.67,2,2,0,0,0-.21.93A2.56,2.56,0,0,0,128.32,22.48Zm2.83-7.59a1.26,1.26,0,0,1-.46-1.06,1.29,1.29,0,0,1,.45-1,1.72,1.72,0,0,1,2.18,0,1.3,1.3,0,0,1,.43,1,1.29,1.29,0,0,1-.45,1.06,1.75,1.75,0,0,1-2.15,0Z"/><path class="cls-1" d="M3.85,43.22a9.71,9.71,0,0,1-1,0A4.81,4.81,0,0,1,2.06,43a3.41,3.41,0,0,1-.67-.3,4.19,4.19,0,0,1-.59-.45,2.35,2.35,0,0,1-.62-1.09A5.32,5.32,0,0,1,0,39.75V37.48H1.68v2.07a3.51,3.51,0,0,0,.11.92,1.34,1.34,0,0,0,.39.61,1.66,1.66,0,0,0,.78.36,4.68,4.68,0,0,0,1,.1H7.33V36.46H9v6.76Zm.07-7.36a1,1,0,0,1-.66.22,1,1,0,0,1-.66-.22.78.78,0,0,1-.27-.64.77.77,0,0,1,.27-.62,1,1,0,0,1,.66-.24,1,1,0,0,1,.67.24.77.77,0,0,1,.27.62A.76.76,0,0,1,3.92,35.86Zm2.61,0a1,1,0,0,1-.66.22,1,1,0,0,1-.66-.22.76.76,0,0,1-.28-.64.77.77,0,0,1,.27-.62,1,1,0,0,1,.67-.24,1,1,0,0,1,.67.24.76.76,0,0,1,.26.62A.78.78,0,0,1,6.53,35.86Z"/><path class="cls-1" d="M11.3,33.49H13v8h1.54v1.68H11.3Z"/><path class="cls-1" d="M14.28,41.54h1.16a2.2,2.2,0,0,1-.06-.37c0-.13,0-.26,0-.4a3.58,3.58,0,0,1,.28-1.43,3.72,3.72,0,0,1,.77-1.17A3.57,3.57,0,0,1,19,37.1a3.56,3.56,0,0,1,1.42.28,3.7,3.7,0,0,1,1.16.78,3.21,3.21,0,0,1,.78,1.16,3.68,3.68,0,0,1,.29,1.45,3.35,3.35,0,0,1-.3,1.42,3.41,3.41,0,0,1-.8,1.14,3.62,3.62,0,0,1-1.16.75,3.45,3.45,0,0,1-1.39.28,3.36,3.36,0,0,1-1.44-.31,3.77,3.77,0,0,1-1.18-.83h-2Zm3.91,1a1.87,1.87,0,0,0,.76.15,2.1,2.1,0,0,0,.76-.14,1.85,1.85,0,0,0,.64-.41,1.75,1.75,0,0,0,.42-.61,1.92,1.92,0,0,0,.15-.77,2,2,0,0,0-.15-.78,1.76,1.76,0,0,0-.41-.63,1.92,1.92,0,0,0-.62-.41,2,2,0,0,0-.79-.15,1.77,1.77,0,0,0-.77.16,1.81,1.81,0,0,0-.6.42,1.89,1.89,0,0,0-.4.62,2.19,2.19,0,0,0-.14.77,2.14,2.14,0,0,0,.14.76,1.85,1.85,0,0,0,.4.61A2.11,2.11,0,0,0,18.19,42.53Z"/><path class="cls-1" d="M29.7,41.54h1.12v1.68H29.68a4.31,4.31,0,0,1-.23,1.07,2.17,2.17,0,0,1-.54.84,2.48,2.48,0,0,1-.93.54,4.17,4.17,0,0,1-1.36.19l-.45,0-.4-.05-.41-.09-.5-.13-.12-1.69a8.23,8.23,0,0,0,.92.23,4.76,4.76,0,0,0,.84.07,5.53,5.53,0,0,0,.61,0,1.25,1.25,0,0,0,.45-.13.86.86,0,0,0,.3-.3,1.41,1.41,0,0,0,.15-.5h-.19A6.43,6.43,0,0,1,26.2,43a3.93,3.93,0,0,1-1.31-.6,2.79,2.79,0,0,1-.87-1,3.47,3.47,0,0,1-.32-1.54A3.12,3.12,0,0,1,24,38.42a2.92,2.92,0,0,1,.85-1.06,4,4,0,0,1,1.3-.66,5.46,5.46,0,0,1,1.66-.24h1.89Zm-4.32-1.7a1.67,1.67,0,0,0,.15.73,1.58,1.58,0,0,0,.41.54,1.92,1.92,0,0,0,.62.32,2.68,2.68,0,0,0,.76.11H28v-3.4h-.71a2.22,2.22,0,0,0-.72.12,1.93,1.93,0,0,0-.63.35,1.6,1.6,0,0,0-.43.53A1.47,1.47,0,0,0,25.38,39.84Z"/><path class="cls-1" d="M30.59,41.54h1.17v-8h1.68v8H35v1.68H30.59Z"/><path class="cls-1" d="M34.74,41.54h2l-1.49-3.82c.29-.24.58-.47.87-.68A6.4,6.4,0,0,1,37,36.5a4.55,4.55,0,0,1,.93-.35A3.64,3.64,0,0,1,39,36a4.15,4.15,0,0,1,2,.48,8.06,8.06,0,0,1,1.74,1.24l-1.44,3.8h2.21v1.68H34.74ZM39,37.8A2.73,2.73,0,0,0,38,38a4.15,4.15,0,0,0-.88.49l1.09,3.1H39.7l1.09-3.11a4.36,4.36,0,0,0-.91-.49A2.62,2.62,0,0,0,39,37.8Z"/><path class="cls-1" d="M43.19,41.54h1.16a2.2,2.2,0,0,1-.06-.37,2.61,2.61,0,0,1,0-.4,3.58,3.58,0,0,1,.28-1.43,3.72,3.72,0,0,1,.77-1.17,3.5,3.5,0,0,1,1.14-.78,3.44,3.44,0,0,1,1.4-.29,3.6,3.6,0,0,1,1.42.28,3.7,3.7,0,0,1,1.16.78,3.49,3.49,0,0,1,.78,1.16,3.67,3.67,0,0,1,.28,1.45,2.61,2.61,0,0,1,0,.4l-.06.37h1.34v1.68H50.52a3.58,3.58,0,0,1-1.19.84,3.65,3.65,0,0,1-1.47.3,3.3,3.3,0,0,1-1.44-.31,3.77,3.77,0,0,1-1.18-.83H43.19Zm3.91,1a1.87,1.87,0,0,0,.76.15,2.14,2.14,0,0,0,.76-.14,1.91,1.91,0,0,0,.63-.41,1.75,1.75,0,0,0,.42-.61,1.92,1.92,0,0,0,.15-.77,2,2,0,0,0-.14-.78,1.84,1.84,0,0,0-1-1,2.06,2.06,0,0,0-.79-.15,1.77,1.77,0,0,0-.77.16,1.81,1.81,0,0,0-.6.42,1.89,1.89,0,0,0-.4.62,2.19,2.19,0,0,0-.14.77,2.14,2.14,0,0,0,.14.76,1.85,1.85,0,0,0,.4.61A2.11,2.11,0,0,0,47.1,42.53Z"/><path class="cls-1" d="M52.52,41.54H53.7v-8h2.46v1.68h-.78v8H52.52Z"/><path class="cls-1" d="M58.2,33.49h1.68v9.73H58.2Z"/><path class="cls-1" d="M71.24,44.54a3.33,3.33,0,0,1-1.14-.19,3.82,3.82,0,0,1-1-.53A3.63,3.63,0,0,1,67.82,42a1.24,1.24,0,0,0-1,.48,1.55,1.55,0,0,0-.28.68,4.18,4.18,0,0,0-.08.88v1.8H64.8V44A5.49,5.49,0,0,1,65,42.42a3.12,3.12,0,0,1,.68-1.19,1.8,1.8,0,0,1,.44-.38,3.15,3.15,0,0,1,.51-.28,3.5,3.5,0,0,1,.55-.17,2.35,2.35,0,0,1,.51-.06,4.13,4.13,0,0,1,.42-1.21,3.4,3.4,0,0,1,.79-1A3.53,3.53,0,0,1,70,37.51a3.48,3.48,0,0,1,1.26-.23,3.61,3.61,0,0,1,1.43.28,3.7,3.7,0,0,1,1.16.78,3.49,3.49,0,0,1,.78,1.16A3.67,3.67,0,0,1,74.89,41a2.81,2.81,0,0,1,0,.3,2.89,2.89,0,0,1,0,.29h1.32v1.68h-2.1a3.6,3.6,0,0,1-1.24,1A3.69,3.69,0,0,1,71.24,44.54Zm-.75-1.83a1.86,1.86,0,0,0,.75.15,2.19,2.19,0,0,0,.77-.14,1.91,1.91,0,0,0,.63-.41,1.75,1.75,0,0,0,.42-.61,1.92,1.92,0,0,0,.15-.77,2.21,2.21,0,0,0-.14-.78,2.08,2.08,0,0,0-.41-.63,2,2,0,0,0-.62-.41,2.11,2.11,0,0,0-.8-.15,1.8,1.8,0,0,0-.77.16,1.67,1.67,0,0,0-.59.42,1.89,1.89,0,0,0-.4.62,2,2,0,0,0-.15.77,1.94,1.94,0,0,0,.15.76,1.85,1.85,0,0,0,.4.61A1.87,1.87,0,0,0,70.49,42.71Z"/><path class="cls-1" d="M75.92,41.54H77.1v-8h1.68v3.57h3.66a4.44,4.44,0,0,1,1.43.21,2.63,2.63,0,0,1,1.06.69,2.25,2.25,0,0,1,.54,1,5.45,5.45,0,0,1,.16,1.38v1.16h1.3v1.68h-11Zm2.86-2.81v2.81H84V40.3a2.35,2.35,0,0,0-.08-.63,1.31,1.31,0,0,0-.24-.47,1.23,1.23,0,0,0-.43-.34,1.45,1.45,0,0,0-.59-.13Zm3.27-3a1.12,1.12,0,0,1-.69.22,1.1,1.1,0,0,1-.69-.22.91.91,0,0,1,0-1.32,1,1,0,0,1,.7-.24,1,1,0,0,1,.7.24.91.91,0,0,1,0,1.32Z"/><path class="cls-1" d="M86.7,41.54h1.49V36.46h1.68v6.76H86.7Zm3-6.32a1.1,1.1,0,0,1-.69.22,1.12,1.12,0,0,1-.69-.22.83.83,0,0,1-.29-.68.81.81,0,0,1,.28-.64,1.14,1.14,0,0,1,1.4,0,.82.82,0,0,1,.29.64A.81.81,0,0,1,89.68,35.22Z"/><path class="cls-1" d="M102,41.54v1.68H99A6.54,6.54,0,0,1,97.3,43a3.84,3.84,0,0,1-1.3-.63,3,3,0,0,1-.85-1,3.48,3.48,0,0,1-.3-1.49,3.32,3.32,0,0,1,.27-1.35,3,3,0,0,1,.81-1.07,3.81,3.81,0,0,1,1.29-.71A5.38,5.38,0,0,1,99,36.46h.24v-.6h1.68v5.68Zm-4-6.79a1,1,0,0,1-.66.23,1,1,0,0,1-.66-.23.75.75,0,0,1-.28-.64.8.8,0,0,1,.27-.62,1.08,1.08,0,0,1,1.33,0,.8.8,0,0,1,.27.62A.77.77,0,0,1,97.92,34.75Zm1.27,6.79v-3.4h-.65a2.28,2.28,0,0,0-.73.12,1.9,1.9,0,0,0-.65.33,1.68,1.68,0,0,0-.46.53,1.46,1.46,0,0,0-.17.73,1.54,1.54,0,0,0,.16.73,1.7,1.7,0,0,0,.43.53,1.92,1.92,0,0,0,.62.32,2.46,2.46,0,0,0,.72.11Zm1.33-6.79a1,1,0,0,1-.66.23,1,1,0,0,1-.66-.23.77.77,0,0,1-.27-.64.8.8,0,0,1,.27-.62,1,1,0,0,1,.66-.23,1,1,0,0,1,.67.23.8.8,0,0,1,.27.62A.75.75,0,0,1,100.52,34.75Z"/><path class="cls-1" d="M101.75,41.54h2.5V36.46h1.68v5.08h2.21v1.68h-6.39Zm2.61,4a1,1,0,0,1-.66.22,1.09,1.09,0,0,1-.66-.22.77.77,0,0,1-.27-.64.8.8,0,0,1,.27-.62,1,1,0,0,1,1.33,0,.8.8,0,0,1,.27.62A.75.75,0,0,1,104.36,45.56Zm2.61,0a1.09,1.09,0,0,1-.66.22,1,1,0,0,1-.66-.22.75.75,0,0,1-.28-.64.8.8,0,0,1,.27-.62,1.06,1.06,0,0,1,1.34,0,.82.82,0,0,1,.26.62A.77.77,0,0,1,107,45.56Z"/><path class="cls-1" d="M107.9,41.54h2.37v1.68H107.9Z"/><path class="cls-1" d="M110,41.54h2.36v1.68H110Z"/><path class="cls-1" d="M112.15,41.54h1.49V36.46h1.68v5.08h1.28v1.68h-4.45Zm3-6.32a1.19,1.19,0,0,1-1.38,0,.91.91,0,0,1,0-1.32,1.14,1.14,0,0,1,1.4,0,.91.91,0,0,1,0,1.32Z"/><path class="cls-1" d="M116.37,41.54H118a3.36,3.36,0,0,1-.42-.77,2.75,2.75,0,0,1-.15-.93,3.25,3.25,0,0,1,.29-1.42,3.06,3.06,0,0,1,.82-1.06,3.67,3.67,0,0,1,1.27-.67,5.72,5.72,0,0,1,1.65-.23h2v5.08h1.1v1.68h-8.15Zm3.94-6.32a1.1,1.1,0,0,1-1.32,0A.86.86,0,0,1,119,34a1.09,1.09,0,0,1,1.34,0,.86.86,0,0,1,0,1.26Zm-1.22,4.62a2,2,0,0,0,.24,1,2.2,2.2,0,0,0,.67.72h1.74v-3.4H121a2.45,2.45,0,0,0-.71.11,1.73,1.73,0,0,0-.63.33,1.76,1.76,0,0,0-.44.53A1.54,1.54,0,0,0,119.09,39.84Zm3.82-4.62a1,1,0,0,1-.66.22,1,1,0,0,1-.66-.22.87.87,0,0,1,0-1.26,1,1,0,0,1,.66-.23,1,1,0,0,1,.68.23.81.81,0,0,1,.26.62A.76.76,0,0,1,122.91,35.22Z"/><path class="cls-1" d="M124.28,41.54h2.51V36.46h1.68v5.08h2.21v1.68h-6.4Zm2.63-6.32a1.1,1.1,0,0,1-1.32,0,.86.86,0,0,1,0-1.26,1.09,1.09,0,0,1,1.34,0,.86.86,0,0,1,0,1.26Zm2.6,0a1,1,0,0,1-.66.22,1,1,0,0,1-.66-.22.87.87,0,0,1,0-1.26,1,1,0,0,1,.66-.23,1,1,0,0,1,.68.23.81.81,0,0,1,.26.62A.76.76,0,0,1,129.51,35.22Z"/><path class="cls-1" d="M130.44,41.54h1.17v-8h2.46v1.68h-.78v8h-2.85Z"/><line class="cls-1" x1="170.18" y1="15.24" x2="168.47" y2="22.67"/><path class="cls-1" d="M168.47,25a2.48,2.48,0,0,1-.54-.06,2.36,2.36,0,0,1-1.77-2.84l1.71-7.43a2.37,2.37,0,1,1,4.62,1.07l-1.72,7.43A2.36,2.36,0,0,1,168.47,25Z"/><path class="cls-1" d="M192.78,1a1.21,1.21,0,0,1-.09.31c0,.05-2.47,5-9.93,1.93-4.37-1.82-6.95-.35-8.25,1A21.24,21.24,0,0,1,188.9,25.51a3.53,3.53,0,0,1-1.42,2.61,3.46,3.46,0,0,1-2.93.58l-.13,0a3.31,3.31,0,0,1-2.53-3.46A14.19,14.19,0,0,0,154,20.86l-3.62,14.48a14.17,14.17,0,0,0,2.15,11.59A14.17,14.17,0,0,0,177.91,42L179,37.63l0-.1-4.43-1.11-.17,0L165,34l-5.72-1.43-.11,0L156.89,32A3.84,3.84,0,0,1,154,28.25a3.77,3.77,0,0,1,.12-.93,3.84,3.84,0,0,1,4.66-2.8l8.14,2.05,14,3.5,6.21,1.55.32.09.18.06.08,0h0l-.46,1.87-.62,2.42-.29,1.2-.27,1.06-.18.73,0,.09,0,.11-1.09,4.4A21.46,21.46,0,0,1,164.85,60h-.66a19.85,19.85,0,0,1-2.83-.2,21.22,21.22,0,0,1-17.81-26.17l3.61-14.48A21.24,21.24,0,0,1,172.6,3.66c1.72-2.25,5.31-4.41,10.85-2.11,5.8,2.42,7.54-.88,7.62-1a.89.89,0,0,1,1.19-.42A.91.91,0,0,1,192.78,1Z"/></svg>