<svg id="Layer_1" data-name="Layer 1" xmlns="http://www.w3.org/2000/svg" viewBox="0 0 324.41 60"><defs><style>.cls-1{fill:#fff;}</style></defs><title>الشعارات الاساسية</title><path class="cls-1" d="M304.12,34.53a1,1,0,1,0,1,1A1,1,0,0,0,304.12,34.53Zm0,0a1,1,0,1,0,1,1A1,1,0,0,0,304.12,34.53Zm-19.5,0a1,1,0,0,0-.9.89,1,1,0,0,0,1.11,1.13,1,1,0,0,0,.92-.92A1,1,0,0,0,284.62,34.53Zm9.79,3.52a1,1,0,1,0,1,1A1,1,0,0,0,294.41,38.05Zm9.71-3.52a1,1,0,1,0,1,1A1,1,0,0,0,304.12,34.53Zm0,0a1,1,0,1,0,1,1A1,1,0,0,0,304.12,34.53Zm-9.71,3.52a1,1,0,1,0,1,1A1,1,0,0,0,294.41,38.05Zm-9.79-3.52a1,1,0,0,0-.9.89,1,1,0,0,0,1.11,1.13,1,1,0,0,0,.92-.92A1,1,0,0,0,284.62,34.53ZM294.41,0a30,30,0,1,0,30,30A30,30,0,0,0,294.41,0Zm17,47a24,24,0,0,1-7.66,5.16,24,24,0,0,1-31.47-12.79,24,24,0,0,1,0-18.71A24,24,0,0,1,285.06,7.87a23.93,23.93,0,0,1,18.69,0,21.06,21.06,0,0,1,2,1,.58.58,0,0,1,.19.1,3.23,3.23,0,0,1,1.63,2.79A3.28,3.28,0,0,1,304.28,15a3.12,3.12,0,0,1-1.4-.31,2.52,2.52,0,0,0-.29-.16A17.61,17.61,0,1,0,310.46,23l-5,3.55a3.53,3.53,0,0,1,.27,1.95,4,4,0,0,1-4,3.5h-2V30.66H300c.63,0,1.29,0,1.92-.05a2.61,2.61,0,0,0,2.45-2.45,4.52,4.52,0,0,0-.08-.84,2.56,2.56,0,0,0-2.18-1.93c-.29-.05-.61-.05-.9-.07a.26.26,0,0,1-.18-.16v-.34a2.55,2.55,0,0,0-1.16-2.32,3,3,0,0,0-.5-.26,2.54,2.54,0,0,0-3,.68h0a.54.54,0,0,1-.87-.1,7.41,7.41,0,0,0-.42-.71c-1.18-1.79-2.55-2.37-4.26-1.95-2,.52-2.92,1.87-2.95,4.31a.86.86,0,0,1-.84.87,2.71,2.71,0,0,0-2.5,1.95,2.66,2.66,0,0,0,1,2.82,3.4,3.4,0,0,0,2.13.55h1.48V32h-2a4,4,0,0,1-1.1-7.77c.31-.07.45-.18.47-.52a5.27,5.27,0,0,1,9.5-2.79,2.8,2.8,0,0,1,.29.37s0,0,0,0a4.08,4.08,0,0,1,3.52-.29,3.92,3.92,0,0,1,1.16.71l5.79-4.07,5.34-3.79a23.84,23.84,0,0,1,3.71,5.34c.24.47.48,1,.69,1.5a24.1,24.1,0,0,1,0,18.71A24.24,24.24,0,0,1,311.41,47ZM290.14,31.92V29.37c0-1.24,0-2.66,0-3.53h1.29c0,.69,0,1.63,0,2.63s0,1.85,0,2.69c0,1.23,0,2.29,0,2.66a2.45,2.45,0,0,1-2.5,2.36h-.74a1.48,1.48,0,0,0-1.68.77,2,2,0,0,1-2.47.73,2.25,2.25,0,0,1,.1-4.26,2.24,2.24,0,0,1,2.5.84c.19.24.47.63.71.63a10.32,10.32,0,0,0,2.4-.26c.21-.08.36-.63.42-1s.05-.47.05-.71S290.14,32.26,290.14,31.92Zm4.9,4.26a1.26,1.26,0,0,0,.5.87,2.38,2.38,0,0,1,1,2.66,2.26,2.26,0,0,1-2.11,1.58,2.19,2.19,0,0,1-2.15-1.58,2.33,2.33,0,0,1,1-2.66,1.18,1.18,0,0,0,.47-.87c0-.39,0-1,0-1.68V24.82H295c0,.31,0,.71,0,1.1v4c0,1.32,0,2.42,0,2.82v1.08C295,34.63,295,35.42,295,36.18Zm2.37-10.34h1.26v7.92a1.09,1.09,0,0,0,1,1.13,10.09,10.09,0,0,0,2,.06c.15,0,.37-.29.47-.48a2.25,2.25,0,0,1,4.21,1.14,2.26,2.26,0,0,1-1.63,2.13,2.12,2.12,0,0,1-2.53-1,.94.94,0,0,0-1-.53c-3.1.27-3.92-1.15-3.73-3.76v-.24C297.43,31.11,297.41,27.5,297.41,25.84Zm6.71,10.71a1,1,0,1,0-1-1A1,1,0,0,0,304.12,36.55Zm-10.74,2.53a1,1,0,0,0,1,1,1,1,0,1,0-1-1Zm-8.76-4.55a1,1,0,0,0-.9.89,1,1,0,0,0,1.11,1.13,1,1,0,0,0,.92-.92A1,1,0,0,0,284.62,34.53Zm9.79,3.52a1,1,0,1,0,1,1A1,1,0,0,0,294.41,38.05Zm9.71-3.52a1,1,0,1,0,1,1A1,1,0,0,0,304.12,34.53Zm0,0a1,1,0,1,0,1,1A1,1,0,0,0,304.12,34.53Zm-9.71,3.52a1,1,0,1,0,1,1A1,1,0,0,0,294.41,38.05Z"/><path class="cls-1" d="M11.38,25.27H6.92A9.41,9.41,0,0,1,4.54,25a5.24,5.24,0,0,1-1.88-.92,4.31,4.31,0,0,1-1.25-1.55,5.22,5.22,0,0,1,0-4.17,4.49,4.49,0,0,1,1.17-1.57,5.54,5.54,0,0,1,1.89-1,7.77,7.77,0,0,1,2.5-.37H7v-.84H9.83v8h1.55ZM3.48,13.35A1.28,1.28,0,0,1,3,12.29a1.29,1.29,0,0,1,.45-1,1.62,1.62,0,0,1,1.08-.38,1.64,1.64,0,0,1,1.09.38,1.32,1.32,0,0,1,.44,1,1.3,1.3,0,0,1-.45,1.06,1.63,1.63,0,0,1-1.08.37A1.62,1.62,0,0,1,3.48,13.35ZM7,18.16H6.35a3.2,3.2,0,0,0-1,.15,2.78,2.78,0,0,0-.84.43,2.1,2.1,0,0,0-.59.67,2.1,2.1,0,0,0,0,1.85,2,2,0,0,0,.54.67,2.87,2.87,0,0,0,.8.41,3.29,3.29,0,0,0,.94.14H7Zm.08-4.81a1.3,1.3,0,0,1-.45-1.06,1.29,1.29,0,0,1,.45-1,1.6,1.6,0,0,1,1.08-.38,1.61,1.61,0,0,1,1.09.38,1.32,1.32,0,0,1,.44,1,1.3,1.3,0,0,1-.45,1.06,1.65,1.65,0,0,1-1.08.37A1.67,1.67,0,0,1,7.12,13.35Z"/><path class="cls-1" d="M14.37,22.48v2.79H10.62V22.48Z"/><path class="cls-1" d="M17.35,22.48v2.79H13.6V22.48Z"/><path class="cls-1" d="M18.61,22.48a3.38,3.38,0,0,1-.36-.79A4,4,0,0,1,18,20.31a5,5,0,0,1,.43-2.08,4.5,4.5,0,0,1,1.21-1.56,5.15,5.15,0,0,1,1.86-1,8.08,8.08,0,0,1,2.37-.33h3v9.9H16.58V22.48Zm2.52-.89a2.79,2.79,0,0,0,.81.89h2.15V18.16h-.77a3.22,3.22,0,0,0-.93.14,2.57,2.57,0,0,0-.81.41,2.07,2.07,0,0,0-.56.68,2,2,0,0,0-.21.92A2.56,2.56,0,0,0,21.13,21.59ZM22.08,14a1.31,1.31,0,0,1-.49-1.1,1.33,1.33,0,0,1,.46-1.06,1.78,1.78,0,0,1,2.27,0,1.33,1.33,0,0,1,.46,1.06,1.31,1.31,0,0,1-.49,1.1,1.8,1.8,0,0,1-2.21,0Z"/><path class="cls-1" d="M32.18,11.2V22.48h2.15v2.79H29.39V11.2Z"/><path class="cls-1" d="M37.31,22.48v2.79H33.56V22.48Z"/><path class="cls-1" d="M40.29,22.48v2.79H36.54V22.48Z"/><path class="cls-1" d="M43.26,22.48v2.79H39.51V22.48Z"/><path class="cls-1" d="M46.24,22.48v2.79H42.49V22.48Z"/><path class="cls-1" d="M47.11,22.48V15.37h2.8v.84h4.91a6.26,6.26,0,0,1,2.07.31,3.89,3.89,0,0,1,1.57,1,3.25,3.25,0,0,1,.82,1.53,8.44,8.44,0,0,1,.23,2v1.41h1.81v2.79H45.47V22.48Zm2.8,0h6.8V21a2.83,2.83,0,0,0-.1-.82,1.54,1.54,0,0,0-.3-.6,1.46,1.46,0,0,0-.52-.41,1.78,1.78,0,0,0-.74-.16H49.91Zm2.23-7.73a1.32,1.32,0,0,1-.49-1.1,1.34,1.34,0,0,1,.47-1.06,1.63,1.63,0,0,1,1.13-.4,1.67,1.67,0,0,1,1.14.4,1.36,1.36,0,0,1,.46,1.06,1.3,1.3,0,0,1-.49,1.1,1.7,1.7,0,0,1-1.11.38A1.74,1.74,0,0,1,52.14,14.75Z"/><path class="cls-1" d="M64.32,22.48v2.79H60.57V22.48Z"/><path class="cls-1" d="M67.29,22.48v2.79H63.54V22.48Z"/><path class="cls-1" d="M70,22.48V15.37h2.79v7.11h3.09v2.79h-9.4V22.48ZM68.42,14A1.3,1.3,0,0,1,68,13a1.32,1.32,0,0,1,.44-1,1.7,1.7,0,0,1,2.17,0A1.29,1.29,0,0,1,71,13,1.28,1.28,0,0,1,70.57,14a1.75,1.75,0,0,1-2.15,0Zm3.65,0A1.3,1.3,0,0,1,71.62,13a1.28,1.28,0,0,1,.44-1,1.6,1.6,0,0,1,1.09-.39,1.58,1.58,0,0,1,1.09.39,1.44,1.44,0,0,1,0,2.09,1.75,1.75,0,0,1-2.15,0Z"/><path class="cls-1" d="M78.81,22.48V16.21H81.6v6.27h1.5a3.42,3.42,0,0,0,.7-.08,1.82,1.82,0,0,0,.66-.31,1.57,1.57,0,0,0,.47-.57,2.16,2.16,0,0,0,.17-.92V16.21h2.79V20.6a2.26,2.26,0,0,0,.53,1.55,1.86,1.86,0,0,0,1.37.5,1.71,1.71,0,0,0,1.36-.51,2.05,2.05,0,0,0,.44-1.39V14.19h2.78v6.26a5.36,5.36,0,0,1-1.14,3.75,4.41,4.41,0,0,1-3.44,1.24,6.74,6.74,0,0,1-1-.08,3.62,3.62,0,0,1-1.82-.8,2.29,2.29,0,0,1-.56-.6,4.08,4.08,0,0,1-1.38.91,4.73,4.73,0,0,1-1.93.4H75.15V22.48Z"/><path class="cls-1" d="M100.73,22.48a3.49,3.49,0,0,0,1-.13,2.23,2.23,0,0,0,.77-.39,2,2,0,0,0,.46-.63,2.39,2.39,0,0,0,.16-.95V10H107v2.79h-1.09v7.55a6.14,6.14,0,0,1-.17,1.48,3.14,3.14,0,0,0,2.4.71v2.79a5.89,5.89,0,0,1-1.58-.16,3.32,3.32,0,0,1-1-.41,2.68,2.68,0,0,1-.63-.56c-.16-.21-.23-.31-.23-.3l-.17.17a4.5,4.5,0,0,1-1.86,1,9.79,9.79,0,0,1-2.48.28H96l-.34-2.79Zm-3,6.58a2.19,2.19,0,0,1-.63-1.77v-1h3.93V28H98.91a.46.46,0,0,0,.14.25.77.77,0,0,0,.55.15h.92v1.19H99.46A2.53,2.53,0,0,1,97.76,29.06Zm3.13-16.28v9.3H98.1v-9.3Z"/><path class="cls-1" d="M109,22.48V11.2h3.88V14h-1.09V25.27h-4.44V22.48Z"/><path class="cls-1" d="M119.07,26.88a7.88,7.88,0,0,1-.37-2.48,9.62,9.62,0,0,1,.19-1.92H120a7.41,7.41,0,0,1-.35-1,5.27,5.27,0,0,1-.22-1.57,4.59,4.59,0,0,1,.5-2.21,5.22,5.22,0,0,1,1.26-1.59,4.19,4.19,0,0,1,1.44-.78,5.59,5.59,0,0,1,1.76-.26,6.56,6.56,0,0,1,1.85.25,11,11,0,0,1,1.92.79l-.95,2.56a7.66,7.66,0,0,0-1.36-.63,3.89,3.89,0,0,0-1.17-.2,2.6,2.6,0,0,0-1.7.52,2,2,0,0,0-.57.79,2.4,2.4,0,0,0-.17.95,4,4,0,0,0,.22,1.38,3.29,3.29,0,0,0,.55,1h5.45v2.79h-6.91v0a4.43,4.43,0,0,0,.17,1.18,7.57,7.57,0,0,0,.7,1.51l-2.2,1A8.51,8.51,0,0,1,119.07,26.88Z"/><path class="cls-1" d="M133.42,11.2V25.27h-2.79V11.2Z"/><path class="cls-1" d="M140.7,22.48V20.13a2.83,2.83,0,0,0-.1-.82,1.71,1.71,0,0,0-.31-.6,1.27,1.27,0,0,0-.52-.4,1.78,1.78,0,0,0-.74-.15h-1.22V15.37h1a6.32,6.32,0,0,1,2.08.31,3.92,3.92,0,0,1,1.57,1,3.32,3.32,0,0,1,.81,1.53,8.44,8.44,0,0,1,.23,2v2.25h1.82v2.79H134.83V22.48Z"/><path class="cls-1" d="M148.3,22.48v2.79h-3.75V22.48Z"/><path class="cls-1" d="M151.28,22.48v2.79h-3.75V22.48Z"/><path class="cls-1" d="M154.25,22.48v2.79H150.5V22.48Z"/><path class="cls-1" d="M157.23,22.48v2.79h-3.75V22.48Z"/><path class="cls-1" d="M160.21,22.48v2.79h-3.75V22.48Z"/><path class="cls-1" d="M163.18,22.48v2.79h-3.75V22.48Z"/><path class="cls-1" d="M166.16,22.48v2.79h-3.75V22.48Z"/><path class="cls-1" d="M167.47,22.48V15.37h2.79v9.9h-4.88V22.48Zm.32,6a1.28,1.28,0,0,1-.49-1.1,1.38,1.38,0,0,1,.46-1.06,1.72,1.72,0,0,1,1.14-.4,1.68,1.68,0,0,1,1.13.4,1.35,1.35,0,0,1,.47,1.06,1.31,1.31,0,0,1-.49,1.1,1.74,1.74,0,0,1-1.11.38A1.7,1.7,0,0,1,167.79,28.47Z"/><path class="cls-1" d="M176.77,22.48a3.44,3.44,0,0,0,1-.13,2.38,2.38,0,0,0,.78-.39,1.81,1.81,0,0,0,.45-.63,2.37,2.37,0,0,0,.17-.95V10H183v2.79H182v7.55a6.61,6.61,0,0,1-.33,2.08,3.88,3.88,0,0,1-1,1.64,4.44,4.44,0,0,1-1.86,1,9.79,9.79,0,0,1-2.48.28h-4.22l-.33-2.79Zm-3,6.42a2.23,2.23,0,0,1-.63-1.78v-1h3.94v1.7H175a.43.43,0,0,0,.15.25.73.73,0,0,0,.54.15h.93v1.19h-1.06A2.59,2.59,0,0,1,173.8,28.9Zm3.14-16.12v9.3h-2.79v-9.3Z"/><path class="cls-1" d="M188.36,11.2V25.27h-2.79V11.2Z"/><path class="cls-1" d="M198.08,27.31a7.26,7.26,0,0,1-1.22-.19,7.06,7.06,0,0,1-1.07-.35c-.34-.15-.76-.36-1.26-.64l1.13-2.47a7.3,7.3,0,0,0,1.71.75,6.56,6.56,0,0,0,1.5.17h3.06V20.06a6,6,0,0,1,.36-2.18,3.68,3.68,0,0,1,1.17-1.57,4.09,4.09,0,0,1,1.48-.72,7.3,7.3,0,0,1,1.86-.22h3.4v9.9h-2.79V18.16h-.86a3.11,3.11,0,0,0-.72.08,1.54,1.54,0,0,0-.57.29,1.38,1.38,0,0,0-.39.59,2.17,2.17,0,0,0-.15.79v7.46h-5.1C199,27.37,198.51,27.35,198.08,27.31Zm.08-7.55a1.28,1.28,0,0,1-.49-1.1,1.35,1.35,0,0,1,.47-1.06,1.63,1.63,0,0,1,1.13-.4,1.67,1.67,0,0,1,1.14.4,1.38,1.38,0,0,1,.46,1.06,1.28,1.28,0,0,1-.49,1.1,1.72,1.72,0,0,1-1.11.38A1.74,1.74,0,0,1,198.16,19.76Zm0,3.57a1.3,1.3,0,0,1-.49-1.1,1.34,1.34,0,0,1,.47-1.06,1.64,1.64,0,0,1,1.13-.41,1.68,1.68,0,0,1,1.14.41,1.36,1.36,0,0,1,.46,1.06,1.3,1.3,0,0,1-.49,1.1,1.78,1.78,0,0,1-1.11.38A1.8,1.8,0,0,1,198.16,23.33Z"/><path class="cls-1" d="M212.17,28.93a4.19,4.19,0,0,1-.71-.16l-.2-2.81.85.19a4.07,4.07,0,0,0,.5,0,.93.93,0,0,0,.81-.31,2,2,0,0,0,.23-1.12V15.37h2.79v9a9.18,9.18,0,0,1-.19,2,3.68,3.68,0,0,1-.63,1.43,2.57,2.57,0,0,1-1.13.84,4.45,4.45,0,0,1-1.63.27A5.12,5.12,0,0,1,212.17,28.93Z"/><path class="cls-1" d="M223,22.48a3.44,3.44,0,0,0,1-.13,2.23,2.23,0,0,0,.77-.39,1.83,1.83,0,0,0,.46-.63,2.37,2.37,0,0,0,.17-.95V10h3.88v2.79h-1.09v7.55a6.14,6.14,0,0,1-.17,1.48,3.15,3.15,0,0,0,2.4.71v2.79a5.89,5.89,0,0,1-1.58-.16,3.45,3.45,0,0,1-.95-.41,2.68,2.68,0,0,1-.63-.56,2.33,2.33,0,0,0-.23-.3s0,.05-.17.17a4.5,4.5,0,0,1-1.86,1,9.79,9.79,0,0,1-2.48.28h-4.22l-.34-2.79Zm.17-9.7v9.3h-2.79v-9.3Z"/><path class="cls-1" d="M233.34,22.48v2.79h-3.75V22.48Z"/><path class="cls-1" d="M236.32,22.48v2.79h-3.75V22.48Z"/><path class="cls-1" d="M239.29,22.48v2.79h-3.75V22.48Z"/><path class="cls-1" d="M242.27,22.48v2.79h-3.75V22.48Z"/><path class="cls-1" d="M245.25,22.48v2.79H241.5V22.48Z"/><path class="cls-1" d="M247.23,22.48a3.38,3.38,0,0,1-.36-.79,4,4,0,0,1-.23-1.38,5,5,0,0,1,.43-2.08,4.5,4.5,0,0,1,1.21-1.56,5.15,5.15,0,0,1,1.86-1,8.08,8.08,0,0,1,2.37-.33h3v9.9H245.2V22.48Zm1.7-8.47a1.3,1.3,0,0,1-.45-1.06,1.28,1.28,0,0,1,.44-1,1.7,1.7,0,0,1,2.17,0,1.29,1.29,0,0,1,.45,1,1.28,1.28,0,0,1-.46,1.06,1.75,1.75,0,0,1-2.15,0Zm.82,7.58a2.79,2.79,0,0,0,.81.89h2.15V18.16h-.77a3.28,3.28,0,0,0-.93.14,2.57,2.57,0,0,0-.81.41,1.92,1.92,0,0,0-.55.68,1.84,1.84,0,0,0-.22.92A2.56,2.56,0,0,0,249.75,21.59ZM252.58,14a1.31,1.31,0,0,1-.46-1.06,1.29,1.29,0,0,1,.45-1,1.72,1.72,0,0,1,2.18,0,1.44,1.44,0,0,1,0,2.09,1.75,1.75,0,0,1-2.15,0Z"/><path class="cls-1" d="M4.27,44.21A6.67,6.67,0,0,1,2,42.68,6.75,6.75,0,0,1,.51,40.36,7.91,7.91,0,0,1,0,37.49a8,8,0,0,1,.51-2.88A6.8,6.8,0,0,1,2,32.3a6.4,6.4,0,0,1,2.29-1.53,8,8,0,0,1,3-.55,11.85,11.85,0,0,1,2.85.33,8.31,8.31,0,0,1,2.4,1l-1.1,2.53a7.26,7.26,0,0,0-1.9-.84A8.11,8.11,0,0,0,7.38,33a5.19,5.19,0,0,0-1.68.27,3.73,3.73,0,0,0-1.39.84,4.12,4.12,0,0,0-.95,1.41,5.28,5.28,0,0,0-.35,2,5.35,5.35,0,0,0,.35,2,4.37,4.37,0,0,0,.95,1.42,3.73,3.73,0,0,0,1.39.84A5.19,5.19,0,0,0,7.38,42a6.76,6.76,0,0,0,1.41-.15A5.06,5.06,0,0,0,10,41.52v-2.1H6.91V36.7h5.9v6.71a6.49,6.49,0,0,1-1.27.62,10,10,0,0,1-1.38.39,14.55,14.55,0,0,1-1.47.25,14,14,0,0,1-1.41.08A8,8,0,0,1,4.27,44.21Z"/><path class="cls-1" d="M15.42,30.48h2.79V44.55H15.42Z"/><path class="cls-1" d="M22.93,44.58a4.78,4.78,0,0,1-1.5-.57,3.13,3.13,0,0,1-1.05-1,2.93,2.93,0,0,1-.4-1.59,3.19,3.19,0,0,1,.35-1.5,3.07,3.07,0,0,1,1-1.08,4.32,4.32,0,0,1,1.46-.64A7.54,7.54,0,0,1,24.6,38l.86,0a7.19,7.19,0,0,1,.87.1,1,1,0,0,0-.62-.82A3.5,3.5,0,0,0,24.27,37a5.54,5.54,0,0,0-.78.06l-.85.18a7,7,0,0,0-.85.26,11.39,11.39,0,0,0-1.12.49L21,35.08a8.2,8.2,0,0,1,1.61-.55,8.06,8.06,0,0,1,1.94-.22,6.86,6.86,0,0,1,1.74.21,4,4,0,0,1,1.42.68,3.19,3.19,0,0,1,.94,1.24A4.61,4.61,0,0,1,29,38.28v5.66a10.5,10.5,0,0,1-2.17.62,12.4,12.4,0,0,1-2.17.19A9.22,9.22,0,0,1,22.93,44.58Zm2.72-4.28a7.61,7.61,0,0,0-.79,0,6.51,6.51,0,0,0-.81,0,2.56,2.56,0,0,0-.64.18,1,1,0,0,0-.41.3.86.86,0,0,0-.13.46.76.76,0,0,0,.51.73,3.4,3.4,0,0,0,1.34.23,6.36,6.36,0,0,0,.86-.07,4.54,4.54,0,0,0,.65-.14V40.4A4.85,4.85,0,0,0,25.65,40.3Z"/><path class="cls-1" d="M35.5,37.19h-.39l-.53,0c-.18,0-.44.05-.77.09s-.29,0,.11-.13v7.36H31.13V34.93c.41-.08.79-.14,1.12-.19l1-.13,1-.08c.32,0,.6,0,.84,0h2v2.7Z"/><path class="cls-1" d="M39.49,45.31l.86.22.87.15a7.24,7.24,0,0,0,.75,0,4.58,4.58,0,0,0,1-.09,2.06,2.06,0,0,0,.71-.26,1.31,1.31,0,0,0,.45-.42l.15-.24.1-.3a9,9,0,0,1-1.77.16,7.84,7.84,0,0,1-1.72-.17,3.43,3.43,0,0,1-1.39-.65,3.1,3.1,0,0,1-.91-1.27,5.5,5.5,0,0,1-.32-2V34.63H41v5.18a4.74,4.74,0,0,0,.1,1,1.65,1.65,0,0,0,.29.61,1,1,0,0,0,.5.31,2.73,2.73,0,0,0,.76.09,5.27,5.27,0,0,0,.78-.05,4.38,4.38,0,0,0,.77-.15v-7H47v9a8.15,8.15,0,0,1-.25,2.19,3,3,0,0,1-.88,1.47,3.43,3.43,0,0,1-1.6.82,10.22,10.22,0,0,1-2.42.24l-.66,0c-.24,0-.49,0-.73-.09l-.73-.14c-.24,0-.5-.12-.79-.21l-.62-3A10.67,10.67,0,0,0,39.49,45.31Z"/><path class="cls-1" d="M59.45,33.23a3.73,3.73,0,0,0-1.39.84,3.86,3.86,0,0,0-1,1.41,5.09,5.09,0,0,0-.35,2,5.16,5.16,0,0,0,.35,2,4.07,4.07,0,0,0,1,1.42,3.73,3.73,0,0,0,1.39.84,5.1,5.1,0,0,0,1.68.27,5.87,5.87,0,0,0,1.81-.27,8.38,8.38,0,0,0,1.77-.86l1.11,2.56a8.53,8.53,0,0,1-2.26,1,9.54,9.54,0,0,1-2.53.32,8,8,0,0,1-3-.54,6.57,6.57,0,0,1-3.76-3.85,7.91,7.91,0,0,1-.51-2.87,8,8,0,0,1,.51-2.88,6.93,6.93,0,0,1,1.46-2.31A6.53,6.53,0,0,1,58,30.77a8,8,0,0,1,3-.55,9.54,9.54,0,0,1,2.53.33,8.58,8.58,0,0,1,2.26,1l-1.11,2.53a8.26,8.26,0,0,0-1.77-.84A5.87,5.87,0,0,0,61.13,33,5.1,5.1,0,0,0,59.45,33.23Z"/><path class="cls-1" d="M71.4,37.19H71l-.53,0c-.19,0-.45.05-.78.09s-.29,0,.11-.13v7.36H67V34.93l1.13-.19,1-.13,1-.08c.31,0,.59,0,.84,0h2v2.7Z"/><path class="cls-1" d="M80.07,41.94c.27,0,.52-.1.76-.16a3.94,3.94,0,0,0,.66-.25,2.77,2.77,0,0,0,.68-.51l1.26,2.55a10.15,10.15,0,0,1-2,.86,8,8,0,0,1-2.45.32,5.83,5.83,0,0,1-2.15-.39,5.39,5.39,0,0,1-1.72-1.1A4.78,4.78,0,0,1,74,41.61a5.27,5.27,0,0,1-.4-2.07,5.35,5.35,0,0,1,.41-2.1,5.2,5.2,0,0,1,1.13-1.66,5.12,5.12,0,0,1,1.66-1.08,5.65,5.65,0,0,1,4.15,0,4.54,4.54,0,0,1,1.65,1.19,5.22,5.22,0,0,1,1,1.9A8.24,8.24,0,0,1,84,40.53H76.52a1.63,1.63,0,0,0,.82,1,3.19,3.19,0,0,0,1.73.43h.25A4,4,0,0,0,80.07,41.94Zm-2.76-4.65a1.87,1.87,0,0,0-.71.85H81a1.56,1.56,0,0,0-.71-.91,2.53,2.53,0,0,0-1.48-.4A2.36,2.36,0,0,0,77.31,37.29Z"/><path class="cls-1" d="M87.94,44.58A4.82,4.82,0,0,1,86.45,44a3.13,3.13,0,0,1-1-1A2.94,2.94,0,0,1,85,41.39a3.08,3.08,0,0,1,.36-1.5,3,3,0,0,1,1-1.08,4.41,4.41,0,0,1,1.46-.64A7.62,7.62,0,0,1,89.62,38l.85,0a7.37,7.37,0,0,1,.88.1,1.08,1.08,0,0,0-.62-.82A3.55,3.55,0,0,0,89.28,37a5.4,5.4,0,0,0-.77.06l-.86.18a7.63,7.63,0,0,0-.85.26c-.27.1-.65.26-1.12.49l.37-2.93a8.08,8.08,0,0,1,1.62-.55,8,8,0,0,1,1.93-.22,6.94,6.94,0,0,1,1.75.21,3.86,3.86,0,0,1,1.41.68,3.1,3.1,0,0,1,.94,1.24A4.45,4.45,0,0,1,94,38.28v5.66a10.6,10.6,0,0,1-2.16.62,12.51,12.51,0,0,1-2.18.19A9.22,9.22,0,0,1,87.94,44.58Zm2.73-4.28a7.8,7.8,0,0,0-.8,0,6.77,6.77,0,0,0-.81,0,2.56,2.56,0,0,0-.64.18,1,1,0,0,0-.4.3.78.78,0,0,0-.14.46.77.77,0,0,0,.52.73,3.31,3.31,0,0,0,1.33.23,6.36,6.36,0,0,0,.86-.07,5.11,5.11,0,0,0,.66-.14V40.4A5.28,5.28,0,0,0,90.67,40.3Z"/><path class="cls-1" d="M96.9,34.65V31.18h2.79v3.47h3.6v2.62h-3.6v3.21a2.45,2.45,0,0,0,.08.73.83.83,0,0,0,.22.42,1,1,0,0,0,.44.22,2.86,2.86,0,0,0,.72.08h2.21v2.62H100.9a8.32,8.32,0,0,1-1.76-.16,3.16,3.16,0,0,1-1.26-.55,2.21,2.21,0,0,1-.75-1,4.5,4.5,0,0,1-.23-1.52v-4H95.12V34.65Z"/><path class="cls-1" d="M105.32,33.23a1.49,1.49,0,0,1,0-2.17,1.71,1.71,0,0,1,1.13-.4,1.68,1.68,0,0,1,1.13.4,1.51,1.51,0,0,1,0,2.14,1.64,1.64,0,0,1-1.14.4A1.79,1.79,0,0,1,105.32,33.23Zm2.51,1.42v9.9H105v-9.9Z"/><path class="cls-1" d="M108.82,34.65h2.93L114,41.41l2.25-6.76h2.93l-3.41,9.9h-3.53Z"/><path class="cls-1" d="M120.48,33.23a1.31,1.31,0,0,1-.49-1.11,1.34,1.34,0,0,1,.46-1.06,1.71,1.71,0,0,1,1.13-.4,1.68,1.68,0,0,1,1.13.4,1.49,1.49,0,0,1,0,2.14,1.64,1.64,0,0,1-1.14.4A1.74,1.74,0,0,1,120.48,33.23Zm2.5,1.42v9.9h-2.79v-9.9Z"/><path class="cls-1" d="M126,34.65V31.18h2.79v3.47h3.6v2.62h-3.6v3.21a2.45,2.45,0,0,0,.08.73.76.76,0,0,0,.22.42,1,1,0,0,0,.44.22,2.86,2.86,0,0,0,.72.08h2.2v2.62H130a8.32,8.32,0,0,1-1.76-.16,3.16,3.16,0,0,1-1.26-.55,2.21,2.21,0,0,1-.75-1,4.5,4.5,0,0,1-.23-1.52v-4h-1.78V34.65Z"/><path class="cls-1" d="M135.14,45.31l.87.22.86.15a7.24,7.24,0,0,0,.76,0,4.48,4.48,0,0,0,.94-.09,2,2,0,0,0,.71-.26,1.31,1.31,0,0,0,.45-.42l.15-.24.1-.3a9,9,0,0,1-1.76.16,7.93,7.93,0,0,1-1.73-.17,3.39,3.39,0,0,1-1.38-.65,2.93,2.93,0,0,1-.91-1.27,5.29,5.29,0,0,1-.32-2V34.63h2.81v5.18a4.18,4.18,0,0,0,.1,1,1.5,1.5,0,0,0,.28.61,1,1,0,0,0,.5.31,2.78,2.78,0,0,0,.76.09,5.49,5.49,0,0,0,.79-.05,4.26,4.26,0,0,0,.76-.15v-7h2.79v9a8.15,8.15,0,0,1-.25,2.19,3.11,3.11,0,0,1-.87,1.47,3.53,3.53,0,0,1-1.6.82,10.34,10.34,0,0,1-2.42.24l-.67,0-.73-.09-.73-.14a7.7,7.7,0,0,1-.78-.21l-.62-3A9.91,9.91,0,0,0,135.14,45.31Z"/><path class="cls-1" d="M150.33,30.48h9.13v2.69h-6.28V36h5.67V38.7h-5.67v5.85h-2.85Z"/><path class="cls-1" d="M163,44.35a5.58,5.58,0,0,1-1.69-1.09,5.07,5.07,0,0,1-1.14-1.65,5.27,5.27,0,0,1-.41-2.07,5.14,5.14,0,0,1,.41-2,5.46,5.46,0,0,1,1.14-1.66A5.31,5.31,0,0,1,163,34.71a5.44,5.44,0,0,1,5.91,1.12A5.46,5.46,0,0,1,170,37.49a5.14,5.14,0,0,1,.41,2,5.27,5.27,0,0,1-.41,2.07,5.07,5.07,0,0,1-1.14,1.65,5.71,5.71,0,0,1-1.69,1.09,5.77,5.77,0,0,1-4.22,0Zm3.13-2.53a2.39,2.39,0,0,0,.76-.52,2.2,2.2,0,0,0,.49-.79,2.78,2.78,0,0,0,.17-1,2.88,2.88,0,0,0-.17-1,2.25,2.25,0,0,0-.49-.78,2.59,2.59,0,0,0-.76-.53,2.7,2.7,0,0,0-2,0,2.59,2.59,0,0,0-.76.53,2.11,2.11,0,0,0-.49.78,2.88,2.88,0,0,0-.17,1,2.78,2.78,0,0,0,.17,1,2.07,2.07,0,0,0,.49.79,2.39,2.39,0,0,0,.76.52,2.83,2.83,0,0,0,2,0Z"/><path class="cls-1" d="M176.29,37.19h-.39l-.53,0c-.18,0-.44.05-.77.09s-.29,0,.11-.13v7.36h-2.79V34.93c.41-.08.79-.14,1.12-.19l1-.13,1-.08c.32,0,.6,0,.84,0h2v2.7Z"/><path class="cls-1" d="M184.65,30.48h2.86V36h6.1V30.48h2.88V44.55h-2.88V38.7h-6.1v5.85h-2.86Z"/><path class="cls-1" d="M201.52,44.35a5.84,5.84,0,0,1-1.69-1.09,4.9,4.9,0,0,1-1.13-1.65,5.1,5.1,0,0,1-.41-2.07,5,5,0,0,1,.41-2,5.26,5.26,0,0,1,1.13-1.66,5.54,5.54,0,0,1,1.69-1.12,5.43,5.43,0,0,1,2.11-.4,5.36,5.36,0,0,1,2.11.4,5.3,5.3,0,0,1,2.83,2.78,5.14,5.14,0,0,1,.41,2,5.27,5.27,0,0,1-.41,2.07,4.92,4.92,0,0,1-1.14,1.65,5.58,5.58,0,0,1-1.69,1.09,5.36,5.36,0,0,1-2.11.4A5.43,5.43,0,0,1,201.52,44.35Zm3.13-2.53a2.43,2.43,0,0,0,.77-.52,2.18,2.18,0,0,0,.48-.79,2.57,2.57,0,0,0,.17-1,2.66,2.66,0,0,0-.17-1,2.22,2.22,0,0,0-.48-.78,2.64,2.64,0,0,0-.77-.53,2.54,2.54,0,0,0-1-.2,2.46,2.46,0,0,0-1,.2,2.51,2.51,0,0,0-.77.53,2.4,2.4,0,0,0-.49.78,2.88,2.88,0,0,0-.16,1,2.78,2.78,0,0,0,.16,1,2.22,2.22,0,0,0,1.26,1.31,2.46,2.46,0,0,0,1,.19A2.54,2.54,0,0,0,204.65,41.82Z"/><path class="cls-1" d="M215.75,41.88c.29-.09.43-.22.43-.39a.47.47,0,0,0-.26-.41,3.8,3.8,0,0,0-1.12-.33l-.76-.13a6.3,6.3,0,0,1-2.64-1.08,2.5,2.5,0,0,1-1-2.09,2.71,2.71,0,0,1,1.13-2.29,4.9,4.9,0,0,1,3-.85,11,11,0,0,1,2.23.23,7.31,7.31,0,0,1,2.06.76l-1,2.59a7.14,7.14,0,0,0-.92-.4q-.39-.14-.81-.24a7.58,7.58,0,0,0-1.69-.2c-.84,0-1.26.14-1.26.4s.09.26.27.37a3.4,3.4,0,0,0,1.11.32l.74.14a6.07,6.07,0,0,1,2.89,1.18,3,3,0,0,1,.6,3.42,2.81,2.81,0,0,1-.86,1,4.5,4.5,0,0,1-1.43.65,7.64,7.64,0,0,1-2,.22,9.23,9.23,0,0,1-1.18-.07,9,9,0,0,1-1.16-.19,9.18,9.18,0,0,1-1.09-.31,6.58,6.58,0,0,1-1.08-.52l1.06-2.72a6.65,6.65,0,0,0,1.71.81,6.48,6.48,0,0,0,1.8.26A3.87,3.87,0,0,0,215.75,41.88Z"/><path class="cls-1" d="M221.63,34.65V31.18h2.79v3.47H228v2.62h-3.6v3.21a2.84,2.84,0,0,0,.08.73.83.83,0,0,0,.22.42,1,1,0,0,0,.44.22,2.86,2.86,0,0,0,.72.08h2.21v2.62h-2.46a8.32,8.32,0,0,1-1.76-.16,3.22,3.22,0,0,1-1.26-.55,2.21,2.21,0,0,1-.75-1,4.5,4.5,0,0,1-.23-1.52v-4h-1.78V34.65Z"/><path class="cls-1" d="M230.05,33.23a1.49,1.49,0,0,1,0-2.17,1.71,1.71,0,0,1,1.13-.4,1.68,1.68,0,0,1,1.13.4,1.49,1.49,0,0,1,0,2.14,1.64,1.64,0,0,1-1.14.4A1.79,1.79,0,0,1,230.05,33.23Zm2.51,1.42v9.9h-2.79v-9.9Z"/><path class="cls-1" d="M236.16,34.6l1.16-.15,1.07-.1c.34,0,.64,0,.91,0a8.33,8.33,0,0,1,1.76.18,3.58,3.58,0,0,1,1.46.64,3.26,3.26,0,0,1,1,1.27,4.78,4.78,0,0,1,.37,2v6.14H241.1V39.09a2.12,2.12,0,0,0-.47-1.62,2.09,2.09,0,0,0-1.43-.42c-.24,0-.52,0-.81.05l-.77.1v7.35h-2.79V34.83Z"/><path class="cls-1" d="M245.58,37.38a4.44,4.44,0,0,1,1.13-1.62,5.26,5.26,0,0,1,1.82-1.06,7,7,0,0,1,2.41-.39,14.51,14.51,0,0,1,4,.55v8.75a8.57,8.57,0,0,1-.25,2.19,3,3,0,0,1-.88,1.47,3.48,3.48,0,0,1-1.6.82,10.28,10.28,0,0,1-2.42.24l-.66,0c-.24,0-.49,0-.73-.09l-.73-.14a7.84,7.84,0,0,1-.79-.21l-.62-3a9.91,9.91,0,0,0,1.14.44l.87.22.87.15a7.24,7.24,0,0,0,.75,0,4.58,4.58,0,0,0,1-.09,2.06,2.06,0,0,0,.71-.26A1.31,1.31,0,0,0,252,45a1.1,1.1,0,0,0,.15-.59v.05a6.32,6.32,0,0,1-.67.07l-.75,0a6.36,6.36,0,0,1-2.27-.4,5.46,5.46,0,0,1-1.76-1.07,4.86,4.86,0,0,1-1.14-1.62,5.45,5.45,0,0,1,0-4Zm6-.27a4.08,4.08,0,0,0-.68-.06,3.4,3.4,0,0,0-2.07.56,2.11,2.11,0,0,0-.75,1.79,2.14,2.14,0,0,0,.75,1.8,3.33,3.33,0,0,0,2.07.58,5,5,0,0,0,.65-.05c.23,0,.43-.06.6-.09V37.2Z"/></svg>