<svg id="Layer_1" data-name="Layer 1" xmlns="http://www.w3.org/2000/svg" viewBox="0 0 355.35 60"><defs><style>.cls-1{fill:#fff;}</style></defs><title>الشعارات الاساسية</title><path class="cls-1" d="M4.89,27.3a6.71,6.71,0,0,1-1.17-.25,4.49,4.49,0,0,1-1-.46,4.92,4.92,0,0,1-.86-.66,3.26,3.26,0,0,1-.93-1.6,7.59,7.59,0,0,1-.27-2V16.58h2.8V22a4.23,4.23,0,0,0,.14,1.21,1.46,1.46,0,0,0,.48.77,2.29,2.29,0,0,0,1,.47,7,7,0,0,0,1.35.12H7.59v-8h2.79V27.37H6.29A12,12,0,0,1,4.89,27.3Zm-.4-12.16A1.32,1.32,0,0,1,4,14,1.34,1.34,0,0,1,4.47,13a1.65,1.65,0,0,1,1.13-.4,1.67,1.67,0,0,1,1.14.4A1.36,1.36,0,0,1,7.2,14a1.3,1.3,0,0,1-.49,1.1,1.76,1.76,0,0,1-1.11.38A1.8,1.8,0,0,1,4.49,15.14Z"/><path class="cls-1" d="M16.9,22.48a3.44,3.44,0,0,0,1-.13,2.2,2.2,0,0,0,.78-.39,1.81,1.81,0,0,0,.45-.63,2.37,2.37,0,0,0,.17-.95V10h3.88v2.79H22.08v7.55a5.68,5.68,0,0,1-.17,1.48,3.18,3.18,0,0,0,2.41.71v2.79a5.84,5.84,0,0,1-1.58-.16,3.32,3.32,0,0,1-.95-.41,2.33,2.33,0,0,1-.63-.56,2.83,2.83,0,0,0-.24-.3s0,.05-.17.17a4.4,4.4,0,0,1-1.85,1,9.84,9.84,0,0,1-2.48.28H12.19l-.33-2.79Zm.17-9.7v9.3H14.28v-9.3Z"/><path class="cls-1" d="M27.3,22.48v2.79H23.55V22.48Z"/><path class="cls-1" d="M30.27,22.48v2.79H26.52V22.48Z"/><path class="cls-1" d="M33.25,22.48v2.79H29.5V22.48Z"/><path class="cls-1" d="M36.22,22.48v2.79H32.47V22.48Z"/><path class="cls-1" d="M39.2,22.48v2.79H35.45V22.48Z"/><path class="cls-1" d="M42.18,22.48v2.79H38.43V22.48Z"/><path class="cls-1" d="M43.1,22.48a9.13,9.13,0,0,1-.35-1,5.32,5.32,0,0,1-.22-1.57,4.71,4.71,0,0,1,.5-2.21,5.1,5.1,0,0,1,1.27-1.59,4.06,4.06,0,0,1,1.43-.78,5.59,5.59,0,0,1,1.76-.26,6.56,6.56,0,0,1,1.85.25,11,11,0,0,1,1.92.79l-.94,2.56A8.07,8.07,0,0,0,49,18a3.89,3.89,0,0,0-1.17-.2,2.6,2.6,0,0,0-1.7.52,2,2,0,0,0-.57.79,2.59,2.59,0,0,0-.17.95,4,4,0,0,0,.22,1.38,3.29,3.29,0,0,0,.55,1h5.45v2.79H41.4V22.48Z"/><path class="cls-1" d="M57.7,22.48a3.44,3.44,0,0,0,1-.13,2.23,2.23,0,0,0,.77-.39,1.71,1.71,0,0,0,.46-.63,2.37,2.37,0,0,0,.17-.95V10H64v2.79H62.88v7.55a6.61,6.61,0,0,1-.33,2.08,3.88,3.88,0,0,1-1,1.64,4.44,4.44,0,0,1-1.86,1,9.79,9.79,0,0,1-2.48.28H53l-.33-2.79Zm-3,6.41a2.19,2.19,0,0,1-.63-1.77v-1H58v1.7H55.88a.43.43,0,0,0,.15.25.73.73,0,0,0,.54.15h.93v1.19H56.44A2.54,2.54,0,0,1,54.73,28.89Zm3.14-16.11v9.3H55.08v-9.3Z"/><path class="cls-1" d="M69.29,11.2V25.27H66.5V11.2Z"/><path class="cls-1" d="M79.66,26.24a3.37,3.37,0,0,1-2.16,2.39,6,6,0,0,1-2.16.34l-.65,0-.58-.08-.59-.12-.84-.23-.2-2.85a12.69,12.69,0,0,0,1.55.41,6.27,6.27,0,0,0,1.14.1,6.5,6.5,0,0,0,.82,0,1.55,1.55,0,0,0,.56-.16.88.88,0,0,0,.35-.34,1,1,0,0,0,.14-.37h0A9.18,9.18,0,0,1,74.69,25a5.42,5.42,0,0,1-1.9-.87,4.14,4.14,0,0,1-1.28-1.55A4.93,4.93,0,0,1,71,20.31a4.67,4.67,0,0,1,.45-2.08,4.49,4.49,0,0,1,1.25-1.55,5.75,5.75,0,0,1,1.89-1A8.27,8.27,0,0,1,77,15.37H79.9l0,9A7,7,0,0,1,79.66,26.24Zm-5.64-5a1.83,1.83,0,0,0,.52.67,2.38,2.38,0,0,0,.79.42,3.55,3.55,0,0,0,1,.14h.78V18.16h-.78a2.83,2.83,0,0,0-1,.16,2.29,2.29,0,0,0-.8.44,1.87,1.87,0,0,0-.55.67,1.84,1.84,0,0,0-.2.88A2.13,2.13,0,0,0,74,21.25Z"/><path class="cls-1" d="M96.87,25.27H92.41A9.35,9.35,0,0,1,90,25a5.24,5.24,0,0,1-1.88-.92,4.34,4.34,0,0,1-1.26-1.55,5,5,0,0,1-.45-2.18,4.85,4.85,0,0,1,.4-2A4.4,4.4,0,0,1,88,16.77a5.5,5.5,0,0,1,1.88-1,7.84,7.84,0,0,1,2.51-.37h.12v-.84h2.79v8h1.55ZM89,13.35a1.3,1.3,0,0,1-.45-1.06,1.32,1.32,0,0,1,.44-1A1.64,1.64,0,0,1,90,10.88a1.62,1.62,0,0,1,1.08.38,1.29,1.29,0,0,1,.45,1,1.28,1.28,0,0,1-.46,1.06,1.75,1.75,0,0,1-2.15,0Zm3.57,4.81h-.69a3.11,3.11,0,0,0-1,.15,2.78,2.78,0,0,0-.84.43,2.1,2.1,0,0,0-.59.67,1.82,1.82,0,0,0-.22.92,2.06,2.06,0,0,0,.2.93,2,2,0,0,0,.55.66,2.65,2.65,0,0,0,.8.42,3.24,3.24,0,0,0,.94.14h.81Zm.08-4.81a1.3,1.3,0,0,1-.45-1.06,1.32,1.32,0,0,1,.44-1,1.64,1.64,0,0,1,1.09-.38,1.63,1.63,0,0,1,1.09.38,1.32,1.32,0,0,1,.44,1,1.28,1.28,0,0,1-.46,1.06,1.75,1.75,0,0,1-2.15,0Z"/><path class="cls-1" d="M99.64,22.48V15.37h2.79v9.9h-6.3V22.48Zm-2.5,6a1.24,1.24,0,0,1-.46-1,1.29,1.29,0,0,1,.45-1,1.54,1.54,0,0,1,1.08-.4,1.56,1.56,0,0,1,1.09.4,1.32,1.32,0,0,1,.44,1,1.24,1.24,0,0,1-.46,1,1.69,1.69,0,0,1-1.07.36A1.71,1.71,0,0,1,97.14,28.49Zm3.65,0a1.24,1.24,0,0,1-.46-1,1.29,1.29,0,0,1,.45-1,1.67,1.67,0,0,1,2.17,0,1.28,1.28,0,0,1,.44,1,1.24,1.24,0,0,1-.46,1,1.77,1.77,0,0,1-2.14,0Z"/><path class="cls-1" d="M108.25,11.2V22.48h2.15v2.79h-4.94V11.2Z"/><path class="cls-1" d="M111.33,22.48a7.41,7.41,0,0,1-.35-1,5.32,5.32,0,0,1-.22-1.57,4.71,4.71,0,0,1,.49-2.21,5.25,5.25,0,0,1,1.27-1.59,4.19,4.19,0,0,1,1.44-.78,5.55,5.55,0,0,1,1.76-.26,6.61,6.61,0,0,1,1.85.25,10.65,10.65,0,0,1,1.91.79l-.94,2.56a8,8,0,0,0-1.36-.63,4,4,0,0,0-1.18-.2,2.63,2.63,0,0,0-1.7.52,2.12,2.12,0,0,0-.57.79,2.59,2.59,0,0,0-.17.95,4.25,4.25,0,0,0,.22,1.38,3.3,3.3,0,0,0,.56,1h5.45v2.79H109.63V22.48Z"/><path class="cls-1" d="M126.45,22.48V20.13a3.22,3.22,0,0,0-.1-.82,1.71,1.71,0,0,0-.31-.6,1.27,1.27,0,0,0-.52-.4,1.78,1.78,0,0,0-.74-.15h-1.23V15.37h1a6.26,6.26,0,0,1,2.07.31,3.88,3.88,0,0,1,1.58,1,3.32,3.32,0,0,1,.81,1.53,8.38,8.38,0,0,1,.23,2v2.25h1.81v2.79H120.58V22.48Z"/><path class="cls-1" d="M132,22.48V11.2h2.79V22.48h2.15v2.79H130.3V22.48Z"/><path class="cls-1" d="M137.76,22.48V11.2h3.89V14h-1.09V25.27h-4.44V22.48Z"/><path class="cls-1" d="M147.82,26.88a7.61,7.61,0,0,1-.37-2.48,9.62,9.62,0,0,1,.19-1.92h1.09a7.41,7.41,0,0,1-.35-1,5.32,5.32,0,0,1-.22-1.57,4.71,4.71,0,0,1,.49-2.21,5.25,5.25,0,0,1,1.27-1.59,4.19,4.19,0,0,1,1.44-.78,5.55,5.55,0,0,1,1.76-.26,6.61,6.61,0,0,1,1.85.25,10.65,10.65,0,0,1,1.91.79l-.94,2.56a7.66,7.66,0,0,0-1.36-.63,4,4,0,0,0-1.18-.2,2.58,2.58,0,0,0-1.69.52,2.15,2.15,0,0,0-.58.79,2.59,2.59,0,0,0-.16.95,4.25,4.25,0,0,0,.21,1.38,3.3,3.3,0,0,0,.56,1h5.45v2.79h-6.91v0a4.08,4.08,0,0,0,.17,1.19,7.57,7.57,0,0,0,.7,1.51L149,29A8.36,8.36,0,0,1,147.82,26.88Z"/><path class="cls-1" d="M162.17,11.2V25.27h-2.8V11.2Z"/><path class="cls-1" d="M169.45,22.48V20.13a3.22,3.22,0,0,0-.1-.82,1.71,1.71,0,0,0-.31-.6,1.27,1.27,0,0,0-.52-.4,1.78,1.78,0,0,0-.74-.15h-1.23V15.37h1a6.26,6.26,0,0,1,2.07.31,3.88,3.88,0,0,1,1.58,1,3.32,3.32,0,0,1,.81,1.53,8.38,8.38,0,0,1,.23,2v2.25h1.81v2.79H163.58V22.48Z"/><path class="cls-1" d="M177.05,22.48v2.79H173.3V22.48Z"/><path class="cls-1" d="M180,22.48v2.79h-3.75V22.48Z"/><path class="cls-1" d="M183,22.48v2.79h-3.75V22.48Z"/><path class="cls-1" d="M184.31,22.48V15.37h2.79v9.9h-4.87V22.48Zm.32,6a1.31,1.31,0,0,1-.49-1.1,1.35,1.35,0,0,1,.47-1.06,1.69,1.69,0,0,1,1.13-.4,1.72,1.72,0,0,1,1.14.4,1.34,1.34,0,0,1,.46,1.06,1.28,1.28,0,0,1-.49,1.1,1.7,1.7,0,0,1-1.11.38A1.74,1.74,0,0,1,184.63,28.47Z"/><path class="cls-1" d="M193.61,22.48a3.44,3.44,0,0,0,1-.13,2.29,2.29,0,0,0,.78-.39,1.81,1.81,0,0,0,.45-.63,2.37,2.37,0,0,0,.17-.95V10h3.88v2.79h-1.09v7.55a6.61,6.61,0,0,1-.33,2.08,3.88,3.88,0,0,1-1,1.64,4.38,4.38,0,0,1-1.86,1,9.79,9.79,0,0,1-2.48.28H188.9l-.33-2.79Zm-3,6.41a2.19,2.19,0,0,1-.63-1.77v-1H194v1.7H191.8a.4.4,0,0,0,.14.25.75.75,0,0,0,.55.15h.92v1.19h-1.06A2.54,2.54,0,0,1,190.64,28.89Zm3.14-16.11v9.3H191v-9.3Z"/><path class="cls-1" d="M205.2,11.2V25.27h-2.79V11.2Z"/><path class="cls-1" d="M214.92,27.31a7.26,7.26,0,0,1-1.22-.19,7.06,7.06,0,0,1-1.07-.35c-.34-.15-.75-.36-1.26-.64l1.13-2.47a7.3,7.3,0,0,0,1.71.75,6.56,6.56,0,0,0,1.5.17h3.06V20.06a6,6,0,0,1,.36-2.18,3.62,3.62,0,0,1,1.17-1.57,4.09,4.09,0,0,1,1.48-.72,7.32,7.32,0,0,1,1.87-.22H227v9.9h-2.79V18.16h-.86a3.11,3.11,0,0,0-.72.08,1.43,1.43,0,0,0-.56.29,1.31,1.31,0,0,0-.4.59,2.17,2.17,0,0,0-.15.79v7.46h-5.1C215.87,27.37,215.36,27.35,214.92,27.31Zm.08-7.55a1.32,1.32,0,0,1-.49-1.1A1.35,1.35,0,0,1,215,17.6a1.69,1.69,0,0,1,1.13-.4,1.72,1.72,0,0,1,1.14.4,1.34,1.34,0,0,1,.46,1.06,1.3,1.3,0,0,1-.49,1.1,1.7,1.7,0,0,1-1.11.38A1.74,1.74,0,0,1,215,19.76Zm0,3.57a1.32,1.32,0,0,1-.49-1.1,1.34,1.34,0,0,1,.47-1.06,1.65,1.65,0,0,1,1.13-.41,1.68,1.68,0,0,1,1.14.41,1.33,1.33,0,0,1,.46,1.06,1.3,1.3,0,0,1-.49,1.1,1.76,1.76,0,0,1-1.11.38A1.8,1.8,0,0,1,215,23.33Z"/><path class="cls-1" d="M229,28.93a3.89,3.89,0,0,1-.7-.16L228.1,26l.85.19a4.19,4.19,0,0,0,.5,0,.93.93,0,0,0,.81-.31,1.93,1.93,0,0,0,.23-1.12V15.37h2.79v9a9.18,9.18,0,0,1-.19,2,3.68,3.68,0,0,1-.63,1.43,2.57,2.57,0,0,1-1.13.84,4.45,4.45,0,0,1-1.63.27A5.32,5.32,0,0,1,229,28.93Z"/><path class="cls-1" d="M239.79,22.48a3.44,3.44,0,0,0,1-.13,2.38,2.38,0,0,0,.78-.39,1.81,1.81,0,0,0,.45-.63,2.37,2.37,0,0,0,.17-.95V10h3.88v2.79H245v7.55a6.14,6.14,0,0,1-.17,1.48,3.18,3.18,0,0,0,2.41.71v2.79a5.84,5.84,0,0,1-1.58-.16,3.39,3.39,0,0,1-1-.41,2.68,2.68,0,0,1-.63-.56,2.33,2.33,0,0,0-.23-.3s0,.05-.17.17a4.38,4.38,0,0,1-1.86,1,9.79,9.79,0,0,1-2.48.28h-4.22l-.33-2.79Zm.17-9.7v9.3h-2.79v-9.3Z"/><path class="cls-1" d="M250.18,22.48v2.79h-3.75V22.48Z"/><path class="cls-1" d="M253.16,22.48v2.79h-3.75V22.48Z"/><path class="cls-1" d="M256.14,22.48v2.79h-3.75V22.48Z"/><path class="cls-1" d="M259.11,22.48v2.79h-3.75V22.48Z"/><path class="cls-1" d="M262.09,22.48v2.79h-3.75V22.48Z"/><path class="cls-1" d="M265.07,22.48v2.79h-3.75V22.48Z"/><path class="cls-1" d="M268,22.48v2.79h-3.75V22.48Z"/><path class="cls-1" d="M271,22.48v2.79h-3.75V22.48Z"/><path class="cls-1" d="M274,22.48v2.79h-3.75V22.48Z"/><path class="cls-1" d="M277,22.48v2.79h-3.75V22.48Z"/><path class="cls-1" d="M278.23,22.48a3.38,3.38,0,0,1-.36-.79,4,4,0,0,1-.23-1.38,5,5,0,0,1,.43-2.08,4.5,4.5,0,0,1,1.21-1.56,5.15,5.15,0,0,1,1.86-1,8.08,8.08,0,0,1,2.37-.33h3v9.9H276.2V22.48Zm1.7-8.47a1.3,1.3,0,0,1-.45-1.06,1.32,1.32,0,0,1,.44-1,1.7,1.7,0,0,1,2.17,0,1.29,1.29,0,0,1,.45,1,1.28,1.28,0,0,1-.46,1.06,1.75,1.75,0,0,1-2.15,0Zm.82,7.58a2.79,2.79,0,0,0,.81.89h2.15V18.16h-.77a3.33,3.33,0,0,0-.93.14,2.57,2.57,0,0,0-.81.41,2,2,0,0,0-.55.68,1.84,1.84,0,0,0-.22.92A2.56,2.56,0,0,0,280.75,21.59ZM283.58,14a1.3,1.3,0,0,1-.45-1.06,1.28,1.28,0,0,1,.44-1,1.6,1.6,0,0,1,1.09-.39,1.58,1.58,0,0,1,1.09.39,1.44,1.44,0,0,1,0,2.09,1.75,1.75,0,0,1-2.15,0Z"/><path class="cls-1" d="M4.27,44.21A6.72,6.72,0,0,1,.51,40.36,7.91,7.91,0,0,1,0,37.49a8,8,0,0,1,.51-2.88A6.8,6.8,0,0,1,2,32.3a6.4,6.4,0,0,1,2.29-1.53,8,8,0,0,1,3-.55,11.85,11.85,0,0,1,2.85.33,8.31,8.31,0,0,1,2.4,1l-1.1,2.53a7.26,7.26,0,0,0-1.9-.84A8.11,8.11,0,0,0,7.38,33a5.19,5.19,0,0,0-1.68.27,3.73,3.73,0,0,0-1.39.84,4.12,4.12,0,0,0-.95,1.41,5.28,5.28,0,0,0-.35,2,5.35,5.35,0,0,0,.35,2,4.37,4.37,0,0,0,.95,1.42,3.73,3.73,0,0,0,1.39.84A5.19,5.19,0,0,0,7.38,42a6.76,6.76,0,0,0,1.41-.15A4.82,4.82,0,0,0,10,41.52v-2.1h-3V36.7h5.9v6.71a6.49,6.49,0,0,1-1.27.62,10,10,0,0,1-1.38.39,14.55,14.55,0,0,1-1.47.25,14,14,0,0,1-1.41.08A8,8,0,0,1,4.27,44.21Z"/><path class="cls-1" d="M15.42,30.48h2.79V44.55H15.42Z"/><path class="cls-1" d="M22.93,44.58a4.78,4.78,0,0,1-1.5-.57,3.13,3.13,0,0,1-1.05-1,2.93,2.93,0,0,1-.4-1.59,3.19,3.19,0,0,1,.35-1.5,3.07,3.07,0,0,1,1-1.08,4.32,4.32,0,0,1,1.46-.64A7.54,7.54,0,0,1,24.6,38l.86,0a7.19,7.19,0,0,1,.87.1,1,1,0,0,0-.62-.82A3.5,3.5,0,0,0,24.27,37a5.54,5.54,0,0,0-.78.06l-.85.18a7,7,0,0,0-.85.26,11.39,11.39,0,0,0-1.12.49L21,35.08a8.2,8.2,0,0,1,1.61-.55,8.06,8.06,0,0,1,1.94-.22,6.86,6.86,0,0,1,1.74.21,4,4,0,0,1,1.42.68,3.19,3.19,0,0,1,.94,1.24A4.61,4.61,0,0,1,29,38.28v5.66a11.16,11.16,0,0,1-2.17.62,12.4,12.4,0,0,1-2.17.19A9.22,9.22,0,0,1,22.93,44.58Zm2.72-4.28a5.58,5.58,0,0,0-.79,0,5,5,0,0,0-.81,0,2.56,2.56,0,0,0-.64.18,1,1,0,0,0-.41.3.86.86,0,0,0-.13.46.76.76,0,0,0,.51.73,3.4,3.4,0,0,0,1.34.23,6.36,6.36,0,0,0,.86-.07,4.54,4.54,0,0,0,.65-.14V40.4A4.85,4.85,0,0,0,25.65,40.3Z"/><path class="cls-1" d="M35.5,37.18h-.39l-.53,0c-.18,0-.44,0-.77.09s-.29,0,.11-.14v7.37H31.13V34.93c.41-.08.79-.14,1.12-.19l1-.13,1-.08c.32,0,.6,0,.84,0h2v2.69Z"/><path class="cls-1" d="M39.49,45.31l.86.22.87.15a7.24,7.24,0,0,0,.75,0,4.58,4.58,0,0,0,1-.09,2.06,2.06,0,0,0,.71-.26,1.31,1.31,0,0,0,.45-.42l.15-.24.1-.3a9,9,0,0,1-1.77.16,8.5,8.5,0,0,1-1.72-.17,3.43,3.43,0,0,1-1.39-.65,3.1,3.1,0,0,1-.91-1.27,5.5,5.5,0,0,1-.32-2V34.63H41v5.18a4.74,4.74,0,0,0,.1,1,1.65,1.65,0,0,0,.29.61,1,1,0,0,0,.5.31,2.73,2.73,0,0,0,.76.09,5.27,5.27,0,0,0,.78-.05,4.38,4.38,0,0,0,.77-.15v-7H47v9a8.15,8.15,0,0,1-.25,2.19,3,3,0,0,1-.88,1.47,3.43,3.43,0,0,1-1.6.82,10.22,10.22,0,0,1-2.42.24l-.66,0c-.24,0-.49,0-.73-.09l-.73-.14c-.24,0-.5-.12-.79-.21l-.62-3A10.67,10.67,0,0,0,39.49,45.31Z"/><path class="cls-1" d="M59.45,33.23a3.73,3.73,0,0,0-1.39.84,3.86,3.86,0,0,0-1,1.41,5.09,5.09,0,0,0-.35,2,5.16,5.16,0,0,0,.35,2,4.07,4.07,0,0,0,1,1.42,3.73,3.73,0,0,0,1.39.84,5.1,5.1,0,0,0,1.68.27,5.87,5.87,0,0,0,1.81-.27,8.38,8.38,0,0,0,1.77-.86l1.11,2.56a8.53,8.53,0,0,1-2.26,1,10,10,0,0,1-2.53.32,8,8,0,0,1-3-.54,6.64,6.64,0,0,1-3.76-3.85,7.91,7.91,0,0,1-.51-2.87,8,8,0,0,1,.51-2.88,6.93,6.93,0,0,1,1.46-2.31A6.53,6.53,0,0,1,58,30.77a8,8,0,0,1,3-.55,9.54,9.54,0,0,1,2.53.33,8.58,8.58,0,0,1,2.26,1l-1.11,2.53a8.26,8.26,0,0,0-1.77-.84A5.87,5.87,0,0,0,61.13,33,5.1,5.1,0,0,0,59.45,33.23Z"/><path class="cls-1" d="M71.4,37.18H71l-.53,0q-.28,0-.78.09c-.33,0-.29,0,.11-.14v7.37H67V34.93l1.13-.19,1-.13,1-.08c.31,0,.59,0,.84,0h2v2.69Z"/><path class="cls-1" d="M80.07,41.94c.27,0,.52-.1.76-.16a3.94,3.94,0,0,0,.66-.25,3.05,3.05,0,0,0,.68-.51l1.26,2.55a10.15,10.15,0,0,1-2,.86,8.32,8.32,0,0,1-2.45.32,5.83,5.83,0,0,1-2.15-.39,5.39,5.39,0,0,1-1.72-1.1A4.78,4.78,0,0,1,74,41.61a5.27,5.27,0,0,1-.4-2.07,5.35,5.35,0,0,1,.41-2.1,5.2,5.2,0,0,1,1.13-1.66,5.12,5.12,0,0,1,1.66-1.08,5.65,5.65,0,0,1,4.15,0,4.54,4.54,0,0,1,1.65,1.19,5.22,5.22,0,0,1,1,1.9A8.24,8.24,0,0,1,84,40.53H76.52a1.63,1.63,0,0,0,.82,1,3.19,3.19,0,0,0,1.73.43h.25A4,4,0,0,0,80.07,41.94Zm-2.76-4.65a1.87,1.87,0,0,0-.71.85H81a1.56,1.56,0,0,0-.71-.91,2.53,2.53,0,0,0-1.48-.4A2.36,2.36,0,0,0,77.31,37.29Z"/><path class="cls-1" d="M87.94,44.58A4.82,4.82,0,0,1,86.45,44a3.13,3.13,0,0,1-1-1A2.94,2.94,0,0,1,85,41.39a3.08,3.08,0,0,1,.36-1.5,3,3,0,0,1,1-1.08,4.41,4.41,0,0,1,1.46-.64A7.62,7.62,0,0,1,89.62,38l.85,0a7.37,7.37,0,0,1,.88.1,1.06,1.06,0,0,0-.62-.82A3.55,3.55,0,0,0,89.28,37a5.4,5.4,0,0,0-.77.06l-.86.18a7.63,7.63,0,0,0-.85.26c-.27.1-.65.26-1.12.49l.37-2.93a8.08,8.08,0,0,1,1.62-.55,8,8,0,0,1,1.93-.22,6.94,6.94,0,0,1,1.75.21,3.86,3.86,0,0,1,1.41.68,3.1,3.1,0,0,1,.94,1.24A4.45,4.45,0,0,1,94,38.28v5.66a11.27,11.27,0,0,1-2.16.62,12.51,12.51,0,0,1-2.18.19A9.22,9.22,0,0,1,87.94,44.58Zm2.73-4.28a5.72,5.72,0,0,0-.8,0,5.18,5.18,0,0,0-.81,0,2.56,2.56,0,0,0-.64.18,1,1,0,0,0-.4.3.78.78,0,0,0-.14.46.77.77,0,0,0,.52.73,3.31,3.31,0,0,0,1.33.23,6.36,6.36,0,0,0,.86-.07,5.11,5.11,0,0,0,.66-.14V40.4A5.28,5.28,0,0,0,90.67,40.3Z"/><path class="cls-1" d="M96.9,34.65V31.18h2.79v3.47h3.6v2.62h-3.6v3.21a2.45,2.45,0,0,0,.08.73.83.83,0,0,0,.22.42,1,1,0,0,0,.44.22,2.86,2.86,0,0,0,.72.08h2.21v2.62H100.9a8.32,8.32,0,0,1-1.76-.16,3.16,3.16,0,0,1-1.26-.55,2.21,2.21,0,0,1-.75-1,4.5,4.5,0,0,1-.23-1.52v-4H95.12V34.65Z"/><path class="cls-1" d="M105.32,33.22a1.3,1.3,0,0,1-.48-1.1,1.34,1.34,0,0,1,.46-1.06,1.71,1.71,0,0,1,1.13-.4,1.68,1.68,0,0,1,1.13.4,1.51,1.51,0,0,1,0,2.14,1.64,1.64,0,0,1-1.14.4A1.74,1.74,0,0,1,105.32,33.22Zm2.51,1.43v9.9H105v-9.9Z"/><path class="cls-1" d="M108.82,34.65h2.93L114,41.41l2.25-6.76h2.93l-3.41,9.9h-3.53Z"/><path class="cls-1" d="M120.48,33.22a1.28,1.28,0,0,1-.49-1.1,1.34,1.34,0,0,1,.46-1.06,1.71,1.71,0,0,1,1.13-.4,1.68,1.68,0,0,1,1.13.4,1.49,1.49,0,0,1,0,2.14,1.64,1.64,0,0,1-1.14.4A1.69,1.69,0,0,1,120.48,33.22Zm2.5,1.43v9.9h-2.79v-9.9Z"/><path class="cls-1" d="M126,34.65V31.18h2.79v3.47h3.6v2.62h-3.6v3.21a2.84,2.84,0,0,0,.08.73.83.83,0,0,0,.22.42,1,1,0,0,0,.44.22,2.86,2.86,0,0,0,.72.08h2.21v2.62H130a8.32,8.32,0,0,1-1.76-.16,3.16,3.16,0,0,1-1.26-.55,2.21,2.21,0,0,1-.75-1,4.5,4.5,0,0,1-.23-1.52v-4h-1.78V34.65Z"/><path class="cls-1" d="M135.14,45.31l.87.22.86.15a7.24,7.24,0,0,0,.76,0,4.48,4.48,0,0,0,.94-.09,2,2,0,0,0,.71-.26,1.31,1.31,0,0,0,.45-.42l.15-.24.1-.3a9,9,0,0,1-1.76.16,8.6,8.6,0,0,1-1.73-.17,3.39,3.39,0,0,1-1.38-.65,2.93,2.93,0,0,1-.91-1.27,5.29,5.29,0,0,1-.32-2V34.63h2.81v5.18a4.18,4.18,0,0,0,.1,1,1.5,1.5,0,0,0,.28.61,1,1,0,0,0,.5.31,2.78,2.78,0,0,0,.76.09,5.49,5.49,0,0,0,.79-.05,4.26,4.26,0,0,0,.76-.15v-7h2.79v9a8.15,8.15,0,0,1-.25,2.19,3.11,3.11,0,0,1-.87,1.47,3.53,3.53,0,0,1-1.6.82,10.34,10.34,0,0,1-2.42.24l-.67,0-.73-.09-.73-.14a7.7,7.7,0,0,1-.78-.21l-.62-3A9.91,9.91,0,0,0,135.14,45.31Z"/><path class="cls-1" d="M150.33,30.48h9.13v2.69h-6.28V36h5.67V38.7h-5.67v5.85h-2.85Z"/><path class="cls-1" d="M163,44.35a5.58,5.58,0,0,1-1.69-1.09,5.07,5.07,0,0,1-1.14-1.65,5.27,5.27,0,0,1-.41-2.07,5.14,5.14,0,0,1,.41-2,5.46,5.46,0,0,1,1.14-1.66A5.14,5.14,0,0,1,163,34.71a5.77,5.77,0,0,1,4.22,0,5.25,5.25,0,0,1,1.69,1.12A5.46,5.46,0,0,1,170,37.49a5.14,5.14,0,0,1,.41,2,5.27,5.27,0,0,1-.41,2.07,5.07,5.07,0,0,1-1.14,1.65,5.71,5.71,0,0,1-1.69,1.09,5.77,5.77,0,0,1-4.22,0Zm3.13-2.53a2.56,2.56,0,0,0,.76-.52,2.2,2.2,0,0,0,.49-.79,2.78,2.78,0,0,0,.17-1,2.88,2.88,0,0,0-.17-1,2.25,2.25,0,0,0-.49-.78,2.59,2.59,0,0,0-.76-.53,2.7,2.7,0,0,0-2,0,2.59,2.59,0,0,0-.76.53,2.11,2.11,0,0,0-.49.78,2.88,2.88,0,0,0-.17,1,2.78,2.78,0,0,0,.17,1,2.07,2.07,0,0,0,.49.79,2.66,2.66,0,0,0,2.8.52Z"/><path class="cls-1" d="M176.29,37.18h-.39l-.53,0c-.18,0-.44,0-.77.09s-.29,0,.11-.14v7.37h-2.79V34.93c.41-.08.79-.14,1.12-.19l1-.13,1-.08c.32,0,.6,0,.84,0h2v2.69Z"/><path class="cls-1" d="M193.7,44.55l-1.16-3.21h-5.35L186,44.55h-3l5.22-14.07h3.24l5.22,14.07Zm-2.12-5.92-1.72-4.79-1.71,4.79Z"/><path class="cls-1" d="M206.66,30.48V44.21a15,15,0,0,1-4,.54,7,7,0,0,1-2.41-.39,5.44,5.44,0,0,1-1.82-1.1,4.55,4.55,0,0,1-1.13-1.64,5.4,5.4,0,0,1-.39-2.06,5.18,5.18,0,0,1,.4-2.06,4.89,4.89,0,0,1,1.13-1.67,5.19,5.19,0,0,1,1.77-1.12,6.11,6.11,0,0,1,2.27-.4l.75,0,.66.07V30.48Zm-6.11,10.94a3.3,3.3,0,0,0,2.08.59,5.87,5.87,0,0,0,1.24-.13V37.2a6,6,0,0,0-.6-.11,4.88,4.88,0,0,0-.64,0,3.23,3.23,0,0,0-2.07.61,2.29,2.29,0,0,0-.76,1.9A2.21,2.21,0,0,0,200.55,41.42Z"/><path class="cls-1" d="M207.67,34.65h2.93l2.25,6.76,2.25-6.76H218l-3.41,9.9h-3.54Z"/><path class="cls-1" d="M224.55,41.94c.26,0,.51-.1.75-.16a3.94,3.94,0,0,0,.66-.25,3.05,3.05,0,0,0,.68-.51l1.26,2.55a10.15,10.15,0,0,1-2,.86,8.25,8.25,0,0,1-2.44.32,5.83,5.83,0,0,1-2.15-.39,5.44,5.44,0,0,1-1.73-1.1,4.9,4.9,0,0,1-1.13-1.65,5.27,5.27,0,0,1-.41-2.07,5.26,5.26,0,0,1,1.54-3.76,5.06,5.06,0,0,1,1.67-1.08,5.62,5.62,0,0,1,4.14,0,4.54,4.54,0,0,1,1.65,1.19,5.22,5.22,0,0,1,1.05,1.9,8,8,0,0,1,.31,2.73H221a1.63,1.63,0,0,0,.82,1,3.21,3.21,0,0,0,1.74.43h.25A4.11,4.11,0,0,0,224.55,41.94Zm-2.76-4.65a1.84,1.84,0,0,0-.72.85h4.39a1.54,1.54,0,0,0-.7-.91,2.58,2.58,0,0,0-1.48-.4A2.34,2.34,0,0,0,221.79,37.29Z"/><path class="cls-1" d="M234.19,37.18h-.39l-.53,0c-.18,0-.44,0-.77.09s-.29,0,.11-.14v7.37h-2.79V34.93c.41-.08.79-.14,1.13-.19l1-.13,1-.08c.32,0,.6,0,.84,0h2v2.69Z"/><path class="cls-1" d="M237.94,34.65V31.18h2.79v3.47h3.6v2.62h-3.6v3.21a2.84,2.84,0,0,0,.08.73.77.77,0,0,0,.23.42.92.92,0,0,0,.43.22,2.89,2.89,0,0,0,.73.08h2.2v2.62h-2.46a8.16,8.16,0,0,1-1.75-.16,3.27,3.27,0,0,1-1.27-.55,2.13,2.13,0,0,1-.74-1,4.25,4.25,0,0,1-.24-1.52v-4h-1.78V34.65Z"/><path class="cls-1" d="M246.37,33.22a1.28,1.28,0,0,1-.49-1.1,1.34,1.34,0,0,1,.46-1.06,1.72,1.72,0,0,1,1.14-.4,1.67,1.67,0,0,1,1.12.4,1.34,1.34,0,0,1,.46,1.06,1.38,1.38,0,0,1-.45,1.08,1.61,1.61,0,0,1-1.13.4A1.7,1.7,0,0,1,246.37,33.22Zm2.5,1.43v9.9h-2.79v-9.9Z"/><path class="cls-1" d="M256.09,41.88c.29-.09.43-.22.43-.39a.45.45,0,0,0-.26-.41,3.7,3.7,0,0,0-1.12-.33l-.75-.13a6.3,6.3,0,0,1-2.64-1.08,2.51,2.51,0,0,1-1-2.09,2.72,2.72,0,0,1,1.13-2.29,4.92,4.92,0,0,1,3-.85,10.23,10.23,0,0,1,2.23.23,7.31,7.31,0,0,1,2.06.76l-1,2.59a7.08,7.08,0,0,0-.91-.4c-.27-.09-.54-.17-.82-.24a6.19,6.19,0,0,0-.86-.15,8,8,0,0,0-.82-.05c-.84,0-1.26.13-1.26.4s.09.26.27.37a3.4,3.4,0,0,0,1.11.32l.74.14a6.16,6.16,0,0,1,2.89,1.18,2.73,2.73,0,0,1,.89,2.16,2.84,2.84,0,0,1-.29,1.26,2.94,2.94,0,0,1-.87,1,4.23,4.23,0,0,1-1.42.64,7.27,7.27,0,0,1-2,.23,9.34,9.34,0,0,1-1.18-.07,9,9,0,0,1-1.16-.19,8.51,8.51,0,0,1-1.08-.31,6.65,6.65,0,0,1-1.09-.52l1.06-2.73a6.29,6.29,0,0,0,1.72.82A6.37,6.37,0,0,0,255,42,3.75,3.75,0,0,0,256.09,41.88Z"/><path class="cls-1" d="M261.5,33.22a1.31,1.31,0,0,1-.49-1.1,1.35,1.35,0,0,1,.47-1.06,1.8,1.8,0,0,1,2.26,0,1.37,1.37,0,0,1,.45,1.06,1.41,1.41,0,0,1-.44,1.08,1.64,1.64,0,0,1-1.14.4A1.74,1.74,0,0,1,261.5,33.22ZM264,34.65v9.9h-2.79v-9.9Z"/><path class="cls-1" d="M267.61,34.6c.39-.06.77-.11,1.16-.15l1.07-.1c.34,0,.64,0,.91,0a8.33,8.33,0,0,1,1.76.18,3.64,3.64,0,0,1,1.46.64,3.35,3.35,0,0,1,1,1.27,4.78,4.78,0,0,1,.37,2v6.14h-2.79V39.09a2.16,2.16,0,0,0-.47-1.62,2.11,2.11,0,0,0-1.43-.42c-.25,0-.52,0-.82.05l-.76.1v7.35h-2.79V34.83Z"/><path class="cls-1" d="M277,37.38a4.59,4.59,0,0,1,1.14-1.62A5.31,5.31,0,0,1,280,34.7a7.06,7.06,0,0,1,2.42-.39,14.51,14.51,0,0,1,4,.55v8.75a8.11,8.11,0,0,1-.26,2.19,3,3,0,0,1-.87,1.47,3.48,3.48,0,0,1-1.6.82,10.28,10.28,0,0,1-2.42.24l-.66,0c-.24,0-.49,0-.73-.09l-.74-.14a7.7,7.7,0,0,1-.78-.21l-.62-3a9.91,9.91,0,0,0,1.14.44l.87.22.87.15a7.24,7.24,0,0,0,.75,0,4.48,4.48,0,0,0,.94-.09,2.11,2.11,0,0,0,.72-.26,1.37,1.37,0,0,0,.44-.42,1,1,0,0,0,.16-.6v.06a6.32,6.32,0,0,1-.67.07l-.75,0a6.36,6.36,0,0,1-2.27-.4,5.46,5.46,0,0,1-1.76-1.07A4.72,4.72,0,0,1,277,41.43a5.21,5.21,0,0,1-.39-2A5.38,5.38,0,0,1,277,37.38Zm6-.27a4.18,4.18,0,0,0-.68-.06,3.45,3.45,0,0,0-2.08.56,2.13,2.13,0,0,0-.74,1.79,2.16,2.16,0,0,0,.74,1.8,3.38,3.38,0,0,0,2.08.58,5.13,5.13,0,0,0,.65-.05c.23,0,.43-.06.6-.09V37.2Z"/><path class="cls-1" d="M324.74,0a30,30,0,1,0,30.61,29.37A30,30,0,0,0,324.74,0Zm17.95,46.63A24.09,24.09,0,0,1,325.85,54a24,24,0,0,1-24.52-23.53A24,24,0,0,1,334.25,7.67c.67.27,1.34.57,2,.9l-.13-.05a1.44,1.44,0,0,0-.25-.08,3.83,3.83,0,0,1,.79.37h0l.24.18.14.14.14.14a1.94,1.94,0,0,0,.2.21l0,0,0,0s0,0,0,0,.13.19.21.29l.08.13a.76.76,0,0,1,.09.18v0c0,.09.08.18.11.27a.14.14,0,0,1,0,.07,1,1,0,0,1,0,.14.19.19,0,0,1,0,.07.13.13,0,0,1,0,.06v0c0,.1,0,.21.07.32a.42.42,0,0,1,0,.16.11.11,0,0,1,0,.08v.08a2.78,2.78,0,0,1,0,.58s0,0,0,0a5,5,0,0,1-.19.66.14.14,0,0,1,0,.06c-.05.11-.11.22-.17.33a.75.75,0,0,1-.07.12h0l-.15.2-.05.06a.83.83,0,0,1-.11.15.52.52,0,0,1-.1.11l-.18.16a.34.34,0,0,1-.06.06h0a3,3,0,0,1-.74.47h0l-.28.11-.44.11h-.08l-.26,0h-.17l-.43,0h-.09a2.59,2.59,0,0,1-.4-.09l-.08,0-.14,0-.13-.05h0l-.07,0a2,2,0,0,1-.29-.16h0l-.34-.23a.76.76,0,0,0,.17.13.72.72,0,0,0,.15.11,17.48,17.48,0,1,0,8.06,8.29l-7.58,5.59-.59.44a3.59,3.59,0,0,1-.66.31c-1.06.38-2.15.67-3.22,1.05a.71.71,0,0,0-.42.46,5.25,5.25,0,0,1-.51,1.72,5.58,5.58,0,0,1-3.59,2.72,9.66,9.66,0,0,1-5.66-.14c-.33-.1-.8-.43-.82-.69a1.41,1.41,0,0,1,.6-1,4.69,4.69,0,0,0,2-3.07,4.56,4.56,0,0,1,2.79-3.39,3.72,3.72,0,0,1,1.59-.24,3.66,3.66,0,0,1,1.32.35,9.32,9.32,0,0,0,.71-.95,8,8,0,0,1,2-2.38l.7-.52,7.53-5.56,5.29-3.9a23.93,23.93,0,0,1,3.79,5.26c.27.49.5,1,.74,1.49a24,24,0,0,1,2.08,9.31,23.87,23.87,0,0,1-6.69,17.14ZM327.85,27.23a.72.72,0,0,0,.09.66c.25.31.63.82.87.77a25.64,25.64,0,0,0,2.87-.84l-2.08-2.95C329,25.68,328.38,26.44,327.85,27.23Zm-3,.47a2.86,2.86,0,0,0-2.52,2.09c-.09.3-.18.61-.28.91a6.9,6.9,0,0,1-1.79,3,8.89,8.89,0,0,0,4,0l.42-.13a5.58,5.58,0,0,0,1.95-1.29,2.4,2.4,0,0,0,.57-3.07A2.49,2.49,0,0,0,324.82,27.7Z"/></svg>