<svg id="Layer_1" data-name="Layer 1" xmlns="http://www.w3.org/2000/svg" viewBox="0 0 312.24 60"><defs><style>.cls-1{fill:#fff;}</style></defs><title>الشعارات الاساسية</title><path class="cls-1" d="M.91,28.93a4,4,0,0,1-.71-.16L0,26c.4.1.69.16.85.19a4,4,0,0,0,.49,0,.94.94,0,0,0,.82-.31,2,2,0,0,0,.23-1.12V15.37H5.18v9a9.84,9.84,0,0,1-.19,2,3.55,3.55,0,0,1-.64,1.43,2.54,2.54,0,0,1-1.12.84A4.49,4.49,0,0,1,1.6,29,5.12,5.12,0,0,1,.91,28.93Z"/><path class="cls-1" d="M17.08,22.48v2.79H15.47a4.76,4.76,0,0,1-.32,1.37,3.34,3.34,0,0,1-.81,1.24,3.48,3.48,0,0,1-1.37.8A5.88,5.88,0,0,1,11,29l-.65,0-.58-.08-.58-.12-.85-.23-.2-2.85a12.69,12.69,0,0,0,1.55.41,6.27,6.27,0,0,0,1.14.1,6.5,6.5,0,0,0,.82,0,1.55,1.55,0,0,0,.56-.16.88.88,0,0,0,.35-.34,1,1,0,0,0,.14-.37h0A9.18,9.18,0,0,1,10.33,25a5.42,5.42,0,0,1-1.9-.87,4.14,4.14,0,0,1-1.28-1.55,4.93,4.93,0,0,1-.47-2.26,4.67,4.67,0,0,1,.45-2.08,4.49,4.49,0,0,1,1.25-1.55,5.85,5.85,0,0,1,1.89-1,8.27,8.27,0,0,1,2.39-.33h2.88l0,7.11ZM9.66,21.25a1.83,1.83,0,0,0,.52.67,2.38,2.38,0,0,0,.79.42,3.55,3.55,0,0,0,1,.14h.78V18.16H12a2.83,2.83,0,0,0-1,.16,2.39,2.39,0,0,0-.8.44,2,2,0,0,0-.55.67,1.84,1.84,0,0,0-.2.88A2.13,2.13,0,0,0,9.66,21.25Z"/><path class="cls-1" d="M20.08,22.48v2.79H16.33V22.48Z"/><path class="cls-1" d="M23.05,22.48v2.79H19.3V22.48Z"/><path class="cls-1" d="M26,22.48v2.79H22.28V22.48Z"/><path class="cls-1" d="M29,22.48v2.79H25.26V22.48Z"/><path class="cls-1" d="M32,22.48v2.79H28.23V22.48Z"/><path class="cls-1" d="M4.61,44.21a6.65,6.65,0,0,1-2.29-1.54A6.76,6.76,0,0,1,.85,40.36a7.91,7.91,0,0,1-.51-2.87,8,8,0,0,1,.51-2.88A7,7,0,0,1,2.32,32.3a6.49,6.49,0,0,1,2.29-1.53,8,8,0,0,1,3-.55,11.85,11.85,0,0,1,2.85.33,8.31,8.31,0,0,1,2.4,1l-1.09,2.53a7.47,7.47,0,0,0-1.91-.84A8.11,8.11,0,0,0,7.72,33,5.19,5.19,0,0,0,6,33.23a3.69,3.69,0,0,0-1.38.84,3.86,3.86,0,0,0-1,1.41,5.08,5.08,0,0,0-.36,2,5.15,5.15,0,0,0,.36,2,4.07,4.07,0,0,0,1,1.42A3.69,3.69,0,0,0,6,41.76,5.19,5.19,0,0,0,7.72,42a6.76,6.76,0,0,0,1.41-.15,5.06,5.06,0,0,0,1.17-.36v-2.1H7.25V36.7h5.91v6.71a7.1,7.1,0,0,1-1.27.62,10.56,10.56,0,0,1-1.39.39A14.36,14.36,0,0,1,9,44.67c-.5,0-1,.08-1.42.08A8,8,0,0,1,4.61,44.21Z"/><path class="cls-1" d="M15.76,30.48h2.79V44.55H15.76Z"/><path class="cls-1" d="M23.27,44.58A4.82,4.82,0,0,1,21.78,44a3.07,3.07,0,0,1-1.06-1,3,3,0,0,1-.4-1.59,3.19,3.19,0,0,1,.35-1.5,3.07,3.07,0,0,1,1-1.08,4.32,4.32,0,0,1,1.46-.64A7.54,7.54,0,0,1,24.94,38l.86,0a7.37,7.37,0,0,1,.88.1,1.05,1.05,0,0,0-.63-.82A3.5,3.5,0,0,0,24.61,37a5.65,5.65,0,0,0-.78.06l-.85.18a7.63,7.63,0,0,0-.85.26A11.39,11.39,0,0,0,21,38l.37-2.93A8.2,8.2,0,0,1,23,34.53a8.06,8.06,0,0,1,1.94-.22,6.94,6.94,0,0,1,1.75.21,3.93,3.93,0,0,1,1.41.68A3.1,3.1,0,0,1,29,36.44a4.61,4.61,0,0,1,.34,1.84v5.66a11.27,11.27,0,0,1-2.16.62,12.51,12.51,0,0,1-2.18.19A9.22,9.22,0,0,1,23.27,44.58ZM26,40.3a5.81,5.81,0,0,0-.8,0,5.18,5.18,0,0,0-.81,0,2.56,2.56,0,0,0-.64.18,1,1,0,0,0-.4.3.78.78,0,0,0-.14.46.76.76,0,0,0,.52.73,3.31,3.31,0,0,0,1.33.23,6.36,6.36,0,0,0,.86-.07,5.11,5.11,0,0,0,.66-.14V40.4A5.79,5.79,0,0,0,26,40.3Z"/><path class="cls-1" d="M35,22.48v2.79H31.21V22.48Z"/><path class="cls-1" d="M37.94,22.48v2.79H34.19V22.48Z"/><path class="cls-1" d="M40.91,22.48v2.79H37.16V22.48Z"/><path class="cls-1" d="M43.89,22.48v2.79H40.14V22.48Z"/><path class="cls-1" d="M46.87,22.48v2.79H43.12V22.48Z"/><path class="cls-1" d="M49.84,22.48v2.79H46.09V22.48Z"/><path class="cls-1" d="M52.82,22.48v2.79H49.07V22.48Z"/><path class="cls-1" d="M55.79,22.48v2.79H52V22.48Z"/><path class="cls-1" d="M58.77,22.48v2.79H55V22.48Z"/><path class="cls-1" d="M61.75,22.48v2.79H58V22.48Z"/><path class="cls-1" d="M62.84,22.48s0-.1-.05-.32a5,5,0,0,1,0-.67,4.37,4.37,0,0,1,1-3,3.54,3.54,0,0,1,2.72-1.07,3.72,3.72,0,0,1,1.5.3,3.41,3.41,0,0,1,1.18.83,3.92,3.92,0,0,1,.78,1.3,4.9,4.9,0,0,1,.27,1.66,5.17,5.17,0,0,1,0,.68c0,.23,0,.34,0,.33h1.08c0-.17,0-.38.06-.65s0-.5,0-.73a6.38,6.38,0,0,0-.21-1.72A4.64,4.64,0,0,0,70.42,18,3.3,3.3,0,0,0,69,16.74a6,6,0,0,0-4.17-.07,14.17,14.17,0,0,0-1.77.83L62.12,15a14.71,14.71,0,0,1,2.63-1,9,9,0,0,1,2.6-.38,6.83,6.83,0,0,1,1.75.21,5.93,5.93,0,0,1,1.46.58,5.4,5.4,0,0,1,1.17.87,7.66,7.66,0,0,1,.91,1.08,7.4,7.4,0,0,1,1.07,2.37,11.25,11.25,0,0,1,.35,2.88,7.31,7.31,0,0,1-.06.91c0,.32-.09.64-.14,1s-.13.63-.21.93-.17.62-.28,1H61V22.48Zm2.48-.37c0,.21,0,.34,0,.37h2.19s0-.16,0-.37a4.83,4.83,0,0,0,0-.67,1.76,1.76,0,0,0-.31-1.12,1.06,1.06,0,0,0-.88-.4,1,1,0,0,0-.87.39,1.88,1.88,0,0,0-.29,1.13A4.83,4.83,0,0,0,65.32,22.11Z"/><path class="cls-1" d="M75.92,28.93a4.09,4.09,0,0,1-.7-.16L75,26c.4.1.68.16.85.19a3.91,3.91,0,0,0,.49,0,1,1,0,0,0,.82-.31,2,2,0,0,0,.23-1.12V15.37H80.2v7.11H82v2.79H80.16A4.32,4.32,0,0,1,79.23,28a3.35,3.35,0,0,1-2.62.94A5.32,5.32,0,0,1,75.92,28.93ZM77.64,14a1.46,1.46,0,0,1,0-2.16,1.76,1.76,0,0,1,2.26,0,1.46,1.46,0,0,1,0,2.16,1.76,1.76,0,0,1-1.11.38A1.78,1.78,0,0,1,77.64,14Z"/><path class="cls-1" d="M82.89,22.48V11.2h2.79V22.48h2.15v2.79H81.24V22.48Z"/><path class="cls-1" d="M88.71,22.48V11.2h3.88V14H91.5V25.27H87.06V22.48Z"/><path class="cls-1" d="M98.76,26.88a7.61,7.61,0,0,1-.37-2.48,9.62,9.62,0,0,1,.19-1.92h1.09a7.41,7.41,0,0,1-.35-1,5.32,5.32,0,0,1-.22-1.57,4.71,4.71,0,0,1,.49-2.21,5.25,5.25,0,0,1,1.27-1.59,4.19,4.19,0,0,1,1.44-.78,5.55,5.55,0,0,1,1.76-.26,6.56,6.56,0,0,1,1.85.25,11,11,0,0,1,1.92.79l-1,2.56a7.66,7.66,0,0,0-1.36-.63,4,4,0,0,0-1.18-.2,2.58,2.58,0,0,0-1.69.52,2.15,2.15,0,0,0-.58.79,2.59,2.59,0,0,0-.16.95,4,4,0,0,0,.22,1.38,3.29,3.29,0,0,0,.55,1h5.45v2.79h-6.91v0a4.44,4.44,0,0,0,.17,1.19,7.57,7.57,0,0,0,.7,1.51l-2.2,1A8.36,8.36,0,0,1,98.76,26.88Z"/><path class="cls-1" d="M113.11,11.2V25.27h-2.79V11.2Z"/><path class="cls-1" d="M120.39,22.48V20.13a3.22,3.22,0,0,0-.1-.82,1.71,1.71,0,0,0-.31-.6,1.27,1.27,0,0,0-.52-.4,1.78,1.78,0,0,0-.74-.15H117.5V15.37h1a6.26,6.26,0,0,1,2.07.31,3.88,3.88,0,0,1,1.58,1,3.32,3.32,0,0,1,.81,1.53,8.38,8.38,0,0,1,.23,2v2.25H125v2.79H114.52V22.48Z"/><path class="cls-1" d="M128,22.48v2.79h-3.75V22.48Z"/><path class="cls-1" d="M131,22.48v2.79h-3.75V22.48Z"/><path class="cls-1" d="M133.94,22.48v2.79h-3.75V22.48Z"/><path class="cls-1" d="M136.92,22.48v2.79h-3.75V22.48Z"/><path class="cls-1" d="M139.89,22.48v2.79h-3.75V22.48Z"/><path class="cls-1" d="M142.87,22.48v2.79h-3.75V22.48Z"/><path class="cls-1" d="M145.85,22.48v2.79H142.1V22.48Z"/><path class="cls-1" d="M148.82,22.48v2.79h-3.75V22.48Z"/><path class="cls-1" d="M151.8,22.48v2.79h-3.75V22.48Z"/><path class="cls-1" d="M153.11,22.48V15.37h2.79v9.9H151V22.48Zm.32,6a1.31,1.31,0,0,1-.49-1.1,1.35,1.35,0,0,1,.47-1.06,1.68,1.68,0,0,1,1.13-.4,1.72,1.72,0,0,1,1.14.4,1.38,1.38,0,0,1,.46,1.06,1.28,1.28,0,0,1-.49,1.1,1.7,1.7,0,0,1-1.11.38A1.74,1.74,0,0,1,153.43,28.47Z"/><path class="cls-1" d="M162.41,22.48a3.44,3.44,0,0,0,1-.13,2.29,2.29,0,0,0,.78-.39,1.81,1.81,0,0,0,.45-.63,2.37,2.37,0,0,0,.17-.95V10h3.88v2.79h-1.09v7.55a6.61,6.61,0,0,1-.33,2.08,3.88,3.88,0,0,1-1,1.64,4.38,4.38,0,0,1-1.86,1,9.79,9.79,0,0,1-2.48.28H157.7l-.33-2.79Zm-3,6.41a2.19,2.19,0,0,1-.63-1.77v-1h3.94v1.7H160.6a.4.4,0,0,0,.14.25.75.75,0,0,0,.55.15h.92v1.19h-1.06A2.54,2.54,0,0,1,159.44,28.89Zm3.14-16.11v9.3h-2.79v-9.3Z"/><path class="cls-1" d="M174,11.2V25.27h-2.79V11.2Z"/><path class="cls-1" d="M183.72,27.31a7.26,7.26,0,0,1-1.22-.19,7.06,7.06,0,0,1-1.07-.35c-.34-.15-.76-.36-1.26-.64l1.13-2.47a7.3,7.3,0,0,0,1.71.75,6.56,6.56,0,0,0,1.5.17h3.06V20.06a6,6,0,0,1,.36-2.18,3.62,3.62,0,0,1,1.17-1.57,4.09,4.09,0,0,1,1.48-.72,7.32,7.32,0,0,1,1.87-.22h3.39v9.9h-2.79V18.16h-.86a3.11,3.11,0,0,0-.72.08,1.43,1.43,0,0,0-.56.29,1.31,1.31,0,0,0-.4.59,2.17,2.17,0,0,0-.15.79v7.46h-5.1C184.67,27.37,184.16,27.35,183.72,27.31Zm.08-7.55a1.32,1.32,0,0,1-.49-1.1,1.35,1.35,0,0,1,.47-1.06,1.68,1.68,0,0,1,1.13-.4,1.72,1.72,0,0,1,1.14.4,1.34,1.34,0,0,1,.46,1.06,1.3,1.3,0,0,1-.49,1.1,1.7,1.7,0,0,1-1.11.38A1.74,1.74,0,0,1,183.8,19.76Zm0,3.57a1.32,1.32,0,0,1-.49-1.1,1.34,1.34,0,0,1,.47-1.06,1.64,1.64,0,0,1,1.13-.41,1.68,1.68,0,0,1,1.14.41,1.33,1.33,0,0,1,.46,1.06,1.3,1.3,0,0,1-.49,1.1,1.76,1.76,0,0,1-1.11.38A1.8,1.8,0,0,1,183.8,23.33Z"/><path class="cls-1" d="M197.81,28.93a4.19,4.19,0,0,1-.71-.16L196.9,26l.85.19a4.07,4.07,0,0,0,.5,0,.93.93,0,0,0,.81-.31,2,2,0,0,0,.23-1.12V15.37h2.79v9a9.18,9.18,0,0,1-.19,2,3.68,3.68,0,0,1-.63,1.43,2.57,2.57,0,0,1-1.13.84,4.45,4.45,0,0,1-1.63.27A5.22,5.22,0,0,1,197.81,28.93Z"/><path class="cls-1" d="M208.59,22.48a3.44,3.44,0,0,0,1-.13,2.38,2.38,0,0,0,.78-.39,1.81,1.81,0,0,0,.45-.63,2.37,2.37,0,0,0,.17-.95V10h3.88v2.79h-1.09v7.55a6.14,6.14,0,0,1-.17,1.48,3.18,3.18,0,0,0,2.41.71v2.79a5.92,5.92,0,0,1-1.59-.16,3.45,3.45,0,0,1-.95-.41,2.68,2.68,0,0,1-.63-.56,2.33,2.33,0,0,0-.23-.3s0,.05-.17.17a4.44,4.44,0,0,1-1.86,1,9.79,9.79,0,0,1-2.48.28h-4.22l-.33-2.79Zm.17-9.7v9.3H206v-9.3Z"/><path class="cls-1" d="M219,22.48v2.79h-3.75V22.48Z"/><path class="cls-1" d="M222,22.48v2.79h-3.75V22.48Z"/><path class="cls-1" d="M224.94,22.48v2.79h-3.75V22.48Z"/><path class="cls-1" d="M227.91,22.48v2.79h-3.75V22.48Z"/><path class="cls-1" d="M230.89,22.48v2.79h-3.75V22.48Z"/><path class="cls-1" d="M233.87,22.48v2.79h-3.75V22.48Z"/><path class="cls-1" d="M235.13,22.48a3.72,3.72,0,0,1-.37-.79,4,4,0,0,1-.22-1.38,4.81,4.81,0,0,1,.43-2.08,4.39,4.39,0,0,1,1.21-1.56,5.15,5.15,0,0,1,1.86-1,8,8,0,0,1,2.37-.33h3v9.9H233.09V22.48Zm1.7-8.47a1.28,1.28,0,0,1-.46-1.06,1.29,1.29,0,0,1,.45-1,1.58,1.58,0,0,1,1.08-.39,1.6,1.6,0,0,1,1.09.39,1.32,1.32,0,0,1,.44,1A1.3,1.3,0,0,1,239,14a1.7,1.7,0,0,1-1.08.37A1.67,1.67,0,0,1,236.83,14Zm.82,7.58a2.58,2.58,0,0,0,.81.89h2.15V18.16h-.78a3.33,3.33,0,0,0-.93.14,2.57,2.57,0,0,0-.81.41,2,2,0,0,0-.55.68,2,2,0,0,0-.21.92A2.56,2.56,0,0,0,237.65,21.59ZM240.47,14a1.44,1.44,0,0,1,0-2.09,1.7,1.7,0,0,1,2.17,0,1.32,1.32,0,0,1,.44,1,1.3,1.3,0,0,1-.45,1.06,1.72,1.72,0,0,1-1.08.37A1.7,1.7,0,0,1,240.47,14Z"/><path class="cls-1" d="M35.84,37.18h-.38l-.54,0c-.18,0-.44,0-.77.09s-.29,0,.11-.14v7.37H31.47V34.93c.41-.08.79-.14,1.13-.19l1-.13,1-.08c.32,0,.6,0,.84,0h2v2.69Z"/><path class="cls-1" d="M39.83,45.31l.86.22.87.15a7.24,7.24,0,0,0,.76,0,4.55,4.55,0,0,0,.94-.09,2,2,0,0,0,.71-.26,1.31,1.31,0,0,0,.45-.42l.15-.24.1-.3a9,9,0,0,1-1.76.16,8.53,8.53,0,0,1-1.73-.17,3.5,3.5,0,0,1-1.39-.65,3,3,0,0,1-.9-1.27,5.29,5.29,0,0,1-.32-2V34.63h2.81v5.18a4.18,4.18,0,0,0,.1,1,1.5,1.5,0,0,0,.28.61,1,1,0,0,0,.5.31,2.73,2.73,0,0,0,.76.09,5.27,5.27,0,0,0,.78-.05,4.38,4.38,0,0,0,.77-.15v-7h2.79v9a8.15,8.15,0,0,1-.25,2.19,3,3,0,0,1-.88,1.47,3.45,3.45,0,0,1-1.59.82,10.34,10.34,0,0,1-2.42.24l-.67,0-.73-.09-.73-.14a7.7,7.7,0,0,1-.78-.21l-.63-3A10.67,10.67,0,0,0,39.83,45.31Z"/><path class="cls-1" d="M59.79,33.23a3.73,3.73,0,0,0-1.39.84,4,4,0,0,0-.95,1.41,5.28,5.28,0,0,0-.35,2,5.35,5.35,0,0,0,.35,2,4.22,4.22,0,0,0,.95,1.42,3.73,3.73,0,0,0,1.39.84,5.19,5.19,0,0,0,1.68.27,5.87,5.87,0,0,0,1.81-.27,8.38,8.38,0,0,0,1.77-.86l1.11,2.56a8.39,8.39,0,0,1-2.26,1,10,10,0,0,1-2.53.32,8,8,0,0,1-3-.54,6.64,6.64,0,0,1-3.76-3.85,7.91,7.91,0,0,1-.51-2.87,8,8,0,0,1,.51-2.88,6.93,6.93,0,0,1,1.46-2.31,6.53,6.53,0,0,1,2.3-1.53,8,8,0,0,1,3-.55,9.54,9.54,0,0,1,2.53.33,8.44,8.44,0,0,1,2.26,1l-1.11,2.53a8.2,8.2,0,0,0-1.76-.84A5.93,5.93,0,0,0,61.47,33,5.19,5.19,0,0,0,59.79,33.23Z"/><path class="cls-1" d="M71.75,37.18h-.39l-.53,0c-.19,0-.44,0-.77.09s-.3,0,.11-.14v7.37h-2.8V34.93l1.13-.19,1-.13,1-.08c.31,0,.59,0,.84,0h2v2.69Z"/><path class="cls-1" d="M80.41,41.94c.27,0,.52-.1.76-.16a3.94,3.94,0,0,0,.66-.25,3.05,3.05,0,0,0,.68-.51l1.26,2.55a10.15,10.15,0,0,1-2,.86,8.25,8.25,0,0,1-2.44.32,5.88,5.88,0,0,1-2.16-.39,5.39,5.39,0,0,1-1.72-1.1,4.63,4.63,0,0,1-1.13-1.65,5.27,5.27,0,0,1-.41-2.07,5.35,5.35,0,0,1,.41-2.1,5.2,5.2,0,0,1,1.13-1.66,5.06,5.06,0,0,1,1.67-1.08,5.62,5.62,0,0,1,4.14,0,4.54,4.54,0,0,1,1.65,1.19,5.22,5.22,0,0,1,1,1.9,8.24,8.24,0,0,1,.31,2.73H76.86a1.63,1.63,0,0,0,.82,1,3.19,3.19,0,0,0,1.73.43h.26A3.93,3.93,0,0,0,80.41,41.94Zm-2.75-4.65a1.84,1.84,0,0,0-.72.85h4.39a1.52,1.52,0,0,0-.71-.91,2.53,2.53,0,0,0-1.48-.4A2.31,2.31,0,0,0,77.66,37.29Z"/><path class="cls-1" d="M88.29,44.58a4.78,4.78,0,0,1-1.5-.57,3.13,3.13,0,0,1-1.05-1,2.94,2.94,0,0,1-.41-1.59,3.08,3.08,0,0,1,.36-1.5,3,3,0,0,1,1-1.08,4.37,4.37,0,0,1,1.47-.64A7.54,7.54,0,0,1,90,38l.86,0a7.44,7.44,0,0,1,.87.1,1,1,0,0,0-.62-.82A3.55,3.55,0,0,0,89.62,37a5.52,5.52,0,0,0-.77.06l-.86.18a8.34,8.34,0,0,0-.85.26c-.27.1-.65.26-1.12.49l.37-2.93A8.08,8.08,0,0,1,88,34.53a8,8,0,0,1,1.93-.22,6.94,6.94,0,0,1,1.75.21,3.86,3.86,0,0,1,1.41.68A3,3,0,0,1,94,36.44a4.45,4.45,0,0,1,.34,1.84v5.66a11.27,11.27,0,0,1-2.16.62,12.43,12.43,0,0,1-2.18.19A9.11,9.11,0,0,1,88.29,44.58ZM91,40.3a5.72,5.72,0,0,0-.8,0,5.18,5.18,0,0,0-.81,0,2.69,2.69,0,0,0-.64.18,1,1,0,0,0-.4.3.78.78,0,0,0-.13.46.76.76,0,0,0,.51.73,3.36,3.36,0,0,0,1.34.23,6.22,6.22,0,0,0,.85-.07,5.11,5.11,0,0,0,.66-.14V40.4A5.28,5.28,0,0,0,91,40.3Z"/><path class="cls-1" d="M97.24,34.65V31.18H100v3.47h3.6v2.62H100v3.21a2.84,2.84,0,0,0,.08.73.83.83,0,0,0,.22.42,1,1,0,0,0,.44.22,2.86,2.86,0,0,0,.72.08h2.21v2.62h-2.46a8.32,8.32,0,0,1-1.76-.16,3.29,3.29,0,0,1-1.26-.55,2.13,2.13,0,0,1-.74-1,4.25,4.25,0,0,1-.24-1.52v-4H95.46V34.65Z"/><path class="cls-1" d="M105.67,33.22a1.28,1.28,0,0,1-.49-1.1,1.34,1.34,0,0,1,.46-1.06,1.72,1.72,0,0,1,1.14-.4,1.67,1.67,0,0,1,1.12.4,1.34,1.34,0,0,1,.46,1.06,1.38,1.38,0,0,1-.45,1.08,1.61,1.61,0,0,1-1.13.4A1.7,1.7,0,0,1,105.67,33.22Zm2.5,1.43v9.9h-2.79v-9.9Z"/><path class="cls-1" d="M109.16,34.65h2.93l2.25,6.76,2.26-6.76h2.92l-3.41,9.9h-3.53Z"/><path class="cls-1" d="M120.82,33.22a1.28,1.28,0,0,1-.49-1.1,1.34,1.34,0,0,1,.46-1.06,1.72,1.72,0,0,1,1.14-.4,1.65,1.65,0,0,1,1.12.4,1.34,1.34,0,0,1,.46,1.06,1.38,1.38,0,0,1-.45,1.08,1.61,1.61,0,0,1-1.13.4A1.7,1.7,0,0,1,120.82,33.22Zm2.5,1.43v9.9h-2.79v-9.9Z"/><path class="cls-1" d="M126.35,34.65V31.18h2.79v3.47h3.6v2.62h-3.6v3.21a2.84,2.84,0,0,0,.08.73.83.83,0,0,0,.22.42,1,1,0,0,0,.44.22,2.86,2.86,0,0,0,.72.08h2.21v2.62h-2.46a8.32,8.32,0,0,1-1.76-.16,3.22,3.22,0,0,1-1.26-.55,2.21,2.21,0,0,1-.75-1,4.5,4.5,0,0,1-.23-1.52v-4h-1.78V34.65Z"/><path class="cls-1" d="M135.48,45.31l.87.22.86.15a7.42,7.42,0,0,0,.76,0,4.48,4.48,0,0,0,.94-.09,2.11,2.11,0,0,0,.72-.26,1.37,1.37,0,0,0,.44-.42l.15-.24.1-.3a8.93,8.93,0,0,1-1.76.16,8.6,8.6,0,0,1-1.73-.17,3.39,3.39,0,0,1-1.38-.65,3,3,0,0,1-.91-1.27,5.5,5.5,0,0,1-.32-2V34.63H137v5.18a4.18,4.18,0,0,0,.1,1,1.51,1.51,0,0,0,.29.61.92.92,0,0,0,.49.31,2.8,2.8,0,0,0,.77.09,5.45,5.45,0,0,0,.78-.05,4.26,4.26,0,0,0,.76-.15v-7H143v9a8.15,8.15,0,0,1-.25,2.19,3.11,3.11,0,0,1-.87,1.47,3.53,3.53,0,0,1-1.6.82,10.34,10.34,0,0,1-2.42.24l-.66,0c-.25,0-.49,0-.74-.09l-.73-.14a7.7,7.7,0,0,1-.78-.21l-.62-3A9.91,9.91,0,0,0,135.48,45.31Z"/><path class="cls-1" d="M150.67,30.48h9.13v2.69h-6.27V36h5.66V38.7h-5.66v5.85h-2.86Z"/><path class="cls-1" d="M163.32,44.35a5.71,5.71,0,0,1-1.69-1.09,4.9,4.9,0,0,1-1.13-1.65,5.11,5.11,0,0,1-.42-2.07,5,5,0,0,1,.42-2,5.24,5.24,0,0,1,2.82-2.78,5.77,5.77,0,0,1,4.22,0,5.14,5.14,0,0,1,1.69,1.12,5.46,5.46,0,0,1,1.14,1.66,5.14,5.14,0,0,1,.41,2,5.27,5.27,0,0,1-.41,2.07,5.07,5.07,0,0,1-1.14,1.65,5.58,5.58,0,0,1-1.69,1.09,5.77,5.77,0,0,1-4.22,0Zm3.13-2.53a2.44,2.44,0,0,0,.76-.52,2.07,2.07,0,0,0,.49-.79,2.78,2.78,0,0,0,.17-1,2.88,2.88,0,0,0-.17-1,2.11,2.11,0,0,0-.49-.78,2.46,2.46,0,0,0-.76-.53,2.7,2.7,0,0,0-2,0,2.59,2.59,0,0,0-.76.53,2.25,2.25,0,0,0-.49.78,2.88,2.88,0,0,0-.17,1,2.78,2.78,0,0,0,.17,1,2.2,2.2,0,0,0,.49.79,2.66,2.66,0,0,0,2.8.52Z"/><path class="cls-1" d="M176.63,37.18h-.38l-.54,0c-.18,0-.44,0-.77.09s-.29,0,.11-.14v7.37h-2.79V34.93c.41-.08.79-.14,1.13-.19l1-.13,1-.08c.32,0,.6,0,.84,0h2v2.69Z"/><path class="cls-1" d="M185,30.48h9.13v2.69h-6.27V36h5.67V38.7h-5.67v5.85H185Z"/><path class="cls-1" d="M195.21,30.48H198V44.55h-2.8Z"/><path class="cls-1" d="M202.72,44.35A5.84,5.84,0,0,1,201,43.26a4.9,4.9,0,0,1-1.13-1.65,5.1,5.1,0,0,1-.41-2.07,5,5,0,0,1,.41-2A5.26,5.26,0,0,1,201,35.83a5.36,5.36,0,0,1,1.69-1.12,5.43,5.43,0,0,1,2.11-.4,5.36,5.36,0,0,1,2.11.4,5.14,5.14,0,0,1,1.69,1.12,5.29,5.29,0,0,1,1.14,1.66,5.14,5.14,0,0,1,.41,2,5.27,5.27,0,0,1-.41,2.07,4.92,4.92,0,0,1-1.14,1.65,5.58,5.58,0,0,1-1.69,1.09,5.36,5.36,0,0,1-2.11.4A5.43,5.43,0,0,1,202.72,44.35Zm3.13-2.53a2.61,2.61,0,0,0,.77-.52,2.18,2.18,0,0,0,.48-.79,2.57,2.57,0,0,0,.17-1,2.66,2.66,0,0,0-.17-1,2.22,2.22,0,0,0-.48-.78,2.64,2.64,0,0,0-.77-.53,2.54,2.54,0,0,0-1-.2,2.46,2.46,0,0,0-1,.2,2.51,2.51,0,0,0-.77.53,2.4,2.4,0,0,0-.49.78,2.88,2.88,0,0,0-.16,1,2.78,2.78,0,0,0,.16,1,2.35,2.35,0,0,0,.49.79,2.49,2.49,0,0,0,.77.52,2.46,2.46,0,0,0,1,.19A2.54,2.54,0,0,0,205.85,41.82Z"/><path class="cls-1" d="M218,38l-1.45,6.52h-3.5l-2.69-9.9h3L215,41.12l1.45-6.47h3.18l1.46,6.47,1.55-6.47h3L223,44.55h-3.57Z"/><path class="cls-1" d="M232.37,41.94c.26,0,.52-.1.76-.16a3.52,3.52,0,0,0,.65-.25,2.66,2.66,0,0,0,.68-.51l1.27,2.55a10.15,10.15,0,0,1-2,.86,8.32,8.32,0,0,1-2.45.32,5.83,5.83,0,0,1-2.15-.39,5.39,5.39,0,0,1-1.72-1.1,4.78,4.78,0,0,1-1.14-1.65,5.27,5.27,0,0,1-.4-2.07,5.35,5.35,0,0,1,.41-2.1,5.2,5.2,0,0,1,1.13-1.66,5,5,0,0,1,1.66-1.08,5.65,5.65,0,0,1,4.15,0,4.42,4.42,0,0,1,1.64,1.19,5.24,5.24,0,0,1,1.06,1.9,8.24,8.24,0,0,1,.31,2.73h-7.44a1.65,1.65,0,0,0,.83,1,3.19,3.19,0,0,0,1.73.43h.25A4,4,0,0,0,232.37,41.94Zm-2.76-4.65a1.87,1.87,0,0,0-.71.85h4.39a1.56,1.56,0,0,0-.71-.91,2.53,2.53,0,0,0-1.48-.4A2.36,2.36,0,0,0,229.61,37.29Z"/><path class="cls-1" d="M242,37.18h-.39l-.53,0c-.18,0-.44,0-.77.09s-.3,0,.11-.14v7.37h-2.8V34.93l1.13-.19,1-.13,1-.08c.31,0,.59,0,.84,0h2v2.69Z"/><path class="cls-1" d="M283.08,31.51a1.39,1.39,0,1,1,.95-1.72A1.4,1.4,0,0,1,283.08,31.51Z"/><path class="cls-1" d="M289.34,23.74a2.89,2.89,0,0,0-3.22.36,3.73,3.73,0,0,0-1.27,1.69,4.06,4.06,0,0,0-.93,2.24c0,.11.16.26.28.36a.32.32,0,0,0,.3,0c.42-.27.82-.56,1.24-.85s.65-.22.8,0,0,.54-.25.72-.84.55-1.24.86a.37.37,0,0,0-.1.34c0,.12.16.31.25.31.62,0,1.23,0,1.84,0,0,0,0-.05,0-.08.48,0,.94,0,1.42,0,0,0,0-.07,0-.1.27-.12.55-.21.82-.35h0l.09-.05a3.24,3.24,0,0,0,.78-.56,3,3,0,0,0,.82-2.2A2.87,2.87,0,0,0,289.34,23.74Zm-5.84-1a2.72,2.72,0,0,0-4-1.66,3,3,0,0,0-1.1,3.86,7.24,7.24,0,0,0,1.5,2c.24.25.49.48.75.71a.57.57,0,0,0,.46.09.34.34,0,0,0,.25-.42l0-.11,0-.17-.27-.89c-.07-.27-.15-.54-.22-.81-.14-.5,0-.82.4-.89s.64.19.75.57c0,.14.07.26.11.4q.26.88.51,1.74a.65.65,0,0,0,.57,0,.71.71,0,0,0,.22-.49c.06-.41.14-.82.21-1.23a10.43,10.43,0,0,0,.13-1.09v-.1A4.27,4.27,0,0,0,283.5,22.72ZM281,33.56v0a1.09,1.09,0,0,1,.09-.23,1.23,1.23,0,0,0,.11-.38C281.1,33.16,281,33.37,281,33.56Zm-1.48-2.87c-.56,0-1.13,0-1.69-.05h-.26c-.41,0-.72-.18-.7-.63a.62.62,0,0,1,.2-.45.9.9,0,0,1,.55-.12c.76,0,1.52.05,2.3.07.09-.24.16-.44.26-.68-.35-.32-.68-.59-1-.9-.1-.09-.2-.19-.3-.27a3.93,3.93,0,0,0-2.13-.83,3,3,0,0,0-2.92,4.59,2.93,2.93,0,0,0,2.83,1.51,4.88,4.88,0,0,0,2.24-.74,7.64,7.64,0,0,0,.85-.59A.43.43,0,0,0,280,31,.41.41,0,0,0,279.49,30.69Zm4,4a9.27,9.27,0,0,0-.32-1.11.87.87,0,0,0-.46-.34c-.29-.11-.36.12-.43.34-.22.61-.43,1.2-.65,1.79a1.43,1.43,0,0,1-.22.39.51.51,0,0,1-.63.12c-.41-.19-.43-.54-.29-.91l.12-.34c.12-.35.24-.69.38-1a1.09,1.09,0,0,1,.09-.23,1.23,1.23,0,0,0,.11-.38c0-.24-.11-.43-.48-.57a12.57,12.57,0,0,0-1.09.78,5.2,5.2,0,0,0-1.54,1.87,2.9,2.9,0,0,0,.41,3.26,2.82,2.82,0,0,0,3,1,2.89,2.89,0,0,0,2-2.42A5.3,5.3,0,0,0,283.48,34.66Zm0-11.94a2.72,2.72,0,0,0-4-1.66,3,3,0,0,0-1.1,3.86,7.24,7.24,0,0,0,1.5,2c.24.25.49.48.75.71a.57.57,0,0,0,.46.09.34.34,0,0,0,.25-.42l0-.11,0-.17-.27-.89c-.07-.27-.15-.54-.22-.81-.14-.5,0-.82.4-.89s.64.19.75.57c0,.14.07.26.11.4q.26.88.51,1.74a.65.65,0,0,0,.57,0,.71.71,0,0,0,.22-.49c.06-.41.14-.82.21-1.23a10.43,10.43,0,0,0,.13-1.09v-.1A4.27,4.27,0,0,0,283.5,22.72Zm5.84,1a2.89,2.89,0,0,0-3.22.36,3.73,3.73,0,0,0-1.27,1.69,4.06,4.06,0,0,0-.93,2.24c0,.11.16.26.28.36a.32.32,0,0,0,.3,0c.42-.27.82-.56,1.24-.85s.65-.22.8,0,0,.54-.25.72-.84.55-1.24.86a.37.37,0,0,0-.1.34c0,.12.16.31.25.31.62,0,1.23,0,1.84,0,0,0,0-.05,0-.08.48,0,.94,0,1.42,0,0,0,0-.07,0-.1.27-.12.55-.21.82-.35h0l.09-.05a3.24,3.24,0,0,0,.78-.56,3,3,0,0,0,.82-2.2A2.87,2.87,0,0,0,289.34,23.74Zm.05,8.07a4.74,4.74,0,0,0-1.11-.54A7.17,7.17,0,0,0,286.9,31c-.38,0-.75-.06-1.14-.07l-.2.61c.37.3.73.6,1.1.88l.69.53c.32.25.5.55.25.92s-.57.35-1,0l-1-.75-.91-.71c-.16.24-.45.47-.42.64s.14.57.22.85a5.13,5.13,0,0,0,1.68,2.69,2.59,2.59,0,0,0,2.64.55,2.85,2.85,0,0,0,1.94-2.48A2.88,2.88,0,0,0,289.39,31.81Zm0,0a4.74,4.74,0,0,0-1.11-.54A7.17,7.17,0,0,0,286.9,31c-.38,0-.75-.06-1.14-.07l-.2.61c.37.3.73.6,1.1.88l.69.53c.32.25.5.55.25.92s-.57.35-1,0l-1-.75-.91-.71c-.16.24-.45.47-.42.64s.14.57.22.85a5.13,5.13,0,0,0,1.68,2.69,2.59,2.59,0,0,0,2.64.55,2.85,2.85,0,0,0,1.94-2.48A2.88,2.88,0,0,0,289.39,31.81Zm-4.89-3.43c.42-.27.82-.56,1.24-.85s.65-.22.8,0,0,.54-.25.72-.84.55-1.24.86a.37.37,0,0,0-.1.34c0,.12.16.31.25.31.62,0,1.23,0,1.84,0,0,0,0-.05,0-.08.48,0,.94,0,1.42,0,0,0,0-.07,0-.1.27-.12.55-.21.82-.35h0l.09-.05a3.24,3.24,0,0,0,.78-.56,3,3,0,0,0,.82-2.2,3,3,0,0,0-4.9-2.37,3.73,3.73,0,0,0-1.27,1.69,4.06,4.06,0,0,0-.93,2.24c0,.11.16.26.28.36A.32.32,0,0,0,284.5,28.38Zm-5-7.32a3,3,0,0,0-1.1,3.86,7.24,7.24,0,0,0,1.5,2c.24.25.49.48.75.71a.57.57,0,0,0,.46.09.34.34,0,0,0,.25-.42l0-.11,0-.17-.27-.89c-.07-.27-.15-.54-.22-.81-.14-.5,0-.82.4-.89s.64.19.75.57c0,.14.07.26.11.4q.26.88.51,1.74a.65.65,0,0,0,.57,0,.71.71,0,0,0,.22-.49c.06-.41.14-.82.21-1.23a10.43,10.43,0,0,0,.13-1.09v-.1a4.27,4.27,0,0,0-.2-1.51A2.72,2.72,0,0,0,279.51,21.06Zm3.65,12.49a.87.87,0,0,0-.46-.34c-.29-.11-.36.12-.43.34-.22.61-.43,1.2-.65,1.79a1.43,1.43,0,0,1-.22.39.51.51,0,0,1-.63.12c-.41-.19-.43-.54-.29-.91l.12-.34c.12-.35.24-.69.38-1a1.09,1.09,0,0,1,.09-.23,1.23,1.23,0,0,0,.11-.38c0-.24-.11-.43-.48-.57a12.57,12.57,0,0,0-1.09.78,5.2,5.2,0,0,0-1.54,1.87,2.9,2.9,0,0,0,.41,3.26,2.82,2.82,0,0,0,3,1,2.89,2.89,0,0,0,2-2.42,5.3,5.3,0,0,0-.09-2.21A9.27,9.27,0,0,0,283.16,33.55Zm-3.41-2A.43.43,0,0,0,280,31a.41.41,0,0,0-.46-.35c-.56,0-1.13,0-1.69-.05h-.26c-.41,0-.72-.18-.7-.63a.62.62,0,0,1,.2-.45.9.9,0,0,1,.55-.12c.76,0,1.52.05,2.3.07.09-.24.16-.44.26-.68-.35-.32-.68-.59-1-.9-.1-.09-.2-.19-.3-.27a3.93,3.93,0,0,0-2.13-.83,3,3,0,0,0-2.92,4.59,2.93,2.93,0,0,0,2.83,1.51,4.88,4.88,0,0,0,2.24-.74A7.64,7.64,0,0,0,279.75,31.59ZM282.24,0a30,30,0,1,0,30,30A30,30,0,0,0,282.24,0Zm17,47A24,24,0,1,1,291.6,7.86c.66.29,1.32.6,2,.94l.19.1a3.25,3.25,0,0,1-3,5.75l-.3-.16a17.39,17.39,0,0,0-8.18-2A17.53,17.53,0,1,0,298.3,22.94l-6.11,4.32a4.54,4.54,0,0,1-.77,1.8,4.48,4.48,0,0,1-1.81,1.44A4.32,4.32,0,0,1,292,34.28a4.09,4.09,0,0,1-1.12,2.94c-1.35,1.5-3.88,2-6.06-.2-1.11,3-3,4.19-5.44,3.35a4.34,4.34,0,0,1-2.24-6.27,4.38,4.38,0,0,1-5-4.26,4.3,4.3,0,0,1,5.26-4.18,4.44,4.44,0,0,1,.3-4.57,3.74,3.74,0,0,1,2.23-1.47,3.65,3.65,0,0,1,3.37.74c.68.56.83.82,1.63,3a.56.56,0,0,1,0,.12,4.27,4.27,0,0,1,3.13-1.28l6.53-4.62L300,13.81a24,24,0,0,1,3.69,5.34c.24.48.48,1,.7,1.5A24,24,0,0,1,299.22,47ZM288.28,31.27A7.17,7.17,0,0,0,286.9,31c-.38,0-.75-.06-1.14-.07l-.2.61c.37.3.73.6,1.1.88l.69.53c.32.25.5.55.25.92s-.57.35-1,0l-1-.75-.91-.71c-.16.24-.45.47-.42.64s.14.57.22.85a5.13,5.13,0,0,0,1.68,2.69,2.59,2.59,0,0,0,2.64.55,2.85,2.85,0,0,0,1.94-2.48,2.88,2.88,0,0,0-1.39-2.88A4.74,4.74,0,0,0,288.28,31.27Zm1.06-7.53a2.89,2.89,0,0,0-3.22.36,3.73,3.73,0,0,0-1.27,1.69,4.06,4.06,0,0,0-.93,2.24c0,.11.16.26.28.36a.32.32,0,0,0,.3,0c.42-.27.82-.56,1.24-.85s.65-.22.8,0,0,.54-.25.72-.84.55-1.24.86a.37.37,0,0,0-.1.34c0,.12.16.31.25.31.62,0,1.23,0,1.84,0,0,0,0-.05,0-.08.48,0,.94,0,1.42,0,0,0,0-.07,0-.1.27-.12.55-.21.82-.35h0l.09-.05a3.24,3.24,0,0,0,.78-.56,3,3,0,0,0,.82-2.2A2.87,2.87,0,0,0,289.34,23.74Zm-9.83-2.68a3,3,0,0,0-1.1,3.86,7.24,7.24,0,0,0,1.5,2c.24.25.49.48.75.71a.57.57,0,0,0,.46.09.34.34,0,0,0,.25-.42l0-.11,0-.17-.27-.89c-.07-.27-.15-.54-.22-.81-.14-.5,0-.82.4-.89s.64.19.75.57c0,.14.07.26.11.4q.26.88.51,1.74a.65.65,0,0,0,.57,0,.71.71,0,0,0,.22-.49c.06-.41.14-.82.21-1.23a10.43,10.43,0,0,0,.13-1.09v-.1a4.27,4.27,0,0,0-.2-1.51A2.72,2.72,0,0,0,279.51,21.06Zm3.65,12.49a.87.87,0,0,0-.46-.34c-.29-.11-.36.12-.43.34-.22.61-.43,1.2-.65,1.79a1.43,1.43,0,0,1-.22.39.51.51,0,0,1-.63.12c-.41-.19-.43-.54-.29-.91l.12-.34c.12-.35.24-.69.38-1a1.09,1.09,0,0,1,.09-.23,1.23,1.23,0,0,0,.11-.38c0-.24-.11-.43-.48-.57a12.57,12.57,0,0,0-1.09.78,5.2,5.2,0,0,0-1.54,1.87,2.9,2.9,0,0,0,.41,3.26,2.82,2.82,0,0,0,3,1,2.89,2.89,0,0,0,2-2.42,5.3,5.3,0,0,0-.09-2.21A9.27,9.27,0,0,0,283.16,33.55Zm-3.41-2A.43.43,0,0,0,280,31a.41.41,0,0,0-.46-.35c-.56,0-1.13,0-1.69-.05h-.26c-.41,0-.72-.18-.7-.63a.62.62,0,0,1,.2-.45.9.9,0,0,1,.55-.12c.76,0,1.52.05,2.3.07.09-.24.16-.44.26-.68-.35-.32-.68-.59-1-.9-.1-.09-.2-.19-.3-.27a3.93,3.93,0,0,0-2.13-.83,3,3,0,0,0-2.92,4.59,2.93,2.93,0,0,0,2.83,1.51,4.88,4.88,0,0,0,2.24-.74A7.64,7.64,0,0,0,279.75,31.59Zm-.26-.9c-.56,0-1.13,0-1.69-.05h-.26c-.41,0-.72-.18-.7-.63a.62.62,0,0,1,.2-.45.9.9,0,0,1,.55-.12c.76,0,1.52.05,2.3.07.09-.24.16-.44.26-.68-.35-.32-.68-.59-1-.9-.1-.09-.2-.19-.3-.27a3.93,3.93,0,0,0-2.13-.83,3,3,0,0,0-2.92,4.59,2.93,2.93,0,0,0,2.83,1.51,4.88,4.88,0,0,0,2.24-.74,7.64,7.64,0,0,0,.85-.59A.43.43,0,0,0,280,31,.41.41,0,0,0,279.49,30.69Zm4,4a9.27,9.27,0,0,0-.32-1.11.87.87,0,0,0-.46-.34c-.29-.11-.36.12-.43.34-.22.61-.43,1.2-.65,1.79a1.43,1.43,0,0,1-.22.39.51.51,0,0,1-.63.12c-.41-.19-.43-.54-.29-.91l.12-.34c.12-.35.24-.69.38-1a1.09,1.09,0,0,1,.09-.23,1.23,1.23,0,0,0,.11-.38c0-.24-.11-.43-.48-.57a12.57,12.57,0,0,0-1.09.78,5.2,5.2,0,0,0-1.54,1.87,2.9,2.9,0,0,0,.41,3.26,2.82,2.82,0,0,0,3,1,2.89,2.89,0,0,0,2-2.42A5.3,5.3,0,0,0,283.48,34.66Zm0-11.94a2.72,2.72,0,0,0-4-1.66,3,3,0,0,0-1.1,3.86,7.24,7.24,0,0,0,1.5,2c.24.25.49.48.75.71a.57.57,0,0,0,.46.09.34.34,0,0,0,.25-.42l0-.11,0-.17-.27-.89c-.07-.27-.15-.54-.22-.81-.14-.5,0-.82.4-.89s.64.19.75.57c0,.14.07.26.11.4q.26.88.51,1.74a.65.65,0,0,0,.57,0,.71.71,0,0,0,.22-.49c.06-.41.14-.82.21-1.23a10.43,10.43,0,0,0,.13-1.09v-.1A4.27,4.27,0,0,0,283.5,22.72Zm5.84,1a2.89,2.89,0,0,0-3.22.36,3.73,3.73,0,0,0-1.27,1.69,4.06,4.06,0,0,0-.93,2.24c0,.11.16.26.28.36a.32.32,0,0,0,.3,0c.42-.27.82-.56,1.24-.85s.65-.22.8,0,0,.54-.25.72-.84.55-1.24.86a.37.37,0,0,0-.1.34c0,.12.16.31.25.31.62,0,1.23,0,1.84,0,0,0,0-.05,0-.08.48,0,.94,0,1.42,0,0,0,0-.07,0-.1.27-.12.55-.21.82-.35h0l.09-.05a3.24,3.24,0,0,0,.78-.56,3,3,0,0,0,.82-2.2A2.87,2.87,0,0,0,289.34,23.74Zm.05,8.07a4.74,4.74,0,0,0-1.11-.54A7.17,7.17,0,0,0,286.9,31c-.38,0-.75-.06-1.14-.07l-.2.61c.37.3.73.6,1.1.88l.69.53c.32.25.5.55.25.92s-.57.35-1,0l-1-.75-.91-.71c-.16.24-.45.47-.42.64s.14.57.22.85a5.13,5.13,0,0,0,1.68,2.69,2.59,2.59,0,0,0,2.64.55,2.85,2.85,0,0,0,1.94-2.48A2.88,2.88,0,0,0,289.39,31.81Zm0,0a4.74,4.74,0,0,0-1.11-.54A7.17,7.17,0,0,0,286.9,31c-.38,0-.75-.06-1.14-.07l-.2.61c.37.3.73.6,1.1.88l.69.53c.32.25.5.55.25.92s-.57.35-1,0l-1-.75-.91-.71c-.16.24-.45.47-.42.64s.14.57.22.85a5.13,5.13,0,0,0,1.68,2.69,2.59,2.59,0,0,0,2.64.55,2.85,2.85,0,0,0,1.94-2.48A2.88,2.88,0,0,0,289.39,31.81Zm-.05-8.07a2.89,2.89,0,0,0-3.22.36,3.73,3.73,0,0,0-1.27,1.69,4.06,4.06,0,0,0-.93,2.24c0,.11.16.26.28.36a.32.32,0,0,0,.3,0c.42-.27.82-.56,1.24-.85s.65-.22.8,0,0,.54-.25.72-.84.55-1.24.86a.37.37,0,0,0-.1.34c0,.12.16.31.25.31.62,0,1.23,0,1.84,0,0,0,0-.05,0-.08.48,0,.94,0,1.42,0,0,0,0-.07,0-.1.27-.12.55-.21.82-.35h0l.09-.05a3.24,3.24,0,0,0,.78-.56,3,3,0,0,0,.82-2.2A2.87,2.87,0,0,0,289.34,23.74Zm-5.84-1a2.72,2.72,0,0,0-4-1.66,3,3,0,0,0-1.1,3.86,7.24,7.24,0,0,0,1.5,2c.24.25.49.48.75.71a.57.57,0,0,0,.46.09.34.34,0,0,0,.25-.42l0-.11,0-.17-.27-.89c-.07-.27-.15-.54-.22-.81-.14-.5,0-.82.4-.89s.64.19.75.57c0,.14.07.26.11.4q.26.88.51,1.74a.65.65,0,0,0,.57,0,.71.71,0,0,0,.22-.49c.06-.41.14-.82.21-1.23a10.43,10.43,0,0,0,.13-1.09v-.1A4.27,4.27,0,0,0,283.5,22.72Zm0,11.94a9.27,9.27,0,0,0-.32-1.11.87.87,0,0,0-.46-.34c-.29-.11-.36.12-.43.34-.22.61-.43,1.2-.65,1.79a1.43,1.43,0,0,1-.22.39.51.51,0,0,1-.63.12c-.41-.19-.43-.54-.29-.91l.12-.34c.12-.35.24-.69.38-1a1.09,1.09,0,0,1,.09-.23,1.23,1.23,0,0,0,.11-.38c0-.24-.11-.43-.48-.57a12.57,12.57,0,0,0-1.09.78,5.2,5.2,0,0,0-1.54,1.87,2.9,2.9,0,0,0,.41,3.26,2.82,2.82,0,0,0,3,1,2.89,2.89,0,0,0,2-2.42A5.3,5.3,0,0,0,283.48,34.66Zm-4-4c-.56,0-1.13,0-1.69-.05h-.26c-.41,0-.72-.18-.7-.63a.62.62,0,0,1,.2-.45.9.9,0,0,1,.55-.12c.76,0,1.52.05,2.3.07.09-.24.16-.44.26-.68-.35-.32-.68-.59-1-.9-.1-.09-.2-.19-.3-.27a3.93,3.93,0,0,0-2.13-.83,3,3,0,0,0-2.92,4.59,2.93,2.93,0,0,0,2.83,1.51,4.88,4.88,0,0,0,2.24-.74,7.64,7.64,0,0,0,.85-.59A.43.43,0,0,0,280,31,.41.41,0,0,0,279.49,30.69Z"/><polygon class="cls-1" points="285.22 20.02 285.2 20.02 285.22 20 285.22 20.02"/><path class="cls-1" d="M283.36,25.56v.07c0,.51-.13,1-.22,1.51a.71.71,0,0,0,.22-.49c.06-.41.14-.82.21-1.23Zm-2.39,8v0a1.09,1.09,0,0,1,.09-.23,1.23,1.23,0,0,0,.11-.38C281.1,33.16,281,33.37,281,33.56Z"/><path class="cls-1" d="M287.81,26.84c-.19-.34-.57-.34-1,0s-1.07.73-1.61,1.07a.39.39,0,0,1-.39,0c-.16-.11-.39-.33-.36-.46a7.17,7.17,0,0,1,.42-1.64,4.06,4.06,0,0,0-.93,2.24c0,.11.16.26.28.36a.32.32,0,0,0,.3,0c.42-.27.82-.56,1.24-.85s.65-.22.8,0,0,.54-.25.72-.84.55-1.24.86a.37.37,0,0,0-.1.34c0,.12.16.31.25.31.62,0,1.23,0,1.84,0,0,0,0-.05,0-.08-.32,0-.64,0-1,0-.13,0-.29-.24-.34-.4a.55.55,0,0,1,.14-.45c.52-.38,1.06-.74,1.6-1.09C287.86,27.53,288,27.25,287.81,26.84Zm0,0c-.19-.34-.57-.34-1,0s-1.07.73-1.61,1.07a.39.39,0,0,1-.39,0c-.16-.11-.39-.33-.36-.46a7.17,7.17,0,0,1,.42-1.64,4.06,4.06,0,0,0-.93,2.24c0,.11.16.26.28.36a.32.32,0,0,0,.3,0c.42-.27.82-.56,1.24-.85s.65-.22.8,0,0,.54-.25.72-.84.55-1.24.86a.37.37,0,0,0-.1.34c0,.12.16.31.25.31.62,0,1.23,0,1.84,0,0,0,0-.05,0-.08-.32,0-.64,0-1,0-.13,0-.29-.24-.34-.4a.55.55,0,0,1,.14-.45c.52-.38,1.06-.74,1.6-1.09C287.86,27.53,288,27.25,287.81,26.84Z"/></svg>