<svg id="Layer_1" data-name="Layer 1" xmlns="http://www.w3.org/2000/svg" viewBox="0 0 338.56 60"><defs><style>.cls-1{fill:#fff;}</style></defs><title>الشعارات الاساسية</title><path class="cls-1" d="M10.79,25.23H6.33A8.84,8.84,0,0,1,4,24.93,5.2,5.2,0,0,1,2.07,24,4.43,4.43,0,0,1,.82,22.46a5,5,0,0,1-.45-2.18,4.83,4.83,0,0,1,.4-2A4.4,4.4,0,0,1,2,16.73a5.42,5.42,0,0,1,1.88-1,8.06,8.06,0,0,1,2.5-.37h.12v-.84H9.24v8h1.55ZM2.89,13.31a1.28,1.28,0,0,1-.46-1.06,1.29,1.29,0,0,1,.45-1A1.59,1.59,0,0,1,4,10.83a1.6,1.6,0,0,1,1.09.39,1.28,1.28,0,0,1,.44,1A1.3,1.3,0,0,1,5,13.31,1.68,1.68,0,0,1,4,13.68,1.67,1.67,0,0,1,2.89,13.31Zm3.56,4.81H5.76a3.2,3.2,0,0,0-1,.15A2.78,2.78,0,0,0,4,18.7a2,2,0,0,0-.58.67,1.8,1.8,0,0,0-.22.91,2,2,0,0,0,.2.94,1.84,1.84,0,0,0,.55.66,2.28,2.28,0,0,0,.79.41,3,3,0,0,0,1,.15h.8Zm.09-4.81a1.28,1.28,0,0,1-.46-1.06,1.29,1.29,0,0,1,.45-1,1.59,1.59,0,0,1,1.08-.39,1.61,1.61,0,0,1,1.1.39,1.31,1.31,0,0,1,.43,1,1.3,1.3,0,0,1-.45,1.06,1.75,1.75,0,0,1-2.15,0Z"/><path class="cls-1" d="M13.55,22.44V15.32h2.79v7.12h3.09v2.79H10V22.44Zm-1.62,6a1.25,1.25,0,0,1-.47-1.05,1.33,1.33,0,0,1,.45-1,1.7,1.7,0,0,1,2.17,0,1.33,1.33,0,0,1,.45,1,1.25,1.25,0,0,1-.47,1.05,1.76,1.76,0,0,1-2.13,0Zm3.65,0a1.25,1.25,0,0,1-.47-1.05,1.33,1.33,0,0,1,.45-1,1.72,1.72,0,0,1,2.18,0,1.34,1.34,0,0,1,.43,1,1.24,1.24,0,0,1-.46,1.05,1.69,1.69,0,0,1-1.07.36A1.66,1.66,0,0,1,15.58,28.45Z"/><path class="cls-1" d="M22.41,22.44v2.79H18.66V22.44Z"/><path class="cls-1" d="M25.39,22.44v2.79H21.64V22.44Z"/><path class="cls-1" d="M28.37,22.44v2.79H24.62V22.44Z"/><path class="cls-1" d="M31.34,22.44v2.79H27.59V22.44Z"/><path class="cls-1" d="M34.32,22.44v2.79H30.57V22.44Z"/><path class="cls-1" d="M37.29,22.44v2.79H33.54V22.44Z"/><path class="cls-1" d="M40.27,22.44v2.79H36.52V22.44Z"/><path class="cls-1" d="M43.25,22.44v2.79H39.5V22.44Z"/><path class="cls-1" d="M44.56,22.44V15.32h2.79v9.91H42.47V22.44Zm.32,6a1.3,1.3,0,0,1-.49-1.1,1.33,1.33,0,0,1,.46-1.06,1.67,1.67,0,0,1,1.14-.4,1.65,1.65,0,0,1,1.13.4,1.33,1.33,0,0,1,.46,1.06,1.32,1.32,0,0,1-.48,1.1,1.8,1.8,0,0,1-1.11.38A1.76,1.76,0,0,1,44.88,28.43Z"/><path class="cls-1" d="M52.9,11.15V22.44h2.15v2.79H50.11V11.15Z"/><path class="cls-1" d="M58,22.44v2.79H54.28V22.44Z"/><path class="cls-1" d="M61,22.44v2.79H57.25V22.44Z"/><path class="cls-1" d="M64,22.44v2.79H60.23V22.44Z"/><path class="cls-1" d="M67,22.44v2.79H63.21V22.44Z"/><path class="cls-1" d="M73.21,22.44a9.26,9.26,0,0,0,.16-1,10.3,10.3,0,0,0,.08-1.17,3.13,3.13,0,0,0-.18-1,1.91,1.91,0,0,0-.58-.86,2.66,2.66,0,0,0-1.83-.58,4.25,4.25,0,0,0-1.17.15,5.36,5.36,0,0,0-1.35.69l-1.18-2.46a9.75,9.75,0,0,1,2-.88,6.58,6.58,0,0,1,2-.3,5.2,5.2,0,0,1,2,.36,4.13,4.13,0,0,1,1.53,1,5.57,5.57,0,0,1,1.15,1.72,5.94,5.94,0,0,1,.43,2.35,10.93,10.93,0,0,1-.06,1.15c0,.37-.07.66-.11.85h1.77v2.79H66.18V22.44Z"/><path class="cls-1" d="M80.81,22.44v2.79H77.06V22.44Z"/><path class="cls-1" d="M83.79,22.44v2.79H80V22.44Z"/><path class="cls-1" d="M86.77,22.44v2.79H83V22.44Z"/><path class="cls-1" d="M89.74,22.44v2.79H86V22.44Z"/><path class="cls-1" d="M92.72,22.44v2.79H89V22.44Z"/><path class="cls-1" d="M105.22,22.09a1.89,1.89,0,0,0,1.39.52A1.69,1.69,0,0,0,108,22.1a2,2,0,0,0,.45-1.4V14.15h2.77V20.4c0,.28,0,.55,0,.79s-.05.45-.07.61a3.26,3.26,0,0,0,2.34.64v2.79A6.27,6.27,0,0,1,112,25.1a3.4,3.4,0,0,1-.92-.34,2.93,2.93,0,0,1-.63-.49l-.24-.25c-.61.92-1.8,1.38-3.56,1.38a6.63,6.63,0,0,1-1-.08,3.64,3.64,0,0,1-1-.28,3.56,3.56,0,0,1-.87-.53,2.39,2.39,0,0,1-.55-.59,4.29,4.29,0,0,1-1.39.91,4.86,4.86,0,0,1-1.92.4H92V22.44h3.67V16.16h2.79v6.28h1.5a2.84,2.84,0,0,0,.69-.09,1.59,1.59,0,0,0,.66-.3,1.64,1.64,0,0,0,.47-.57,2.08,2.08,0,0,0,.18-.93V16.16h2.79v4.29A2.25,2.25,0,0,0,105.22,22.09Z"/><path class="cls-1" d="M114.28,22.44V11.15h3.88V14h-1.09V25.23h-4.44V22.44Z"/><path class="cls-1" d="M123.38,11.15V25.23h-2.79V11.15Z"/><path class="cls-1" d="M133.76,24.93a5.23,5.23,0,0,1-1.88-.91,4.43,4.43,0,0,1-1.25-1.56,4.83,4.83,0,0,1-.46-2.18,5,5,0,0,1,.4-2,4.52,4.52,0,0,1,1.18-1.57,5.61,5.61,0,0,1,1.88-1,8.17,8.17,0,0,1,2.51-.37h.12v-.84h2.79V25.23h-2.91A8.91,8.91,0,0,1,133.76,24.93Zm-1.07-11.62a1.3,1.3,0,0,1-.45-1.06,1.32,1.32,0,0,1,.44-1,1.6,1.6,0,0,1,1.09-.39,1.56,1.56,0,0,1,1.08.39,1.29,1.29,0,0,1,.45,1,1.3,1.3,0,0,1-.45,1.06,1.72,1.72,0,0,1-1.08.37A1.7,1.7,0,0,1,132.69,13.31Zm3.57,4.81h-.69a3.11,3.11,0,0,0-1,.15,2.78,2.78,0,0,0-.84.43,2,2,0,0,0-.59.67,1.91,1.91,0,0,0-.22.91,2.13,2.13,0,0,0,.2.94,2.07,2.07,0,0,0,.55.66,2.42,2.42,0,0,0,.8.41,3,3,0,0,0,.94.15h.81Zm.08-4.81a1.3,1.3,0,0,1-.45-1.06,1.32,1.32,0,0,1,.44-1,1.6,1.6,0,0,1,1.09-.39,1.57,1.57,0,0,1,1.09.39,1.32,1.32,0,0,1,.44,1,1.28,1.28,0,0,1-.46,1.06,1.75,1.75,0,0,1-2.15,0Z"/><path class="cls-1" d="M141,28.89a5.44,5.44,0,0,1-.71-.16l-.2-2.81c.41.1.69.16.85.18a4,4,0,0,0,.5,0,1,1,0,0,0,.81-.31,2,2,0,0,0,.23-1.12V15.32h2.79v9.05a9.25,9.25,0,0,1-.19,2,3.68,3.68,0,0,1-.63,1.43,2.57,2.57,0,0,1-1.13.84,4.45,4.45,0,0,1-1.63.27C141.4,28.93,141.17,28.91,141,28.89Z"/><path class="cls-1" d="M150.77,11.15V25.23H148V11.15Z"/><path class="cls-1" d="M158.05,22.44V20.08a2.8,2.8,0,0,0-.1-.81,1.88,1.88,0,0,0-.3-.6,1.25,1.25,0,0,0-.52-.4,1.81,1.81,0,0,0-.74-.15h-1.23v-2.8h1a6.27,6.27,0,0,1,2.08.32,3.83,3.83,0,0,1,1.57,1,3.42,3.42,0,0,1,.82,1.54,8.37,8.37,0,0,1,.22,2v5.05h-8.66V22.44Z"/><path class="cls-1" d="M167.2,22.44a3.43,3.43,0,0,0,1-.14,2.47,2.47,0,0,0,.78-.38,1.76,1.76,0,0,0,.45-.64,2.34,2.34,0,0,0,.17-1V9.91h3.88V12.7h-1.09v7.55a6.2,6.2,0,0,1-.17,1.48,3.18,3.18,0,0,0,2.41.71v2.79a6.27,6.27,0,0,1-1.58-.16,3.85,3.85,0,0,1-1-.41,2.29,2.29,0,0,1-.62-.57,3.22,3.22,0,0,0-.24-.29s0,0-.17.17a4.36,4.36,0,0,1-1.86,1,9.76,9.76,0,0,1-2.48.29h-4.22l-.33-2.79Zm-3,6.58a2.19,2.19,0,0,1-.63-1.77v-1h3.94V28h-2.16a.4.4,0,0,0,.15.25.68.68,0,0,0,.54.16H167v1.19h-1.06A2.59,2.59,0,0,1,164.23,29Zm3.14-16.29V22h-2.79v-9.3Z"/><path class="cls-1" d="M175.49,22.44V11.15h3.89V14h-1.1V25.23h-4.44V22.44Z"/><path class="cls-1" d="M185.55,26.83a7.56,7.56,0,0,1-.37-2.48,10.29,10.29,0,0,1,.18-1.91h1.1a8.63,8.63,0,0,1-.36-1,5.67,5.67,0,0,1-.22-1.57,4.71,4.71,0,0,1,.5-2.21,4.88,4.88,0,0,1,1.27-1.59,4.1,4.1,0,0,1,1.44-.78,5.55,5.55,0,0,1,1.76-.27,6.62,6.62,0,0,1,1.85.26,10,10,0,0,1,1.91.79l-.94,2.55a7.89,7.89,0,0,0-1.36-.62,4,4,0,0,0-1.18-.2,2.56,2.56,0,0,0-1.7.52,2.06,2.06,0,0,0-.57.78,2.63,2.63,0,0,0-.17,1,4.27,4.27,0,0,0,.22,1.39,3.3,3.3,0,0,0,.56,1h5.45v2.79H188v0a4.14,4.14,0,0,0,.18,1.19,7.28,7.28,0,0,0,.7,1.5l-2.21,1A8.21,8.21,0,0,1,185.55,26.83Z"/><path class="cls-1" d="M199.89,11.15V25.23H197.1V11.15Z"/><path class="cls-1" d="M207.17,22.44V20.08a2.8,2.8,0,0,0-.1-.81,1.54,1.54,0,0,0-.3-.6,1.25,1.25,0,0,0-.52-.4,1.78,1.78,0,0,0-.74-.15h-1.23v-2.8h1a6.27,6.27,0,0,1,2.08.32,3.83,3.83,0,0,1,1.57,1,3.33,3.33,0,0,1,.82,1.54,8.37,8.37,0,0,1,.22,2v2.26h1.82v2.79H201.31V22.44Z"/><path class="cls-1" d="M214.78,22.44v2.79H211V22.44Z"/><path class="cls-1" d="M217.75,22.44v2.79H214V22.44Z"/><path class="cls-1" d="M220.73,22.44v2.79H217V22.44Z"/><path class="cls-1" d="M223.71,22.44v2.79H220V22.44Z"/><path class="cls-1" d="M226.68,22.44v2.79h-3.75V22.44Z"/><path class="cls-1" d="M229.66,22.44v2.79h-3.75V22.44Z"/><path class="cls-1" d="M232.63,22.44v2.79h-3.75V22.44Z"/><path class="cls-1" d="M235.61,22.44v2.79h-3.75V22.44Z"/><path class="cls-1" d="M238.59,22.44v2.79h-3.75V22.44Z"/><path class="cls-1" d="M241.56,22.44v2.79h-3.75V22.44Z"/><path class="cls-1" d="M244.54,22.44v2.79h-3.75V22.44Z"/><path class="cls-1" d="M247.52,22.44v2.79h-3.75V22.44Z"/><path class="cls-1" d="M248.83,22.44V15.32h2.79v9.91h-4.88V22.44Zm.32,6a1.3,1.3,0,0,1-.49-1.1,1.33,1.33,0,0,1,.46-1.06,1.67,1.67,0,0,1,1.14-.4,1.65,1.65,0,0,1,1.13.4,1.33,1.33,0,0,1,.46,1.06,1.32,1.32,0,0,1-.48,1.1,1.8,1.8,0,0,1-1.11.38A1.76,1.76,0,0,1,249.15,28.43Z"/><path class="cls-1" d="M258.13,22.44a3.43,3.43,0,0,0,1-.14,2.41,2.41,0,0,0,.77-.38,1.91,1.91,0,0,0,.46-.64,2.35,2.35,0,0,0,.16-1V9.91h3.89V12.7h-1.09v7.55a6.61,6.61,0,0,1-.33,2.08A4,4,0,0,1,262,24a4.48,4.48,0,0,1-1.86,1,9.76,9.76,0,0,1-2.48.29h-4.22l-.34-2.79Zm-3,6.41a2.19,2.19,0,0,1-.63-1.77v-1h3.93v1.69h-2.15a.45.45,0,0,0,.14.26.77.77,0,0,0,.55.15h.93v1.19h-1.06A2.59,2.59,0,0,1,255.16,28.85Zm3.14-16.12V22h-2.8v-9.3Z"/><path class="cls-1" d="M269.71,11.15V25.23h-2.79V11.15Z"/><path class="cls-1" d="M5.7,33.19A3.85,3.85,0,0,0,4.31,34a4.32,4.32,0,0,0-.95,1.41,5.35,5.35,0,0,0-.35,2,5.28,5.28,0,0,0,.35,2,4.26,4.26,0,0,0,.95,1.42,3.63,3.63,0,0,0,1.39.85A5.47,5.47,0,0,0,7.38,42a6.19,6.19,0,0,0,1.81-.26A8.16,8.16,0,0,0,11,40.86l1.11,2.55a8.11,8.11,0,0,1-2.26,1,9.91,9.91,0,0,1-2.53.32,7.84,7.84,0,0,1-3-.55A6.4,6.4,0,0,1,2,42.63,6.71,6.71,0,0,1,.51,40.32a8.36,8.36,0,0,1,0-5.75A6.61,6.61,0,0,1,2,32.26a6.4,6.4,0,0,1,2.29-1.53,7.84,7.84,0,0,1,3-.55,9.48,9.48,0,0,1,2.53.33,8.42,8.42,0,0,1,2.26,1L11,34a8,8,0,0,0-1.76-.84,5.93,5.93,0,0,0-1.82-.27A5.19,5.19,0,0,0,5.7,33.19Z"/><path class="cls-1" d="M13.29,30.43h2.79V44.51H13.29Z"/><path class="cls-1" d="M20.79,44.3a5.45,5.45,0,0,1-1.69-1.09A4.9,4.9,0,0,1,18,41.56a5.38,5.38,0,0,1,0-4.12,5.22,5.22,0,0,1,1.13-1.65,5.36,5.36,0,0,1,1.69-1.12,5.43,5.43,0,0,1,2.11-.4,5.36,5.36,0,0,1,2.11.4,5.14,5.14,0,0,1,1.69,1.12,5.24,5.24,0,0,1,1.14,1.65,5.38,5.38,0,0,1,0,4.12,4.92,4.92,0,0,1-1.14,1.65A5.23,5.23,0,0,1,25,44.3a5.36,5.36,0,0,1-2.11.41A5.44,5.44,0,0,1,20.79,44.3Zm3.13-2.53a2.28,2.28,0,0,0,.77-.52,2.22,2.22,0,0,0,.48-.78,2.88,2.88,0,0,0,0-1.95,2.22,2.22,0,0,0-.48-.78,2.46,2.46,0,0,0-.77-.53,2.35,2.35,0,0,0-1-.2,2.31,2.31,0,0,0-1,.2,2.35,2.35,0,0,0-.77.53,2.4,2.4,0,0,0-.49.78,3.05,3.05,0,0,0,0,1.95,2.4,2.4,0,0,0,.49.78,2.18,2.18,0,0,0,.77.52,2.46,2.46,0,0,0,1,.2A2.51,2.51,0,0,0,23.92,41.77Z"/><path class="cls-1" d="M38.24,34.6V44c-.44.15-.82.26-1.13.35s-.65.17-1,.23-.67.11-1,.14-.74,0-1.15,0a7.59,7.59,0,0,1-1.76-.2,4,4,0,0,1-1.44-.69,3.32,3.32,0,0,1-1-1.27,4.81,4.81,0,0,1-.35-1.94v-6h2.79v5.33a2.53,2.53,0,0,0,.38,1.63A1.68,1.68,0,0,0,33.9,42a7.45,7.45,0,0,0,.79,0,6.51,6.51,0,0,0,.76-.14V34.6Z"/><path class="cls-1" d="M49.49,30.43V44.17a15,15,0,0,1-4,.54,6.77,6.77,0,0,1-2.41-.4,5.26,5.26,0,0,1-1.82-1.09,4.72,4.72,0,0,1-1.13-1.65,5.36,5.36,0,0,1-.39-2.06,5.22,5.22,0,0,1,.4-2.06,4.85,4.85,0,0,1,1.13-1.66A5.29,5.29,0,0,1,43,34.67a6.11,6.11,0,0,1,2.27-.4l.75,0c.27,0,.49,0,.66.07V30.43Zm-6.11,11a3.3,3.3,0,0,0,2.08.59,5.82,5.82,0,0,0,1.24-.14V37.16a4.05,4.05,0,0,0-.6-.11,4.88,4.88,0,0,0-.64,0,3.17,3.17,0,0,0-2.07.61,2.28,2.28,0,0,0-.76,1.89A2.23,2.23,0,0,0,43.38,41.38Z"/><path class="cls-1" d="M60,34.28V44.51H57.14V30.43h4.49l2.81,10.83,2.84-10.83h4.46V44.51H68.88V34.3L66.12,44.51H62.78Z"/><path class="cls-1" d="M76.78,44.53a4.77,4.77,0,0,1-1.5-.56,3.07,3.07,0,0,1-1-1,2.92,2.92,0,0,1-.4-1.58,3,3,0,0,1,.35-1.5,3.17,3.17,0,0,1,1-1.09,4.92,4.92,0,0,1,1.47-.64,8.06,8.06,0,0,1,1.83-.21l.86,0q.47,0,.87.09a1,1,0,0,0-.62-.81A3.37,3.37,0,0,0,78.11,37a5.64,5.64,0,0,0-.77.07c-.28.05-.57.1-.86.18a8.34,8.34,0,0,0-.85.26c-.27.1-.64.26-1.11.49L74.89,35a8.07,8.07,0,0,1,3.54-.77,6.94,6.94,0,0,1,1.75.21,3.7,3.7,0,0,1,1.41.68,3.09,3.09,0,0,1,1,1.23,4.65,4.65,0,0,1,.33,1.84V43.9a10.22,10.22,0,0,1-2.16.61,12.45,12.45,0,0,1-2.18.2A8.38,8.38,0,0,1,76.78,44.53Zm2.72-4.27a5.7,5.7,0,0,0-.8-.06,4.92,4.92,0,0,0-.8.06,2.56,2.56,0,0,0-.64.18,1,1,0,0,0-.41.3.73.73,0,0,0-.13.45.78.78,0,0,0,.51.74,3.38,3.38,0,0,0,1.34.22,5.15,5.15,0,0,0,.86-.07,4.85,4.85,0,0,0,.65-.13v-1.6Z"/><path class="cls-1" d="M86.3,34.56l1.16-.15,1.08-.1c.34,0,.64,0,.91,0a9.14,9.14,0,0,1,1.76.17,3.8,3.8,0,0,1,1.46.65,3.28,3.28,0,0,1,1,1.27,4.72,4.72,0,0,1,.37,2v6.14H91.25V39a2.15,2.15,0,0,0-.47-1.61A2.11,2.11,0,0,0,89.35,37a6.09,6.09,0,0,0-.82.05c-.3,0-.55.06-.76.1v7.35H85V34.79Z"/><path class="cls-1" d="M98.57,44.53A4.71,4.71,0,0,1,97.08,44a3,3,0,0,1-1.06-1,2.92,2.92,0,0,1-.4-1.58,3.16,3.16,0,0,1,.35-1.5,3.1,3.1,0,0,1,1-1.09,4.75,4.75,0,0,1,1.46-.64,8.06,8.06,0,0,1,1.83-.21l.86,0c.32,0,.61.05.88.09a1.05,1.05,0,0,0-.63-.81A3.32,3.32,0,0,0,99.91,37a5.77,5.77,0,0,0-.78.07c-.28.05-.56.1-.85.18a7.63,7.63,0,0,0-.85.26,11.39,11.39,0,0,0-1.12.49L96.68,35a8.9,8.9,0,0,1,1.61-.56,8.61,8.61,0,0,1,1.94-.21,6.94,6.94,0,0,1,1.75.21,3.78,3.78,0,0,1,1.41.68,3.07,3.07,0,0,1,.94,1.23,4.65,4.65,0,0,1,.34,1.84V43.9a10.56,10.56,0,0,1-2.16.61,12.54,12.54,0,0,1-2.18.2A8.47,8.47,0,0,1,98.57,44.53Zm2.72-4.27a5.67,5.67,0,0,0-.79-.06,5.13,5.13,0,0,0-.81.06,2.56,2.56,0,0,0-.64.18,1,1,0,0,0-.4.3.73.73,0,0,0-.14.45.77.77,0,0,0,.52.74,3.32,3.32,0,0,0,1.33.22,5.07,5.07,0,0,0,.86-.07,5.45,5.45,0,0,0,.66-.13v-1.6Z"/><path class="cls-1" d="M106.35,37.33a4.47,4.47,0,0,1,1.14-1.61,5.39,5.39,0,0,1,1.81-1.07,7.25,7.25,0,0,1,2.41-.38,14.51,14.51,0,0,1,4,.55v8.75a8.15,8.15,0,0,1-.25,2.19,3.11,3.11,0,0,1-.87,1.47,3.74,3.74,0,0,1-1.6.82,10.34,10.34,0,0,1-2.42.24l-.67,0-.73-.1-.73-.13a7.7,7.7,0,0,1-.78-.21l-.62-3a9.5,9.5,0,0,0,1.14.43l.87.22a6.75,6.75,0,0,0,.86.15,5.27,5.27,0,0,0,.76,0,4.51,4.51,0,0,0,.94-.08,2.19,2.19,0,0,0,.71-.26,1.31,1.31,0,0,0,.45-.42,1.11,1.11,0,0,0,.15-.6v0a4.23,4.23,0,0,1-.66.08l-.75,0a6.32,6.32,0,0,1-2.27-.39A5.65,5.65,0,0,1,107.49,43a4.56,4.56,0,0,1-1.13-1.61,5,5,0,0,1-.4-2A5.24,5.24,0,0,1,106.35,37.33Zm6-.26a4.18,4.18,0,0,0-.68-.06,3.43,3.43,0,0,0-2.08.56,2.51,2.51,0,0,0,0,3.58,3.3,3.3,0,0,0,2.08.58,4.78,4.78,0,0,0,.64,0l.6-.09V37.16Z"/><path class="cls-1" d="M123.7,41.9a5.86,5.86,0,0,0,.75-.17,5.06,5.06,0,0,0,.66-.24,3.4,3.4,0,0,0,.68-.51l1.26,2.55a10.15,10.15,0,0,1-2,.86,8.25,8.25,0,0,1-2.44.32,5.6,5.6,0,0,1-2.15-.4,5.14,5.14,0,0,1-1.73-1.09,4.9,4.9,0,0,1-1.13-1.66,5.45,5.45,0,0,1,0-4.17,5,5,0,0,1,1.12-1.65,5.08,5.08,0,0,1,1.67-1.09,5.48,5.48,0,0,1,2-.38,5.35,5.35,0,0,1,2.1.4,4.42,4.42,0,0,1,1.65,1.19,5.22,5.22,0,0,1,1.05,1.9,8,8,0,0,1,.31,2.73h-7.43a1.68,1.68,0,0,0,.82,1,3.3,3.3,0,0,0,1.74.43H123A4.11,4.11,0,0,0,123.7,41.9Zm-2.76-4.66a1.86,1.86,0,0,0-.72.86h4.39a1.56,1.56,0,0,0-.7-.92,2.65,2.65,0,0,0-1.48-.39A2.4,2.4,0,0,0,120.94,37.24Z"/><path class="cls-1" d="M140.15,37.41a1.69,1.69,0,0,0-1.26-.4,4.19,4.19,0,0,0-.82.09,3,3,0,0,0-.76.24l.16.32s0,.12,0,.3,0,.35.05.53,0,.33,0,.47v5.55h-2.79V39a4.6,4.6,0,0,0-.1-1,1.39,1.39,0,0,0-.3-.61,1.08,1.08,0,0,0-.51-.3,3,3,0,0,0-.79-.09,3.69,3.69,0,0,0-.69.06l-.64.1v7.34H129V34.82c.87-.16,1.66-.29,2.36-.39a11.77,11.77,0,0,1,1.79-.16,7.26,7.26,0,0,1,1.54.16,2.65,2.65,0,0,1,1.17.49,9.79,9.79,0,0,1,1.53-.45,7,7,0,0,1,1.61-.2,8.27,8.27,0,0,1,1.69.17,3.48,3.48,0,0,1,1.4.65,3,3,0,0,1,.93,1.27,5.08,5.08,0,0,1,.34,2v6.14h-2.79V39A2.41,2.41,0,0,0,140.15,37.41Z"/><path class="cls-1" d="M151.11,41.9a5.86,5.86,0,0,0,.75-.17,4.58,4.58,0,0,0,.66-.24,3.14,3.14,0,0,0,.68-.51l1.26,2.55a10.06,10.06,0,0,1-2,.86,8.37,8.37,0,0,1-2.45.32,5.63,5.63,0,0,1-2.15-.4,5.24,5.24,0,0,1-1.73-1.09A5,5,0,0,1,145,41.56a5.57,5.57,0,0,1,0-4.17,5,5,0,0,1,1.12-1.65,5.19,5.19,0,0,1,1.67-1.09,5.48,5.48,0,0,1,2-.38,5.35,5.35,0,0,1,2.1.4,4.42,4.42,0,0,1,1.65,1.19,5.22,5.22,0,0,1,1,1.9,8,8,0,0,1,.31,2.73h-7.43a1.7,1.7,0,0,0,.83,1,3.24,3.24,0,0,0,1.73.43h.25A4.11,4.11,0,0,0,151.11,41.9Zm-2.76-4.66a1.76,1.76,0,0,0-.71.86H152a1.52,1.52,0,0,0-.7-.92,2.63,2.63,0,0,0-1.48-.39A2.4,2.4,0,0,0,148.35,37.24Z"/><path class="cls-1" d="M157.71,34.56l1.16-.15,1.07-.1c.34,0,.64,0,.91,0a9.06,9.06,0,0,1,1.76.17,3.73,3.73,0,0,1,1.46.65,3.19,3.19,0,0,1,1,1.27,4.72,4.72,0,0,1,.37,2v6.14h-2.79V39a1.65,1.65,0,0,0-1.9-2,5.86,5.86,0,0,0-.81.05c-.3,0-.56.06-.77.1v7.35h-2.79V34.79Z"/><path class="cls-1" d="M168.3,34.6V31.14h2.79V34.6h3.6v2.63h-3.6v3.21a2.89,2.89,0,0,0,.08.73.94.94,0,0,0,.23.42,1,1,0,0,0,.43.22,3,3,0,0,0,.73.07h2.2v2.63H172.3a8.93,8.93,0,0,1-1.75-.16,3.16,3.16,0,0,1-1.26-.55,2.11,2.11,0,0,1-.75-1,4.2,4.2,0,0,1-.24-1.51V37.23h-1.78V34.6Z"/><path class="cls-1" d="M186.58,33.19a3.8,3.8,0,0,0-1.38.83,4,4,0,0,0-.95,1.41,5.15,5.15,0,0,0-.36,2,5.08,5.08,0,0,0,.36,2,4,4,0,0,0,.95,1.42,3.59,3.59,0,0,0,1.38.85,5.47,5.47,0,0,0,1.68.26,6.14,6.14,0,0,0,1.81-.26,8.21,8.21,0,0,0,1.78-.86L193,43.41a8.17,8.17,0,0,1-2.27,1,9.91,9.91,0,0,1-2.53.32,7.84,7.84,0,0,1-3-.55,6.49,6.49,0,0,1-2.29-1.53,6.86,6.86,0,0,1-1.47-2.31,8.36,8.36,0,0,1,0-5.75,6.76,6.76,0,0,1,1.47-2.31,6.49,6.49,0,0,1,2.29-1.53,7.84,7.84,0,0,1,3-.55,9.48,9.48,0,0,1,2.53.33,8.48,8.48,0,0,1,2.27,1L191.85,34a8.26,8.26,0,0,0-1.77-.84,5.93,5.93,0,0,0-1.82-.27A5.19,5.19,0,0,0,186.58,33.19Z"/><path class="cls-1" d="M198.54,37.14h-.39l-.53,0-.77.1c-.33,0-.3,0,.11-.14v7.37h-2.79V34.89c.41-.08.79-.15,1.12-.19s.67-.1,1-.13l1-.09.84,0h2v2.69Z"/><path class="cls-1" d="M207.21,41.9a5.86,5.86,0,0,0,.75-.17,4.58,4.58,0,0,0,.66-.24,3.14,3.14,0,0,0,.68-.51l1.26,2.55a10.06,10.06,0,0,1-2,.86,8.37,8.37,0,0,1-2.45.32,5.63,5.63,0,0,1-2.15-.4,5.24,5.24,0,0,1-1.73-1.09,5,5,0,0,1-1.13-1.66,5.57,5.57,0,0,1,0-4.17,5,5,0,0,1,1.12-1.65,5.19,5.19,0,0,1,1.67-1.09,5.48,5.48,0,0,1,2-.38,5.31,5.31,0,0,1,2.1.4,4.42,4.42,0,0,1,1.65,1.19,5.22,5.22,0,0,1,1.05,1.9,8,8,0,0,1,.31,2.73h-7.43a1.7,1.7,0,0,0,.83,1,3.26,3.26,0,0,0,1.73.43h.25A4,4,0,0,0,207.21,41.9Zm-2.76-4.66a1.76,1.76,0,0,0-.71.86h4.39a1.58,1.58,0,0,0-.71-.92,2.63,2.63,0,0,0-1.48-.39A2.4,2.4,0,0,0,204.45,37.24Z"/><path class="cls-1" d="M215.08,44.53a4.77,4.77,0,0,1-1.5-.56,3.07,3.07,0,0,1-1.05-1,2.92,2.92,0,0,1-.4-1.58,3.16,3.16,0,0,1,.35-1.5,3.1,3.1,0,0,1,1-1.09,4.75,4.75,0,0,1,1.46-.64,8.06,8.06,0,0,1,1.83-.21l.86,0q.46,0,.87.09a1,1,0,0,0-.62-.81,3.35,3.35,0,0,0-1.44-.25,5.63,5.63,0,0,0-.78.07c-.28.05-.56.1-.86.18a8.34,8.34,0,0,0-.85.26c-.27.1-.64.26-1.11.49l.37-2.93a8.9,8.9,0,0,1,1.61-.56,8.58,8.58,0,0,1,1.93-.21,6.88,6.88,0,0,1,1.75.21,3.82,3.82,0,0,1,1.42.68,3.16,3.16,0,0,1,.94,1.23,4.65,4.65,0,0,1,.33,1.84V43.9a10.22,10.22,0,0,1-2.16.61,12.45,12.45,0,0,1-2.18.2A8.38,8.38,0,0,1,215.08,44.53Zm2.72-4.27a5.7,5.7,0,0,0-.8-.06,4.92,4.92,0,0,0-.8.06,2.56,2.56,0,0,0-.64.18,1,1,0,0,0-.41.3.73.73,0,0,0-.13.45.78.78,0,0,0,.51.74,3.38,3.38,0,0,0,1.34.22,5.15,5.15,0,0,0,.86-.07,4.85,4.85,0,0,0,.65-.13v-1.6Z"/><path class="cls-1" d="M224,34.6V31.14h2.8V34.6h3.59v2.63h-3.59v3.21a3,3,0,0,0,.07.73.94.94,0,0,0,.23.42,1.07,1.07,0,0,0,.44.22,2.92,2.92,0,0,0,.72.07h2.2v2.63H228a9,9,0,0,1-1.76-.16A3.16,3.16,0,0,1,225,43.8a2.24,2.24,0,0,1-.75-1,4.2,4.2,0,0,1-.24-1.51V37.23h-1.78V34.6Z"/><path class="cls-1" d="M232.46,33.18a1.3,1.3,0,0,1-.49-1.1,1.36,1.36,0,0,1,.46-1.06,1.67,1.67,0,0,1,1.14-.4,1.65,1.65,0,0,1,1.13.4,1.35,1.35,0,0,1,.45,1.06,1.38,1.38,0,0,1-.45,1.08,1.59,1.59,0,0,1-1.13.4A1.76,1.76,0,0,1,232.46,33.18ZM235,34.6v9.91h-2.79V34.6Z"/><path class="cls-1" d="M236,34.6h2.92l2.26,6.76,2.25-6.76h2.93l-3.42,9.91h-3.53Z"/><path class="cls-1" d="M247.61,33.18a1.32,1.32,0,0,1-.49-1.1,1.34,1.34,0,0,1,.47-1.06,1.63,1.63,0,0,1,1.13-.4,1.65,1.65,0,0,1,1.13.4,1.35,1.35,0,0,1,.45,1.06,1.41,1.41,0,0,1-.44,1.08,1.64,1.64,0,0,1-1.14.4A1.8,1.8,0,0,1,247.61,33.18Zm2.51,1.42v9.91h-2.79V34.6Z"/><path class="cls-1" d="M253.14,34.6V31.14h2.79V34.6h3.6v2.63h-3.6v3.21a2.89,2.89,0,0,0,.08.73.94.94,0,0,0,.23.42,1,1,0,0,0,.43.22,3.06,3.06,0,0,0,.73.07h2.2v2.63h-2.45a9,9,0,0,1-1.76-.16,3.16,3.16,0,0,1-1.26-.55,2.24,2.24,0,0,1-.75-1,4.2,4.2,0,0,1-.24-1.51V37.23h-1.78V34.6Z"/><path class="cls-1" d="M262.28,45.26l.86.22a7.22,7.22,0,0,0,.87.15,5.23,5.23,0,0,0,.75,0,4.68,4.68,0,0,0,.95-.08,2.28,2.28,0,0,0,.71-.26,1.41,1.41,0,0,0,.45-.42l.15-.25.1-.3a9,9,0,0,1-1.77.17,7.83,7.83,0,0,1-1.72-.18,3.29,3.29,0,0,1-1.39-.64,3.17,3.17,0,0,1-.91-1.27,5.57,5.57,0,0,1-.32-2V34.59h2.81v5.17a4.6,4.6,0,0,0,.1,1,1.63,1.63,0,0,0,.29.62,1,1,0,0,0,.5.31,2.73,2.73,0,0,0,.76.09,7.11,7.11,0,0,0,.78,0,5.53,5.53,0,0,0,.77-.15v-7h2.79v9a8.57,8.57,0,0,1-.25,2.19,3,3,0,0,1-.88,1.47,3.68,3.68,0,0,1-1.6.82,10.28,10.28,0,0,1-2.42.24l-.66,0-.73-.1-.73-.13a7.19,7.19,0,0,1-.79-.21l-.62-3A9.53,9.53,0,0,0,262.28,45.26Z"/><path class="cls-1" d="M317.32,29.55c-.34-.05-.69-.07-1-.1a.19.19,0,0,1-.2-.16v0c0-.1,0-.2,0-.3v-.09A2.88,2.88,0,0,0,314.2,26a2.91,2.91,0,0,0-3.39.79h0a.62.62,0,0,1-1-.13q-.24-.44-.48-.81c-1.34-2-2.9-2.7-4.84-2.2-2.27.59-3.33,2.1-3.34,4.89a1,1,0,0,1-1,1h0a3,3,0,0,0-2.84,2.2,3,3,0,0,0,1.09,3.2,3.75,3.75,0,0,0,2.43.63h14.08c.72,0,1.45,0,2.18-.05a3,3,0,0,0,.21-5.93ZM308.56,0a30,30,0,1,0,30,30A30,30,0,0,0,308.56,0Zm17,47a24,24,0,1,1-7.64-39.13c.67.29,1.32.6,2,.94l.19.1a3.25,3.25,0,0,1-3,5.75l-.31-.17a17.52,17.52,0,1,0,7.89,8.46l-7,5a.89.89,0,0,0,.49.26A4.5,4.5,0,0,1,316.85,37H300.27A4.49,4.49,0,0,1,299,28.17c.34-.1.49-.19.52-.58a6,6,0,0,1,10.82-3.19l.32.43L321,17.59l5.36-3.78A23.78,23.78,0,0,1,330,19.14c.26.49.49,1,.7,1.51a24.07,24.07,0,0,1,0,18.7A24.09,24.09,0,0,1,325.55,47ZM316.3,29.45a.19.19,0,0,1-.2-.16v0c0-.1,0-.2,0-.3v-.09A2.88,2.88,0,0,0,314.2,26a2.91,2.91,0,0,0-3.39.79h0a.62.62,0,0,1-1-.13q-.24-.44-.48-.81c-1.34-2-2.9-2.7-4.84-2.2-2.27.59-3.33,2.1-3.34,4.89a1,1,0,0,1-1,1h0a3,3,0,0,0-2.84,2.2,3,3,0,0,0,1.09,3.2,3.75,3.75,0,0,0,2.43.63h14.08c.72,0,1.45,0,2.18-.05a3,3,0,0,0,.21-5.93C317,29.5,316.63,29.48,316.3,29.45Z"/></svg>