<svg id="Layer_1" data-name="Layer 1" xmlns="http://www.w3.org/2000/svg" viewBox="0 0 75.99 68.76"><defs><style>.cls-1,.cls-2{fill:#fff;}.cls-2{fill-rule:evenodd;}</style></defs><title>صور وايقونات</title><path class="cls-1" d="M7.06,7V47.28H68.91V7H16.68c-1.53,0-2.14-.32-2-1.15.14-1.26,1.14-1.08,2-1.08H69.21c1.73,0,2,.27,2,2V47.54c0,1.8-.23,2-2,2H6.79c-1.8,0-2-.22-2-2V6.73c0-1.67.28-1.94,2-1.94h3.5c.73,0,1.28.29,1.31,1.09S11,7,10.31,7C9.26,7,8.21,7,7.06,7Z"/><path class="cls-1" d="M47.23,27.91c-1-.71-2-1.39-3-2.08a2.31,2.31,0,0,1-.59-.53,1.15,1.15,0,0,1,.14-1.46,1.14,1.14,0,0,1,1.56-.16c1.08.71,2.14,1.44,3.21,2.17.51.34,1,.67,1.52,1a1.19,1.19,0,0,1,0,2C48.5,30,46.94,31,45.37,32.09a1.21,1.21,0,1,1-1.36-2C45.05,29.37,46.11,28.67,47.23,27.91Z"/><path class="cls-1" d="M28.76,27.91c1.09.74,2.1,1.41,3.09,2.09a1.23,1.23,0,1,1-1.36,2l-4.41-3a1.22,1.22,0,0,1,0-2.2q2.22-1.53,4.47-3a1.2,1.2,0,0,1,1.82.24,1.24,1.24,0,0,1-.49,1.78C30.87,26.48,29.85,27.17,28.76,27.91Z"/><path class="cls-1" d="M35.6,33.43a1.19,1.19,0,0,1-1.07-1.8c.46-.89,1-1.76,1.46-2.63,1.08-1.91,2.14-3.82,3.23-5.73a2.29,2.29,0,0,1,.69-.76,1.06,1.06,0,0,1,1.35.21,1.12,1.12,0,0,1,.23,1.41c-.31.62-.67,1.22-1,1.82l-3.73,6.64A1.37,1.37,0,0,1,35.6,33.43Z"/><path class="cls-2" d="M71.36,0H4.65C1.61,0,0,1.62,0,4.69v45a6.45,6.45,0,0,0,.11,1.46c.5,2.14,2.11,3.24,4.77,3.25H28c-.41,2.57-.78,4.93-1.15,7.34H24.47a1.24,1.24,0,0,0-1.4,1.39c0,1.4,0,2.79,0,4.19,0,1,.41,1.45,1.43,1.44q13.52,0,27,0a1.22,1.22,0,0,0,1.39-1.37c0-1.4,0-2.79,0-4.18,0-1-.52-1.51-1.55-1.47-.74,0-1.48,0-2.23,0-.38-2.49-.74-4.83-1.12-7.28.5,0,.91-.06,1.31-.06h9.16a5.05,5.05,0,0,0,.87,0h1.4a1.12,1.12,0,0,0,1.11-1.12v-.06a1.11,1.11,0,0,0-1.11-1.11H53.93l-.23,0h-49c-1.91,0-2.51-.58-2.51-2.48v-45c0-1.82.62-2.41,2.46-2.41h66.6c1.85,0,2.47.59,2.47,2.41V49.75c0,1.76-.64,2.37-2.39,2.38-2.11,0-4.23,0-6.34,0-.76,0-1.49.19-1.46,1.16s.67,1.09,1.42,1.1c2.22,0,4.45.05,6.67,0,2.78-.1,4.33-1.76,4.33-4.57V4.59C76,1.62,74.34,0,71.36,0ZM30.19,55a1,1,0,0,1,.79-.53q7-.06,14,0c.28,0,.76.3.8.53.4,2.21.72,4.44,1.09,6.79H45.21c-.78,0-1.36.31-1.35,1.16S44.45,64,45.17,64H50c.17,0,.35,0,.58,0v2.38H25.41V64h14c.82,0,1.48-.29,1.45-1.2s-.67-1.08-1.45-1.07H29.11C29.48,59.4,29.8,57.18,30.19,55Z"/></svg>