<svg id="Layer_1" data-name="Layer 1" xmlns="http://www.w3.org/2000/svg" viewBox="0 0 82.33 58.35"><defs><style>.cls-1{fill:#02265d;}</style></defs><title>صور وايقونات</title><path class="cls-1" d="M50.46,58.35H7.57A7.23,7.23,0,0,1,0,50.85Q0,29.07,0,7.28A7.18,7.18,0,0,1,6.64.08C7.1,0,7.57,0,8,0,23.91,0,58.43,0,74.3,0c3.24,0,5.8,1.14,7.22,4.14a8.27,8.27,0,0,1,.77,3.39q.08,21.74,0,43.47a7.22,7.22,0,0,1-7.4,7.34Zm27.81-45H4.08a4.25,4.25,0,0,0-.07.48Q4,32.41,4,51a3.23,3.23,0,0,0,3.57,3.38c16.16,0,51,0,67.14,0A4.36,4.36,0,0,0,76.47,54c1.5-.68,1.86-2,1.86-3.53q0-18,0-36C78.32,14.11,78.29,13.77,78.27,13.34Zm0-4.08c0-.7,0-1.31,0-1.91A3.27,3.27,0,0,0,74.83,4C58.6,4,23.72,4,7.49,4a4.25,4.25,0,0,0-2.42.89C3.65,6,4,7.67,4.06,9.26Z"/><path class="cls-1" d="M23.89,34.62C21.3,32,19,29.68,16.58,27.34a1.73,1.73,0,0,1-.49-2.12A2.74,2.74,0,0,1,17.66,24a2.17,2.17,0,0,1,1.7.57C22.23,27.33,25,30.15,27.83,33a2,2,0,0,1,.06,3q-4.26,4.34-8.61,8.58a2,2,0,0,1-2.79,0,2,2,0,0,1,.09-2.88c2-2.08,4.11-4.13,6.19-6.18A8.34,8.34,0,0,1,23.89,34.62Z"/><path class="cls-1" d="M58.49,41.14h5.66a2,2,0,1,1,0,4c-3.81,0-26.27,0-30.08,0a2,2,0,0,1-2.25-2c0-1.19.92-1.91,2.34-1.92Z"/></svg>