<svg id="Layer_1" data-name="Layer 1" xmlns="http://www.w3.org/2000/svg" viewBox="0 0 76 68.76"><defs><style>.cls-1{fill:#fff;}</style></defs><title>صور وايقونات</title><path class="cls-1" d="M71.36,0H4.65C1.61,0,0,1.61,0,4.68q0,22.5,0,45a6.4,6.4,0,0,0,.11,1.45c.49,2.15,2.1,3.25,4.77,3.25H28c-.4,2.57-.77,4.93-1.15,7.34H24.47a1.24,1.24,0,0,0-1.4,1.39v4.18c0,1,.42,1.45,1.44,1.45q13.5,0,27,0a1.21,1.21,0,0,0,1.39-1.37c0-1.4,0-2.79,0-4.19,0-1-.53-1.5-1.56-1.47-.74,0-1.48,0-2.23,0-.38-2.49-.74-4.83-1.12-7.28.51,0,.91-.06,1.31-.06h9.46a2.26,2.26,0,0,0,.45,0h.11a1.12,1.12,0,0,0,1.11-1,1.16,1.16,0,0,0,0-.18.4.4,0,0,0,0-.23h0a1.13,1.13,0,0,0-1.1-.89H52.52l-.21,0H4.74c-1.91,0-2.5-.58-2.5-2.48q0-22.5,0-45c0-1.82.61-2.41,2.46-2.41H71.3c1.84,0,2.46.59,2.46,2.41q0,22.56,0,45.11c0,1.76-.63,2.37-2.39,2.37H65c-.77,0-1.49.2-1.47,1.17s.68,1.09,1.42,1.09c2.23,0,4.45.06,6.67,0,2.79-.1,4.33-1.77,4.33-4.57q0-22.62,0-45.23C76,1.62,74.34,0,71.36,0ZM30.2,55a1,1,0,0,1,.78-.54q7,0,14,0c.27,0,.76.3.8.52.39,2.22.72,4.44,1.08,6.8H45.22c-.79,0-1.36.31-1.36,1.16S44.45,64,45.17,64c1.62,0,3.24,0,4.86,0,.18,0,.36,0,.58,0v2.37H25.41V64h14c.81,0,1.48-.29,1.44-1.19s-.66-1.08-1.44-1.08c-2,0-3.92,0-5.88,0H29.12C29.48,59.4,29.8,57.17,30.2,55Z"/><path class="cls-1" d="M71.22,6.83V47.54c0,1.79-.24,2-2,2H6.79c-1.79,0-2-.22-2-2V6.73c0-1.67.28-1.94,2-1.95h3.51c.72,0,1.28.28,1.3,1.09S11,7,10.31,7C9.26,7,8.21,7,7.06,7V47.28H68.91V7H16.68c-1.52,0-2.13-.31-2-1.14.14-1.26,1.15-1.08,2-1.08H69.22C71,4.78,71.22,5.06,71.22,6.83Z"/><path class="cls-1" d="M57.43,46.64c-.29,0-.59,0-.91,0V28.26l.29-.11a3.7,3.7,0,0,0,2.78-3.36A6.83,6.83,0,0,0,58.75,20c-.35-.51-.52-1.15-.86-1.67a8.14,8.14,0,0,1-1.29-5.26c.1-1.22-.48-1.73-1.74-1.73H25.43c-.18,0-.41-.07-.52,0s-.48.43-.49.67.29.45.51.58a1.81,1.81,0,0,0,.7,0c9.64,0,19.27,0,28.9,0l.72,0v2.58H18.76V12.63c1,0,2,0,2.91,0,.6,0,1-.25.92-.67s-.42-.66-.89-.64c-.92,0-1.84,0-2.77,0a1.41,1.41,0,0,0-1.52,1.51c0,.76,0,1.52,0,2.29a3.5,3.5,0,0,1-.28,1.24,36.27,36.27,0,0,1-1.7,3.35,6.87,6.87,0,0,0-1,4.55,6.78,6.78,0,0,0,.39,1.82,3.7,3.7,0,0,0,2.71,2.15V46.64c-.38,0-.73,0-1.09,0a2.1,2.1,0,0,0-2.05,2.16V49h1.33a1.46,1.46,0,0,1,0-.3c0-.55.45-.73,1-.73H57.05c1,0,1.26.14,1.29,1h1.33v-.08A2.12,2.12,0,0,0,57.43,46.64Zm.82-24a22.2,22.2,0,0,1,0,2.31,2.44,2.44,0,0,1-4.83-.19c0-.67,0-1.36,0-2.12Zm-3-6a.5.5,0,0,1,.39.18c.74,1.44,1.46,2.89,2.23,4.43H53.38c-.11,0-.27-.16-.32-.27-.51-1.42-1-2.83-1.56-4.35C52.82,16.62,54,16.62,55.25,16.64Zm-3.43,8.81a2.43,2.43,0,0,1-2.69,1.45,2.38,2.38,0,0,1-2-2.1c-.06-.69,0-1.4,0-2.18H52A8.16,8.16,0,0,1,51.82,25.45Zm-2-8.81a.43.43,0,0,1,.32.25c.53,1.42,1,2.83,1.56,4.34H47l-1-4.61C47.3,16.62,48.57,16.62,49.85,16.64Zm-4.15,8.2a2.44,2.44,0,0,1-4.84-.05,17,17,0,0,1,0-2.15h4.89A17.81,17.81,0,0,1,45.7,24.84Zm-1.09-8.18c.31,1.5.64,3,1,4.55H40.77c-.11-1.5-.22-3-.34-4.55Zm-9.69,0H39.1c.11,1.49.22,3,.33,4.56H34.61C34.71,19.7,34.82,18.21,34.92,16.67Zm-.36,6h4.87a17.78,17.78,0,0,1,0,2.31,2.39,2.39,0,0,1-2.53,2,2.43,2.43,0,0,1-2.32-2.25C34.51,24,34.56,23.36,34.56,22.63Zm-5.19-5.7c0-.12.19-.29.3-.29,1.28,0,2.57,0,3.93,0-.12,1.57-.23,3.07-.34,4.59H28.45C28.75,19.75,29.06,18.33,29.37,16.93Zm-1.07,5.7h4.85a16.69,16.69,0,0,1,0,2.35,2.37,2.37,0,0,1-2.5,2,2.42,2.42,0,0,1-2.33-2.25C28.25,24,28.3,23.36,28.3,22.63Zm-4.09-6c1.26,0,2.52,0,3.85,0-.33,1.57-.65,3.07-1,4.59H22.3c.53-1.49,1.05-2.91,1.57-4.35A.47.47,0,0,1,24.21,16.64Zm2.77,6a16.55,16.55,0,0,1-.18,2.57,2.34,2.34,0,0,1-2.66,1.72A2.38,2.38,0,0,1,22,24.67c0-.66,0-1.33,0-2.05Zm-9.33-4.4a2.07,2.07,0,0,1,2.6-1.61,15.54,15.54,0,0,0,2.27,0c-.15.41-.26.77-.39,1.13-.37,1-.74,2.06-1.13,3.08-.06.18-.25.4-.4.4-1.44,0-2.89,0-4.44,0A29.17,29.17,0,0,0,17.65,18.22ZM15.79,24.9a21.6,21.6,0,0,1,0-2.28H20.7a18,18,0,0,1-.17,2.57,2.3,2.3,0,0,1-2.48,1.73A2.35,2.35,0,0,1,15.79,24.9Zm13,21.7H21.41V32h7.42Zm26.33,0h-25V32.27c0-1.23-.4-1.61-1.63-1.61H21.71c-1.28,0-1.67.4-1.67,1.71V46.59H18.87V46q0-8.59,0-17.21c0-.41.14-.57.52-.75a20.13,20.13,0,0,0,2.07-1.26,3.82,3.82,0,0,0,6.15-.13,4,4,0,0,0,3.14,1.62,3.85,3.85,0,0,0,3.14-1.61,3.87,3.87,0,0,0,6.27,0c2.29,2.14,4.31,2.14,6.28,0a3.91,3.91,0,0,0,3.12,1.61,3.85,3.85,0,0,0,3.16-1.64,4.39,4.39,0,0,0,2.22,1.54c.12,0,.23.37.23.55,0,3.47,0,6.92,0,10.39Z"/><path class="cls-1" d="M32.92,32v10.4H52V32H44.47c-.19,0-.44.06-.57,0s-.49-.4-.5-.62.28-.45.48-.62.3,0,.46,0c2.5,0,5,0,7.49,0,1.09,0,1.54.44,1.54,1.54v10c0,1.17-.44,1.59-1.61,1.59H33.19c-1.19,0-1.61-.41-1.61-1.59q0-5,0-10c0-1.14.42-1.55,1.57-1.55q3.66,0,7.31,0c.2,0,.45-.05.58.05a1.11,1.11,0,0,1,.45.64c0,.2-.26.45-.46.58s-.38.05-.58.05H32.92Z"/><rect class="cls-1" x="42.57" y="30.64" width="9.06" height="1.34" rx="0.67" ry="0.67"/><rect class="cls-1" x="24.29" y="11.3" width="9.06" height="1.34" rx="0.67" ry="0.67"/><rect class="cls-1" x="26.02" y="38.24" width="2.71" height="1.34" rx="0.67" ry="0.67" transform="translate(-11.53 66.28) rotate(-90)"/></svg>