<svg id="Layer_1" data-name="Layer 1" xmlns="http://www.w3.org/2000/svg" viewBox="0 0 65.65 65.5"><defs><style>.cls-1{fill:#00a7da;}</style></defs><title>صور وايقونات</title><path class="cls-1" d="M32.71,65.5A32.75,32.75,0,1,1,65.65,32.75,32.75,32.75,0,0,1,32.71,65.5Zm.1-1.89A30.87,30.87,0,1,0,1.89,32.87,30.86,30.86,0,0,0,32.81,63.61Z"/><path class="cls-1" d="M26,49.26,16.11,20c.86-.1,1.62-.19,2.38-.25s1.69-.17,1.7-1.3c0-.82-.54-1.14-1.8-1.09-2.37.1-4.74.2-7.1.28-.34,0-.68,0-1.06-.06,8-13.06,28-16.79,40.69-5.25-.08.05-.15.14-.23.15a4.91,4.91,0,0,0-4.06,6.66,16.09,16.09,0,0,0,1.78,3.6,15.32,15.32,0,0,1,2,14c-1.29,4-2.48,8-4,12.06C43.18,39.32,40,29.75,36.67,20l2.69-.28c.83-.08,1.49-.39,1.39-1.36s-.78-1-1.56-1c-4.59,0-9.18,0-13.77,0-.86,0-1.53.18-1.59,1.12s.61,1.3,1.38,1.23c2.07-.19,2.91.87,3.47,2.73.83,2.81,2,5.52,3,8.28a2.4,2.4,0,0,1,.1,1.42c-1.82,5.57-3.69,11.13-5.55,16.69A2.87,2.87,0,0,1,26,49.26Z"/><path class="cls-1" d="M41.78,58.42c-3.9,1.9-12.23,2.13-16.62.44L33.3,35.24Z"/><path class="cls-1" d="M20.74,57.14A27,27,0,0,1,7.83,21.86Z"/><path class="cls-1" d="M57.14,20.46c6.12,10.68,3.32,27.71-10.41,35.7.77-2.25,1.49-4.36,2.22-6.47,2.21-6.34,4.46-12.66,6.63-19a29.14,29.14,0,0,0,1.27-5.13A50.13,50.13,0,0,0,57.14,20.46Z"/></svg>