<svg id="Layer_1" data-name="Layer 1" xmlns="http://www.w3.org/2000/svg" viewBox="0 0 57.34 65.12"><defs><style>.cls-1{fill:#0d74b6;}.cls-2{fill:#ebecee;}</style></defs><title>صور وايقونات</title><path class="cls-1" d="M28.65,0H56.31c1.11,0,1.08,0,1,1.07-.43,4.81-.84,9.63-1.28,14.44Q55.14,25.26,54.25,35L53,49.64c-.25,2.79-.49,5.58-.7,8.38,0,.55-.28.75-.78.89C45.3,60.6,39.12,62.32,32.94,64c-5.31,1.47-3.38,1.47-8.64,0-5.95-1.64-11.9-3.26-17.84-4.92C4.79,58.65,5.09,58.9,5,57.29Q3.53,41.44,2.11,25.57,1.09,14,.1,2.49a2.45,2.45,0,0,0,0-.27C-.12,0-.12,0,2.07,0Z"/><path class="cls-2" d="M48.05,9.06l-.67,7.62-.67,7.56L46,31.87l-.75,8.58-.72,8.12-6.21,1.75-1.63.45-10,2.81-6.61-2.89-4.42-1.94h0L12.15,47.2l-.86-8.7-.4-4.1h7.66L19.3,42l8,3.51,10.13-2.85.95-10.78H21.76L20.6,24.24H39.07l.67-7.56H9.94c-.21-2.7-.45-5.36-.66-7.62Z"/></svg>