<svg xmlns="http://www.w3.org/2000/svg" xmlns:xlink="http://www.w3.org/1999/xlink" viewBox="0 0 300.55 336.14"><defs><style>.cls-1,.cls-25{fill:none;}.cls-2{isolation:isolate;}.cls-3{fill:#242b3d;}.cls-4{fill:#3e4e75;}.cls-5{fill:#5d99fa;}.cls-6{fill:#b875d0;}.cls-7{fill:#f56eab;}.cls-12,.cls-164,.cls-18,.cls-8{fill:#fff;}.cls-8{opacity:0.2;}.cls-164,.cls-24,.cls-33,.cls-8{mix-blend-mode:overlay;}.cls-9{fill:#7dd075;}.cls-10{fill:#6ef5c8;}.cls-11{fill:#5e93ff;}.cls-13{fill:#8c5e4c;}.cls-14{fill:url(#linear-gradient);}.cls-15{fill:url(#linear-gradient-2);}.cls-16{fill:#eda468;}.cls-17{fill:#b57962;}.cls-18{opacity:0.3;}.cls-19{fill:#c8c8e5;}.cls-20{fill:#acacd1;}.cls-21{fill:url(#linear-gradient-3);}.cls-22{fill:#a9d1b5;mix-blend-mode:multiply;}.cls-23{clip-path:url(#clip-path);}.cls-24{opacity:0.5;}.cls-25{stroke:#fff;stroke-linejoin:round;stroke-width:0.5px;}.cls-26{fill:url(#linear-gradient-4);}.cls-27{clip-path:url(#clip-path-2);}.cls-28{fill:url(#linear-gradient-5);}.cls-29{clip-path:url(#clip-path-3);}.cls-30{fill:#614134;}.cls-31{fill:#9c6854;}.cls-32{fill:#fcbb86;}.cls-33{fill:#fffbf7;}.cls-164,.cls-33{opacity:0.4;}.cls-34{fill:#1c2229;}.cls-35{fill:url(#linear-gradient-6);}.cls-36{fill:#b0b2c9;}.cls-37{fill:#7c80a6;}.cls-38{fill:url(#linear-gradient-7);}.cls-39{fill:url(#linear-gradient-8);}.cls-40{fill:url(#linear-gradient-9);}.cls-41{fill:url(#linear-gradient-10);}.cls-42{fill:url(#linear-gradient-11);}.cls-43{fill:url(#linear-gradient-12);}.cls-44{fill:url(#linear-gradient-13);}.cls-45{fill:url(#linear-gradient-14);}.cls-46{fill:url(#linear-gradient-15);}.cls-47{fill:url(#linear-gradient-16);}.cls-48{fill:url(#linear-gradient-17);}.cls-49{fill:url(#linear-gradient-18);}.cls-50{fill:url(#linear-gradient-19);}.cls-51{fill:url(#linear-gradient-20);}.cls-52{fill:url(#linear-gradient-21);}.cls-53{fill:url(#linear-gradient-22);}.cls-54{fill:url(#linear-gradient-23);}.cls-55{fill:url(#linear-gradient-24);}.cls-56{fill:url(#linear-gradient-25);}.cls-57{fill:url(#linear-gradient-26);}.cls-58{fill:url(#linear-gradient-27);}.cls-59{fill:url(#linear-gradient-28);}.cls-60{fill:url(#linear-gradient-29);}.cls-61{fill:url(#linear-gradient-30);}.cls-62{fill:url(#linear-gradient-31);}.cls-63{fill:url(#linear-gradient-32);}.cls-64{fill:url(#linear-gradient-33);}.cls-65{fill:url(#linear-gradient-34);}.cls-66{fill:url(#linear-gradient-35);}.cls-67{fill:url(#linear-gradient-36);}.cls-68{fill:url(#linear-gradient-37);}.cls-69{fill:url(#linear-gradient-38);}.cls-70{fill:url(#linear-gradient-39);}.cls-71{fill:url(#linear-gradient-40);}.cls-72{fill:url(#linear-gradient-41);}.cls-73{fill:url(#linear-gradient-42);}.cls-74{fill:url(#linear-gradient-43);}.cls-75{fill:url(#linear-gradient-44);}.cls-76{fill:url(#linear-gradient-45);}.cls-77{fill:url(#linear-gradient-46);}.cls-78{fill:url(#linear-gradient-47);}.cls-79{fill:url(#linear-gradient-48);}.cls-80{fill:url(#linear-gradient-49);}.cls-81{fill:url(#linear-gradient-50);}.cls-82{fill:url(#linear-gradient-51);}.cls-83{fill:url(#linear-gradient-52);}.cls-84{fill:url(#linear-gradient-53);}.cls-85{fill:url(#linear-gradient-54);}.cls-86{fill:url(#linear-gradient-55);}.cls-87{fill:url(#linear-gradient-56);}.cls-88{fill:url(#linear-gradient-57);}.cls-89{fill:url(#linear-gradient-58);}.cls-90{fill:url(#linear-gradient-59);}.cls-91{fill:url(#linear-gradient-60);}.cls-92{fill:url(#linear-gradient-61);}.cls-93{fill:url(#linear-gradient-62);}.cls-94{fill:url(#linear-gradient-63);}.cls-95{fill:url(#linear-gradient-64);}.cls-96{fill:url(#linear-gradient-65);}.cls-97{fill:url(#linear-gradient-66);}.cls-98{fill:url(#linear-gradient-67);}.cls-99{fill:url(#linear-gradient-68);}.cls-100{fill:url(#linear-gradient-69);}.cls-101{fill:url(#linear-gradient-70);}.cls-102{fill:url(#linear-gradient-71);}.cls-103{fill:url(#linear-gradient-72);}.cls-104{fill:url(#linear-gradient-73);}.cls-105{fill:url(#linear-gradient-74);}.cls-106{fill:url(#linear-gradient-75);}.cls-107{fill:url(#linear-gradient-76);}.cls-108{fill:url(#linear-gradient-77);}.cls-109{fill:url(#linear-gradient-78);}.cls-110{fill:url(#linear-gradient-79);}.cls-111{fill:url(#linear-gradient-80);}.cls-112{fill:url(#linear-gradient-81);}.cls-113{fill:url(#linear-gradient-82);}.cls-114{fill:url(#linear-gradient-83);}.cls-115{fill:url(#linear-gradient-84);}.cls-116{fill:url(#linear-gradient-85);}.cls-117{fill:url(#linear-gradient-86);}.cls-118{fill:url(#linear-gradient-87);}.cls-119{fill:url(#linear-gradient-88);}.cls-120{fill:url(#linear-gradient-89);}.cls-121{fill:url(#linear-gradient-90);}.cls-122{fill:url(#linear-gradient-91);}.cls-123{fill:url(#linear-gradient-92);}.cls-124{fill:url(#linear-gradient-93);}.cls-125{fill:#c27d5d;}.cls-126{fill:#5274ab;}.cls-127{fill:#1e202b;}.cls-128{fill:#2d3041;}.cls-129{fill:#7f5545;}.cls-130{fill:#976552;}.cls-131{fill:#614135;}.cls-132,.cls-133,.cls-134,.cls-135,.cls-136,.cls-137,.cls-138,.cls-141,.cls-142,.cls-143,.cls-144{fill-rule:evenodd;}.cls-132{fill:url(#linear-gradient-94);}.cls-133{fill:url(#linear-gradient-95);}.cls-134{fill:url(#linear-gradient-96);}.cls-135{fill:#fdddc8;}.cls-136{fill:url(#linear-gradient-97);}.cls-137{fill:url(#linear-gradient-98);}.cls-138{fill:url(#linear-gradient-99);}.cls-139{fill:#395075;}.cls-140{fill:#3c547d;}.cls-141{fill:url(#linear-gradient-100);}.cls-142{fill:#cf8f5b;}.cls-143{fill:#7d4a41;}.cls-144{fill:#d9c8c5;}.cls-145{fill:#7495cc;}.cls-146{fill:#6f4d50;}.cls-147{fill:#2c3340;}.cls-148{fill:url(#linear-gradient-101);}.cls-149{fill:url(#linear-gradient-102);}.cls-150{fill:#697a9c;}.cls-151{fill:url(#linear-gradient-103);}.cls-152{fill:url(#linear-gradient-104);}.cls-153{fill:url(#linear-gradient-105);}.cls-154{fill:url(#linear-gradient-106);}.cls-155{fill:url(#linear-gradient-107);}.cls-156{fill:url(#linear-gradient-108);}.cls-157{fill:url(#linear-gradient-109);}.cls-158{fill:url(#linear-gradient-110);}.cls-159{fill:url(#linear-gradient-111);}.cls-160{fill:url(#linear-gradient-112);}.cls-161{fill:#363e4f;}.cls-162{fill:url(#linear-gradient-113);}.cls-163{fill:url(#linear-gradient-114);}.cls-165{fill:url(#linear-gradient-115);}.cls-166{fill:url(#linear-gradient-116);}.cls-167{fill:url(#linear-gradient-117);}.cls-168{fill:url(#linear-gradient-118);}.cls-169{clip-path:url(#clip-path-4);}.cls-170{fill:url(#linear-gradient-119);}.cls-171{clip-path:url(#clip-path-5);}.cls-172{fill:url(#linear-gradient-120);}.cls-173{clip-path:url(#clip-path-6);}.cls-174{fill:url(#linear-gradient-121);}.cls-175{fill:url(#linear-gradient-122);}.cls-176{fill:url(#linear-gradient-123);}.cls-177{fill:#424b60;}.cls-178{fill:#8194bc;}.cls-179{fill:#ffcc0c;}.cls-180{fill:#ffc003;}.cls-181{fill:#e8356c;}.cls-182{fill:#3aa6ff;}</style><linearGradient id="linear-gradient" x1="50.42" y1="208.45" x2="76.32" y2="164.43" gradientUnits="userSpaceOnUse"><stop offset="0" stop-color="#f7f7ff"/><stop offset="1" stop-color="#bebee0"/></linearGradient><linearGradient id="linear-gradient-2" x1="74.07" y1="219.21" x2="104.5" y2="149.71" xlink:href="#linear-gradient"/><linearGradient id="linear-gradient-3" x1="-5009.47" y1="98.72" x2="-4997.81" y2="52.53" gradientTransform="matrix(-0.98, -0.21, -0.21, 0.98, -4801.64, -1017.85)" gradientUnits="userSpaceOnUse"><stop offset="0" stop-color="#346d4d"/><stop offset="1" stop-color="#8ac45e"/></linearGradient><clipPath id="clip-path"><path class="cls-1" d="M76.08,167.71c2.34-4.76,6.32-4.05,7.93-9.19,1.36-5.17-2.35-5.57-1.35-10.62.76-5.07,4.13-5,4.12-10.23-.26-5.24-3.27-5.11-3.82-10.15-.78-5,1.83-5.37.25-10.38-1.81-4.94-4-4.46-6-9.15-2.26-4.6-.54-5.18-3.61-9.58-3.3-4.28-6.25-5.4-9.73-9.37-2.12,4.85-4.59,6.81-6.43,11.88-1.59,5.12.23,5.16-.53,10.23-.52,5.09-2.74,5.29-3,10.55,0,5.25,2.61,4.8,3.39,9.8,1,5-1.9,5.77-.55,10.84,1.58,5,4.76,3.9,7,8.5,2.49,4.5-.92,6,2,10.53C68.82,165.77,72.39,163.89,76.08,167.71Z"/></clipPath><linearGradient id="linear-gradient-4" x1="-9301.64" y1="2042.31" x2="-9291.39" y2="2001.72" gradientTransform="matrix(-0.9, 0.44, 0.44, 0.9, -9187.18, 2431.39)" xlink:href="#linear-gradient-3"/><clipPath id="clip-path-2"><path class="cls-1" d="M74.3,169.59c-1-4.56,2.13-6.25.43-10.66-1.91-4.3-4.67-2.55-6.74-6.56-2.26-3.9.11-5.69-2.78-9.29-3-3.46-5-1.72-8.18-4.89-3.28-3-1.68-4.69-5.51-7.27-3.94-2.4-5.18-.88-9.15-3-4.07-1.93-3.2-3.28-7.73-4.62-4.6-1.13-7.24-.29-11.81-1.11,1.2,4.49.57,7.19,2.08,11.68,1.71,4.4,3,3.43,5.24,7.33,2.42,3.78,1,5.13,3.73,8.87,2.89,3.6,4.42,1.87,7.7,4.89,3.42,2.86,1.85,5,5.55,7.74,3.83,2.59,5.42.08,9.49,2,4.17,1.74,2.65,4.64,7.1,6.17C68.25,172.22,69.68,169,74.3,169.59Z"/></clipPath><linearGradient id="linear-gradient-5" x1="584.91" y1="3632.05" x2="595.16" y2="3591.46" gradientTransform="matrix(-0.5, -0.86, -0.86, 0.5, 3519.16, -1167.99)" xlink:href="#linear-gradient-3"/><clipPath id="clip-path-3"><path class="cls-1" d="M77.7,167.56c4.48-1.31,6.39,1.68,10.67-.32,4.15-2.2,2.21-4.84,6.07-7.19,3.73-2.52,5.68-.28,9.07-3.42,3.24-3.28,1.36-5.15,4.3-8.5,2.78-3.48,4.56-2,6.87-6,2.12-4.1.51-5.23,2.33-9.33,1.64-4.2,3-3.43,4.06-8,.81-4.67-.22-7.25.28-11.86-4.39,1.51-7.13,1.07-11.51,2.9-4.26,2-3.2,3.21-6.93,5.74s-5.06,1.36-8.59,4.34c-3.39,3.14-1.56,4.54-4.34,8-2.61,3.61-4.85,2.19-7.33,6.08-2.31,4,.3,5.4-1.33,9.6-1.44,4.28-4.44,3-5.66,7.51C74.65,161.71,78,162.9,77.7,167.56Z"/></clipPath><linearGradient id="linear-gradient-6" x1="121.77" y1="104.18" x2="136.77" y2="168.87" gradientUnits="userSpaceOnUse"><stop offset="0" stop-color="#405078"/><stop offset="1" stop-color="#252e45"/></linearGradient><linearGradient id="linear-gradient-7" x1="157.19" y1="155.13" x2="190.58" y2="128.48" gradientTransform="translate(-59.02)" gradientUnits="userSpaceOnUse"><stop offset="0" stop-color="#fff"/><stop offset="1" stop-color="#cecfdb"/></linearGradient><linearGradient id="linear-gradient-8" x1="150.4" y1="129.09" x2="196.28" y2="153.88" gradientTransform="translate(-59.02)" gradientUnits="userSpaceOnUse"><stop offset="0" stop-color="#333e4a"/><stop offset="1" stop-color="#222931"/></linearGradient><linearGradient id="linear-gradient-9" x1="152.55" y1="125.11" x2="198.43" y2="149.9" xlink:href="#linear-gradient-8"/><linearGradient id="linear-gradient-10" x1="152.51" y1="125.17" x2="198.39" y2="149.97" xlink:href="#linear-gradient-8"/><linearGradient id="linear-gradient-11" x1="152.47" y1="125.24" x2="198.36" y2="150.04" xlink:href="#linear-gradient-8"/><linearGradient id="linear-gradient-12" x1="151.6" y1="126.85" x2="197.49" y2="151.64" xlink:href="#linear-gradient-8"/><linearGradient id="linear-gradient-13" x1="151.57" y1="126.92" x2="197.45" y2="151.71" xlink:href="#linear-gradient-8"/><linearGradient id="linear-gradient-14" x1="152.44" y1="125.31" x2="198.32" y2="150.11" xlink:href="#linear-gradient-8"/><linearGradient id="linear-gradient-15" x1="150.47" y1="128.95" x2="196.35" y2="153.75" xlink:href="#linear-gradient-8"/><linearGradient id="linear-gradient-16" x1="149.37" y1="130.99" x2="195.25" y2="155.78" xlink:href="#linear-gradient-8"/><linearGradient id="linear-gradient-17" x1="151.53" y1="126.99" x2="197.41" y2="151.78" xlink:href="#linear-gradient-8"/><linearGradient id="linear-gradient-18" x1="152.4" y1="125.38" x2="198.28" y2="150.17" xlink:href="#linear-gradient-8"/><linearGradient id="linear-gradient-19" x1="150.43" y1="129.02" x2="196.31" y2="153.81" xlink:href="#linear-gradient-8"/><linearGradient id="linear-gradient-20" x1="149.33" y1="131.06" x2="195.21" y2="155.85" xlink:href="#linear-gradient-8"/><linearGradient id="linear-gradient-21" x1="152.37" y1="125.45" x2="198.24" y2="150.24" xlink:href="#linear-gradient-8"/><linearGradient id="linear-gradient-22" x1="148.25" y1="133.06" x2="194.13" y2="157.85" xlink:href="#linear-gradient-8"/><linearGradient id="linear-gradient-23" x1="149.3" y1="131.12" x2="195.18" y2="155.92" xlink:href="#linear-gradient-8"/><linearGradient id="linear-gradient-24" x1="151.48" y1="127.09" x2="197.36" y2="151.88" xlink:href="#linear-gradient-8"/><linearGradient id="linear-gradient-25" x1="148.22" y1="133.13" x2="194.09" y2="157.92" xlink:href="#linear-gradient-8"/><linearGradient id="linear-gradient-26" x1="152.33" y1="125.52" x2="198.21" y2="150.31" xlink:href="#linear-gradient-8"/><linearGradient id="linear-gradient-27" x1="150.35" y1="129.19" x2="196.23" y2="153.98" xlink:href="#linear-gradient-8"/><linearGradient id="linear-gradient-28" x1="151.41" y1="127.19" x2="197.3" y2="151.99" xlink:href="#linear-gradient-8"/><linearGradient id="linear-gradient-29" x1="148.16" y1="133.23" x2="194.04" y2="158.02" xlink:href="#linear-gradient-8"/><linearGradient id="linear-gradient-30" x1="149.23" y1="131.24" x2="195.11" y2="156.04" xlink:href="#linear-gradient-8"/><linearGradient id="linear-gradient-31" x1="150.29" y1="129.28" x2="196.17" y2="154.08" xlink:href="#linear-gradient-8"/><linearGradient id="linear-gradient-32" x1="147.03" y1="135.32" x2="192.91" y2="160.12" xlink:href="#linear-gradient-8"/><linearGradient id="linear-gradient-33" x1="148.1" y1="133.33" x2="193.98" y2="158.13" xlink:href="#linear-gradient-8"/><linearGradient id="linear-gradient-34" x1="149.17" y1="131.36" x2="195.05" y2="156.16" xlink:href="#linear-gradient-8"/><linearGradient id="linear-gradient-35" x1="148.07" y1="133.41" x2="193.94" y2="158.2" xlink:href="#linear-gradient-8"/><linearGradient id="linear-gradient-36" x1="146.96" y1="135.47" x2="192.83" y2="160.26" xlink:href="#linear-gradient-8"/><linearGradient id="linear-gradient-37" x1="146.99" y1="135.39" x2="192.87" y2="160.19" xlink:href="#linear-gradient-8"/><linearGradient id="linear-gradient-38" x1="147.07" y1="135.26" x2="192.94" y2="160.05" xlink:href="#linear-gradient-8"/><linearGradient id="linear-gradient-39" x1="147.11" y1="135.19" x2="192.98" y2="159.98" xlink:href="#linear-gradient-8"/><linearGradient id="linear-gradient-40" x1="149.52" y1="130.72" x2="195.4" y2="155.51" xlink:href="#linear-gradient-8"/><linearGradient id="linear-gradient-41" x1="148.55" y1="132.52" x2="194.42" y2="157.31" xlink:href="#linear-gradient-8"/><linearGradient id="linear-gradient-42" x1="149.72" y1="130.35" x2="195.59" y2="155.15" xlink:href="#linear-gradient-8"/><linearGradient id="linear-gradient-43" x1="150.85" y1="128.26" x2="196.72" y2="153.05" xlink:href="#linear-gradient-8"/><linearGradient id="linear-gradient-44" x1="147.51" y1="134.44" x2="193.38" y2="159.23" xlink:href="#linear-gradient-8"/><linearGradient id="linear-gradient-45" x1="152.84" y1="124.56" x2="198.73" y2="149.36" xlink:href="#linear-gradient-8"/><linearGradient id="linear-gradient-46" x1="151.94" y1="126.24" x2="197.82" y2="151.03" xlink:href="#linear-gradient-8"/><linearGradient id="linear-gradient-47" x1="150.8" y1="128.34" x2="196.69" y2="153.14" xlink:href="#linear-gradient-8"/><linearGradient id="linear-gradient-48" x1="152.81" y1="124.63" x2="198.69" y2="149.43" xlink:href="#linear-gradient-8"/><linearGradient id="linear-gradient-49" x1="152.77" y1="124.7" x2="198.65" y2="149.49" xlink:href="#linear-gradient-8"/><linearGradient id="linear-gradient-50" x1="152.74" y1="124.77" x2="198.61" y2="149.56" xlink:href="#linear-gradient-8"/><linearGradient id="linear-gradient-51" x1="152.7" y1="124.84" x2="198.58" y2="149.63" xlink:href="#linear-gradient-8"/><linearGradient id="linear-gradient-52" x1="151.79" y1="126.51" x2="197.67" y2="151.3" xlink:href="#linear-gradient-8"/><linearGradient id="linear-gradient-53" x1="151.83" y1="126.44" x2="197.71" y2="151.24" xlink:href="#linear-gradient-8"/><linearGradient id="linear-gradient-54" x1="151.87" y1="126.37" x2="197.74" y2="151.17" xlink:href="#linear-gradient-8"/><linearGradient id="linear-gradient-55" x1="151.9" y1="126.31" x2="197.78" y2="151.1" xlink:href="#linear-gradient-8"/><linearGradient id="linear-gradient-56" x1="150.77" y1="128.41" x2="196.65" y2="153.2" xlink:href="#linear-gradient-8"/><linearGradient id="linear-gradient-57" x1="149.67" y1="130.44" x2="195.55" y2="155.24" xlink:href="#linear-gradient-8"/><linearGradient id="linear-gradient-58" x1="148.6" y1="132.41" x2="194.48" y2="157.2" xlink:href="#linear-gradient-8"/><linearGradient id="linear-gradient-59" x1="149.63" y1="130.51" x2="195.51" y2="155.31" xlink:href="#linear-gradient-8"/><linearGradient id="linear-gradient-60" x1="150.51" y1="128.89" x2="196.39" y2="153.68" xlink:href="#linear-gradient-8"/><linearGradient id="linear-gradient-61" x1="152.66" y1="124.91" x2="198.54" y2="149.7" xlink:href="#linear-gradient-8"/><linearGradient id="linear-gradient-62" x1="152.62" y1="124.97" x2="198.5" y2="149.77" xlink:href="#linear-gradient-8"/><linearGradient id="linear-gradient-63" x1="151.72" y1="126.65" x2="197.6" y2="151.44" xlink:href="#linear-gradient-8"/><linearGradient id="linear-gradient-64" x1="150.58" y1="128.75" x2="196.46" y2="153.55" xlink:href="#linear-gradient-8"/><linearGradient id="linear-gradient-65" x1="152.59" y1="125.04" x2="198.46" y2="149.83" xlink:href="#linear-gradient-8"/><linearGradient id="linear-gradient-66" x1="151.68" y1="126.71" x2="197.56" y2="151.51" xlink:href="#linear-gradient-8"/><linearGradient id="linear-gradient-67" x1="150.55" y1="128.82" x2="196.42" y2="153.61" xlink:href="#linear-gradient-8"/><linearGradient id="linear-gradient-68" x1="150.73" y1="128.48" x2="196.61" y2="153.27" xlink:href="#linear-gradient-8"/><linearGradient id="linear-gradient-69" x1="150.69" y1="128.55" x2="196.57" y2="153.34" xlink:href="#linear-gradient-8"/><linearGradient id="linear-gradient-70" x1="149.59" y1="130.58" x2="195.47" y2="155.38" xlink:href="#linear-gradient-8"/><linearGradient id="linear-gradient-71" x1="151.75" y1="126.58" x2="197.64" y2="151.38" xlink:href="#linear-gradient-8"/><linearGradient id="linear-gradient-72" x1="148.51" y1="132.59" x2="194.39" y2="157.38" xlink:href="#linear-gradient-8"/><linearGradient id="linear-gradient-73" x1="150.65" y1="128.61" x2="196.54" y2="153.41" xlink:href="#linear-gradient-8"/><linearGradient id="linear-gradient-74" x1="149.56" y1="130.65" x2="195.43" y2="155.44" xlink:href="#linear-gradient-8"/><linearGradient id="linear-gradient-75" x1="148.47" y1="132.65" x2="194.35" y2="157.45" xlink:href="#linear-gradient-8"/><linearGradient id="linear-gradient-76" x1="147.39" y1="134.66" x2="193.27" y2="159.45" xlink:href="#linear-gradient-8"/><linearGradient id="linear-gradient-77" x1="150.61" y1="128.68" x2="196.5" y2="153.48" xlink:href="#linear-gradient-8"/><linearGradient id="linear-gradient-78" x1="148.43" y1="132.72" x2="194.32" y2="157.52" xlink:href="#linear-gradient-8"/><linearGradient id="linear-gradient-79" x1="147.35" y1="134.72" x2="193.23" y2="159.52" xlink:href="#linear-gradient-8"/><linearGradient id="linear-gradient-80" x1="149.48" y1="130.79" x2="195.36" y2="155.58" xlink:href="#linear-gradient-8"/><linearGradient id="linear-gradient-81" x1="148.4" y1="132.79" x2="194.28" y2="157.59" xlink:href="#linear-gradient-8"/><linearGradient id="linear-gradient-82" x1="149.44" y1="130.86" x2="195.32" y2="155.65" xlink:href="#linear-gradient-8"/><linearGradient id="linear-gradient-83" x1="148.36" y1="132.86" x2="194.23" y2="157.65" xlink:href="#linear-gradient-8"/><linearGradient id="linear-gradient-84" x1="149.41" y1="130.92" x2="195.29" y2="155.72" xlink:href="#linear-gradient-8"/><linearGradient id="linear-gradient-85" x1="148.32" y1="132.93" x2="194.2" y2="157.72" xlink:href="#linear-gradient-8"/><linearGradient id="linear-gradient-86" x1="148.29" y1="132.99" x2="194.17" y2="157.79" xlink:href="#linear-gradient-8"/><linearGradient id="linear-gradient-87" x1="147.23" y1="134.96" x2="193.11" y2="159.75" xlink:href="#linear-gradient-8"/><linearGradient id="linear-gradient-88" x1="147.46" y1="134.52" x2="193.34" y2="159.31" xlink:href="#linear-gradient-8"/><linearGradient id="linear-gradient-89" x1="147.43" y1="134.59" x2="193.31" y2="159.38" xlink:href="#linear-gradient-8"/><linearGradient id="linear-gradient-90" x1="152.88" y1="124.49" x2="198.76" y2="149.28" xlink:href="#linear-gradient-8"/><linearGradient id="linear-gradient-91" x1="151.98" y1="126.16" x2="197.87" y2="150.96" xlink:href="#linear-gradient-8"/><linearGradient id="linear-gradient-92" x1="151.65" y1="126.78" x2="197.52" y2="151.57" xlink:href="#linear-gradient-8"/><linearGradient id="linear-gradient-93" x1="145.15" y1="132.26" x2="170.14" y2="157.51" xlink:href="#linear-gradient-7"/><linearGradient id="linear-gradient-94" x1="-2179.41" y1="135.86" x2="-2180.05" y2="137.93" gradientTransform="matrix(-1, 0, 0, 1, -2087.38, 0)" gradientUnits="userSpaceOnUse"><stop offset="0" stop-color="#fdddc8"/><stop offset="1" stop-color="#f8b4a8"/></linearGradient><linearGradient id="linear-gradient-95" x1="-2181.55" y1="136.73" x2="-2182.55" y2="140.41" xlink:href="#linear-gradient-94"/><linearGradient id="linear-gradient-96" x1="-2183.13" y1="137.54" x2="-2184.74" y2="142.01" xlink:href="#linear-gradient-94"/><linearGradient id="linear-gradient-97" x1="-2144.66" y1="151.11" x2="-2132.98" y2="149.47" gradientTransform="matrix(-1, 0, 0, 1, -2087.38, 0)" gradientUnits="userSpaceOnUse"><stop offset="0" stop-color="#fbd1be"/><stop offset="1" stop-color="#f8b4a8"/></linearGradient><linearGradient id="linear-gradient-98" x1="-2181.64" y1="144.65" x2="-2176.87" y2="143.98" xlink:href="#linear-gradient-97"/><linearGradient id="linear-gradient-99" x1="-2147.57" y1="136.29" x2="-2127.05" y2="123.18" xlink:href="#linear-gradient-97"/><linearGradient id="linear-gradient-100" x1="-2199.87" y1="153.5" x2="-2195.7" y2="152.91" xlink:href="#linear-gradient-97"/><linearGradient id="linear-gradient-101" x1="-2208.29" y1="169.51" x2="-2208.08" y2="169.51" gradientTransform="matrix(-1, 0, 0, 1, -2065.62, 0)" gradientUnits="userSpaceOnUse"><stop offset="0" stop-color="#475269"/><stop offset="1" stop-color="#363e4f"/></linearGradient><linearGradient id="linear-gradient-102" x1="-2219.39" y1="165.81" x2="-2207.98" y2="169.31" gradientTransform="matrix(-1, 0, 0, 1, -2065.62, 0)" gradientUnits="userSpaceOnUse"><stop offset="0" stop-color="#5b6a87"/><stop offset="1" stop-color="#2c3340"/></linearGradient><linearGradient id="linear-gradient-103" x1="-2195.69" y1="162.32" x2="-2195.48" y2="162.32" xlink:href="#linear-gradient-101"/><linearGradient id="linear-gradient-104" x1="-2206.79" y1="158.63" x2="-2195.38" y2="162.12" xlink:href="#linear-gradient-102"/><linearGradient id="linear-gradient-105" x1="-2200.41" y1="165.55" x2="-2196.24" y2="165.55" xlink:href="#linear-gradient-102"/><linearGradient id="linear-gradient-106" x1="-2206.85" y1="169.32" x2="-2202.52" y2="169.32" xlink:href="#linear-gradient-102"/><linearGradient id="linear-gradient-107" x1="-2196.84" y1="162.13" x2="-2208.61" y2="169.83" xlink:href="#linear-gradient-102"/><linearGradient id="linear-gradient-108" x1="-2198.96" y1="163.21" x2="-2205.75" y2="172.63" xlink:href="#linear-gradient-101"/><linearGradient id="linear-gradient-109" x1="161.68" y1="173.89" x2="149.92" y2="174.91" xlink:href="#linear-gradient"/><linearGradient id="linear-gradient-110" x1="160.87" y1="164.53" x2="149.11" y2="165.55" xlink:href="#linear-gradient"/><linearGradient id="linear-gradient-111" x1="148.76" y1="159.87" x2="163.52" y2="159.87" gradientTransform="matrix(1, 0, 0, 1, 0, 0)" xlink:href="#linear-gradient-101"/><linearGradient id="linear-gradient-112" x1="157.4" y1="157.37" x2="152.49" y2="161.62" gradientTransform="matrix(1, 0, 0, 1, 0, 0)" xlink:href="#linear-gradient-101"/><linearGradient id="linear-gradient-113" x1="159.65" y1="157.25" x2="155.97" y2="158.52" gradientTransform="matrix(1, 0, 0, 1, 0, 0)" xlink:href="#linear-gradient-101"/><linearGradient id="linear-gradient-114" x1="161.12" y1="157.53" x2="153.87" y2="160.77" gradientTransform="matrix(1, 0, 0, 1, 0, 0)" xlink:href="#linear-gradient-101"/><linearGradient id="linear-gradient-115" x1="148.76" y1="163.32" x2="163.52" y2="163.32" gradientTransform="matrix(1, 0, 0, 1, 0, 0)" xlink:href="#linear-gradient-101"/><linearGradient id="linear-gradient-116" x1="203.88" y1="294.49" x2="229.78" y2="250.47" xlink:href="#linear-gradient"/><linearGradient id="linear-gradient-117" x1="227.53" y1="305.25" x2="257.96" y2="235.76" xlink:href="#linear-gradient"/><linearGradient id="linear-gradient-118" x1="-5177.77" y1="149.95" x2="-5166.12" y2="103.75" xlink:href="#linear-gradient-3"/><clipPath id="clip-path-4"><path class="cls-1" d="M229.54,253.75c2.34-4.76,6.32-4.05,7.93-9.18,1.36-5.18-2.35-5.58-1.35-10.63.76-5.06,4.13-5,4.12-10.23-.26-5.24-3.27-5.11-3.82-10.15-.78-5,1.83-5.37.25-10.38-1.81-4.94-4-4.46-6-9.15-2.26-4.6-.54-5.18-3.61-9.58-3.3-4.28-6.25-5.39-9.73-9.36-2.12,4.84-4.59,6.8-6.43,11.87-1.59,5.13.23,5.16-.53,10.23-.52,5.09-2.74,5.29-3,10.55,0,5.25,2.61,4.8,3.39,9.81,1,5-1.9,5.76-.55,10.83,1.58,5,4.76,3.9,7,8.5,2.49,4.51-.92,6,1.95,10.53C222.28,251.81,225.85,249.93,229.54,253.75Z"/></clipPath><linearGradient id="linear-gradient-119" x1="-9401.39" y1="2187.23" x2="-9391.15" y2="2146.64" gradientTransform="matrix(-0.9, 0.44, 0.44, 0.9, -9187.18, 2431.39)" xlink:href="#linear-gradient-3"/><clipPath id="clip-path-5"><path class="cls-1" d="M227.76,255.63c-1-4.56,2.13-6.25.43-10.66-1.91-4.3-4.67-2.54-6.74-6.56-2.26-3.9.11-5.68-2.78-9.29-3-3.46-5-1.72-8.18-4.89-3.28-3-1.68-4.68-5.51-7.27-3.94-2.4-5.18-.88-9.15-3-4.07-1.93-3.2-3.27-7.73-4.62-4.6-1.13-7.24-.28-11.81-1.1,1.2,4.48.57,7.18,2.08,11.68,1.71,4.39,3,3.42,5.24,7.32,2.42,3.78,1,5.14,3.73,8.87,2.89,3.6,4.42,1.87,7.7,4.89,3.42,2.86,1.85,5,5.55,7.75,3.83,2.58,5.42.07,9.49,2,4.17,1.74,2.65,4.64,7.1,6.17C221.71,258.27,223.14,255,227.76,255.63Z"/></clipPath><linearGradient id="linear-gradient-120" x1="433.34" y1="3542.72" x2="443.59" y2="3502.12" gradientTransform="matrix(-0.5, -0.86, -0.86, 0.5, 3519.16, -1167.99)" xlink:href="#linear-gradient-3"/><clipPath id="clip-path-6"><path class="cls-1" d="M231.16,253.6c4.48-1.31,6.39,1.69,10.67-.32,4.15-2.2,2.21-4.83,6.07-7.18,3.73-2.53,5.68-.29,9.07-3.42,3.24-3.29,1.36-5.15,4.3-8.51,2.78-3.48,4.56-2,6.87-6,2.12-4.11.51-5.24,2.33-9.34,1.64-4.2,3-3.43,4.06-8,.81-4.67-.22-7.24.28-11.86-4.39,1.51-7.13,1.08-11.51,2.9-4.26,2-3.2,3.22-6.93,5.74-3.6,2.68-5.06,1.37-8.59,4.35-3.39,3.13-1.56,4.54-4.34,8-2.61,3.61-4.85,2.19-7.33,6.08-2.31,4,.3,5.4-1.33,9.6-1.44,4.29-4.44,3-5.66,7.51C228.11,247.75,231.45,249,231.16,253.6Z"/></clipPath><linearGradient id="linear-gradient-121" x1="141.18" y1="17.1" x2="144.54" y2="36.43" gradientUnits="userSpaceOnUse"><stop offset="0" stop-color="#96df78"/><stop offset="1" stop-color="#76cb74"/></linearGradient><linearGradient id="linear-gradient-122" x1="765.1" y1="178.41" x2="768.45" y2="197.74" gradientTransform="translate(-760.55)" gradientUnits="userSpaceOnUse"><stop offset="0" stop-color="#ffa408"/><stop offset="1" stop-color="#ffdb0d"/></linearGradient><linearGradient id="linear-gradient-123" x1="-3003.2" y1="200.22" x2="-3009.01" y2="189.72" gradientTransform="matrix(-1, 0, 0, 1, -2760.45, 0)" gradientUnits="userSpaceOnUse"><stop offset="0" stop-color="#0080ff"/><stop offset="1" stop-color="#14dcff"/></linearGradient></defs><title>صور وايقونات</title><g class="cls-2"><g id="Layer_1" data-name="Layer 1"><path class="cls-3" d="M165.17,54.45a3.5,3.5,0,0,1,1.51,3.27l-8.1,59.46c-.16,1.22-1.11,1.75-2.1,1.17L65.36,65.74a3.48,3.48,0,0,1-1.51-3.25L72,3c.16-1.22,1.11-1.75,2.11-1.18L77.75,4l1-3a1.55,1.55,0,0,1,2.4-.72l26.44,15.27a4.13,4.13,0,0,1,1.87,3.18l.1,3.6Z"/><path class="cls-4" d="M131.11,75.68a12.15,12.15,0,0,0,5.34,7.77c2.52,1.42,5,1,6.61-.86l3.4,4.71c-2.62,3.1-6.7,3.89-10.87,1.54S128.08,81.4,126.86,76Z"/><path class="cls-5" d="M140.36,61c4.79,2.87,8.22,9.07,8.84,15.32l-4.39-.73c-.42-3.74-2.46-7.43-5.31-9.2Z"/><path class="cls-6" d="M149.27,77.1a18.63,18.63,0,0,1-.18,4,12.85,12.85,0,0,1-2.23,5.66l-3.4-4.71a7.87,7.87,0,0,0,1.3-3.38,11.22,11.22,0,0,0,.12-2.32Z"/><path class="cls-7" d="M139.74,60.6l-.86,5.4c-3.72-1.88-7.26.25-8,4.89a12.48,12.48,0,0,0,.05,4l-4.24.29a19.7,19.7,0,0,1-.14-6.67C127.76,60.84,133.63,57.39,139.74,60.6Z"/><polygon class="cls-5" points="118.59 49.88 118.75 50 118.71 50.19 111.07 53.21 108.27 53.4 108.01 53.42 103.73 53.7 97.2 47.69 90.77 50.79 90.58 50.88 89.53 51.39 87.61 51.08 87.27 51.02 82.38 50.2 82.28 50.13 76.22 40.66 76.22 40.44 76.38 40.49 82.4 49.9 87.5 50.76 87.84 50.81 89.43 51.08 90.48 50.57 90.67 50.48 97.13 47.36 97.24 47.39 103.7 53.38 107.8 53.12 108.06 53.1 110.96 52.91 118.59 49.88"/><polygon class="cls-7" points="102.49 63.24 108.27 68.14 108.61 68.75 102.46 63.53 95.08 64.87 94.92 64.74 93.02 58.66 93.23 58.61 95.09 64.55 102.41 63.22 102.49 63.24"/><polygon class="cls-6" points="104.47 47.9 108.06 53.1 107.8 53.12 104.35 48.13 97.36 46.57 90.06 47.02 89.93 46.92 84.17 35.52 77.08 34.74 76.94 34.57 77.04 34.43 84.19 35.22 84.3 35.31 90.06 46.7 97.3 46.25 104.38 47.82 104.47 47.9"/><polygon class="cls-7" points="84.52 54.27 87.27 51.02 87.61 51.08 84.71 54.52 84.52 54.27"/><polygon class="cls-7" points="89.95 48.18 90.67 50.48 90.48 50.57 89.82 48.47 87.84 50.81 87.5 50.76 89.76 48.07 89.86 48.05 89.95 48.18"/><polygon class="cls-7" points="90.77 50.79 93.13 58.31 92.92 58.35 90.58 50.88 90.77 50.79"/><polygon class="cls-7" points="81.31 58.07 84.37 54.45 84.56 54.7 81.42 58.42 81.25 58.38 75.07 49.81 75.06 49.6 75.22 49.62 81.31 58.07"/><polygon class="cls-6" points="118.24 52.7 118.39 52.79 118.37 53 110.59 57.03 110.46 56.97 108.01 53.42 108.27 53.4 110.54 56.7 118.24 52.7"/><polygon class="cls-4" points="103.05 58.35 103.15 58.43 108.75 68.55 109.03 69.06 109.13 69.1 115.92 71.61 116.04 71.81 115.92 71.91 108.98 69.35 108.9 69.27 108.61 68.75 108.27 68.14 103.03 58.66 95.92 58.07 93.23 58.61 93.02 58.66 88.48 59.57 88.37 59.52 84.56 54.7 84.37 54.45 82.12 51.6 75.63 45.69 75.57 45.47 75.72 45.45 82.22 51.37 84.52 54.27 84.71 54.52 88.45 59.26 92.92 58.35 93.13 58.31 95.84 57.76 103.05 58.35"/><polygon class="cls-7" points="116.16 69.56 116.29 69.72 116.2 69.86 109.13 69.1 109.03 69.06 108.75 68.55 109.03 68.78 116.16 69.56"/><polygon class="cls-4" points="77.68 24.16 73.39 58.19 114.7 81.42 114.67 81.71 73.12 58.35 77.44 24.03 77.68 24.16"/><path class="cls-4" d="M106.08,19.23a.3.3,0,0,0,.29,0l.33-.18.23.5a.68.68,0,0,0,.26.31.3.3,0,0,0,.3,0,.54.54,0,0,0,.1-.69l-.24-.51.33-.17a.56.56,0,0,0,.1-.69.76.76,0,0,0-.27-.31.3.3,0,0,0-.3,0l-.32.19-.24-.51a.63.63,0,0,0-.25-.3.31.31,0,0,0-.31,0c-.17.1-.21.41-.09.69l.24.5-.33.18c-.18.1-.22.41-.1.69A.69.69,0,0,0,106.08,19.23Z"/><path class="cls-4" d="M151.59,51.6,76.94,8.5c-1-.58-1.94-.05-2.11,1.17l-.44,3.24a3.5,3.5,0,0,0,1.5,3.27l74.65,43.1c1,.57,2,0,2.11-1.18l.44-3.24A3.46,3.46,0,0,0,151.59,51.6Z"/><path class="cls-4" d="M162.22,58.86l-5.18-3c-.26-.16-.51,0-.55.31a.91.91,0,0,0,.39.86l5.18,3c.26.16.51,0,.55-.31A.91.91,0,0,0,162.22,58.86Z"/><path class="cls-4" d="M161.62,63.27l-5.18-3a.36.36,0,0,0-.55.32.91.91,0,0,0,.39.86l5.18,3c.26.16.51,0,.55-.31A.91.91,0,0,0,161.62,63.27Z"/><path class="cls-4" d="M161.91,61.07l-5.17-3c-.26-.15-.51,0-.55.31a.9.9,0,0,0,.39.86l5.18,3c.26.15.51,0,.55-.31A.9.9,0,0,0,161.91,61.07Z"/><path class="cls-8" d="M109.56,22.34l-.1-3.6a4.13,4.13,0,0,0-1.87-3.18L81.15.29a1.55,1.55,0,0,0-2.4.72l-1,3L74.06,1.84c-1-.57-2,0-2.11,1.18l-8.1,59.47a3.48,3.48,0,0,0,1.51,3.25L90.22,80.1l55.27-37Z"/><path class="cls-3" d="M266.7,112.48a3.5,3.5,0,0,1,1.5,3.27l-8.09,59.46c-.17,1.23-1.11,1.75-2.11,1.18l-91.12-52.61a3.47,3.47,0,0,1-1.5-3.26l8.09-59.46c.17-1.23,1.11-1.76,2.11-1.19l3.7,2.14,1-3a1.56,1.56,0,0,1,2.4-.72l26.45,15.27A4.18,4.18,0,0,1,211,76.78l.1,3.6Z"/><path class="cls-4" d="M185.08,85.62a11.66,11.66,0,0,1,4.58,5.77l-1.36.5a9.1,9.1,0,0,0-3.48-4.38Z"/><path class="cls-7" d="M184.88,85.5l-.26,1.9c-2.78-1.54-5.38-.05-5.85,3.37S180.2,98.35,183,100s5.47.13,5.94-3.33a9.6,9.6,0,0,0-.56-4.5l1.36-.5a12.26,12.26,0,0,1,.74,5.89c-.61,4.51-4.08,6.44-7.74,4.33s-6.15-7.49-5.53-12S181.25,83.48,184.88,85.5Z"/><path class="cls-9" d="M181.83,107.91l-.26,1.9c-2.78-1.53-5.38,0-5.85,3.37s1.43,7.58,4.24,9.21a4,4,0,0,0,3.39.45l.79,2a5.19,5.19,0,0,1-4.43-.59c-3.67-2.12-6.15-7.49-5.53-12S178.2,105.89,181.83,107.91Z"/><path class="cls-4" d="M182,108c3.61,2.15,6,7.46,5.42,11.92-.33,2.48-1.53,4.17-3.14,4.85l-.79-2a4.43,4.43,0,0,0,2.39-3.71,9.88,9.88,0,0,0-4.14-9.14Z"/><path class="cls-4" d="M198.42,117.49a12.49,12.49,0,0,1,5.24,7.93h-1.51a9.54,9.54,0,0,0-4-6Z"/><path class="cls-6" d="M198.22,117.38l-.26,1.89c-2.77-1.53-5.38,0-5.84,3.38s1.42,7.57,4.24,9.2,5.47.14,5.95-3.32a9.07,9.07,0,0,0-.1-2.84h1.5a11.75,11.75,0,0,1,.14,3.73c-.61,4.5-4.08,6.44-7.75,4.32s-6.14-7.48-5.53-12S194.59,115.35,198.22,117.38Z"/><path class="cls-5" d="M201.27,95l-.26,1.9c-2.77-1.54-5.38-.05-5.84,3.37s1.42,7.57,4.24,9.2c2,1.17,4,.73,5.08-.9l1.29,1.6c-1.44,2.13-4,2.72-6.63,1.19-3.67-2.12-6.14-7.48-5.53-12S197.65,92.94,201.27,95Z"/><path class="cls-4" d="M201.47,95.08c3.61,2.16,6,7.47,5.43,11.93a7.34,7.34,0,0,1-1,2.95l-1.29-1.6a5.81,5.81,0,0,0,.76-2.24A9.86,9.86,0,0,0,201.21,97Z"/><polygon class="cls-7" points="253.71 124.35 253.53 125.55 260.3 129.45 260.47 128.26 253.71 124.35"/><polygon class="cls-7" points="251.81 137.28 251.64 138.48 258.4 142.38 258.58 141.19 251.81 137.28"/><polygon class="cls-7" points="241.21 144.74 241.03 145.94 247.8 149.84 247.97 148.65 241.21 144.74"/><polygon class="cls-10" points="223.83 107.1 223.65 108.3 230.41 112.2 230.59 111.01 223.83 107.1"/><polygon class="cls-11" points="218.36 103.95 218.19 105.14 222.22 107.47 222.39 106.27 218.36 103.95"/><polygon class="cls-12" points="227.73 118.71 227.55 119.9 250.26 133.01 250.44 131.82 227.73 118.71"/><polygon class="cls-10" points="231.48 116.2 231.31 117.4 238.07 121.3 238.25 120.11 231.48 116.2"/><polygon class="cls-12" points="239.66 120.92 239.49 122.12 250.89 128.7 251.07 127.51 239.66 120.92"/><polygon class="cls-12" points="232 111.82 231.83 113.02 251.53 124.39 251.7 123.19 232 111.82"/><polygon class="cls-10" points="219.55 113.99 219.38 115.18 226.14 119.08 226.32 117.89 219.55 113.99"/><polygon class="cls-11" points="226.02 113.05 225.84 114.24 229.88 116.57 230.05 115.37 226.02 113.05"/><polygon class="cls-11" points="214.09 110.83 213.91 112.03 217.94 114.35 218.12 113.16 214.09 110.83"/><polygon class="cls-10" points="220.67 128.66 220.49 129.85 227.26 133.75 227.43 132.56 220.67 128.66"/><polygon class="cls-10" points="226.34 127.26 226.17 128.46 232.93 132.36 233.11 131.17 226.34 127.26"/><polygon class="cls-10" points="231.78 125.72 231.6 126.91 238.37 130.82 238.55 129.63 231.78 125.72"/><polygon class="cls-11" points="226.31 122.56 226.14 123.76 230.17 126.09 230.35 124.89 226.31 122.56"/><polygon class="cls-12" points="239.96 130.44 239.78 131.64 249.63 137.32 249.81 136.13 239.96 130.44"/><polygon class="cls-11" points="220.88 124.11 220.71 125.3 224.74 127.63 224.91 126.43 220.88 124.11"/><polygon class="cls-12" points="234.52 131.98 234.35 133.18 249 141.63 249.17 140.44 234.52 131.98"/><polygon class="cls-12" points="228.84 133.38 228.67 134.57 248.37 145.94 248.54 144.75 228.84 133.38"/><polygon class="cls-10" points="232.14 139.51 231.96 140.7 238.73 144.6 238.9 143.41 232.14 139.51"/><polygon class="cls-11" points="215.2 125.5 215.03 126.7 219.06 129.02 219.23 127.83 215.2 125.5"/><polygon class="cls-12" points="243.43 152.1 243.26 153.29 246.97 155.44 247.15 154.24 243.43 152.1"/><polygon class="cls-12" points="242.82 156.27 242.65 157.46 246.37 159.61 246.54 158.42 242.82 156.27"/><path class="cls-4" d="M207.6,77.26a.3.3,0,0,0,.3,0l.32-.18.23.5a.69.69,0,0,0,.27.31.29.29,0,0,0,.3,0,.53.53,0,0,0,.09-.68l-.23-.51.33-.18a.56.56,0,0,0,.09-.68.68.68,0,0,0-.26-.31.31.31,0,0,0-.31,0l-.32.18-.23-.5a.74.74,0,0,0-.26-.31.27.27,0,0,0-.3,0c-.18.09-.22.4-.1.68l.24.5-.33.19a.53.53,0,0,0-.09.68A.63.63,0,0,0,207.6,77.26Z"/><path class="cls-4" d="M253.11,109.63l-74.65-43.1c-1-.57-1.94,0-2.11,1.18L175.91,71a3.49,3.49,0,0,0,1.51,3.26l74.65,43.1c1,.58,1.94,0,2.11-1.18l.44-3.24A3.5,3.5,0,0,0,253.11,109.63Z"/><path class="cls-4" d="M263.74,116.9l-5.17-3a.36.36,0,0,0-.56.31.91.91,0,0,0,.4.86l5.17,3c.26.15.51,0,.56-.31A.94.94,0,0,0,263.74,116.9Z"/><path class="cls-4" d="M263.14,121.31l-5.17-3a.36.36,0,0,0-.56.31.91.91,0,0,0,.4.86l5.17,3c.26.15.51,0,.56-.31A.94.94,0,0,0,263.14,121.31Z"/><path class="cls-4" d="M263.44,119.1l-5.17-3a.36.36,0,0,0-.56.31.92.92,0,0,0,.4.87l5.17,3c.26.16.51,0,.56-.31A.94.94,0,0,0,263.44,119.1Z"/><path class="cls-8" d="M211.09,80.38l-.1-3.6a4.18,4.18,0,0,0-1.87-3.19L182.67,58.32a1.56,1.56,0,0,0-2.4.72l-1,3-3.7-2.14c-1-.57-1.94,0-2.11,1.19l-8.09,59.46a3.47,3.47,0,0,0,1.5,3.26l24.86,14.35,55.27-37Z"/><polygon class="cls-13" points="75.47 153.48 56.05 164.76 62.09 204.3 75.49 196.52 88.98 204.3 95.02 164.76 75.47 153.48"/><polygon class="cls-14" points="75.63 181.55 75.6 215.88 55.54 204.3 46.56 164.76 75.63 181.55"/><polygon class="cls-15" points="104.51 164.76 95.53 204.3 75.6 215.88 75.63 181.55 104.51 164.76"/><polygon class="cls-16" points="54.49 199.69 55.54 204.3 75.6 215.88 75.61 215.88 75.61 211.88 54.49 199.69"/><polygon class="cls-17" points="96.57 199.7 75.61 211.88 75.61 215.88 95.53 204.3 96.57 199.7"/><polygon class="cls-18" points="75.63 182.3 104.31 165.63 104.51 164.76 75.63 181.55 46.56 164.76 46.76 165.63 75.63 182.3"/><path class="cls-19" d="M75.44,148l29.07,16.78L75.63,181.55,46.56,164.76Zm.16,28.07L95,164.76,75.47,153.48,56.05,164.76,75.6,176.05"/><path class="cls-20" d="M64.22,175a8.48,8.48,0,0,0,.86,0,7.22,7.22,0,0,0,4.58-2.32l-13.61-7.86L67.69,158c-1.91-.46-3.54.22-5.95-1.77l-.21-.17-15,8.7Z"/><path class="cls-21" d="M56.88,111.15c.76-5.07-1.06-5.11.53-10.23,1.84-5.07,4.31-7,6.43-11.88,3.48,4,6.43,5.09,9.73,9.37,3.07,4.4,1.35,5,3.61,9.58,2,4.69,4.22,4.21,6,9.15,1.58,5-1,5.36-.25,10.38.55,5,3.56,4.91,3.82,10.15,0,5.26-3.36,5.16-4.12,10.23-1,5,2.71,5.45,1.35,10.62-1.61,5.14-5.59,4.43-7.93,9.19-3.69-3.82-7.26-1.94-10.35-6.34-2.87-4.52.54-6-2-10.53-2.26-4.6-5.44-3.49-7-8.5-1.35-5.07,1.56-5.86.55-10.84-.78-5-3.37-4.55-3.39-9.8C54.14,116.44,56.36,116.24,56.88,111.15Z"/><path class="cls-22" d="M86.78,137.67c-.2-4-2-4.89-3.1-7.36a9.75,9.75,0,0,1-.72,1.8c-1.84,4.07-4.31,3.13-6,7.44-1.45,4.38,1.39,5.23.64,9.67-.55,4.49-3.75,3.8-4,8.5-.06,4.06,2.54,5,3.68,8.14,2.33-2.82,5.37-3,6.73-7.34,1.36-5.17-2.35-5.57-1.35-10.62C83.42,142.83,86.79,142.93,86.78,137.67Z"/><path class="cls-22" d="M56.34,113.87c1.89,2.48,1.08,3.45,3.3,6.7,2.35,3.82,4.19,3.14,6.37,7.21,2,4.17-.24,4.8,1.06,9.06,1.09,4.32,3.7,3.84,4.57,8.37.66,4.57-2.29,4.9-2.32,9.4-.25,4.52,3,4.41,2.48,9.08a7.34,7.34,0,0,1-.34,1.31c-2-.65-4-1.1-5.73-3.63-2.87-4.52.54-6-2-10.53-2.26-4.6-5.44-3.49-7-8.5-1.35-5.07,1.56-5.86.55-10.84-.78-5-3.37-4.55-3.39-9.8C54.09,117.59,55.49,116.56,56.34,113.87Z"/><g class="cls-23"><g class="cls-24"><line class="cls-25" x1="63.44" y1="86.46" x2="76.53" y2="170.65"/><polyline class="cls-25" points="53.17 150.73 75.32 162.84 92.74 144.57"/><polyline class="cls-25" points="51.15 137.7 73.29 149.81 90.71 131.54"/><polyline class="cls-25" points="49.12 124.67 71.26 136.78 88.69 118.52"/><polyline class="cls-25" points="47.09 111.65 69.24 123.75 86.66 105.49"/><polyline class="cls-25" points="45.06 98.62 67.21 110.72 84.63 92.46"/><polyline class="cls-25" points="43.04 85.59 65.18 97.7 82.61 79.43"/></g></g><path class="cls-26" d="M30.15,141.22c-2.26-3.9-3.53-2.93-5.24-7.33-1.51-4.49-.88-7.19-2.08-11.68,4.57.82,7.21,0,11.81,1.11,4.53,1.34,3.66,2.69,7.73,4.62,4,2.1,5.21.58,9.15,3,3.83,2.58,2.23,4.25,5.51,7.27,3.14,3.17,5.13,1.43,8.18,4.89,2.89,3.6.52,5.39,2.78,9.29,2.07,4,4.83,2.26,6.74,6.56,1.7,4.41-1.42,6.1-.43,10.66-4.62-.61-6,2.63-10.58,1.3-4.45-1.53-2.93-4.43-7.1-6.17-4.07-1.92-5.66.59-9.49-2C43.43,160,45,157.84,41.58,155c-3.28-3-4.81-1.29-7.7-4.89C31.16,146.35,32.57,145,30.15,141.22Z"/><g class="cls-27"><g class="cls-24"><line class="cls-25" x1="21.14" y1="120.66" x2="76.23" y2="171.36"/><polyline class="cls-25" points="49.26 170.46 71.11 166.65 73.09 144.56"/><polyline class="cls-25" points="40.74 162.61 62.59 158.81 64.57 136.72"/><polyline class="cls-25" points="32.21 154.76 54.06 150.96 56.04 128.87"/><polyline class="cls-25" points="23.69 146.92 45.54 143.12 47.52 121.03"/><polyline class="cls-25" points="15.17 139.07 37.02 135.27 38.99 113.18"/><polyline class="cls-25" points="6.64 131.22 28.49 127.42 30.47 105.33"/></g></g><path class="cls-28" d="M102.91,121.53c3.73-2.53,2.67-3.73,6.93-5.74,4.38-1.83,7.12-1.39,11.51-2.9-.5,4.61.53,7.19-.28,11.86-1,4.61-2.42,3.84-4.06,8-1.82,4.1-.21,5.23-2.33,9.33-2.31,4-4.09,2.53-6.87,6-2.94,3.35-1.06,5.22-4.3,8.5-3.39,3.14-5.34.9-9.07,3.42-3.86,2.35-1.92,5-6.07,7.19-4.28,2-6.19-1-10.67.32.29-4.66-3-5.85-2-10.47,1.22-4.54,4.22-3.23,5.66-7.51,1.63-4.2-1-5.6,1.33-9.6,2.48-3.89,4.72-2.47,7.33-6.08,2.78-3.49,1-4.89,4.34-8C97.85,122.89,99.31,124.21,102.91,121.53Z"/><g class="cls-29"><g class="cls-24"><line class="cls-25" x1="122.78" y1="111.1" x2="76.07" y2="169.6"/><polyline class="cls-25" points="75.08 142.64 80.41 164.17 102.58 164.59"/><polyline class="cls-25" points="82.31 133.59 87.64 155.12 109.81 155.54"/><polyline class="cls-25" points="89.54 124.53 94.86 146.06 117.04 146.49"/><polyline class="cls-25" points="96.77 115.48 102.09 137.01 124.27 137.44"/><polyline class="cls-25" points="104 106.43 109.32 127.96 131.5 128.38"/><polyline class="cls-25" points="111.22 97.37 116.55 118.9 138.72 119.33"/></g></g><g class="cls-2"><polygon class="cls-30" points="209.04 272.41 205.45 270.32 205.46 176.85 209.05 178.94 209.04 272.41"/><polygon class="cls-30" points="157.38 302.23 153.79 300.14 153.79 203.91 157.38 206 157.38 302.23"/><polygon class="cls-31" points="157.38 206 153.79 203.91 207.86 172.69 211.45 174.78 157.38 206"/><polygon class="cls-13" points="211.45 174.78 211.45 271.02 209.04 272.41 209.05 178.94 159.8 207.37 159.79 300.84 157.38 302.23 157.38 206 211.45 174.78"/></g><g class="cls-2"><polygon class="cls-30" points="109.21 214.56 105.62 212.47 105.62 119.01 109.22 121.09 109.21 214.56"/><polygon class="cls-30" points="57.55 244.39 53.96 242.3 53.96 146.07 57.55 148.15 57.55 244.39"/><polygon class="cls-31" points="57.55 148.15 53.96 146.07 108.02 114.85 111.61 116.94 57.55 148.15"/><polygon class="cls-13" points="111.61 116.94 111.61 213.17 109.21 214.56 109.22 121.09 59.96 149.53 59.95 243 57.55 244.39 57.55 148.15 111.61 116.94"/></g><polygon class="cls-32" points="48.25 145.74 48.25 151.17 154.75 213.5 154.75 208.07 48.25 145.74"/><polygon class="cls-16" points="48.25 145.74 154.75 208.07 216.79 173.26 110.28 110.93 48.25 145.74"/><polygon class="cls-17" points="154.75 208.07 154.75 213.5 216.79 178.69 216.79 173.26 154.75 208.07"/><polygon class="cls-33" points="216.79 173.26 216.79 174.11 154.75 208.92 48.25 146.59 48.25 145.74 154.75 208.07 216.79 173.26"/><path class="cls-34" d="M150.07,118.71,111,96.15a.68.68,0,0,0-.51-.09l-.92.23a.69.69,0,0,1,.51.09l39.08,22.56a1.49,1.49,0,0,1,.6,1.53l-6.35,29.06a.8.8,0,0,1-.55.66l.92-.23a.81.81,0,0,0,.55-.66l6.36-29.06A1.53,1.53,0,0,0,150.07,118.71Z"/><path class="cls-35" d="M149.14,118.94,110.06,96.38c-.46-.27-.94,0-1.06.57L102.64,126a1.49,1.49,0,0,0,.6,1.53l39.08,22.56c.46.27.94,0,1.07-.57l6.35-29.06A1.49,1.49,0,0,0,149.14,118.94Z"/><polygon class="cls-3" points="109.7 97.85 103.91 124.31 143.06 146.91 148.85 120.45 109.7 97.85"/><polygon class="cls-9" points="114.73 105.53 114.59 106.05 110.39 103.67 110.53 103.15 114.73 105.53"/><polygon class="cls-6" points="138.29 118.85 138.15 119.38 135.43 117.83 135.57 117.31 138.29 118.85"/><polygon class="cls-5" points="141.76 120.82 141.62 121.34 138.9 119.8 139.04 119.28 141.76 120.82"/><polygon class="cls-12" points="118.2 116.81 118.06 117.33 109.98 112.76 110.12 112.24 118.2 116.81"/><polygon class="cls-9" points="122.23 119.09 122.09 119.61 118.78 117.74 118.92 117.22 122.23 119.09"/><polygon class="cls-9" points="112.85 116.24 112.71 116.76 109.4 114.89 109.54 114.37 112.85 116.24"/><polygon class="cls-5" points="110.45 125.05 110.31 125.58 107.01 123.7 107.15 123.18 110.45 125.05"/><polygon class="cls-6" points="111.05 122.85 110.91 123.37 107.61 121.5 107.75 120.98 111.05 122.85"/><polygon class="cls-9" points="111.65 120.65 111.51 121.17 108.2 119.3 108.35 118.78 111.65 120.65"/><polygon class="cls-12" points="112.25 118.45 112.11 118.97 108.8 117.1 108.94 116.58 112.25 118.45"/><polygon class="cls-12" points="116.55 125.96 116.41 126.48 113.1 124.61 113.24 124.09 116.55 125.96"/><polygon class="cls-7" points="124.95 128.17 124.81 128.69 112.05 121.47 112.19 120.95 124.95 128.17"/><polygon class="cls-7" points="116.89 118.53 116.75 119.05 113.44 117.18 113.58 116.66 116.89 118.53"/><polygon class="cls-12" points="130.16 121.34 130.02 121.86 110.51 110.82 110.65 110.3 130.16 121.34"/><polygon class="cls-12" points="130.69 119.4 130.55 119.92 111.03 108.88 111.18 108.36 130.69 119.4"/><polygon class="cls-12" points="131.22 117.46 131.08 117.98 111.56 106.94 111.7 106.42 131.22 117.46"/><polygon class="cls-12" points="134.91 116.94 134.77 117.47 115.27 106.43 115.41 105.91 134.91 116.94"/><path class="cls-8" d="M110.06,96.38c-.46-.27-.94,0-1.06.57L102.64,126a1.49,1.49,0,0,0,.6,1.53l5.07,2.93L141,114.22Z"/><g class="cls-2"><path class="cls-36" d="M142.4,150.33l-22.85,13.28a1.8,1.8,0,0,1-1.66,0L78.81,141.05a.61.61,0,0,1-.35-.49v1.6a.58.58,0,0,0,.34.48l39.09,22.56a1.81,1.81,0,0,0,1.65,0l22.85-13.29a.57.57,0,0,0,.34-.47c0-.53,0-1.06,0-1.59A.61.61,0,0,1,142.4,150.33Z"/><path class="cls-37" d="M125.13,161.15l-1.88,1.08a.62.62,0,0,0-.27.47c0,.17.13.24.28.15l1.87-1.08a.61.61,0,0,0,.27-.47C125.4,161.13,125.28,161.06,125.13,161.15Z"/><path class="cls-12" d="M142.4,150.33l-22.85,13.28a1.8,1.8,0,0,1-1.66,0L78.81,141.05a.61.61,0,0,1-.35-.49v.22a.59.59,0,0,0,.34.46l39.09,22.56a1.81,1.81,0,0,0,1.65,0l22.85-13.28a.58.58,0,0,0,.34-.48v-.17A.57.57,0,0,1,142.4,150.33Z"/><path class="cls-38" d="M142.39,149.37l-39.08-22.56a1.86,1.86,0,0,0-1.66,0L78.8,140.09c-.45.26-.45.69,0,1l39.08,22.56a1.8,1.8,0,0,0,1.66,0l22.85-13.28C142.85,150.07,142.85,149.64,142.39,149.37Z"/></g><path class="cls-39" d="M125.7,148.77l1.12.65a1,1,0,0,0,.91,0l1.16-.67a.28.28,0,0,0,0-.53l-1.12-.65a1,1,0,0,0-.91,0l-1.15.68A.27.27,0,0,0,125.7,148.77Z"/><path class="cls-40" d="M122.68,141.44l1.17.67a1,1,0,0,0,.91,0l.17-.09a.28.28,0,0,0,0-.53l-1.16-.68a1,1,0,0,0-.91,0l-.17.1C122.43,141.06,122.43,141.3,122.68,141.44Z"/><path class="cls-41" d="M125.16,142.87l1,.6a1,1,0,0,0,.91,0l.17-.1a.28.28,0,0,0,0-.53l-1-.59a1,1,0,0,0-.91,0l-.17.1A.27.27,0,0,0,125.16,142.87Z"/><path class="cls-42" d="M127.51,144.23l1.07.62a1,1,0,0,0,.91,0l.17-.1a.28.28,0,0,0,0-.53l-1.08-.62a1,1,0,0,0-.91,0l-.17.1A.28.28,0,0,0,127.51,144.23Z"/><path class="cls-43" d="M125.77,143.71l-1-.59a1,1,0,0,0-.91,0l-1,.6a.27.27,0,0,0,0,.52l1,.6a1,1,0,0,0,.91,0l1-.6C126,144.1,126,143.86,125.77,143.71Z"/><path class="cls-44" d="M128.16,145.09l-1.07-.62a1,1,0,0,0-.91,0l-1,.6a.28.28,0,0,0,0,.53l1.07.62a1,1,0,0,0,.91,0l1-.6C128.41,145.48,128.41,145.24,128.16,145.09Z"/><path class="cls-45" d="M129.9,145.61l1.12.64a1,1,0,0,0,.91,0l.17-.09a.28.28,0,0,0,0-.53L131,145a1.06,1.06,0,0,0-.92,0l-.16.1A.28.28,0,0,0,129.9,145.61Z"/><path class="cls-46" d="M121,146l1,.59a1,1,0,0,0,.91,0l1.16-.67c.25-.14.25-.38,0-.53l-1-.59a1,1,0,0,0-.91,0l-1.16.67C120.71,145.66,120.71,145.9,121,146Z"/><path class="cls-47" d="M117,146.44l1.17.67a1,1,0,0,0,.91,0l1-.59a.28.28,0,0,0,0-.53l-1.17-.67a1,1,0,0,0-.91,0l-1,.59C116.73,146.06,116.73,146.3,117,146.44Z"/><path class="cls-48" d="M129.57,147.63l1-.6a.28.28,0,0,0,0-.53l-1.11-.65a1,1,0,0,0-.91,0l-1,.6a.28.28,0,0,0,0,.53l1.12.65A1,1,0,0,0,129.57,147.63Z"/><path class="cls-49" d="M132.33,147l1.17.67a1,1,0,0,0,.91,0l.17-.1c.25-.15.25-.38,0-.53l-1.16-.67a1,1,0,0,0-.91,0l-.17.1A.27.27,0,0,0,132.33,147Z"/><path class="cls-50" d="M126.45,147.34c.25-.14.25-.38,0-.53l-1.08-.62a1,1,0,0,0-.91,0l-1.15.68a.27.27,0,0,0,0,.52l1.07.62a1,1,0,0,0,.91,0Z"/><path class="cls-51" d="M119.46,147.87l1,.6a1.06,1.06,0,0,0,.92,0l1-.6a.27.27,0,0,0,0-.52l-1-.6a1.06,1.06,0,0,0-.92,0l-1,.6A.27.27,0,0,0,119.46,147.87Z"/><path class="cls-52" d="M134.81,148.45l1,.59a1,1,0,0,0,.91,0l.17-.1c.25-.14.25-.38,0-.53l-1-.59a1,1,0,0,0-.91,0l-.17.1C134.56,148.06,134.56,148.3,134.81,148.45Z"/><path class="cls-53" d="M115.61,148.4l1.16.67a1,1,0,0,0,.92,0l1.06-.62a.27.27,0,0,0,0-.52l-1.16-.68a1,1,0,0,0-.91,0l-1.07.62C115.36,148,115.36,148.26,115.61,148.4Z"/><path class="cls-54" d="M121.81,149.23l1.07.62a1,1,0,0,0,.92,0l1-.6a.27.27,0,0,0,0-.52l-1.08-.62a1,1,0,0,0-.91,0l-1,.59A.28.28,0,0,0,121.81,149.23Z"/><path class="cls-55" d="M134.39,150.41l1-.6a.28.28,0,0,0,0-.52l-3.51-2a1,1,0,0,0-.91,0l-1,.6a.27.27,0,0,0,0,.52l3.51,2A1,1,0,0,0,134.39,150.41Z"/><path class="cls-56" d="M118.09,149.83l1,.6a1,1,0,0,0,.91,0l1.07-.62a.28.28,0,0,0,0-.53l-1-.59a1,1,0,0,0-.91,0l-1.07.63A.27.27,0,0,0,118.09,149.83Z"/><path class="cls-57" d="M139.51,149.91l-1.27-.74a1.06,1.06,0,0,0-.92,0l-.16.1c-.25.15-.25.39,0,.53l1.28.74a1,1,0,0,0,.91,0l.17-.1C139.77,150.29,139.77,150.06,139.51,149.91Z"/><path class="cls-58" d="M131.93,151.84l1.16-.67a.28.28,0,0,0,0-.52L130.2,149a1,1,0,0,0-.91,0l-1.16.67c-.25.15-.25.39,0,.53l2.89,1.66A1,1,0,0,0,131.93,151.84Z"/><path class="cls-59" d="M138,150.78l-1.28-.73a1,1,0,0,0-.91,0l-1,.59c-.25.15-.25.39,0,.53l1.28.74a1,1,0,0,0,.91,0l1-.6C138.27,151.17,138.27,150.93,138,150.78Z"/><path class="cls-60" d="M120.44,151.19l3.41,2a1,1,0,0,0,.91,0l1.07-.62a.28.28,0,0,0,0-.53l-3.42-2a1,1,0,0,0-.91,0l-1.07.62A.28.28,0,0,0,120.44,151.19Z"/><path class="cls-61" d="M129.6,153.2l1-.6a.27.27,0,0,0,0-.52l-4.49-2.59a1,1,0,0,0-.91,0l-1,.59a.28.28,0,0,0,0,.53l4.49,2.59A1,1,0,0,0,129.6,153.2Z"/><path class="cls-62" d="M135.68,152.14l-1.28-.73a1,1,0,0,0-.91,0l-1.16.68a.27.27,0,0,0,0,.52l1.28.74a1,1,0,0,0,.91,0l1.16-.67A.28.28,0,0,0,135.68,152.14Z"/><path class="cls-63" d="M123.45,153.39l-1.17-.67a1,1,0,0,0-.91,0l-1.06.61c-.25.15-.25.39,0,.53l1.17.68a1,1,0,0,0,.91,0l1.06-.62A.28.28,0,0,0,123.45,153.39Z"/><path class="cls-64" d="M125.17,153.92l1.14.66a1,1,0,0,0,.91,0l1.07-.62c.25-.14.25-.38,0-.53l-1.15-.66a1,1,0,0,0-.91,0l-1.07.62A.28.28,0,0,0,125.17,153.92Z"/><path class="cls-65" d="M133.21,153.57l-1.27-.73a1,1,0,0,0-.92,0l-1,.59c-.25.15-.25.39,0,.53l1.28.74a1,1,0,0,0,.91,0l1-.6C133.46,154,133.46,153.72,133.21,153.57Z"/><path class="cls-66" d="M130.88,154.93l-1.28-.74a1,1,0,0,0-.91,0l-1.07.62a.28.28,0,0,0,0,.53l1.28.74a1,1,0,0,0,.91,0l1.06-.62C131.13,155.31,131.13,155.07,130.88,154.93Z"/><path class="cls-67" d="M128.51,156.31l-1.28-.74a1,1,0,0,0-.91,0l-1.07.62c-.25.14-.25.38,0,.53l1.27.74a1,1,0,0,0,.91,0l1.07-.61C128.76,156.69,128.76,156.45,128.51,156.31Z"/><path class="cls-68" d="M125.91,154.81l-1.14-.66a1.06,1.06,0,0,0-.92,0l-1.06.62c-.25.14-.25.38,0,.53l1.14.66a1,1,0,0,0,.91,0l1.06-.62C126.16,155.2,126.16,155,125.91,154.81Z"/><path class="cls-69" d="M121,152l-.92-.54a1,1,0,0,0-.91,0l-1.07.62c-.24.14-.24.38,0,.53l.92.53a1,1,0,0,0,.91,0l1.07-.62C121.22,152.34,121.22,152.1,121,152Z"/><path class="cls-70" d="M118.72,150.66l-1-.59a1,1,0,0,0-.91,0l-1.06.61c-.25.15-.25.39,0,.53l1,.6a1,1,0,0,0,.91,0l1.06-.62C119,151.05,119,150.81,118.72,150.66Z"/><path class="cls-71" d="M107.55,141l1.16.68a1,1,0,0,0,.91,0l1-.6c.26-.14.26-.38,0-.53l-1.16-.67a1,1,0,0,0-.91,0l-1,.6C107.29,140.61,107.29,140.85,107.55,141Z"/><path class="cls-72" d="M96.58,136.89c-.25.14-.25.38,0,.53l1.17.67a1,1,0,0,0,.91,0l1.06-.62c.25-.15.25-.39,0-.53l-1.16-.67a1,1,0,0,0-.91,0Z"/><path class="cls-73" d="M93.92,133.13l2.72,1.57a1,1,0,0,0,.91,0l1-.59a.28.28,0,0,0,0-.53L95.85,132a1,1,0,0,0-.91,0l-1,.6C93.66,132.74,93.67,133,93.92,133.13Z"/><path class="cls-74" d="M96.25,131.77l1.88,1.09a1,1,0,0,0,.92,0l1.15-.67a.28.28,0,0,0,0-.53l-1.89-1.09a1,1,0,0,0-.91,0l-1.16.67A.28.28,0,0,0,96.25,131.77Z"/><path class="cls-75" d="M92.83,135.71l-1.69-1a1,1,0,0,0-.91,0l-1.06.61c-.25.15-.25.39,0,.53l1.69,1a1,1,0,0,0,.91,0l1.06-.62C93.08,136.1,93.08,135.86,92.83,135.71Z"/><path class="cls-76" d="M103.65,130.45l1.17.68a1,1,0,0,0,.91,0l.17-.1c.25-.15.24-.38,0-.53l-1.16-.67a1,1,0,0,0-.91,0l-.17.1A.27.27,0,0,0,103.65,130.45Z"/><path class="cls-77" d="M104.39,131.37l-1.16-.67a1,1,0,0,0-.91,0l-1,.6a.27.27,0,0,0,0,.52l1.17.68a1,1,0,0,0,.91,0l1-.6C104.65,131.75,104.65,131.52,104.39,131.37Z"/><path class="cls-78" d="M100.61,132.42l-1.16.67c-.25.15-.25.39,0,.53l1.17.67a1,1,0,0,0,.91,0l1.16-.67c.25-.14.24-.38,0-.53l-1.16-.67A1,1,0,0,0,100.61,132.42Z"/><path class="cls-79" d="M106.13,131.89l1,.59a1,1,0,0,0,.91,0l.17-.1c.25-.14.25-.38,0-.53l-1-.59a1,1,0,0,0-.91,0l-.17.1C105.88,131.5,105.88,131.74,106.13,131.89Z"/><path class="cls-80" d="M108.48,133.24l1.07.62a1,1,0,0,0,.91,0l.17-.1a.27.27,0,0,0,0-.52l-1.08-.63a1,1,0,0,0-.91,0l-.17.1A.28.28,0,0,0,108.48,133.24Z"/><path class="cls-81" d="M110.87,134.62l1.06.61a1,1,0,0,0,.91,0l.17-.1c.25-.14.25-.38,0-.52l-1-.62a1,1,0,0,0-.91,0l-.17.09C110.62,134.24,110.62,134.48,110.87,134.62Z"/><path class="cls-82" d="M113.24,136l1.17.68a1,1,0,0,0,.91,0l.17-.1c.25-.15.25-.39,0-.53l-1.17-.67a1,1,0,0,0-.91,0l-.17.1A.27.27,0,0,0,113.24,136Z"/><path class="cls-83" d="M114,136.91l-1.17-.67a1,1,0,0,0-.91,0l-1,.6a.27.27,0,0,0,0,.52l1.17.68a1,1,0,0,0,.91,0l1-.6C114.24,137.29,114.24,137.05,114,136.91Z"/><path class="cls-84" d="M111.51,135.48l-1.06-.61a1,1,0,0,0-.91,0l-1,.6a.28.28,0,0,0,0,.52l1.06.62a1,1,0,0,0,.91,0l1-.61A.27.27,0,0,0,111.51,135.48Z"/><path class="cls-85" d="M109.13,134.11l-1.07-.62a1,1,0,0,0-.91,0l-1,.6c-.25.14-.24.38,0,.52l1.07.62a1,1,0,0,0,.91,0l1-.6A.28.28,0,0,0,109.13,134.11Z"/><path class="cls-86" d="M106.74,132.73l-1-.6a1,1,0,0,0-.91,0l-1,.6c-.25.14-.25.38,0,.53l1,.59a1,1,0,0,0,.91,0l1-.6A.27.27,0,0,0,106.74,132.73Z"/><path class="cls-87" d="M105,134.45l-1-.6a1,1,0,0,0-.91,0l-1.16.68a.27.27,0,0,0,0,.52l1,.6a1,1,0,0,0,.91,0L105,135A.27.27,0,0,0,105,134.45Z"/><path class="cls-88" d="M98,134.93a.27.27,0,0,0,0,.52l1.17.68a1,1,0,0,0,.91,0l1-.6c.25-.14.25-.38,0-.53l-1.17-.67a1,1,0,0,0-.91,0Z"/><path class="cls-89" d="M91.54,134.51l3.72,2.15a1.06,1.06,0,0,0,.92,0l1.06-.63a.27.27,0,0,0,0-.52l-3.72-2.15a1,1,0,0,0-.91,0l-1.07.62C91.29,134.12,91.29,134.36,91.54,134.51Z"/><path class="cls-90" d="M100.43,136.36c-.25.14-.25.38,0,.53l1,.59a1,1,0,0,0,.91,0l1-.59a.28.28,0,0,0,0-.53l-1-.6a1.06,1.06,0,0,0-.92,0Z"/><path class="cls-91" d="M121.71,144.08l-1.16-.67a1,1,0,0,0-.91,0l-1.16.67c-.25.14-.25.38,0,.53l1.17.67a1,1,0,0,0,.91,0l1.16-.67A.28.28,0,0,0,121.71,144.08Z"/><path class="cls-92" d="M115.72,137.42l1,.6a1,1,0,0,0,.91,0l.16-.1c.26-.14.25-.38,0-.53l-1-.59a1,1,0,0,0-.91,0l-.17.1A.27.27,0,0,0,115.72,137.42Z"/><path class="cls-93" d="M118.07,138.78l1.08.62a1,1,0,0,0,.91,0l.17-.1c.25-.14.24-.38,0-.53l-1.07-.62a1,1,0,0,0-.91,0l-.17.1C117.82,138.4,117.82,138.64,118.07,138.78Z"/><path class="cls-94" d="M118.72,139.65l-1.07-.62a1,1,0,0,0-.91,0l-1,.59c-.25.15-.25.39,0,.53l1.08.62a1,1,0,0,0,.91,0l1-.6C119,140,119,139.79,118.72,139.65Z"/><path class="cls-95" d="M117,141.37l-1.07-.62a1,1,0,0,0-.91,0l-1.16.67c-.25.14-.25.38,0,.53l1.08.62a1,1,0,0,0,.91,0l1.16-.68C117.27,141.75,117.26,141.51,117,141.37Z"/><path class="cls-96" d="M120.46,140.16l.9.52a1,1,0,0,0,.91,0l.17-.1a.27.27,0,0,0,0-.52l-.9-.53a1,1,0,0,0-.91,0l-.17.1C120.21,139.78,120.21,140,120.46,140.16Z"/><path class="cls-97" d="M120.94,140.93l-.9-.52a1,1,0,0,0-.91,0l-1,.6c-.25.15-.25.39,0,.53l.9.52a1,1,0,0,0,.91,0l1-.6C121.2,141.31,121.19,141.07,120.94,140.93Z"/><path class="cls-98" d="M119.23,142.65l-.9-.52a1,1,0,0,0-.91,0l-1.16.67c-.25.14-.25.38,0,.53l.9.52a1.06,1.06,0,0,0,.92,0l1.15-.68A.27.27,0,0,0,119.23,142.65Z"/><path class="cls-99" d="M107.42,135.83l-1.08-.62a1,1,0,0,0-.91,0l-1.15.67c-.26.14-.25.38,0,.53l1.07.62a1,1,0,0,0,.91,0l1.16-.68A.27.27,0,0,0,107.42,135.83Z"/><path class="cls-100" d="M109.79,137.2l-1.05-.61a1,1,0,0,0-.91,0l-1.16.67a.28.28,0,0,0,0,.53l1.06.61a1,1,0,0,0,.91,0l1.16-.67A.28.28,0,0,0,109.79,137.2Z"/><path class="cls-101" d="M102.78,138.24l1.07.62a1,1,0,0,0,.92,0l1-.59a.28.28,0,0,0,0-.53l-1.08-.62a1,1,0,0,0-.91,0l-1,.59C102.53,137.86,102.53,138.1,102.78,138.24Z"/><path class="cls-102" d="M116.33,138.27l-1-.6a1,1,0,0,0-.91,0l-1,.6c-.25.14-.25.38,0,.53l1,.59a1,1,0,0,0,.91,0l1-.6C116.59,138.65,116.59,138.41,116.33,138.27Z"/><path class="cls-103" d="M99.06,138.85l1,.59a1,1,0,0,0,.91,0l1.07-.62c.25-.14.25-.38,0-.53l-1-.59a1,1,0,0,0-.91,0l-1.07.62A.28.28,0,0,0,99.06,138.85Z"/><path class="cls-104" d="M112.28,138.63l-1.17-.67a1,1,0,0,0-.91,0l-1.16.67a.28.28,0,0,0,0,.53l1.17.67a1,1,0,0,0,.91,0l1.16-.67A.28.28,0,0,0,112.28,138.63Z"/><path class="cls-105" d="M105.17,139.62l1.06.61a1,1,0,0,0,.91,0l1-.59a.28.28,0,0,0,0-.53l-1.06-.61a1,1,0,0,0-.91,0l-1,.59C104.92,139.24,104.92,139.48,105.17,139.62Z"/><path class="cls-106" d="M101.41,140.2l1.07.62a1,1,0,0,0,.91,0l1.07-.62c.25-.14.25-.38,0-.53l-1.08-.62a1,1,0,0,0-.91,0l-1.07.63C101.15,139.82,101.16,140.06,101.41,140.2Z"/><path class="cls-107" d="M100.05,139.88,99,139.26a1,1,0,0,0-.91,0l-1.06.62c-.25.14-.25.38,0,.53l1.08.62a1,1,0,0,0,.91,0l1.06-.62A.28.28,0,0,0,100.05,139.88Z"/><path class="cls-108" d="M114.62,140l-1-.6a1,1,0,0,0-.91,0l-1.16.67a.28.28,0,0,0,0,.53l1,.6a1,1,0,0,0,.91,0l1.16-.68A.28.28,0,0,0,114.62,140Z"/><path class="cls-109" d="M103.8,141.58l1.06.61a1,1,0,0,0,.91,0l1.07-.62c.25-.14.25-.38,0-.52l-1.06-.62a1,1,0,0,0-.9,0l-1.07.63C103.54,141.2,103.55,141.44,103.8,141.58Z"/><path class="cls-110" d="M102.42,141.25l-1-.61a1.06,1.06,0,0,0-.92,0l-1.06.62c-.25.14-.25.38,0,.53l1.06.61a1.06,1.06,0,0,0,.92,0l1.06-.62C102.68,141.64,102.68,141.4,102.42,141.25Z"/><path class="cls-111" d="M110,142.43l1,.59a1,1,0,0,0,.91,0l1-.59c.25-.15.25-.39,0-.53l-1-.6a1,1,0,0,0-.91,0l-1,.6C109.77,142,109.78,142.28,110,142.43Z"/><path class="cls-112" d="M106.17,143l1.17.68a1,1,0,0,0,.91,0l1.07-.62c.25-.15.25-.39,0-.53l-1.17-.67a1,1,0,0,0-.91,0l-1.07.63A.27.27,0,0,0,106.17,143Z"/><path class="cls-113" d="M112.37,143.78l1.08.62a1,1,0,0,0,.91,0l1-.59c.25-.15.25-.39,0-.53l-1.08-.62a1,1,0,0,0-.91,0l-1,.59C112.12,143.4,112.12,143.64,112.37,143.78Z"/><path class="cls-114" d="M108.66,144.39l1,.59a1,1,0,0,0,.91,0l1.06-.62a.28.28,0,0,0,0-.53l-1-.59a1,1,0,0,0-.91,0l-1.07.62C108.4,144,108.4,144.24,108.66,144.39Z"/><path class="cls-115" d="M114.76,145.16l.91.52a1,1,0,0,0,.91,0l1-.59c.25-.15.25-.39,0-.53l-.9-.52a1,1,0,0,0-.92,0l-1,.59C114.51,144.78,114.51,145,114.76,145.16Z"/><path class="cls-116" d="M111,145.74l1.08.62a1,1,0,0,0,.91,0l1.07-.62c.25-.14.24-.38,0-.53l-1.07-.62a1,1,0,0,0-.91,0l-1.07.62C110.75,145.36,110.75,145.6,111,145.74Z"/><path class="cls-117" d="M113.39,147.12l.9.52a1,1,0,0,0,.92,0l1.06-.62c.25-.14.25-.38,0-.53l-.9-.52a1,1,0,0,0-.91,0l-1.07.62C113.14,146.74,113.14,147,113.39,147.12Z"/><path class="cls-118" d="M116.38,149.31,103.74,142a1,1,0,0,0-.91,0l-1.06.62c-.25.14-.25.38,0,.53l12.63,7.29a1,1,0,0,0,.92,0l1.06-.62A.27.27,0,0,0,116.38,149.31Z"/><path class="cls-119" d="M95.31,137.15l-1.16-.68a1,1,0,0,0-.91,0l-1.07.62c-.25.15-.25.38,0,.53l1.16.67a1,1,0,0,0,.91,0l1.06-.62A.27.27,0,0,0,95.31,137.15Z"/><path class="cls-120" d="M97.66,138.5l-1-.59a1,1,0,0,0-.91,0l-1.07.61a.28.28,0,0,0,0,.53l1,.6a1,1,0,0,0,.91,0l1.06-.62A.28.28,0,0,0,97.66,138.5Z"/><path class="cls-121" d="M101.07,129l1.26.72a1,1,0,0,0,.91,0l.17-.1c.25-.15.25-.39,0-.53l-1.26-.73a1,1,0,0,0-.91,0l-.17.1C100.82,128.58,100.82,128.82,101.07,129Z"/><path class="cls-122" d="M98.71,130.34l1.26.73a1,1,0,0,0,.91,0l1-.6a.28.28,0,0,0,0-.53l-1.26-.73a1,1,0,0,0-.91,0l-1,.6A.28.28,0,0,0,98.71,130.34Z"/><path class="cls-123" d="M123.42,142.36l-1.16-.67a1,1,0,0,0-.91,0l-1,.6a.27.27,0,0,0,0,.52l1.16.68a1.06,1.06,0,0,0,.92,0l1-.61C123.68,142.74,123.68,142.5,123.42,142.36Z"/><path class="cls-124" d="M115,151.61,99.3,142.56a.74.74,0,0,0-.68,0l-7.35,4.27a.21.21,0,0,0,0,.4l15.67,9.05a.74.74,0,0,0,.68,0L115,152A.21.21,0,0,0,115,151.61Z"/><path class="cls-125" d="M84.8,283.53A63.17,63.17,0,0,0,94.06,288c3.94,1.32,5.16,1.44,5.69,2.49s1,3.09-1,3.76-15.56,2.44-17.75,2.73-6.89-.55-6.94-2.41,1.61-10.87,1.61-10.87Z"/><path class="cls-126" d="M84.68,282.34a62.61,62.61,0,0,0,9.26,4.42c3.94,1.32,5.16,1.43,5.68,2.49s1,3.09-1,3.76-15.56,2.44-17.75,2.73S74,295.19,74,293.33s1.6-10.88,1.6-10.88Z"/><path class="cls-127" d="M86.25,284.35s-7.21,3-12.3-2.48c0,0,.36-17.92.65-38.48-7.78-12.94-20.29-24.09-27.15-29.89L75,200.19s13.61,21.75,15.72,39.07C90.43,250.5,86.25,284.35,86.25,284.35Z"/><path class="cls-125" d="M91.39,262.1A65.36,65.36,0,0,0,99,269.63c3.45,2.66,4.62,3.19,4.78,4.41s-.06,3.4-2.23,3.4-16.22-2.91-18.49-3.37-6.62-2.9-6-4.75,5.3-10.21,5.3-10.21Z"/><path class="cls-126" d="M91.67,260.88a65.8,65.8,0,0,0,7.65,7.53c3.45,2.66,4.61,3.19,4.77,4.41s0,3.4-2.23,3.4-16.22-2.91-18.48-3.37-6.62-2.9-6-4.75,5.31-10.21,5.31-10.21Z"/><path class="cls-128" d="M111,225.72s-.14,3.25-3.89,9.8-14.51,26.3-14.51,26.3-8.06.63-11.6-3.4c0,0,11.25-28.74,13-32.7S109.34,218.15,111,225.72Z"/><g class="cls-2"><polygon class="cls-129" points="43.52 207.13 39.93 205.04 51.39 288.27 54.98 290.35 43.52 207.13"/><polygon class="cls-130" points="24.4 214 20.81 211.91 9.36 312.53 12.95 314.62 24.4 214"/><polygon class="cls-31" points="46.64 201.16 43.05 199.07 20.81 211.91 24.4 214 46.64 201.16"/><polygon class="cls-131" points="24.4 214 12.95 314.62 16.61 312.51 27.55 216.35 43.52 207.13 54.98 290.35 58.63 288.25 46.64 201.16 24.4 214"/></g><g class="cls-2"><polygon class="cls-129" points="85.97 278.33 50.53 257.76 51.06 261.62 86.5 282.18 85.97 278.33"/><polygon class="cls-31" points="89.62 276.22 54.18 255.65 50.53 257.76 85.97 278.33 89.62 276.22"/><polygon class="cls-131" points="85.97 278.33 86.5 282.18 90.15 280.08 89.62 276.22 85.97 278.33"/></g><g class="cls-2"><polygon class="cls-130" points="53.1 293.77 17.66 273.2 17.15 277.66 52.59 298.23 53.1 293.77"/><polygon class="cls-31" points="56.75 291.66 21.31 271.1 17.66 273.2 53.1 293.77 56.75 291.66"/><polygon class="cls-131" points="53.1 293.77 52.59 298.23 56.24 296.12 56.75 291.66 53.1 293.77"/></g><g class="cls-2"><polygon class="cls-129" points="80.59 228.65 77 226.56 88.46 309.79 92.05 311.88 80.59 228.65"/><polygon class="cls-130" points="61.48 235.52 57.88 233.44 46.43 334.05 50.02 336.14 61.48 235.52"/><polygon class="cls-31" points="83.72 222.68 80.13 220.59 57.88 233.44 61.48 235.52 83.72 222.68"/><polygon class="cls-131" points="61.48 235.52 50.02 336.14 53.68 334.03 64.62 237.87 80.59 228.65 92.05 311.88 95.7 309.77 83.72 222.68 61.48 235.52"/></g><polygon class="cls-32" points="16.72 210.95 16.72 216.38 60.2 241.73 60.2 236.3 16.72 210.95"/><polygon class="cls-16" points="16.72 210.95 60.2 236.3 85.58 221.94 42.1 196.59 16.72 210.95"/><polygon class="cls-17" points="60.2 236.3 60.2 241.73 85.58 227.37 85.58 221.94 60.2 236.3"/><polygon class="cls-33" points="85.58 221.94 85.58 222.79 60.2 237.15 16.72 211.8 16.72 210.95 60.2 236.3 85.58 221.94"/><polygon class="cls-32" points="16.72 210.95 16.72 216.38 60.2 241.73 60.2 236.3 16.72 210.95"/><polygon class="cls-16" points="16.72 210.95 60.2 236.3 85.58 221.94 42.1 196.59 16.72 210.95"/><polygon class="cls-17" points="60.2 236.3 60.2 241.73 85.58 227.37 85.58 221.94 60.2 236.3"/><polygon class="cls-33" points="85.58 221.94 85.58 222.79 60.2 237.15 16.72 211.8 16.72 210.95 60.2 236.3 85.58 221.94"/><path class="cls-128" d="M75,198.62s24,11.89,29,14.72,7,6.62,7,12.81c0,3.32-8.49,3.25-16.7,1.63-2-.4-5.11-.94-8.71-1.56l-.06-4.28L79,218.89S68.5,223,60.75,221.7a51.12,51.12,0,0,1-6.67-1.78c-5.95-2.34-12.18-5.59-13.59-11.75Z"/><path class="cls-132" d="M87.64,137.65S89.5,136.32,90,136a4.14,4.14,0,0,1,1.8-.73c.63-.06,2.44-.28,3-.42s1.55-.57,1.72-.41A2,2,0,0,1,95,136.59c-1.55.51-2.37.39-3,.7s-2.86,2.07-2.86,2.07Z"/><path class="cls-133" d="M89.12,138l3.06-1.62a4.42,4.42,0,0,1,2-.62,31.3,31.3,0,0,0,3.16-.18c.56-.1,1.69-.46,1.85-.29a2.09,2.09,0,0,1-1.78,2.18c-1.69.4-2.54.2-3.2.47S91,139.88,91,139.88Z"/><path class="cls-134" d="M90.48,139.19l3.41-1.48a4.63,4.63,0,0,1,2.17-.5,32.81,32.81,0,0,0,3.4.07c.61-.06,1.85-.36,2-.16s-.24,1.9-2.09,2.19-2.74,0-3.48.24-3.6,1.82-3.6,1.82Z"/><path class="cls-135" d="M54.47,143.71l2,5s6.21-1.59,9.68-2.19,13.37-3.24,15.33-4.38a76,76,0,0,0,6.19-4.54c.37-.28,1.29-1,1.74-.73a11.09,11.09,0,0,1,4.49,5.73c-.56,1.1-2.74,2.34-3.93,3.2s-4,1.41-5.79,1.41-9,4.24-15,7.39a129.69,129.69,0,0,1-15.47,6.8c-2.56.87-3.79.41-5-1s-4.34-7.8-5.57-11.68Z"/><path class="cls-136" d="M55.78,147.07a27.1,27.1,0,0,1-9.3,9.52,58.94,58.94,0,0,1-3.36-7.87l11.35-5Z"/><path class="cls-135" d="M91.43,141.1l3-1.32a4.31,4.31,0,0,1,1.92-.43c.63,0,2.47.12,3,.06s1.64-.31,1.78-.14a2,2,0,0,1-1.85,1.94c-1.64.25-2.43,0-3.08.21S93.05,143,93.05,143Z"/><path class="cls-137" d="M93.66,143A18.76,18.76,0,0,1,90,145.78c-1.17-1.17-2.09-2.43-1.14-2.88C90.52,142.14,92.94,142.75,93.66,143Z"/><path class="cls-135" d="M87.41,146.79s2.46-.25,4-.26a5.47,5.47,0,0,0,2.61-.45c.65-.28,1.57-1.23,2.06-1.43s1.6-.53,1.56-.91-1.47-1.1-2.83-.6-1.71.81-2.32.68-1.73-1.28-3.36-1S86.32,145.77,87.41,146.79Z"/><path class="cls-135" d="M46.19,87c6.7-.28,10.4,2.81,12.31,9.07s.69,7.28,2.23,10.62,1.12,6.21-.26,9.87-2,5.31-3.24,5.31a34.71,34.71,0,0,1-5-1L38.76,119s-5.52-5.09-7.17-16.77C30,90.68,37.33,87.35,46.19,87Z"/><path class="cls-138" d="M51.6,118s-.1,9.07,3.08,14.22,4.67,5.47,4.67,5.47-9.34,4.88-18,1.16a13.87,13.87,0,0,1-8.63-12.1s6.9-.47,4.83-12.36L47,113s.9,1.9,4.08,2.8A4.28,4.28,0,0,1,51.6,118Z"/><path class="cls-126" d="M54.68,132.2s5.89,5.25,8,6.9,7.64,5.79,8.38,14.22-.48,28.61,2,36.63S77.29,198,76,202.69s-8.23,11-19.59,12.36-18.84-4.24-20.27-13.8S32.5,173.81,31,165.16s-6.16-21.92-5.24-28.93a21.26,21.26,0,0,1,2-6.86c1.71-3,7-3.68,7.42-3.68.7,0,1.39.71,7.26,2.41S51.18,130.43,54.68,132.2Z"/><path class="cls-139" d="M34.65,125.75s2.44-3.68,2.88-3.71a38.06,38.06,0,0,1,11.52,3.44,14.57,14.57,0,0,1,6.73,7.7S43.12,128.52,34.65,125.75Z"/><path class="cls-140" d="M72.11,184.83c-8-5.82-13.61-17.57-14.87-26.67l14.12,3.45C71.43,169,71.32,178.22,72.11,184.83Z"/><path class="cls-141" d="M106.76,157.46s.75-2.35,1.07-3.81a5.46,5.46,0,0,1,1-2.46c.42-.58,1.53-1.28,1.83-1.72s.84-1.46,1.21-1.34.78,1.66,0,2.9-1.14,1.5-1.14,2.12.89,2,.25,3.49S107.54,158.74,106.76,157.46Z"/><path class="cls-135" d="M77.08,159.46l3.07,5s6.21-1.59,9.68-2.19,13.37-3.24,15.33-4.38,5.34-6.34,5.71-6.62,1.29-1,1.73-.73c2.42,1.32,4.7,6.62,5,7.81-.56,1.1-2.74,2.34-3.93,3.2s-4,1.41-5.79,1.41-9,4.24-15,7.39a130.41,130.41,0,0,1-15.47,6.8c-2.56.87-3.79.41-5-1s-4.33-7.8-5.57-11.68Z"/><path class="cls-142" d="M105.29,160.59a10.43,10.43,0,0,1,.47,3.06l-1.63.88a11,11,0,0,0-.9-3.24Z"/><path class="cls-143" d="M100.92,160.27c.16.9,1.38,1.44,2.73,1.21s2.32-1.15,2.16-2-1.38-1.44-2.73-1.21S100.76,159.37,100.92,160.27Z"/><path class="cls-144" d="M101.35,160c.13.74,1.13,1.18,2.24,1s1.91-1,1.78-1.69-1.13-1.18-2.24-1S101.22,159.29,101.35,160Z"/><path class="cls-135" d="M112,150.65s2.36-1.21,2.93-1.52a4.31,4.31,0,0,1,1.89-.56c.64,0,2.48,0,3-.14s1.62-.43,1.77-.26a2,2,0,0,1-1.72,2.06c-1.61.36-2.42.17-3.06.42s-3.07,1.81-3.07,1.81Z"/><path class="cls-135" d="M113.37,152.44l3.42-1.49a4.84,4.84,0,0,1,2.16-.49,32.94,32.94,0,0,0,3.41.07c.61-.06,1.85-.36,2-.16a2.26,2.26,0,0,1-2.1,2.19c-1.84.29-2.74,0-3.47.24s-3.6,1.82-3.6,1.82Z"/><path class="cls-135" d="M114.78,154.66l3.29-1.07a4.39,4.39,0,0,1,2.05-.26c.67.11,2.58.38,3.15.38s1.74-.17,1.87,0a2.08,2.08,0,0,1-2.14,1.83c-1.73.1-2.53-.24-3.23-.09s-3.5,1.36-3.5,1.36Z"/><path class="cls-135" d="M114.58,157l3.18-.74a4.16,4.16,0,0,1,1.95-.08c.61.15,2.39.55,2.92.6s1.65,0,1.76.18a2,2,0,0,1-2.15,1.55c-1.64,0-2.37-.42-3-.34s-3.39,1-3.39,1Z"/><path class="cls-126" d="M66.48,142.53s4.66,6,6.88,9.36,7.49,11.31,7.49,11.31a5.31,5.31,0,0,1,1.9-.5,28.13,28.13,0,0,1,1.57,12.62c-1.24.67-3.77,2.37-5.29,3.16s-4,1.84-5.21.43-3.43-3.47-5.16-5.77-10-7-11.54-15.54S61.68,137.29,66.48,142.53Z"/><path class="cls-145" d="M81.34,163s.09-.55.35-.63,6.43-.14,6.74-.14,1.46.83,2.13,4.06.32,5.68,0,6-6.37,3.88-6.58,4-.88-.24-.88-.24A27,27,0,0,0,81.34,163Z"/><path class="cls-146" d="M56.38,97.92a10,10,0,0,1,.84,5.66,5.25,5.25,0,0,1-1.66-1.35s-.32,2.34-.35,2.66-1.45,1.34-1.56,2-.21,4.1-.21,4.1l-1.1.18a24.59,24.59,0,0,0-1.3-3.08c-.43-.64-1.81-1.7-2.41-1.06s-.92,4.46-.46,6.12S51,115.82,51,115.82c0,3.36-1,4.67-1.28,4.85s-.71-.82-.71-.82-4.92,2.36-6.9,2.19a10.6,10.6,0,0,1-8-6.15s-.46.88-.6.88a16.39,16.39,0,0,1-5.41-9.83c-1.06-6.3.85-9.27,2.19-11.5-.1-3.51.89-7.08,5.1-8.64s8-2.15,9.76-3.75,4.39-4,4.89-3.85a5.81,5.81,0,0,1,2.79,4.92c2.52-1,5.24-3.4,5.56-2.27s2,6.16,0,9.52c1.52-.46,2.76-.46,2.76.11S60.48,96.78,56.38,97.92Z"/><path class="cls-147" d="M153.58,166l-.22-.13a.41.41,0,0,1,.15.14.9.9,0,0,0,.31.33l.21.12a.85.85,0,0,1-.3-.32A.5.5,0,0,0,153.58,166Z"/><polygon class="cls-148" points="142.68 169.18 142.46 169.06 142.46 169.83 142.68 169.96 142.68 169.18"/><path class="cls-149" d="M142.68,169.18V170c.3-.11,6-2.16,6.6-2.33a1,1,0,0,0,.23-.11,5.19,5.19,0,0,0,.69-.52,7.23,7.23,0,0,1,.86-.6,2.77,2.77,0,0,1,.55-.26c1-.36,1.91-.4,2.12,0a.76.76,0,0,0,1.17.24,1.75,1.75,0,0,0,.87-1.07,25.92,25.92,0,0,0-4.21.3C151.2,165.73,143.1,169,142.68,169.18Z"/><path class="cls-150" d="M155.76,165.27l-.21-.13a25.32,25.32,0,0,0-4.21.31l-8.88,3.6.22.13c.42-.17,8.52-3.45,8.88-3.61A26.25,26.25,0,0,1,155.76,165.27Z"/><path class="cls-147" d="M141,158.77l-.22-.12a.34.34,0,0,1,.15.14.8.8,0,0,0,.31.32l.21.13a1,1,0,0,1-.3-.32A.54.54,0,0,0,141,158.77Z"/><polygon class="cls-151" points="130.08 162 129.86 161.87 129.86 162.65 130.08 162.78 130.08 162"/><path class="cls-152" d="M130.08,162v.78c.3-.11,6-2.16,6.6-2.34a.89.89,0,0,0,.23-.1,5.19,5.19,0,0,0,.69-.52,7.27,7.27,0,0,1,.86-.61A2.5,2.5,0,0,1,139,159c1-.36,1.91-.4,2.12,0a.77.77,0,0,0,1.17.24,1.75,1.75,0,0,0,.87-1.07,24.91,24.91,0,0,0-4.21.3Z"/><path class="cls-150" d="M143.16,158.08l-.22-.12a26.33,26.33,0,0,0-4.2.3c-.36.16-8.46,3.44-8.88,3.61l.22.13,8.88-3.61A25.21,25.21,0,0,1,143.16,158.08Z"/><g class="cls-2"><path class="cls-153" d="M130.7,163.23a.52.52,0,0,1,.16-.17l.31-.18h0a.42.42,0,0,0-.17.18,4.71,4.71,0,0,0,.11,2.17,3.59,3.59,0,0,0,1.81,2.36,5.53,5.53,0,0,0,.69.33,1.29,1.29,0,0,0,1.16,0l-.33.19a1.29,1.29,0,0,1-1.16,0,6.13,6.13,0,0,1-.68-.33,3.61,3.61,0,0,1-1.81-2.36A4.61,4.61,0,0,1,130.7,163.23Z"/><path class="cls-147" d="M134.65,168.45l.32-.19c.63-.36.82-1.44,1-1.67l0,0-.33.19,0,0C135.46,167,135.27,168.08,134.65,168.45Z"/><path class="cls-154" d="M137.11,166.74l.33-.19c-.16.09-.24.34-.21.85a5.22,5.22,0,0,0,1.87,3.67,6.87,6.87,0,0,0,.69.46c.65.37,1.12.45,1.44.27l-.33.19c-.31.18-.79.1-1.44-.27a8.24,8.24,0,0,1-.69-.46,5.16,5.16,0,0,1-1.86-3.67C136.87,167.08,137,166.83,137.11,166.74Z"/><path class="cls-147" d="M141.13,172.32l.33-.19a1.63,1.63,0,0,0,.59-1.06c.09-.38.1-.93.28-1l-.32.18c-.19.12-.2.66-.29,1A1.59,1.59,0,0,1,141.13,172.32Z"/><path class="cls-155" d="M130,161.68h.08a20.22,20.22,0,0,1,2.7,1.3l.19.11a19.26,19.26,0,0,1,2.39,1.75,9,9,0,0,0,1,.76,6,6,0,0,0,1,.42,12.11,12.11,0,0,1,2.39,1l.19.11a26.2,26.2,0,0,1,2.7,1.82.34.34,0,0,1,.12.32v.68c0,.06,0,.09,0,.1a3.37,3.37,0,0,1-.32.19s0,0,0-.1v-.68a.36.36,0,0,0-.11-.32,25.69,25.69,0,0,0-2.7-1.82l-.19-.11a12,12,0,0,0-2.39-1,6.12,6.12,0,0,1-1-.42,8.08,8.08,0,0,1-1-.76,19.84,19.84,0,0,0-2.39-1.75l-.19-.11a20.22,20.22,0,0,0-2.7-1.3.13.13,0,0,0-.09,0Z"/><path class="cls-156" d="M132.46,163.16l.19.11A19.84,19.84,0,0,1,135,165a8.08,8.08,0,0,0,1,.76,6.12,6.12,0,0,0,1,.42,12,12,0,0,1,2.39,1l.19.11a25.69,25.69,0,0,1,2.7,1.82.36.36,0,0,1,.11.32v.68c0,.16-.06.11-.35.07s-.28.62-.39,1.06-.32,1.27-1.15,1.16a3.49,3.49,0,0,1-1.2-.46,5.53,5.53,0,0,1-1.7-1.53,12.38,12.38,0,0,1-1.26-3.23.88.88,0,0,0-.38-.39c-.05,0-.25-.13-.34,0-.25.26-.46,1.57-1.29,1.76a2.55,2.55,0,0,1-1.69-.42,6,6,0,0,1-1.2-.93,4.57,4.57,0,0,1-1.14-2.49c-.11-.56-.1-1.21-.38-1.5s-.35-.31-.35-.48V162c0-.15,0-.2.12-.18A20.22,20.22,0,0,1,132.46,163.16Zm-1.65,2.25a3.61,3.61,0,0,0,1.81,2.36,6.13,6.13,0,0,0,.68.33c1.44.58,1.83-.75,1.89-1.5a1.66,1.66,0,0,0-.53-1.49,13.43,13.43,0,0,0-2-1.49,7.1,7.1,0,0,0-1.13-.52c-.58-.21-.75,0-.85.13a4.61,4.61,0,0,0,.11,2.18m6.1,2.18a5.16,5.16,0,0,0,1.86,3.67,8.24,8.24,0,0,0,.69.46c1,.58,1.6.44,1.82-.26a4.18,4.18,0,0,0,.12-2.05,2.24,2.24,0,0,0-.85-1.11,8.88,8.88,0,0,0-1.13-.78,8,8,0,0,0-2-.8c-.34-.09-.59.05-.53.87"/></g><path class="cls-157" d="M151.26,175c-.15-1.16-.3-2.32-.46-3.48a2.81,2.81,0,0,0,1.49,1.91,8.37,8.37,0,0,0,7.61.08,2.91,2.91,0,0,0,1.65-2L161.1,175a2.65,2.65,0,0,1-1.5,1.86,7.7,7.7,0,0,1-7-.08A2.55,2.55,0,0,1,151.26,175Z"/><path class="cls-9" d="M150.8,171.52q-.48-3.66-1-7.32a3.29,3.29,0,0,0,1.75,2.26,9.86,9.86,0,0,0,9,.09,3.36,3.36,0,0,0,1.93-2.38l-.92,7.32a2.86,2.86,0,0,1-1.64,2,8.41,8.41,0,0,1-7.63-.07A2.79,2.79,0,0,1,150.8,171.52Z"/><path class="cls-158" d="M149.83,164.2l-.18-1.38a3.36,3.36,0,0,0,1.8,2.32,10.14,10.14,0,0,0,9.21.09,3.47,3.47,0,0,0,2-2.44l-.18,1.38a3.38,3.38,0,0,1-1.93,2.38,9.86,9.86,0,0,1-9-.09A3.29,3.29,0,0,1,149.83,164.2Z"/><path class="cls-159" d="M161.47,156.9c2.82,1.69,2.72,4.4-.22,6a11.48,11.48,0,0,1-10.43-.11c-2.82-1.69-2.73-4.4.21-6A11.5,11.5,0,0,1,161.47,156.9Z"/><path class="cls-160" d="M159.37,156.65a7,7,0,0,0-6.34-.06c-1.78,1-1.84,2.64-.13,3.67a7,7,0,0,0,6.34.07C161,159.33,161.09,157.69,159.37,156.65Z"/><path class="cls-161" d="M157.26,158a2.4,2.4,0,0,0-2.2,0c-.62.35-.64.92,0,1.28a2.47,2.47,0,0,0,2.2,0C157.84,159,157.86,158.38,157.26,158Z"/><path class="cls-162" d="M157.57,157.66a3.09,3.09,0,0,0-2.81,0c-.79.44-.81,1.17,0,1.63a3.1,3.1,0,0,0,2.8,0C158.3,158.84,158.33,158.12,157.57,157.66Zm-.35,1.64a2.47,2.47,0,0,1-2.2,0c-.6-.36-.58-.93,0-1.28a2.4,2.4,0,0,1,2.2,0C157.86,158.38,157.84,159,157.22,159.3Z"/><path class="cls-163" d="M151.37,157.83l1.16-.91c-1.27,1-1.16,2.42.37,3.34a7,7,0,0,0,6.34.07c1.65-.92,1.83-2.39.5-3.43l1.16.91c1.76,1.36,1.53,3.31-.65,4.53a9.29,9.29,0,0,1-8.39-.09C149.83,161,149.68,159.16,151.37,157.83Z"/><path class="cls-164" d="M159.24,160.33a7,7,0,0,1-6.34-.07c-1.25-.75-1.55-1.83-.93-2.75-.7.94-.42,2.06.87,2.84a7,7,0,0,0,6.34.06,3.14,3.14,0,0,0,1.06-.91A3.28,3.28,0,0,1,159.24,160.33Z"/><path class="cls-165" d="M148.76,162.54c0-.88,0-1.77,0-2.65a3.62,3.62,0,0,0,2.06,2.94,11.48,11.48,0,0,0,10.43.11,3.75,3.75,0,0,0,2.27-3.1v2.66c0,1.13-.76,2.25-2.27,3.1a11.48,11.48,0,0,1-10.43-.11A3.62,3.62,0,0,1,148.76,162.54Z"/><path class="cls-164" d="M161.25,162.94a11.48,11.48,0,0,1-10.43-.11,3.62,3.62,0,0,1-2.06-2.94V160a3.65,3.65,0,0,0,2.06,3,11.51,11.51,0,0,0,10.43.1,3.75,3.75,0,0,0,2.27-3.09v-.13A3.75,3.75,0,0,1,161.25,162.94Z"/><polygon class="cls-13" points="228.93 239.52 209.51 250.81 215.55 290.35 228.95 282.56 242.44 290.35 248.47 250.81 228.93 239.52"/><polygon class="cls-166" points="229.09 267.59 229.06 301.93 209 290.35 200.02 250.81 229.09 267.59"/><polygon class="cls-167" points="257.97 250.81 248.99 290.35 229.06 301.93 229.09 267.59 257.97 250.81"/><polygon class="cls-16" points="207.95 285.73 209 290.35 229.06 301.93 229.07 301.92 229.07 297.92 207.95 285.73"/><polygon class="cls-17" points="250.03 285.74 229.07 297.92 229.07 301.92 248.99 290.35 250.03 285.74"/><polygon class="cls-18" points="229.09 268.34 257.77 251.67 257.97 250.81 229.09 267.59 200.02 250.81 200.22 251.67 229.09 268.34"/><path class="cls-19" d="M228.9,234,258,250.81l-28.88,16.78L200,250.81Zm.16,28.06,19.42-11.28-19.55-11.29-19.42,11.29,19.55,11.28"/><path class="cls-20" d="M217.68,261a6.31,6.31,0,0,0,.86,0,7.17,7.17,0,0,0,4.58-2.32l-13.61-7.85L221.15,244c-1.91-.45-3.54.22-6-1.77l-.21-.16-15,8.7Z"/><path class="cls-168" d="M210.34,197.19c.76-5.07-1.06-5.1.53-10.23,1.84-5.07,4.31-7,6.43-11.87,3.48,4,6.43,5.08,9.73,9.36,3.07,4.4,1.35,5,3.61,9.58,2,4.69,4.22,4.21,6,9.15,1.58,5-1,5.37-.25,10.38.55,5,3.56,4.91,3.82,10.15,0,5.26-3.36,5.17-4.12,10.23-1,5.05,2.71,5.45,1.35,10.63-1.61,5.13-5.59,4.42-7.93,9.18-3.69-3.82-7.26-1.94-10.35-6.34-2.87-4.52.54-6-1.95-10.53-2.26-4.6-5.44-3.48-7-8.5-1.35-5.07,1.56-5.86.55-10.83-.78-5-3.37-4.56-3.39-9.81C207.6,202.48,209.82,202.28,210.34,197.19Z"/><path class="cls-22" d="M240.24,223.71c-.2-4-2-4.89-3.11-7.35a9.49,9.49,0,0,1-.71,1.8c-1.84,4.06-4.31,3.12-6,7.43-1.45,4.38,1.39,5.23.64,9.67-.55,4.49-3.75,3.81-4,8.5-.06,4.07,2.54,5,3.68,8.14,2.33-2.82,5.37-3,6.73-7.33,1.36-5.18-2.35-5.58-1.35-10.63C236.88,228.88,240.25,229,240.24,223.71Z"/><path class="cls-22" d="M209.8,199.92c1.89,2.48,1.08,3.44,3.3,6.69,2.34,3.82,4.19,3.14,6.37,7.21,2,4.17-.24,4.8,1.06,9.06,1.09,4.33,3.69,3.84,4.57,8.37.66,4.57-2.29,4.91-2.32,9.41-.25,4.51,3,4.4,2.48,9.07a7.69,7.69,0,0,1-.34,1.32c-2-.66-4-1.11-5.73-3.64-2.87-4.52.54-6-1.95-10.53-2.26-4.6-5.44-3.48-7-8.5-1.35-5.07,1.56-5.86.55-10.83-.78-5-3.37-4.56-3.39-9.81C207.55,203.63,209,202.6,209.8,199.92Z"/><g class="cls-169"><g class="cls-24"><line class="cls-25" x1="216.9" y1="172.5" x2="229.99" y2="256.69"/><polyline class="cls-25" points="206.63 236.77 228.78 248.88 246.2 230.62"/><polyline class="cls-25" points="204.6 223.74 226.75 235.85 244.17 217.59"/><polyline class="cls-25" points="202.58 210.72 224.72 222.82 242.15 204.56"/><polyline class="cls-25" points="200.55 197.69 222.7 209.79 240.12 191.53"/><polyline class="cls-25" points="198.52 184.66 220.67 196.77 238.09 178.5"/><polyline class="cls-25" points="196.5 171.63 218.64 183.74 236.06 165.47"/></g></g><path class="cls-170" d="M183.61,227.26c-2.26-3.9-3.53-2.93-5.24-7.32-1.51-4.5-.88-7.2-2.08-11.68,4.57.82,7.21,0,11.81,1.1,4.53,1.35,3.66,2.69,7.73,4.62,4,2.1,5.21.58,9.15,3,3.83,2.59,2.23,4.25,5.51,7.27,3.14,3.17,5.13,1.43,8.18,4.89,2.89,3.61.52,5.39,2.78,9.29,2.07,4,4.83,2.26,6.74,6.56,1.7,4.41-1.42,6.1-.43,10.66-4.62-.61-6,2.64-10.58,1.3-4.45-1.53-2.93-4.43-7.1-6.17-4.07-1.92-5.66.59-9.49-2-3.7-2.75-2.13-4.89-5.55-7.75-3.28-3-4.81-1.29-7.7-4.89C184.62,232.4,186,231,183.61,227.26Z"/><g class="cls-171"><g class="cls-24"><line class="cls-25" x1="174.6" y1="206.7" x2="229.69" y2="257.4"/><polyline class="cls-25" points="202.72 256.5 224.57 252.69 226.55 230.6"/><polyline class="cls-25" points="194.2 248.65 216.05 244.85 218.03 222.76"/><polyline class="cls-25" points="185.67 240.8 207.52 237 209.5 214.91"/><polyline class="cls-25" points="177.15 232.96 199 229.16 200.98 207.07"/><polyline class="cls-25" points="168.63 225.11 190.47 221.31 192.46 199.22"/><polyline class="cls-25" points="160.1 217.27 181.95 213.47 183.93 191.38"/></g></g><path class="cls-172" d="M256.37,207.57c3.73-2.52,2.67-3.73,6.93-5.74,4.38-1.82,7.12-1.39,11.51-2.9-.5,4.62.53,7.19-.28,11.86-1,4.61-2.42,3.84-4.06,8-1.82,4.1-.21,5.23-2.33,9.34-2.31,4-4.09,2.52-6.87,6-2.94,3.36-1.06,5.22-4.3,8.51-3.39,3.13-5.34.89-9.07,3.42-3.86,2.35-1.92,5-6.07,7.18-4.28,2-6.19-1-10.67.32.29-4.65-3-5.85-2-10.47,1.22-4.54,4.22-3.22,5.66-7.51,1.63-4.2-1-5.6,1.33-9.6,2.48-3.89,4.72-2.47,7.33-6.08,2.78-3.48.95-4.89,4.34-8C251.31,208.94,252.77,210.25,256.37,207.57Z"/><g class="cls-173"><g class="cls-24"><line class="cls-25" x1="276.24" y1="197.14" x2="229.53" y2="255.65"/><polyline class="cls-25" points="228.54 228.68 233.87 250.21 256.04 250.64"/><polyline class="cls-25" points="235.77 219.63 241.1 241.16 263.27 241.59"/><polyline class="cls-25" points="243 210.58 248.32 232.11 270.5 232.53"/><polyline class="cls-25" points="250.23 201.52 255.55 223.05 277.73 223.48"/><polyline class="cls-25" points="257.46 192.47 262.78 214 284.96 214.42"/><polyline class="cls-25" points="264.69 183.41 270.01 204.94 292.18 205.37"/></g></g><path class="cls-174" d="M145.85,22.55l-2-1.17V19a3.73,3.73,0,0,0-1.71-3c-1-.55-1.71-.11-1.72,1V19.4l-2-1.18c-1-.54-1.72-.1-1.73,1a3.76,3.76,0,0,0,1.72,3l2,1.18v2.33a3.77,3.77,0,0,0,1.71,3c.94.55,1.72.11,1.72-1V25.32l2,1.17c.94.55,1.72.11,1.72-1A3.77,3.77,0,0,0,145.85,22.55Z"/><path class="cls-175" d="M9.21,183.86l-2-1.18v-2.33a3.79,3.79,0,0,0-1.71-3c-1-.54-1.72-.1-1.72,1v2.34l-2-1.18c-.94-.54-1.72-.11-1.72,1a3.78,3.78,0,0,0,1.71,3l2,1.17V187a3.76,3.76,0,0,0,1.7,3c.95.55,1.72.11,1.73-1v-2.34l2,1.18c1,.54,1.72.11,1.73-1A3.76,3.76,0,0,0,9.21,183.86Z"/><path class="cls-176" d="M249,194.78l1.45-.82c.66-.39.67-1.63,0-2.79a3.46,3.46,0,0,0-1.21-1.27,1.21,1.21,0,0,0-1.21-.13l-1.44.82-1.44-2.48a3.38,3.38,0,0,0-1.21-1.27,1.2,1.2,0,0,0-1.21-.13c-.67.38-.67,1.63,0,2.79l1.43,2.48-1.44.82c-.67.38-.67,1.63,0,2.79a3.48,3.48,0,0,0,1.22,1.27,1.2,1.2,0,0,0,1.21.13l1.44-.82,1.43,2.48a3.62,3.62,0,0,0,1.21,1.27,1.22,1.22,0,0,0,1.22.13c.67-.39.67-1.64,0-2.79Z"/><path class="cls-177" d="M29.49,70.46a2.15,2.15,0,0,1,.92,2c-.1.75-.68,1.07-1.29.72a2.15,2.15,0,0,1-.94-2C28.29,70.43,28.87,70.11,29.49,70.46Zm-.27,2c.28.16.54,0,.59-.33a1,1,0,0,0-.42-.92c-.29-.16-.55,0-.6.33a1,1,0,0,0,.43.92"/><path class="cls-178" d="M232.36,7a3.29,3.29,0,0,1,1.42,3.07c-.16,1.16-1.05,1.66-2,1.12a3.31,3.31,0,0,1-1.42-3.09C230.53,7,231.42,6.47,232.36,7Zm-.47,3.44c.6.35,1.18,0,1.28-.72a2.13,2.13,0,0,0-.91-2c-.61-.35-1.18,0-1.29.71a2.11,2.11,0,0,0,.92,2"/><path class="cls-179" d="M66.9,21.21a3.52,3.52,0,0,1,1.32,1.41A12.89,12.89,0,0,0,69,24a2.23,2.23,0,0,0,.73.65,1.22,1.22,0,0,0,1.1.16,3.6,3.6,0,0,1,1.07-.37,1.93,1.93,0,0,1,1.08.3.59.59,0,0,1,.25.54c0,.21-.19.3-.35.2a1.21,1.21,0,0,0-1.1-.15,4.18,4.18,0,0,1-1.07.36,1.86,1.86,0,0,1-1.05-.28,3.56,3.56,0,0,1-1.36-1.44,11.92,11.92,0,0,0-.75-1.33,2.32,2.32,0,0,0-.72-.66,1.21,1.21,0,0,0-1.1-.15,3.82,3.82,0,0,1-1.07.37,1.88,1.88,0,0,1-1-.28,3.56,3.56,0,0,1-1.36-1.44,13.87,13.87,0,0,0-.74-1.33,2.25,2.25,0,0,0-.73-.66,1.18,1.18,0,0,0-1.09-.14,4.13,4.13,0,0,1-1.08.36,1.83,1.83,0,0,1-1-.28A3.49,3.49,0,0,1,56.18,17a13.76,13.76,0,0,0-.75-1.33,2.18,2.18,0,0,0-.72-.65.58.58,0,0,1-.25-.55.22.22,0,0,1,.35-.19,3.48,3.48,0,0,1,1.32,1.42A13.76,13.76,0,0,0,56.88,17a2.3,2.3,0,0,0,.72.65,1.21,1.21,0,0,0,1.1.15,3.83,3.83,0,0,1,1.07-.36,1.78,1.78,0,0,1,1.08.3,3.51,3.51,0,0,1,1.33,1.42,10.52,10.52,0,0,0,.75,1.33,2.09,2.09,0,0,0,.72.65,1.21,1.21,0,0,0,1.1.15,3.93,3.93,0,0,1,1.07-.36A1.78,1.78,0,0,1,66.9,21.21Z"/><path class="cls-179" d="M253.5,278.72a3.57,3.57,0,0,1,1.33,1.42c.29.51.48,1,.75,1.34a2.3,2.3,0,0,0,.72.65,1.23,1.23,0,0,0,1.11.15,3.93,3.93,0,0,1,1.07-.36,1.8,1.8,0,0,1,1.08.3.58.58,0,0,1,.25.54c0,.21-.19.29-.35.2a1.19,1.19,0,0,0-1.1-.16,3.78,3.78,0,0,1-1.08.37,1.83,1.83,0,0,1-1-.28,3.56,3.56,0,0,1-1.36-1.44c-.29-.51-.48-1-.75-1.34a2.35,2.35,0,0,0-.73-.65,1.19,1.19,0,0,0-1.09-.15,4.17,4.17,0,0,1-1.07.37,1.88,1.88,0,0,1-1.05-.28,3.62,3.62,0,0,1-1.36-1.44c-.29-.51-.48-1-.74-1.34a2.46,2.46,0,0,0-.73-.65,1.19,1.19,0,0,0-1.09-.15,4.39,4.39,0,0,1-1.08.37,1.82,1.82,0,0,1-1.05-.29,3.51,3.51,0,0,1-1.35-1.43c-.29-.51-.48-1-.75-1.34a2.3,2.3,0,0,0-.72-.65.56.56,0,0,1-.25-.54.23.23,0,0,1,.35-.2,3.61,3.61,0,0,1,1.32,1.42c.29.51.48,1,.75,1.34a2.42,2.42,0,0,0,.72.65,1.21,1.21,0,0,0,1.1.15,4.17,4.17,0,0,1,1.07-.37,1.93,1.93,0,0,1,1.08.3,3.57,3.57,0,0,1,1.33,1.42,13.21,13.21,0,0,0,.74,1.34,2.35,2.35,0,0,0,.73.65,1.21,1.21,0,0,0,1.1.15,3.91,3.91,0,0,1,1.07-.37A1.9,1.9,0,0,1,253.5,278.72Z"/><path class="cls-7" d="M19.78,249a3.51,3.51,0,0,1,1.33,1.42c.29.51.48,1,.75,1.34a2.27,2.27,0,0,0,.72.64,1.19,1.19,0,0,0,1.1.16,3.79,3.79,0,0,1,1.08-.36,1.8,1.8,0,0,1,1.08.3.6.6,0,0,1,.25.54c0,.2-.19.29-.35.2a1.19,1.19,0,0,0-1.1-.16,4.12,4.12,0,0,1-1.08.37,1.82,1.82,0,0,1-1-.29,3.63,3.63,0,0,1-1.36-1.44,13,13,0,0,0-.74-1.33,2.23,2.23,0,0,0-.73-.65,1.19,1.19,0,0,0-1.09-.15,4.58,4.58,0,0,1-1.07.37,1.88,1.88,0,0,1-1.05-.29,3.6,3.6,0,0,1-1.36-1.43,15.21,15.21,0,0,0-.74-1.34,2.46,2.46,0,0,0-.73-.65,1.19,1.19,0,0,0-1.09-.15,4.85,4.85,0,0,1-1.08.37,1.82,1.82,0,0,1-1.05-.29,3.63,3.63,0,0,1-1.36-1.44,12,12,0,0,0-.74-1.33,2.3,2.3,0,0,0-.72-.65.59.59,0,0,1-.26-.55A.23.23,0,0,1,7.7,242,3.55,3.55,0,0,1,9,243.42a13.14,13.14,0,0,0,.75,1.34,2.31,2.31,0,0,0,.72.65,1.21,1.21,0,0,0,1.1.15,3.71,3.71,0,0,1,1.07-.37,1.93,1.93,0,0,1,1.08.3,3.41,3.41,0,0,1,1.32,1.42c.29.51.48,1,.75,1.34a2.35,2.35,0,0,0,.73.65,1.19,1.19,0,0,0,1.09.15,3.78,3.78,0,0,1,1.08-.37A1.9,1.9,0,0,1,19.78,249Z"/><path class="cls-178" d="M238.08,174.27a.6.6,0,0,1,.29.56c0,.21-.19.3-.36.2a1.13,1.13,0,0,0-1.09-.15,3.91,3.91,0,0,1-1.08.35,1.83,1.83,0,0,1-1.08-.29,3.58,3.58,0,0,1-1.33-1.42,13.21,13.21,0,0,0-.74-1.34,2.35,2.35,0,0,0-.73-.65,1.21,1.21,0,0,0-1.1-.15,3.35,3.35,0,0,1-1.07.36,1.83,1.83,0,0,1-1.08-.29,3.61,3.61,0,0,1-1.32-1.42,14,14,0,0,0-.75-1.34,2.42,2.42,0,0,0-.72-.65,1.21,1.21,0,0,0-1.1-.15,3.83,3.83,0,0,1-1.07.36,1.83,1.83,0,0,1-1.08-.29,3.57,3.57,0,0,1-1.33-1.42,10.7,10.7,0,0,0-.75-1.34,2.2,2.2,0,0,0-.72-.65.58.58,0,0,1-.25-.54c0-.21.19-.29.35-.2a3.71,3.71,0,0,1,1.33,1.42,14.14,14.14,0,0,0,.74,1.34,2.23,2.23,0,0,0,.73.65,1.21,1.21,0,0,0,1.1.15,4,4,0,0,1,1.06-.37,1.79,1.79,0,0,1,1,.29,3.53,3.53,0,0,1,1.36,1.43,12.89,12.89,0,0,0,.75,1.34,2.3,2.3,0,0,0,.72.65,1.21,1.21,0,0,0,1.1.15,4.58,4.58,0,0,1,1.07-.37,1.82,1.82,0,0,1,1.05.29,3.6,3.6,0,0,1,1.36,1.43,11.28,11.28,0,0,0,.75,1.34,2.19,2.19,0,0,0,.72.65,1.21,1.21,0,0,0,1.1.15A4.18,4.18,0,0,1,237,174,1.8,1.8,0,0,1,238.08,174.27Z"/><path class="cls-178" d="M167.21,263.87a.59.59,0,0,1,.28.56c0,.21-.18.3-.35.2a1.15,1.15,0,0,0-1.1-.15,4.05,4.05,0,0,1-1.07.36,1.85,1.85,0,0,1-1.08-.3,3.51,3.51,0,0,1-1.33-1.42,13.14,13.14,0,0,0-.75-1.34,2.18,2.18,0,0,0-.72-.64A1.19,1.19,0,0,0,160,261a3.35,3.35,0,0,1-1.07.36,1.83,1.83,0,0,1-1.08-.29,3.41,3.41,0,0,1-1.32-1.42,14,14,0,0,0-.75-1.34,2.33,2.33,0,0,0-.73-.64,1.13,1.13,0,0,0-1.09-.15,3.8,3.8,0,0,1-1.08.35,1.8,1.8,0,0,1-1.07-.29,3.57,3.57,0,0,1-1.33-1.42,14,14,0,0,0-.75-1.34,2.42,2.42,0,0,0-.72-.65.57.57,0,0,1-.25-.54c0-.21.19-.29.35-.19a3.62,3.62,0,0,1,1.33,1.41,11.34,11.34,0,0,0,.74,1.34,2.23,2.23,0,0,0,.73.65A1.19,1.19,0,0,0,153,257a4.18,4.18,0,0,1,1.07-.36,1.78,1.78,0,0,1,1.05.28,3.6,3.6,0,0,1,1.36,1.43,15.21,15.21,0,0,0,.74,1.34,2.46,2.46,0,0,0,.73.65,1.19,1.19,0,0,0,1.09.15,4.4,4.4,0,0,1,1.08-.36,1.8,1.8,0,0,1,1,.28,3.67,3.67,0,0,1,1.36,1.43,10,10,0,0,0,.75,1.34,2.09,2.09,0,0,0,.72.65,1.21,1.21,0,0,0,1.1.15,4.18,4.18,0,0,1,1.07-.36A1.88,1.88,0,0,1,167.21,263.87Z"/><path class="cls-180" d="M256.85,76.88a6.15,6.15,0,0,1,1.74,5c-.29,2.11-1.92,3-3.64,2l-10.54-6.08a7.69,7.69,0,0,1-3.31-7.18c.37-2.67,2.44-3.87,4.61-2.61a3.58,3.58,0,0,1,.46.3c1.24-2.11,3.54-2.65,5.86-1.31C255.07,68.74,257.17,73.1,256.85,76.88Zm-1.73,5.75c1.16.67,2.27.05,2.46-1.38a4.11,4.11,0,0,0-1.45-3.59,1,1,0,0,1-.34-.86c.44-3.24-1.32-7.07-3.93-8.58a3.32,3.32,0,0,0-5,1.42.35.35,0,0,1-.53.15.28.28,0,0,1-.11-.08,3.5,3.5,0,0,0-.64-.46c-1.63-1-3.19-.08-3.46,1.93a5.73,5.73,0,0,0,2.47,5.37l10.54,6.08"/><path class="cls-181" d="M54.36,40.22c-1-.59-2,0-2.16,1.21a3.71,3.71,0,0,0,1,3l-.19,1.36a1,1,0,0,0,.42.91c.28.16.54,0,.59-.33L54.25,45c.82.18,1.51-.38,1.65-1.41A3.58,3.58,0,0,0,54.36,40.22Zm-.46,3.31A1.62,1.62,0,0,1,53.2,42c.08-.58.52-.83,1-.56A1.64,1.64,0,0,1,54.9,43C54.82,43.56,54.38,43.81,53.9,43.53Z"/><path class="cls-181" d="M57.26,39.24l.22-1.6a4.45,4.45,0,0,0-1.92-4.16l-.53-.3c-1.27-.74-2.47-.06-2.69,1.5l-.21,1.6c-1.2-.57-2.31.11-2.51,1.59l-.78,5.73a4.45,4.45,0,0,0,1.92,4.16l4.77,2.76c1.27.73,2.48,0,2.69-1.51L59,43.29A4.53,4.53,0,0,0,57.26,39.24Zm-3.91-4c.12-.88.8-1.26,1.52-.84l.52.3a2.5,2.5,0,0,1,1.09,2.35l-.22,1.59-3.13-1.81ZM58,42.71l-.78,5.73c-.11.87-.79,1.26-1.51.84l-4.78-2.75a2.53,2.53,0,0,1-1.07-2.35l.78-5.72c.12-.89.79-1.27,1.51-.85l.32.18,4.13,2.39.32.18A2.51,2.51,0,0,1,58,42.71Z"/><path class="cls-182" d="M189.22,33.49s0-.06,0-.08a3.52,3.52,0,0,0-1.53-2.61l-10-5.8a1.31,1.31,0,0,0-2,.63h0a2.17,2.17,0,0,0-.16.56l-1.16,8.54a3.57,3.57,0,0,0,1.53,3.32l10,5.79c1,.59,2,0,2.15-1.19l1.16-8.54A3.32,3.32,0,0,0,189.22,33.49Zm-11.75-7.25,10,5.8a1.48,1.48,0,0,1,.58.71l-6.32,1.68-5-8.2A.6.6,0,0,1,177.47,26.24ZM187,42.07c-.08.57-.52.81-1,.55l-10-5.8a1.62,1.62,0,0,1-.7-1.5l1.07-7.88,4.9,8.09a.93.93,0,0,0,.28.28.44.44,0,0,0,.31.06l6.22-1.66Z"/><path class="cls-9" d="M294.12,142.55c4.06,2.34,6.91,7.52,6.37,11.54a4.45,4.45,0,0,1-5.5,4.1c-2.09,1.77-5,.19-5.31,0a1,1,0,0,1-.45-.7.52.52,0,0,1,.24-.59,3.52,3.52,0,0,0,1.18-.8c-3.29-2.64-5.36-7-4.88-10.51C286.31,141.57,290.06,140.21,294.12,142.55Zm.57,14.26c2.57.49,4.45-.8,4.79-3.3.46-3.34-2-7.7-5.53-9.72s-6.72-1-7.18,2.38c-.42,3.1,1.67,7.09,4.85,9.29a.94.94,0,0,1,.35.51.79.79,0,0,1-.05.58,3.52,3.52,0,0,1-.77.94,3.28,3.28,0,0,0,3.24-.6.33.33,0,0,1,.3-.08"/></g></g></svg>