<svg id="Layer_1" data-name="Layer 1" xmlns="http://www.w3.org/2000/svg" viewBox="0 0 92.42 98.79"><defs><style>.cls-1{fill:#02265d;}.cls-2{fill:#0598d8;}</style></defs><title>صور وايقونات</title><path class="cls-1" d="M46.24,14.05A32.18,32.18,0,0,0,28.8,73.28a30.77,30.77,0,0,0,6.55,3.25H57.13a31.67,31.67,0,0,0,6.5-3.2A32.19,32.19,0,0,0,46.24,14.05ZM61.47,73.32l-30.7,0a31.13,31.13,0,1,1,30.7,0Z"/><path class="cls-1" d="M52.51,46.39A1.44,1.44,0,0,1,51,47.8c-1.21,0-2.43.06-3.64,0-.86,0-1.18.22-1.13,1.11.06,1.38,0,2.76,0,4.14,0,.63,0,1.37-.88,1.13s-2,.78-2.44-.82c-.69-2.61-2.46-4-4.8-3.94A4.65,4.65,0,0,0,33.69,53c-.22,1-.61,1.27-1.53,1.18s-1.78-.42-1.84-1.52a27.63,27.63,0,0,1,0-3.64C30.41,48,30,47.73,29,47.8c-1.15.08-2.31,0-3.47,0a1.53,1.53,0,0,1-.12-3.06,32.21,32.21,0,0,1,3.8-.1c.89,0,1.16-.29,1.11-1.14-.06-1.1,0-2.21,0-3.31s.62-1.77,1.76-2,1.42.37,1.65,1.41a4.75,4.75,0,0,0,4.55,3.44,4.55,4.55,0,0,0,4.47-3.52c.35-2,1.71-1.29,2.73-1.3,1.35,0,.57,1.14.72,1.76a6.64,6.64,0,0,1,0,1.48c0,3.13,0,3.13,3.06,3.14a15.45,15.45,0,0,1,1.81.09A1.45,1.45,0,0,1,52.51,46.39Z"/><path class="cls-1" d="M68.49,52.13c-.07,1.26-.49,2-1.79,2.08-2.37,0-4.74,0-7.12,0H58.42c-2.64,0-5.29-.06-7.94,0-1.4,0-1.14-.85-1.13-1.64S49.05,51,50.46,51c3.34-.08,5.33-2,5.29-4.85,0-2.65-2.12-4.54-5.36-4.62-1.48,0-1-1-1-1.69s-.27-1.7,1.13-1.63c1.87.09,3.75,0,5.63,0,1,0,1.41-.2,1.32-1.27s0-2.21,0-3.31a1.46,1.46,0,0,1,1.4-1.7c1.08-.08,1.61.63,1.66,1.64a28.12,28.12,0,0,1,0,3.31c-.06,1,.21,1.39,1.27,1.33,1.54-.08,3.09,0,4.63,0,1.07,0,1.94.32,2.08,1.63s-.22,1.66-1.57,1.67a4.69,4.69,0,0,0-4.75,4.71A4.83,4.83,0,0,0,66.86,51C67.61,51.07,68.55,50.68,68.49,52.13Z"/><path class="cls-1" d="M39.14,79.62a34,34,0,0,0,14,0Zm7-67.5A34.11,34.11,0,0,0,25.72,73.55a36,36,0,0,0,4.77,3q2.43,0,4.86,0H39a31.14,31.14,0,1,1,22.48-3.2,30.55,30.55,0,0,1-8.16,3.2h3.82c1.56,0,3.11,0,4.67,0A34.11,34.11,0,0,0,46.15,12.12Z"/><path class="cls-1" d="M69.35,82c-.19-.38-.43-.66-.22-1.19,1.55-3.8.91-5.73-2.46-7.36l-.28-.14H61.47q-15.36,0-30.71,0H27.47a13,13,0,0,0-1.63.2.67.67,0,0,0-.12.06c-3.24,1.34-4.25,4-2.6,7.07.39.74.05,1.08-.21,1.6a4.72,4.72,0,0,0,1.9,6.4,6.34,6.34,0,0,0,3.86.58,2.69,2.69,0,0,1,2.86,1.55,17.34,17.34,0,0,0,28.58,1,5.27,5.27,0,0,1,5-2.59C69.11,89.25,71.18,85.55,69.35,82Zm-42.3-5.48c.44,0,.88,0,1.33,0h2.11q2.43,0,4.86,0H57.13c1.56,0,3.11,0,4.67,0h2.33c.39,0,.77,0,1.16,0a1.54,1.54,0,1,1,0,3.08H28.35c-.44,0-.88,0-1.32,0a1.41,1.41,0,0,1-1.48-1.47A1.44,1.44,0,0,1,27.05,76.54Zm19.4,19c-5,.07-8.92-2-12.06-6.22H58C55,93.35,51.26,95.45,46.45,95.53Zm19.3-9.61a7.33,7.33,0,0,1-1.48.11H28.17A11.16,11.16,0,0,1,27,86a1.56,1.56,0,0,1,0-3.12c.38,0,.77,0,1.16,0h36.1a5.8,5.8,0,0,1,1.32,0,1.48,1.48,0,0,1,1.23,1.54A1.38,1.38,0,0,1,65.75,85.92Z"/><path class="cls-1" d="M44.58,4.87V2.23c0-2.34,0-2.31,2.32-2.19.71,0,1,.23.93,1,0,2.53,0,5.06,0,7.59,0,1.63-1.14.92-1.85,1s-1.54.13-1.43-1.11S44.58,6.08,44.58,4.87Z"/><path class="cls-1" d="M73.06,21.5a18.27,18.27,0,0,1-1.85-2.14c-.34-.55.42-.79.73-1.1,1.65-1.7,3.4-3.3,5-5.05,1-1.09,1.4-.12,1.88.41s1.58.82.46,1.85c-1.82,1.68-3.53,3.47-5.29,5.21C73.75,20.91,73.49,21.12,73.06,21.5Z"/><path class="cls-1" d="M21.43,19.26a17.1,17.1,0,0,1-2,1.86c-.66.46-.92-.38-1.25-.7C16.42,18.75,14.76,17,13,15.32c-.88-.82,0-1.21.38-1.47S14.13,12,15.22,13c2,1.86,3.83,3.79,5.74,5.69C21.1,18.87,21.23,19,21.43,19.26Z"/><path class="cls-1" d="M4.8,47.82a23.31,23.31,0,0,0-3.13,0C.19,48.05,0,47.4,0,46.11s.4-1.57,1.6-1.52c2.25.1,4.51.11,6.76,0,1.49-.07,1.2.87,1.2,1.71s.3,1.71-1.14,1.55A33.59,33.59,0,0,0,4.8,47.82Z"/><path class="cls-1" d="M87.61,47.82H85c-2.34,0-2.37-.07-2.16-2.34.06-.64.28-.87.89-.86,2.59,0,5.17,0,7.75,0,1.59,0,.71,1.28.87,2s.15,1.31-.92,1.23C90.14,47.76,88.87,47.82,87.61,47.82Z"/><path class="cls-1" d="M71.73,48.9c0-.9-.31-1.14-1.15-1.1-1.1.07-2.21,0-3.31,0s-1.88-.35-1.88-1.57.8-1.5,1.75-1.56c1.21-.07,2.43,0,3.64,0,.56,0,1-.07.94-.79,0-1.54.07-3.1-.12-4.63a4.64,4.64,0,0,0-4.66-4.08,14,14,0,0,0-1.83,0c-1,.1-1.44-.14-1.44-1.32a4.75,4.75,0,1,0-9.48,0c0,1.16-.41,1.35-1.43,1.33-3.2,0-6.4,0-9.6,0-1,0-2.28-.25-3,.22S40,37.09,39.85,38a1.65,1.65,0,0,1,0,.32c-.25.85-.64,1.58-1.69,1.48s-1.4-.72-1.47-1.66.46-2.32-.27-2.81-2-.18-3.05-.21H32.5c-3.42,0-5.25,1.68-5.42,5.08,0,1-.23,1.29-1.28,1.3-3,0-5.06,2-5.05,4.76A4.69,4.69,0,0,0,25.66,51c1.23,0,1.37.44,1.43,1.51.19,3.14,2.13,4.86,5.3,4.88,1,0,2.1,0,3.14,0,.85,0,1.23-.19,1.13-1.1a9.37,9.37,0,0,1,0-2c.08-.9.5-1.62,1.52-1.63s1.59.62,1.64,1.66a7.42,7.42,0,0,1,0,1.49c-.17,1.18.19,1.61,1.5,1.57,4.19-.09,8.39,0,12.57,0s8.51,0,12.76,0a4.77,4.77,0,0,0,5-4.82C71.75,51.33,71.65,50.11,71.73,48.9ZM47.32,47.8c-.86,0-1.18.22-1.13,1.11.06,1.38,0,2.76,0,4.14,0,.63,0,1.37-.88,1.13s-2,.78-2.44-.82c-.69-2.61-2.46-4-4.8-3.94A4.65,4.65,0,0,0,33.69,53c-.22,1-.61,1.27-1.53,1.18s-1.78-.42-1.84-1.52a27.63,27.63,0,0,1,0-3.64C30.41,48,30,47.73,29,47.8c-1.15.08-2.31,0-3.47,0a1.53,1.53,0,0,1-.12-3.06,32.21,32.21,0,0,1,3.8-.1c.89,0,1.16-.29,1.11-1.14-.06-1.1,0-2.21,0-3.31s.62-1.77,1.76-2,1.42.37,1.65,1.41a4.75,4.75,0,0,0,4.55,3.44,4.55,4.55,0,0,0,4.47-3.52c.35-2,1.71-1.29,2.73-1.3,1.35,0,.57,1.14.72,1.76a6.64,6.64,0,0,1,0,1.48c0,3.13,0,3.13,3.06,3.14a15.45,15.45,0,0,1,1.81.09A1.54,1.54,0,0,1,51,47.8C49.75,47.83,48.53,47.86,47.32,47.8ZM66.7,54.21c-2.37,0-4.74,0-7.12,0H58.42c-2.64,0-5.29-.06-7.94,0-1.4,0-1.14-.85-1.13-1.64S49.05,51,50.46,51c3.34-.08,5.33-2,5.29-4.85,0-2.65-2.12-4.54-5.36-4.62-1.48,0-1-1-1-1.69s-.27-1.7,1.13-1.63c1.87.09,3.75,0,5.63,0,1,0,1.41-.2,1.32-1.27s0-2.21,0-3.31a1.46,1.46,0,0,1,1.4-1.7c1.08-.08,1.61.63,1.66,1.64a28.12,28.12,0,0,1,0,3.31c-.06,1,.21,1.39,1.27,1.33,1.54-.08,3.09,0,4.63,0,1.07,0,1.94.32,2.08,1.63s-.22,1.66-1.57,1.67a4.69,4.69,0,0,0-4.75,4.71A4.83,4.83,0,0,0,66.86,51c.75,0,1.69-.34,1.63,1.11C68.42,53.39,68,54.18,66.7,54.21Z"/><path class="cls-1" d="M52.51,46.39A1.44,1.44,0,0,1,51,47.8c-1.21,0-2.43.06-3.64,0-.86,0-1.18.22-1.13,1.11.06,1.38,0,2.76,0,4.14,0,.63,0,1.37-.88,1.13s-2,.78-2.44-.82c-.69-2.61-2.46-4-4.8-3.94A4.65,4.65,0,0,0,33.69,53c-.22,1-.61,1.27-1.53,1.18s-1.78-.42-1.84-1.52a27.63,27.63,0,0,1,0-3.64C30.41,48,30,47.73,29,47.8c-1.15.08-2.31,0-3.47,0a1.53,1.53,0,0,1-.12-3.06,32.21,32.21,0,0,1,3.8-.1c.89,0,1.16-.29,1.11-1.14-.06-1.1,0-2.21,0-3.31s.62-1.77,1.76-2,1.42.37,1.65,1.41a4.75,4.75,0,0,0,4.55,3.44,4.55,4.55,0,0,0,4.47-3.52c.35-2,1.71-1.29,2.73-1.3,1.35,0,.57,1.14.72,1.76a6.64,6.64,0,0,1,0,1.48c0,3.13,0,3.13,3.06,3.14a15.45,15.45,0,0,1,1.81.09A1.45,1.45,0,0,1,52.51,46.39Z"/><path class="cls-1" d="M68.49,52.13c-.07,1.26-.49,2-1.79,2.08-2.37,0-4.74,0-7.12,0H58.42c-2.64,0-5.29-.06-7.94,0-1.4,0-1.14-.85-1.13-1.64S49.05,51,50.46,51c3.34-.08,5.33-2,5.29-4.85,0-2.65-2.12-4.54-5.36-4.62-1.48,0-1-1-1-1.69s-.27-1.7,1.13-1.63c1.87.09,3.75,0,5.63,0,1,0,1.41-.2,1.32-1.27s0-2.21,0-3.31a1.46,1.46,0,0,1,1.4-1.7c1.08-.08,1.61.63,1.66,1.64a28.12,28.12,0,0,1,0,3.31c-.06,1,.21,1.39,1.27,1.33,1.54-.08,3.09,0,4.63,0,1.07,0,1.94.32,2.08,1.63s-.22,1.66-1.57,1.67a4.69,4.69,0,0,0-4.75,4.71A4.83,4.83,0,0,0,66.86,51C67.61,51.07,68.55,50.68,68.49,52.13Z"/><path class="cls-2" d="M68.49,52.13c-.07,1.26-.49,2-1.79,2.08-2.37,0-4.74,0-7.12,0H58.42c-2.64,0-5.29-.06-7.94,0-1.4,0-1.14-.85-1.13-1.64S49.05,51,50.46,51c3.34-.08,5.33-2,5.29-4.85,0-2.65-2.12-4.54-5.36-4.62-1.48,0-1-1-1-1.69s-.27-1.7,1.13-1.63c1.87.09,3.75,0,5.63,0,1,0,1.41-.2,1.32-1.27s0-2.21,0-3.31a1.46,1.46,0,0,1,1.4-1.7c1.08-.08,1.61.63,1.66,1.64a28.12,28.12,0,0,1,0,3.31c-.06,1,.21,1.39,1.27,1.33,1.54-.08,3.09,0,4.63,0,1.07,0,1.94.32,2.08,1.63s-.22,1.66-1.57,1.67a4.69,4.69,0,0,0-4.75,4.71A4.83,4.83,0,0,0,66.86,51C67.61,51.07,68.55,50.68,68.49,52.13Z"/><path class="cls-2" d="M52.51,46.39A1.44,1.44,0,0,1,51,47.8c-1.21,0-2.43.06-3.64,0-.86,0-1.18.22-1.13,1.11.06,1.38,0,2.76,0,4.14,0,.63,0,1.37-.88,1.13s-2,.78-2.44-.82c-.69-2.61-2.46-4-4.8-3.94A4.65,4.65,0,0,0,33.69,53c-.22,1-.61,1.27-1.53,1.18s-1.78-.42-1.84-1.52a27.63,27.63,0,0,1,0-3.64C30.41,48,30,47.73,29,47.8c-1.15.08-2.31,0-3.47,0a1.53,1.53,0,0,1-.12-3.06,32.21,32.21,0,0,1,3.8-.1c.89,0,1.16-.29,1.11-1.14-.06-1.1,0-2.21,0-3.31s.62-1.77,1.76-2,1.42.37,1.65,1.41a4.75,4.75,0,0,0,4.55,3.44,4.55,4.55,0,0,0,4.47-3.52c.35-2,1.71-1.29,2.73-1.3,1.35,0,.57,1.14.72,1.76a6.64,6.64,0,0,1,0,1.48c0,3.13,0,3.13,3.06,3.14a15.45,15.45,0,0,1,1.81.09A1.45,1.45,0,0,1,52.51,46.39Z"/></svg>