<svg xmlns="http://www.w3.org/2000/svg" xmlns:xlink="http://www.w3.org/1999/xlink" viewBox="0 0 777.01 362.62"><defs><style>.cls-1{isolation:isolate;}.cls-2{fill:#55413c;}.cls-2,.cls-3{opacity:0.3;}.cls-10,.cls-2,.cls-27,.cls-3,.cls-38,.cls-39{mix-blend-mode:multiply;}.cls-14,.cls-3{fill:#b3b2b3;}.cls-4{fill:#fff;}.cls-5{fill:#eeecec;stroke:#cbcbca;stroke-miterlimit:10;stroke-width:3px;}.cls-6{fill:#f2f2f2;}.cls-7{fill:url(#Áåçûìÿííûé_ãðàäèåíò_45);}.cls-8{fill:#171716;}.cls-9{fill:url(#linear-gradient);}.cls-10{fill:#4d4e4e;opacity:0.7;}.cls-11,.cls-38,.cls-39{fill:#e5e5e4;}.cls-12{fill:#dbdada;}.cls-13{fill:#cbcbca;}.cls-15{fill:#d7d7d7;}.cls-16{fill:#dcd0c1;}.cls-17{fill:#8b6e52;}.cls-18{fill:#634930;}.cls-19{fill:#1a0f0e;}.cls-20{fill:#30201f;}.cls-21{fill:#413130;}.cls-22{fill:#4c3d3c;}.cls-23{fill:#5b4a4a;}.cls-24{fill:#473737;}.cls-25{fill:#2c190f;}.cls-26{fill:#4d3011;}.cls-27{opacity:0.4;fill:url(#Áåçûìÿííûé_ãðàäèåíò_7);}.cls-28{fill:#e8e7e7;}.cls-29{fill:#333;}.cls-30{fill:#9e9e9e;}.cls-31{fill:#676767;}.cls-32,.cls-34{fill:#30281f;}.cls-33{fill:#181411;}.cls-34{mix-blend-mode:screen;}.cls-35{fill:#48a046;}.cls-36{fill:#6db450;}.cls-37{fill:#30773b;}.cls-39{opacity:0.8;}.cls-40{fill:#030303;}</style><linearGradient id="Áåçûìÿííûé_ãðàäèåíò_45" x1="231.8" y1="282.76" x2="478.28" y2="140.46" gradientUnits="userSpaceOnUse"><stop offset="0" stop-color="#4f4f4f"/><stop offset="1" stop-color="#a8a8a8"/></linearGradient><linearGradient id="linear-gradient" x1="193.2" y1="77.85" x2="517.92" y2="77.85" gradientUnits="userSpaceOnUse"><stop offset="0" stop-color="#023066"/><stop offset="0.3" stop-color="#022b61"/><stop offset="0.65" stop-color="#021d54"/><stop offset="1" stop-color="#03073f"/></linearGradient><radialGradient id="Áåçûìÿííûé_ãðàäèåíò_7" cx="-2526.46" cy="117.34" r="70.94" gradientTransform="matrix(0.84, 0.55, -0.55, 0.84, 2847.07, 1400.09)" gradientUnits="userSpaceOnUse"><stop offset="0" stop-color="#fff"/><stop offset="1" stop-color="#979797"/></radialGradient></defs><title>صور وايقونات</title><g class="cls-1"><g id="Layer_1" data-name="Layer 1"><g id="_Group_" data-name="&lt;Group&gt;"><g id="_Group_2" data-name="&lt;Group&gt;"><path id="_Path_" data-name="&lt;Path&gt;" class="cls-2" d="M498.46,153H219.69A10.66,10.66,0,0,0,209,163.7V344.43a11.66,11.66,0,0,0,1.19,5.14,11.77,11.77,0,0,0,9.44,6.64,12.1,12.1,0,0,0,1.21.06h25.8l250.61,0a11.85,11.85,0,0,0,11.85-11.85V163.7A10.66,10.66,0,0,0,498.46,153Z"/><path id="_Path_2" data-name="&lt;Path&gt;" class="cls-3" d="M515.05,26.12h-312a13.89,13.89,0,0,0-13.67,16.37l18,99.5a10.54,10.54,0,0,0,10.37,8.66h282.5A10.54,10.54,0,0,0,510.69,142l18-99.5A13.89,13.89,0,0,0,515.05,26.12Z"/></g><g id="laptop"><path id="_Path_3" data-name="&lt;Path&gt;" class="cls-4" d="M216.17,142.5a10.66,10.66,0,0,0-10.66,10.66V333.89a11.86,11.86,0,0,0,11.85,11.85l276.41,0a11.85,11.85,0,0,0,11.85-11.85V153.16a10.66,10.66,0,0,0-10.67-10.66Z"/><rect id="_Path_4" data-name="&lt;Path&gt;" class="cls-5" x="311.73" y="280.03" width="86.93" height="55.03" rx="5.38" ry="5.38"/><g id="_Group_3" data-name="&lt;Group&gt;"><g id="_Group_4" data-name="&lt;Group&gt;"><path id="_Compound_Path_" data-name="&lt;Compound Path&gt;" class="cls-6" d="M222.13,160.62V263.74a6.33,6.33,0,0,0,6.33,6.33H481.93a6.33,6.33,0,0,0,6.33-6.33V160.62a8.63,8.63,0,0,0-8.63-8.63H230.76A8.63,8.63,0,0,0,222.13,160.62Z"/><path id="_Compound_Path_2" data-name="&lt;Compound Path&gt;" class="cls-7" d="M481.93,270.36H228.46a6.62,6.62,0,0,1-6.61-6.62V160.62a8.92,8.92,0,0,1,8.91-8.91H479.63a8.92,8.92,0,0,1,8.91,8.91V263.74A6.63,6.63,0,0,1,481.93,270.36ZM230.76,152.28a8.36,8.36,0,0,0-8.35,8.34V263.74a6.06,6.06,0,0,0,6.05,6.05H481.93a6.06,6.06,0,0,0,6.05-6.05V160.62a8.36,8.36,0,0,0-8.35-8.34Z"/></g></g><rect id="_Path_5" data-name="&lt;Path&gt;" class="cls-8" x="304.25" y="247.69" width="101.92" height="17.3" rx="2.48" ry="2.48"/><path id="_Rectangle_" data-name="&lt;Rectangle&gt;" class="cls-8" d="M412.23,247.69h8.55a4.38,4.38,0,0,1,4.38,4.38v8.55a4.37,4.37,0,0,1-4.37,4.37h-8.55a4.37,4.37,0,0,1-4.37-4.37v-8.55a4.38,4.38,0,0,1,4.38-4.38Z"/><path id="_Rectangle_2" data-name="&lt;Rectangle&gt;" class="cls-8" d="M431.66,247.7h8.55a4.38,4.38,0,0,1,4.38,4.38v8.55a4.37,4.37,0,0,1-4.37,4.37h-8.55a4.37,4.37,0,0,1-4.37-4.37v-8.55a4.37,4.37,0,0,1,4.37-4.37Z"/><path id="_Rectangle_3" data-name="&lt;Rectangle&gt;" class="cls-8" d="M451,247.7h8.55a4.38,4.38,0,0,1,4.38,4.38v8.55a4.38,4.38,0,0,1-4.38,4.38H451a4.37,4.37,0,0,1-4.37-4.37v-8.55A4.38,4.38,0,0,1,451,247.7Z"/><path id="_Rectangle_4" data-name="&lt;Rectangle&gt;" class="cls-8" d="M451,228.36h8.55a4.38,4.38,0,0,1,4.38,4.38v8.55a4.38,4.38,0,0,1-4.38,4.38H451a4.37,4.37,0,0,1-4.37-4.37v-8.55A4.38,4.38,0,0,1,451,228.36Z"/><path id="_Rectangle_5" data-name="&lt;Rectangle&gt;" class="cls-8" d="M470.27,228.36h8.55a4.37,4.37,0,0,1,4.37,4.37v8.55a4.38,4.38,0,0,1-4.38,4.38h-8.55a4.37,4.37,0,0,1-4.37-4.37v-8.55A4.38,4.38,0,0,1,470.27,228.36Z"/><path id="_Rectangle_6" data-name="&lt;Rectangle&gt;" class="cls-8" d="M470.27,247.7h8.55a4.38,4.38,0,0,1,4.38,4.38v8.55a4.37,4.37,0,0,1-4.37,4.37h-8.55a4.37,4.37,0,0,1-4.37-4.37v-8.55A4.38,4.38,0,0,1,470.27,247.7Z"/><path id="_Rectangle_7" data-name="&lt;Rectangle&gt;" class="cls-8" d="M470.27,209.51h8.55a4.38,4.38,0,0,1,4.38,4.38v8.55a4.37,4.37,0,0,1-4.37,4.37h-8.55a4.37,4.37,0,0,1-4.37-4.37v-8.55a4.38,4.38,0,0,1,4.38-4.38Z"/><path id="_Rectangle_8" data-name="&lt;Rectangle&gt;" class="cls-8" d="M411.23,209.51h8.55a4.38,4.38,0,0,1,4.38,4.38v8.55a4.37,4.37,0,0,1-4.37,4.37h-8.55a4.37,4.37,0,0,1-4.37-4.37v-8.55A4.38,4.38,0,0,1,411.23,209.51Z"/><path id="_Rectangle_9" data-name="&lt;Rectangle&gt;" class="cls-8" d="M391.9,209.51h8.55a4.38,4.38,0,0,1,4.38,4.38v8.55a4.37,4.37,0,0,1-4.37,4.37H391.9a4.37,4.37,0,0,1-4.37-4.37v-8.55a4.38,4.38,0,0,1,4.38-4.38Z"/><path id="_Rectangle_10" data-name="&lt;Rectangle&gt;" class="cls-8" d="M372.72,209.51h8.55a4.38,4.38,0,0,1,4.38,4.38v8.55a4.37,4.37,0,0,1-4.37,4.37h-8.55a4.37,4.37,0,0,1-4.37-4.37v-8.55a4.38,4.38,0,0,1,4.38-4.38Z"/><path id="_Rectangle_11" data-name="&lt;Rectangle&gt;" class="cls-8" d="M353.64,209.51h8.55a4.38,4.38,0,0,1,4.38,4.38v8.55a4.37,4.37,0,0,1-4.37,4.37h-8.55a4.37,4.37,0,0,1-4.37-4.37v-8.55a4.38,4.38,0,0,1,4.38-4.38Z"/><path id="_Rectangle_12" data-name="&lt;Rectangle&gt;" class="cls-8" d="M334.74,209.51h8.55a4.38,4.38,0,0,1,4.38,4.38v8.55a4.37,4.37,0,0,1-4.37,4.37h-8.55a4.37,4.37,0,0,1-4.37-4.37v-8.55a4.38,4.38,0,0,1,4.38-4.38Z"/><path id="_Rectangle_13" data-name="&lt;Rectangle&gt;" class="cls-8" d="M315.75,209.51h8.55a4.38,4.38,0,0,1,4.38,4.38v8.55a4.37,4.37,0,0,1-4.37,4.37h-8.55a4.37,4.37,0,0,1-4.37-4.37v-8.55a4.38,4.38,0,0,1,4.38-4.38Z"/><path id="_Rectangle_14" data-name="&lt;Rectangle&gt;" class="cls-8" d="M296.76,209.51h8.55a4.38,4.38,0,0,1,4.38,4.38v8.55a4.37,4.37,0,0,1-4.37,4.37h-8.55a4.37,4.37,0,0,1-4.37-4.37v-8.55A4.38,4.38,0,0,1,296.76,209.51Z"/><path id="_Rectangle_15" data-name="&lt;Rectangle&gt;" class="cls-8" d="M277.72,209.51h8.55a4.38,4.38,0,0,1,4.38,4.38v8.55a4.37,4.37,0,0,1-4.37,4.37h-8.55a4.37,4.37,0,0,1-4.37-4.37v-8.55A4.38,4.38,0,0,1,277.72,209.51Z"/><path id="_Rectangle_16" data-name="&lt;Rectangle&gt;" class="cls-8" d="M259,209.51h8.55a4.38,4.38,0,0,1,4.38,4.38v8.55a4.37,4.37,0,0,1-4.37,4.37H259a4.37,4.37,0,0,1-4.37-4.37v-8.55a4.38,4.38,0,0,1,4.38-4.38Z"/><path id="_Rectangle_17" data-name="&lt;Rectangle&gt;" class="cls-8" d="M231.71,209.51h16.82a4.38,4.38,0,0,1,4.38,4.38v8.55a4.37,4.37,0,0,1-4.37,4.37H231.71a4.37,4.37,0,0,1-4.37-4.37v-8.55A4.38,4.38,0,0,1,231.71,209.51Z"/><rect id="_Path_6" data-name="&lt;Path&gt;" class="cls-8" x="426.28" y="209.51" width="37.61" height="17.3" rx="3.29" ry="3.29"/><path id="_Rectangle_18" data-name="&lt;Rectangle&gt;" class="cls-8" d="M470.27,170.64h8.55a4.38,4.38,0,0,1,4.38,4.38v8.55a4.37,4.37,0,0,1-4.37,4.37h-8.55a4.37,4.37,0,0,1-4.37-4.37V175a4.38,4.38,0,0,1,4.38-4.38Z"/><path id="_Rectangle_19" data-name="&lt;Rectangle&gt;" class="cls-8" d="M451,170.64h8.55a4.38,4.38,0,0,1,4.38,4.38v8.55a4.37,4.37,0,0,1-4.37,4.37H451a4.37,4.37,0,0,1-4.37-4.37V175a4.38,4.38,0,0,1,4.38-4.38Z"/><path id="_Rectangle_20" data-name="&lt;Rectangle&gt;" class="cls-8" d="M431.49,170.64H440a4.38,4.38,0,0,1,4.38,4.38v8.55a4.37,4.37,0,0,1-4.37,4.37h-8.55a4.37,4.37,0,0,1-4.37-4.37V175a4.38,4.38,0,0,1,4.38-4.38Z"/><path id="_Rectangle_21" data-name="&lt;Rectangle&gt;" class="cls-8" d="M412.36,170.64h8.55a4.37,4.37,0,0,1,4.37,4.37v8.55a4.37,4.37,0,0,1-4.37,4.37h-8.55a4.37,4.37,0,0,1-4.37-4.37V175a4.38,4.38,0,0,1,4.38-4.38Z"/><path id="_Rectangle_22" data-name="&lt;Rectangle&gt;" class="cls-8" d="M393.39,170.64h8.55a4.38,4.38,0,0,1,4.38,4.38v8.55a4.37,4.37,0,0,1-4.37,4.37h-8.55a4.37,4.37,0,0,1-4.37-4.37V175a4.38,4.38,0,0,1,4.38-4.38Z"/><path id="_Rectangle_23" data-name="&lt;Rectangle&gt;" class="cls-8" d="M374.08,170.64h8.55A4.38,4.38,0,0,1,387,175v8.55a4.37,4.37,0,0,1-4.37,4.37h-8.55a4.37,4.37,0,0,1-4.37-4.37V175a4.38,4.38,0,0,1,4.38-4.38Z"/><path id="_Rectangle_24" data-name="&lt;Rectangle&gt;" class="cls-8" d="M354.84,170.64h8.55a4.38,4.38,0,0,1,4.38,4.38v8.55a4.37,4.37,0,0,1-4.37,4.37h-8.55a4.37,4.37,0,0,1-4.37-4.37V175a4.38,4.38,0,0,1,4.38-4.38Z"/><path id="_Rectangle_25" data-name="&lt;Rectangle&gt;" class="cls-8" d="M335.85,170.64h8.55a4.37,4.37,0,0,1,4.37,4.37v8.55a4.37,4.37,0,0,1-4.37,4.37h-8.55a4.37,4.37,0,0,1-4.37-4.37V175A4.38,4.38,0,0,1,335.85,170.64Z"/><path id="_Rectangle_26" data-name="&lt;Rectangle&gt;" class="cls-8" d="M316.48,170.64H325A4.38,4.38,0,0,1,329.4,175v8.55a4.37,4.37,0,0,1-4.37,4.37h-8.55a4.37,4.37,0,0,1-4.37-4.37V175A4.38,4.38,0,0,1,316.48,170.64Z"/><path id="_Rectangle_27" data-name="&lt;Rectangle&gt;" class="cls-8" d="M296.76,170.64h8.55a4.38,4.38,0,0,1,4.38,4.38v8.55a4.37,4.37,0,0,1-4.37,4.37h-8.55a4.37,4.37,0,0,1-4.37-4.37V175A4.38,4.38,0,0,1,296.76,170.64Z"/><path id="_Rectangle_28" data-name="&lt;Rectangle&gt;" class="cls-8" d="M277.3,170.64h8.55a4.38,4.38,0,0,1,4.38,4.38v8.55a4.37,4.37,0,0,1-4.37,4.37H277.3a4.37,4.37,0,0,1-4.37-4.37V175a4.38,4.38,0,0,1,4.38-4.38Z"/><path id="_Rectangle_29" data-name="&lt;Rectangle&gt;" class="cls-8" d="M258.12,170.64h8.55A4.38,4.38,0,0,1,271,175v8.55a4.37,4.37,0,0,1-4.37,4.37h-8.55a4.37,4.37,0,0,1-4.37-4.37V175a4.38,4.38,0,0,1,4.38-4.38Z"/><path id="_Rectangle_30" data-name="&lt;Rectangle&gt;" class="cls-8" d="M231.71,170.64h15.77a4.38,4.38,0,0,1,4.38,4.38v8.55a4.38,4.38,0,0,1-4.38,4.38H231.71a4.37,4.37,0,0,1-4.37-4.37V175a4.38,4.38,0,0,1,4.38-4.38Z"/><path id="_Rectangle_31" data-name="&lt;Rectangle&gt;" class="cls-8" d="M470.27,190.08h8.55a4.38,4.38,0,0,1,4.38,4.38V203a4.37,4.37,0,0,1-4.37,4.37h-8.55a4.37,4.37,0,0,1-4.37-4.37v-8.55a4.38,4.38,0,0,1,4.38-4.38Z"/><path id="_Rectangle_32" data-name="&lt;Rectangle&gt;" class="cls-8" d="M423.22,190.08h8.55a4.38,4.38,0,0,1,4.38,4.38V203a4.37,4.37,0,0,1-4.37,4.37h-8.55a4.37,4.37,0,0,1-4.37-4.37v-8.55a4.38,4.38,0,0,1,4.38-4.38Z"/><path id="_Rectangle_33" data-name="&lt;Rectangle&gt;" class="cls-8" d="M403.91,190.08h8.55a4.38,4.38,0,0,1,4.38,4.38V203a4.37,4.37,0,0,1-4.37,4.37h-8.55a4.37,4.37,0,0,1-4.37-4.37v-8.55A4.38,4.38,0,0,1,403.91,190.08Z"/><path id="_Rectangle_34" data-name="&lt;Rectangle&gt;" class="cls-8" d="M384.73,190.08h8.55a4.38,4.38,0,0,1,4.38,4.38V203a4.37,4.37,0,0,1-4.37,4.37h-8.55a4.37,4.37,0,0,1-4.37-4.37v-8.55a4.38,4.38,0,0,1,4.38-4.38Z"/><path id="_Rectangle_35" data-name="&lt;Rectangle&gt;" class="cls-8" d="M365.43,190.08H374a4.37,4.37,0,0,1,4.37,4.37V203a4.37,4.37,0,0,1-4.37,4.37h-8.55a4.37,4.37,0,0,1-4.37-4.37v-8.55A4.38,4.38,0,0,1,365.43,190.08Z"/><path id="_Rectangle_36" data-name="&lt;Rectangle&gt;" class="cls-8" d="M346.19,190.08h8.55a4.38,4.38,0,0,1,4.38,4.38V203a4.37,4.37,0,0,1-4.37,4.37h-8.55a4.37,4.37,0,0,1-4.37-4.37v-8.55a4.38,4.38,0,0,1,4.38-4.38Z"/><path id="_Rectangle_37" data-name="&lt;Rectangle&gt;" class="cls-8" d="M327.2,190.08h8.55a4.38,4.38,0,0,1,4.38,4.38V203a4.38,4.38,0,0,1-4.38,4.38H327.2a4.37,4.37,0,0,1-4.37-4.37v-8.55a4.38,4.38,0,0,1,4.38-4.38Z"/><path id="_Rectangle_38" data-name="&lt;Rectangle&gt;" class="cls-8" d="M308.27,190.08h8.55a4.38,4.38,0,0,1,4.38,4.38V203a4.38,4.38,0,0,1-4.38,4.38h-8.55a4.37,4.37,0,0,1-4.37-4.37v-8.55a4.38,4.38,0,0,1,4.38-4.38Z"/><path id="_Rectangle_39" data-name="&lt;Rectangle&gt;" class="cls-8" d="M289.15,190.08h8.55a4.37,4.37,0,0,1,4.37,4.37V203a4.37,4.37,0,0,1-4.37,4.37h-8.55a4.37,4.37,0,0,1-4.37-4.37v-8.55A4.38,4.38,0,0,1,289.15,190.08Z"/><path id="_Rectangle_40" data-name="&lt;Rectangle&gt;" class="cls-8" d="M269.88,190.08h8.55a4.38,4.38,0,0,1,4.38,4.38V203a4.37,4.37,0,0,1-4.37,4.37h-8.55A4.37,4.37,0,0,1,265.5,203v-8.55A4.38,4.38,0,0,1,269.88,190.08Z"/><path id="_Rectangle_41" data-name="&lt;Rectangle&gt;" class="cls-8" d="M251.26,190.08h8.55a4.37,4.37,0,0,1,4.37,4.37V203a4.37,4.37,0,0,1-4.37,4.37h-8.55a4.37,4.37,0,0,1-4.37-4.37v-8.55a4.38,4.38,0,0,1,4.38-4.38Z"/><path id="_Rectangle_42" data-name="&lt;Rectangle&gt;" class="cls-8" d="M231.71,190.31H241a4.38,4.38,0,0,1,4.38,4.38v8.55a4.37,4.37,0,0,1-4.37,4.37h-9.3a4.37,4.37,0,0,1-4.37-4.37v-8.55A4.38,4.38,0,0,1,231.71,190.31Z"/><path id="_Rectangle_43" data-name="&lt;Rectangle&gt;" class="cls-8" d="M442.69,190.08h16.82a4.38,4.38,0,0,1,4.38,4.38V203a4.38,4.38,0,0,1-4.38,4.38H442.69a4.37,4.37,0,0,1-4.37-4.37v-8.55a4.38,4.38,0,0,1,4.38-4.38Z"/><rect id="_Rectangle_44" data-name="&lt;Rectangle&gt;" class="cls-8" x="465.89" y="157.23" width="17.3" height="11.28" rx="3.44" ry="3.44"/><rect id="_Rectangle_45" data-name="&lt;Rectangle&gt;" class="cls-8" x="446.59" y="157.23" width="17.3" height="11.28" rx="3.44" ry="3.44"/><rect id="_Rectangle_46" data-name="&lt;Rectangle&gt;" class="cls-8" x="427.12" y="157.23" width="17.3" height="11.28" rx="3.44" ry="3.44"/><rect id="_Rectangle_47" data-name="&lt;Rectangle&gt;" class="cls-8" x="408.19" y="157.23" width="17.3" height="11.28" rx="3.44" ry="3.44"/><rect id="_Rectangle_48" data-name="&lt;Rectangle&gt;" class="cls-8" x="389.25" y="157.23" width="17.3" height="11.28" rx="3.44" ry="3.44"/><rect id="_Rectangle_49" data-name="&lt;Rectangle&gt;" class="cls-8" x="369.71" y="157.23" width="17.3" height="11.28" rx="3.44" ry="3.44"/><rect id="_Rectangle_50" data-name="&lt;Rectangle&gt;" class="cls-8" x="350.46" y="157.23" width="17.3" height="11.28" rx="3.44" ry="3.44"/><rect id="_Rectangle_51" data-name="&lt;Rectangle&gt;" class="cls-8" x="331.47" y="157.23" width="17.3" height="11.28" rx="3.44" ry="3.44"/><rect id="_Rectangle_52" data-name="&lt;Rectangle&gt;" class="cls-8" x="312.54" y="157.23" width="17.3" height="11.28" rx="3.44" ry="3.44"/><rect id="_Rectangle_53" data-name="&lt;Rectangle&gt;" class="cls-8" x="293.43" y="157.23" width="17.3" height="11.28" rx="3.44" ry="3.44"/><rect id="_Rectangle_54" data-name="&lt;Rectangle&gt;" class="cls-8" x="272.92" y="157.23" width="17.3" height="11.28" rx="3.44" ry="3.44"/><rect id="_Rectangle_55" data-name="&lt;Rectangle&gt;" class="cls-8" x="253.74" y="157.23" width="17.3" height="11.28" rx="3.44" ry="3.44"/><rect id="_Rectangle_56" data-name="&lt;Rectangle&gt;" class="cls-8" x="227.34" y="157.23" width="24.52" height="11.28" rx="3.44" ry="3.44"/><path id="_Rectangle_57" data-name="&lt;Rectangle&gt;" class="cls-8" d="M231.71,247.67h8.55a4.38,4.38,0,0,1,4.38,4.38v8.55a4.38,4.38,0,0,1-4.38,4.38h-8.55a4.38,4.38,0,0,1-4.38-4.38V252A4.37,4.37,0,0,1,231.71,247.67Z"/><path id="_Path_7" data-name="&lt;Path&gt;" class="cls-8" d="M260.78,228.36H230.63a3.29,3.29,0,0,0-3.29,3.29v10.72a3.29,3.29,0,0,0,3.29,3.29h30.15a3.29,3.29,0,0,0,3.29-3.29V231.65A3.29,3.29,0,0,0,260.78,228.36Z"/><path id="_Rectangle_58" data-name="&lt;Rectangle&gt;" class="cls-8" d="M270.45,228.36H279a4.37,4.37,0,0,1,4.37,4.37v8.55a4.38,4.38,0,0,1-4.38,4.38h-8.55a4.38,4.38,0,0,1-4.38-4.38v-8.55A4.37,4.37,0,0,1,270.45,228.36Z"/><path id="_Rectangle_59" data-name="&lt;Rectangle&gt;" class="cls-8" d="M289.75,228.36h8.55a4.37,4.37,0,0,1,4.37,4.37v8.55a4.37,4.37,0,0,1-4.37,4.37h-8.55a4.37,4.37,0,0,1-4.37-4.37v-8.55a4.38,4.38,0,0,1,4.38-4.38Z"/><path id="_Rectangle_60" data-name="&lt;Rectangle&gt;" class="cls-8" d="M308.62,228.36h8.55a4.37,4.37,0,0,1,4.37,4.37v8.55a4.38,4.38,0,0,1-4.38,4.38h-8.55a4.38,4.38,0,0,1-4.38-4.38v-8.55A4.37,4.37,0,0,1,308.62,228.36Z"/><path id="_Rectangle_61" data-name="&lt;Rectangle&gt;" class="cls-8" d="M327.8,228.36h8.55a4.37,4.37,0,0,1,4.37,4.37v8.55a4.38,4.38,0,0,1-4.38,4.38H327.8a4.38,4.38,0,0,1-4.38-4.38v-8.55a4.37,4.37,0,0,1,4.37-4.37Z"/><path id="_Rectangle_62" data-name="&lt;Rectangle&gt;" class="cls-8" d="M347,228.36h8.55a4.37,4.37,0,0,1,4.37,4.37v8.55a4.38,4.38,0,0,1-4.38,4.38H347a4.38,4.38,0,0,1-4.38-4.38v-8.55a4.37,4.37,0,0,1,4.37-4.37Z"/><path id="_Rectangle_63" data-name="&lt;Rectangle&gt;" class="cls-8" d="M366.16,228.36h8.55a4.37,4.37,0,0,1,4.37,4.37v8.55a4.38,4.38,0,0,1-4.38,4.38h-8.55a4.37,4.37,0,0,1-4.37-4.37v-8.55a4.37,4.37,0,0,1,4.37-4.37Z"/><path id="_Rectangle_64" data-name="&lt;Rectangle&gt;" class="cls-8" d="M385.15,228.36h8.55a4.37,4.37,0,0,1,4.37,4.37v8.55a4.38,4.38,0,0,1-4.38,4.38h-8.55a4.38,4.38,0,0,1-4.38-4.38v-8.55a4.37,4.37,0,0,1,4.37-4.37Z"/><path id="_Rectangle_65" data-name="&lt;Rectangle&gt;" class="cls-8" d="M404.33,228.36h8.55a4.37,4.37,0,0,1,4.37,4.37v8.55a4.38,4.38,0,0,1-4.38,4.38h-8.55a4.38,4.38,0,0,1-4.38-4.38v-8.55a4.37,4.37,0,0,1,4.37-4.37Z"/><path id="_Rectangle_66" data-name="&lt;Rectangle&gt;" class="cls-8" d="M424.07,228.36h16.07a4.37,4.37,0,0,1,4.37,4.37v8.55a4.38,4.38,0,0,1-4.38,4.38H424.07a4.37,4.37,0,0,1-4.37-4.37v-8.55a4.37,4.37,0,0,1,4.37-4.37Z"/><path id="_Rectangle_67" data-name="&lt;Rectangle&gt;" class="cls-8" d="M251.14,247.67h8.55a4.37,4.37,0,0,1,4.37,4.37v8.55a4.37,4.37,0,0,1-4.37,4.37h-8.55a4.38,4.38,0,0,1-4.38-4.38V252a4.37,4.37,0,0,1,4.37-4.37Z"/><path id="_Rectangle_68" data-name="&lt;Rectangle&gt;" class="cls-8" d="M270.45,247.67H279a4.38,4.38,0,0,1,4.38,4.38v8.55A4.37,4.37,0,0,1,279,265h-8.55a4.37,4.37,0,0,1-4.37-4.37V252a4.37,4.37,0,0,1,4.37-4.37Z"/><path id="_Rectangle_69" data-name="&lt;Rectangle&gt;" class="cls-8" d="M289.75,247.68h8.55a4.38,4.38,0,0,1,4.38,4.38v8.55A4.37,4.37,0,0,1,298.3,265h-8.55a4.38,4.38,0,0,1-4.38-4.38v-8.55a4.37,4.37,0,0,1,4.37-4.37Z"/><path id="_Path_8" data-name="&lt;Path&gt;" class="cls-6" d="M496.8,140.12H214.31a10.55,10.55,0,0,1-10.38-8.67l-18-99.5a13.89,13.89,0,0,1,13.67-16.37h312A13.9,13.9,0,0,1,525.21,32l-18,99.5A10.55,10.55,0,0,1,496.8,140.12Z"/><path id="_Path_9" data-name="&lt;Path&gt;" class="cls-9" d="M214.31,132.59a3,3,0,0,1-3-2.48l-18-99.5a6.36,6.36,0,0,1,6.27-7.5h312a6.36,6.36,0,0,1,6.27,7.5l-18,99.5a3,3,0,0,1-3,2.48Z"/><path id="_Path_10" data-name="&lt;Path&gt;" class="cls-10" d="M199.58,23.11a6.36,6.36,0,0,0-6.27,7.5l18,99.5a3,3,0,0,0,3,2.48H382.06L274.31,23.11Z"/><path id="_Path_11" data-name="&lt;Path&gt;" class="cls-3" d="M216.17,142.5a10.66,10.66,0,0,0-10.66,10.66V333.89a11.86,11.86,0,0,0,11.85,11.85h25.8L379.62,142.5Z"/></g></g><g id="_Group_5" data-name="&lt;Group&gt;"><path id="_Path_12" data-name="&lt;Path&gt;" class="cls-2" d="M670.56,341.3a56.09,56.09,0,0,0,11.68-34.37c0-30.71-24.51-55.69-54.64-55.69S573,276.22,573,306.93s24.51,55.69,54.64,55.69a54,54,0,0,0,38.63-16.35l2,1.71a2.49,2.49,0,0,0,3.19,0l.25-.25,1.1-1.3a2.44,2.44,0,0,0-.28-3.44Z"/><g id="_Group_6" data-name="&lt;Group&gt;"><path id="_Path_13" data-name="&lt;Path&gt;" class="cls-4" d="M621.49,351.68c-30.13,0-54.64-25-54.64-55.69s24.51-55.68,54.64-55.68,54.64,25,54.64,55.68S651.62,351.68,621.49,351.68Z"/><path id="_Path_14" data-name="&lt;Path&gt;" class="cls-4" d="M673.47,296c0,29.24-23.32,53-52,53s-52-23.79-52-53,23.32-53,52-53"/><path id="_Path_15" data-name="&lt;Path&gt;" class="cls-11" d="M621.49,350.35c-29.4,0-53.31-24.38-53.31-54.36s23.91-54.35,53.31-54.35S674.8,266,674.8,296,650.89,350.35,621.49,350.35Z"/><path id="_Path_16" data-name="&lt;Path&gt;" class="cls-12" d="M589,278.13a59.45,59.45,0,0,0-6.92,8c-3.72,5.15-8.49,11.75-9.32,20.29-1.29,13.22,7.62,23.39,10.26,26.39a38.92,38.92,0,0,0,17.77,12.09c20.56,6.41,38-8.65,39.07-9.57a43.11,43.11,0,0,0,11.37-16.48"/><path id="_Path_17" data-name="&lt;Path&gt;" class="cls-13" d="M587.7,281a35.23,35.23,0,0,0-10.08,22.29,39.75,39.75,0,0,0,5.7,22.85c1.59,2.32,6.85,9.94,15.33,13.89,14,6.51,27.43-.68,30.27-1.7C649.08,331,655.78,310.67,656.6,308"/><path id="_Path_18" data-name="&lt;Path&gt;" class="cls-14" d="M587.23,282.49c-2.11,2.92-7.45,11.15-6.84,22.21.8,14.39,10.91,26.24,22.72,31,15.33,6.17,34.11.71,45.4-13.89"/><g id="_Group_7" data-name="&lt;Group&gt;"><path id="_Path_19" data-name="&lt;Path&gt;" class="cls-14" d="M650.07,322.65v0a6.61,6.61,0,0,1,1.27-3.36l-.48-.4-4.26,5,15.55,13.18a2.43,2.43,0,0,0,2.39.43l-12.63-10.61A5.1,5.1,0,0,1,650.07,322.65Z"/><path id="_Path_20" data-name="&lt;Path&gt;" class="cls-4" d="M651.08,321.56a5.08,5.08,0,0,0,1.75,5L665.34,337a2,2,0,0,0,.25-.25l1.1-1.3a2.44,2.44,0,0,0-.28-3.44l-14.59-12.36a6.86,6.86,0,0,0-.73,1.85Z"/><path id="_Path_21" data-name="&lt;Path&gt;" class="cls-15" d="M652.83,326.56a5.08,5.08,0,0,1-1.75-5v-.05a6.86,6.86,0,0,1,.73-1.85l-.48-.41a6.61,6.61,0,0,0-1.27,3.36v0a5.1,5.1,0,0,0,1.84,4.22l12.63,10.61a2.41,2.41,0,0,0,.8-.47Z"/></g><path id="_Path_22" data-name="&lt;Path&gt;" class="cls-4" d="M621.49,334.52C600.82,334.52,584,317.24,584,296s16.81-38.53,37.48-38.53S659,274.75,659,296,642.16,334.52,621.49,334.52Z"/><path id="_Path_23" data-name="&lt;Path&gt;" class="cls-6" d="M585.34,296c0,20.51,16.21,37.2,36.15,37.2a35.57,35.57,0,0,0,25.87-11.25l-47-56.08A37.51,37.51,0,0,0,585.34,296Z"/><path id="_Path_24" data-name="&lt;Path&gt;" class="cls-13" d="M621.49,258.79a35.25,35.25,0,0,0-21.16,7.07l47,56.08A37.61,37.61,0,0,0,657.64,296C657.64,275.48,641.42,258.79,621.49,258.79Z"/><path id="_Path_25" data-name="&lt;Path&gt;" class="cls-16" d="M621.49,329.2c-17.74,0-32.16-14.9-32.16-33.21s14.42-33.21,32.16-33.21,32.16,14.9,32.16,33.21S639.22,329.2,621.49,329.2Z"/><ellipse id="_Path_26" data-name="&lt;Path&gt;" class="cls-17" cx="621.49" cy="295.99" rx="30.83" ry="31.88"/><path id="_Path_27" data-name="&lt;Path&gt;" class="cls-18" d="M621.49,326.54c-16.27,0-29.5-13.7-29.5-30.55s13.23-30.55,29.5-30.55S651,279.15,651,296,637.76,326.54,621.49,326.54Z"/><ellipse id="_Path_28" data-name="&lt;Path&gt;" class="cls-19" cx="621.49" cy="295.99" rx="28.17" ry="29.22"/><g id="_Group_8" data-name="&lt;Group&gt;"><g id="_Group_9" data-name="&lt;Group&gt;"><g id="_Group_10" data-name="&lt;Group&gt;"><path id="_Path_29" data-name="&lt;Path&gt;" class="cls-20" d="M640.15,302.34a32.33,32.33,0,0,1-12.27-6.58c-5.69-4.8-11.07-9.87-14.26-16.79-.91-2-1.5-4,.07-5.94h0c-2.79.93-4.36,3.08-3.57,5.34a33.83,33.83,0,0,0,5.08,9.91,59.51,59.51,0,0,0,9.09,9.61c4.06,3.29,8.36,6.24,13.54,7.53,3.67.92,4.34.49,5.42-3.3C642.28,303,641.18,302.63,640.15,302.34Z"/><path id="_Path_30" data-name="&lt;Path&gt;" class="cls-21" d="M644.69,290.81c0,.78,0,1.56,0,2.34,0,2.55-.92,3.06-3.49,2.77-3.84-.44-6.13-3.19-8.76-5.41q-5.32-4.53-10.34-9.42a45.17,45.17,0,0,1-4.74-5.74c-1-1.29,0-2.51.59-3.68L613.69,273h0c-1.15,5.34,2,9,5,12.7A55.26,55.26,0,0,0,630.45,297c3.82,2.66,7.89,5.05,12.8,5.16h0C644.8,298.49,645.73,294.78,644.69,290.81Z"/><path id="_Path_31" data-name="&lt;Path&gt;" class="cls-21" d="M630.45,297a55.26,55.26,0,0,1-11.78-11.23c-2.93-3.72-6.13-7.36-5-12.7-1.57,2-1,4-.07,5.94,3.19,6.92,8.57,12,14.26,16.79a32.33,32.33,0,0,0,12.27,6.58c1,.29,2.13.66,3.1-.22h0C638.34,302,634.27,299.62,630.45,297Z"/></g><path id="_Path_32" data-name="&lt;Path&gt;" class="cls-21" d="M644.69,290.81h0l0,0h0Z"/><path id="_Path_33" data-name="&lt;Path&gt;" class="cls-22" d="M617.32,275.35a45.17,45.17,0,0,0,4.74,5.74q5,4.89,10.34,9.42c2.63,2.22,4.92,5,8.76,5.41,2.57.29,3.47-.22,3.49-2.77,0-.78,0-1.56,0-2.34h0l0,0h0a11.19,11.19,0,0,1-6.62-4.38c-2.64-3.38-6.1-6-9.53-8.55a53.74,53.74,0,0,1-4.27-4c-.5-.46-1.28-.93-1-1.7.31-1,1.32-.48,2-.61a5.49,5.49,0,0,1,.7-.05h0c-2.69-1.18-5.35.17-8,.09h0C617.31,272.84,616.37,274.06,617.32,275.35Z"/></g><path id="_Path_34" data-name="&lt;Path&gt;" class="cls-23" d="M623.21,272.24c-.25.77.53,1.24,1,1.7a53.74,53.74,0,0,0,4.27,4c3.43,2.55,6.89,5.17,9.53,8.55a11.19,11.19,0,0,0,6.62,4.38,19.66,19.66,0,0,1-.39-2c-.73-8-9.66-16.56-18.33-17.24h0a5.49,5.49,0,0,0-.7.05C624.53,271.76,623.52,271.22,623.21,272.24Z"/></g><path id="_Path_35" data-name="&lt;Path&gt;" class="cls-24" d="M597.07,286.9c-.64,0-2.86,8-.23,16.66.8,2.66,3.47,11,12.08,15.84,9.75,5.5,19.55,2.3,21.11,1.76-2.85.18-10.06,1.12-17.31-2.76a35.09,35.09,0,0,1-11.19-11.67C595.76,297.14,597.8,286.91,597.07,286.9Z"/><g id="_Group_11" data-name="&lt;Group&gt;"><path id="_Path_36" data-name="&lt;Path&gt;" class="cls-25" d="M596.65,283a1.29,1.29,0,1,1-2.57,0,1.29,1.29,0,0,1,2.57,0Z"/><path id="_Path_37" data-name="&lt;Path&gt;" class="cls-25" d="M596.19,286.71a1.86,1.86,0,1,1-1.86-1.86A1.86,1.86,0,0,1,596.19,286.71Z"/><path id="_Path_38" data-name="&lt;Path&gt;" class="cls-25" d="M650.36,302.36a1.54,1.54,0,1,1-1.54-1.55A1.54,1.54,0,0,1,650.36,302.36Z"/><circle id="_Path_39" data-name="&lt;Path&gt;" class="cls-25" cx="650.81" cy="295.54" r="1.09"/><path id="_Path_40" data-name="&lt;Path&gt;" class="cls-25" d="M636.09,322.83a1.09,1.09,0,1,1-1.09-1.09A1.09,1.09,0,0,1,636.09,322.83Z"/><circle id="_Path_41" data-name="&lt;Path&gt;" class="cls-25" cx="632.44" cy="323.16" r="0.77"/><circle id="_Path_42" data-name="&lt;Path&gt;" class="cls-26" cx="622.26" cy="326.1" r="0.77"/><path id="_Path_43" data-name="&lt;Path&gt;" class="cls-26" d="M593.24,289.76a.77.77,0,1,1-.77-.77A.77.77,0,0,1,593.24,289.76Z"/><path id="_Path_44" data-name="&lt;Path&gt;" class="cls-25" d="M628.17,325.52a.57.57,0,0,1-.57.58.58.58,0,1,1,0-1.16A.57.57,0,0,1,628.17,325.52Z"/></g></g></g><g id="_Group_12" data-name="&lt;Group&gt;"><rect id="_Path_45" data-name="&lt;Path&gt;" class="cls-2" x="573.35" y="53.51" width="191.96" height="140.91" rx="9.7" ry="9.7" transform="translate(200.39 617.39) rotate(-56.95)"/><g id="_Group_13" data-name="&lt;Group&gt;"><rect id="_Path_46" data-name="&lt;Path&gt;" class="cls-14" x="572.13" y="44.7" width="191.96" height="140.91" rx="9.7" ry="9.7" transform="translate(207.22 612.36) rotate(-56.95)"/><rect id="_Path_47" data-name="&lt;Path&gt;" class="cls-4" x="588.31" y="58.81" width="162.52" height="109.39" transform="translate(209.27 612.84) rotate(-56.95)"/><path id="_Compound_Path_3" data-name="&lt;Compound Path&gt;" class="cls-27" d="M667.6,13.51,577.35,152.23l94.19,61.28L761.8,74.79Zm3.5,197.94-91.69-59.66L668,15.57l91.7,59.66Z"/><rect id="_Path_48" data-name="&lt;Path&gt;" class="cls-4" x="588.31" y="58.81" width="162.52" height="109.39" transform="translate(209.27 612.84) rotate(-56.95)"/><g id="_Group_14" data-name="&lt;Group&gt;"><path id="_Path_49" data-name="&lt;Path&gt;" class="cls-28" d="M736.91,62.35c-1.75,2.69-6.71,5.54-9.4,3.79l-.26.39-14.32-9.32,0,0-.58,0-2.46-.07a6.35,6.35,0,0,1-5.54-3.61l-1.08-2.24-.24-.5-.05,0L688.6,41.39l.26-.4c-2.69-1.75-2.09-7.44-.35-10.12l-2.08-1.36c-2.49,3.84-2.76,11.07,1.08,13.56l.28-.43,14,9.12L703,54.13a7.85,7.85,0,0,0,6.84,4.45l2.63.08,14,9.12-.28.44c3.83,2.5,10.34-.67,12.83-4.51Z"/><path id="_Path_50" data-name="&lt;Path&gt;" class="cls-29" d="M727.51,66.14l1.36-2.08a5.82,5.82,0,0,0,8-1.71L739,63.71A8.3,8.3,0,0,1,727.51,66.14Z"/><path id="_Path_51" data-name="&lt;Path&gt;" class="cls-30" d="M738.58,63.44l-1.25-.81,1.11-1.71a4.48,4.48,0,0,0-1.31-6.19L695.4,27.58a4.47,4.47,0,0,0-6.19,1.31L688.1,30.6l-1.25-.82L688,28.07a6,6,0,0,1,8.25-1.74l41.73,27.15a6,6,0,0,1,1.75,8.25Z"/><path id="_Path_52" data-name="&lt;Path&gt;" class="cls-29" d="M688.86,41a8.31,8.31,0,0,1-2.43-11.48l2.08,1.36a5.82,5.82,0,0,0,1.71,8Z"/><path id="_Path_53" data-name="&lt;Path&gt;" class="cls-30" d="M714.57,55.35,713.43,53a7.82,7.82,0,0,0-6.84-4.45L704,48.45l-14-9.12-.81,1.25,14.33,9.32,0,0,.57,0,2.47.07a6.34,6.34,0,0,1,5.54,3.61l1.08,2.24.24.5.05,0,14.32,9.32.81-1.25Z"/><rect id="_Rectangle_70" data-name="&lt;Rectangle&gt;" class="cls-31" x="694.37" y="38.21" width="44.6" height="4.64" rx="1.38" ry="1.38" transform="translate(138.06 -384.29) rotate(33.05)"/></g></g></g><g id="_Group_15" data-name="&lt;Group&gt;"><path id="_Path_54" data-name="&lt;Path&gt;" class="cls-2" d="M171.49,231.16a76.83,76.83,0,0,0-14.83-45.45,129.24,129.24,0,0,0,14.5-26.12l-.15,0c-15.2-2.95-29.65-1.75-41.51,2.86a77.18,77.18,0,0,0-91,15.29l-1.53-.65c-.19,1-.34,1.89-.47,2.82A77,77,0,0,0,17,231.16c0,1.28,0,2.54.09,3.8-1.37.4-2.59.8-3.63,1.19a35.76,35.76,0,0,0,4.26,5.59,77.14,77.14,0,0,0,21.89,44c-.71,1.76-1.37,3.46-1.94,5.06a129,129,0,0,0-7.32,35c0,.27,0,.55,0,.82,18.21-2.51,33.53-10.2,43.47-20.92a77.4,77.4,0,0,0,41.79-.23,129.94,129.94,0,0,0,18.81,20.7c.4.36.8.71,1.19,1,7.33-12.95,10.8-26.45,10.54-38.77A77.09,77.09,0,0,0,171.49,231.16Z"/><g id="_Group_16" data-name="&lt;Group&gt;"><circle id="_Path_55" data-name="&lt;Path&gt;" class="cls-13" cx="80.8" cy="217.74" r="77.27" transform="translate(-138.93 292.97) rotate(-88.54)"/><circle id="_Path_56" data-name="&lt;Path&gt;" class="cls-32" cx="80.8" cy="217.74" r="72.79" transform="translate(-130.3 120.91) rotate(-45)"/><path id="_Path_57" data-name="&lt;Path&gt;" class="cls-33" d="M24.34,232.77c-.75,10.12,8.38,17.9,16.58,24.87,7,6,19.09,16.24,37.1,17.76,15.69,1.32,29.05-4.56,28.82-6.32-.27-2-17.91,3.81-26.84-5.13-9.38-9.37.15-25.65-9.48-33.16-5.38-4.19-9.07.33-21.71-4.74-8.94-3.58-11.62-7.66-16.18-6.31C27.81,221.16,24.72,227.51,24.34,232.77Z"/><path id="_Path_58" data-name="&lt;Path&gt;" class="cls-33" d="M129.74,244.81c12.24-4.2,14.76-26.37,12.43-40.27-3.56-21.2-20.76-37.06-38.49-43.42-22.47-8.06-43.27,0-43.22.79s18.66-.71,19.54,3.35c.65,3-9,6.5-8.29,11.06.31,1.93,2.37,3.16,3.94,3.94,13.57,6.75,39.73,4.75,41.65,9.87C119.13,195,97,201.48,95.39,214.8,93.62,229.13,115.69,249.62,129.74,244.81Z"/><path id="_Path_59" data-name="&lt;Path&gt;" class="cls-34" d="M49.47,219c-.79,1.16-9.67-1.6-16.45-8-5-4.78-6.44-9.22-8.82-8.81-3.36.57-3.35,9.93-5.39,10-1.82,0-4.87-7.27-4.08-14.48,1.51-13.86,17-25.56,22.24-22.76,5.85,3.14-4.64,22.76,6.58,37.11C46.39,215.61,50,218.13,49.47,219Z"/><path id="_Path_60" data-name="&lt;Path&gt;" class="cls-35" d="M95.5,221.51c.56-6.4,14.54-12.43,26.3-10.87,14.2,1.88,26.47,15,30.82,33.54a85,85,0,0,1-24.07-2.65C116.07,238.3,94.78,229.71,95.5,221.51Z"/><path id="_Path_61" data-name="&lt;Path&gt;" class="cls-35" d="M66.45,207.63c-3.12,5.62-18.35,5.43-28.46-.79-12.2-7.5-18.07-24.47-14.48-43.19a85.59,85.59,0,0,1,20.91,12.23C54.5,183.91,70.44,200.44,66.45,207.63Z"/><path id="_Path_62" data-name="&lt;Path&gt;" class="cls-35" d="M37.75,224.89c.91,3.84-6.09,10.07-13.25,11.44C15.84,238,6.14,232.72,0,222.72a53.16,53.16,0,0,1,14.57-3.12C22.48,219.07,36.58,220,37.75,224.89Z"/><g id="_Group_17" data-name="&lt;Group&gt;"><path id="_Path_63" data-name="&lt;Path&gt;" class="cls-36" d="M95.26,239.74c6.14,5.33,26.16,24.45,27.37,54.48a70.42,70.42,0,0,1-1.72,18.49c.4.37.8.71,1.19,1.05,14.16-25,14-52.13.13-68.74-11.45-13.76-33.13-21.38-40.31-14.85l-.12.13A79.28,79.28,0,0,1,95.26,239.74Z"/><path id="_Path_64" data-name="&lt;Path&gt;" class="cls-35" d="M122.63,294.22c-1.21-30-21.23-49.15-27.37-54.48A79.28,79.28,0,0,0,81.8,230.3c-8.9,8.54,5.82,39.63,16.31,55.9a128.31,128.31,0,0,0,22.8,26.51A70.42,70.42,0,0,0,122.63,294.22Z"/></g><g id="_Group_18" data-name="&lt;Group&gt;"><path id="_Path_65" data-name="&lt;Path&gt;" class="cls-35" d="M45.26,286.85a80.2,80.2,0,0,1-28.37,25.5c0,.27,0,.55-.05.81,28.49-3.92,49.91-20.51,54.73-41.58,4-17.44-3.08-39.31-12.63-41a7.53,7.53,0,0,0-.83-.1C59.77,244.39,59.19,266.27,45.26,286.85Z"/><path id="_Path_66" data-name="&lt;Path&gt;" class="cls-35" d="M29.73,264.08l8.38-15.67A151.63,151.63,0,0,0,29.73,264.08Z"/><path id="_Path_67" data-name="&lt;Path&gt;" class="cls-37" d="M38.11,248.41l-8.38,15.67c-2.2,4.71-4.08,9.3-5.53,13.29a128.55,128.55,0,0,0-7.31,35,80.2,80.2,0,0,0,28.37-25.5c13.93-20.58,14.51-42.46,12.85-56.42C51.76,230,44.5,238.08,38.11,248.41Z"/></g><g id="_Group_19" data-name="&lt;Group&gt;"><path id="_Path_68" data-name="&lt;Path&gt;" class="cls-36" d="M91.14,210.72a6.79,6.79,0,0,0,1.17.51c2.4-13.36,6.45-25.09,10.06-30.44,12-17.76,31.72-29.63,55.22-34.64-28.17-5.46-53.74,3.3-65.11,21.64C83.05,183,82.68,206,91.14,210.72Z"/><path id="_Path_69" data-name="&lt;Path&gt;" class="cls-37" d="M102.37,180.79c-3.61,5.35-7.66,17.08-10.06,30.44,11.37,3.91,35.11-18.93,46.87-33.58a128.94,128.94,0,0,0,18.56-31.48l-.15,0C134.09,151.16,114.35,163,102.37,180.79Z"/></g></g></g><g id="_Group_20" data-name="&lt;Group&gt;"><path id="_Compound_Path_4" data-name="&lt;Compound Path&gt;" class="cls-2" d="M691,82.42c-.18-.47-.36-.93-.55-1.39A2.52,2.52,0,0,1,690.4,79a4.54,4.54,0,0,0-.12-3.94l-1.16-2.27a2.4,2.4,0,0,0-2.61-1.26,84.84,84.84,0,0,0-16.11,4.9A75.65,75.65,0,0,0,650.86,88.7a45.16,45.16,0,0,1-8.11,5.69,44.67,44.67,0,0,1-9.37,3.2,75.93,75.93,0,0,0-21.46,8.55,85.63,85.63,0,0,0-13.44,10.14,2.42,2.42,0,0,0-.52,2.86l1.16,2.27a4.54,4.54,0,0,0,3.11,2.42,2.5,2.5,0,0,1,1.62,1.28c.26.43.53.85.8,1.26a42.6,42.6,0,0,0,7.71,9.27c4.47,3.83,9.5,5.43,15.31,3.72a29.86,29.86,0,0,0,9-4.64c6.56-4.72,9.6-11,8.64-19.13a63.07,63.07,0,0,1-.61-6.72,13.9,13.9,0,0,1,.63-5.12,2.62,2.62,0,0,1,3.54-1.8,13.66,13.66,0,0,1,4.5,2.51,61.13,61.13,0,0,1,5.07,4.45c6,5.55,12.89,6.8,20.56,4.27a29.76,29.76,0,0,0,9-4.51c4.79-3.69,6.46-8.69,6-14.57A42.54,42.54,0,0,0,691,82.42Zm-62.81,19.74q.57-.12,1.14-.21-.57.09-1.14.21c-.38.07-.75.16-1.13.26C627.48,102.32,627.85,102.23,628.23,102.16ZM608,113.51a21,21,0,0,1,2.44-2.55c.35-.32.72-.6,1.08-.9A46.41,46.41,0,0,1,626,102.73c-.1.28-14.12,7.41-14.41,7.33-.36.3-.73.58-1.08.9a21,21,0,0,0-2.44,2.55,13.76,13.76,0,0,0-1.44,2.21A13.33,13.33,0,0,1,608,113.51Zm34.68,5c-.31,7.66-4.23,13-10.84,16.57a20.24,20.24,0,0,1-6.48,2.3c-4.71.73-8.66-.86-12.07-4a34.38,34.38,0,0,1-7-9.45,5.59,5.59,0,0,1-.74-2.53q-.07-.31-.12-.63a6.33,6.33,0,0,1,0-1.23,8.28,8.28,0,0,1,.18-1.2,8.28,8.28,0,0,0-.18,1.2,6.33,6.33,0,0,0,0,1.23q0,.32.12.63l13.12-6.68c-.18.39-.26.58-.35.76a35.31,35.31,0,0,0-2.71,8.19,5.4,5.4,0,0,0,.54,4,3.17,3.17,0,0,0,3,1.71,2.93,2.93,0,0,0,2.66-1.89,6.24,6.24,0,0,0,.43-3.08c0-.68-.84-8.78,1.55-11.77,1.76-2.2,12.8-7.37,14.46-8.26A3.87,3.87,0,0,0,638,104a6,6,0,0,0-2-1.34,6,6,0,0,1,2,1.34,3.87,3.87,0,0,1,.32.37,5.23,5.23,0,0,1,1.44,1.83A23.49,23.49,0,0,1,642.71,118.48Zm45-12.84a19.79,19.79,0,0,1-5.68,3.89c-6.77,3.25-13.39,3.26-19.77-1a23.51,23.51,0,0,1-8.19-9.64,5.41,5.41,0,0,1-.63-2.24c1.7-.81,12.38-6.69,15.19-6.82,3.83-.17,9.9,5.24,10.42,5.68A6.27,6.27,0,0,0,681.79,97a2.93,2.93,0,0,0,3.1-1,3.18,3.18,0,0,0,.36-3.41,5.41,5.41,0,0,0-2.94-2.8,35,35,0,0,0-8.21-2.63l-.83-.17,13.13-6.68a7.65,7.65,0,0,0-4.25-2.36,16,16,0,0,0-7,.16c-.45.1-.9.23-1.36.35-.1.28-14.12,7.42-14.41,7.33-2.48,1.93-4.71,4.07-5.73,7.16,0,.15-.1.31-.14.46,0-.15.09-.31.14-.46,1-3.1,3.25-5.23,5.73-7.16a46.14,46.14,0,0,1,14.42-7.33c.45-.12.9-.25,1.35-.35a15.85,15.85,0,0,1,7-.16,7.54,7.54,0,0,1,4.24,2.36A5.66,5.66,0,0,1,688,82.34a34.7,34.7,0,0,1,3.55,11.18C692.1,98.13,691.06,102.26,687.7,105.64Z"/><g id="_Group_21" data-name="&lt;Group&gt;"><path id="_Path_70" data-name="&lt;Path&gt;" class="cls-29" d="M634.66,102c-1.66.89-12.7,6.07-14.46,8.26-2.39,3-1.59,11.09-1.55,11.77a6.23,6.23,0,0,1-.43,3.08,3,3,0,0,1-2.66,1.9,3.2,3.2,0,0,1-3-1.71,5.41,5.41,0,0,1-.54-4,35.31,35.31,0,0,1,2.71-8.19c.09-.19.17-.38.35-.76L602,119a7.56,7.56,0,0,1,.59-4.82,15.9,15.9,0,0,1,4.25-5.57c.35-.31.72-.6,1.08-.89.29.08,14.31-7,14.41-7.34,3-.87,6.07-1.41,9.17-.42A6.44,6.44,0,0,1,634.66,102Z"/><path id="_Path_71" data-name="&lt;Path&gt;" class="cls-29" d="M649.79,94.33c1.7-.82,12.38-6.7,15.19-6.83,3.83-.17,9.9,5.24,10.42,5.68a6.27,6.27,0,0,0,2.75,1.46,2.94,2.94,0,0,0,3.1-1,3.18,3.18,0,0,0,.36-3.41,5.4,5.4,0,0,0-2.94-2.81,35.42,35.42,0,0,0-8.21-2.63l-.83-.16,13.13-6.68a7.53,7.53,0,0,0-4.25-2.36,15.81,15.81,0,0,0-7,.16c-.45.09-.9.23-1.36.34-.1.29-14.12,7.42-14.41,7.34-2.48,1.93-4.71,4.06-5.73,7.16A6.38,6.38,0,0,0,649.79,94.33Z"/><path id="_Path_72" data-name="&lt;Path&gt;" class="cls-38" d="M634.66,102a6.44,6.44,0,0,0-3.17-2c-3.1-1-6.15-.45-9.17.42a46.44,46.44,0,0,0-14.41,7.34c-.36.29-.73.58-1.08.89a15.9,15.9,0,0,0-4.25,5.57A7.56,7.56,0,0,0,602,119a5.63,5.63,0,0,0,.74,2.54,34.48,34.48,0,0,0,6.95,9.44c3.41,3.16,7.36,4.75,12.07,4a20,20,0,0,0,6.48-2.3c6.61-3.56,10.53-8.9,10.84-16.56a23.52,23.52,0,0,0-3-12.3A5.32,5.32,0,0,0,634.66,102Z"/><path id="_Path_73" data-name="&lt;Path&gt;" class="cls-39" d="M634.66,102a6.44,6.44,0,0,0-3.17-2,11.78,11.78,0,0,0-4.57-.49c-1.35,11.28-3.19,26.61-4.23,35.36a21,21,0,0,0,5.54-2.13c6.61-3.56,10.53-8.9,10.84-16.56a23.52,23.52,0,0,0-3-12.3A5.32,5.32,0,0,0,634.66,102Z"/><path id="_Path_74" data-name="&lt;Path&gt;" class="cls-38" d="M649.79,94.32a6.46,6.46,0,0,1,.21-3.77c1-3.09,3.25-5.23,5.73-7.16a46.57,46.57,0,0,1,14.42-7.33c.45-.12.9-.25,1.35-.35a16,16,0,0,1,7-.16,7.66,7.66,0,0,1,4.24,2.36,5.61,5.61,0,0,1,1.61,2.1,34.64,34.64,0,0,1,3.55,11.17c.54,4.62-.5,8.75-3.86,12.13a20,20,0,0,1-5.68,3.88c-6.77,3.25-13.39,3.27-19.77-1a23.57,23.57,0,0,1-8.19-9.64A5.49,5.49,0,0,1,649.79,94.32Z"/><path id="_Path_75" data-name="&lt;Path&gt;" class="cls-38" d="M678.52,75.55a12.17,12.17,0,0,0-1.3-.22l-2.05,33.15a23.91,23.91,0,0,0,3.21-1.29,20,20,0,0,0,5.68-3.88c3.36-3.38,4.4-7.51,3.86-12.13A34.64,34.64,0,0,0,684.37,80a5.61,5.61,0,0,0-1.61-2.1A7.66,7.66,0,0,0,678.52,75.55Z"/><path id="_Compound_Path_5" data-name="&lt;Compound Path&gt;" class="cls-40" d="M666.76,74.05a76,76,0,0,0-19.55,12.32,44.73,44.73,0,0,1-8.1,5.69,45.25,45.25,0,0,1-9.37,3.2,76.2,76.2,0,0,0-21.46,8.54A85.7,85.7,0,0,0,594.84,114a2.41,2.41,0,0,0-.52,2.85l1.16,2.27a4.52,4.52,0,0,0,3.11,2.42,2.49,2.49,0,0,1,1.62,1.29c.26.42.53.84.8,1.26a42.54,42.54,0,0,0,7.71,9.26c4.47,3.84,9.5,5.43,15.31,3.73a29.88,29.88,0,0,0,9-4.65c6.56-4.71,9.6-11,8.64-19.13a62.88,62.88,0,0,1-.61-6.71,13.85,13.85,0,0,1,.63-5.12A3,3,0,0,1,643,99.7a3,3,0,0,1,2.19-.08,13.82,13.82,0,0,1,4.5,2.5,63,63,0,0,1,5.07,4.45c6,5.55,12.89,6.8,20.56,4.27a29.74,29.74,0,0,0,9-4.5c4.79-3.7,6.46-8.7,6-14.57a42.52,42.52,0,0,0-2.94-11.69c-.18-.46-.36-.93-.55-1.39a2.5,2.5,0,0,1-.09-2.06,4.54,4.54,0,0,0-.12-3.94l-1.16-2.27a2.4,2.4,0,0,0-2.61-1.26A84.81,84.81,0,0,0,666.76,74.05Zm-27.69,42.1c-.31,7.66-4.23,13-10.84,16.56a20,20,0,0,1-6.48,2.3c-4.71.73-8.66-.86-12.07-4a34.48,34.48,0,0,1-6.95-9.44A5.63,5.63,0,0,1,602,119a7.56,7.56,0,0,1,.59-4.82,15.9,15.9,0,0,1,4.25-5.57c.35-.31.72-.6,1.08-.89a46.44,46.44,0,0,1,14.41-7.34c3-.87,6.07-1.41,9.17-.42a6.44,6.44,0,0,1,3.17,2,5.32,5.32,0,0,1,1.44,1.83A23.52,23.52,0,0,1,639.07,116.15Zm48.85-25c.54,4.62-.5,8.75-3.86,12.13a20,20,0,0,1-5.68,3.88c-6.77,3.25-13.39,3.27-19.77-1a23.57,23.57,0,0,1-8.19-9.64,5.49,5.49,0,0,1-.63-2.25,6.46,6.46,0,0,1,.21-3.77c1-3.09,3.25-5.23,5.73-7.16a46.57,46.57,0,0,1,14.42-7.33c.45-.12.9-.25,1.35-.35a16,16,0,0,1,7-.16,7.66,7.66,0,0,1,4.24,2.36,5.61,5.61,0,0,1,1.61,2.1A34.64,34.64,0,0,1,687.92,91.18Z"/></g></g><g id="_Group_22" data-name="&lt;Group&gt;"><path id="_Path_76" data-name="&lt;Path&gt;" class="cls-2" d="M716.62,128c-.91-1.92-2.87-2.52-4.37-1.35l-3,2.31,0,.05L708,130.06l0-.06-3.06,2.4-1.41-3a1.22,1.22,0,0,0-2-.49l-12,11.68a.9.9,0,0,1-1.21.1l-.36-.27a.54.54,0,0,0-.8.13.94.94,0,0,0,.14,1.24l1,.77a1.37,1.37,0,0,0,1.84-.14l10.17-9.91a1.35,1.35,0,0,1,2.22.54l.41.87L667.68,161.5l0,.05-1.25,1,0-.06-24.52,20.32,0,.05-.3.29,0-.06-3.07,4.67,4.69-1.26,0,.05.34-.21-.5-1.06.48,1,25.6-18.05-.75-1.58.77,1.64,1.27-.95-2-4.16,1.95,4.11,40.73-30.5L708.89,132l2.29,4.84,1.38-1-2.37-5,2.34,4.93,3-2.23A4.67,4.67,0,0,0,716.62,128Z"/><g id="_Group_23" data-name="&lt;Group&gt;"><polygon id="_Path_77" data-name="&lt;Path&gt;" class="cls-40" points="640.18 181.62 641.83 185.1 667.43 167.06 664.7 161.31 640.18 181.62"/><polygon id="_Path_78" data-name="&lt;Path&gt;" class="cls-31" points="664.73 161.36 667.46 167.11 668.72 166.17 665.97 160.38 664.73 161.36"/><path id="_Path_79" data-name="&lt;Path&gt;" class="cls-40" d="M710.52,125.46l-2.95,2.31,3.23,6.82,3-2.24a4.68,4.68,0,0,0,1.1-5.54h0C714,124.9,712,124.29,710.52,125.46Z"/><polygon id="_Path_80" data-name="&lt;Path&gt;" class="cls-31" points="706.24 128.89 709.45 135.67 710.83 134.64 707.6 127.83 706.24 128.89"/><path id="_Path_81" data-name="&lt;Path&gt;" class="cls-29" d="M703.15,131.23l-1.41-3a1.22,1.22,0,0,0-2-.48l-12,11.68a.9.9,0,0,1-1.21.09l-.36-.27a.54.54,0,0,0-.8.14.93.93,0,0,0,.14,1.23l1,.77a1.36,1.36,0,0,0,1.83-.14l10.18-9.9a1.33,1.33,0,0,1,2.21.53l.41.87L666,160.33l2.74,5.78,40.74-30.49-3.22-6.78Z"/><polygon id="_Path_82" data-name="&lt;Path&gt;" class="cls-29" points="639.88 181.91 636.8 186.58 641.49 185.31 639.88 181.91"/><polygon id="_Path_83" data-name="&lt;Path&gt;" class="cls-31" points="639.9 181.96 640.21 181.68 641.86 185.15 641.52 185.37 639.9 181.96"/></g></g></g></g></svg>