<svg xmlns="http://www.w3.org/2000/svg" xmlns:xlink="http://www.w3.org/1999/xlink" viewBox="0 0 262.08 179.87"><defs><style>.cls-1,.cls-106{fill:none;}.cls-2{isolation:isolate;}.cls-3{fill:#002152;}.cls-4{fill:url(#linear-gradient);}.cls-5{fill:#edf6fb;}.cls-6{fill:#002868;}.cls-7{clip-path:url(#clip-path);}.cls-8{fill:#fff;}.cls-9{fill:#fefeff;}.cls-10{fill:#fdfeff;}.cls-11{fill:#fcfdff;}.cls-12{fill:#fbfdff;}.cls-13{fill:#fafcff;}.cls-14{fill:#f9fcff;}.cls-15{fill:#f8fbff;}.cls-16{fill:#f7fbff;}.cls-17{fill:#f6faff;}.cls-18{fill:#f5f9ff;}.cls-19{fill:#f4f9ff;}.cls-20{fill:#f3f8ff;}.cls-21{fill:#f2f8ff;}.cls-22{fill:#f1f7ff;}.cls-23{fill:#f0f7ff;}.cls-24{fill:#eff6ff;}.cls-25{fill:#eef6ff;}.cls-26{fill:#edf5ff;}.cls-27{fill:#ecf4ff;}.cls-28{fill:#ebf4ff;}.cls-29{fill:#eaf3ff;}.cls-30{fill:#e9f3ff;}.cls-31{fill:#e8f2ff;}.cls-32{fill:#e7f2ff;}.cls-33{fill:#e6f1ff;}.cls-34{fill:#e5f1ff;}.cls-35{fill:#e4f0ff;}.cls-36{fill:#e3efff;}.cls-37{fill:#e2efff;}.cls-38{fill:#e1eeff;}.cls-39{fill:#e0eeff;}.cls-40{fill:#dfedff;}.cls-41{fill:#deedff;}.cls-42{fill:#ddecff;}.cls-43{fill:#dcecff;}.cls-44{fill:#dbebff;}.cls-45{fill:#daeaff;}.cls-46{fill:#d9eaff;}.cls-47{fill:#d8e9ff;}.cls-48{fill:#d7e9ff;}.cls-49{fill:#d6e8ff;}.cls-50{fill:#d5e8ff;}.cls-51{fill:#d4e7ff;}.cls-52{fill:#d3e7ff;}.cls-53{fill:#d2e6ff;}.cls-54{fill:#d1e5ff;}.cls-55{fill:#d0e5ff;}.cls-56{fill:#cfe4ff;}.cls-57{fill:#cee4ff;}.cls-58{fill:#cde3ff;}.cls-59{fill:#cce3ff;}.cls-60{fill:#cbe2ff;}.cls-61{fill:#cae1ff;}.cls-62{fill:#c9e1ff;}.cls-63{fill:#c8e0ff;}.cls-64{fill:#c7e0ff;}.cls-65{fill:#c5dfff;}.cls-66{fill:#c4dfff;}.cls-67{fill:#c3deff;}.cls-68{fill:#c2deff;}.cls-69{fill:#c1ddff;}.cls-70{fill:#c0dcff;}.cls-71{fill:#bfdcff;}.cls-72{fill:#bedbff;}.cls-73{fill:#bddbff;}.cls-74{fill:#bcdaff;}.cls-75{fill:#bbdaff;}.cls-76{fill:#bad9ff;}.cls-77{fill:#b9d8ff;}.cls-78{fill:#b8d8ff;}.cls-79{fill:#b7d7ff;}.cls-80{fill:#b6d7ff;}.cls-81{fill:#b5d6ff;}.cls-82{fill:#b4d6ff;}.cls-83{fill:#b3d5ff;}.cls-84{fill:#b2d5ff;}.cls-85{fill:#b1d4ff;}.cls-86{fill:#b0d3ff;}.cls-87{fill:#afd3ff;}.cls-88{fill:#aed2ff;}.cls-89{fill:#add2ff;}.cls-90{fill:#acd1ff;}.cls-91{fill:#abd1ff;}.cls-92{fill:#aad0ff;}.cls-93{fill:#00112a;}.cls-94{fill:#be1321;}.cls-95{fill:#c91423;}.cls-96{fill:#a30514;}.cls-97{fill:#002a69;}.cls-98{fill:#0c3879;}.cls-103,.cls-99{fill:#e6e7e8;}.cls-100{fill:#c8e1ff;}.cls-101{fill:url(#linear-gradient-2);}.cls-102{fill:#19427f;}.cls-103{opacity:0.53;mix-blend-mode:multiply;}.cls-104{fill:#bbbdbf;}.cls-105{fill:#02265d;}.cls-106{stroke:#fff;stroke-miterlimit:10;}.cls-107{fill:#0598d8;}.cls-108{fill:#ed1c24;}.cls-109{fill:url(#linear-gradient-3);}.cls-110{clip-path:url(#clip-path-2);}.cls-111{fill:#0c3470;}.cls-112{fill:url(#linear-gradient-4);}.cls-113{fill:url(#linear-gradient-5);}</style><linearGradient id="linear-gradient" x1="-5857.05" y1="-1.76" x2="-5852.08" y2="-6.73" gradientTransform="matrix(-1, -0.03, -0.03, 1, -5813.95, -68.36)" gradientUnits="userSpaceOnUse"><stop offset="0" stop-color="#fff"/><stop offset="1" stop-color="#7fc0ff"/></linearGradient><clipPath id="clip-path"><polygon class="cls-1" points="43.19 104.89 42.73 104.96 43.2 105.21 43.19 104.89"/></clipPath><linearGradient id="linear-gradient-2" x1="-5868.06" y1="5.44" x2="-5861.98" y2="16.88" gradientTransform="matrix(-1, -0.03, -0.03, 1, -5813.95, -68.36)" gradientUnits="userSpaceOnUse"><stop offset="0" stop-color="#fff"/><stop offset="0.26" stop-color="#fcfeff"/><stop offset="0.43" stop-color="#f4f9ff"/><stop offset="0.58" stop-color="#e5f2ff"/><stop offset="0.71" stop-color="#d0e8ff"/><stop offset="0.83" stop-color="#b4daff"/><stop offset="0.94" stop-color="#93caff"/><stop offset="1" stop-color="#7fc0ff"/></linearGradient><linearGradient id="linear-gradient-3" x1="-1447.99" y1="-402.55" x2="-1444.2" y2="-402.55" gradientTransform="translate(1545.41 814.32) rotate(12.97)" gradientUnits="userSpaceOnUse"><stop offset="0" stop-color="#fff"/><stop offset="1" stop-color="#6acbff"/></linearGradient><clipPath id="clip-path-2"><polygon class="cls-1" points="223.03 94.17 223.5 94.29 222.99 94.5 223.03 94.17"/></clipPath><linearGradient id="linear-gradient-4" x1="194.28" y1="101.6" x2="200.16" y2="101.6" gradientTransform="matrix(1, 0, 0, 1, 0, 0)" xlink:href="#linear-gradient-3"/><linearGradient id="linear-gradient-5" x1="206.37" y1="93.97" x2="213.79" y2="93.97" gradientTransform="matrix(1, 0, 0, 1, 0, 0)" xlink:href="#linear-gradient-3"/></defs><title>صور وايقونات</title><g class="cls-2"><g id="Layer_1" data-name="Layer 1"><path class="cls-3" d="M50,134.58l15,9.45,8.31,26.83-2.16.89S60,157.4,61.25,150.37l-19.73-7.1S40.47,131.12,50,134.58Z"/><polygon class="cls-3" points="71.08 170.79 70.23 172.01 70.58 173.77 72.4 173.82 72.42 173.19 73.13 173.09 73.64 173.89 76.66 173.98 76.68 173.2 73.47 172.11 73.21 170.86 71.08 170.79"/><polygon class="cls-3" points="42.45 123.74 47.4 113.99 58.28 117.23 48.74 133.18 42.45 123.74"/><path class="cls-4" d="M42.1,107.36,38.46,103h-.69s-1.44,0-.59,1.55l1,1.88L35,111.31,40.34,114l.69-5.83S42.46,108.26,42.1,107.36Z"/><path class="cls-5" d="M42.27,100.77s1.82,5.08.34,6.61c0,0-2.72.41-4.15-4.4C38.46,103,39.94,100.14,42.27,100.77Z"/><path class="cls-6" d="M37.33,100a24.86,24.86,0,0,0,4.8-.9,1,1,0,0,1,1.35,1.07,1.55,1.55,0,0,1-1.63,1.48s-2.4-.88-2.66,1.58c0,0,.28,2.71,3.86,2.8,0,0,.22-.78-.11,1.79,0,0-1.82,2.16-4-2.23-.56-.67.1-2.32-1.21-1.73,0,0-.71.89.84,2.23l.08.81S34.72,104,37.33,100Z"/><path class="cls-5" d="M42.5,103.39l1.16,1.27a.13.13,0,0,1-.08.21l-1,.11Z"/><g class="cls-7"><polygon class="cls-8" points="42.96 105.31 42.73 104.96 42.88 105.34 42.96 105.31"/><polygon class="cls-8" points="42.97 105.31 42.73 104.96 42.73 104.96 42.73 104.96 42.96 105.31 42.97 105.31"/><polygon class="cls-9" points="42.97 105.3 42.73 104.95 42.73 104.96 42.97 105.31 42.97 105.3"/><polygon class="cls-10" points="42.98 105.3 42.74 104.95 42.73 104.95 42.97 105.3 42.98 105.3"/><polygon class="cls-11" points="42.98 105.3 42.74 104.95 42.74 104.95 42.98 105.3 42.98 105.3"/><polygon class="cls-12" points="42.98 105.3 42.75 104.95 42.74 104.95 42.98 105.3 42.98 105.3"/><polygon class="cls-13" points="42.99 105.3 42.75 104.95 42.75 104.95 42.98 105.3 42.99 105.3"/><polygon class="cls-14" points="42.99 105.29 42.76 104.95 42.75 104.95 42.99 105.3 42.99 105.29"/><polygon class="cls-15" points="43 105.29 42.76 104.94 42.76 104.95 42.99 105.29 43 105.29"/><polygon class="cls-16" points="43 105.29 42.77 104.94 42.76 104.94 43 105.29 43 105.29"/><polygon class="cls-17" points="43.01 105.29 42.77 104.94 42.77 104.94 43 105.29 43.01 105.29"/><polygon class="cls-18" points="43.01 105.29 42.78 104.94 42.77 104.94 43.01 105.29 43.01 105.29"/><polygon class="cls-19" points="43.02 105.28 42.78 104.94 42.78 104.94 43.01 105.29 43.02 105.28"/><polygon class="cls-20" points="43.02 105.28 42.79 104.94 42.78 104.94 43.02 105.28 43.02 105.28"/><polygon class="cls-21" points="43.03 105.28 42.79 104.93 42.79 104.94 43.02 105.28 43.03 105.28"/><polygon class="cls-22" points="43.03 105.28 42.8 104.93 42.79 104.93 43.03 105.28 43.03 105.28"/><polygon class="cls-23" points="43.04 105.28 42.8 104.93 42.8 104.93 43.03 105.28 43.04 105.28"/><polygon class="cls-24" points="43.04 105.28 42.8 104.93 42.8 104.93 43.04 105.28 43.04 105.28"/><polygon class="cls-25" points="43.05 105.27 42.81 104.92 42.8 104.93 43.04 105.28 43.05 105.27"/><polygon class="cls-26" points="43.05 105.27 42.81 104.92 42.81 104.92 43.05 105.27 43.05 105.27"/><polygon class="cls-27" points="43.06 105.27 42.82 104.92 42.81 104.92 43.05 105.27 43.06 105.27"/><polygon class="cls-28" points="43.06 105.27 42.82 104.92 42.82 104.92 43.06 105.27 43.06 105.27"/><polygon class="cls-29" points="43.06 105.27 42.83 104.92 42.82 104.92 43.06 105.27 43.06 105.27"/><polygon class="cls-30" points="43.07 105.26 42.83 104.92 42.83 104.92 43.06 105.27 43.07 105.26"/><polygon class="cls-31" points="43.08 105.26 42.84 104.91 42.83 104.92 43.07 105.26 43.08 105.26"/><polygon class="cls-32" points="43.08 105.26 42.84 104.91 42.84 104.91 43.08 105.26 43.08 105.26"/><polygon class="cls-33" points="43.08 105.26 42.85 104.91 42.84 104.91 43.08 105.26 43.08 105.26"/><polygon class="cls-34" points="43.09 105.26 42.85 104.91 42.85 104.91 43.08 105.26 43.09 105.26"/><polygon class="cls-35" points="43.09 105.25 42.86 104.91 42.85 104.91 43.09 105.26 43.09 105.25"/><polygon class="cls-36" points="43.1 105.25 42.86 104.9 42.86 104.91 43.09 105.25 43.1 105.25"/><polygon class="cls-37" points="43.1 105.25 42.87 104.9 42.86 104.9 43.1 105.25 43.1 105.25"/><polygon class="cls-38" points="43.11 105.25 42.87 104.9 42.87 104.9 43.1 105.25 43.11 105.25"/><polygon class="cls-39" points="43.11 105.25 42.88 104.9 42.87 104.9 43.11 105.25 43.11 105.25"/><polygon class="cls-40" points="43.12 105.25 42.88 104.9 42.88 104.9 43.11 105.25 43.12 105.25"/><polygon class="cls-41" points="43.12 105.24 42.88 104.89 42.88 104.9 43.12 105.25 43.12 105.24"/><polygon class="cls-42" points="43.13 105.24 42.89 104.89 42.88 104.89 43.12 105.24 43.13 105.24"/><polygon class="cls-43" points="43.13 105.24 42.9 104.89 42.89 104.89 43.13 105.24 43.13 105.24"/><polygon class="cls-44" points="43.14 105.24 42.9 104.89 42.9 104.89 43.13 105.24 43.14 105.24"/><polygon class="cls-45" points="43.14 105.23 42.9 104.89 42.9 104.89 43.14 105.24 43.14 105.23"/><polygon class="cls-46" points="43.15 105.23 42.91 104.89 42.9 104.89 43.14 105.23 43.15 105.23"/><polygon class="cls-47" points="43.15 105.23 42.91 104.88 42.91 104.89 43.15 105.23 43.15 105.23"/><polygon class="cls-48" points="43.16 105.23 42.92 104.88 42.91 104.88 43.15 105.23 43.16 105.23"/><polygon class="cls-49" points="43.16 105.23 42.92 104.88 42.92 104.88 43.16 105.23 43.16 105.23"/><polygon class="cls-50" points="43.16 105.23 42.93 104.88 42.92 104.88 43.16 105.23 43.16 105.23"/><polygon class="cls-51" points="43.17 105.22 42.93 104.88 42.93 104.88 43.16 105.23 43.17 105.22"/><polygon class="cls-52" points="43.17 105.22 42.94 104.87 42.93 104.88 43.17 105.22 43.17 105.22"/><polygon class="cls-53" points="43.18 105.22 42.94 104.87 42.94 104.87 43.17 105.22 43.18 105.22"/><polygon class="cls-54" points="43.18 105.22 42.95 104.87 42.94 104.87 43.18 105.22 43.18 105.22"/><polygon class="cls-55" points="43.19 105.22 42.95 104.87 42.95 104.87 43.18 105.22 43.19 105.22"/><polygon class="cls-56" points="43.19 105.22 42.96 104.87 42.95 104.87 43.19 105.22 43.19 105.22"/><polygon class="cls-57" points="43.2 105.21 42.96 104.86 42.96 104.87 43.19 105.22 43.2 105.21"/><polygon class="cls-58" points="43.2 105.21 42.97 104.86 42.96 104.86 43.2 105.21 43.2 105.21"/><polygon class="cls-59" points="43.21 105.21 42.97 104.86 42.97 104.86 43.2 105.21 43.21 105.21"/><polygon class="cls-60" points="43.21 105.21 42.98 104.86 42.97 104.86 43.21 105.21 43.21 105.21"/><polygon class="cls-61" points="43.22 105.2 42.98 104.86 42.98 104.86 43.21 105.21 43.22 105.2"/><polygon class="cls-62" points="43.22 105.2 42.98 104.86 42.98 104.86 43.22 105.2 43.22 105.2"/><polygon class="cls-63" points="43.23 105.2 42.99 104.85 42.98 104.86 43.22 105.2 43.23 105.2"/><polygon class="cls-64" points="43.23 105.2 42.99 104.85 42.99 104.85 43.23 105.2 43.23 105.2"/><polygon class="cls-65" points="43.24 105.2 43 104.85 42.99 104.85 43.23 105.2 43.24 105.2"/><polygon class="cls-66" points="43.24 105.2 43 104.85 43 104.85 43.24 105.2 43.24 105.2"/><polygon class="cls-67" points="43.24 105.19 43.01 104.85 43 104.85 43.24 105.2 43.24 105.19"/><polygon class="cls-68" points="43.25 105.19 43.01 104.84 43.01 104.85 43.24 105.19 43.25 105.19"/><polygon class="cls-69" points="43.26 105.19 43.02 104.84 43.01 104.84 43.25 105.19 43.26 105.19"/><polygon class="cls-70" points="43.26 105.19 43.02 104.84 43.02 104.84 43.26 105.19 43.26 105.19"/><polygon class="cls-71" points="43.26 105.19 43.03 104.84 43.02 104.84 43.26 105.19 43.26 105.19"/><polygon class="cls-72" points="43.27 105.18 43.03 104.84 43.03 104.84 43.26 105.19 43.27 105.18"/><polygon class="cls-73" points="43.27 105.18 43.04 104.83 43.03 104.84 43.27 105.18 43.27 105.18"/><polygon class="cls-74" points="43.28 105.18 43.04 104.83 43.04 104.83 43.27 105.18 43.28 105.18"/><polygon class="cls-75" points="43.28 105.18 43.05 104.83 43.04 104.83 43.28 105.18 43.28 105.18"/><polygon class="cls-76" points="43.29 105.18 43.05 104.83 43.05 104.83 43.28 105.18 43.29 105.18"/><polygon class="cls-77" points="43.29 105.17 43.06 104.83 43.05 104.83 43.29 105.18 43.29 105.17"/><polygon class="cls-78" points="43.3 105.17 43.06 104.83 43.06 104.83 43.29 105.17 43.3 105.17"/><polygon class="cls-79" points="43.3 105.17 43.06 104.82 43.06 104.83 43.3 105.17 43.3 105.17 43.3 105.17"/><polygon class="cls-80" points="43.29 105.15 43.07 104.82 43.06 104.82 43.3 105.17 43.29 105.15"/><polygon class="cls-81" points="43.28 105.13 43.08 104.82 43.07 104.82 43.29 105.15 43.28 105.13"/><polygon class="cls-82" points="43.27 105.11 43.08 104.82 43.08 104.82 43.28 105.13 43.27 105.11"/><polygon class="cls-83" points="43.27 105.08 43.08 104.82 43.08 104.82 43.27 105.11 43.27 105.08"/><polygon class="cls-84" points="43.26 105.06 43.09 104.81 43.08 104.82 43.27 105.08 43.26 105.06"/><polygon class="cls-85" points="43.25 105.04 43.09 104.81 43.09 104.81 43.26 105.06 43.25 105.04"/><polygon class="cls-86" points="43.24 105.02 43.1 104.81 43.09 104.81 43.25 105.04 43.24 105.02"/><polygon class="cls-87" points="43.23 105 43.1 104.81 43.1 104.81 43.24 105.02 43.23 105"/><polygon class="cls-88" points="43.22 104.98 43.11 104.81 43.1 104.81 43.23 105 43.22 104.98"/><polygon class="cls-89" points="43.22 104.96 43.11 104.8 43.11 104.81 43.22 104.98 43.22 104.96"/><polygon class="cls-90" points="43.21 104.94 43.12 104.8 43.11 104.8 43.22 104.96 43.21 104.94"/><polygon class="cls-91" points="43.2 104.91 43.12 104.8 43.12 104.8 43.21 104.94 43.2 104.91"/><polygon class="cls-92" points="43.19 104.89 43.13 104.8 43.12 104.8 43.2 104.91 43.19 104.89"/><polygon class="cls-92" points="43.13 104.8 43.19 104.89 43.15 104.79 43.13 104.8"/></g><path class="cls-93" d="M50.28,174a1.75,1.75,0,1,1-1.75-1.75A1.75,1.75,0,0,1,50.28,174Z"/><rect class="cls-3" x="38.25" y="149.72" width="1.95" height="21.57" transform="translate(-0.44 0.11) rotate(-0.16)"/><path class="cls-93" d="M32.29,173.66a1.75,1.75,0,1,1-1.76-1.74A1.75,1.75,0,0,1,32.29,173.66Z"/><path class="cls-3" d="M49.24,172.44,30,172.49h0a1.73,1.73,0,0,1,1.73-1.74l15.76,0a1.73,1.73,0,0,1,1.74,1.72Z"/><rect class="cls-93" x="37.61" y="172.35" width="2.9" height="3.44" rx="0.91" ry="0.91" transform="translate(-0.48 0.11) rotate(-0.16)"/><polygon class="cls-94" points="38.41 142.42 55.66 142.67 49.97 148.11 27.77 149.05 28.39 146.64 38.41 142.42"/><polygon class="cls-95" points="36.39 114.84 24.57 114.37 28.39 146.64 38.94 142.06 36.39 114.84"/><path class="cls-96" d="M48.74,150.67l-22.51-.75L22,116.79a2.1,2.1,0,1,1,4.16-.54l3.79,29.59,18.94.64a2.1,2.1,0,1,1-.14,4.19Z"/><path class="cls-97" d="M47.52,135.38l12,11.18a2.16,2.16,0,0,1,.69,1.38l2.9,27.22-1.72-.25S52,160,54.36,149.87L42.3,146S42.27,136.59,47.52,135.38Z"/><path class="cls-97" d="M42.69,144.92c-3.75-2.7-7.61-5.24-9.89-9.37l.2-1.76c-2.1-6-4.38-11.17-4-18.75.16-2.94,3.91-3.39,6.19-4.85l4.37,1.75,1.91-1.06,2.67,1.63,2,13.89,4.19,7.93s-3.06,1.32-4.43,1.73C43.88,136.69,43,140.34,42.69,144.92Z"/><polygon class="cls-8" points="35.22 110.68 42.37 125.04 41.51 110.88 39.54 110.32 35.22 110.68"/><path class="cls-98" d="M42.31,125.07s-1.31,5.89.07,7.17,2.64,3.46,2.45,3.91c0,0,.74-1.42-1.93-4.3C42.9,131.85,41.53,130.74,42.31,125.07Z"/><path class="cls-3" d="M42.69,127.3c0,.2.07.37.18.38s.2-.16.21-.37-.08-.37-.19-.38S42.69,127.09,42.69,127.3Z"/><path class="cls-3" d="M42.77,127.3c0,.21.08.38.19.38s.2-.16.21-.37-.08-.37-.19-.37S42.78,127.1,42.77,127.3Z"/><path class="cls-3" d="M42.88,130.21c0,.21.08.38.18.38s.21-.16.21-.37-.07-.37-.18-.37S42.89,130,42.88,130.21Z"/><path class="cls-3" d="M43,130.21c0,.21.07.38.18.38s.2-.16.21-.36-.08-.38-.18-.38S43,130,43,130.21Z"/><path class="cls-3" d="M44.39,132.91c0,.21.14.36.25.34s.17-.2.14-.4-.15-.35-.26-.34S44.36,132.71,44.39,132.91Z"/><path class="cls-3" d="M44.47,132.9c0,.2.15.35.26.33s.17-.19.13-.39-.14-.36-.25-.34S44.44,132.7,44.47,132.9Z"/><polygon class="cls-8" points="39.59 111.73 39.54 110.32 35.92 109.42 34.84 110.67 38.94 113.23 39.59 111.73"/><polygon class="cls-98" points="42.37 125.04 36.53 118.24 37.05 117.09 33.14 113.42 35.27 110.78 42.37 125.04"/><polygon class="cls-98" points="42.05 124.4 41.51 110.88 43.5 112.97 42.65 116.04 43.5 116.44 42.05 124.4"/><polygon class="cls-3" points="60.88 173.76 60.03 174.98 60.38 176.74 62.2 176.8 62.22 176.16 62.94 176.06 63.44 176.86 66.46 176.96 66.48 176.17 63.27 175.08 63.01 173.83 60.88 173.76"/><path class="cls-3" d="M39.54,110.32l1.17,2.09-.37.86-1.4,0S39.91,110.42,39.54,110.32Z"/><polygon class="cls-99" points="39.54 110.32 40.96 109.6 41.51 110.88 40.71 112.41 39.54 110.32"/><polygon class="cls-97" points="40.34 113.27 41.94 121.58 42.05 124.4 40.22 120.71 39.64 119.56 39.55 113.25 40.34 113.27"/><path class="cls-8" d="M55.58,122l-.35-.6s-.47.43-.36.71c0,0-.8.37-.41.71,0,0-.5.5-.2.64,0,0-.57.31,0,.65l.71-.29a1,1,0,0,0,.57-.73C55.63,122.55,55.73,121.91,55.58,122Z"/><path class="cls-98" d="M30,113.42s2.27-1,4.58,2.32C37.24,119.64,41,125,41,125l-1.59,4-9.76-8.27S26.68,115.92,30,113.42Z"/><path class="cls-98" d="M40.09,123.63l-.7,1.56s1.18-1.74,1.65-1.91Z"/><path class="cls-100" d="M52.21,118.72h-.52l.44.88,1.21-.27-.61.73-.65.09-.31-.3-.17-.57-.22-.26.13-.56S52.51,118.15,52.21,118.72Z"/><polyline class="cls-100" points="51.51 121.24 51.64 121.17 52.33 120.79 53.69 120.63 53.69 120.02 53.34 119.67 52.69 119.85 52.47 119.93 52.25 120.15"/><polygon class="cls-100" points="51.38 119.02 51.25 118.28 51.86 118.11 52.21 118.54 51.69 118.72 51.6 119.28 51.38 119.02"/><polygon class="cls-3" points="53.27 121.51 53.81 121.67 53.76 121.2 53.27 121.51"/><path class="cls-3" d="M50.24,116.61s-.07-.5.49-.3l-.09.32Z"/><path class="cls-97" d="M28.79,118.89l3.13,13,.52,2.26s-1.91,6.78,0,8.52S42.3,146,42.3,146L50,139.39,55.9,138l-5.48-3.67-7.9,1.07-4.09-.55.27-4.66Z"/><polygon class="cls-3" points="50.86 139.57 39.74 144.09 35.74 144.43 39.74 143.04 50.86 139.57"/><polygon class="cls-3" points="50.86 139.57 46 136.96 54.51 140.61 50.86 139.57"/><polygon class="cls-101" points="47.87 114.87 56.88 117.73 48.79 131.25 40.53 127.13 47.87 114.87"/><rect class="cls-3" x="51.71" y="116.03" width="0.58" height="5.75" transform="translate(-54.77 45.12) rotate(-31.73)"/><path class="cls-100" d="M50.41,121.19l.8-1.65,0-1.26,1.18-.32s.83.07,0,.69l-.48.13.2.82,1.69-.5,0-.74s-.22-.48.47-.34l-.07,2.08v.57l-1.91.12-.65.44Z"/><polygon class="cls-3" points="49.24 132.33 40.84 127.75 41.02 127.29 48.79 131.25 49.24 132.33"/><polygon class="cls-3" points="46 116.92 41.94 123.93 43.16 122.6 45.71 118.43 46 116.92"/><path class="cls-98" d="M39.5,128.9s10.91-5.61,12.09-7.52l-.74-1.48L39.8,123.74S34.49,125.8,39.5,128.9Z"/><polygon class="cls-102" points="40.09 123.63 38.93 124.63 39.86 123.41 40.09 123.63"/><ellipse class="cls-103" cx="131.04" cy="171.72" rx="131.04" ry="8.15"/><rect class="cls-104" x="83.29" width="94.84" height="171.72" rx="11.9" ry="11.9"/><rect class="cls-105" x="85.24" y="15.22" width="90.93" height="144.79"/><line class="cls-106" x1="90.15" y1="144.96" x2="171.27" y2="144.96"/><circle class="cls-8" cx="130.71" cy="61.99" r="35.56"/><path class="cls-107" d="M155.06,62a24.33,24.33,0,1,1-.9-6.58A24.35,24.35,0,0,1,155.06,62Z"/><path class="cls-108" d="M144.13,41.66,130.71,62,113.32,44.94a24.35,24.35,0,0,1,30.81-3.28Z"/><path class="cls-98" d="M154.16,55.41,130.71,62l13.42-20.33A24.35,24.35,0,0,1,154.16,55.41Z"/><polygon class="cls-108" points="124.92 138.95 124.77 138.8 136.74 127.25 142 131.24 147.62 130 147.64 130 153.85 131.66 158.42 126.04 164.69 124.78 168.22 120.01 168.39 120.14 164.81 124.97 158.54 126.23 153.92 131.89 147.62 130.21 141.95 131.47 141.91 131.44 136.76 127.52 124.92 138.95"/><polygon class="cls-8" points="125.11 137.09 124.99 136.91 136.54 129.35 136.59 129.38 142.78 132.68 145.93 128.06 151.55 133.68 155.28 123.92 163.02 126.22 166.75 118.36 166.93 118.45 163.13 126.47 155.41 124.17 151.63 134.05 145.96 128.39 142.84 132.96 136.55 129.6 125.11 137.09"/><path class="cls-108" d="M137.45,127.32a.7.7,0,1,1-.7-.7A.69.69,0,0,1,137.45,127.32Z"/><path class="cls-108" d="M142.67,131.36a.7.7,0,1,1-.69-.7A.69.69,0,0,1,142.67,131.36Z"/><circle class="cls-108" cx="153.89" cy="131.77" r="0.7"/><circle class="cls-108" cx="164.75" cy="124.88" r="0.7"/><path class="cls-108" d="M169.14,119.93a.7.7,0,1,1-.7-.69A.7.7,0,0,1,169.14,119.93Z"/><path class="cls-108" d="M159.18,126.13a.7.7,0,1,1-.7-.69A.7.7,0,0,1,159.18,126.13Z"/><path class="cls-108" d="M148.38,130a.7.7,0,1,1-.69-.69A.69.69,0,0,1,148.38,130Z"/><path class="cls-8" d="M146.71,128.29a.7.7,0,1,1-.7-.69A.7.7,0,0,1,146.71,128.29Z"/><path class="cls-108" d="M146,129.09a.8.8,0,1,1,.81-.8A.8.8,0,0,1,146,129.09Zm0-1.39a.6.6,0,0,0-.59.59.6.6,0,0,0,1.19,0A.6.6,0,0,0,146,127.7Z"/><path class="cls-8" d="M143.51,132.82a.7.7,0,1,1-.7-.7A.7.7,0,0,1,143.51,132.82Z"/><path class="cls-108" d="M142.81,133.62a.8.8,0,1,1,.8-.8A.8.8,0,0,1,142.81,133.62Zm0-1.39a.59.59,0,1,0,.59.59A.58.58,0,0,0,142.81,132.23Z"/><circle class="cls-8" cx="136.54" cy="129.48" r="0.7"/><path class="cls-108" d="M136.54,130.28a.8.8,0,1,1,.8-.8A.8.8,0,0,1,136.54,130.28Zm0-1.4a.6.6,0,0,0,0,1.19.6.6,0,0,0,0-1.19Z"/><path class="cls-8" d="M156,124a.7.7,0,1,1-.69-.69A.69.69,0,0,1,156,124Z"/><path class="cls-108" d="M155.35,124.84a.8.8,0,1,1,.8-.8A.8.8,0,0,1,155.35,124.84Zm0-1.39a.6.6,0,0,0,0,1.19.6.6,0,0,0,0-1.19Z"/><path class="cls-8" d="M163.77,126.34a.7.7,0,1,1-.69-.69A.69.69,0,0,1,163.77,126.34Z"/><path class="cls-108" d="M163.08,127.14a.8.8,0,1,1,.8-.8A.8.8,0,0,1,163.08,127.14Zm0-1.39a.59.59,0,0,0-.59.59.58.58,0,0,0,.59.59.59.59,0,0,0,.59-.59A.6.6,0,0,0,163.08,125.75Z"/><circle class="cls-8" cx="166.91" cy="118.26" r="0.7"/><path class="cls-108" d="M166.91,119.06a.8.8,0,1,1,.8-.8A.8.8,0,0,1,166.91,119.06Zm0-1.39a.6.6,0,1,0,.59.59A.59.59,0,0,0,166.91,117.67Z"/><path class="cls-8" d="M152.28,133.86a.7.7,0,1,1-.69-.69A.69.69,0,0,1,152.28,133.86Z"/><path class="cls-108" d="M151.59,134.66a.8.8,0,1,1,.8-.8A.8.8,0,0,1,151.59,134.66Zm0-1.39a.6.6,0,1,0,.59.59A.6.6,0,0,0,151.59,133.27Z"/><rect class="cls-8" x="92.28" y="129.35" width="2.63" height="11.68"/><rect class="cls-8" x="96.21" y="117.06" width="2.63" height="23.97"/><rect class="cls-8" x="100.14" y="119.17" width="2.63" height="21.86"/><rect class="cls-8" x="104.06" y="110.91" width="2.63" height="30.12"/><rect class="cls-8" x="107.99" y="107.49" width="2.63" height="33.54"/><rect class="cls-8" x="111.92" y="113.72" width="2.63" height="27.31"/><rect class="cls-8" x="115.84" y="100.55" width="2.63" height="40.48"/><polygon class="cls-8" points="110.22 147.84 111.12 150.63 114.05 150.63 111.68 152.35 112.58 155.13 110.22 153.41 107.85 155.13 108.75 152.35 106.39 150.63 109.31 150.63 110.22 147.84"/><polygon class="cls-8" points="120.45 147.84 121.36 150.63 124.28 150.63 121.92 152.35 122.82 155.13 120.45 153.41 118.09 155.13 118.99 152.35 116.62 150.63 119.55 150.63 120.45 147.84"/><polygon class="cls-8" points="130.69 147.84 131.6 150.63 134.52 150.63 132.16 152.35 133.06 155.13 130.69 153.41 128.32 155.13 129.23 152.35 126.86 150.63 129.79 150.63 130.69 147.84"/><polygon class="cls-8" points="140.93 147.84 141.83 150.63 144.76 150.63 142.39 152.35 143.3 155.13 140.93 153.41 138.56 155.13 139.47 152.35 137.1 150.63 140.03 150.63 140.93 147.84"/><polygon class="cls-8" points="151.17 147.84 152.07 150.63 155 150.63 152.63 152.35 153.53 155.13 151.17 153.41 148.8 155.13 149.71 152.35 147.34 150.63 150.26 150.63 151.17 147.84"/><path class="cls-97" d="M227.71,120.62l1.74,7.12-1.18.31-1.36-3.31S226.79,119.67,227.71,120.62Z"/><path class="cls-109" d="M228.67,95.64a2.69,2.69,0,0,0-.87,2.8c.48,1.79.16.27.16.27l-4.22,3.12.8-4.14s3.15-5.06,3.79-5S229.32,94.84,228.67,95.64Z"/><path class="cls-5" d="M224.38,90.1s-2.36,5-1,6.65c0,0,2.71.69,4.66-4C228,92.72,226.81,89.7,224.38,90.1Z"/><path class="cls-6" d="M229.45,89.86a25.2,25.2,0,0,1-4.75-1.41,1,1,0,0,0-1.48,1,1.56,1.56,0,0,0,1.5,1.66s2.51-.64,2.52,1.87c0,0-.56,2.72-4.19,2.44,0,0-.14-.82-.07,1.82,0,0,1.62,2.37,4.27-1.85,0,0-.19-2,1.39-1.62,0,0,.64,1-1.07,2.17l-.16.81S231.69,94.13,229.45,89.86Z"/><path class="cls-5" d="M223.88,92.72l-1.3,1.17a.13.13,0,0,0,.06.22l1.05.22Z"/><g class="cls-110"><polygon class="cls-8" points="223.22 94.62 223.5 94.29 223.3 94.66 223.22 94.62"/><polygon class="cls-8" points="223.22 94.61 223.49 94.29 223.5 94.29 223.5 94.29 223.22 94.62 223.22 94.61"/><polygon class="cls-9" points="223.21 94.61 223.49 94.28 223.49 94.29 223.22 94.61 223.21 94.61"/><polygon class="cls-10" points="223.21 94.61 223.48 94.28 223.49 94.28 223.21 94.61 223.21 94.61"/><polygon class="cls-11" points="223.2 94.61 223.48 94.28 223.48 94.28 223.21 94.61 223.2 94.61"/><polygon class="cls-12" points="223.2 94.61 223.47 94.28 223.48 94.28 223.2 94.61 223.2 94.61"/><polygon class="cls-13" points="223.19 94.6 223.47 94.28 223.47 94.28 223.2 94.61 223.19 94.6"/><polygon class="cls-14" points="223.19 94.6 223.46 94.27 223.47 94.28 223.19 94.6 223.19 94.6"/><polygon class="cls-15" points="223.18 94.6 223.46 94.27 223.46 94.27 223.19 94.6 223.18 94.6"/><polygon class="cls-16" points="223.18 94.59 223.46 94.27 223.46 94.27 223.18 94.6 223.18 94.59"/><polygon class="cls-17" points="223.18 94.59 223.45 94.27 223.46 94.27 223.18 94.59 223.18 94.59"/><polygon class="cls-18" points="223.17 94.59 223.45 94.26 223.45 94.27 223.18 94.59 223.17 94.59"/><polygon class="cls-19" points="223.17 94.59 223.44 94.26 223.45 94.26 223.17 94.59 223.17 94.59"/><polygon class="cls-20" points="223.16 94.59 223.44 94.26 223.44 94.26 223.17 94.59 223.16 94.59"/><polygon class="cls-21" points="223.16 94.58 223.43 94.25 223.44 94.26 223.16 94.59 223.16 94.58"/><polygon class="cls-22" points="223.15 94.58 223.43 94.25 223.43 94.25 223.16 94.58 223.15 94.58"/><polygon class="cls-23" points="223.15 94.58 223.42 94.25 223.43 94.25 223.15 94.58 223.15 94.58"/><polygon class="cls-24" points="223.14 94.58 223.42 94.25 223.42 94.25 223.15 94.58 223.14 94.58"/><polygon class="cls-25" points="223.14 94.57 223.41 94.25 223.42 94.25 223.14 94.58 223.14 94.57"/><polygon class="cls-26" points="223.13 94.57 223.41 94.24 223.41 94.25 223.14 94.57 223.13 94.57"/><polygon class="cls-27" points="223.13 94.57 223.4 94.24 223.41 94.24 223.13 94.57 223.13 94.57"/><polygon class="cls-28" points="223.12 94.57 223.4 94.24 223.4 94.24 223.13 94.57 223.12 94.57"/><polygon class="cls-29" points="223.12 94.56 223.4 94.24 223.4 94.24 223.12 94.57 223.12 94.56"/><polygon class="cls-30" points="223.12 94.56 223.39 94.23 223.4 94.24 223.12 94.56 223.12 94.56"/><polygon class="cls-31" points="223.11 94.56 223.39 94.23 223.39 94.23 223.12 94.56 223.11 94.56"/><polygon class="cls-32" points="223.11 94.56 223.38 94.23 223.39 94.23 223.11 94.56 223.11 94.56"/><polygon class="cls-33" points="223.1 94.55 223.38 94.23 223.38 94.23 223.11 94.56 223.1 94.55"/><polygon class="cls-34" points="223.1 94.55 223.37 94.22 223.38 94.23 223.1 94.55 223.1 94.55"/><polygon class="cls-35" points="223.09 94.55 223.37 94.22 223.37 94.22 223.1 94.55 223.09 94.55"/><polygon class="cls-36" points="223.09 94.55 223.36 94.22 223.37 94.22 223.09 94.55 223.09 94.55"/><polygon class="cls-37" points="223.08 94.55 223.36 94.22 223.36 94.22 223.09 94.55 223.08 94.55"/><polygon class="cls-38" points="223.08 94.54 223.35 94.22 223.36 94.22 223.08 94.55 223.08 94.54"/><polygon class="cls-39" points="223.07 94.54 223.35 94.21 223.35 94.22 223.08 94.54 223.07 94.54"/><polygon class="cls-40" points="223.07 94.54 223.34 94.21 223.35 94.21 223.07 94.54 223.07 94.54"/><polygon class="cls-41" points="223.06 94.53 223.34 94.21 223.34 94.21 223.07 94.54 223.06 94.53"/><polygon class="cls-42" points="223.06 94.53 223.34 94.2 223.34 94.21 223.06 94.53 223.06 94.53"/><polygon class="cls-43" points="223.06 94.53 223.33 94.2 223.34 94.2 223.06 94.53 223.06 94.53"/><polygon class="cls-44" points="223.05 94.53 223.33 94.2 223.33 94.2 223.06 94.53 223.05 94.53"/><polygon class="cls-45" points="223.05 94.53 223.32 94.2 223.33 94.2 223.05 94.53 223.05 94.53"/><polygon class="cls-46" points="223.04 94.52 223.32 94.2 223.32 94.2 223.05 94.53 223.04 94.52"/><polygon class="cls-47" points="223.04 94.52 223.31 94.19 223.32 94.2 223.04 94.52 223.04 94.52"/><polygon class="cls-48" points="223.03 94.52 223.31 94.19 223.31 94.19 223.04 94.52 223.03 94.52"/><polygon class="cls-49" points="223.03 94.52 223.3 94.19 223.31 94.19 223.03 94.52 223.03 94.52"/><polygon class="cls-50" points="223.02 94.51 223.3 94.19 223.3 94.19 223.03 94.52 223.02 94.51"/><polygon class="cls-51" points="223.02 94.51 223.29 94.18 223.3 94.19 223.02 94.51 223.02 94.51"/><polygon class="cls-52" points="223.01 94.51 223.29 94.18 223.29 94.18 223.02 94.51 223.01 94.51"/><polygon class="cls-53" points="223.01 94.51 223.28 94.18 223.29 94.18 223.01 94.51 223.01 94.51"/><polygon class="cls-54" points="223 94.5 223.28 94.18 223.28 94.18 223.01 94.51 223 94.5"/><polygon class="cls-55" points="223 94.5 223.28 94.17 223.28 94.18 223 94.5 223 94.5"/><polygon class="cls-56" points="223 94.5 223.27 94.17 223.28 94.17 223 94.5 223 94.5"/><polygon class="cls-57" points="222.99 94.5 223.27 94.17 223.27 94.17 223 94.5 222.99 94.5"/><polygon class="cls-58" points="222.99 94.5 223.26 94.17 223.27 94.17 222.99 94.5 222.99 94.5"/><polygon class="cls-59" points="222.98 94.49 223.26 94.16 223.26 94.17 222.99 94.5 222.98 94.49"/><polygon class="cls-60" points="222.98 94.49 223.25 94.16 223.26 94.16 222.98 94.49 222.98 94.49"/><polygon class="cls-61" points="222.97 94.49 223.25 94.16 223.25 94.16 222.98 94.49 222.97 94.49"/><polygon class="cls-62" points="222.97 94.48 223.24 94.16 223.25 94.16 222.97 94.49 222.97 94.48"/><polygon class="cls-63" points="222.96 94.48 223.24 94.16 223.24 94.16 222.97 94.48 222.96 94.48"/><polygon class="cls-64" points="222.96 94.48 223.23 94.15 223.24 94.16 222.96 94.48 222.96 94.48"/><polygon class="cls-65" points="222.95 94.48 223.23 94.15 223.23 94.15 222.96 94.48 222.95 94.48"/><polygon class="cls-66" points="222.95 94.47 223.22 94.15 223.23 94.15 222.95 94.48 222.95 94.47"/><polygon class="cls-67" points="222.94 94.47 223.22 94.14 223.22 94.15 222.95 94.47 222.94 94.47"/><polygon class="cls-68" points="222.94 94.47 223.22 94.14 223.22 94.14 222.94 94.47 222.94 94.47"/><polygon class="cls-69" points="222.94 94.47 223.21 94.14 223.22 94.14 222.94 94.47 222.94 94.47"/><polygon class="cls-70" points="222.93 94.47 223.21 94.14 223.21 94.14 222.94 94.47 222.93 94.47"/><polygon class="cls-71" points="222.93 94.46 223.2 94.14 223.21 94.14 222.93 94.47 222.93 94.46"/><polygon class="cls-72" points="222.92 94.46 223.2 94.13 223.2 94.14 222.93 94.46 222.92 94.46"/><polygon class="cls-73" points="222.92 94.46 223.19 94.13 223.2 94.13 222.92 94.46 222.92 94.46"/><polygon class="cls-74" points="222.91 94.46 223.19 94.13 223.19 94.13 222.92 94.46 222.91 94.46"/><polygon class="cls-75" points="222.91 94.45 223.18 94.13 223.19 94.13 222.91 94.46 222.91 94.45"/><polygon class="cls-76" points="222.9 94.45 223.18 94.12 223.18 94.13 222.91 94.45 222.9 94.45"/><polygon class="cls-77" points="222.9 94.45 223.18 94.12 223.18 94.12 222.9 94.45 222.9 94.45"/><polygon class="cls-78" points="222.9 94.45 223.17 94.12 223.18 94.12 222.9 94.45 222.9 94.45"/><polygon class="cls-79" points="222.89 94.44 223.16 94.12 223.17 94.12 222.9 94.45 222.89 94.44 222.89 94.44"/><polygon class="cls-80" points="222.9 94.42 223.16 94.11 223.16 94.12 222.89 94.44 222.9 94.42"/><polygon class="cls-81" points="222.91 94.4 223.16 94.11 223.16 94.11 222.9 94.42 222.91 94.4"/><polygon class="cls-82" points="222.92 94.38 223.15 94.11 223.16 94.11 222.91 94.4 222.92 94.38"/><polygon class="cls-83" points="222.94 94.36 223.15 94.11 223.15 94.11 222.92 94.38 222.94 94.36"/><polygon class="cls-84" points="222.95 94.34 223.14 94.1 223.15 94.11 222.94 94.36 222.95 94.34"/><polygon class="cls-85" points="222.96 94.32 223.14 94.1 223.14 94.1 222.95 94.34 222.96 94.32"/><polygon class="cls-86" points="222.97 94.3 223.13 94.1 223.14 94.1 222.96 94.32 222.97 94.3"/><polygon class="cls-87" points="222.98 94.28 223.13 94.1 223.13 94.1 222.97 94.3 222.98 94.28"/><polygon class="cls-88" points="222.99 94.26 223.12 94.09 223.13 94.1 222.98 94.28 222.99 94.26"/><polygon class="cls-89" points="223 94.23 223.12 94.09 223.12 94.09 222.99 94.26 223 94.23"/><polygon class="cls-90" points="223.01 94.22 223.12 94.09 223.12 94.09 223 94.23 223.01 94.22"/><polygon class="cls-91" points="223.02 94.19 223.11 94.09 223.12 94.09 223.01 94.22 223.02 94.19"/><polygon class="cls-92" points="223.03 94.17 223.11 94.08 223.11 94.09 223.02 94.19 223.03 94.17"/><polygon class="cls-92" points="223.11 94.08 223.03 94.17 223.08 94.07 223.11 94.08"/></g><path class="cls-111" d="M229.45,89.86l-.9-.64-4.31-.87S227.38,90,229.45,89.86Z"/><path class="cls-3" d="M225.14,99.84l-10.79,1.52-4.87-5.68-.88.81,3.77,9,8.37,1.44S229.4,102.73,225.14,99.84Z"/><path class="cls-8" d="M207.82,94.4,211,107a21.63,21.63,0,0,0-9.75,4.75l-4.92,2s1.8-9.1-1.8-13.16-6.62-8-6.62-8,11.92-9.77,13.91-9.47C201.86,83.13,208.39,88.44,207.82,94.4Z"/><path class="cls-99" d="M196.07,114.07l.08-.41c0-.09,1.74-9-1.75-13s-6.6-7.91-6.63-8l-.13-.17.17-.14c.47-.39,11.65-9.54,13.95-9.54H202l.05,0c.27.22,6.59,5.44,6.05,11.43l3.27,12.75-.24.05a21.44,21.44,0,0,0-9.64,4.69l-.07,0Zm-7.81-21.43c.63.8,3.36,4.23,6.48,7.76s2.23,11.1,1.92,12.95l4.5-1.84a21.93,21.93,0,0,1,9.6-4.73L207.6,94.42v0c.52-5.49-5.22-10.52-5.83-11h0C200,83.34,191.59,89.92,188.26,92.64Z"/><path class="cls-3" d="M228,130.76s1.64-3.71-1.12-9.53l-2.71,5.82Z"/><path class="cls-3" d="M228.27,127.46l.28,19.47s4,5.49,2.27,22.85h-1.41l-8.72-36.51S224.85,130.4,228.27,127.46Z"/><path class="cls-97" d="M223,100.27l-5.68,4.22s-2.27,11.07-1.13,18.59l8.52,5,2.84-1.71v-5.11l3.54-13.69s.86-5.94-3.14-8.83L224.2,99Z"/><path class="cls-97" d="M216.2,123.08l1.13,22.57,1.85,27.4h1.56s5.34-20,1.94-28.58l2.6-11.74s3.13-6.81.71-8.8Z"/><path class="cls-112" d="M198.37,103l-.34-1.36-1.79-1.8s-.46-.06.28,1l.71.62-.58.3s-1.82-.53-2.28-1.34v1.31l1.73,1.39,1-.17.48.39Z"/><path class="cls-3" d="M219.46,172.72l-1.27.74-1.63-.23s-.23,1,.57,1.1,3,.07,3,.07l1.13.06-.31-.85-.17-.7Z"/><path class="cls-3" d="M229.84,169.39l-1.27.73-1.63-.23s-.23,1,.57,1.1,3,.07,3,.07l1.13.06-.31-.84-.17-.7Z"/><path class="cls-97" d="M216.76,110.49s-1.56,16.94,1.47,19.59,9-.09,9-.09l.32-6.91-5.07,4.26Z"/><path class="cls-3" d="M216.2,120.09s1.37,8.67,2.7,10.47l7.27-.15-7.84.83S216,122.49,216.2,120.09Z"/><path class="cls-3" d="M216.2,120.09l1.54-9.88-1.38.39S216,119,216.2,120.09Z"/><path class="cls-98" d="M221.64,101.14l-11.55,7.32-11.74-5.9-1.12,1.32L209,112.66l14-3.91c1.71-.92,2.81-1.64,3.35-2.68,1-1.94,1.75-3.65-1-5.11A3.69,3.69,0,0,0,221.64,101.14Z"/><path class="cls-113" d="M209.09,95.48l.25-1.74-2-2.07.21,1,.66.86-1-.91s-.22.19.39,1l-.09.74.76.92.46.91.44-.35Z"/><polygon class="cls-8" points="227.81 98.44 224.2 98.98 223.53 100.55 228.26 98.94 227.81 98.44"/><path class="cls-8" d="M222.33,129a3.39,3.39,0,1,1,4.07-2.54A3.39,3.39,0,0,1,222.33,129Zm1.44-6.2a3,3,0,1,0,2.22,3.57A3,3,0,0,0,223.77,122.78Z"/><path class="cls-8" d="M223.59,123.58l.07,0a1.23,1.23,0,0,1,.21,0l.15,0,.17.07.19.1.19.14.19.17a1.81,1.81,0,0,1,.18.21,2.21,2.21,0,0,1,.3.52,2.62,2.62,0,0,1,.14.63,2.17,2.17,0,0,1,0,.67,1.86,1.86,0,0,1-.1.31,1.77,1.77,0,0,1-.15.31,2.2,2.2,0,0,1-.4.5,2.6,2.6,0,0,1-.5.34l-.25.1-.25.07-.23,0h-.4l-.15,0a1.31,1.31,0,0,1-.21,0l-.08,0h.44l.18,0,.41-.09a2.49,2.49,0,0,0,.44-.21,2.15,2.15,0,0,0,.43-.33,2.29,2.29,0,0,0,.34-.46,2.06,2.06,0,0,0,.12-.26,2.46,2.46,0,0,0,.09-.29,2.28,2.28,0,0,0,.05-.58,2,2,0,0,0-.1-.56,2.23,2.23,0,0,0-.24-.49,2,2,0,0,0-.31-.38,2.29,2.29,0,0,0-.32-.26l-.15-.1-.14-.07-.19-.08Z"/><rect class="cls-8" x="221.28" y="129.05" width="1.96" height="1.03" transform="translate(45.8 316.78) rotate(-76.93)"/><path class="cls-8" d="M222.77,132.35l.28-1.3a1.07,1.07,0,0,0-.82-1.28h0a1.07,1.07,0,0,0-1.28.82l-.38,1.76Z"/></g></g></svg>