<svg id="Layer_1" data-name="Layer 1" xmlns="http://www.w3.org/2000/svg" viewBox="0 0 35.24 35.24"><defs><style>.cls-1{fill:#fff;}</style></defs><title>صور وايقونات</title><path class="cls-1" d="M26.89,6.49A2.07,2.07,0,1,0,29,8.56,2.07,2.07,0,0,0,26.89,6.49ZM17.68,9.15a8.7,8.7,0,1,0,8.7,8.7A8.71,8.71,0,0,0,17.68,9.15Zm0,14.27a5.58,5.58,0,1,1,5.58-5.57A5.58,5.58,0,0,1,17.68,23.42Zm17.56-12.8A10.61,10.61,0,0,0,24.63,0h-14A10.61,10.61,0,0,0,0,10.62v14A10.61,10.61,0,0,0,10.62,35.24h14A10.61,10.61,0,0,0,35.24,24.63Zm-3.32,14a7.3,7.3,0,0,1-7.29,7.29h-14a7.3,7.3,0,0,1-7.3-7.29v-14a7.3,7.3,0,0,1,7.3-7.3h14a7.3,7.3,0,0,1,7.29,7.3Z"/></svg>