<svg id="Layer_1" data-name="Layer 1" xmlns="http://www.w3.org/2000/svg" viewBox="0 0 87.18 87.14"><defs><style>.cls-1{fill:#02265d;}.cls-2{fill:#0598d8;}</style></defs><title>صور وايقونات</title><path class="cls-1" d="M20.72,43.44a1.29,1.29,0,0,1-1.33,1.28,11.83,11.83,0,0,1-1.46,0c-.86,0-1.58-.32-1.58-1.32s.72-1.28,1.6-1.27h.59a8.42,8.42,0,0,1,.87,0C20.19,42.23,20.73,42.65,20.72,43.44Z"/><path class="cls-1" d="M27.66,60.66a3.48,3.48,0,0,1-2.26,2.28c-.79.26-1.42-.16-1.48-1.09s1.75-2.68,2.58-2.67C27.28,59.35,27.93,59.85,27.66,60.66Z"/><path class="cls-1" d="M27.81,26.47a1.27,1.27,0,0,1-1.14,1.24c-.88,0-2.75-1.78-2.7-2.61a1.18,1.18,0,0,1,1.21-1.2C26.07,23.85,27.84,25.57,27.81,26.47Z"/><path class="cls-1" d="M44.39,70.21a1.16,1.16,0,0,1-1.57.29c-.83-.49-.65-1.32-.66-2.27a1.68,1.68,0,0,1,.65-1.77,1.19,1.19,0,0,1,1.58.28A4,4,0,0,1,44.39,70.21Z"/><path class="cls-1" d="M43.94,20.66a1.15,1.15,0,0,1-1.39-.52c-.35-.51-.13-1.12-.2-1.69s-.13-1.07.19-1.55a1.16,1.16,0,0,1,1.39-.52c1,.31.91,1.13.87,1.92S45.11,20.22,43.94,20.66Z"/><path class="cls-1" d="M57.74,50.91c-.67,1.2-1.67.54-2.54.09-2.43-1.24-4.86-2.46-7.26-3.73a1.33,1.33,0,0,0-1.66.06,4.51,4.51,0,0,1-6.82-1.65,1.42,1.42,0,0,0-1.55-.91c-1.66.06-3.32,0-5,0-.87,0-1.46-.33-1.42-1.26s.58-1.17,1.38-1.17H38c.61,0,1,0,1.32-.77a3.6,3.6,0,0,1,2.19-2.22c.71-.26.81-.7.8-1.33,0-2,0-3.91,0-5.86s0-3.61,0-5.41c0-.9,0-1.92,1.21-1.94s1.29,1.06,1.3,2c0,3.66,0,7.32,0,11a1.55,1.55,0,0,0,1,1.7,4.14,4.14,0,0,1,2.43,4,1.54,1.54,0,0,0,1.09,1.6c2.39,1.19,4.75,2.45,7.13,3.68C57.31,49.23,58.43,49.66,57.74,50.91Z"/><path class="cls-1" d="M63,61.82a1.2,1.2,0,0,1-1.23,1.32c-.79,0-2.54-1.7-2.58-2.51a1.22,1.22,0,0,1,1.25-1.29A3.87,3.87,0,0,1,63,61.82Z"/><path class="cls-1" d="M63.15,25.1c0,1-1.74,2.72-2.63,2.68a1.13,1.13,0,0,1-1.17-1.21c-.05-.91,1.71-2.67,2.59-2.61A1.24,1.24,0,0,1,63.15,25.1Z"/><path class="cls-1" d="M70.67,43.66a1.08,1.08,0,0,1-1,1.09,8.81,8.81,0,0,1-1.15,0,8.06,8.06,0,0,1-1.3,0,1.07,1.07,0,0,1-.92-1.12c0-.59.24-1.12.82-1.19a11.87,11.87,0,0,1,2.73,0A1,1,0,0,1,70.67,43.66Z"/><path class="cls-2" d="M76.54,23.14A42.89,42.89,0,0,0,62,7.49c-1-.66-2.11-1.21-3.18-1.78a0,0,0,0,0,0,0L57.49,5h0c-.42-.24-.84-.5-1.24-.77a5.58,5.58,0,0,0-1.9-.7A41.81,41.81,0,0,0,42.51,2.14,41.32,41.32,0,0,0,23.42,7.31a8,8,0,0,1-3.79,1.35c-.69.45-1.38.9-2.08,1.34a3.69,3.69,0,0,1-1.13,2.29,29.18,29.18,0,0,0-4.73,4.76c-7.85,9.61-11,20.64-9,32.81C5,63.8,12.42,74.31,25.29,80.65a5.28,5.28,0,0,1,2.46,2.16h0l2.3.88a5.26,5.26,0,0,1,3.28.06,39.87,39.87,0,0,0,13.32,1.18,26.81,26.81,0,0,0,8.82-1.78c.27-.14.48-.35.75-.47a2.6,2.6,0,0,0,.34-.16h0c1.19-.54,2.35-1.13,3.46-1.76l.09,0a43.57,43.57,0,0,0,10.42-8.4A41.4,41.4,0,0,0,81.69,46.37,41.73,41.73,0,0,0,76.54,23.14ZM74.8,46.64a31.51,31.51,0,0,1-11.44,21.2A30,30,0,0,1,50.78,74c-.32.08-.65.15-1,.21l-.2,0a31.28,31.28,0,1,1,.91-61.18l.15,0c.2,0,.4.08.61.13a8,8,0,0,1-.66-.48A26.47,26.47,0,0,1,61,17.12c8.34,5.59,13,13.46,14.14,23.38a1.93,1.93,0,0,0,1.48,1.89c0,.81,0,1.6,0,2.4C75.37,44.63,75,45,74.8,46.64Z"/><path class="cls-1" d="M56.18,4.6a35.69,35.69,0,0,0-12.87-2,41,41,0,0,0-21.17,6c-.84.51-1.63.9-2.51.12-.37-1.1.19-1.7,1.08-2.24A43.46,43.46,0,0,1,47.26.14C66,1.56,81.46,15.48,85.86,32.9A43.71,43.71,0,0,1,53.53,86a44.55,44.55,0,0,1-22.12-.6c-.94-.25-1.46-.72-1.36-1.73.46-.92,1.15-1,2.08-.71a41.19,41.19,0,0,0,18.79,1c1.58-.29,3.11-.8,4.66-1.2A60.23,60.23,0,0,0,66.2,77.29c9.87-6.73,15.9-16,17.55-27.81C85.63,36,81.66,24.22,72,14.52A45.91,45.91,0,0,0,56.18,4.6Z"/><path class="cls-1" d="M17.56,10c.78,1.3-.18,2-1,2.66A39.74,39.74,0,0,0,5.26,28.75a41.14,41.14,0,0,0,9.85,44.41,38.23,38.23,0,0,0,11.18,7.6c.91.41,1.63.9,1.46,2a1.44,1.44,0,0,1-2.12.5C10.82,76.11,2.09,64.4.29,48-1.35,33,4,20.53,15.15,10.47,15.86,9.83,16.57,9.2,17.56,10Z"/><path class="cls-1" d="M77.69,46.92A34.31,34.31,0,0,1,52,76.76c-18.94,5-38.66-7.72-42.15-27A34.26,34.26,0,1,1,77.26,37.54c.16.91.21,1.84.41,2.75a1.65,1.65,0,0,1-1.06,2.1,1.93,1.93,0,0,1-1.48-1.89C74,30.58,69.33,22.71,61,17.12a26.47,26.47,0,0,0-10.37-4.33,8,8,0,0,0,.66.48c-.21,0-.41-.1-.61-.13l-.15,0a31.28,31.28,0,1,0-.91,61.18l.2,0c.32-.06.65-.13,1-.21a30,30,0,0,0,12.58-6.19A31.51,31.51,0,0,0,74.8,46.64c.21-1.68.57-2,1.82-1.85A1.84,1.84,0,0,1,77.69,46.92Z"/><path class="cls-1" d="M51.28,13.27c-.21,0-.41-.1-.61-.13a2.94,2.94,0,0,1-.05-.35A8,8,0,0,0,51.28,13.27Z"/><path class="cls-1" d="M76.62,44.79c-1.11.1-1.37.83-1.47,1.81a31.7,31.7,0,0,1-24.84,28,3.77,3.77,0,0,1-.58,0,.81.81,0,0,1,.08-.37c.32-.06.65-.13,1-.21a30,30,0,0,0,12.58-6.19A31.51,31.51,0,0,0,74.8,46.64C75,45,75.37,44.63,76.62,44.79Z"/><path class="cls-2" d="M56.18,4.6a34.93,34.93,0,0,1,13.7,7.51C80.57,21.2,85.32,32.9,84.49,46.8,83.52,63.12,71.58,78,55.87,82.74a1.37,1.37,0,0,1-.29,0c1.43-.8,2.87-1.58,4.29-2.4a42.07,42.07,0,0,0,19.18-23A40,40,0,0,0,81.3,41,41.77,41.77,0,0,0,72,17.1,42.8,42.8,0,0,0,57.25,5.31C56.86,5.13,56.41,5,56.18,4.6Z"/><path class="cls-1" d="M20.72,43.44a1.29,1.29,0,0,1-1.33,1.28,11.83,11.83,0,0,1-1.46,0c-.86,0-1.58-.32-1.58-1.32s.72-1.28,1.6-1.27h.59a8.42,8.42,0,0,1,.87,0C20.19,42.23,20.73,42.65,20.72,43.44Z"/><path class="cls-1" d="M27.66,60.66a3.48,3.48,0,0,1-2.26,2.28c-.79.26-1.42-.16-1.48-1.09s1.75-2.68,2.58-2.67C27.28,59.35,27.93,59.85,27.66,60.66Z"/><path class="cls-1" d="M27.81,26.47a1.27,1.27,0,0,1-1.14,1.24c-.88,0-2.75-1.78-2.7-2.61a1.18,1.18,0,0,1,1.21-1.2C26.07,23.85,27.84,25.57,27.81,26.47Z"/><path class="cls-1" d="M44.39,70.21a1.16,1.16,0,0,1-1.57.29c-.83-.49-.65-1.32-.66-2.27a1.68,1.68,0,0,1,.65-1.77,1.19,1.19,0,0,1,1.58.28A4,4,0,0,1,44.39,70.21Z"/><path class="cls-1" d="M43.94,20.66a1.15,1.15,0,0,1-1.39-.52c-.35-.51-.13-1.12-.2-1.69s-.13-1.07.19-1.55a1.16,1.16,0,0,1,1.39-.52c1,.31.91,1.13.87,1.92S45.11,20.22,43.94,20.66Z"/><path class="cls-1" d="M57.74,50.91c-.67,1.2-1.67.54-2.54.09-2.43-1.24-4.86-2.46-7.26-3.73a1.33,1.33,0,0,0-1.66.06,4.51,4.51,0,0,1-6.82-1.65,1.42,1.42,0,0,0-1.55-.91c-1.66.06-3.32,0-5,0-.87,0-1.46-.33-1.42-1.26s.58-1.17,1.38-1.17H38c.61,0,1,0,1.32-.77a3.6,3.6,0,0,1,2.19-2.22c.71-.26.81-.7.8-1.33,0-2,0-3.91,0-5.86s0-3.61,0-5.41c0-.9,0-1.92,1.21-1.94s1.29,1.06,1.3,2c0,3.66,0,7.32,0,11a1.55,1.55,0,0,0,1,1.7,4.14,4.14,0,0,1,2.43,4,1.54,1.54,0,0,0,1.09,1.6c2.39,1.19,4.75,2.45,7.13,3.68C57.31,49.23,58.43,49.66,57.74,50.91Z"/><path class="cls-1" d="M63,61.82a1.2,1.2,0,0,1-1.23,1.32c-.79,0-2.54-1.7-2.58-2.51a1.22,1.22,0,0,1,1.25-1.29A3.87,3.87,0,0,1,63,61.82Z"/><path class="cls-1" d="M63.15,25.1c0,1-1.74,2.72-2.63,2.68a1.13,1.13,0,0,1-1.17-1.21c-.05-.91,1.71-2.67,2.59-2.61A1.24,1.24,0,0,1,63.15,25.1Z"/><path class="cls-1" d="M70.67,43.66a1.08,1.08,0,0,1-1,1.09,8.81,8.81,0,0,1-1.15,0,8.06,8.06,0,0,1-1.3,0,1.07,1.07,0,0,1-.92-1.12c0-.59.24-1.12.82-1.19a11.87,11.87,0,0,1,2.73,0A1,1,0,0,1,70.67,43.66Z"/><path class="cls-1" d="M57.74,50.91c-.67,1.2-1.67.54-2.54.09-2.43-1.24-4.86-2.46-7.26-3.73a1.33,1.33,0,0,0-1.66.06,4.51,4.51,0,0,1-6.82-1.65,1.42,1.42,0,0,0-1.55-.91c-1.66.06-3.32,0-5,0-.87,0-1.46-.33-1.42-1.26s.58-1.17,1.38-1.17H38c.61,0,1,0,1.32-.77a3.6,3.6,0,0,1,2.19-2.22c.71-.26.81-.7.8-1.33,0-2,0-3.91,0-5.86s0-3.61,0-5.41c0-.9,0-1.92,1.21-1.94s1.29,1.06,1.3,2c0,3.66,0,7.32,0,11a1.55,1.55,0,0,0,1,1.7,4.14,4.14,0,0,1,2.43,4,1.54,1.54,0,0,0,1.09,1.6c2.39,1.19,4.75,2.45,7.13,3.68C57.31,49.23,58.43,49.66,57.74,50.91Z"/><path class="cls-1" d="M63.15,25.1c0,1-1.74,2.72-2.63,2.68a1.13,1.13,0,0,1-1.17-1.21c-.05-.91,1.71-2.67,2.59-2.61A1.24,1.24,0,0,1,63.15,25.1Z"/><path class="cls-1" d="M44.39,70.21a1.16,1.16,0,0,1-1.57.29c-.83-.49-.65-1.32-.66-2.27a1.68,1.68,0,0,1,.65-1.77,1.19,1.19,0,0,1,1.58.28A4,4,0,0,1,44.39,70.21Z"/><path class="cls-1" d="M20.72,43.44a1.29,1.29,0,0,1-1.33,1.28,11.83,11.83,0,0,1-1.46,0c-.86,0-1.58-.32-1.58-1.32s.72-1.28,1.6-1.27h.59a8.42,8.42,0,0,1,.87,0C20.19,42.23,20.73,42.65,20.72,43.44Z"/><path class="cls-1" d="M27.66,60.66a3.48,3.48,0,0,1-2.26,2.28c-.79.26-1.42-.16-1.48-1.09s1.75-2.68,2.58-2.67C27.28,59.35,27.93,59.85,27.66,60.66Z"/><path class="cls-1" d="M27.81,26.47a1.27,1.27,0,0,1-1.14,1.24c-.88,0-2.75-1.78-2.7-2.61a1.18,1.18,0,0,1,1.21-1.2C26.07,23.85,27.84,25.57,27.81,26.47Z"/><path class="cls-1" d="M63,61.82a1.2,1.2,0,0,1-1.23,1.32c-.79,0-2.54-1.7-2.58-2.51a1.22,1.22,0,0,1,1.25-1.29A3.87,3.87,0,0,1,63,61.82Z"/><path class="cls-1" d="M70.67,43.66a1.08,1.08,0,0,1-1,1.09,8.81,8.81,0,0,1-1.15,0,8.06,8.06,0,0,1-1.3,0,1.07,1.07,0,0,1-.92-1.12c0-.59.24-1.12.82-1.19a11.87,11.87,0,0,1,2.73,0A1,1,0,0,1,70.67,43.66Z"/><path class="cls-1" d="M43.94,20.66a1.15,1.15,0,0,1-1.39-.52c-.35-.51-.13-1.12-.2-1.69s-.13-1.07.19-1.55a1.16,1.16,0,0,1,1.39-.52c1,.31.91,1.13.87,1.92S45.11,20.22,43.94,20.66Z"/><path class="cls-1" d="M43.59,45.65a2,2,0,0,1-2.08-2.1,2,2,0,0,1,2-2,2.07,2.07,0,1,1,.11,4.14Z"/></svg>