<svg id="Layer_1" data-name="Layer 1" xmlns="http://www.w3.org/2000/svg" viewBox="0 0 76 68.76"><defs><style>.cls-1{fill:#fff;}</style></defs><title>صور وايقونات</title><path class="cls-1" d="M48,54.46l1.12,7.28c.75,0,1.49,0,2.23,0,1,0,1.55.43,1.55,1.47,0,1.39,0,2.78,0,4.18a1.21,1.21,0,0,1-1.39,1.37q-13.51,0-27,0c-1,0-1.44-.49-1.44-1.44,0-1.4,0-2.79,0-4.19a1.24,1.24,0,0,1,1.4-1.39h2.37L28,54.4H4.89c-2.67,0-4.28-1.11-4.77-3.25A6.45,6.45,0,0,1,0,49.69v-45C0,1.62,1.61,0,4.65,0H71.36C74.34,0,76,1.62,76,4.59q0,22.61,0,45.22c0,2.81-1.54,4.47-4.33,4.57-2.22.07-4.45,0-6.67,0-.74,0-1.4-.22-1.42-1.1s.7-1.16,1.47-1.16c2.11,0,4.22,0,6.33,0,1.76,0,2.39-.62,2.39-2.38q0-22.54,0-45.11c0-1.82-.62-2.41-2.47-2.41H4.7c-1.85,0-2.47.59-2.47,2.41v45c0,1.9.6,2.48,2.51,2.48H58.22a3.63,3.63,0,0,1,1.45.12c.37.17.87.69.83,1a1.86,1.86,0,0,1-.9,1.07c-.28.18-.74.09-1.11.09H49.33C48.93,54.4,48.53,54.44,48,54.46Zm2.59,9.6c-.22,0-.4,0-.58,0H45.17c-.72,0-1.3-.3-1.31-1.1s.57-1.16,1.35-1.16h1.67c-.37-2.35-.69-4.58-1.09-6.79,0-.23-.52-.52-.8-.53q-7,0-14,0a1,1,0,0,0-.79.53c-.39,2.22-.71,4.44-1.07,6.78H39.39c.77,0,1.41.24,1.44,1.07S40.2,64,39.38,64h-14v2.43h25.2Z"/><path class="cls-1" d="M7.06,7V47.28H68.91V7H16.68c-1.53,0-2.13-.32-2-1.15.14-1.26,1.14-1.08,2-1.08H69.21c1.74,0,2,.27,2,2V47.54c0,1.8-.23,2-2,2H6.79c-1.79,0-2-.22-2-2V6.73c0-1.67.28-1.94,2-1.94h3.5c.73,0,1.29.29,1.31,1.09S11,7,10.31,7C9.26,7,8.21,7,7.06,7Z"/><path class="cls-1" d="M23.65,27.87A13.64,13.64,0,1,1,37.32,41.63,13.63,13.63,0,0,1,23.65,27.87ZM36.91,39.49A11.51,11.51,0,1,0,25.8,27.32,11.47,11.47,0,0,0,36.91,39.49Z"/><path class="cls-1" d="M35.4,30.12c.73-.75,1.39-1.43,2.05-2.09q2.13-2.14,4.28-4.27a1.06,1.06,0,1,1,1.59,1.41c-.37.42-.79.8-1.19,1.2L36.4,32.09c-.73.74-1.23.73-2,0L31.33,29a1.05,1.05,0,0,1-.07-1.54,1,1,0,0,1,1.54,0c.45.42.88.85,1.3,1.29S34.94,29.63,35.4,30.12Z"/><rect class="cls-1" x="56.09" y="52.12" width="4.58" height="2.28" rx="1.14" ry="1.14" transform="translate(-2.17 2.48) rotate(-2.39)"/></svg>