<svg id="Layer_1" data-name="Layer 1" xmlns="http://www.w3.org/2000/svg" xmlns:xlink="http://www.w3.org/1999/xlink" viewBox="0 0 63.16 73.58"><defs><style>.cls-1{fill:none;}.cls-2{clip-path:url(#clip-path);}.cls-3{fill:#6598d1;}.cls-4{fill:#01437f;}.cls-5{fill:#00589b;}.cls-6{fill:#fdfdfd;}</style><clipPath id="clip-path"><path class="cls-1" d="M54.51,59.69l-15,9a15.56,15.56,0,0,1-16,0l-15-9A15.49,15.49,0,0,1,1,46.4V27.16A15.49,15.49,0,0,1,8.48,13.87l15-9a15.52,15.52,0,0,1,16,0l15,9A15.51,15.51,0,0,1,62,27.16V46.4A15.51,15.51,0,0,1,54.51,59.69Z"/></clipPath></defs><title>صور وايقونات</title><g class="cls-2"><path class="cls-3" d="M.31,19.34l1.17-2A6.18,6.18,0,0,1,4.83,15c2.59-1.51,5.2-3,7.7-4.64A2.2,2.2,0,0,1,14,9.48l.19-.12a13.3,13.3,0,0,1,3.11-2,14.4,14.4,0,0,1,3.43-1.91l1.66-1a1.4,1.4,0,0,1,1.15-.68L24.94,3a.67.67,0,0,1,.29-.33,5.6,5.6,0,0,1,1.69-.85l.31-.21A2.07,2.07,0,0,1,28.6.8,6,6,0,0,1,34.84,1C38.23,3,41.66,5,45.07,7.06c.17.1.35.17.52.26.36,0,.7.13.84.53a.85.85,0,0,0,.53.29.74.74,0,0,1,.44.08A7.09,7.09,0,0,1,49,9.32h0a2.81,2.81,0,0,1,1.66,1l3,1.79c.33.09.72.09.83.52a1.2,1.2,0,0,0,.63.35A5.73,5.73,0,0,1,57,14a.82.82,0,0,1,.12.2,5.8,5.8,0,0,0,1.35.82,5.36,5.36,0,0,1,2.81,1.82l.48.51a1,1,0,0,1,.63,1,3.53,3.53,0,0,1-1.51,1.14c-3.38,2.05-6.79,4.05-10.19,6.08-.29.18-.58.47-1,.29A41.23,41.23,0,0,0,47,22.25,20.34,20.34,0,0,0,34,15.38a19.61,19.61,0,0,0-15.06,4.33,21,21,0,0,0-7.28,11A21.85,21.85,0,0,0,10.76,37a22.76,22.76,0,0,0,2.31,9.67,2,2,0,0,1,.35,1,13.09,13.09,0,0,1-3,2c-3,1.75-5.92,3.55-8.89,5.3-.22.13-.37.34-.6.46a7.13,7.13,0,0,1-1-3.81q0-15,0-30.05c0-.47.06-.94.1-1.4A.58.58,0,0,1,.31,19.34Z"/><path class="cls-4" d="M1,55.44c0-.3.13-.44.37-.58l11.78-7a1.69,1.69,0,0,1,.24-.08c.6.15.73.73,1,1.14a19.45,19.45,0,0,0,9.79,8c8.11,2.91,15.43,1.47,21.78-4.47a18.25,18.25,0,0,0,3.29-4.08,1.71,1.71,0,0,1,.53-.63.89.89,0,0,1,.86.18c3.81,2.26,7.58,4.57,11.4,6.79.17.1.45.16.36.47A5.37,5.37,0,0,1,60,57.59c-.45.27-.89.56-1.33.84a10.57,10.57,0,0,1-3.36,2,30,30,0,0,0-3.14,1.85,10.9,10.9,0,0,1-3.36,2L42.62,68a10,10,0,0,1-3.36,2c-1.48.87-3,1.73-4.45,2.61a5.74,5.74,0,0,1-6.38,0c-1.67-1-3.36-2-5-3l-6.26-3.8L15.69,65a.36.36,0,0,1-.45-.24,3.13,3.13,0,0,0-1.05-.63,8.85,8.85,0,0,1-3.13-1.88L7.84,60.35l-.16-.08A.91.91,0,0,1,7,60.05a29.58,29.58,0,0,1-3.8-2.44A7.07,7.07,0,0,1,1,55.44Z"/><path class="cls-5" d="M62.37,55.14,50.38,48a3.18,3.18,0,0,0-.54-.21,43.15,43.15,0,0,1-4.32-2.49c-1.66-1-3.25-2-5-2.89-2.68-1.56-5.32-3.19-8-4.77a3.61,3.61,0,0,1-1-.7c0-.38.26-.54.51-.69,3-1.68,5.8-3.56,8.8-5.17,2.68-1.57,5.33-3.2,8-4.78.3-.18.57-.45,1-.4l12.51-7.53a6.63,6.63,0,0,1,.83,1.84v.5a2.06,2.06,0,0,0,0,.74V52a1.7,1.7,0,0,0,.06.74A4.65,4.65,0,0,1,62.37,55.14Z"/><path class="cls-6" d="M40.64,42.28c.35-.07.57.19.82.34q3.85,2.28,7.67,4.58c.26.16.57.25.71.56a20.59,20.59,0,0,1-11,9.44c-7.71,2.75-14.73,1.37-21-3.91a22.83,22.83,0,0,1-4.52-5.55,22.4,22.4,0,0,1-2.55-7.63c-1-7.77,1.2-14.45,7-19.77a20.45,20.45,0,0,1,27.38-.22,19.53,19.53,0,0,1,4.63,5.75l-7.66,4.64L41,31.24c-.5.14-.69-.25-.91-.56a10.22,10.22,0,0,0-7.23-4.46,9.52,9.52,0,0,0-7.72,2.38,10.44,10.44,0,0,0-3.78,8,11.27,11.27,0,0,0,1.58,5.8,10.33,10.33,0,0,0,5.18,4.29,9.85,9.85,0,0,0,10.52-2.18C39.35,43.86,39.82,42.92,40.64,42.28Z"/><path class="cls-3" d="M22.72,42.55a10.93,10.93,0,0,1,6.73-16.4,10.36,10.36,0,0,1,10.67,4.24c.23.32.32.8.83.85-2.34,1.21-4.54,2.66-6.8,4a14.35,14.35,0,0,0-2.6,1.63,2.29,2.29,0,0,1-1.07.88c-2.26,1.29-4.47,2.67-6.71,4A6,6,0,0,0,22.72,42.55Z"/><path class="cls-4" d="M22.72,42.55c-.07-.33.09-.5.36-.66l8.47-5a27.69,27.69,0,0,1,3.51,2c1.65,1,3.29,1.92,4.93,2.9a5.11,5.11,0,0,1,.65.5A10.28,10.28,0,0,1,23.5,43.64C23.22,43.29,23,42.91,22.72,42.55Z"/></g></svg>