<svg id="Layer_1" data-name="Layer 1" xmlns="http://www.w3.org/2000/svg" viewBox="0 0 92.57 86.9"><defs><style>.cls-1{fill:#02265d;}.cls-2{fill:#0598d8;}</style></defs><title>صور وايقونات</title><path class="cls-1" d="M61.41,56a5.9,5.9,0,0,0-.12-10.2c-.55-.35-.63-.53-.37-1.13,1.67-3.79,0-7.1-4.07-7.91-.58-.12-.72-.27-.73-.86-.07-4.12-3-6.4-7-5.45-.62.15-.81.06-1-.55A5.89,5.89,0,0,0,38,28c-.43.49-.69.4-1.13.25-6.23-2.05-11.64,2.43-10.72,8.9a.93.93,0,0,1-.55,1.15,5.88,5.88,0,0,0,.1,10c.74.44.82.81.37,1.45a1.33,1.33,0,0,0-.26.63c.1,2.61-1.62,4.25-3.11,6L20.5,59.07l1.74,1.74q2-2.4,3.92-4.81c.36-.44.54-.5.94-.09a5.14,5.14,0,0,0,3.3,1.57c.57.05.66.27.61.79a5.13,5.13,0,0,0,.91,3.4c.33.49.36.67-.25,1-1.62.89-3.25,1.78-4.87,2.69l1.79,1.79L33,64.65A3.26,3.26,0,0,1,35.85,64c1,.33,2.31-.73,3-.16s.87,1.74,1.56,2.51a5.86,5.86,0,0,0,8.6.09,1,1,0,0,1,1.45-.34,8.75,8.75,0,0,0,3.26.53,6.21,6.21,0,0,1-.6.35,3.38,3.38,0,0,0,.45,0h.17c4.07-.39,6.5-2.69,7.64-6.51l0-.1c0-.17.06-.34.08-.52-.13.19-.27.37-.41.56A11,11,0,0,0,60.94,57C60.82,56.49,61,56.3,61.41,56Z"/><path class="cls-2" d="M49.42,43.84c1.64-1.36,3.23-2.78,4.92-4.07a3,3,0,0,1,4.51,3.68,3.76,3.76,0,0,1-2.29,1.87,5.88,5.88,0,0,0-4,6.46c.13.85.3,1.78,1.45,1.63s1.09-1,1-1.9a3.34,3.34,0,0,1,2-3.73,3.46,3.46,0,0,1,4.42,4.95,3.58,3.58,0,0,1-1.78,1.48c-1.75.69-1.75.74-1.18,2.49a5.58,5.58,0,0,1-6.85,7.23c-.71-.19-1.06-.47-1-1.33a5.67,5.67,0,0,0-2-4.68c-.63-.61-1.39-1.14-2.18-.39s-.2,1.46.42,2.09c1.58,1.61,1.79,3.5.57,4.94a3.47,3.47,0,0,1-4,1,3.39,3.39,0,0,1-2.15-3.65c.08-.73.39-1.5-.48-2s-1.46.14-2.07.64c-1.61,1.33-3.37,1.3-4.54-.06s-.92-3.16.64-4.51c1.82-1.58,3.71-3.08,5.53-4.65.67-.57.81-.33,1.06.37a5.42,5.42,0,0,0,8.07,3c.73-.43,1.35-1,.85-1.9s-1.3-.77-2.12-.24a3,3,0,0,1-3.91-.47,2.94,2.94,0,0,1,.12-4c1.62-1.51,3.39-2.86,5.1-4.29Z"/><path class="cls-2" d="M47.57,42.23a59.74,59.74,0,0,1-5.08,4.05,3,3,0,0,1-3.67-.58,3.11,3.11,0,0,1-.34-3.5,4.77,4.77,0,0,1,.62-.74c.58-.64.72-1.32,0-1.94s-1.29-.31-1.84.23a5.42,5.42,0,0,0,1,8.55c.89.5,1.17.77.18,1.52-1.88,1.44-3.62,3-5.47,4.5a3,3,0,0,1-4.7-3.65,4.21,4.21,0,0,1,1.24-1.28c.55-.46,1.08-.91.85-1.73s-.94-.85-1.67-.87a3.38,3.38,0,0,1-3.41-2.86,3.54,3.54,0,0,1,1.95-3.79,3.47,3.47,0,0,1,4.3,1.18c0,.07.11.14.16.22.49.74,1,1.73,2,1s.42-1.72-.16-2.53a5.46,5.46,0,0,0-4.11-2.52c-.82-.07-1-.49-1-1.15a5.35,5.35,0,0,1,2.27-5.19,5.41,5.41,0,0,1,6-.33c1.68.89,1.78.89,2.69-.63a3.48,3.48,0,1,1,2.16,5.06c-.27-.06-.53-.15-.79-.23a1.13,1.13,0,0,0-1.57.71A1.17,1.17,0,0,0,40,37.26a6,6,0,0,0,7.72-2.65c1.27-2.36,4-2.66,5.42-.69,1,1.32.7,3-.79,4.28S49.4,40.7,47.57,42.23Z"/><path class="cls-1" d="M53.54,67a3.53,3.53,0,0,1-.46,0,4.48,4.48,0,0,0,.6-.35A1.16,1.16,0,0,1,53.54,67Z"/><path class="cls-1" d="M74.37,28.07a32.19,32.19,0,0,0-59.3,17.25,30.92,30.92,0,0,0,.8,7.27h0c.66,1,1.32,2,2,3.06l7.72,12c.68,1.07,1.37,2.14,2.05,3.22h0a31.8,31.8,0,0,0,6.2,3.75A32.2,32.2,0,0,0,74.37,28.07ZM32.66,72.86Q24.4,59.92,16.13,47A31.13,31.13,0,1,1,32.66,72.86Z"/><path class="cls-1" d="M15.31,57.45a34.75,34.75,0,0,0,3.17,6.3,34.3,34.3,0,0,0,4.39,5.5ZM75.94,27A34.1,34.1,0,0,0,13.2,42.87a35.29,35.29,0,0,0,.05,5.63c.88,1.36,1.75,2.73,2.62,4.09h0c.66,1,1.32,2,2,3.06A30.45,30.45,0,0,1,16.13,47a31.1,31.1,0,1,1,9.43,20.73c.68,1.07,1.37,2.14,2.05,3.22h0q1.28,2,2.52,3.94a33,33,0,0,0,5.21,2.45A34.1,34.1,0,0,0,75.94,27Z"/><path class="cls-1" d="M29.59,84.19c.22-.37.32-.72.88-.83,4-.74,5.31-2.33,4.87-6a1.87,1.87,0,0,0,0-.32l-1.49-2.32-1.15-1.82Q24.4,59.92,16.13,47l-1.06-1.66-.71-1.11a12.74,12.74,0,0,0-1.06-1.27l-.1-.07c-2.88-2-5.63-1.44-7.36,1.63-.41.72-.89.62-1.47.68A4.72,4.72,0,0,0,0,50.24a6.24,6.24,0,0,0,1.6,3.55A2.72,2.72,0,0,1,1.85,57a17.32,17.32,0,0,0,14.57,24.6,5.27,5.27,0,0,1,4.88,2.83C23.37,87.88,27.6,87.63,29.59,84.19ZM11.39,45.61c.26.36.48.74.72,1.11l1.14,1.78c.88,1.36,1.75,2.73,2.62,4.09h0c.66,1,1.32,2,2,3.06l7.72,12c.68,1.07,1.37,2.14,2.05,3.22h0q1.28,2,2.52,3.94l1.26,2c.21.33.42.65.62,1a1.54,1.54,0,1,1-2.61,1.65L9.5,48.37c-.24-.38-.49-.74-.71-1.12a1.4,1.4,0,0,1,.44-2A1.43,1.43,0,0,1,11.39,45.61ZM5.86,72.19C3.1,68,2.75,63.59,4.6,58.67l12.74,19.9C12.31,78.21,8.52,76.19,5.86,72.19Zm18.5,11.06a6.41,6.41,0,0,1-.89-1.18L4,51.67a10.18,10.18,0,0,1-.6-1A1.46,1.46,0,0,1,4,48.55a1.45,1.45,0,0,1,2,.48c.22.31.42.65.63,1L26.15,80.41a5.43,5.43,0,0,1,.67,1.13,1.48,1.48,0,0,1-.63,1.87A1.38,1.38,0,0,1,24.36,83.25Z"/><path class="cls-1" d="M81.2,21.72l2.23-1.42c2-1.26,1.94-1.25,3.09.78.35.62.32.91-.3,1.29-2.15,1.34-4.29,2.68-6.39,4.1-1.35.91-1.38-.46-1.86-1s-.94-1.22.16-1.8S80.18,22.38,81.2,21.72Z"/><path class="cls-1" d="M82.56,54.68a17.1,17.1,0,0,1,.8-2.71c.28-.58.89-.08,1.32,0,2.32.48,4.61,1.09,6.94,1.49,1.46.25.86,1.1.68,1.8S92.45,57,91,56.66C88.59,56,86.15,55.55,83.74,55,83.42,54.94,83.11,54.83,82.56,54.68Z"/><path class="cls-1" d="M56.6,10A18.24,18.24,0,0,1,54,9.3c-.75-.31-.17-1-.09-1.43.47-2.38,1.06-4.73,1.51-7.11.22-1.19,1-.68,1.45-.47s2-.36,1.67,1.11c-.52,2.65-1.12,5.27-1.7,7.91C56.75,9.5,56.68,9.69,56.6,10Z"/><path class="cls-1" d="M23.58,11.38a24.57,24.57,0,0,0-1.71-2.62c-1-1.14-.52-1.64.56-2.34S24,5.91,24.57,7c1.14,1.94,2.34,3.85,3.65,5.69.86,1.22-.08,1.48-.79,1.93s-1.28,1.17-1.92-.12A35.07,35.07,0,0,0,23.58,11.38Z"/><path class="cls-1" d="M68.23,81.12,66.81,78.9c-1.26-2-1.22-2,.81-3.08.57-.3.88-.24,1.2.28,1.39,2.19,2.81,4.34,4.17,6.54.84,1.34-.7,1.28-1.19,1.8s-1,.83-1.54-.11C69.65,83.22,68.91,82.19,68.23,81.12Z"/></svg>