<svg id="Layer_1" data-name="Layer 1" xmlns="http://www.w3.org/2000/svg" viewBox="0 0 57.34 65.12"><defs><style>.cls-1{fill:#e55126;}.cls-2{fill:#ebecee;}</style></defs><title>صور وايقونات</title><path class="cls-1" d="M28.65,0H56.31c1.11,0,1.08,0,1,1.07-.43,4.81-.84,9.63-1.28,14.44Q55.14,25.26,54.25,35L53,49.64c-.25,2.79-.49,5.58-.7,8.38,0,.55-.28.75-.78.89C45.3,60.6,39.12,62.32,32.94,64c-5.31,1.47-3.38,1.47-8.64,0-5.95-1.64-11.9-3.26-17.84-4.92C4.79,58.65,5.09,58.9,5,57.29Q3.53,41.44,2.11,25.57,1.09,14,.1,2.49a2.45,2.45,0,0,0,0-.27C-.12,0-.12,0,2.07,0Z"/><polygon class="cls-2" points="17.73 17.16 17.73 25.5 45.9 25.5 45.55 29.62 45.25 33.18 44.78 38.88 44.6 41.01 44.6 41.02 43.95 48.8 41.89 49.58 41.35 49.78 35.68 51.94 29.24 53.99 19.31 50.82 16.58 49.94 11.22 48.24 10.88 40.06 10.74 36.71 18.71 36.38 18.97 42.64 29.23 45.91 36.36 43.65 36.36 43.63 36.5 42.02 37.23 33.18 10.03 33.18 10.03 9.47 47.3 9.47 46.64 17.16 17.73 17.16"/></svg>