<svg id="Layer_1" data-name="Layer 1" xmlns="http://www.w3.org/2000/svg" viewBox="0 0 85.05 61.17"><defs><style>.cls-1{fill:#02265d;}.cls-2{fill:#05cece;}.cls-3{fill:#0598d8;}</style></defs><title>صور وايقونات</title><path class="cls-1" d="M12,34.69c-.54.51-.54.8,0,1.32,1.81,1.73,3.56,3.53,5.34,5.3.68.67,1.34,1.4.45,2.29s-1.54.17-2.17-.46C13.47,41,11.32,38.76,9.12,36.6a1.45,1.45,0,0,1,0-2.41c2.32-2.29,4.62-4.61,6.93-6.92a1.31,1.31,0,0,1,1.51-.49A1.19,1.19,0,0,1,18.28,28c0,.56-.4.94-.8,1.34C15.66,31.1,13.87,32.93,12,34.69Z"/><path class="cls-1" d="M31.18,22.64a1.2,1.2,0,0,1,.66,1.46c-.07.19-.17.54-.31.9q-4.09,10.78-8.21,21.59a3.93,3.93,0,0,1-.46,1,1.16,1.16,0,0,1-1.49.43,1.08,1.08,0,0,1-.67-1.27A5.18,5.18,0,0,1,21,45.69q4.09-10.8,8.2-21.6a5,5,0,0,1,.45-1A1.14,1.14,0,0,1,31.18,22.64Z"/><path class="cls-1" d="M40.4,36.11c.23-.23.43-.48.68-.77-.26-.27-.48-.52-.71-.74L35,29.29c-.64-.63-1.26-1.32-.46-2.18s1.52-.3,2.17.35c2.21,2.21,4.4,4.43,6.63,6.62.86.85,1,1.59.06,2.51C41.2,38.77,39,41,36.81,43.21c-.6.61-1.26,1.17-2.05.4s-.36-1.52.32-2.19Z"/><path class="cls-1" d="M63.43,20.94a3.68,3.68,0,0,1,.13,7.36q-4.12.11-8.24,0a3.69,3.69,0,0,1,.15-7.37c1.33,0,2.65,0,4,0S62.1,20.9,63.43,20.94Z"/><path class="cls-1" d="M55.68,48.21a3.71,3.71,0,1,1,.13-7.41c2.32,0,4.64,0,6.95,0s4.64,0,6.95,0a3.71,3.71,0,1,1,.15,7.41Q62.76,48.29,55.68,48.21Z"/><path class="cls-1" d="M1.16,21.24c1-1.22,1-2.67,1-4.15,0-.9-.3-1.92.58-2.65a5.24,5.24,0,0,1,2-.17H76.25c.33,0,.67,0,1,0a2,2,0,0,1,.92.14,1.26,1.26,0,0,1,.36.24,63.11,63.11,0,0,0-6.45-.12H4.28a3.39,3.39,0,0,0-1.67.14c0,1.54-.09,3.08-.08,4.62C2.54,20.3,2.23,21,1.16,21.24Z"/><path class="cls-1" d="M52.05,33.35a3.47,3.47,0,0,1,3.3-2.47c7,0,14,0,21,0a5.36,5.36,0,0,1,1.88.59l.09.1-.13,0c-1,.19-2-.27-2.94-.27-6.29.05-12.59,0-18.89,0-.33,0-.66,0-1,0a3.22,3.22,0,0,0-3.06,3A3.29,3.29,0,0,0,55,37.7a8.75,8.75,0,0,0,2,.12c5.92,0,11.83,0,17.75,0,1.15,0,2.25-.46,3.4-.3l.13,0-.11.12a6,6,0,0,1-2.44.6c-6.63,0-13.25,0-19.88,0C53,38.26,51.2,35.91,52.05,33.35Z"/><path class="cls-1" d="M78.18,58.72a5.18,5.18,0,0,1-1.56.16H5.83c-2.42-.34-3.69-1.77-3.7-4.35,0-6,0-12,0-18,0-3,0-6,0-8.92a5.2,5.2,0,0,0-1-3.59c1.28.16,1.37,1.08,1.37,2.09q0,11,0,22c0,2.27,0,4.54,0,6.81a3.44,3.44,0,0,0,3.11,3.58,2.52,2.52,0,0,0,1.66.23h70C77.59,58.73,77.88,58.74,78.18,58.72Z"/><path class="cls-1" d="M9.21,3.58a3.68,3.68,0,0,1,3.65,3.71A3.59,3.59,0,0,1,9.26,11a3.73,3.73,0,0,1-3.8-3.74A3.86,3.86,0,0,1,9.21,3.58Z"/><path class="cls-1" d="M18.83,3.59a3.73,3.73,0,0,1,3.69,3.73A3.65,3.65,0,0,1,18.83,11a3.74,3.74,0,0,1-3.73-3.7A3.82,3.82,0,0,1,18.83,3.59Z"/><path class="cls-1" d="M28.5,3.58a3.73,3.73,0,0,1,3.66,3.74,3.7,3.7,0,1,1-7.4-.08A3.74,3.74,0,0,1,28.5,3.58Z"/><path class="cls-1" d="M73.05,1.06c.51.38.75,1.1,1.51,1.18a22.52,22.52,0,0,0,2.84.09,1.91,1.91,0,0,1,.71.14,1.07,1.07,0,0,1,.36.21,4.27,4.27,0,0,0-.81-.11A32.24,32.24,0,0,1,74,2.5,1.24,1.24,0,0,1,73.05,1.06Z"/><path class="cls-1" d="M77.52,12l.88,0a1.62,1.62,0,0,1-1,.28l-1.42,0q-35.51,0-71,0A4.37,4.37,0,0,1,2.57,12a2,2,0,0,1-.45-1.45c0-1.42-.07-2.84,0-4.27A4.2,4.2,0,0,1,6,2,17.74,17.74,0,0,1,8.4,2q29,0,58.06,0A6.44,6.44,0,0,0,70,1.28c-.2,1.23-1.11,1.2-2,1.2H7.29c-3.52,0-4.77,1.25-4.75,4.81a28.57,28.57,0,0,0,.11,4.53A2.63,2.63,0,0,0,4.17,12Q39.59,12,75,12Z"/><path class="cls-1" d="M84.79,45.87c0,.9-.21,1.58-1.16,1.85-1.37-.18-1.37-1.19-1.37-2.22,0-9.9,0-19.8,0-29.69,0-1.13-.3-1.4-1.42-1.4H78.16a1.26,1.26,0,0,1,.36.24,63.11,63.11,0,0,0-6.45-.12H4.28a3.39,3.39,0,0,0-1.67.14c0,1.54-.09,3.08-.08,4.62,0,1-.3,1.73-1.37,1.95-1-.33-1.17-1.06-1.16-2C0,15,0,10.8,0,6.58A6.22,6.22,0,0,1,6.61,0H67.72c1,0,2.06-.11,2.3,1.26-.2,1.23-1.11,1.2-2,1.2H7.29c-3.52,0-4.77,1.25-4.75,4.81a28.57,28.57,0,0,0,.11,4.53A2.63,2.63,0,0,0,4.17,12Q39.59,12,75,12h1.85c.22,0,.44,0,.65,0l.88,0H81c.92,0,1.27-.24,1.23-1.19-.07-1.42,0-2.85,0-4.27a3.73,3.73,0,0,0-4-4h-.13a1.07,1.07,0,0,1,.36.21,4.27,4.27,0,0,0-.81-.11A32.24,32.24,0,0,1,74,2.5a1.24,1.24,0,0,1-.93-1.44c.14-.83.74-1,1.46-1C76,0,77.45,0,78.91,0c3.42.19,5.85,2.94,5.86,6.6,0,9.29,0,18.57,0,27.86C84.77,38.29,84.76,42.08,84.79,45.87Z"/><path class="cls-1" d="M82,60a6.79,6.79,0,0,1-4,1.16q-35.62,0-71.24,0C2.53,61.16,0,58.55,0,54.3Q0,40.23,0,26.15c0-.94,0-1.84,1.15-2.13,1.28.16,1.37,1.08,1.37,2.09q0,11,0,22c0,2.27,0,4.54,0,6.81a3.44,3.44,0,0,0,3.11,3.58,2.52,2.52,0,0,0,1.66.23h70c.29,0,.58,0,.88,0h.12a3.92,3.92,0,0,0,4-4.24c0-.81,0-1.62,0-2.42s.34-1.57,1.37-1.63a1.27,1.27,0,0,1,1,.86C85.75,54,84.43,58.32,82,60Z"/><path class="cls-1" d="M4.28,14.53a3.39,3.39,0,0,0-1.67.14c.33-.52.85-.24,1.28-.24q37.13,0,74.27,0a1.26,1.26,0,0,1,.36.24,63.11,63.11,0,0,0-6.45-.12Z"/><path class="cls-1" d="M78.34,37a3.66,3.66,0,0,0,0-4.92.72.72,0,0,1-.19-.52.5.5,0,0,1,0-.13l.09.1c2,2.06,2,3.93,0,6l-.11.12a.68.68,0,0,1,0-.14A.75.75,0,0,1,78.34,37Z"/><path class="cls-1" d="M78.3,37.57l-.11.12a6,6,0,0,1-2.44.6c-6.63,0-13.25,0-19.88,0-2.88,0-4.67-2.36-3.82-4.92a3.47,3.47,0,0,1,3.3-2.47c7,0,14,0,21,0a5.36,5.36,0,0,1,1.88.59l.09.1C80.3,33.61,80.29,35.48,78.3,37.57Z"/><path class="cls-1" d="M73.68,44.34a3.68,3.68,0,0,1-3.82,3.87q-7.1.07-14.18,0a3.71,3.71,0,1,1,.13-7.41c2.32,0,4.64,0,6.95,0s4.64,0,6.95,0A3.66,3.66,0,0,1,73.68,44.34Z"/><path class="cls-1" d="M67.09,24.55a3.75,3.75,0,0,1-3.53,3.75q-4.12.11-8.24,0a3.69,3.69,0,0,1,.15-7.37c1.33,0,2.65,0,4,0s2.65,0,4,0A3.73,3.73,0,0,1,67.09,24.55Z"/><path class="cls-1" d="M31.84,24.1c-.07.19-.17.54-.31.9q-4.09,10.78-8.21,21.59a3.93,3.93,0,0,1-.46,1,1.16,1.16,0,0,1-1.49.43,1.08,1.08,0,0,1-.67-1.27A5.18,5.18,0,0,1,21,45.69q4.09-10.8,8.2-21.6a5,5,0,0,1,.45-1,1.14,1.14,0,0,1,1.5-.42A1.2,1.2,0,0,1,31.84,24.1Z"/><path class="cls-1" d="M17.36,41.31c.68.67,1.34,1.4.45,2.29s-1.54.17-2.17-.46C13.47,41,11.32,38.76,9.12,36.6a1.45,1.45,0,0,1,0-2.41c2.32-2.29,4.62-4.61,6.93-6.92a1.31,1.31,0,0,1,1.51-.49A1.19,1.19,0,0,1,18.28,28c0,.56-.4.94-.8,1.34-1.82,1.8-3.61,3.63-5.45,5.39-.54.51-.54.8,0,1.32C13.83,37.74,15.58,39.54,17.36,41.31Z"/><path class="cls-1" d="M43.44,36.59C41.2,38.77,39,41,36.81,43.21c-.6.61-1.26,1.17-2.05.4s-.36-1.52.32-2.19l5.32-5.31c.23-.23.43-.48.68-.77-.26-.27-.48-.52-.71-.74L35,29.29c-.64-.63-1.26-1.32-.46-2.18s1.52-.3,2.17.35c2.21,2.21,4.4,4.43,6.63,6.62C44.24,34.93,44.39,35.67,43.44,36.59Z"/><path class="cls-1" d="M4.17,12Q39.59,12,75,12l-3.5,0Q37.91,12,4.28,12c-.54,0-1.14.22-1.63-.2A2.63,2.63,0,0,0,4.17,12Z"/><path class="cls-1" d="M77.66,2.57A32.24,32.24,0,0,1,74,2.5c1.38,0,2.75-.06,4.13,0a1.07,1.07,0,0,1,.36.21A4.27,4.27,0,0,0,77.66,2.57Z"/><path class="cls-1" d="M32.16,7.32a3.7,3.7,0,1,1-7.4-.08,3.7,3.7,0,0,1,7.4.08Z"/><path class="cls-1" d="M12.86,7.29A3.59,3.59,0,0,1,9.26,11a3.73,3.73,0,0,1-3.8-3.74A3.86,3.86,0,0,1,9.21,3.58,3.68,3.68,0,0,1,12.86,7.29Z"/><path class="cls-1" d="M22.52,7.32A3.65,3.65,0,0,1,18.83,11a3.74,3.74,0,0,1-3.73-3.7,3.82,3.82,0,0,1,3.73-3.72A3.73,3.73,0,0,1,22.52,7.32Z"/><path class="cls-2" d="M65.74,35.77c-3.21,0-6.43,0-9.65,0-.87,0-1.7-.12-1.72-1.19s.79-1.29,1.67-1.29H75.62c.89,0,1.69.27,1.66,1.3s-.86,1.19-1.74,1.18C72.27,35.75,69,35.77,65.74,35.77Z"/><path class="cls-2" d="M62.72,45.72H56.05c-.87,0-1.69-.17-1.68-1.24s.84-1.24,1.7-1.24H69.54c.83,0,1.57.18,1.61,1.18s-.74,1.3-1.63,1.3Z"/><path class="cls-3" d="M59.39,25.81H55.7a1.17,1.17,0,0,1-1.34-1.15,1.13,1.13,0,0,1,1.23-1.26q3.84-.07,7.68,0a1.16,1.16,0,0,1,1.27,1.24c0,.88-.62,1.19-1.45,1.18Z"/><path class="cls-3" d="M28.42,6.1c.77.09,1.2.45,1.21,1.17a1.17,1.17,0,1,1-2.34-.07A1.12,1.12,0,0,1,28.42,6.1Z"/><path class="cls-3" d="M10.43,7.33A1.18,1.18,0,0,1,9.25,8.52,1.14,1.14,0,0,1,8,7.28,1.09,1.09,0,0,1,9.16,6.12C10,6.1,10.31,6.62,10.43,7.33Z"/><path class="cls-3" d="M20,7.33c-.07.74-.45,1.17-1.17,1.17a1.1,1.1,0,0,1-1.22-1.23,1.07,1.07,0,0,1,1.15-1.14C19.61,6.1,20,6.6,20,7.33Z"/></svg>