<svg id="Layer_1" data-name="Layer 1" xmlns="http://www.w3.org/2000/svg" viewBox="0 0 96.14 86.95"><defs><style>.cls-1{fill:#02265d;}.cls-2{fill:#0598d8;}</style></defs><title>صور وايقونات</title><path class="cls-1" d="M89,78.61c.09-2.21.17-4.41.21-6.62a1.36,1.36,0,0,1,1-1.45,8.36,8.36,0,0,0,5.1-9.81c-.5-2.54-1-5.09-1.54-7.62a2.07,2.07,0,0,1,.44-1.93,8.12,8.12,0,0,0,1.22-8.83C93,36.85,90.48,31.4,88,25.93a8.42,8.42,0,0,0-3.93-4.3,1.39,1.39,0,0,1-.87-1.24,8.7,8.7,0,0,0-3-5.71c-4-3.86-8-7.77-12-11.65C64-1.09,59.19-1,55.06,3.25Q30.64,28.35,6.22,53.45A29.47,29.47,0,0,0,3.8,56.16,16.89,16.89,0,0,0,1.49,73.79C4.17,80.22,9.25,84.07,16.2,84.45c14.76.82,29.55,1.23,44.32,1.84,1.24,0,2-.31,2.32-1.55-.3-1.23-1.23-1.43-2.3-1.34-.87.07-1.1-.3-1-1.14.11-1.53.15-3.08.18-4.63,0-.55.11-.89.77-1,3.72-.71,7.44-1.48,11.28-2.25-.12,3-.26,5.74-.33,8.54,0,.75-.27,1-1,.87s-1.54,0-2.31-.12c-1.25-.12-2,.33-2.17,1.64a1.94,1.94,0,0,0,1.78,1.26c4.3.14,8.61.45,12.9.39A8.32,8.32,0,0,0,89,78.61Zm1-24.56c.81-.37,1-.13,1.12.64.4,2.28.9,4.54,1.33,6.81A5.63,5.63,0,0,1,91,66.58a6.17,6.17,0,0,1-3,1.64c-1.94.42-3.9.74-5.84,1.15-.69.15-1,0-1.1-.72-.54-3-1.13-6-1.74-8.92-.12-.64,0-1,.64-1.26Q85,56.33,89.94,54.05ZM85.36,27.1c2.39,5.37,4.8,10.72,7.15,16.11,1.49,3.42.34,6.34-3.05,7.89-1.8.81-3.62,1.58-5.42,2.42-.72.34-1.08.31-1.44-.52q-3.94-9-8-17.92a1.28,1.28,0,0,1,.31-1.7c1.58-1.54,3.08-3.15,4.63-4.72A12.51,12.51,0,0,0,82.8,24.3,5.24,5.24,0,0,1,85.36,27.1ZM59.59,49.18c1.45,1,.71,4.13,3.63,3.48,1-.94.47-1.87,0-2.86-1.35-3-1.34-3,.93-5.34l7.61-7.82c.59.13.61.63.77,1C75,43.06,77.38,48.5,79.85,53.91c.45,1,.35,1.37-.67,1.8q-5,2.15-9.94,4.46c-.92.42-1.35.33-1.66-.66-.26-.84-.7-1.62-1-2.43a2.06,2.06,0,0,0-1.79-1.5c-1.32.51-1.53,1.38-1,2.63s1.79,2.52,1.29,3.56c-.42.88-2.13,1.14-3.28,1.66-2.46,1.11-4.94,2.16-7.37,3.31-.93.44-1.42.42-1.83-.66-.75-2-1.64-3.84-2.52-5.73-.28-.6-.43-1,.13-1.61C53.39,55.57,56.49,52.37,59.59,49.18ZM47.5,61.71l2.73,6.11c.22.49.11.75-.41,1C44.57,71.12,39.34,73.46,34,75.59ZM36,78.14c3.44-1.53,6.89-3.06,10.33-4.62.64-.29.85.07.8.54-.06.75,1.12,1.87-.28,2.2-3.56.83-7.16,1.46-10.75,2.18C36.06,78.35,36,78.24,36,78.14Zm5.31,4.41c-2.29,0-4.6-.13-6.9-.26-.15,0-.3-.27-.5-.47L41,80.42c.4-.07,1-.29.85.49C41.79,81.48,42.4,82.54,41.3,82.55ZM51.87,71c2.92-1.29,5.84-2.55,8.74-3.89.9-.42,1.21-.26,1.35.72.2,1.41.55,2.81.82,4.21.07.35.29.75-.14,1.12l-.9.21c-3.34.66-6.7,1.28-10,2-1.05.23-1.43.07-1.6-1C49.75,72,49.68,72,51.87,71Zm4.8,11.24c0,.87-.35,1-1.09.92-3.25-.16-6.5-.25-9.75-.41-.38,0-1.2.33-1-.54s-.67-2.35.8-2.68c3.7-.84,7.44-1.49,11.24-2.23C56.77,79.07,56.65,80.67,56.67,82.26ZM77.32,70.33c-3.46.67-6.92,1.33-10.37,2-.79.16-1.19.08-1.32-.85-.24-1.69-.61-3.36-1-5-.16-.74-.09-1.16.73-1.51,3.38-1.44,6.74-3,10.09-4.49.75-.35,1-.21,1.18.61.48,2.66,1,5.3,1.55,7.95.07.36.3.74-.12,1.1ZM80.46,84.1c-1.77,0-3.52-.15-5.29-.16-.76,0-.9-.29-.88-1q.21-4.12.3-8.27c0-.69.27-.93.93-1.06,3.3-.62,6.59-1.29,9.89-1.95.46-.09.9-.2.85.54A74.62,74.62,0,0,1,85.8,80a5.83,5.83,0,0,1-1.31,2.46A6,6,0,0,1,80.46,84.1Z"/><path class="cls-2" d="M26.87,57.5c3.2,3.11,6.37,6.26,9.62,9.32.8.76.75,1.17,0,1.92-2.77,2.76-5.45,5.61-8.21,8.39A14.71,14.71,0,0,1,7,56.85c2.76-3,5.69-5.85,8.5-8.81.65-.69,1-.67,1.69,0C20.37,51.21,23.62,54.35,26.87,57.5Z"/><path class="cls-2" d="M48.36,30.8a1.84,1.84,0,0,0,.54,2.48c3.42,3.28,6.79,6.63,10.23,9.89.84.8,1.06,1.28.11,2.2-2.57,2.5-5.05,5.1-7.51,7.71-.67.7-1.06.82-1.82.07q-9.63-9.46-19.34-18.82c-.77-.74-.68-1.14,0-1.83q3.85-3.87,7.62-7.83c.68-.73,1.13-.82,1.85-.05,1.16,1.25,2.45,2.38,3.65,3.6.85.86,1.66,1,2.55.11A3.81,3.81,0,0,1,48.36,30.8Z"/><path class="cls-2" d="M48.36,30.8c-.7-.82-1.76-1.34-2.1-2.47a1.72,1.72,0,0,0-.56-2.2c-1.23-1.19-2.43-2.42-3.69-3.57-.65-.61-.76-1-.07-1.73,2.62-2.62,5.2-5.26,7.73-7.95.69-.73,1.08-.57,1.71,0Q61,22.35,70.72,31.73c.74.71.74,1.1,0,1.81-2.55,2.53-5.06,5.09-7.5,7.71-.84.91-1.3.73-2.07,0C57.8,37.87,54.37,34.6,51,31.27,50.18,30.47,49.38,30.14,48.36,30.8Z"/><path class="cls-2" d="M28.94,55.43c-3.2-3.12-6.38-6.25-9.62-9.33-.75-.71-.88-1.16-.07-2,2.55-2.52,5-5.09,7.5-7.7.71-.76,1.14-.7,1.84,0q9.63,9.43,19.32,18.8c.65.63.74,1,.05,1.71q-3.85,3.86-7.6,7.83c-.71.74-1.12.73-1.84,0C35.36,61.63,32.14,58.54,28.94,55.43Z"/><path class="cls-2" d="M63,20.15c-3.17-3.08-6.3-6.19-9.51-9.22-.81-.76-.78-1.22,0-1.95,1.44-1.37,2.75-2.86,4.18-4.25a5.5,5.5,0,0,1,8.11,0q6.43,6.21,12.81,12.47a5.45,5.45,0,0,1,.19,8.09c-1.39,1.5-2.9,2.89-4.25,4.42-.72.82-1.14.63-1.81,0C69.48,26.44,66.22,23.31,63,20.15Z"/><path class="cls-1" d="M12.54,61.84a6.9,6.9,0,0,1,9.78,0,7,7,0,1,1-9.89,9.78A7,7,0,0,1,12.54,61.84Z"/><path class="cls-1" d="M14.55,69.6a4,4,0,0,1,.07-5.76,4,4,0,0,1,5.63.09,4,4,0,1,1-5.7,5.67Z"/><rect class="cls-1" x="61.98" y="45.05" width="3.05" height="18.04" transform="translate(-17.4 33.8) rotate(-26.34)"/><rect class="cls-1" x="63.94" y="75.92" width="3.13" height="18.04" transform="translate(-22.17 146.76) rotate(-87.55)"/></svg>