<svg id="Layer_1" data-name="Layer 1" xmlns="http://www.w3.org/2000/svg" viewBox="0 0 57.34 65.12"><defs><style>.cls-1{fill:#e3a12a;}.cls-2{fill:#ebecee;}</style></defs><title>صور وايقونات</title><path class="cls-1" d="M28.65,0H56.31c1.11,0,1.08,0,1,1.07-.43,4.81-.84,9.63-1.28,14.44Q55.14,25.26,54.25,35L53,49.64c-.25,2.79-.49,5.58-.7,8.38,0,.55-.28.75-.78.89C45.3,60.6,39.12,62.32,32.94,64c-5.31,1.47-3.38,1.47-8.64,0-5.95-1.64-11.9-3.26-17.84-4.92C4.79,58.65,5.09,58.9,5,57.29Q3.53,41.44,2.11,25.57,1.09,14,.1,2.49a2.45,2.45,0,0,0,0-.27C-.12,0-.12,0,2.07,0Z"/><polygon class="cls-2" points="18.97 16.74 18.97 25.08 47.14 25.08 46.79 29.2 46.49 32.76 46.02 38.46 45.85 40.59 45.85 40.6 45.2 48.38 43.13 49.17 42.6 49.37 36.92 51.52 30.49 53.58 20.55 50.4 17.83 49.53 12.46 47.82 12.13 39.65 11.99 36.3 19.95 35.96 20.22 42.22 30.47 45.5 37.61 43.23 37.61 43.22 37.74 41.6 38.48 32.76 11.28 32.76 11.28 9.06 48.55 9.06 47.89 16.74 18.97 16.74"/></svg>