<svg id="Layer_1" data-name="Layer 1" xmlns="http://www.w3.org/2000/svg" viewBox="0 0 57.54 57.54"><defs><style>.cls-1{fill:#fff;}.cls-2{fill:#1a233a;fill-rule:evenodd;}</style></defs><title>صور وايقونات</title><rect class="cls-1" width="57.54" height="57.54" rx="28.77" ry="28.77"/><path class="cls-2" d="M29.36,11.89A16.58,16.58,0,0,0,15.43,37.44L12.92,43A1.44,1.44,0,0,0,14.23,45a1.74,1.74,0,0,0,.39-.05l6.93-1.91a16.57,16.57,0,1,0,7.81-31.18Zm0,30.25a13.68,13.68,0,0,1-6.89-1.87,1.42,1.42,0,0,0-.73-.19,1.2,1.2,0,0,0-.38.05l-4.53,1.24,1.58-3.48a1.44,1.44,0,0,0-.15-1.44,13.56,13.56,0,0,1-2.58-8A13.68,13.68,0,1,1,29.36,42.14Z"/><path class="cls-2" d="M35.73,30.94a2.84,2.84,0,0,0-2.42-.54c-.62.25-1,1.23-1.43,1.74a.61.61,0,0,1-.78.16,10.89,10.89,0,0,1-5.46-4.67.66.66,0,0,1,.09-.91,3.81,3.81,0,0,0,1-1.61,3.56,3.56,0,0,0-.44-1.91,4.52,4.52,0,0,0-1.41-2.12,1.93,1.93,0,0,0-2.09.31,4.26,4.26,0,0,0-1.48,3.37,4.83,4.83,0,0,0,.14,1.07,9,9,0,0,0,1,2.36c.33.56.69,1.1,1.07,1.63a16.54,16.54,0,0,0,4.64,4.3,13.53,13.53,0,0,0,2.9,1.38,6.47,6.47,0,0,0,3.36.53,4.08,4.08,0,0,0,3.06-2.27,2,2,0,0,0,.14-1.16C37.45,31.8,36.37,31.33,35.73,30.94Z"/></svg>