<svg id="Layer_1" data-name="Layer 1" xmlns="http://www.w3.org/2000/svg" viewBox="0 0 76 68.76"><defs><style>.cls-1{fill:#fff;}</style></defs><title>صور وايقونات</title><path class="cls-1" d="M48,54.46l1.12,7.28c.75,0,1.49,0,2.23,0,1,0,1.55.43,1.55,1.47,0,1.39,0,2.78,0,4.18a1.21,1.21,0,0,1-1.39,1.37q-13.51,0-27,0c-1,0-1.44-.49-1.44-1.44,0-1.4,0-2.79,0-4.19a1.24,1.24,0,0,1,1.4-1.39h2.37L28,54.4H4.89c-2.67,0-4.28-1.11-4.77-3.25A6.45,6.45,0,0,1,0,49.69v-45C0,1.62,1.61,0,4.65,0H71.36C74.34,0,76,1.62,76,4.59q0,22.61,0,45.22c0,2.81-1.54,4.47-4.33,4.57-2.22.07-4.45,0-6.67,0-.74,0-1.4-.22-1.42-1.1s.7-1.16,1.47-1.16c2.11,0,4.22,0,6.33,0,1.76,0,2.39-.62,2.39-2.38q0-22.54,0-45.11c0-1.82-.62-2.41-2.47-2.41H4.7c-1.85,0-2.47.59-2.47,2.41v45c0,1.9.6,2.48,2.51,2.48H58.22a3.63,3.63,0,0,1,1.45.12c.37.17.87.69.83,1a1.86,1.86,0,0,1-.9,1.07c-.28.18-.74.09-1.11.09H49.33C48.93,54.4,48.53,54.44,48,54.46Zm2.59,9.6c-.22,0-.4,0-.58,0H45.17c-.72,0-1.3-.3-1.31-1.1s.57-1.16,1.35-1.16h1.67c-.37-2.35-.69-4.58-1.09-6.79,0-.23-.52-.52-.8-.53q-7,0-14,0a1,1,0,0,0-.79.53c-.39,2.22-.71,4.44-1.07,6.78H39.39c.77,0,1.41.24,1.44,1.07S40.2,64,39.38,64h-14v2.43h25.2Z"/><path class="cls-1" d="M7.06,7V47.28H68.91V7H16.68c-1.53,0-2.13-.32-2-1.15.14-1.26,1.14-1.08,2-1.08H69.21c1.74,0,2,.27,2,2V47.54c0,1.8-.23,2-2,2H6.79c-1.79,0-2-.22-2-2V6.73c0-1.67.28-1.94,2-1.94h3.5c.73,0,1.29.29,1.31,1.09S11,7,10.31,7C9.26,7,8.21,7,7.06,7Z"/><path class="cls-1" d="M50.39,44.64a6.3,6.3,0,0,0-6-5.69,2.82,2.82,0,0,1-2.52-1.25.57.57,0,0,0-.87-.21.57.57,0,0,0-.14.89c.29.38.65.71,1,1.06.09.1.25.23.23.32-.18.89-.39,1.78-.61,2.76-.51-.59-1-1.09-1.38-1.61a.44.44,0,0,1,0-.34.61.61,0,0,0-.3-.82.63.63,0,0,0-.81.23c-.32.38-.65.75-1,1.16-.89-1-1.75-1.94-2.6-2.91a.35.35,0,0,1,0-.3c.11-.41.25-.82.38-1.22.52.07,1,.18,1.53.22a11.31,11.31,0,0,0,1.54,0,8.26,8.26,0,0,0,7.44-7.44c.12-1.92,0-3.84.07-5.76a1,1,0,0,0,0-.24.57.57,0,0,0-.64-.52.56.56,0,0,0-.57.59c0,.19,0,.38,0,.58,0,1.79.06,3.59-.09,5.37a7,7,0,0,1-13.74,1c-.6-2.33-.14-4.72-.31-7.1a3.61,3.61,0,0,0,3.27-2.66c1.38.64,2.67,1.36,4,1.85a44.32,44.32,0,0,0,4.29,1.13c.5.12.84-.07.89-.46s-.2-.66-.71-.74a17.36,17.36,0,0,1-4.86-1.39c-1.26-.61-2.46-1.34-3.68-2-.54-.31-.94-.13-1,.49L33,20a2.33,2.33,0,0,1-2.55,2.16c-.57,0-.8.19-.81.77,0,1,0,2,0,2.95v1.75a1.2,1.2,0,0,1-.69-1.11c0-2.52,0-5,0-7.55a1.4,1.4,0,0,1,1.34-1.45A.86.86,0,0,0,31,17a5.3,5.3,0,0,1,5-3.32c1.87,0,3.74,0,5.62,0a5.37,5.37,0,0,1,5.28,5.05c.12,2.46.05,4.93.07,7.4a2.82,2.82,0,0,0,0,.58.57.57,0,0,0,.91.34,1.1,1.1,0,0,0,.28-.72q0-3.13,0-6.29A13,13,0,0,0,48.06,18a6.74,6.74,0,0,0-6.18-5.53c-2-.06-4-.08-6.05,0A6.6,6.6,0,0,0,30.13,16a1.07,1.07,0,0,1-.52.42,2.7,2.7,0,0,0-1.93,2.47c0,2.55,0,5.09,0,7.64a2.52,2.52,0,0,0,1.67,2.44.64.64,0,0,1,.3.45A8.22,8.22,0,0,0,34,36a.51.51,0,0,1,.32.56,2.62,2.62,0,0,1-2.57,2.36,6.34,6.34,0,0,0-6.4,6.29c0,1.2,0,2.39,0,3.58,0,.48.25.78.61.79s.63-.29.63-.8c0-1.15-.06-2.3,0-3.44a6.88,6.88,0,0,1,.5-2.24c.88-2,2.94-3.1,5.47-3,.26,1.18.5,2.38.79,3.57a1.28,1.28,0,0,0,.48.71c.32.18.59-.09.81-.35s.63-.71,1-1.18c0,.33-.05.5-.07.67-.22,1.74-.43,3.48-.65,5.23a.61.61,0,0,0,.54.77c.45.06.63-.23.69-.63l.24-2c.2-1.6.4-3.19.61-4.8.89.61.89.61,1.69,0,.18,1.43.34,2.8.52,4.18.11.89.22,1.79.35,2.68.05.37.26.61.65.55a.6.6,0,0,0,.56-.71c0-.17,0-.35,0-.53l-.54-4.22c0-.35-.07-.71-.13-1.21.47.53.82,1,1.19,1.34A.6.6,0,0,0,42.37,44c0-.12.06-.25.09-.38l.78-3.52,1.21.07a5,5,0,0,1,4.67,4.45c.13,1.39.08,2.8.1,4.2,0,.41.15.7.58.74s.66-.27.65-.73C50.45,47.45,50.48,46,50.39,44.64Zm-16-2.12c-.22-1-.46-1.83-.58-2.71,0-.21.33-.47.54-.74l1.55,1.72C35.4,41.35,34.92,41.89,34.38,42.52Z"/><path class="cls-1" d="M50.39,44.64a6.3,6.3,0,0,0-6-5.69,2.82,2.82,0,0,1-2.52-1.25.57.57,0,0,0-.87-.21.57.57,0,0,0-.14.89c.29.38.65.71,1,1.06.09.1.25.23.23.32-.18.89-.39,1.78-.61,2.76-.51-.59-1-1.09-1.38-1.61a.44.44,0,0,1,0-.34.61.61,0,0,0-.3-.82.63.63,0,0,0-.81.23c-.32.38-.65.75-1,1.16-.89-1-1.75-1.94-2.6-2.91a.35.35,0,0,1,0-.3c.11-.41.25-.82.38-1.22.52.07,1,.18,1.53.22a11.31,11.31,0,0,0,1.54,0,8.26,8.26,0,0,0,7.44-7.44c.12-1.92,0-3.84.07-5.76a1,1,0,0,0,0-.24.57.57,0,0,0-.64-.52.56.56,0,0,0-.57.59c0,.19,0,.38,0,.58,0,1.79.06,3.59-.09,5.37a7,7,0,0,1-13.74,1c-.6-2.33-.14-4.72-.31-7.1a3.61,3.61,0,0,0,3.27-2.66c1.38.64,2.67,1.36,4,1.85a44.32,44.32,0,0,0,4.29,1.13c.5.12.84-.07.89-.46s-.2-.66-.71-.74a17.36,17.36,0,0,1-4.86-1.39c-1.26-.61-2.46-1.34-3.68-2-.54-.31-.94-.13-1,.49L33,20a2.33,2.33,0,0,1-2.55,2.16c-.57,0-.8.19-.81.77,0,1,0,2,0,2.95v1.75a1.2,1.2,0,0,1-.69-1.11c0-2.52,0-5,0-7.55a1.4,1.4,0,0,1,1.34-1.45A.86.86,0,0,0,31,17a5.3,5.3,0,0,1,5-3.32c1.87,0,3.74,0,5.62,0a5.37,5.37,0,0,1,5.28,5.05c.12,2.46.05,4.93.07,7.4a2.82,2.82,0,0,0,0,.58.57.57,0,0,0,.91.34,1.1,1.1,0,0,0,.28-.72q0-3.13,0-6.29A13,13,0,0,0,48.06,18a6.74,6.74,0,0,0-6.18-5.53c-2-.06-4-.08-6.05,0A6.6,6.6,0,0,0,30.13,16a1.07,1.07,0,0,1-.52.42,2.7,2.7,0,0,0-1.93,2.47c0,2.55,0,5.09,0,7.64a2.52,2.52,0,0,0,1.67,2.44.64.64,0,0,1,.3.45A8.22,8.22,0,0,0,34,36a.51.51,0,0,1,.32.56,2.62,2.62,0,0,1-2.57,2.36,6.34,6.34,0,0,0-6.4,6.29c0,1.2,0,2.39,0,3.58,0,.48.25.78.61.79s.63-.29.63-.8c0-1.15-.06-2.3,0-3.44a6.88,6.88,0,0,1,.5-2.24c.88-2,2.94-3.1,5.47-3,.26,1.18.5,2.38.79,3.57a1.28,1.28,0,0,0,.48.71c.32.18.59-.09.81-.35s.63-.71,1-1.18c0,.33-.05.5-.07.67-.22,1.74-.43,3.48-.65,5.23a.61.61,0,0,0,.54.77c.45.06.63-.23.69-.63l.24-2c.2-1.6.4-3.19.61-4.8.89.61.89.61,1.69,0,.18,1.43.34,2.8.52,4.18.11.89.22,1.79.35,2.68.05.37.26.61.65.55a.6.6,0,0,0,.56-.71c0-.17,0-.35,0-.53l-.54-4.22c0-.35-.07-.71-.13-1.21.47.53.82,1,1.19,1.34A.6.6,0,0,0,42.37,44c0-.12.06-.25.09-.38l.78-3.52,1.21.07a5,5,0,0,1,4.67,4.45c.13,1.39.08,2.8.1,4.2,0,.41.15.7.58.74s.66-.27.65-.73C50.45,47.45,50.48,46,50.39,44.64Zm-16-2.12c-.22-1-.46-1.83-.58-2.71,0-.21.33-.47.54-.74l1.55,1.72C35.4,41.35,34.92,41.89,34.38,42.52Z"/><rect class="cls-1" x="56.55" y="52.13" width="4.58" height="2.28" rx="1.14" ry="1.14"/></svg>