<svg id="Layer_1" data-name="Layer 1" xmlns="http://www.w3.org/2000/svg" viewBox="0 0 63.72 63.79"><defs><style>.cls-1{fill:#02265d;}</style></defs><title>صور وايقونات</title><path class="cls-1" d="M3.75,60H8.82V17.84c0-2.53.46-3,3-3h5c2.22,0,2.76.54,2.76,2.73V52.43c0,2.46,0,4.93,0,7.49h6.83V58.55q0-11,0-22c0-2.38.49-2.86,2.88-2.86h5.41c1.94,0,2.53.59,2.53,2.58q0,11.13,0,22.26V60h6.76c0-.47.07-.91.07-1.35,0-4.32,0-8.64,0-13,0-2,.61-2.58,2.54-2.59s3.85,0,5.78,0,2.49.63,2.5,2.51c0,4.31,0,8.63,0,13V60h5.91c.46,0,1-.15,1.36.08a3.64,3.64,0,0,1,1.45,1.63,1.52,1.52,0,0,1-1.23,1.89,6.79,6.79,0,0,1-1.75.15H3.09C.44,63.78,0,63.35,0,60.73V10.42A7.23,7.23,0,0,1,.15,8.68,1.68,1.68,0,0,1,2.06,7.39,1.69,1.69,0,0,1,3.72,9a10.6,10.6,0,0,1,0,1.38V60ZM15.81,18.74H12.66V60h3.15ZM30.32,37.51V59.9h3.15V37.51ZM51.11,60v-13H48V60Z"/><path class="cls-1" d="M57.34,24.84c1.9,1.83,3.8,3.61,5.63,5.44,1.16,1.15.9,2.77-.45,3.28a2,2,0,0,1-2.25-.68c-.91-.93-1.84-1.84-2.75-2.76l-2.75-2.84a15.16,15.16,0,0,1-12.9,2.8,14.71,14.71,0,0,1-8.8-5.86A15.24,15.24,0,0,1,54.51,3C60,7.12,63.36,16.13,57.34,24.84Zm-12,1.88A11.48,11.48,0,1,0,33.92,15.17,11.44,11.44,0,0,0,45.39,26.72Z"/><rect class="cls-1" x="-3.42" y="10.03" width="10.67" height="3.82" rx="1.91" ry="1.91" transform="translate(-10.03 13.85) rotate(-90)"/></svg>