<svg id="Layer_1" data-name="Layer 1" xmlns="http://www.w3.org/2000/svg" viewBox="0 0 76.96 36.04"><defs><style>.cls-1{fill:#29396d;}</style></defs><title>صور وايقونات</title><path class="cls-1" d="M27,14.59a6.53,6.53,0,0,0-4.34-6.17A15.25,15.25,0,0,0,18,7.51c-3.63-.12-7.26,0-10.89-.08-1.24,0-1.65.46-1.86,1.6-.84,4.61-1.78,9.22-2.67,13.83L0,36c1.92,0,3.5,0,5.09,0,1,0,1.31-.38,1.45-1.28.24-1.59.67-3.14.85-4.73.16-1.29.75-1.67,2-1.6,1.7.08,3.42,0,5.13,0C22.3,28.09,27.45,22.4,27,14.59ZM12.72,23.82c-1.27,0-2.53,0-4,0,.71-3.8,1.36-7.36,2.1-10.89a1.29,1.29,0,0,1,1-.73,45.85,45.85,0,0,1,5.75.21c2.16.28,3,1.47,2.95,3.65C20.37,21.2,17.83,23.74,12.72,23.82Z"/><path class="cls-1" d="M51.54,14.3c-.75,4.41-1.65,8.8-2.55,13.19-.09.44-.66,1.08-1,1.11-1.74.12-3.49,0-5.55,0,.46-2.38.87-4.51,1.28-6.62s.88-4.4,1.26-6.61c.3-1.74-.23-2.58-2-2.77a33.69,33.69,0,0,0-5.41-.11c-.38,0-.95.75-1,1.23-.92,4.32-1.79,8.66-2.57,13-.25,1.4-.76,2.05-2.27,1.9s-2.74,0-4.44,0c.76-3.88,1.46-7.37,2.15-10.87,1.07-5.44,2.18-10.87,3.2-16.32C32.79.36,33.24,0,34.37,0c1.51.08,3.05,0,4.77,0-.46,2.61-.87,4.94-1.33,7.52,1.6,0,3-.06,4.45,0A31.16,31.16,0,0,1,47.19,8C50.57,8.71,52.12,10.93,51.54,14.3Z"/><path class="cls-1" d="M76.92,14.72a7,7,0,0,0-5.33-6.65,15,15,0,0,0-3.94-.57c-3.52-.08-7.05,0-10.57-.06-1.26,0-1.77.37-2,1.63C54,15.05,52.77,21,51.61,27c-.56,2.93-1.12,5.85-1.73,9,2,0,3.81.07,5.6,0,.34,0,.79-.77.9-1.24.4-1.66.72-3.35,1-5,.13-.93.55-1.24,1.47-1.23,2.08,0,4.17,0,6.24-.08A12.58,12.58,0,0,0,76.92,14.72Zm-6.54,1.55c-.43,5.33-2.77,7.51-8.14,7.56-1.11,0-2.23,0-3.67,0,.72-3.83,1.38-7.39,2.1-10.94a1.16,1.16,0,0,1,.87-.68,49.06,49.06,0,0,1,6.07.26C69.7,12.76,70.55,14.13,70.38,16.27Z"/></svg>