<svg id="Layer_1" data-name="Layer 1" xmlns="http://www.w3.org/2000/svg" viewBox="0 0 98.74 76.98"><defs><style>.cls-1{fill:#0598d8;}.cls-2{fill:#02265d;}</style></defs><title>صور وايقونات</title><rect class="cls-1" x="1.76" y="27.92" width="74.89" height="20.5"/><path class="cls-2" d="M93.65,26.69a1.69,1.69,0,0,0-1.87,1.48,2.3,2.3,0,0,0,1.33,1.4c2.7,0,2.7,0,2.7,2.66,0,4.52,0,9,0,13.56,0,1.22-.29,1.59-1.55,1.58-4.68-.08-9.37,0-14.06,0-2.19,0-2.19,0-2-2.26,0-4.8,0-9.6-.09-14.39,0-1,.45-1.15,1.29-1.13,2.21,0,4.42,0,6.62,0a1.79,1.79,0,0,0,2-1.33c-.3-.6-.28-1.51-1.24-1.49s-1-.66-1.25-1.26c-6-15.07-17-23.57-33.07-25.29a36.28,36.28,0,0,0-22.34,5A2,2,0,0,0,28.9,7c.64,1.3,1.54,1.36,2.71.68a28.72,28.72,0,0,1,7.78-3.21,34.41,34.41,0,0,0-6.74,10.68.86.86,0,0,1-.88.59c-3.12,0-6.25,0-9.59,0a16.15,16.15,0,0,1,3.13-3.4,2.2,2.2,0,0,0,.82-2.62c-1-.83-1.88-.45-2.74.37A37.24,37.24,0,0,0,13.27,25.35a1.73,1.73,0,0,1-2,1.37c-3-.09-6.07,0-9.11,0C.6,26.65,0,27.31,0,28.86q.06,9.59,0,19.19c0,1.58.61,2.19,2.16,2.17,2.75,0,5.52.11,8.28-.06,1.76-.11,2.53.47,3.15,2.15C19.76,69.07,38,79.61,55.51,76.41c14.63-2.69,24.59-11.15,30-25a1.6,1.6,0,0,1,1.76-1.25c2.87.09,5.74,0,8.6,0,2.7,0,2.86-.18,2.86-2.77,0-5.36,0-10.71,0-16.06S99.12,26.7,93.65,26.69ZM48,57.15c0,.86-.27,1.14-1.13,1.13q-5.69,0-11.39,0a1.16,1.16,0,0,1-1.35-1.06c-.47-2-1-3.94-1.53-5.89-.25-.89,0-1.17,1-1.15,2.25,0,4.5,0,6.76,0,2.09,0,4.18,0,6.27,0,1,0,1.49.2,1.43,1.36C47.88,53.4,47.92,55.28,48,57.15ZM77.88,18.61a1.51,1.51,0,0,1,1.5.77,40.14,40.14,0,0,1,3.17,6.32c.24.6.4,1-.54,1s-2.13,0-3.2,0H78.3c-2.38-.1-4.77,0-7.16,0l-.59,0-1.07-.07-1.86-7.68c.17-.41.55-.27.85-.27C71.61,18.61,74.74,18.64,77.88,18.61Zm-1.22-2.87c-3.47,0-6.61,0-9.74,0-.67,0-.8-.48-1-.93A33.19,33.19,0,0,0,59.16,4.29,36.33,36.33,0,0,1,76.66,15.74ZM52,3.25A14.25,14.25,0,0,1,58.48,7.9a32.12,32.12,0,0,1,4.19,6.71c.41.87.33,1.17-.68,1.15-3.37,0-6.74,0-10.09,0-.9,0-1.14-.36-1.12-1.18,0-1.77,0-3.53,0-5.3s0-3.42,0-5.13C50.74,3.15,51,2.93,52,3.25ZM50.78,19.72c0-.88.3-1.12,1.15-1.11,3.8,0,7.59,0,11.39,0,.84,0,1.15.34,1.33,1.09.47,2,1,3.93,1.53,5.89.26.93-.11,1.13-1,1.12-2.27-.05-4.52,0-6.77,0s-4.29,0-6.44,0c-.91,0-1.27-.24-1.24-1.21C50.84,23.57,50.83,21.65,50.78,19.72ZM35.89,15c2.31-4.82,5-9.34,10.29-11.49,1.75-.7,1.77-.65,1.77,1.2,0,1.59,0,3.19,0,4.78s0,3.3,0,4.95c0,1-.21,1.38-1.27,1.37-3.31-.06-6.61,0-9.91,0C36.32,15.73,35.44,15.92,35.89,15ZM32.57,25.54c.53-2,1.08-3.91,1.54-5.89.21-.91.72-1,1.53-1,3.69,0,7.37,0,11.06,0,.86,0,1.31.15,1.28,1.17-.08,1.91-.08,3.85,0,5.77,0,1-.43,1.17-1.28,1.16-2.21-.05-4.4,0-6.61,0s-4.4,0-6.6,0C32.55,26.73,32.33,26.39,32.57,25.54Zm-16.33,0a45.26,45.26,0,0,1,3-6,1.62,1.62,0,0,1,1.6-.87c3.08,0,6.16.05,9.24,0,1,0,1.21.26.94,1.22-.54,1.9-1,3.82-1.41,5.76-.17.89-.52,1.14-1.39,1.11-1.88-.06-3.75,0-5.61,0h0c-1.88,0-3.75-.05-5.62,0C16,26.75,15.86,26.42,16.24,25.5Zm3.05,31.87a41.48,41.48,0,0,1-3-5.86c-.34-.83-.54-1.47.79-1.34a1.47,1.47,0,0,0,1.72-1.38,3.07,3.07,0,0,0-.11-.36c-.31-.87-1-1.14-2-1.12-4.08,0-8.17,0-12.25,0-1.1,0-1.53-.2-1.5-1.43.07-5,.06-10,0-15,0-1.15.38-1.34,1.41-1.34q34.77,0,69.53,0c1,0,1.39.23,1.38,1.35-.06,5-.08,10,0,15,0,1.24-.41,1.42-1.5,1.41q-24.33,0-48.68,0c-1,0-2.11-.14-2.43,1.1a2.47,2.47,0,0,0-.06.29,1.79,1.79,0,0,0,2,1.49c1.09-.05,2.22.08,3.3,0s1.64.26,1.86,1.43c.34,1.9.85,3.75,1.34,5.61.21.8,0,1.07-.82,1.06-3.2,0-6.39,0-9.59,0A1.46,1.46,0,0,1,19.29,57.37Zm7.43,8.28A24.67,24.67,0,0,1,22,61.14c3.45,0,6.56,0,9.67,0,.64,0,.87.35,1,.84a56.25,56.25,0,0,0,3,6,51.66,51.66,0,0,0,3.48,4.4A30.24,30.24,0,0,1,26.72,65.65ZM48,72.77c0,1.06-.31,1.19-1.24.86a13,13,0,0,1-6.21-4.39A25.4,25.4,0,0,1,36,62c-.22-.47-.29-.9.41-.89,3.79.1,7.58-.25,11.37.18.53,1.21.19,2.47.22,3.7C48,67.6,47.92,70.19,48,72.77Zm2.79-21.51c0-1,.43-1.09,1.21-1.07,2.19,0,4.4,0,6.6,0s4.4,0,6.6,0c.81,0,1.29.1,1,1.09-.56,2-1.09,4-1.59,6a1.1,1.1,0,0,1-1.27,1c-3.79,0-7.59,0-11.38,0-.81,0-1.2-.16-1.18-1.09C50.83,55.21,50.84,53.24,50.77,51.26ZM52,73.59c-.48.17-1.2.7-1.2-.5,0-3.85,0-7.69,0-11.53,0-.09.13-.15.21-.23,3.76-.46,7.52-.07,11.28-.2.83,0,.76.4.47.94-.47.85-.93,1.72-1.41,2.57C59.25,68.68,56.48,72,52,73.59Zm7.72-1.34A37,37,0,0,0,66,61.87a1.07,1.07,0,0,1,1.13-.74c3.07,0,6.13,0,9.58,0A34.84,34.84,0,0,1,59.71,72.25Zm22.91-21.2a38.61,38.61,0,0,1-3.35,6.6,1.14,1.14,0,0,1-1.06.62l-10.4,0c-.07,0-.13-.16-.2-.24.62-2.56,1.25-5.12,1.87-7.68,4.18-.34,8.36,0,12.53-.13C82.66,50.17,82.9,50.32,82.62,51.05Z"/><path class="cls-2" d="M91.89,41.36a2.11,2.11,0,0,1-.74-2.52,4.41,4.41,0,0,0-1.85-4.92,4.58,4.58,0,0,0-5.12-.46,4.69,4.69,0,0,0-2.72,4.07c0,3.41,2.77,5.81,5.84,5.14a2.2,2.2,0,0,1,2.57.67,1.43,1.43,0,1,0,2-2Zm-5.51-1.45a2,2,0,0,1-2-2.13,2,2,0,0,1,2-2,2.08,2.08,0,0,1,2.05,2.13A2.06,2.06,0,0,1,86.38,39.91Z"/><path class="cls-2" d="M78.3,26.7c-2.39,0-4.77.07-7.16,0C73.53,26.74,75.92,26.6,78.3,26.7Z"/><path class="cls-2" d="M91.89,41.36a2.11,2.11,0,0,1-.74-2.52,4.41,4.41,0,0,0-1.85-4.92,4.58,4.58,0,0,0-5.12-.46,4.69,4.69,0,0,0-2.72,4.07c0,3.41,2.77,5.81,5.84,5.14a2.2,2.2,0,0,1,2.57.67,1.43,1.43,0,1,0,2-2Zm-5.51-1.45a2,2,0,0,1-2-2.13,2,2,0,0,1,2-2,2.08,2.08,0,0,1,2.05,2.13A2.06,2.06,0,0,1,86.38,39.91Z"/></svg>