<svg id="Layer_1" data-name="Layer 1" xmlns="http://www.w3.org/2000/svg" viewBox="0 0 57.23 56.56"><defs><style>.cls-1{fill:#feca1f;}.cls-2{fill:#367bb4;}</style></defs><title>صور وايقونات</title><path class="cls-1" d="M39,41.89h-9c-.64,0-1.42-.24-1.44.91s.81,1,1.5,1c3.65,0,7.29,0,10.94,0,1.1,0,1.5.33,1.44,1.44-.07,1.53-.08,3.07,0,4.6a4.51,4.51,0,0,1-2.68,4.46,20,20,0,0,1-7.74,2.11,26.35,26.35,0,0,1-11.56-1.14c-4.16-1.47-5.5-3.41-5.5-7.78,0-3.64,0-7.28,0-10.93,0-4.8,2.57-7.27,7.39-7.34,4.64-.07,9.29.21,13.93-.24,4.88-.48,7.17-2.71,7.78-7.6a31.82,31.82,0,0,0,.26-5.69c0-.93.21-1.35,1.22-1.29a25,25,0,0,1,4.57.24A7.26,7.26,0,0,1,55,18.78a20.83,20.83,0,0,1,.43,18.07,7.89,7.89,0,0,1-8,5C44.55,41.83,41.75,41.89,39,41.89Zm-.05,7.67a2.34,2.34,0,0,0-2.44-2.37A2.6,2.6,0,0,0,34,49.76a2.3,2.3,0,0,0,2.45,2.33A2.51,2.51,0,0,0,38.9,49.56Z"/><path class="cls-2" d="M18.19,14.68c3,0,5.92,0,8.88,0,.64,0,1.68.53,1.72-.9s-1-1-1.65-1c-3.48,0-7-.09-10.46,0-1.46,0-1.82-.45-1.71-1.8a25.64,25.64,0,0,0,0-4.11,4.51,4.51,0,0,1,2.8-4.69,20.59,20.59,0,0,1,7.45-2A25.94,25.94,0,0,1,36.79,1.3c3.33,1.2,5.93,2.88,5.64,7.84-.21,3.53,0,7.08,0,10.61,0,4.6-3.07,7.56-7.7,7.63-4.91.07-9.82-.28-14.72.25-4.24.46-6.17,2.4-6.7,6.67A28.47,28.47,0,0,0,13,40.62c.13,1.34-.38,1.69-1.58,1.57a13.39,13.39,0,0,0-1.9,0,7.11,7.11,0,0,1-7-4A20.29,20.29,0,0,1,2.29,19a7.51,7.51,0,0,1,7.35-4.32C12.49,14.71,15.34,14.68,18.19,14.68Zm5.13-7.81a2.25,2.25,0,0,0-2.2-2.4,2.55,2.55,0,0,0-2.75,2.45,2.4,2.4,0,0,0,2.38,2.45A2.58,2.58,0,0,0,23.32,6.87Z"/></svg>