<svg id="Layer_1" data-name="Layer 1" xmlns="http://www.w3.org/2000/svg" viewBox="0 0 80.67 80.69"><defs><style>.cls-1{fill:#02265d;}</style></defs><title>صور وايقونات</title><path class="cls-1" d="M40.31,80.68H35.85a5.2,5.2,0,0,1-5.53-5.21c-.12-2.29-.13-4.6-.07-6.89a12,12,0,0,0-4.6-9.93C18.19,52.39,15.23,44.37,17.49,35c2.32-9.67,8.85-15.67,18.57-17.71,13.2-2.78,26.21,7,27.6,20.36a22.51,22.51,0,0,1-8.48,20.82,12.27,12.27,0,0,0-4.75,10.4c.09,2.25,0,4.51,0,6.77a5.07,5.07,0,0,1-5.21,5.07ZM47,67.12a17.4,17.4,0,0,1,6.44-11.67A20,20,0,0,0,29.73,23.37C16.55,32,18,48.94,27.88,56.14a13.93,13.93,0,0,1,5.29,8.11c.24.94.35,1.91.51,2.87ZM33.64,70.67c0,1.69-.06,3.26,0,4.82a1.64,1.64,0,0,0,1.76,1.79h10A1.46,1.46,0,0,0,47,75.81c.08-1.69,0-3.39,0-5.14Z"/><path class="cls-1" d="M19.51,17.77c-.49.56-.85,1.31-1.41,1.52a2,2,0,0,1-1.79-.39c-1.59-1.52-3.07-3.17-4.56-4.79a1.58,1.58,0,0,1,.08-2.4,1.47,1.47,0,0,1,2.27.06c1.55,1.51,3.08,3,4.59,4.58A7.23,7.23,0,0,1,19.51,17.77Z"/><path class="cls-1" d="M5,42H1.88C.78,42,0,41.55,0,40.36s.7-1.69,1.82-1.69H8.17c1.1,0,1.83.44,1.87,1.64S9.44,42,8.1,42C7.06,42,6,42,5,42Z"/><path class="cls-1" d="M75.76,38.67c1.08,0,2.16,0,3.24,0A1.66,1.66,0,1,1,79,42q-3.37,0-6.75,0a1.51,1.51,0,0,1-1.65-1.71,1.49,1.49,0,0,1,1.62-1.6C73.42,38.64,74.59,38.67,75.76,38.67Z"/><path class="cls-1" d="M38.68,4.89c0-1.08,0-2.16,0-3.24A1.52,1.52,0,0,1,40.39,0,1.49,1.49,0,0,1,42,1.63c0,2.25,0,4.5,0,6.75A1.5,1.5,0,0,1,40.28,10,1.47,1.47,0,0,1,38.69,8.4C38.66,7.23,38.68,6.06,38.68,4.89Z"/><path class="cls-1" d="M69.21,67.78c-.3.45-.53,1.2-.94,1.3a2.48,2.48,0,0,1-2-.24C64.56,67.33,63,65.68,61.38,64a1.46,1.46,0,0,1,.17-2.17,1.42,1.42,0,0,1,2.16-.12c1.7,1.61,3.33,3.28,5,5A4.15,4.15,0,0,1,69.21,67.78Z"/><path class="cls-1" d="M69.29,13.18a8.65,8.65,0,0,1-.92,1.46C67,16,65.65,17.4,64.26,18.74a2,2,0,0,1-2.79.33c-.75-.71-.6-1.63.45-2.68,1.43-1.44,2.82-2.91,4.34-4.25a2.2,2.2,0,0,1,1.8-.35C68.53,11.94,68.84,12.64,69.29,13.18Z"/><path class="cls-1" d="M12.83,69.36c-.38-.24-1.14-.46-1.32-.91a2.11,2.11,0,0,1,.24-1.82c1.54-1.71,3.2-3.3,4.86-4.89a1.28,1.28,0,0,1,2,0c.38.52.69,1.68.4,2-1.63,1.85-3.43,3.55-5.2,5.27C13.66,69.22,13.33,69.22,12.83,69.36Z"/><path class="cls-1" d="M40.94,25.23A15.17,15.17,0,0,1,55.46,39.9c0,1.3-.5,2-1.57,2.08-1.3.06-1.76-.76-1.82-1.87a11.91,11.91,0,0,0-3.73-8.28,11.39,11.39,0,0,0-6.85-3.18c-.26,0-.54,0-.8-.06-1.48-.18-2.07-.72-2-1.84S39.5,25.17,40.94,25.23Z"/></svg>